<?xml version="1.0" encoding="UTF-8" standalone="no"?>
<!-- Created with Inkscape (http://www.inkscape.org/) -->

<svg
	xmlns="http://www.w3.org/2000/svg"
	xmlns:inkscape="http://www.inkscape.org/namespaces/inkscape"
	xmlns:sodipodi="http://sodipodi.sourceforge.net/DTD/sodipodi-0.dtd"
	xmlns:svg="http://www.w3.org/2000/svg"
	width="192"
	height="16"
	viewBox="0 0 192 16"
	version="1.1"
	inkscape:version="1.2.2 (b0a8486541, 2022-12-01)"
	>
	<sodipodi:namedview
		pagecolor="#505050"
		bordercolor="#eeeeee"
		borderopacity="1"
		inkscape:showpageshadow="0"
		inkscape:pageopacity="0"
		inkscape:pagecheckerboard="0"
		inkscape:deskcolor="#505050"
		inkscape:document-units="px"
		showgrid="false"
		>
		<inkscape:grid type="xygrid" originx="0" originy="0" empspacing="8" />
	</sodipodi:namedview>
	<g inkscape:groupmode="layer">
		<rect style="fill:#1a1a1a;fill-opacity:1;stroke:none;" x="0" y="0" width="192" height="16" />
	</g>
	<g inkscape:groupmode="layer" style="display:none">
		<text xml:space="preserve" style="font-style:normal;font-variant:normal;font-weight:normal;font-stretch:normal;font-size:13.3333px;font-family:'Source Code Pro';-inkscape-font-specification:'Source Code Pro, Normal';font-variant-ligatures:normal;font-variant-caps:normal;font-variant-numeric:normal;font-variant-east-asian:normal;text-align:start;text-anchor:start;fill:#ffffff;fill-opacity:1;stroke:none;stroke-linejoin:round" x="0" y="12"><tspan sodipodi:role="line" x="0" y="12">[root@yourpc]# rm -rf /</tspan></text>
	</g>
	<g inkscape:label="Outline" inkscape:groupmode="layer">
		<g aria-label="[root@yourpc]# rm -rf /" style="font-size:13.3333px;font-family:'Source Code Pro';-inkscape-font-specification:'Source Code Pro, Normal';fill:#ffffff;stroke-linejoin:round">
			<path d="m 2.9999924,14.026662 h 3.693324 V 13.399996 H 3.8799902 V 3.1866889 h 2.8133262 v -0.626665 h -3.693324 z" />
			<path d="M 9.9466465,12 H 11.039977 V 8.2000096 c 0.773331,-1.3466633 1.693329,-1.8533286 2.66666,-1.8533286 0.506665,0 0.746665,0.066667 1.199997,0.226666 l 0.253333,-0.9466642 c -0.399999,-0.1999995 -0.799998,-0.266666 -1.279997,-0.266666 -1.199997,0 -2.213328,0.6533317 -2.893326,1.693329 h -0.04 L 10.853311,5.5200164 H 9.9466465 Z" />
			<path d="m 19.999959,12.16 c 1.706663,0 3.199992,-1.239997 3.199992,-3.3866585 0,-2.1733279 -1.493329,-3.4133247 -3.199992,-3.4133247 -1.706662,0 -3.199992,1.2399968 -3.199992,3.4133247 0,2.1466615 1.49333,3.3866585 3.199992,3.3866585 z m 0,-0.906665 c -1.239996,0 -2.066661,-0.999997 -2.066661,-2.4799935 0,-1.4933296 0.826665,-2.5066603 2.066661,-2.5066603 1.239997,0 2.066662,1.0133307 2.066662,2.5066603 0,1.4799965 -0.826665,2.4799935 -2.066662,2.4799935 z" />
			<path d="m 27.999944,12.16 c 1.706662,0 3.199992,-1.239997 3.199992,-3.3866585 0,-2.1733279 -1.49333,-3.4133247 -3.199992,-3.4133247 -1.706662,0 -3.199992,1.2399968 -3.199992,3.4133247 0,2.1466615 1.49333,3.3866585 3.199992,3.3866585 z m 0,-0.906665 c -1.239997,0 -2.066661,-0.999997 -2.066661,-2.4799935 0,-1.4933296 0.826664,-2.5066603 2.066661,-2.5066603 1.239997,0 2.066662,1.0133307 2.066662,2.5066603 0,1.4799965 -0.826665,2.4799935 -2.066662,2.4799935 z" />
			<path d="m 37.253259,12.16 c 0.813331,0 1.439996,-0.173333 2.026662,-0.386666 l -0.24,-0.799998 c -0.466665,0.173333 -0.946664,0.293333 -1.559996,0.293333 -1.25333,0 -1.639996,-0.613332 -1.639996,-1.7733293 V 6.4133475 h 3.186659 V 5.5200164 H 35.839929 V 3.4400216 h -0.906664 l -0.146666,2.0799948 -1.866662,0.066666 v 0.8266646 h 1.826662 v 3.0666589 c 0,1.5999956 0.613331,2.6799936 2.50666,2.6799936 z" />
			<path d="m 44.546579,13.919995 c 0.879998,0 1.586663,-0.253333 2.279994,-0.733331 l -0.373332,-0.599999 c -0.519999,0.386666 -1.079998,0.599999 -1.879996,0.599999 -1.733328,0 -3.079992,-1.626663 -3.079992,-4.479989 0,-2.9466592 1.426663,-4.4399888 3.026659,-4.4399888 1.399997,0 1.986662,1.066664 1.986662,2.3466607 v 0.1866662 c -2.266661,0.2799993 -3.519991,0.9199977 -3.519991,2.2799943 0,1.0799976 0.773331,1.7466626 1.719995,1.7466626 0.693332,0 1.37333,-0.439999 1.759996,-0.9333313 h 0.05333 l 0.09333,0.7733313 h 0.666665 V 6.70668 c 0,-1.7999954 -0.866664,-3.1733253 -2.70666,-3.1733253 -2.199994,0 -3.91999,1.733329 -3.91999,5.1333204 0,3.4266579 1.786663,5.2533199 3.893324,5.2533199 z m 0.386666,-3.866657 c -0.653332,0 -1.066664,-0.3733321 -1.066664,-0.9999972 0,-0.8133313 0.719998,-1.2799968 2.559993,-1.5333295 v 1.6799958 c -0.493332,0.5599986 -1.013331,0.8533309 -1.493329,0.8533309 z" />
			<path d="m 49.746571,14.78666 c 1.466663,0 2.266661,-0.973331 2.746659,-2.253328 l 2.853327,-7.0133156 h -1.039998 l -1.41333,3.5866576 c -0.213332,0.5866652 -0.466665,1.266663 -0.693331,1.879995 h -0.05333 C 51.879899,10.360004 51.599899,9.6800059 51.346567,9.106674 L 49.759904,5.5200164 H 48.65324 l 3.026659,6.4933166 -0.199999,0.479999 c -0.32,0.799998 -0.866665,1.386663 -1.773329,1.386663 -0.2,0 -0.413332,-0.04 -0.586665,-0.09333 l -0.226666,0.866665 c 0.226666,0.08 0.546665,0.133333 0.853331,0.133333 z" />
			<path d="m 59.999883,12.16 c 1.706662,0 3.199992,-1.239997 3.199992,-3.3866585 0,-2.1733279 -1.49333,-3.4133247 -3.199992,-3.4133247 -1.706662,0 -3.199992,1.2399968 -3.199992,3.4133247 0,2.1466615 1.49333,3.3866585 3.199992,3.3866585 z m 0,-0.906665 c -1.239997,0 -2.066661,-0.999997 -2.066661,-2.4799935 0,-1.4933296 0.826664,-2.5066603 2.066661,-2.5066603 1.239997,0 2.066662,1.0133307 2.066662,2.5066603 0,1.4799965 -0.826665,2.4799935 -2.066662,2.4799935 z" />
			<path d="m 67.27987,12.16 c 0.999997,0 1.759995,-0.533332 2.413327,-1.29333 h 0.05333 L 69.839863,12 h 0.893331 V 5.5200164 h -1.09333 v 4.4933216 c -0.719999,0.839998 -1.266664,1.199997 -2.013329,1.199997 -1.079997,0 -1.493329,-0.586665 -1.493329,-1.8133284 V 5.5200164 h -1.106664 v 4.0266565 c 0,1.7066621 0.706665,2.6133271 2.253328,2.6133271 z" />
			<path d="m 73.946524,12 h 1.093331 V 8.2000096 c 0.773331,-1.3466633 1.693329,-1.8533286 2.66666,-1.8533286 0.506665,0 0.746665,0.066667 1.199997,0.226666 l 0.253333,-0.9466642 c -0.399999,-0.1999995 -0.799998,-0.266666 -1.279997,-0.266666 -1.199997,0 -2.213328,0.6533317 -2.893326,1.693329 h -0.04 l -0.09333,-1.5333294 h -0.906665 z" />
			<path d="m 81.239844,14.733326 h 1.093331 v -2.186661 l -0.05333,-1.226663 h 0.04 c 0.573331,0.533332 1.33333,0.839998 1.933328,0.839998 1.559996,0 2.946659,-1.29333 2.946659,-3.4933249 0,-2.0133283 -0.933331,-3.3066583 -2.679993,-3.3066583 -0.799998,0 -1.639996,0.4133323 -2.239994,0.9866642 h -0.04 l -0.09333,-0.8266646 h -0.906665 z m 2.82666,-3.493324 c -0.439999,0 -1.119997,-0.213333 -1.733329,-0.759998 V 7.2533453 c 0.666665,-0.666665 1.33333,-0.9733308 1.906662,-0.9733308 1.29333,0 1.826662,0.9599975 1.826662,2.3866606 0,1.5999959 -0.839998,2.5733269 -1.999995,2.5733269 z" />
			<path d="m 92.613154,12.16 c 0.959997,0 1.853328,-0.373333 2.573327,-1.013331 l -0.493332,-0.706665 c -0.533332,0.453332 -1.199997,0.813331 -1.999995,0.813331 -1.49333,0 -2.493327,-0.999997 -2.493327,-2.4799935 0,-1.4933296 1.026664,-2.5066603 2.519993,-2.5066603 0.679999,0 1.239997,0.2799992 1.773329,0.7466647 L 95.039814,6.3066811 C 94.506482,5.7866824 93.733151,5.3600168 92.67982,5.3600168 c -1.959995,0 -3.613324,1.2399968 -3.613324,3.4133247 0,2.1466615 1.519996,3.3866585 3.546658,3.3866585 z" />
			<path d="m 97.30648,14.026662 h 3.69332 V 2.5600239 h -3.69332 v 0.626665 h 2.81333 V 13.399996 h -2.81333 z" />
			<path d="m 107.03979,8.5200088 0.24,-1.9733284 h 1.76 l -0.24,1.9733284 z M 105.89313,12 h 0.72 l 0.33333,-2.7199931 h 1.76 L 108.37312,12 h 0.72 l 0.33333,-2.7199931 h 1.22667 V 8.5200088 h -1.13333 l 0.24,-1.9733284 h 1.15999 V 5.7733491 h -1.06666 l 0.29333,-2.4399939 h -0.70666 l -0.30667,2.4399939 h -1.75999 l 0.29333,-2.4399939 h -0.70667 l -0.30666,2.4399939 h -1.22667 v 0.7733313 h 1.13334 l -0.24,1.9733284 h -1.16 v 0.7599981 h 1.06666 z" />
			<path d="m 121.94643,12 h 1.09333 V 8.2000096 c 0.77333,-1.3466633 1.69333,-1.8533286 2.66666,-1.8533286 0.50667,0 0.74667,0.066667 1.2,0.226666 l 0.25333,-0.9466642 c -0.4,-0.1999995 -0.79999,-0.266666 -1.27999,-0.266666 -1.2,0 -2.21333,0.6533317 -2.89333,1.693329 h -0.04 l -0.0933,-1.5333294 h -0.90667 z" />
			<path d="m 128.77309,12 h 1.09333 V 7.3066785 c 0.32,-0.666665 0.61333,-0.9999974 1.06666,-0.9999974 0.48,0 0.66667,0.3866656 0.66667,1.1333304 V 12 h 1.01333 V 7.3066785 c 0.34666,-0.666665 0.58666,-0.9999974 1.03999,-0.9999974 0.48,0 0.69334,0.3866656 0.69334,1.1333304 V 12 h 1.09333 V 7.3600117 c 0,-1.29333 -0.53333,-1.9999949 -1.44,-1.9999949 -0.74666,0 -1.14666,0.4266656 -1.52,1.1199972 -0.18666,-0.7466648 -0.58666,-1.1199972 -1.22666,-1.1199972 -0.74666,0 -1.14666,0.4133323 -1.48,1.0133308 h -0.0267 l -0.0933,-0.8533312 h -0.88 z" />
			<path d="m 145.13306,8.0133434 h 5.73331 V 7.1866788 h -5.73331 z" />
			<path d="m 153.94637,12 h 1.09333 V 8.2000096 c 0.77333,-1.3466633 1.69333,-1.8533286 2.66666,-1.8533286 0.50667,0 0.74667,0.066667 1.2,0.226666 l 0.25333,-0.9466642 c -0.4,-0.1999995 -0.8,-0.266666 -1.27999,-0.266666 -1.2,0 -2.21333,0.6533317 -2.89333,1.693329 h -0.04 l -0.0933,-1.5333294 h -0.90667 z" />
			<path d="m 163.22635,12 h 1.08 V 6.4133475 h 2.71999 V 5.5200164 h -2.71999 V 4.9333512 c 0,-1.0533307 0.48,-1.6933291 1.64,-1.6933291 0.56,0 0.97333,0.066667 1.50666,0.3066659 l 0.25333,-0.8266645 c -0.61333,-0.2533327 -1.22666,-0.3733324 -1.86666,-0.3733324 -1.78666,0 -2.61333,1.0399973 -2.61333,2.62666 v 0.5466653 l -1.85333,0.066666 v 0.8266646 h 1.85333 z" />
			<path d="m 177.31966,14.133328 h 0.98667 l 4.37332,-11.5999707 h -0.98667 z" />
		</g>
	</g>
</svg>
