<?xml version="1.0" encoding="UTF-8" standalone="no"?>
<svg
	xmlns="http://www.w3.org/2000/svg"
	xmlns:cc="http://creativecommons.org/ns#"
	xmlns:dc="http://purl.org/dc/elements/1.1/"
	xmlns:inkscape="http://www.inkscape.org/namespaces/inkscape"
	xmlns:rdf="http://www.w3.org/1999/02/22-rdf-syntax-ns#"
	xmlns:sodipodi="http://sodipodi.sourceforge.net/DTD/sodipodi-0.dtd"
	xmlns:svg="http://www.w3.org/2000/svg"
	width="103"
	height="24"
	viewBox="0 0 103 24"
	version="1.1"
	inkscape:version="1.2.2 (b0a8486541, 2022-12-01)"
	area-label="4901777192607"
	>
	<title>ean13_4901777192607</title>
	<metadata>
		<rdf:RDF>
			<cc:License rdf:about="http://creativecommons.org/publicdomain/zero/1.0/">
				<cc:permits rdf:resource="http://creativecommons.org/ns#Reproduction" />
				<cc:permits rdf:resource="http://creativecommons.org/ns#Distribution" />
				<cc:permits rdf:resource="http://creativecommons.org/ns#DerivativeWorks" />
			</cc:License>
			<cc:Work rdf:about="">
				<cc:license rdf:resource="http://creativecommons.org/publicdomain/zero/1.0/" />
				<dc:title>ean13_4901777192607</dc:title>
				<dc:creator>
					<cc:Agent>
						<dc:title>zawa-ch.</dc:title>
					</cc:Agent>
				</dc:creator>
				<dc:source>https://products.suntory.co.jp/d/4901777192607/</dc:source>
			</cc:Work>
		</rdf:RDF>
	</metadata>
	<style>
		.barcode-fg {
			fill: black;
			fill-opacity: 1;
			stroke: none;
		}
		.bg {
			fill: white;
			fill-opacity: 1;
			stroke: none;
		}
	</style>
	<sodipodi:namedview
		pagecolor="#505050"
		bordercolor="#eeeeee"
		borderopacity="1"
		inkscape:showpageshadow="0"
		inkscape:pageopacity="0"
		inkscape:pagecheckerboard="0"
		inkscape:deskcolor="#505050"
		inkscape:document-units="px"
		showgrid="false"
		>
		<inkscape:grid type="xygrid" originx="0" originy="0" empspacing="8" />
	</sodipodi:namedview>
	<g inkscape:groupmode="layer" >
		<rect x="0" y="0" width="103" height="24" rx="0" ry="0" class="bg" />
		<g id="barcode" inkscape:label="EAN13-4901777192607" class="barcode-fg" area-label="4901777192607">
			<rect id="barcode_bar1" x="4" y="0" width="1" height="24" />
			<rect id="barcode_bar3" x="6" y="0" width="1" height="24" />
			<rect id="barcode_bar5" x="10" y="0" width="1" height="24" />
			<rect id="barcode_bar7" x="12" y="0" width="2" height="24" />
			<rect id="barcode_bar9" x="15" y="0" width="1" height="24" />
			<rect id="barcode_bar11" x="18" y="0" width="3" height="24" />
			<rect id="barcode_bar13" x="23" y="0" width="2" height="24" />
			<rect id="barcode_bar15" x="27" y="0" width="1" height="24" />
			<rect id="barcode_bar17" x="29" y="0" width="3" height="24" />
			<rect id="barcode_bar19" x="33" y="0" width="2" height="24" />
			<rect id="barcode_bar21" x="37" y="0" width="1" height="24" />
			<rect id="barcode_bar23" x="41" y="0" width="1" height="24" />
			<rect id="barcode_bar25" x="44" y="0" width="1" height="24" />
			<rect id="barcode_bar27" x="48" y="0" width="1" height="24" />
			<rect id="barcode_bar29" x="50" y="0" width="1" height="24" />
			<rect id="barcode_bar31" x="52" y="0" width="1" height="24" />
			<rect id="barcode_bar33" x="54" y="0" width="2" height="24" />
			<rect id="barcode_bar35" x="58" y="0" width="2" height="24" />
			<rect id="barcode_bar37" x="61" y="0" width="3" height="24" />
			<rect id="barcode_bar39" x="65" y="0" width="1" height="24" />
			<rect id="barcode_bar41" x="68" y="0" width="2" height="24" />
			<rect id="barcode_bar43" x="71" y="0" width="2" height="24" />
			<rect id="barcode_bar45" x="75" y="0" width="1" height="24" />
			<rect id="barcode_bar47" x="77" y="0" width="1" height="24" />
			<rect id="barcode_bar49" x="82" y="0" width="3" height="24" />
			<rect id="barcode_bar51" x="87" y="0" width="1" height="24" />
			<rect id="barcode_bar53" x="89" y="0" width="1" height="24" />
			<rect id="barcode_bar55" x="93" y="0" width="1" height="24" />
			<rect id="barcode_bar57" x="96" y="0" width="1" height="24" />
			<rect id="barcode_bar59" x="98" y="0" width="1" height="24" />
		</g>
	</g>
</svg>
