<?xml version="1.0" encoding="UTF-8" standalone="no"?>
<svg
	xmlns="http://www.w3.org/2000/svg"
	xmlns:cc="http://creativecommons.org/ns#"
	xmlns:dc="http://purl.org/dc/elements/1.1/"
	xmlns:inkscape="http://www.inkscape.org/namespaces/inkscape"
	xmlns:rdf="http://www.w3.org/1999/02/22-rdf-syntax-ns#"
	xmlns:sodipodi="http://sodipodi.sourceforge.net/DTD/sodipodi-0.dtd"
	xmlns:svg="http://www.w3.org/2000/svg"
	width="136"
	height="40"
	viewBox="0 0 136 40"
	version="1.1"
	inkscape:version="1.2.2 (b0a8486541, 2022-12-01)"
	>
	<title>http_431</title>
	<metadata>
		<rdf:RDF>
			<cc:License rdf:about="http://creativecommons.org/publicdomain/zero/1.0/">
				<cc:permits rdf:resource="http://creativecommons.org/ns#Reproduction" />
				<cc:permits rdf:resource="http://creativecommons.org/ns#Distribution" />
				<cc:permits rdf:resource="http://creativecommons.org/ns#DerivativeWorks" />
			</cc:License>
			<cc:Work rdf:about="">
				<cc:license rdf:resource="http://creativecommons.org/publicdomain/zero/1.0/" />
				<dc:title>http_431</dc:title>
				<dc:creator>
					<cc:Agent>
						<dc:title>zawa-ch.</dc:title>
					</cc:Agent>
				</dc:creator>
			</cc:Work>
		</rdf:RDF>
	</metadata>
	<sodipodi:namedview
		id="namedview7"
		pagecolor="#505050"
		bordercolor="#eeeeee"
		borderopacity="1"
		inkscape:showpageshadow="0"
		inkscape:pageopacity="0"
		inkscape:pagecheckerboard="0"
		inkscape:deskcolor="#505050"
		inkscape:document-units="px"
		showgrid="false"
		>
		<inkscape:grid type="xygrid" originx="0" originy="0" empspacing="8" />
	</sodipodi:namedview>
	<g inkscape:groupmode="layer" style="display:none">
		<text xml:space="preserve" style="font-style:normal;font-variant:normal;font-weight:normal;font-stretch:normal;font-size:16px;font-family:'Press Start 2P';-inkscape-font-specification:'Press Start 2P, Normal';font-variant-ligatures:normal;font-variant-caps:normal;font-variant-numeric:normal;font-variant-east-asian:normal;text-align:start;text-anchor:start;fill:#ff0000;fill-opacity:1;stroke-linejoin:round" x="4" y="20"><tspan sodipodi:role="line" x="4" y="20">431</tspan></text>
		<text xml:space="preserve" style="font-style:normal;font-variant:normal;font-weight:normal;font-stretch:normal;font-size:8px;font-family:'Press Start 2P';-inkscape-font-specification:'Press Start 2P, Normal';font-variant-ligatures:normal;font-variant-caps:normal;font-variant-numeric:normal;font-variant-east-asian:normal;text-align:start;text-anchor:start;fill:#ff0000;fill-opacity:1;stroke-linejoin:round" x="4" y="28"><tspan sodipodi:role="line" x="4" y="28">Request Header</tspan></text>
		<text xml:space="preserve" style="font-style:normal;font-variant:normal;font-weight:normal;font-stretch:normal;font-size:8px;font-family:'Press Start 2P';-inkscape-font-specification:'Press Start 2P, Normal';font-variant-ligatures:normal;font-variant-caps:normal;font-variant-numeric:normal;font-variant-east-asian:normal;fill:#ff0000;fill-opacity:1;stroke-linejoin:round" x="4" y="36"><tspan sodipodi:role="line" x="4" y="36">Fields Too Large</tspan></text>
	</g>
	<g inkscape:groupmode="layer" inkscape:label="Outline">
		<g aria-label="431" style="font-size:16px;font-family:'Press Start 2P';-inkscape-font-specification:'Press Start 2P, Normal';fill:#ff0000;stroke-linejoin:round">
			<path d="M 10,5 V 4 h 3 3 v 4 4 h 1 1 v 1 1 h -1 -1 v 2 2 H 14 12 V 16 14 H 8 4 V 12 10 H 5 6 V 9 8 H 7 8 V 7 6 h 1 1 z m 2,5 V 8 h -1 -1 v 1 1 H 9 8 v 1 1 h 2 2 z" />
			<path d="M 22,5 V 4 h 6 6 v 1 1 h -1 -1 v 1 1 h -1 -1 v 1 1 h 1 1 v 1 1 h 1 1 v 2 2 h -1 -1 v 1 1 h -5 -5 v -1 -1 h -1 -1 v -1 -1 h 2 2 v 1 1 h 3 3 v -2 -2 h -3 -3 v -1 -1 h 1 1 V 9 8 h 1 1 V 7 6 h -3 -3 z" />
			<path d="M 42,5 V 4 h 2 2 v 6 6 h 2 2 v 1 1 h -6 -6 v -1 -1 h 2 2 V 12 8 H 41 40 V 7 6 h 1 1 z" />
		</g>
		<g aria-label="Request Header" style="font-size:8px;font-family:'Press Start 2P';-inkscape-font-specification:'Press Start 2P, Normal';fill:#ff0000;stroke-linejoin:round">
			<path d="M 4,23.5 V 20 h 3 3 V 20.5 21 H 10.5 11 V 22.5 24 H 10 9 V 24.5 25 H 9.5 10 V 25.5 26 H 10.5 11 V 26.5 27 H 9.5 8 V 26.5 26 H 7.5 7 V 25.5 25 H 6.5 6 v 1 1 H 5 4 Z M 9,22 V 21 H 7.5 6 V 22.5 24 H 7 8 V 23.5 23 H 8.5 9 Z" />
			<path d="M 13,22.5 V 22 h 2.5 2.5 v 0.5 0.5 h 0.5 0.5 v 1 1 H 16.5 14 v 0.5 0.5 h 2 2 V 26.5 27 H 15.5 13 V 26.5 26 H 12.5 12 V 24.5 23 h 0.5 0.5 z m 4,1 V 23 H 15.5 14 v 0.5 0.5 h 1.5 1.5 z" />
			<path d="M 21,22.5 V 22 h 3 3 v 3 3 H 26 25 V 27 26 H 23 21 V 25.5 25 H 20.5 20 V 24 23 H 20.5 21 Z M 25,24 V 23 H 23.5 22 v 1 1 h 1.5 1.5 z" />
			<path d="m 28,24 v -2 h 1 1 v 2 2 h 1.5 1.5 v -2 -2 h 1 1 V 24.5 27 H 32 29 V 26.5 26 H 28.5 28 Z" />
			<path d="M 37,22.5 V 22 h 2.5 2.5 v 0.5 0.5 h 0.5 0.5 v 1 1 H 40.5 38 v 0.5 0.5 h 2 2 V 26.5 27 H 39.5 37 V 26.5 26 H 36.5 36 V 24.5 23 h 0.5 0.5 z m 4,1 V 23 H 39.5 38 v 0.5 0.5 h 1.5 1.5 z" />
			<path d="M 45,22.5 V 22 h 2.5 2.5 v 0.5 0.5 h -2 -2 v 0.5 0.5 h 2 2 V 24.5 25 H 50.5 51 V 25.5 26 H 50.5 50 V 26.5 27 H 47 44 V 26.5 26 H 46.5 49 V 25.5 25 H 47 45 V 24.5 24 H 44.5 44 V 23.5 23 h 0.5 0.5 z" />
			<path d="m 55,21 v -1 h 1 1 v 1 1 h 1 1 v 0.5 0.5 h -1 -1 v 2 2 H 56 55 V 25 23 H 54 53 V 22.5 22 h 1 1 z" />
			<path d="M 68,23.5 V 20 h 1 1 V 21.5 23 H 71.5 73 V 21.5 20 h 1 1 V 23.5 27 H 74 73 V 25.5 24 H 71.5 70 v 1.5 1.5 h -1 -1 z" />
			<path d="M 77,22.5 V 22 h 2.5 2.5 v 0.5 0.5 h 0.5 0.5 v 1 1 H 80.5 78 v 0.5 0.5 h 2 2 V 26.5 27 H 79.5 77 V 26.5 26 H 76.5 76 V 24.5 23 h 0.5 0.5 z m 4,1 V 23 H 79.5 78 v 0.5 0.5 h 1.5 1.5 z" />
			<path d="M 85,22.5 V 22 h 2.5 2.5 v 0.5 0.5 h 0.5 0.5 v 2 2 H 88 85 V 26.5 26 H 84.5 84 V 25.5 25 H 84.5 85 V 24.5 24 h 2 2 V 23.5 23 h -2 -2 z m 4,3 V 25 H 87.5 86 v 0.5 0.5 h 1.5 1.5 z" />
			<path d="m 97,21 v -1 h 1 1 V 23.5 27 H 96 93 V 26.5 26 H 92.5 92 V 24.5 23 H 92.5 93 V 22.5 22 h 2 2 z m 0,3.5 V 23 H 95.5 94 v 1.5 1.5 h 1.5 1.5 z" />
			<path d="M 101,22.5 V 22 h 2.5 2.5 v 0.5 0.5 h 0.5 0.5 v 1 1 h -2.5 -2.5 v 0.5 0.5 h 2 2 V 26.5 27 H 103.5 101 V 26.5 26 H 100.5 100 V 24.5 23 h 0.5 0.5 z m 4,1 V 23 h -1.5 -1.5 v 0.5 0.5 h 1.5 1.5 z" />
			<path d="M 109,24.5 V 22 h 1 1 v 0.5 0.5 h 0.5 0.5 V 22.5 22 h 1.5 1.5 v 0.5 0.5 h -1.5 -1.5 v 0.5 0.5 h -0.5 -0.5 v 1.5 1.5 h -1 -1 z" />
		</g>
		<g aria-label="Fields Too Large" style="font-size:8px;font-family:'Press Start 2P';-inkscape-font-specification:'Press Start 2P, Normal';fill:#ff0000;stroke-linejoin:round">
			<path d="M 4,31.5 V 28 H 7.5 11 V 28.5 29 H 8.5 6 v 1 1 h 2 2 V 31.5 32 H 8 6 V 33.5 35 H 5 4 Z" />
			<path d="M 14,30.5 V 30 h 1.5 1.5 v 2 2 h 1 1 V 34.5 35 H 16 13 V 34.5 34 h 1 1 V 32.5 31 H 14.5 14 Z m 1,-2 V 28 h 1 1 v 0.5 0.5 h -1 -1 z" />
			<path d="M 21,30.5 V 30 h 2.5 2.5 v 0.5 0.5 h 0.5 0.5 v 1 1 H 24.5 22 v 0.5 0.5 h 2 2 V 34.5 35 H 23.5 21 V 34.5 34 H 20.5 20 V 32.5 31 h 0.5 0.5 z m 4,1 V 31 H 23.5 22 v 0.5 0.5 h 1.5 1.5 z" />
			<path d="M 30,28.5 V 28 h 1.5 1.5 v 3 3 h 1 1 V 34.5 35 H 32 29 V 34.5 34 h 1 1 V 31.5 29 H 30.5 30 Z" />
			<path d="m 41,29 v -1 h 1 1 V 31.5 35 H 40 37 V 34.5 34 H 36.5 36 V 32.5 31 H 36.5 37 V 30.5 30 h 2 2 z m 0,3.5 V 31 H 39.5 38 v 1.5 1.5 h 1.5 1.5 z" />
			<path d="M 45,30.5 V 30 h 2.5 2.5 v 0.5 0.5 h -2 -2 v 0.5 0.5 h 2 2 V 32.5 33 H 50.5 51 V 33.5 34 H 50.5 50 V 34.5 35 H 47 44 V 34.5 34 H 46.5 49 V 33.5 33 H 47 45 V 32.5 32 H 44.5 44 V 31.5 31 h 0.5 0.5 z" />
			<path d="M 61,28.5 V 28 h 3 3 v 0.5 0.5 h -1 -1 v 3 3 h -1 -1 v -3 -3 h -1 -1 z" />
			<path d="M 69,30.5 V 30 H 71.5 74 V 30.5 31 H 74.5 75 V 32.5 34 H 74.5 74 V 34.5 35 H 71.5 69 V 34.5 34 H 68.5 68 V 32.5 31 h 0.5 0.5 z m 4,2 V 31 H 71.5 70 v 1.5 1.5 h 1.5 1.5 z" />
			<path d="M 77,30.5 V 30 H 79.5 82 V 30.5 31 H 82.5 83 V 32.5 34 H 82.5 82 V 34.5 35 H 79.5 77 V 34.5 34 H 76.5 76 V 32.5 31 h 0.5 0.5 z m 4,2 V 31 H 79.5 78 v 1.5 1.5 h 1.5 1.5 z" />
			<path d="M 93,31.5 V 28 h 1 1 v 3 3 h 2 2 v 0.5 0.5 h -3 -3 z" />
			<path d="M 101,30.5 V 30 h 2.5 2.5 v 0.5 0.5 h 0.5 0.5 v 2 2 h -3 -3 V 34.5 34 H 100.5 100 V 33.5 33 h 0.5 0.5 V 32.5 32 h 2 2 V 31.5 31 h -2 -2 z m 4,3 V 33 h -1.5 -1.5 v 0.5 0.5 h 1.5 1.5 z" />
			<path d="M 109,32.5 V 30 h 1 1 v 0.5 0.5 h 0.5 0.5 V 30.5 30 h 1.5 1.5 v 0.5 0.5 h -1.5 -1.5 v 0.5 0.5 h -0.5 -0.5 v 1.5 1.5 h -1 -1 z" />
			<path d="M 117,30.5 V 30 h 3 3 V 32.5 35 H 122.5 122 V 35.5 36 H 119.5 117 V 35.5 35 h 2 2 V 34.5 34 h -2 -2 V 33.5 33 h -0.5 -0.5 v -1 -1 h 0.5 0.5 z m 4,1.5 v -1 h -1.5 -1.5 v 1 1 h 1.5 1.5 z" />
			<path d="M 125,30.5 V 30 h 2.5 2.5 v 0.5 0.5 h 0.5 0.5 v 1 1 h -2.5 -2.5 v 0.5 0.5 h 2 2 V 34.5 35 H 127.5 125 V 34.5 34 H 124.5 124 V 32.5 31 h 0.5 0.5 z m 4,1 V 31 h -1.5 -1.5 v 0.5 0.5 h 1.5 1.5 z" />
		</g>
	</g>
</svg>
