<?xml version="1.0" encoding="UTF-8" standalone="no"?>
<svg
	xmlns="http://www.w3.org/2000/svg"
	xmlns:inkscape="http://www.inkscape.org/namespaces/inkscape"
	xmlns:sodipodi="http://sodipodi.sourceforge.net/DTD/sodipodi-0.dtd"
	xmlns:svg="http://www.w3.org/2000/svg"
	width="112"
	height="40"
	viewBox="0 0 112 40"
	version="1.1"
	inkscape:version="1.2.2 (b0a8486541, 2022-12-01)"
	>
	<sodipodi:namedview
		id="namedview7"
		pagecolor="#505050"
		bordercolor="#eeeeee"
		borderopacity="1"
		inkscape:showpageshadow="0"
		inkscape:pageopacity="0"
		inkscape:pagecheckerboard="0"
		inkscape:deskcolor="#505050"
		inkscape:document-units="px"
		showgrid="false"
		>
		<inkscape:grid type="xygrid" originx="0" originy="0" empspacing="8" />
	</sodipodi:namedview>
	<g inkscape:groupmode="layer" style="display:none">
		<text xml:space="preserve" style="font-style:normal;font-variant:normal;font-weight:normal;font-stretch:normal;font-size:16px;font-family:'Press Start 2P';-inkscape-font-specification:'Press Start 2P, Normal';font-variant-ligatures:normal;font-variant-caps:normal;font-variant-numeric:normal;font-variant-east-asian:normal;text-align:start;text-anchor:start;fill:#ff0000;fill-opacity:1;stroke-linejoin:round" x="4" y="20"><tspan sodipodi:role="line" x="4" y="20">422</tspan></text>
		<text xml:space="preserve" style="font-style:normal;font-variant:normal;font-weight:normal;font-stretch:normal;font-size:8px;font-family:'Press Start 2P';-inkscape-font-specification:'Press Start 2P, Normal';font-variant-ligatures:normal;font-variant-caps:normal;font-variant-numeric:normal;font-variant-east-asian:normal;text-align:start;text-anchor:start;fill:#ff0000;fill-opacity:1;stroke-linejoin:round" x="4" y="28"><tspan sodipodi:role="line" x="4" y="28">Unprocessable</tspan></text>
		<text xml:space="preserve" style="font-style:normal;font-variant:normal;font-weight:normal;font-stretch:normal;font-size:8px;font-family:'Press Start 2P';-inkscape-font-specification:'Press Start 2P, Normal';font-variant-ligatures:normal;font-variant-caps:normal;font-variant-numeric:normal;font-variant-east-asian:normal;fill:#ff0000;fill-opacity:1;stroke-linejoin:round" x="4" y="36"><tspan sodipodi:role="line" x="4" y="36">Content</tspan></text>
	</g>
	<g inkscape:groupmode="layer" inkscape:label="Outline">
		<g aria-label="422" style="font-size:16px;font-family:'Press Start 2P';-inkscape-font-specification:'Press Start 2P, Normal';fill:#ff0000;stroke-linejoin:round">
			<path d="M 10,5 V 4 h 3 3 v 4 4 h 1 1 v 1 1 h -1 -1 v 2 2 H 14 12 V 16 14 H 8 4 V 12 10 H 5 6 V 9 8 H 7 8 V 7 6 h 1 1 z m 2,5 V 8 h -1 -1 v 1 1 H 9 8 v 1 1 h 2 2 z" />
			<path d="M 22,5 V 4 h 5 5 v 1 1 h 1 1 v 2 2 h -1 -1 v 1 1 h -1 -1 v 1 1 h -2 -2 v 1 1 h 4 4 v 1 1 h -7 -7 v -2 -2 h 1 1 v -1 -1 h 1 1 v -1 -1 h 2 2 V 9 8 h 1 1 V 7 6 H 27 24 V 7 8 H 22 20 V 7 6 h 1 1 z" />
			<path d="M 38,5 V 4 h 5 5 v 1 1 h 1 1 v 2 2 h -1 -1 v 1 1 h -1 -1 v 1 1 h -2 -2 v 1 1 h 4 4 v 1 1 h -7 -7 v -2 -2 h 1 1 v -1 -1 h 1 1 v -1 -1 h 2 2 V 9 8 h 1 1 V 7 6 H 43 40 V 7 8 H 38 36 V 7 6 h 1 1 z" />
		</g>
		<g aria-label="Unprocessable" style="font-size:8px;font-family:'Press Start 2P';-inkscape-font-specification:'Press Start 2P, Normal';fill:#ff0000;stroke-linejoin:round">
			<path d="m 4,23 v -3 h 1 1 v 3 3 H 7.5 9 v -3 -3 h 1 1 v 3 3 H 10.5 10 V 26.5 27 H 7.5 5 V 26.5 26 H 4.5 4 Z" />
			<path d="M 12,24.5 V 22 h 3 3 v 0.5 0.5 h 0.5 0.5 v 2 2 H 18 17 V 25 23 H 15.5 14 v 2 2 h -1 -1 z" />
			<path d="m 20,25 v -3 h 3 3 v 0.5 0.5 h 0.5 0.5 v 1 1 H 26.5 26 v 0.5 0.5 h -2 -2 v 1 1 h -1 -1 z m 5,-1 V 23 H 23.5 22 v 1 1 h 1.5 1.5 z" />
			<path d="M 29,24.5 V 22 h 1 1 V 22.5 23 H 31.5 32 V 22.5 22 H 33.5 35 V 22.5 23 H 33.5 32 V 23.5 24 H 31.5 31 v 1.5 1.5 h -1 -1 z" />
			<path d="M 37,22.5 V 22 H 39.5 42 V 22.5 23 H 42.5 43 V 24.5 26 H 42.5 42 V 26.5 27 H 39.5 37 V 26.5 26 H 36.5 36 V 24.5 23 h 0.5 0.5 z m 4,2 V 23 H 39.5 38 v 1.5 1.5 h 1.5 1.5 z" />
			<path d="M 45,22.5 V 22 h 3 3 V 22.5 23 H 48.5 46 V 24.5 26 H 48.5 51 V 26.5 27 H 48 45 V 26.5 26 H 44.5 44 V 24.5 23 h 0.5 0.5 z" />
			<path d="M 53,22.5 V 22 h 2.5 2.5 v 0.5 0.5 h 0.5 0.5 v 1 1 H 56.5 54 v 0.5 0.5 h 2 2 V 26.5 27 H 55.5 53 V 26.5 26 H 52.5 52 V 24.5 23 h 0.5 0.5 z m 4,1 V 23 H 55.5 54 v 0.5 0.5 h 1.5 1.5 z" />
			<path d="M 61,22.5 V 22 h 2.5 2.5 v 0.5 0.5 h -2 -2 v 0.5 0.5 h 2 2 V 24.5 25 H 66.5 67 V 25.5 26 H 66.5 66 V 26.5 27 H 63 60 V 26.5 26 H 62.5 65 V 25.5 25 H 63 61 V 24.5 24 H 60.5 60 V 23.5 23 h 0.5 0.5 z" />
			<path d="M 69,22.5 V 22 h 2.5 2.5 v 0.5 0.5 h -2 -2 v 0.5 0.5 h 2 2 V 24.5 25 H 74.5 75 V 25.5 26 H 74.5 74 V 26.5 27 H 71 68 V 26.5 26 H 70.5 73 V 25.5 25 H 71 69 V 24.5 24 H 68.5 68 V 23.5 23 h 0.5 0.5 z" />
			<path d="M 77,22.5 V 22 h 2.5 2.5 v 0.5 0.5 h 0.5 0.5 v 2 2 H 80 77 V 26.5 26 H 76.5 76 V 25.5 25 H 76.5 77 V 24.5 24 h 2 2 V 23.5 23 h -2 -2 z m 4,3 V 25 H 79.5 78 v 0.5 0.5 h 1.5 1.5 z" />
			<path d="m 84,23 v -3 h 1 1 v 1 1 h 2 2 V 22.5 23 H 90.5 91 V 24.5 26 H 90.5 90 V 26.5 27 H 87.5 85 V 26.5 26 H 84.5 84 Z m 5,1.5 V 23 H 87.5 86 v 1.5 1.5 h 1.5 1.5 z" />
			<path d="M 94,20.5 V 20 h 1.5 1.5 v 3 3 h 1 1 V 26.5 27 H 96 93 V 26.5 26 h 1 1 V 23.5 21 H 94.5 94 Z" />
			<path d="M 101,22.5 V 22 h 2.5 2.5 v 0.5 0.5 h 0.5 0.5 v 1 1 h -2.5 -2.5 v 0.5 0.5 h 2 2 V 26.5 27 H 103.5 101 V 26.5 26 H 100.5 100 V 24.5 23 h 0.5 0.5 z m 4,1 V 23 h -1.5 -1.5 v 0.5 0.5 h 1.5 1.5 z" />
		</g>
		<g aria-label="Content" style="font-size:8px;font-family:'Press Start 2P';-inkscape-font-specification:'Press Start 2P, Normal';fill:#ff0000;stroke-linejoin:round">
			<path d="M 6,28.5 V 28 h 2 2 V 28.5 29 H 10.5 11 V 29.5 30 H 10 9 V 29.5 29 H 8 7 V 29.5 30 H 6.5 6 V 31.5 33 H 6.5 7 V 33.5 34 H 8 9 V 33.5 33 h 1 1 V 33.5 34 H 10.5 10 V 34.5 35 H 8 6 V 34.5 34 H 5.5 5 V 33.5 33 H 4.5 4 V 31.5 30 H 4.5 5 V 29.5 29 H 5.5 6 Z" />
			<path d="M 13,30.5 V 30 H 15.5 18 V 30.5 31 H 18.5 19 V 32.5 34 H 18.5 18 V 34.5 35 H 15.5 13 V 34.5 34 H 12.5 12 V 32.5 31 h 0.5 0.5 z m 4,2 V 31 H 15.5 14 v 1.5 1.5 h 1.5 1.5 z" />
			<path d="M 20,32.5 V 30 h 3 3 v 0.5 0.5 h 0.5 0.5 v 2 2 H 26 25 V 33 31 H 23.5 22 v 2 2 h -1 -1 z" />
			<path d="m 31,29 v -1 h 1 1 v 1 1 h 1 1 v 0.5 0.5 h -1 -1 v 2 2 H 32 31 V 33 31 H 30 29 V 30.5 30 h 1 1 z" />
			<path d="M 37,30.5 V 30 h 2.5 2.5 v 0.5 0.5 h 0.5 0.5 v 1 1 H 40.5 38 v 0.5 0.5 h 2 2 V 34.5 35 H 39.5 37 V 34.5 34 H 36.5 36 V 32.5 31 h 0.5 0.5 z m 4,1 V 31 H 39.5 38 v 0.5 0.5 h 1.5 1.5 z" />
			<path d="M 44,32.5 V 30 h 3 3 v 0.5 0.5 h 0.5 0.5 v 2 2 H 50 49 V 33 31 H 47.5 46 v 2 2 h -1 -1 z" />
			<path d="m 55,29 v -1 h 1 1 v 1 1 h 1 1 v 0.5 0.5 h -1 -1 v 2 2 H 56 55 V 33 31 H 54 53 V 30.5 30 h 1 1 z" />
		</g>
	</g>
</svg>
