<?xml version="1.0" encoding="UTF-8" standalone="no"?>
<svg
	xmlns="http://www.w3.org/2000/svg"
	xmlns:cc="http://creativecommons.org/ns#"
	xmlns:dc="http://purl.org/dc/elements/1.1/"
	xmlns:inkscape="http://www.inkscape.org/namespaces/inkscape"
	xmlns:rdf="http://www.w3.org/1999/02/22-rdf-syntax-ns#"
	xmlns:sodipodi="http://sodipodi.sourceforge.net/DTD/sodipodi-0.dtd"
	xmlns:svg="http://www.w3.org/2000/svg"
	width="104"
	height="40"
	viewBox="0 0 104 40.000001"
	version="1.1"
	inkscape:version="1.2.2 (b0a8486541, 2022-12-01)"
	>
	<title>http_500</title>
	<metadata>
		<rdf:RDF>
			<cc:License rdf:about="http://creativecommons.org/publicdomain/zero/1.0/">
				<cc:permits rdf:resource="http://creativecommons.org/ns#Reproduction" />
				<cc:permits rdf:resource="http://creativecommons.org/ns#Distribution" />
				<cc:permits rdf:resource="http://creativecommons.org/ns#DerivativeWorks" />
			</cc:License>
			<cc:Work rdf:about="">
				<cc:license rdf:resource="http://creativecommons.org/publicdomain/zero/1.0/" />
				<dc:title>http_500</dc:title>
				<dc:creator>
					<cc:Agent>
						<dc:title>zawa-ch.</dc:title>
					</cc:Agent>
				</dc:creator>
			</cc:Work>
		</rdf:RDF>
	</metadata>
	<sodipodi:namedview
		pagecolor="#505050"
		bordercolor="#eeeeee"
		borderopacity="1"
		inkscape:showpageshadow="0"
		inkscape:pageopacity="0"
		inkscape:pagecheckerboard="0"
		inkscape:deskcolor="#505050"
		inkscape:document-units="px"
		showgrid="false"
		>
		<inkscape:grid type="xygrid" originx="0" originy="0" empspacing="8" />
	</sodipodi:namedview>
	<g inkscape:groupmode="layer" style="display:none">
		<text xml:space="preserve" style="font-style:normal;font-variant:normal;font-weight:normal;font-stretch:normal;font-size:16px;font-family:'Press Start 2P';-inkscape-font-specification:'Press Start 2P, Normal';font-variant-ligatures:normal;font-variant-caps:normal;font-variant-numeric:normal;font-variant-east-asian:normal;text-align:start;text-anchor:start;fill:#ff00ff;fill-opacity:1;stroke-linejoin:round" x="4" y="20"><tspan sodipodi:role="line" x="4" y="20">500</tspan></text>
		<text xml:space="preserve" style="font-style:normal;font-variant:normal;font-weight:normal;font-stretch:normal;font-size:8px;font-family:'Press Start 2P';-inkscape-font-specification:'Press Start 2P, Normal';font-variant-ligatures:normal;font-variant-caps:normal;font-variant-numeric:normal;font-variant-east-asian:normal;text-align:start;text-anchor:start;fill:#ff00ff;fill-opacity:1;stroke-linejoin:round" x="4" y="36"><tspan sodipodi:role="line" x="4" y="36">Server Error</tspan></text>
		<text xml:space="preserve" style="font-style:normal;font-variant:normal;font-weight:normal;font-stretch:normal;font-size:8px;font-family:'Press Start 2P';-inkscape-font-specification:'Press Start 2P, Normal';font-variant-ligatures:normal;font-variant-caps:normal;font-variant-numeric:normal;font-variant-east-asian:normal;fill:#ff00ff;fill-opacity:1;stroke-linejoin:round" x="4" y="28"><tspan sodipodi:role="line" x="4" y="28">Internal</tspan></text>
	</g>
	<g inkscape:groupmode="layer" inkscape:label="Outline">
		<g aria-label="500" style="font-size:16px;font-family:'Press Start 2P';-inkscape-font-specification:'Press Start 2P, Normal';fill:#ff00ff;stroke-linejoin:round">
			<path d="M 4,7 V 4 h 6 6 V 5 6 H 12 8 v 1 1 h 4 4 v 1 1 h 1 1 v 3 3 h -1 -1 v 1 1 H 11 6 V 17 16 H 5 4 v -1 -1 h 2 2 v 1 1 h 3 3 V 13 10 H 9 4 Z" />
			<path d="M 24,5 V 4 h 3 3 v 1 1 h 1 1 v 1 1 h 1 1 v 3 3 h -1 -1 v 1 1 h -1 -1 v 1 1 H 27 24 V 17 16 H 23 22 V 15 14 H 21 20 V 11 8 h 1 1 V 7 6 h 1 1 z m 4,2 V 6 h -2 -2 v 4 4 h 1 1 v 1 1 h 2 2 V 12 8 h -1 -1 z" />
			<path d="M 40,5 V 4 h 3 3 v 1 1 h 1 1 v 1 1 h 1 1 v 3 3 h -1 -1 v 1 1 h -1 -1 v 1 1 H 43 40 V 17 16 H 39 38 V 15 14 H 37 36 V 11 8 h 1 1 V 7 6 h 1 1 z m 4,2 V 6 h -2 -2 v 4 4 h 1 1 v 1 1 h 2 2 V 12 8 h -1 -1 z" />
		</g>
		<g aria-label="Server Error" style="font-size:8px;font-family:'Press Start 2P';-inkscape-font-specification:'Press Start 2P, Normal';fill:#ff00ff;stroke-linejoin:round">
			<path d="M 5,28.5 V 28 H 7 9 V 28.5 29 H 9.5 10 V 29.5 30 H 9 8 V 29.5 29 H 7 6 v 1 1 h 2 2 v 0.5 0.5 h 0.5 0.5 v 1 1 H 10.5 10 V 34.5 35 H 7.5 5 V 34.5 34 H 4.5 4 V 33.5 33 H 5 6 V 33.5 34 H 7.5 9 V 33 32 H 7 5 V 31.5 31 H 4.5 4 V 30 29 H 4.5 5 Z" />
			<path d="M 13,30.5 V 30 h 2.5 2.5 v 0.5 0.5 h 0.5 0.5 v 1 1 H 16.5 14 v 0.5 0.5 h 2 2 V 34.5 35 H 15.5 13 V 34.5 34 H 12.5 12 V 32.5 31 h 0.5 0.5 z m 4,1 V 31 H 15.5 14 v 0.5 0.5 h 1.5 1.5 z" />
			<path d="M 21,32.5 V 30 h 1 1 V 30.5 31 H 23.5 24 V 30.5 30 H 25.5 27 V 30.5 31 H 25.5 24 V 31.5 32 H 23.5 23 v 1.5 1.5 h -1 -1 z" />
			<path d="M 29,31.5 V 30 h 1 1 v 1.5 1.5 h 1 1 V 31.5 30 h 1 1 V 31.5 33 H 34.5 34 V 33.5 34 H 33.5 33 V 34.5 35 H 32 31 V 34.5 34 H 30.5 30 V 33.5 33 H 29.5 29 Z" />
			<path d="M 37,30.5 V 30 h 2.5 2.5 v 0.5 0.5 h 0.5 0.5 v 1 1 H 40.5 38 v 0.5 0.5 h 2 2 V 34.5 35 H 39.5 37 V 34.5 34 H 36.5 36 V 32.5 31 h 0.5 0.5 z m 4,1 V 31 H 39.5 38 v 0.5 0.5 h 1.5 1.5 z" />
			<path d="M 45,32.5 V 30 h 1 1 V 30.5 31 H 47.5 48 V 30.5 30 H 49.5 51 V 30.5 31 H 49.5 48 V 31.5 32 H 47.5 47 v 1.5 1.5 h -1 -1 z" />
			<path d="M 60,31.5 V 28 H 63.5 67 V 28.5 29 H 64.5 62 v 1 1 h 2 2 v 0.5 0.5 h -2 -2 v 1 1 H 64.5 67 V 34.5 35 H 63.5 60 Z" />
			<path d="M 69,32.5 V 30 h 1 1 V 30.5 31 H 71.5 72 V 30.5 30 H 73.5 75 V 30.5 31 H 73.5 72 V 31.5 32 H 71.5 71 v 1.5 1.5 h -1 -1 z" />
			<path d="M 77,32.5 V 30 h 1 1 V 30.5 31 H 79.5 80 V 30.5 30 H 81.5 83 V 30.5 31 H 81.5 80 V 31.5 32 H 79.5 79 v 1.5 1.5 h -1 -1 z" />
			<path d="M 85,30.5 V 30 H 87.5 90 V 30.5 31 H 90.5 91 V 32.5 34 H 90.5 90 V 34.5 35 H 87.5 85 V 34.5 34 H 84.5 84 V 32.5 31 h 0.5 0.5 z m 4,2 V 31 H 87.5 86 v 1.5 1.5 h 1.5 1.5 z" />
			<path d="M 93,32.5 V 30 h 1 1 V 30.5 31 H 95.5 96 V 30.5 30 H 97.5 99 V 30.5 31 H 97.5 96 V 31.5 32 H 95.5 95 v 1.5 1.5 h -1 -1 z" />
		</g>
		<g aria-label="Internal" style="font-size:8px;font-family:'Press Start 2P';-inkscape-font-specification:'Press Start 2P, Normal';fill:#ff00ff;stroke-linejoin:round">
			<path d="M 5,20.5 V 20 h 3 3 V 20.5 21 H 10 9 v 2.5 2.5 h 1 1 V 26.5 27 H 8 5 V 26.5 26 H 6 7 V 23.5 21 H 6 5 Z" />
			<path d="M 12,24.5 V 22 h 3 3 v 0.5 0.5 h 0.5 0.5 v 2 2 H 18 17 V 25 23 H 15.5 14 v 2 2 h -1 -1 z" />
			<path d="m 23,21 v -1 h 1 1 v 1 1 h 1 1 v 0.5 0.5 h -1 -1 v 2 2 H 24 23 V 25 23 H 22 21 V 22.5 22 h 1 1 z" />
			<path d="M 29,22.5 V 22 h 2.5 2.5 v 0.5 0.5 h 0.5 0.5 v 1 1 H 32.5 30 v 0.5 0.5 h 2 2 V 26.5 27 H 31.5 29 V 26.5 26 H 28.5 28 V 24.5 23 h 0.5 0.5 z m 4,1 V 23 H 31.5 30 v 0.5 0.5 h 1.5 1.5 z" />
			<path d="M 37,24.5 V 22 h 1 1 V 22.5 23 H 39.5 40 V 22.5 22 H 41.5 43 V 22.5 23 H 41.5 40 V 23.5 24 H 39.5 39 v 1.5 1.5 h -1 -1 z" />
			<path d="M 44,24.5 V 22 h 3 3 v 0.5 0.5 h 0.5 0.5 v 2 2 H 50 49 V 25 23 H 47.5 46 v 2 2 h -1 -1 z" />
			<path d="M 53,22.5 V 22 h 2.5 2.5 v 0.5 0.5 h 0.5 0.5 v 2 2 H 56 53 V 26.5 26 H 52.5 52 V 25.5 25 H 52.5 53 V 24.5 24 h 2 2 V 23.5 23 h -2 -2 z m 4,3 V 25 H 55.5 54 v 0.5 0.5 h 1.5 1.5 z" />
			<path d="M 62,20.5 V 20 h 1.5 1.5 v 3 3 h 1 1 V 26.5 27 H 64 61 V 26.5 26 h 1 1 V 23.5 21 H 62.5 62 Z" />
		</g>
	</g>
</svg>
