<?xml version="1.0" encoding="UTF-8" standalone="no"?>
<svg
	 xmlns="http://www.w3.org/2000/svg"
	 xmlns:cc="http://creativecommons.org/ns#"
	 xmlns:dc="http://purl.org/dc/elements/1.1/"
	 xmlns:inkscape="http://www.inkscape.org/namespaces/inkscape"
	 xmlns:rdf="http://www.w3.org/1999/02/22-rdf-syntax-ns#"
	 xmlns:sodipodi="http://sodipodi.sourceforge.net/DTD/sodipodi-0.dtd"
	 xmlns:svg="http://www.w3.org/2000/svg"
	 width="184"
	 height="40"
	 viewBox="0 0 184 40"
	 version="1.1"
	 inkscape:version="1.2.2 (b0a8486541, 2022-12-01)"
	 >
	<title>http_511</title>
	<metadata>
		<rdf:RDF>
			<cc:License rdf:about="http://creativecommons.org/publicdomain/zero/1.0/">
				<cc:permits rdf:resource="http://creativecommons.org/ns#Reproduction" />
				<cc:permits rdf:resource="http://creativecommons.org/ns#Distribution" />
				<cc:permits rdf:resource="http://creativecommons.org/ns#DerivativeWorks" />
			</cc:License>
			<cc:Work rdf:about="">
				<cc:license rdf:resource="http://creativecommons.org/publicdomain/zero/1.0/" />
				<dc:title>http_511</dc:title>
				<dc:creator>
					<cc:Agent>
						<dc:title>zawa-ch.</dc:title>
					</cc:Agent>
				</dc:creator>
			</cc:Work>
		</rdf:RDF>
	</metadata>
	<sodipodi:namedview
		pagecolor="#505050"
		bordercolor="#eeeeee"
		borderopacity="1"
		inkscape:showpageshadow="0"
		inkscape:pageopacity="0"
		inkscape:pagecheckerboard="0"
		inkscape:deskcolor="#505050"
		inkscape:document-units="px"
		showgrid="false"
		>
		<inkscape:grid type="xygrid" originx="0" originy="0" empspacing="8" />
	</sodipodi:namedview>
	<g inkscape:groupmode="layer" style="display:none">
		<text xml:space="preserve" style="font-style:normal;font-variant:normal;font-weight:normal;font-stretch:normal;font-size:16px;font-family:'Press Start 2P';-inkscape-font-specification:'Press Start 2P, Normal';font-variant-ligatures:normal;font-variant-caps:normal;font-variant-numeric:normal;font-variant-east-asian:normal;text-align:start;text-anchor:start;fill:#ff00ff;fill-opacity:1;stroke-linejoin:round" x="4" y="20"><tspan sodipodi:role="line" x="4" y="20">511</tspan></text>
		<text xml:space="preserve" style="font-style:normal;font-variant:normal;font-weight:normal;font-stretch:normal;font-size:8px;font-family:'Press Start 2P';-inkscape-font-specification:'Press Start 2P, Normal';font-variant-ligatures:normal;font-variant-caps:normal;font-variant-numeric:normal;font-variant-east-asian:normal;text-align:start;text-anchor:start;fill:#ff00ff;fill-opacity:1;stroke-linejoin:round" x="4" y="36"><tspan sodipodi:role="line" x="4" y="36">Required</tspan></text>
		<text xml:space="preserve" style="font-style:normal;font-variant:normal;font-weight:normal;font-stretch:normal;font-size:8px;font-family:'Press Start 2P';-inkscape-font-specification:'Press Start 2P, Normal';font-variant-ligatures:normal;font-variant-caps:normal;font-variant-numeric:normal;font-variant-east-asian:normal;fill:#ff00ff;fill-opacity:1;stroke-linejoin:round" x="4" y="28"><tspan sodipodi:role="line" x="4" y="28">Network Authentication</tspan></text>
	</g>
	<g inkscape:groupmode="layer" inkscape:label="Outline">
		<g aria-label="511" style="font-size:16px;font-family:'Press Start 2P';-inkscape-font-specification:'Press Start 2P, Normal';fill:#ff00ff;stroke-linejoin:round">
			<path d="M 4,7 V 4 h 6 6 V 5 6 H 12 8 v 1 1 h 4 4 v 1 1 h 1 1 v 3 3 h -1 -1 v 1 1 H 11 6 V 17 16 H 5 4 v -1 -1 h 2 2 v 1 1 h 3 3 V 13 10 H 9 4 Z" />
			<path d="M 26,5 V 4 h 2 2 v 6 6 h 2 2 v 1 1 h -6 -6 v -1 -1 h 2 2 V 12 8 H 25 24 V 7 6 h 1 1 z" />
			<path d="M 42,5 V 4 h 2 2 v 6 6 h 2 2 v 1 1 h -6 -6 v -1 -1 h 2 2 V 12 8 H 41 40 V 7 6 h 1 1 z" />
		</g>
		<g aria-label="Required" style="font-size:8px;font-family:'Press Start 2P';-inkscape-font-specification:'Press Start 2P, Normal';fill:#ff00ff;stroke-linejoin:round">
			<path d="M 4,31.5 V 28 h 3 3 V 28.5 29 H 10.5 11 V 30.5 32 H 10 9 V 32.5 33 H 9.5 10 V 33.5 34 H 10.5 11 V 34.5 35 H 9.5 8 V 34.5 34 H 7.5 7 V 33.5 33 H 6.5 6 v 1 1 H 5 4 Z M 9,30 V 29 H 7.5 6 V 30.5 32 H 7 8 V 31.5 31 H 8.5 9 Z" />
			<path d="M 13,30.5 V 30 h 2.5 2.5 v 0.5 0.5 h 0.5 0.5 v 1 1 H 16.5 14 v 0.5 0.5 h 2 2 V 34.5 35 H 15.5 13 V 34.5 34 H 12.5 12 V 32.5 31 h 0.5 0.5 z m 4,1 V 31 H 15.5 14 v 0.5 0.5 h 1.5 1.5 z" />
			<path d="M 21,30.5 V 30 h 3 3 v 3 3 H 26 25 V 35 34 H 23 21 V 33.5 33 H 20.5 20 V 32 31 H 20.5 21 Z M 25,32 V 31 H 23.5 22 v 1 1 h 1.5 1.5 z" />
			<path d="m 28,32 v -2 h 1 1 v 2 2 h 1.5 1.5 v -2 -2 h 1 1 V 32.5 35 H 32 29 V 34.5 34 H 28.5 28 Z" />
			<path d="M 38,30.5 V 30 h 1.5 1.5 v 2 2 h 1 1 V 34.5 35 H 40 37 V 34.5 34 h 1 1 V 32.5 31 H 38.5 38 Z m 1,-2 V 28 h 1 1 v 0.5 0.5 h -1 -1 z" />
			<path d="M 45,32.5 V 30 h 1 1 V 30.5 31 H 47.5 48 V 30.5 30 H 49.5 51 V 30.5 31 H 49.5 48 V 31.5 32 H 47.5 47 v 1.5 1.5 h -1 -1 z" />
			<path d="M 53,30.5 V 30 h 2.5 2.5 v 0.5 0.5 h 0.5 0.5 v 1 1 H 56.5 54 v 0.5 0.5 h 2 2 V 34.5 35 H 55.5 53 V 34.5 34 H 52.5 52 V 32.5 31 h 0.5 0.5 z m 4,1 V 31 H 55.5 54 v 0.5 0.5 h 1.5 1.5 z" />
			<path d="m 65,29 v -1 h 1 1 V 31.5 35 H 64 61 V 34.5 34 H 60.5 60 V 32.5 31 H 60.5 61 V 30.5 30 h 2 2 z m 0,3.5 V 31 H 63.5 62 v 1.5 1.5 h 1.5 1.5 z" />
		</g>
		<g aria-label="Network Authentication" style="font-size:8px;font-family:'Press Start 2P';-inkscape-font-specification:'Press Start 2P, Normal';fill:#ff00ff;stroke-linejoin:round">
			<path d="M 4,23.5 V 20 H 5 6 V 20.5 21 H 6.5 7 V 21.5 22 H 7.5 8 V 22.5 23 H 8.5 9 V 21.5 20 h 1 1 V 23.5 27 H 10 9 V 26.5 26 H 8.5 8 V 25.5 25 H 7.5 7 V 24.5 24 H 6.5 6 V 25.5 27 H 5 4 Z" />
			<path d="M 13,22.5 V 22 h 2.5 2.5 v 0.5 0.5 h 0.5 0.5 v 1 1 H 16.5 14 v 0.5 0.5 h 2 2 V 26.5 27 H 15.5 13 V 26.5 26 H 12.5 12 V 24.5 23 h 0.5 0.5 z m 4,1 V 23 H 15.5 14 v 0.5 0.5 h 1.5 1.5 z" />
			<path d="m 23,21 v -1 h 1 1 v 1 1 h 1 1 v 0.5 0.5 h -1 -1 v 2 2 H 24 23 V 25 23 H 22 21 V 22.5 22 h 1 1 z" />
			<path d="m 28,24 v -2 h 0.5 0.5 v 2 2 h 0.5 0.5 v -2 -2 h 1 1 v 2 2 h 0.5 0.5 v -2 -2 h 1 1 V 24.5 27 H 32 29 V 26.5 26 H 28.5 28 Z" />
			<path d="M 37,22.5 V 22 H 39.5 42 V 22.5 23 H 42.5 43 V 24.5 26 H 42.5 42 V 26.5 27 H 39.5 37 V 26.5 26 H 36.5 36 V 24.5 23 h 0.5 0.5 z m 4,2 V 23 H 39.5 38 v 1.5 1.5 h 1.5 1.5 z" />
			<path d="M 45,24.5 V 22 h 1 1 V 22.5 23 H 47.5 48 V 22.5 22 H 49.5 51 V 22.5 23 H 49.5 48 V 23.5 24 H 47.5 47 v 1.5 1.5 h -1 -1 z" />
			<path d="M 52,23.5 V 20 h 1 1 v 1.5 1.5 h 1 1 V 22.5 22 H 57.5 59 V 22.5 23 H 58.5 58 V 23.5 24 H 57.5 57 V 24.5 25 H 57.5 58 V 25.5 26 H 58.5 59 V 26.5 27 H 57.5 56 V 26.5 26 H 55.5 55 V 25.5 25 H 54.5 54 v 1 1 h -1 -1 z" />
			<path d="M 70,20.5 V 20 H 71.5 73 V 20.5 21 H 73.5 74 V 21.5 22 H 74.5 75 V 24.5 27 H 74 73 V 26 25 H 71.5 70 v 1 1 H 69 68 V 24.5 22 H 68.5 69 V 21.5 21 h 0.5 0.5 z m 2,1 V 21 H 71.5 71 V 21.5 22 H 70.5 70 v 1 1 H 71.5 73 V 23 22 H 72.5 72 Z" />
			<path d="m 76,24 v -2 h 1 1 v 2 2 h 1.5 1.5 v -2 -2 h 1 1 V 24.5 27 H 80 77 V 26.5 26 H 76.5 76 Z" />
			<path d="m 87,21 v -1 h 1 1 v 1 1 h 1 1 v 0.5 0.5 h -1 -1 v 2 2 H 88 87 V 25 23 H 86 85 V 22.5 22 h 1 1 z" />
			<path d="M 92,23.5 V 20 h 1 1 v 1 1 h 2 2 v 0.5 0.5 h 0.5 0.5 v 2 2 H 98 97 V 25 23 H 95.5 94 v 2 2 h -1 -1 z" />
			<path d="M 101,22.5 V 22 h 2.5 2.5 v 0.5 0.5 h 0.5 0.5 v 1 1 h -2.5 -2.5 v 0.5 0.5 h 2 2 V 26.5 27 H 103.5 101 V 26.5 26 H 100.5 100 V 24.5 23 h 0.5 0.5 z m 4,1 V 23 h -1.5 -1.5 v 0.5 0.5 h 1.5 1.5 z" />
			<path d="M 108,24.5 V 22 h 3 3 v 0.5 0.5 h 0.5 0.5 v 2 2 h -1 -1 v -2 -2 h -1.5 -1.5 v 2 2 h -1 -1 z" />
			<path d="m 119,21 v -1 h 1 1 v 1 1 h 1 1 v 0.5 0.5 h -1 -1 v 2 2 h -1 -1 v -2 -2 h -1 -1 V 22.5 22 h 1 1 z" />
			<path d="M 126,22.5 V 22 h 1.5 1.5 v 2 2 h 1 1 v 0.5 0.5 h -3 -3 V 26.5 26 h 1 1 V 24.5 23 h -0.5 -0.5 z m 1,-2 V 20 h 1 1 v 0.5 0.5 h -1 -1 z" />
			<path d="M 133,22.5 V 22 h 3 3 v 0.5 0.5 h -2.5 -2.5 v 1.5 1.5 h 2.5 2.5 v 0.5 0.5 h -3 -3 V 26.5 26 H 132.5 132 V 24.5 23 h 0.5 0.5 z" />
			<path d="M 141,22.5 V 22 h 2.5 2.5 v 0.5 0.5 h 0.5 0.5 v 2 2 h -3 -3 V 26.5 26 H 140.5 140 V 25.5 25 h 0.5 0.5 V 24.5 24 h 2 2 V 23.5 23 h -2 -2 z m 4,3 V 25 h -1.5 -1.5 v 0.5 0.5 h 1.5 1.5 z" />
			<path d="m 151,21 v -1 h 1 1 v 1 1 h 1 1 v 0.5 0.5 h -1 -1 v 2 2 h -1 -1 v -2 -2 h -1 -1 V 22.5 22 h 1 1 z" />
			<path d="M 158,22.5 V 22 h 1.5 1.5 v 2 2 h 1 1 v 0.5 0.5 h -3 -3 V 26.5 26 h 1 1 V 24.5 23 h -0.5 -0.5 z m 1,-2 V 20 h 1 1 v 0.5 0.5 h -1 -1 z" />
			<path d="M 165,22.5 V 22 h 2.5 2.5 v 0.5 0.5 h 0.5 0.5 V 24.5 26 H 170.5 170 V 26.5 27 H 167.5 165 V 26.5 26 H 164.5 164 V 24.5 23 h 0.5 0.5 z m 4,2 V 23 h -1.5 -1.5 v 1.5 1.5 h 1.5 1.5 z" />
			<path d="M 172,24.5 V 22 h 3 3 v 0.5 0.5 h 0.5 0.5 v 2 2 h -1 -1 v -2 -2 h -1.5 -1.5 v 2 2 h -1 -1 z" />
		</g>
	</g>
</svg>
