<?xml version="1.0" encoding="UTF-8" standalone="no"?>
<svg
	xmlns="http://www.w3.org/2000/svg"
	xmlns:inkscape="http://www.inkscape.org/namespaces/inkscape"
	xmlns:sodipodi="http://sodipodi.sourceforge.net/DTD/sodipodi-0.dtd"
	xmlns:svg="http://www.w3.org/2000/svg"
	width="80"
	height="40"
	viewBox="0 0 80 40"
	version="1.1"
	inkscape:version="1.2.2 (b0a8486541, 2022-12-01)"
	>
	<sodipodi:namedview
		pagecolor="#505050"
		bordercolor="#eeeeee"
		borderopacity="1"
		inkscape:showpageshadow="0"
		inkscape:pageopacity="0"
		inkscape:pagecheckerboard="0"
		inkscape:deskcolor="#505050"
		inkscape:document-units="px"
		showgrid="false"
		>
		<inkscape:grid type="xygrid" originx="0" originy="0" empspacing="8" />
	</sodipodi:namedview>
	<g inkscape:groupmode="layer" style="display:none">
		<text xml:space="preserve" style="font-style:normal;font-variant:normal;font-weight:normal;font-stretch:normal;font-size:16px;font-family:'Press Start 2P';-inkscape-font-specification:'Press Start 2P, Normal';font-variant-ligatures:normal;font-variant-caps:normal;font-variant-numeric:normal;font-variant-east-asian:normal;text-align:start;text-anchor:start;fill:#00ffff;fill-opacity:1;stroke-linejoin:round" x="4" y="20"><tspan sodipodi:role="line" x="4" y="20">101</tspan></text>
		<text xml:space="preserve" style="font-style:normal;font-variant:normal;font-weight:normal;font-stretch:normal;font-size:8px;font-family:'Press Start 2P';-inkscape-font-specification:'Press Start 2P, Normal';font-variant-ligatures:normal;font-variant-caps:normal;font-variant-numeric:normal;font-variant-east-asian:normal;text-align:start;text-anchor:start;fill:#00ffff;fill-opacity:1;stroke-linejoin:round" x="4" y="28"><tspan sodipodi:role="line" x="4" y="28">Switching</tspan></text>
		<text xml:space="preserve" style="font-style:normal;font-variant:normal;font-weight:normal;font-stretch:normal;font-size:8px;font-family:'Press Start 2P';-inkscape-font-specification:'Press Start 2P, Normal';font-variant-ligatures:normal;font-variant-caps:normal;font-variant-numeric:normal;font-variant-east-asian:normal;fill:#00ffff;stroke-linejoin:round" x="4" y="36"><tspan sodipodi:role="line" x="4" y="36">Protocols</tspan></text>
	</g>
	<g inkscape:groupmode="layer" inkscape:label="Outline">
		<g aria-label="101" style="font-size:16px;font-family:'Press Start 2P';-inkscape-font-specification:'Press Start 2P, Normal';fill:#00ffff;stroke-linejoin:round">
			<path d="M 10,5 V 4 h 2 2 v 6 6 h 2 2 v 1 1 H 12 6 v -1 -1 h 2 2 V 12 8 H 9 8 V 7 6 h 1 1 z" />
			<path d="M 24,5 V 4 h 3 3 v 1 1 h 1 1 v 1 1 h 1 1 v 3 3 h -1 -1 v 1 1 h -1 -1 v 1 1 H 27 24 V 17 16 H 23 22 V 15 14 H 21 20 V 11 8 h 1 1 V 7 6 h 1 1 z m 4,2 V 6 h -2 -2 v 4 4 h 1 1 v 1 1 h 2 2 V 12 8 h -1 -1 z" />
			<path d="M 42,5 V 4 h 2 2 v 6 6 h 2 2 v 1 1 h -6 -6 v -1 -1 h 2 2 V 12 8 H 41 40 V 7 6 h 1 1 z" />
		</g>
		<g aria-label="Switching" style="font-size:8px;font-family:'Press Start 2P';-inkscape-font-specification:'Press Start 2P, Normal';fill:#00ffff;stroke-linejoin:round">
			<path d="M 5,20.5 V 20 H 7 9 V 20.5 21 H 9.5 10 V 21.5 22 H 9 8 V 21.5 21 H 7 6 v 1 1 h 2 2 v 0.5 0.5 h 0.5 0.5 v 1 1 H 10.5 10 V 26.5 27 H 7.5 5 V 26.5 26 H 4.5 4 V 25.5 25 H 5 6 V 25.5 26 H 7.5 9 V 25 24 H 7 5 V 23.5 23 H 4.5 4 V 22 21 H 4.5 5 Z" />
			<path d="m 12,24 v -2 h 0.5 0.5 v 2 2 h 0.5 0.5 v -2 -2 h 1 1 v 2 2 h 0.5 0.5 v -2 -2 h 1 1 V 24.5 27 H 16 13 V 26.5 26 H 12.5 12 Z" />
			<path d="M 22,22.5 V 22 h 1.5 1.5 v 2 2 h 1 1 V 26.5 27 H 24 21 V 26.5 26 h 1 1 V 24.5 23 H 22.5 22 Z m 1,-2 V 20 h 1 1 v 0.5 0.5 h -1 -1 z" />
			<path d="m 31,21 v -1 h 1 1 v 1 1 h 1 1 v 0.5 0.5 h -1 -1 v 2 2 H 32 31 V 25 23 H 30 29 V 22.5 22 h 1 1 z" />
			<path d="M 37,22.5 V 22 h 3 3 V 22.5 23 H 40.5 38 V 24.5 26 H 40.5 43 V 26.5 27 H 40 37 V 26.5 26 H 36.5 36 V 24.5 23 h 0.5 0.5 z" />
			<path d="M 44,23.5 V 20 h 1 1 v 1 1 h 2 2 v 0.5 0.5 h 0.5 0.5 v 2 2 H 50 49 V 25 23 H 47.5 46 v 2 2 h -1 -1 z" />
			<path d="M 54,22.5 V 22 h 1.5 1.5 v 2 2 h 1 1 V 26.5 27 H 56 53 V 26.5 26 h 1 1 V 24.5 23 H 54.5 54 Z m 1,-2 V 20 h 1 1 v 0.5 0.5 h -1 -1 z" />
			<path d="M 60,24.5 V 22 h 3 3 v 0.5 0.5 h 0.5 0.5 v 2 2 H 66 65 V 25 23 H 63.5 62 v 2 2 h -1 -1 z" />
			<path d="M 69,22.5 V 22 h 3 3 V 24.5 27 H 74.5 74 V 27.5 28 H 71.5 69 V 27.5 27 h 2 2 V 26.5 26 H 71 69 V 25.5 25 H 68.5 68 V 24 23 H 68.5 69 Z M 73,24 V 23 H 71.5 70 v 1 1 h 1.5 1.5 z" />
		</g>
		<g aria-label="Protocols" style="font-size:8px;font-family:'Press Start 2P';-inkscape-font-specification:'Press Start 2P, Normal';fill:#00ffff;stroke-linejoin:round">
			<path d="M 4,31.5 V 28 h 3 3 V 28.5 29 H 10.5 11 V 30.5 32 H 10.5 10 V 32.5 33 H 8 6 v 1 1 H 5 4 Z m 5,-1 V 29 H 7.5 6 V 30.5 32 H 7.5 9 Z" />
			<path d="M 13,32.5 V 30 h 1 1 V 30.5 31 H 15.5 16 V 30.5 30 H 17.5 19 V 30.5 31 H 17.5 16 V 31.5 32 H 15.5 15 v 1.5 1.5 h -1 -1 z" />
			<path d="M 21,30.5 V 30 H 23.5 26 V 30.5 31 H 26.5 27 V 32.5 34 H 26.5 26 V 34.5 35 H 23.5 21 V 34.5 34 H 20.5 20 V 32.5 31 h 0.5 0.5 z m 4,2 V 31 H 23.5 22 v 1.5 1.5 h 1.5 1.5 z" />
			<path d="m 31,29 v -1 h 1 1 v 1 1 h 1 1 v 0.5 0.5 h -1 -1 v 2 2 H 32 31 V 33 31 H 30 29 V 30.5 30 h 1 1 z" />
			<path d="M 37,30.5 V 30 H 39.5 42 V 30.5 31 H 42.5 43 V 32.5 34 H 42.5 42 V 34.5 35 H 39.5 37 V 34.5 34 H 36.5 36 V 32.5 31 h 0.5 0.5 z m 4,2 V 31 H 39.5 38 v 1.5 1.5 h 1.5 1.5 z" />
			<path d="M 45,30.5 V 30 h 3 3 V 30.5 31 H 48.5 46 V 32.5 34 H 48.5 51 V 34.5 35 H 48 45 V 34.5 34 H 44.5 44 V 32.5 31 h 0.5 0.5 z" />
			<path d="M 53,30.5 V 30 H 55.5 58 V 30.5 31 H 58.5 59 V 32.5 34 H 58.5 58 V 34.5 35 H 55.5 53 V 34.5 34 H 52.5 52 V 32.5 31 h 0.5 0.5 z m 4,2 V 31 H 55.5 54 v 1.5 1.5 h 1.5 1.5 z" />
			<path d="M 62,28.5 V 28 h 1.5 1.5 v 3 3 h 1 1 V 34.5 35 H 64 61 V 34.5 34 h 1 1 V 31.5 29 H 62.5 62 Z" />
			<path d="M 69,30.5 V 30 h 2.5 2.5 v 0.5 0.5 h -2 -2 v 0.5 0.5 h 2 2 V 32.5 33 H 74.5 75 V 33.5 34 H 74.5 74 V 34.5 35 H 71 68 V 34.5 34 H 70.5 73 V 33.5 33 H 71 69 V 32.5 32 H 68.5 68 V 31.5 31 h 0.5 0.5 z" />
		</g>
	</g>
</svg>
