<?xml version="1.0" encoding="UTF-8" standalone="no"?>
<svg
	xmlns="http://www.w3.org/2000/svg"
	xmlns:inkscape="http://www.inkscape.org/namespaces/inkscape"
	xmlns:sodipodi="http://sodipodi.sourceforge.net/DTD/sodipodi-0.dtd"
	xmlns:svg="http://www.w3.org/2000/svg"
	width="128"
	height="40"
	viewBox="0 0 128 40"
	version="1.1"
	inkscape:version="1.2.2 (b0a8486541, 2022-12-01)"
	>
	<sodipodi:namedview
		id="namedview7"
		pagecolor="#505050"
		bordercolor="#eeeeee"
		borderopacity="1"
		inkscape:showpageshadow="0"
		inkscape:pageopacity="0"
		inkscape:pagecheckerboard="0"
		inkscape:deskcolor="#505050"
		inkscape:document-units="px"
		showgrid="false"
		>
		<inkscape:grid type="xygrid" originx="0" originy="0" empspacing="8" />
	</sodipodi:namedview>
	<g inkscape:groupmode="layer" style="display:none">
		<text xml:space="preserve" style="font-style:normal;font-variant:normal;font-weight:normal;font-stretch:normal;font-size:16px;font-family:'Press Start 2P';-inkscape-font-specification:'Press Start 2P, Normal';font-variant-ligatures:normal;font-variant-caps:normal;font-variant-numeric:normal;font-variant-east-asian:normal;text-align:start;text-anchor:start;fill:#ff0000;fill-opacity:1;stroke-linejoin:round" x="4" y="20"><tspan sodipodi:role="line" x="4" y="20">451</tspan></text>
		<text xml:space="preserve" style="font-style:normal;font-variant:normal;font-weight:normal;font-stretch:normal;font-size:8px;font-family:'Press Start 2P';-inkscape-font-specification:'Press Start 2P, Normal';font-variant-ligatures:normal;font-variant-caps:normal;font-variant-numeric:normal;font-variant-east-asian:normal;text-align:start;text-anchor:start;fill:#ff0000;fill-opacity:1;stroke-linejoin:round" x="4" y="28"><tspan sodipodi:role="line" x="4" y="28">Unavailable For</tspan></text>
		<text xml:space="preserve" style="font-style:normal;font-variant:normal;font-weight:normal;font-stretch:normal;font-size:8px;font-family:'Press Start 2P';-inkscape-font-specification:'Press Start 2P, Normal';font-variant-ligatures:normal;font-variant-caps:normal;font-variant-numeric:normal;font-variant-east-asian:normal;fill:#ff0000;fill-opacity:1;stroke-linejoin:round" x="4" y="36"><tspan sodipodi:role="line" x="4" y="36">Legal Reasons</tspan></text>
	</g>
	<g inkscape:groupmode="layer" inkscape:label="Outline">
		<g aria-label="451" style="font-size:16px;font-family:'Press Start 2P';-inkscape-font-specification:'Press Start 2P, Normal';fill:#ff0000;stroke-linejoin:round">
			<path d="M 10,5 V 4 h 3 3 v 4 4 h 1 1 v 1 1 h -1 -1 v 2 2 H 14 12 V 16 14 H 8 4 V 12 10 H 5 6 V 9 8 H 7 8 V 7 6 h 1 1 z m 2,5 V 8 h -1 -1 v 1 1 H 9 8 v 1 1 h 2 2 z" />
			<path d="M 20,7 V 4 h 6 6 v 1 1 h -4 -4 v 1 1 h 4 4 v 1 1 h 1 1 v 3 3 h -1 -1 v 1 1 h -5 -5 v -1 -1 h -1 -1 v -1 -1 h 2 2 v 1 1 h 3 3 v -3 -3 h -5 -5 z" />
			<path d="M 42,5 V 4 h 2 2 v 6 6 h 2 2 v 1 1 h -6 -6 v -1 -1 h 2 2 V 12 8 H 41 40 V 7 6 h 1 1 z" />
		</g>
		<g aria-label="Unavailable For" style="font-size:8px;font-family:'Press Start 2P';-inkscape-font-specification:'Press Start 2P, Normal';fill:#ff0000;stroke-linejoin:round">
			<path d="m 4,23 v -3 h 1 1 v 3 3 H 7.5 9 v -3 -3 h 1 1 v 3 3 H 10.5 10 V 26.5 27 H 7.5 5 V 26.5 26 H 4.5 4 Z" />
			<path d="M 12,24.5 V 22 h 3 3 v 0.5 0.5 h 0.5 0.5 v 2 2 H 18 17 V 25 23 H 15.5 14 v 2 2 h -1 -1 z" />
			<path d="M 21,22.5 V 22 h 2.5 2.5 v 0.5 0.5 h 0.5 0.5 v 2 2 H 24 21 V 26.5 26 H 20.5 20 V 25.5 25 H 20.5 21 V 24.5 24 h 2 2 V 23.5 23 h -2 -2 z m 4,3 V 25 H 23.5 22 v 0.5 0.5 h 1.5 1.5 z" />
			<path d="M 29,23.5 V 22 h 1 1 v 1.5 1.5 h 1 1 V 23.5 22 h 1 1 V 23.5 25 H 34.5 34 V 25.5 26 H 33.5 33 V 26.5 27 H 32 31 V 26.5 26 H 30.5 30 V 25.5 25 H 29.5 29 Z" />
			<path d="M 37,22.5 V 22 h 2.5 2.5 v 0.5 0.5 h 0.5 0.5 v 2 2 H 40 37 V 26.5 26 H 36.5 36 V 25.5 25 H 36.5 37 V 24.5 24 h 2 2 V 23.5 23 h -2 -2 z m 4,3 V 25 H 39.5 38 v 0.5 0.5 h 1.5 1.5 z" />
			<path d="M 46,22.5 V 22 h 1.5 1.5 v 2 2 h 1 1 V 26.5 27 H 48 45 V 26.5 26 h 1 1 V 24.5 23 H 46.5 46 Z m 1,-2 V 20 h 1 1 v 0.5 0.5 h -1 -1 z" />
			<path d="M 54,20.5 V 20 h 1.5 1.5 v 3 3 h 1 1 V 26.5 27 H 56 53 V 26.5 26 h 1 1 V 23.5 21 H 54.5 54 Z" />
			<path d="M 61,22.5 V 22 h 2.5 2.5 v 0.5 0.5 h 0.5 0.5 v 2 2 H 64 61 V 26.5 26 H 60.5 60 V 25.5 25 H 60.5 61 V 24.5 24 h 2 2 V 23.5 23 h -2 -2 z m 4,3 V 25 H 63.5 62 v 0.5 0.5 h 1.5 1.5 z" />
			<path d="m 68,23 v -3 h 1 1 v 1 1 h 2 2 V 22.5 23 H 74.5 75 V 24.5 26 H 74.5 74 V 26.5 27 H 71.5 69 V 26.5 26 H 68.5 68 Z m 5,1.5 V 23 H 71.5 70 v 1.5 1.5 h 1.5 1.5 z" />
			<path d="M 78,20.5 V 20 h 1.5 1.5 v 3 3 h 1 1 V 26.5 27 H 80 77 V 26.5 26 h 1 1 V 23.5 21 H 78.5 78 Z" />
			<path d="M 85,22.5 V 22 h 2.5 2.5 v 0.5 0.5 h 0.5 0.5 v 1 1 H 88.5 86 v 0.5 0.5 h 2 2 V 26.5 27 H 87.5 85 V 26.5 26 H 84.5 84 V 24.5 23 h 0.5 0.5 z m 4,1 V 23 H 87.5 86 v 0.5 0.5 h 1.5 1.5 z" />
			<path d="M 100,23.5 V 20 h 3.5 3.5 v 0.5 0.5 h -2.5 -2.5 v 1 1 h 2 2 v 0.5 0.5 h -2 -2 v 1.5 1.5 h -1 -1 z" />
			<path d="M 109,22.5 V 22 h 2.5 2.5 v 0.5 0.5 h 0.5 0.5 V 24.5 26 H 114.5 114 V 26.5 27 H 111.5 109 V 26.5 26 H 108.5 108 V 24.5 23 h 0.5 0.5 z m 4,2 V 23 h -1.5 -1.5 v 1.5 1.5 h 1.5 1.5 z" />
			<path d="M 117,24.5 V 22 h 1 1 v 0.5 0.5 h 0.5 0.5 V 22.5 22 h 1.5 1.5 v 0.5 0.5 h -1.5 -1.5 v 0.5 0.5 h -0.5 -0.5 v 1.5 1.5 h -1 -1 z" />
		</g>
		<g aria-label="Legal Reasons" style="font-size:8px;font-family:'Press Start 2P';-inkscape-font-specification:'Press Start 2P, Normal';fill:#ff0000;stroke-linejoin:round">
			<path d="M 5,31.5 V 28 h 1 1 v 3 3 h 2 2 V 34.5 35 H 8 5 Z" />
			<path d="M 13,30.5 V 30 h 2.5 2.5 v 0.5 0.5 h 0.5 0.5 v 1 1 H 16.5 14 v 0.5 0.5 h 2 2 V 34.5 35 H 15.5 13 V 34.5 34 H 12.5 12 V 32.5 31 h 0.5 0.5 z m 4,1 V 31 H 15.5 14 v 0.5 0.5 h 1.5 1.5 z" />
			<path d="M 21,30.5 V 30 h 3 3 V 32.5 35 H 26.5 26 V 35.5 36 H 23.5 21 V 35.5 35 h 2 2 V 34.5 34 H 23 21 V 33.5 33 H 20.5 20 V 32 31 H 20.5 21 Z M 25,32 V 31 H 23.5 22 v 1 1 h 1.5 1.5 z" />
			<path d="M 29,30.5 V 30 h 2.5 2.5 v 0.5 0.5 h 0.5 0.5 v 2 2 H 32 29 V 34.5 34 H 28.5 28 V 33.5 33 H 28.5 29 V 32.5 32 h 2 2 V 31.5 31 h -2 -2 z m 4,3 V 33 H 31.5 30 v 0.5 0.5 h 1.5 1.5 z" />
			<path d="M 38,28.5 V 28 h 1.5 1.5 v 3 3 h 1 1 V 34.5 35 H 40 37 V 34.5 34 h 1 1 V 31.5 29 H 38.5 38 Z" />
			<path d="M 52,31.5 V 28 h 3 3 V 28.5 29 H 58.5 59 V 30.5 32 H 58 57 V 32.5 33 H 57.5 58 V 33.5 34 H 58.5 59 V 34.5 35 H 57.5 56 V 34.5 34 H 55.5 55 V 33.5 33 H 54.5 54 v 1 1 H 53 52 Z M 57,30 V 29 H 55.5 54 v 1.5 1.5 h 1 1 V 31.5 31 h 0.5 0.5 z" />
			<path d="M 61,30.5 V 30 h 2.5 2.5 v 0.5 0.5 h 0.5 0.5 v 1 1 H 64.5 62 v 0.5 0.5 h 2 2 V 34.5 35 H 63.5 61 V 34.5 34 H 60.5 60 V 32.5 31 h 0.5 0.5 z m 4,1 V 31 H 63.5 62 v 0.5 0.5 h 1.5 1.5 z" />
			<path d="M 69,30.5 V 30 h 2.5 2.5 v 0.5 0.5 h 0.5 0.5 v 2 2 H 72 69 V 34.5 34 H 68.5 68 V 33.5 33 H 68.5 69 V 32.5 32 h 2 2 V 31.5 31 h -2 -2 z m 4,3 V 33 H 71.5 70 v 0.5 0.5 h 1.5 1.5 z" />
			<path d="M 77,30.5 V 30 h 2.5 2.5 v 0.5 0.5 h -2 -2 v 0.5 0.5 h 2 2 V 32.5 33 H 82.5 83 V 33.5 34 H 82.5 82 V 34.5 35 H 79 76 V 34.5 34 H 78.5 81 V 33.5 33 H 79 77 V 32.5 32 H 76.5 76 V 31.5 31 h 0.5 0.5 z" />
			<path d="M 85,30.5 V 30 H 87.5 90 V 30.5 31 H 90.5 91 V 32.5 34 H 90.5 90 V 34.5 35 H 87.5 85 V 34.5 34 H 84.5 84 V 32.5 31 h 0.5 0.5 z m 4,2 V 31 H 87.5 86 v 1.5 1.5 h 1.5 1.5 z" />
			<path d="M 92,32.5 V 30 h 3 3 v 0.5 0.5 h 0.5 0.5 v 2 2 H 98 97 V 33 31 H 95.5 94 v 2 2 h -1 -1 z" />
			<path d="M 101,30.5 V 30 h 2.5 2.5 v 0.5 0.5 h -2 -2 v 0.5 0.5 h 2 2 v 0.5 0.5 h 0.5 0.5 v 0.5 0.5 h -0.5 -0.5 v 0.5 0.5 h -3 -3 V 34.5 34 h 2.5 2.5 V 33.5 33 h -2 -2 V 32.5 32 H 100.5 100 V 31.5 31 h 0.5 0.5 z" />
		</g>
	</g>
</svg>
