<?xml version="1.0" encoding="UTF-8" standalone="no"?>
<svg
	xmlns="http://www.w3.org/2000/svg"
	xmlns:inkscape="http://www.inkscape.org/namespaces/inkscape"
	xmlns:sodipodi="http://sodipodi.sourceforge.net/DTD/sodipodi-0.dtd"
	xmlns:svg="http://www.w3.org/2000/svg"
	width="96"
	height="40"
	viewBox="0 0 96 40"
	version="1.1"
	inkscape:version="1.2.2 (b0a8486541, 2022-12-01)"
	>
	<sodipodi:namedview
		pagecolor="#505050"
		bordercolor="#eeeeee"
		borderopacity="1"
		inkscape:showpageshadow="0"
		inkscape:pageopacity="0"
		inkscape:pagecheckerboard="0"
		inkscape:deskcolor="#505050"
		inkscape:document-units="px"
		showgrid="false"
		>
		<inkscape:grid type="xygrid" originx="0" originy="0" empspacing="8" />
	</sodipodi:namedview>
	<g inkscape:groupmode="layer" style="display:none">
		<text xml:space="preserve" style="font-style:normal;font-variant:normal;font-weight:normal;font-stretch:normal;font-size:16px;font-family:'Press Start 2P';-inkscape-font-specification:'Press Start 2P, Normal';font-variant-ligatures:normal;font-variant-caps:normal;font-variant-numeric:normal;font-variant-east-asian:normal;text-align:start;text-anchor:start;fill:#ffff00;fill-opacity:1;stroke-linejoin:round" x="4" y="20"><tspan sodipodi:role="line" x="4" y="20">301</tspan></text>
		<text xml:space="preserve" style="font-style:normal;font-variant:normal;font-weight:normal;font-stretch:normal;font-size:8px;font-family:'Press Start 2P';-inkscape-font-specification:'Press Start 2P, Normal';font-variant-ligatures:normal;font-variant-caps:normal;font-variant-numeric:normal;font-variant-east-asian:normal;text-align:start;text-anchor:start;fill:#ffff00;fill-opacity:1;stroke-linejoin:round" x="4" y="28"><tspan sodipodi:role="line" x="4" y="28">Moved</tspan></text>
		<text xml:space="preserve" style="font-style:normal;font-variant:normal;font-weight:normal;font-stretch:normal;font-size:8px;font-family:'Press Start 2P';-inkscape-font-specification:'Press Start 2P, Normal';font-variant-ligatures:normal;font-variant-caps:normal;font-variant-numeric:normal;font-variant-east-asian:normal;fill:#ffff00;fill-opacity:1;stroke-linejoin:round" x="4" y="36"><tspan sodipodi:role="line" x="4" y="36">Permanently</tspan></text>
	</g>
	<g inkscape:groupmode="layer" inkscape:label="Outline">
		<g aria-label="301" style="font-size:16px;font-family:'Press Start 2P';-inkscape-font-specification:'Press Start 2P, Normal';fill:#ffff00;stroke-linejoin:round">
			<path d="M 6,5 V 4 h 6 6 v 1 1 h -1 -1 v 1 1 h -1 -1 v 1 1 h 1 1 v 1 1 h 1 1 v 2 2 h -1 -1 v 1 1 H 11 6 V 17 16 H 5 4 v -1 -1 h 2 2 v 1 1 h 3 3 V 14 12 H 11 8 v -1 -1 h 1 1 V 9 8 h 1 1 V 7 6 H 9 6 Z" />
			<path d="M 24,5 V 4 h 3 3 v 1 1 h 1 1 v 1 1 h 1 1 v 3 3 h -1 -1 v 1 1 h -1 -1 v 1 1 H 27 24 V 17 16 H 23 22 V 15 14 H 21 20 V 11 8 h 1 1 V 7 6 h 1 1 z m 4,2 V 6 h -2 -2 v 4 4 h 1 1 v 1 1 h 2 2 V 12 8 h -1 -1 z" />
			<path d="M 42,5 V 4 h 2 2 v 6 6 h 2 2 v 1 1 h -6 -6 v -1 -1 h 2 2 V 12 8 H 41 40 V 7 6 h 1 1 z" />
		</g>
		<g aria-label="Moved" style="font-size:8px;font-family:'Press Start 2P';-inkscape-font-specification:'Press Start 2P, Normal';fill:#ffff00;stroke-linejoin:round">
			<path d="M 4,23.5 V 20 H 5 6 V 20.5 21 H 6.5 7 V 21.5 22 H 7.5 8 V 21.5 21 H 8.5 9 V 20.5 20 h 1 1 V 23.5 27 H 10 9 V 25.5 24 H 8.5 8 V 24.5 25 H 7.5 7 V 24.5 24 H 6.5 6 V 25.5 27 H 5 4 Z" />
			<path d="M 13,22.5 V 22 H 15.5 18 V 22.5 23 H 18.5 19 V 24.5 26 H 18.5 18 V 26.5 27 H 15.5 13 V 26.5 26 H 12.5 12 V 24.5 23 h 0.5 0.5 z m 4,2 V 23 H 15.5 14 v 1.5 1.5 h 1.5 1.5 z" />
			<path d="M 21,23.5 V 22 h 1 1 v 1.5 1.5 h 1 1 V 23.5 22 h 1 1 V 23.5 25 H 26.5 26 V 25.5 26 H 25.5 25 V 26.5 27 H 24 23 V 26.5 26 H 22.5 22 V 25.5 25 H 21.5 21 Z" />
			<path d="M 29,22.5 V 22 h 2.5 2.5 v 0.5 0.5 h 0.5 0.5 v 1 1 H 32.5 30 v 0.5 0.5 h 2 2 V 26.5 27 H 31.5 29 V 26.5 26 H 28.5 28 V 24.5 23 h 0.5 0.5 z m 4,1 V 23 H 31.5 30 v 0.5 0.5 h 1.5 1.5 z" />
			<path d="m 41,21 v -1 h 1 1 V 23.5 27 H 40 37 V 26.5 26 H 36.5 36 V 24.5 23 H 36.5 37 V 22.5 22 h 2 2 z m 0,3.5 V 23 H 39.5 38 v 1.5 1.5 h 1.5 1.5 z" />
		</g>
		<g aria-label="Permanently" style="font-size:8px;font-family:'Press Start 2P';-inkscape-font-specification:'Press Start 2P, Normal';fill:#ffff00;stroke-linejoin:round">
			<path d="M 4,31.5 V 28 h 3 3 V 28.5 29 H 10.5 11 V 30.5 32 H 10.5 10 V 32.5 33 H 8 6 v 1 1 H 5 4 Z m 5,-1 V 29 H 7.5 6 V 30.5 32 H 7.5 9 Z" />
			<path d="M 13,30.5 V 30 h 2.5 2.5 v 0.5 0.5 h 0.5 0.5 v 1 1 H 16.5 14 v 0.5 0.5 h 2 2 V 34.5 35 H 15.5 13 V 34.5 34 H 12.5 12 V 32.5 31 h 0.5 0.5 z m 4,1 V 31 H 15.5 14 v 0.5 0.5 h 1.5 1.5 z" />
			<path d="M 21,32.5 V 30 h 1 1 V 30.5 31 H 23.5 24 V 30.5 30 H 25.5 27 V 30.5 31 H 25.5 24 V 31.5 32 H 23.5 23 v 1.5 1.5 h -1 -1 z" />
			<path d="M 28,32.5 V 30 h 3 3 v 0.5 0.5 h 0.5 0.5 v 2 2 H 34 33 V 33 31 H 32.5 32 v 2 2 H 31 30 V 33 31 H 29.5 29 v 2 2 H 28.5 28 Z" />
			<path d="M 37,30.5 V 30 h 2.5 2.5 v 0.5 0.5 h 0.5 0.5 v 2 2 H 40 37 V 34.5 34 H 36.5 36 V 33.5 33 H 36.5 37 V 32.5 32 h 2 2 V 31.5 31 h -2 -2 z m 4,3 V 33 H 39.5 38 v 0.5 0.5 h 1.5 1.5 z" />
			<path d="M 44,32.5 V 30 h 3 3 v 0.5 0.5 h 0.5 0.5 v 2 2 H 50 49 V 33 31 H 47.5 46 v 2 2 h -1 -1 z" />
			<path d="M 53,30.5 V 30 h 2.5 2.5 v 0.5 0.5 h 0.5 0.5 v 1 1 H 56.5 54 v 0.5 0.5 h 2 2 V 34.5 35 H 55.5 53 V 34.5 34 H 52.5 52 V 32.5 31 h 0.5 0.5 z m 4,1 V 31 H 55.5 54 v 0.5 0.5 h 1.5 1.5 z" />
			<path d="M 60,32.5 V 30 h 3 3 v 0.5 0.5 h 0.5 0.5 v 2 2 H 66 65 V 33 31 H 63.5 62 v 2 2 h -1 -1 z" />
			<path d="m 71,29 v -1 h 1 1 v 1 1 h 1 1 v 0.5 0.5 h -1 -1 v 2 2 H 72 71 V 33 31 H 70 69 V 30.5 30 h 1 1 z" />
			<path d="M 78,28.5 V 28 h 1.5 1.5 v 3 3 h 1 1 V 34.5 35 H 80 77 V 34.5 34 h 1 1 V 31.5 29 H 78.5 78 Z" />
			<path d="M 84,31.5 V 30 h 1 1 V 31.5 33 H 87.5 89 V 31.5 30 h 1 1 V 32.5 35 H 90.5 90 V 35.5 36 H 87.5 85 V 35.5 35 h 2 2 V 34.5 34 H 87 85 V 33.5 33 H 84.5 84 Z" />
		</g>
	</g>
</svg>
