<?xml version="1.0" encoding="UTF-8" standalone="no"?>
<svg
	xmlns="http://www.w3.org/2000/svg"
	xmlns:inkscape="http://www.inkscape.org/namespaces/inkscape"
	xmlns:sodipodi="http://sodipodi.sourceforge.net/DTD/sodipodi-0.dtd"
	xmlns:svg="http://www.w3.org/2000/svg"
	width="248"
	height="40"
	viewBox="0 0 248 40"
	version="1.1"
	inkscape:version="1.2.2 (b0a8486541, 2022-12-01)"
	>
	<sodipodi:namedview
		id="namedview7"
		pagecolor="#505050"
		bordercolor="#eeeeee"
		borderopacity="1"
		inkscape:showpageshadow="0"
		inkscape:pageopacity="0"
		inkscape:pagecheckerboard="0"
		inkscape:deskcolor="#505050"
		inkscape:document-units="px"
		showgrid="false"
		>
		<inkscape:grid type="xygrid" originx="0" originy="0" empspacing="8" />
	</sodipodi:namedview>
	<g inkscape:groupmode="layer" style="display:none">
		<text xml:space="preserve" style="font-style:normal;font-variant:normal;font-weight:normal;font-stretch:normal;font-size:16px;font-family:'Press Start 2P';-inkscape-font-specification:'Press Start 2P, Normal';font-variant-ligatures:normal;font-variant-caps:normal;font-variant-numeric:normal;font-variant-east-asian:normal;text-align:start;text-anchor:start;fill:#ff0000;fill-opacity:1;stroke-linejoin:round" x="4" y="20"><tspan sodipodi:role="line" x="4" y="20">411</tspan></text>
		<text xml:space="preserve" style="font-style:normal;font-variant:normal;font-weight:normal;font-stretch:normal;font-size:16px;font-family:'Press Start 2P';-inkscape-font-specification:'Press Start 2P, Normal';font-variant-ligatures:normal;font-variant-caps:normal;font-variant-numeric:normal;font-variant-east-asian:normal;text-align:start;text-anchor:start;fill:#ff0000;fill-opacity:1;stroke-linejoin:round" x="4" y="36"><tspan sodipodi:role="line" x="4" y="36">Length Required</tspan></text>
	</g>
	<g inkscape:groupmode="layer" inkscape:label="Outline">
		<g aria-label="411" style="font-size:16px;font-family:'Press Start 2P';-inkscape-font-specification:'Press Start 2P, Normal';fill:#ff0000;stroke-linejoin:round">
			<path d="M 10,5 V 4 h 3 3 v 4 4 h 1 1 v 1 1 h -1 -1 v 2 2 H 14 12 V 16 14 H 8 4 V 12 10 H 5 6 V 9 8 H 7 8 V 7 6 h 1 1 z m 2,5 V 8 h -1 -1 v 1 1 H 9 8 v 1 1 h 2 2 z" />
			<path d="M 26,5 V 4 h 2 2 v 6 6 h 2 2 v 1 1 h -6 -6 v -1 -1 h 2 2 V 12 8 H 25 24 V 7 6 h 1 1 z" />
			<path d="M 42,5 V 4 h 2 2 v 6 6 h 2 2 v 1 1 h -6 -6 v -1 -1 h 2 2 V 12 8 H 41 40 V 7 6 h 1 1 z" />
		</g>
		<g aria-label="Length Required" style="font-size:16px;font-family:'Press Start 2P';-inkscape-font-specification:'Press Start 2P, Normal';fill:#ff0000;stroke-linejoin:round">
			<path d="m 6,27 v -7 h 2 2 v 6 6 h 4 4 v 1 1 H 12 6 Z" />
			<path d="m 22,25 v -1 h 5 5 v 1 1 h 1 1 v 2 2 h -5 -5 v 1 1 h 4 4 v 1 1 h -5 -5 v -1 -1 h -1 -1 v -3 -3 h 1 1 z m 8,2 v -1 h -3 -3 v 1 1 h 3 3 z" />
			<path d="m 36,29 v -5 h 6 6 v 1 1 h 1 1 v 4 4 h -2 -2 v -4 -4 h -3 -3 v 4 4 h -2 -2 z" />
			<path d="m 54,25 v -1 h 6 6 v 5 5 h -1 -1 v 1 1 h -5 -5 v -1 -1 h 4 4 v -1 -1 h -4 -4 v -1 -1 h -1 -1 v -2 -2 h 1 1 z m 8,3 v -2 h -3 -3 v 2 2 h 3 3 z" />
			<path d="m 74,22 v -2 h 2 2 v 2 2 h 2 2 v 1 1 h -2 -2 v 4 4 h -2 -2 v -4 -4 h -2 -2 v -1 -1 h 2 2 z" />
			<path d="m 84,27 v -7 h 2 2 v 2 2 h 4 4 v 1 1 h 1 1 v 4 4 h -2 -2 v -4 -4 h -3 -3 v 4 4 h -2 -2 z" />
			<path d="m 116,27 v -7 h 6 6 v 1 1 h 1 1 v 3 3 h -2 -2 v 1 1 h 1 1 v 1 1 h 1 1 v 1 1 h -3 -3 v -1 -1 h -1 -1 v -1 -1 h -1 -1 v 2 2 h -2 -2 z m 10,-3 v -2 h -3 -3 v 3 3 h 2 2 v -1 -1 h 1 1 z" />
			<path d="m 134,25 v -1 h 5 5 v 1 1 h 1 1 v 2 2 h -5 -5 v 1 1 h 4 4 v 1 1 h -5 -5 v -1 -1 h -1 -1 v -3 -3 h 1 1 z m 8,2 v -1 h -3 -3 v 1 1 h 3 3 z" />
			<path d="m 150,25 v -1 h 6 6 v 6 6 h -2 -2 v -2 -2 h -4 -4 v -1 -1 h -1 -1 v -2 -2 h 1 1 z m 8,3 v -2 h -3 -3 v 2 2 h 3 3 z" />
			<path d="m 164,28 v -4 h 2 2 v 4 4 h 3 3 v -4 -4 h 2 2 v 5 5 h -6 -6 v -1 -1 h -1 -1 z" />
			<path d="m 184,25 v -1 h 3 3 v 4 4 h 2 2 v 1 1 h -6 -6 v -1 -1 h 2 2 v -3 -3 h -1 -1 z m 2,-4 v -1 h 2 2 v 1 1 h -2 -2 z" />
			<path d="m 198,29 v -5 h 2 2 v 1 1 h 1 1 v -1 -1 h 3 3 v 1 1 h -3 -3 v 1 1 h -1 -1 v 3 3 h -2 -2 z" />
			<path d="m 214,25 v -1 h 5 5 v 1 1 h 1 1 v 2 2 h -5 -5 v 1 1 h 4 4 v 1 1 h -5 -5 v -1 -1 h -1 -1 v -3 -3 h 1 1 z m 8,2 v -1 h -3 -3 v 1 1 h 3 3 z" />
			<path d="m 238,22 v -2 h 2 2 v 7 7 h -6 -6 v -1 -1 h -1 -1 v -3 -3 h 1 1 v -1 -1 h 4 4 z m 0,7 v -3 h -3 -3 v 3 3 h 3 3 z" />
		</g>
	</g>
</svg>
