<?xml version="1.0" encoding="UTF-8" standalone="no"?>
<svg
	xmlns="http://www.w3.org/2000/svg"
	xmlns:cc="http://creativecommons.org/ns#"
	xmlns:dc="http://purl.org/dc/elements/1.1/"
	xmlns:inkscape="http://www.inkscape.org/namespaces/inkscape"
	xmlns:rdf="http://www.w3.org/1999/02/22-rdf-syntax-ns#"
	xmlns:sodipodi="http://sodipodi.sourceforge.net/DTD/sodipodi-0.dtd"
	xmlns:svg="http://www.w3.org/2000/svg"
	width="144"
	height="40"
	viewBox="0 0 144 40"
	version="1.1"
	inkscape:version="1.2.2 (b0a8486541, 2022-12-01)"
	>
	<title>http_203</title>
	<metadata>
		<rdf:RDF>
			<cc:License rdf:about="http://creativecommons.org/publicdomain/zero/1.0/">
				<cc:permits rdf:resource="http://creativecommons.org/ns#Reproduction" />
				<cc:permits rdf:resource="http://creativecommons.org/ns#Distribution" />
				<cc:permits rdf:resource="http://creativecommons.org/ns#DerivativeWorks" />
			</cc:License>
			<cc:Work rdf:about="">
				<cc:license rdf:resource="http://creativecommons.org/publicdomain/zero/1.0/" />
				<dc:title>http_203</dc:title>
				<dc:creator>
					<cc:Agent>
						<dc:title>zawa-ch.</dc:title>
					</cc:Agent>
				</dc:creator>
			</cc:Work>
		</rdf:RDF>
	</metadata>
	<sodipodi:namedview
		pagecolor="#505050"
		bordercolor="#eeeeee"
		borderopacity="1"
		inkscape:showpageshadow="0"
		inkscape:pageopacity="0"
		inkscape:pagecheckerboard="0"
		inkscape:deskcolor="#505050"
		inkscape:document-units="px"
		showgrid="false"
		>
		<inkscape:grid type="xygrid" originx="0" originy="0" empspacing="8" />
	</sodipodi:namedview>
	<g inkscape:groupmode="layer" style="display:none">
		<text xml:space="preserve" style="font-style:normal;font-variant:normal;font-weight:normal;font-stretch:normal;font-size:16px;font-family:'Press Start 2P';-inkscape-font-specification:'Press Start 2P, Normal';font-variant-ligatures:normal;font-variant-caps:normal;font-variant-numeric:normal;font-variant-east-asian:normal;text-align:start;text-anchor:start;fill:#00ff00;fill-opacity:1;stroke-linejoin:round" x="4" y="20"><tspan sodipodi:role="line" x="4" y="20">203</tspan></text>
		<text xml:space="preserve" style="font-style:normal;font-variant:normal;font-weight:normal;font-stretch:normal;font-size:8px;font-family:'Press Start 2P';-inkscape-font-specification:'Press Start 2P, Normal';font-variant-ligatures:normal;font-variant-caps:normal;font-variant-numeric:normal;font-variant-east-asian:normal;text-align:start;text-anchor:start;fill:#00ff00;fill-opacity:1;stroke-linejoin:round" x="4" y="28"><tspan sodipodi:role="line" x="4" y="28">Non-Authoritative</tspan></text>
		<text xml:space="preserve" style="font-style:normal;font-variant:normal;font-weight:normal;font-stretch:normal;font-size:8px;font-family:'Press Start 2P';-inkscape-font-specification:'Press Start 2P, Normal';font-variant-ligatures:normal;font-variant-caps:normal;font-variant-numeric:normal;font-variant-east-asian:normal;fill:#00ff00;stroke-linejoin:round" x="4" y="36"><tspan sodipodi:role="line" x="4" y="36">Information</tspan></text>
	</g>
	<g inkscape:groupmode="layer" inkscape:label="Outline">
		<g aria-label="203" style="font-size:16px;font-family:'Press Start 2P';-inkscape-font-specification:'Press Start 2P, Normal';fill:#00ff00;stroke-linejoin:round">
			<path d="M 6,5 V 4 h 5 5 v 1 1 h 1 1 v 2 2 h -1 -1 v 1 1 h -1 -1 v 1 1 h -2 -2 v 1 1 h 4 4 v 1 1 H 11 4 v -2 -2 h 1 1 v -1 -1 h 1 1 v -1 -1 h 2 2 V 9 8 h 1 1 V 7 6 H 11 8 V 7 8 H 6 4 V 7 6 h 1 1 z" />
			<path d="M 24,5 V 4 h 3 3 v 1 1 h 1 1 v 1 1 h 1 1 v 3 3 h -1 -1 v 1 1 h -1 -1 v 1 1 H 27 24 V 17 16 H 23 22 V 15 14 H 21 20 V 11 8 h 1 1 V 7 6 h 1 1 z m 4,2 V 6 h -2 -2 v 4 4 h 1 1 v 1 1 h 2 2 V 12 8 h -1 -1 z" />
			<path d="M 38,5 V 4 h 6 6 v 1 1 h -1 -1 v 1 1 h -1 -1 v 1 1 h 1 1 v 1 1 h 1 1 v 2 2 h -1 -1 v 1 1 h -5 -5 v -1 -1 h -1 -1 v -1 -1 h 2 2 v 1 1 h 3 3 v -2 -2 h -3 -3 v -1 -1 h 1 1 V 9 8 h 1 1 V 7 6 h -3 -3 z" />
		</g>
		<g aria-label="Non-Authoritative" style="font-size:8px;font-family:'Press Start 2P';-inkscape-font-specification:'Press Start 2P, Normal';fill:#00ff00;stroke-linejoin:round">
			<path d="M 4,23.5 V 20 H 5 6 V 20.5 21 H 6.5 7 V 21.5 22 H 7.5 8 V 22.5 23 H 8.5 9 V 21.5 20 h 1 1 V 23.5 27 H 10 9 V 26.5 26 H 8.5 8 V 25.5 25 H 7.5 7 V 24.5 24 H 6.5 6 V 25.5 27 H 5 4 Z" />
			<path d="M 13,22.5 V 22 H 15.5 18 V 22.5 23 H 18.5 19 V 24.5 26 H 18.5 18 V 26.5 27 H 15.5 13 V 26.5 26 H 12.5 12 V 24.5 23 h 0.5 0.5 z m 4,2 V 23 H 15.5 14 v 1.5 1.5 h 1.5 1.5 z" />
			<path d="M 20,24.5 V 22 h 3 3 v 0.5 0.5 h 0.5 0.5 v 2 2 H 26 25 V 25 23 H 23.5 22 v 2 2 h -1 -1 z" />
			<path d="M 29,23.5 V 23 h 3 3 v 0.5 0.5 h -3 -3 z" />
			<path d="M 38,20.5 V 20 H 39.5 41 V 20.5 21 H 41.5 42 V 21.5 22 H 42.5 43 V 24.5 27 H 42 41 V 26 25 H 39.5 38 v 1 1 H 37 36 V 24.5 22 H 36.5 37 V 21.5 21 h 0.5 0.5 z m 2,1 V 21 H 39.5 39 V 21.5 22 H 38.5 38 v 1 1 H 39.5 41 V 23 22 H 40.5 40 Z" />
			<path d="m 44,24 v -2 h 1 1 v 2 2 h 1.5 1.5 v -2 -2 h 1 1 V 24.5 27 H 48 45 V 26.5 26 H 44.5 44 Z" />
			<path d="m 55,21 v -1 h 1 1 v 1 1 h 1 1 v 0.5 0.5 h -1 -1 v 2 2 H 56 55 V 25 23 H 54 53 V 22.5 22 h 1 1 z" />
			<path d="M 60,23.5 V 20 h 1 1 v 1 1 h 2 2 v 0.5 0.5 h 0.5 0.5 v 2 2 H 66 65 V 25 23 H 63.5 62 v 2 2 h -1 -1 z" />
			<path d="M 69,22.5 V 22 H 71.5 74 V 22.5 23 H 74.5 75 V 24.5 26 H 74.5 74 V 26.5 27 H 71.5 69 V 26.5 26 H 68.5 68 V 24.5 23 h 0.5 0.5 z m 4,2 V 23 H 71.5 70 v 1.5 1.5 h 1.5 1.5 z" />
			<path d="M 77,24.5 V 22 h 1 1 V 22.5 23 H 79.5 80 V 22.5 22 H 81.5 83 V 22.5 23 H 81.5 80 V 23.5 24 H 79.5 79 v 1.5 1.5 h -1 -1 z" />
			<path d="M 86,22.5 V 22 h 1.5 1.5 v 2 2 h 1 1 V 26.5 27 H 88 85 V 26.5 26 h 1 1 V 24.5 23 H 86.5 86 Z m 1,-2 V 20 h 1 1 v 0.5 0.5 h -1 -1 z" />
			<path d="m 95,21 v -1 h 1 1 v 1 1 h 1 1 v 0.5 0.5 h -1 -1 v 2 2 H 96 95 V 25 23 H 94 93 V 22.5 22 h 1 1 z" />
			<path d="M 101,22.5 V 22 h 2.5 2.5 v 0.5 0.5 h 0.5 0.5 v 2 2 h -3 -3 V 26.5 26 H 100.5 100 V 25.5 25 h 0.5 0.5 V 24.5 24 h 2 2 V 23.5 23 h -2 -2 z m 4,3 V 25 h -1.5 -1.5 v 0.5 0.5 h 1.5 1.5 z" />
			<path d="m 111,21 v -1 h 1 1 v 1 1 h 1 1 v 0.5 0.5 h -1 -1 v 2 2 h -1 -1 v -2 -2 h -1 -1 V 22.5 22 h 1 1 z" />
			<path d="M 118,22.5 V 22 h 1.5 1.5 v 2 2 h 1 1 v 0.5 0.5 h -3 -3 V 26.5 26 h 1 1 V 24.5 23 h -0.5 -0.5 z m 1,-2 V 20 h 1 1 v 0.5 0.5 h -1 -1 z" />
			<path d="M 125,23.5 V 22 h 1 1 v 1.5 1.5 h 1 1 V 23.5 22 h 1 1 v 1.5 1.5 h -0.5 -0.5 v 0.5 0.5 h -0.5 -0.5 v 0.5 0.5 h -1 -1 V 26.5 26 H 126.5 126 V 25.5 25 h -0.5 -0.5 z" />
			<path d="M 133,22.5 V 22 h 2.5 2.5 v 0.5 0.5 h 0.5 0.5 v 1 1 h -2.5 -2.5 v 0.5 0.5 h 2 2 V 26.5 27 H 135.5 133 V 26.5 26 H 132.5 132 V 24.5 23 h 0.5 0.5 z m 4,1 V 23 h -1.5 -1.5 v 0.5 0.5 h 1.5 1.5 z" />
		</g>
		<g aria-label="Information" style="font-size:8px;font-family:'Press Start 2P';-inkscape-font-specification:'Press Start 2P, Normal';fill:#00ff00;stroke-linejoin:round">
			<path d="M 5,28.5 V 28 h 3 3 V 28.5 29 H 10 9 v 2.5 2.5 h 1 1 V 34.5 35 H 8 5 V 34.5 34 H 6 7 V 31.5 29 H 6 5 Z" />
			<path d="M 12,32.5 V 30 h 3 3 v 0.5 0.5 h 0.5 0.5 v 2 2 H 18 17 V 33 31 H 15.5 14 v 2 2 h -1 -1 z" />
			<path d="M 24,28.5 V 28 h 1.5 1.5 v 0.5 0.5 h -1 -1 v 0.5 0.5 h 1 1 v 0.5 0.5 h -1 -1 v 2 2 H 24 23 V 33 31 H 22 21 V 30.5 30 h 1 1 V 29.5 29 h 0.5 0.5 z" />
			<path d="M 29,30.5 V 30 H 31.5 34 V 30.5 31 H 34.5 35 V 32.5 34 H 34.5 34 V 34.5 35 H 31.5 29 V 34.5 34 H 28.5 28 V 32.5 31 h 0.5 0.5 z m 4,2 V 31 H 31.5 30 v 1.5 1.5 h 1.5 1.5 z" />
			<path d="M 37,32.5 V 30 h 1 1 V 30.5 31 H 39.5 40 V 30.5 30 H 41.5 43 V 30.5 31 H 41.5 40 V 31.5 32 H 39.5 39 v 1.5 1.5 h -1 -1 z" />
			<path d="M 44,32.5 V 30 h 3 3 v 0.5 0.5 h 0.5 0.5 v 2 2 H 50 49 V 33 31 H 48.5 48 v 2 2 H 47 46 V 33 31 H 45.5 45 v 2 2 H 44.5 44 Z" />
			<path d="M 53,30.5 V 30 h 2.5 2.5 v 0.5 0.5 h 0.5 0.5 v 2 2 H 56 53 V 34.5 34 H 52.5 52 V 33.5 33 H 52.5 53 V 32.5 32 h 2 2 V 31.5 31 h -2 -2 z m 4,3 V 33 H 55.5 54 v 0.5 0.5 h 1.5 1.5 z" />
			<path d="m 63,29 v -1 h 1 1 v 1 1 h 1 1 v 0.5 0.5 h -1 -1 v 2 2 H 64 63 V 33 31 H 62 61 V 30.5 30 h 1 1 z" />
			<path d="M 70,30.5 V 30 h 1.5 1.5 v 2 2 h 1 1 V 34.5 35 H 72 69 V 34.5 34 h 1 1 V 32.5 31 H 70.5 70 Z m 1,-2 V 28 h 1 1 v 0.5 0.5 h -1 -1 z" />
			<path d="M 77,30.5 V 30 H 79.5 82 V 30.5 31 H 82.5 83 V 32.5 34 H 82.5 82 V 34.5 35 H 79.5 77 V 34.5 34 H 76.5 76 V 32.5 31 h 0.5 0.5 z m 4,2 V 31 H 79.5 78 v 1.5 1.5 h 1.5 1.5 z" />
			<path d="M 84,32.5 V 30 h 3 3 v 0.5 0.5 h 0.5 0.5 v 2 2 H 90 89 V 33 31 H 87.5 86 v 2 2 h -1 -1 z" />
		</g>
	</g>
</svg>
