<?xml version="1.0" encoding="UTF-8" standalone="no"?>
<svg
	xmlns="http://www.w3.org/2000/svg"
	xmlns:cc="http://creativecommons.org/ns#"
	xmlns:dc="http://purl.org/dc/elements/1.1/"
	xmlns:inkscape="http://www.inkscape.org/namespaces/inkscape"
	xmlns:rdf="http://www.w3.org/1999/02/22-rdf-syntax-ns#"
	xmlns:sodipodi="http://sodipodi.sourceforge.net/DTD/sodipodi-0.dtd"
	xmlns:svg="http://www.w3.org/2000/svg"
	width="72"
	height="40"
	viewBox="0 0 72 40"
	version="1.1"
	inkscape:version="1.2.2 (b0a8486541, 2022-12-01)"
	>
	<title>http_429</title>
	<metadata>
		<rdf:RDF>
			<cc:License rdf:about="http://creativecommons.org/publicdomain/zero/1.0/">
				<cc:permits rdf:resource="http://creativecommons.org/ns#Reproduction" />
				<cc:permits rdf:resource="http://creativecommons.org/ns#Distribution" />
				<cc:permits rdf:resource="http://creativecommons.org/ns#DerivativeWorks" />
			</cc:License>
			<cc:Work rdf:about="">
				<cc:license rdf:resource="http://creativecommons.org/publicdomain/zero/1.0/" />
				<dc:title>http_429</dc:title>
				<dc:creator>
					<cc:Agent>
						<dc:title>zawa-ch.</dc:title>
					</cc:Agent>
				</dc:creator>
			</cc:Work>
		</rdf:RDF>
	</metadata>
	<sodipodi:namedview
		id="namedview7"
		pagecolor="#505050"
		bordercolor="#eeeeee"
		borderopacity="1"
		inkscape:showpageshadow="0"
		inkscape:pageopacity="0"
		inkscape:pagecheckerboard="0"
		inkscape:deskcolor="#505050"
		inkscape:document-units="px"
		showgrid="false"
		>
		<inkscape:grid type="xygrid" originx="0" originy="0" empspacing="8" />
	</sodipodi:namedview>
	<g inkscape:groupmode="layer" style="display:none">
		<text xml:space="preserve" style="font-style:normal;font-variant:normal;font-weight:normal;font-stretch:normal;font-size:16px;font-family:'Press Start 2P';-inkscape-font-specification:'Press Start 2P, Normal';font-variant-ligatures:normal;font-variant-caps:normal;font-variant-numeric:normal;font-variant-east-asian:normal;text-align:start;text-anchor:start;fill:#ff0000;fill-opacity:1;stroke-linejoin:round" x="4" y="20"><tspan sodipodi:role="line" x="4" y="20">429</tspan></text>
		<text xml:space="preserve" style="font-style:normal;font-variant:normal;font-weight:normal;font-stretch:normal;font-size:8px;font-family:'Press Start 2P';-inkscape-font-specification:'Press Start 2P, Normal';font-variant-ligatures:normal;font-variant-caps:normal;font-variant-numeric:normal;font-variant-east-asian:normal;text-align:start;text-anchor:start;fill:#ff0000;fill-opacity:1;stroke-linejoin:round" x="4" y="28"><tspan sodipodi:role="line" x="4" y="28">Too Many</tspan></text>
		<text xml:space="preserve" style="font-style:normal;font-variant:normal;font-weight:normal;font-stretch:normal;font-size:8px;font-family:'Press Start 2P';-inkscape-font-specification:'Press Start 2P, Normal';font-variant-ligatures:normal;font-variant-caps:normal;font-variant-numeric:normal;font-variant-east-asian:normal;fill:#ff0000;fill-opacity:1;stroke-linejoin:round" x="4" y="36"><tspan sodipodi:role="line" x="4" y="36">Requests</tspan></text>
	</g>
	<g inkscape:groupmode="layer" inkscape:label="Outline">
		<g aria-label="429" style="font-size:16px;font-family:'Press Start 2P';-inkscape-font-specification:'Press Start 2P, Normal';fill:#ff0000;stroke-linejoin:round">
			<path d="M 10,5 V 4 h 3 3 v 4 4 h 1 1 v 1 1 h -1 -1 v 2 2 H 14 12 V 16 14 H 8 4 V 12 10 H 5 6 V 9 8 H 7 8 V 7 6 h 1 1 z m 2,5 V 8 h -1 -1 v 1 1 H 9 8 v 1 1 h 2 2 z" />
			<path d="M 22,5 V 4 h 5 5 v 1 1 h 1 1 v 2 2 h -1 -1 v 1 1 h -1 -1 v 1 1 h -2 -2 v 1 1 h 4 4 v 1 1 h -7 -7 v -2 -2 h 1 1 v -1 -1 h 1 1 v -1 -1 h 2 2 V 9 8 h 1 1 V 7 6 H 27 24 V 7 8 H 22 20 V 7 6 h 1 1 z" />
			<path d="M 38,5 V 4 h 5 5 v 1 1 h 1 1 v 4 4 h -1 -1 v 1 1 h -1 -1 v 1 1 h -4 -4 v -1 -1 h 3 3 v -1 -1 h 1 1 V 13 12 H 42 38 V 11 10 H 37 36 V 8 6 h 1 1 z m 8,3 V 6 h -3 -3 v 2 2 h 3 3 z" />
		</g>
		<g aria-label="Too Many" style="font-size:8px;font-family:'Press Start 2P';-inkscape-font-specification:'Press Start 2P, Normal';fill:#ff0000;stroke-linejoin:round">
			<path d="M 5,20.5 V 20 h 3 3 V 20.5 21 H 10 9 v 3 3 H 8 7 V 24 21 H 6 5 Z" />
			<path d="M 13,22.5 V 22 H 15.5 18 V 22.5 23 H 18.5 19 V 24.5 26 H 18.5 18 V 26.5 27 H 15.5 13 V 26.5 26 H 12.5 12 V 24.5 23 h 0.5 0.5 z m 4,2 V 23 H 15.5 14 v 1.5 1.5 h 1.5 1.5 z" />
			<path d="M 21,22.5 V 22 H 23.5 26 V 22.5 23 H 26.5 27 V 24.5 26 H 26.5 26 V 26.5 27 H 23.5 21 V 26.5 26 H 20.5 20 V 24.5 23 h 0.5 0.5 z m 4,2 V 23 H 23.5 22 v 1.5 1.5 h 1.5 1.5 z" />
			<path d="M 36,23.5 V 20 h 1 1 V 20.5 21 H 38.5 39 V 21.5 22 H 39.5 40 V 21.5 21 H 40.5 41 V 20.5 20 h 1 1 V 23.5 27 H 42 41 V 25.5 24 H 40.5 40 V 24.5 25 H 39.5 39 V 24.5 24 H 38.5 38 v 1.5 1.5 h -1 -1 z" />
			<path d="M 45,22.5 V 22 h 2.5 2.5 v 0.5 0.5 h 0.5 0.5 v 2 2 H 48 45 V 26.5 26 H 44.5 44 V 25.5 25 H 44.5 45 V 24.5 24 h 2 2 V 23.5 23 h -2 -2 z m 4,3 V 25 H 47.5 46 v 0.5 0.5 h 1.5 1.5 z" />
			<path d="M 52,24.5 V 22 h 3 3 v 0.5 0.5 h 0.5 0.5 v 2 2 H 58 57 V 25 23 H 55.5 54 v 2 2 h -1 -1 z" />
			<path d="M 60,23.5 V 22 h 1 1 V 23.5 25 H 63.5 65 V 23.5 22 h 1 1 V 24.5 27 H 66.5 66 V 27.5 28 H 63.5 61 V 27.5 27 h 2 2 V 26.5 26 H 63 61 V 25.5 25 H 60.5 60 Z" />
		</g>
		<g aria-label="Requests" style="font-size:8px;font-family:'Press Start 2P';-inkscape-font-specification:'Press Start 2P, Normal';fill:#ff0000;stroke-linejoin:round">
			<path d="M 4,31.5 V 28 h 3 3 V 28.5 29 H 10.5 11 V 30.5 32 H 10 9 V 32.5 33 H 9.5 10 V 33.5 34 H 10.5 11 V 34.5 35 H 9.5 8 V 34.5 34 H 7.5 7 V 33.5 33 H 6.5 6 v 1 1 H 5 4 Z M 9,30 V 29 H 7.5 6 V 30.5 32 H 7 8 V 31.5 31 H 8.5 9 Z" />
			<path d="M 13,30.5 V 30 h 2.5 2.5 v 0.5 0.5 h 0.5 0.5 v 1 1 H 16.5 14 v 0.5 0.5 h 2 2 V 34.5 35 H 15.5 13 V 34.5 34 H 12.5 12 V 32.5 31 h 0.5 0.5 z m 4,1 V 31 H 15.5 14 v 0.5 0.5 h 1.5 1.5 z" />
			<path d="M 21,30.5 V 30 h 3 3 v 3 3 H 26 25 V 35 34 H 23 21 V 33.5 33 H 20.5 20 V 32 31 H 20.5 21 Z M 25,32 V 31 H 23.5 22 v 1 1 h 1.5 1.5 z" />
			<path d="m 28,32 v -2 h 1 1 v 2 2 h 1.5 1.5 v -2 -2 h 1 1 V 32.5 35 H 32 29 V 34.5 34 H 28.5 28 Z" />
			<path d="M 37,30.5 V 30 h 2.5 2.5 v 0.5 0.5 h 0.5 0.5 v 1 1 H 40.5 38 v 0.5 0.5 h 2 2 V 34.5 35 H 39.5 37 V 34.5 34 H 36.5 36 V 32.5 31 h 0.5 0.5 z m 4,1 V 31 H 39.5 38 v 0.5 0.5 h 1.5 1.5 z" />
			<path d="M 45,30.5 V 30 h 2.5 2.5 v 0.5 0.5 h -2 -2 v 0.5 0.5 h 2 2 V 32.5 33 H 50.5 51 V 33.5 34 H 50.5 50 V 34.5 35 H 47 44 V 34.5 34 H 46.5 49 V 33.5 33 H 47 45 V 32.5 32 H 44.5 44 V 31.5 31 h 0.5 0.5 z" />
			<path d="m 55,29 v -1 h 1 1 v 1 1 h 1 1 v 0.5 0.5 h -1 -1 v 2 2 H 56 55 V 33 31 H 54 53 V 30.5 30 h 1 1 z" />
			<path d="M 61,30.5 V 30 h 2.5 2.5 v 0.5 0.5 h -2 -2 v 0.5 0.5 h 2 2 V 32.5 33 H 66.5 67 V 33.5 34 H 66.5 66 V 34.5 35 H 63 60 V 34.5 34 H 62.5 65 V 33.5 33 H 63 61 V 32.5 32 H 60.5 60 V 31.5 31 h 0.5 0.5 z" />
		</g>
	</g>
</svg>
