<?xml version="1.0" encoding="UTF-8" standalone="no"?>
<svg
	xmlns="http://www.w3.org/2000/svg"
	xmlns:inkscape="http://www.inkscape.org/namespaces/inkscape"
	xmlns:sodipodi="http://sodipodi.sourceforge.net/DTD/sodipodi-0.dtd"
	xmlns:svg="http://www.w3.org/2000/svg"
	width="96"
	height="40"
	viewBox="0 0 96 40"
	version="1.1"
	inkscape:version="1.2.2 (b0a8486541, 2022-12-01)"
	>
	<sodipodi:namedview
		pagecolor="#505050"
		bordercolor="#eeeeee"
		borderopacity="1"
		inkscape:showpageshadow="0"
		inkscape:pageopacity="0"
		inkscape:pagecheckerboard="0"
		inkscape:deskcolor="#505050"
		inkscape:document-units="px"
		showgrid="false"
		>
		<inkscape:grid type="xygrid" originx="0" originy="0" empspacing="8" />
	</sodipodi:namedview>
	<g inkscape:groupmode="layer" style="display:none">
		<text xml:space="preserve" style="font-style:normal;font-variant:normal;font-weight:normal;font-stretch:normal;font-size:16px;font-family:'Press Start 2P';-inkscape-font-specification:'Press Start 2P, Normal';font-variant-ligatures:normal;font-variant-caps:normal;font-variant-numeric:normal;font-variant-east-asian:normal;text-align:start;text-anchor:start;fill:#ff00ff;fill-opacity:1;stroke-linejoin:round" x="4" y="20"><tspan sodipodi:role="line" x="4" y="20">503</tspan></text>
		<text xml:space="preserve" style="font-style:normal;font-variant:normal;font-weight:normal;font-stretch:normal;font-size:8px;font-family:'Press Start 2P';-inkscape-font-specification:'Press Start 2P, Normal';font-variant-ligatures:normal;font-variant-caps:normal;font-variant-numeric:normal;font-variant-east-asian:normal;text-align:start;text-anchor:start;fill:#ff00ff;fill-opacity:1;stroke-linejoin:round" x="4" y="36"><tspan sodipodi:role="line" x="4" y="36">Unavailable</tspan></text>
		<text xml:space="preserve" style="font-style:normal;font-variant:normal;font-weight:normal;font-stretch:normal;font-size:8px;font-family:'Press Start 2P';-inkscape-font-specification:'Press Start 2P, Normal';font-variant-ligatures:normal;font-variant-caps:normal;font-variant-numeric:normal;font-variant-east-asian:normal;fill:#ff00ff;fill-opacity:1;stroke-linejoin:round" x="4" y="28"><tspan sodipodi:role="line" x="4" y="28">Service</tspan></text>
	</g>
	<g inkscape:groupmode="layer" inkscape:label="Outline">
		<g aria-label="503" style="font-size:16px;font-family:'Press Start 2P';-inkscape-font-specification:'Press Start 2P, Normal';fill:#ff00ff;stroke-linejoin:round">
			<path d="M 4,7 V 4 h 6 6 V 5 6 H 12 8 v 1 1 h 4 4 v 1 1 h 1 1 v 3 3 h -1 -1 v 1 1 H 11 6 V 17 16 H 5 4 v -1 -1 h 2 2 v 1 1 h 3 3 V 13 10 H 9 4 Z" />
			<path d="M 24,5 V 4 h 3 3 v 1 1 h 1 1 v 1 1 h 1 1 v 3 3 h -1 -1 v 1 1 h -1 -1 v 1 1 H 27 24 V 17 16 H 23 22 V 15 14 H 21 20 V 11 8 h 1 1 V 7 6 h 1 1 z m 4,2 V 6 h -2 -2 v 4 4 h 1 1 v 1 1 h 2 2 V 12 8 h -1 -1 z" />
			<path d="M 38,5 V 4 h 6 6 v 1 1 h -1 -1 v 1 1 h -1 -1 v 1 1 h 1 1 v 1 1 h 1 1 v 2 2 h -1 -1 v 1 1 h -5 -5 v -1 -1 h -1 -1 v -1 -1 h 2 2 v 1 1 h 3 3 v -2 -2 h -3 -3 v -1 -1 h 1 1 V 9 8 h 1 1 V 7 6 h -3 -3 z" />
		</g>
		<g aria-label="Unavailable" style="font-size:8px;font-family:'Press Start 2P';-inkscape-font-specification:'Press Start 2P, Normal';fill:#ff00ff;stroke-linejoin:round">
			<path d="m 4,31 v -3 h 1 1 v 3 3 H 7.5 9 v -3 -3 h 1 1 v 3 3 H 10.5 10 V 34.5 35 H 7.5 5 V 34.5 34 H 4.5 4 Z" />
			<path d="M 12,32.5 V 30 h 3 3 v 0.5 0.5 h 0.5 0.5 v 2 2 H 18 17 V 33 31 H 15.5 14 v 2 2 h -1 -1 z" />
			<path d="M 21,30.5 V 30 h 2.5 2.5 v 0.5 0.5 h 0.5 0.5 v 2 2 H 24 21 V 34.5 34 H 20.5 20 V 33.5 33 H 20.5 21 V 32.5 32 h 2 2 V 31.5 31 h -2 -2 z m 4,3 V 33 H 23.5 22 v 0.5 0.5 h 1.5 1.5 z" />
			<path d="M 29,31.5 V 30 h 1 1 v 1.5 1.5 h 1 1 V 31.5 30 h 1 1 V 31.5 33 H 34.5 34 V 33.5 34 H 33.5 33 V 34.5 35 H 32 31 V 34.5 34 H 30.5 30 V 33.5 33 H 29.5 29 Z" />
			<path d="M 37,30.5 V 30 h 2.5 2.5 v 0.5 0.5 h 0.5 0.5 v 2 2 H 40 37 V 34.5 34 H 36.5 36 V 33.5 33 H 36.5 37 V 32.5 32 h 2 2 V 31.5 31 h -2 -2 z m 4,3 V 33 H 39.5 38 v 0.5 0.5 h 1.5 1.5 z" />
			<path d="M 46,30.5 V 30 h 1.5 1.5 v 2 2 h 1 1 V 34.5 35 H 48 45 V 34.5 34 h 1 1 V 32.5 31 H 46.5 46 Z m 1,-2 V 28 h 1 1 v 0.5 0.5 h -1 -1 z" />
			<path d="M 54,28.5 V 28 h 1.5 1.5 v 3 3 h 1 1 V 34.5 35 H 56 53 V 34.5 34 h 1 1 V 31.5 29 H 54.5 54 Z" />
			<path d="M 61,30.5 V 30 h 2.5 2.5 v 0.5 0.5 h 0.5 0.5 v 2 2 H 64 61 V 34.5 34 H 60.5 60 V 33.5 33 H 60.5 61 V 32.5 32 h 2 2 V 31.5 31 h -2 -2 z m 4,3 V 33 H 63.5 62 v 0.5 0.5 h 1.5 1.5 z" />
			<path d="m 68,31 v -3 h 1 1 v 1 1 h 2 2 V 30.5 31 H 74.5 75 V 32.5 34 H 74.5 74 V 34.5 35 H 71.5 69 V 34.5 34 H 68.5 68 Z m 5,1.5 V 31 H 71.5 70 v 1.5 1.5 h 1.5 1.5 z" />
			<path d="M 78,28.5 V 28 h 1.5 1.5 v 3 3 h 1 1 V 34.5 35 H 80 77 V 34.5 34 h 1 1 V 31.5 29 H 78.5 78 Z" />
			<path d="M 85,30.5 V 30 h 2.5 2.5 v 0.5 0.5 h 0.5 0.5 v 1 1 H 88.5 86 v 0.5 0.5 h 2 2 V 34.5 35 H 87.5 85 V 34.5 34 H 84.5 84 V 32.5 31 h 0.5 0.5 z m 4,1 V 31 H 87.5 86 v 0.5 0.5 h 1.5 1.5 z" />
		</g>
		<g aria-label="Service" style="font-size:8px;font-family:'Press Start 2P';-inkscape-font-specification:'Press Start 2P, Normal';fill:#ff00ff;stroke-linejoin:round">
			<path d="M 5,20.5 V 20 H 7 9 V 20.5 21 H 9.5 10 V 21.5 22 H 9 8 V 21.5 21 H 7 6 v 1 1 h 2 2 v 0.5 0.5 h 0.5 0.5 v 1 1 H 10.5 10 V 26.5 27 H 7.5 5 V 26.5 26 H 4.5 4 V 25.5 25 H 5 6 V 25.5 26 H 7.5 9 V 25 24 H 7 5 V 23.5 23 H 4.5 4 V 22 21 H 4.5 5 Z" />
			<path d="M 13,22.5 V 22 h 2.5 2.5 v 0.5 0.5 h 0.5 0.5 v 1 1 H 16.5 14 v 0.5 0.5 h 2 2 V 26.5 27 H 15.5 13 V 26.5 26 H 12.5 12 V 24.5 23 h 0.5 0.5 z m 4,1 V 23 H 15.5 14 v 0.5 0.5 h 1.5 1.5 z" />
			<path d="M 21,24.5 V 22 h 1 1 V 22.5 23 H 23.5 24 V 22.5 22 H 25.5 27 V 22.5 23 H 25.5 24 V 23.5 24 H 23.5 23 v 1.5 1.5 h -1 -1 z" />
			<path d="M 29,23.5 V 22 h 1 1 v 1.5 1.5 h 1 1 V 23.5 22 h 1 1 V 23.5 25 H 34.5 34 V 25.5 26 H 33.5 33 V 26.5 27 H 32 31 V 26.5 26 H 30.5 30 V 25.5 25 H 29.5 29 Z" />
			<path d="M 38,22.5 V 22 h 1.5 1.5 v 2 2 h 1 1 V 26.5 27 H 40 37 V 26.5 26 h 1 1 V 24.5 23 H 38.5 38 Z m 1,-2 V 20 h 1 1 v 0.5 0.5 h -1 -1 z" />
			<path d="M 45,22.5 V 22 h 3 3 V 22.5 23 H 48.5 46 V 24.5 26 H 48.5 51 V 26.5 27 H 48 45 V 26.5 26 H 44.5 44 V 24.5 23 h 0.5 0.5 z" />
			<path d="M 53,22.5 V 22 h 2.5 2.5 v 0.5 0.5 h 0.5 0.5 v 1 1 H 56.5 54 v 0.5 0.5 h 2 2 V 26.5 27 H 55.5 53 V 26.5 26 H 52.5 52 V 24.5 23 h 0.5 0.5 z m 4,1 V 23 H 55.5 54 v 0.5 0.5 h 1.5 1.5 z" />
		</g>
	</g>
</svg>
