<?xml version="1.0" encoding="UTF-8" standalone="no"?>
<svg
	 xmlns="http://www.w3.org/2000/svg"
	 xmlns:cc="http://creativecommons.org/ns#"
	 xmlns:dc="http://purl.org/dc/elements/1.1/"
	 xmlns:inkscape="http://www.inkscape.org/namespaces/inkscape"
	 xmlns:rdf="http://www.w3.org/1999/02/22-rdf-syntax-ns#"
	 xmlns:sodipodi="http://sodipodi.sourceforge.net/DTD/sodipodi-0.dtd"
	 xmlns:svg="http://www.w3.org/2000/svg"
	 width="96"
	 height="40"
	 viewBox="0 0 96 40"
	 version="1.1"
	 inkscape:version="1.2.2 (b0a8486541, 2022-12-01)"
	 >
	<title>http_417</title>
	<metadata>
		<rdf:RDF>
			<cc:License rdf:about="http://creativecommons.org/publicdomain/zero/1.0/">
				<cc:permits rdf:resource="http://creativecommons.org/ns#Reproduction" />
				<cc:permits rdf:resource="http://creativecommons.org/ns#Distribution" />
				<cc:permits rdf:resource="http://creativecommons.org/ns#DerivativeWorks" />
			</cc:License>
			<cc:Work rdf:about="">
				<cc:license rdf:resource="http://creativecommons.org/publicdomain/zero/1.0/" />
				<dc:title>http_417</dc:title>
				<dc:creator>
					<cc:Agent>
						<dc:title>zawa-ch.</dc:title>
					</cc:Agent>
				</dc:creator>
			</cc:Work>
		</rdf:RDF>
	</metadata>
	<sodipodi:namedview
		id="namedview7"
		pagecolor="#505050"
		bordercolor="#eeeeee"
		borderopacity="1"
		inkscape:showpageshadow="0"
		inkscape:pageopacity="0"
		inkscape:pagecheckerboard="0"
		inkscape:deskcolor="#505050"
		inkscape:document-units="px"
		showgrid="false"
		>
		<inkscape:grid type="xygrid" originx="0" originy="0" empspacing="8" />
	</sodipodi:namedview>
	<g inkscape:groupmode="layer" style="display:none">
		<text xml:space="preserve" style="font-style:normal;font-variant:normal;font-weight:normal;font-stretch:normal;font-size:16px;font-family:'Press Start 2P';-inkscape-font-specification:'Press Start 2P, Normal';font-variant-ligatures:normal;font-variant-caps:normal;font-variant-numeric:normal;font-variant-east-asian:normal;text-align:start;text-anchor:start;fill:#ff0000;fill-opacity:1;stroke-linejoin:round" x="4" y="20"><tspan sodipodi:role="line" x="4" y="20">417</tspan></text>
		<text xml:space="preserve" style="font-style:normal;font-variant:normal;font-weight:normal;font-stretch:normal;font-size:8px;font-family:'Press Start 2P';-inkscape-font-specification:'Press Start 2P, Normal';font-variant-ligatures:normal;font-variant-caps:normal;font-variant-numeric:normal;font-variant-east-asian:normal;text-align:start;text-anchor:start;fill:#ff0000;fill-opacity:1;stroke-linejoin:round" x="4" y="28"><tspan sodipodi:role="line" x="4" y="28">Expectation</tspan></text>
		<text xml:space="preserve" style="font-style:normal;font-variant:normal;font-weight:normal;font-stretch:normal;font-size:8px;font-family:'Press Start 2P';-inkscape-font-specification:'Press Start 2P, Normal';font-variant-ligatures:normal;font-variant-caps:normal;font-variant-numeric:normal;font-variant-east-asian:normal;fill:#ff0000;fill-opacity:1;stroke-linejoin:round" x="4" y="36"><tspan sodipodi:role="line" x="4" y="36">Failed</tspan></text>
	</g>
	<g inkscape:groupmode="layer" inkscape:label="Outline">
		<g aria-label="417" style="font-size:16px;font-family:'Press Start 2P';-inkscape-font-specification:'Press Start 2P, Normal';fill:#ff0000;stroke-linejoin:round">
			<path d="M 10,5 V 4 h 3 3 v 4 4 h 1 1 v 1 1 h -1 -1 v 2 2 H 14 12 V 16 14 H 8 4 V 12 10 H 5 6 V 9 8 H 7 8 V 7 6 h 1 1 z m 2,5 V 8 h -1 -1 v 1 1 H 9 8 v 1 1 h 2 2 z" />
			<path d="M 26,5 V 4 h 2 2 v 6 6 h 2 2 v 1 1 h -6 -6 v -1 -1 h 2 2 V 12 8 H 25 24 V 7 6 h 1 1 z" />
			<path d="M 36,6 V 4 h 7 7 v 2 2 h -1 -1 v 1 1 h -1 -1 v 1 1 h -1 -1 v 3 3 h -2 -2 v -3 -3 h 1 1 v -1 -1 h 1 1 V 9 8 h 1 1 V 7 6 h -3 -3 v 1 1 h -2 -2 z" />
		</g>
		<g aria-label="Expectation" style="font-size:8px;font-family:'Press Start 2P';-inkscape-font-specification:'Press Start 2P, Normal';fill:#ff0000;stroke-linejoin:round">
			<path d="M 4,23.5 V 20 H 7.5 11 V 20.5 21 H 8.5 6 v 1 1 h 2 2 V 23.5 24 H 8 6 v 1 1 H 8.5 11 V 26.5 27 H 7.5 4 Z" />
			<path d="m 12,23 v -1 h 1 1 V 22.5 23 H 15.5 17 V 22.5 22 h 1 1 v 1 1 h -1 -1 v 0.5 0.5 h 1 1 v 1 1 H 18 17 V 26.5 26 H 15.5 14 v 0.5 0.5 h -1 -1 v -1 -1 h 1 1 V 24.5 24 h -1 -1 z" />
			<path d="m 20,25 v -3 h 3 3 v 0.5 0.5 h 0.5 0.5 v 1 1 H 26.5 26 v 0.5 0.5 h -2 -2 v 1 1 h -1 -1 z m 5,-1 V 23 H 23.5 22 v 1 1 h 1.5 1.5 z" />
			<path d="M 29,22.5 V 22 h 2.5 2.5 v 0.5 0.5 h 0.5 0.5 v 1 1 H 32.5 30 v 0.5 0.5 h 2 2 V 26.5 27 H 31.5 29 V 26.5 26 H 28.5 28 V 24.5 23 h 0.5 0.5 z m 4,1 V 23 H 31.5 30 v 0.5 0.5 h 1.5 1.5 z" />
			<path d="M 37,22.5 V 22 h 3 3 V 22.5 23 H 40.5 38 V 24.5 26 H 40.5 43 V 26.5 27 H 40 37 V 26.5 26 H 36.5 36 V 24.5 23 h 0.5 0.5 z" />
			<path d="m 47,21 v -1 h 1 1 v 1 1 h 1 1 v 0.5 0.5 h -1 -1 v 2 2 H 48 47 V 25 23 H 46 45 V 22.5 22 h 1 1 z" />
			<path d="M 53,22.5 V 22 h 2.5 2.5 v 0.5 0.5 h 0.5 0.5 v 2 2 H 56 53 V 26.5 26 H 52.5 52 V 25.5 25 H 52.5 53 V 24.5 24 h 2 2 V 23.5 23 h -2 -2 z m 4,3 V 25 H 55.5 54 v 0.5 0.5 h 1.5 1.5 z" />
			<path d="m 63,21 v -1 h 1 1 v 1 1 h 1 1 v 0.5 0.5 h -1 -1 v 2 2 H 64 63 V 25 23 H 62 61 V 22.5 22 h 1 1 z" />
			<path d="M 70,22.5 V 22 h 1.5 1.5 v 2 2 h 1 1 V 26.5 27 H 72 69 V 26.5 26 h 1 1 V 24.5 23 H 70.5 70 Z m 1,-2 V 20 h 1 1 v 0.5 0.5 h -1 -1 z" />
			<path d="M 77,22.5 V 22 H 79.5 82 V 22.5 23 H 82.5 83 V 24.5 26 H 82.5 82 V 26.5 27 H 79.5 77 V 26.5 26 H 76.5 76 V 24.5 23 h 0.5 0.5 z m 4,2 V 23 H 79.5 78 v 1.5 1.5 h 1.5 1.5 z" />
			<path d="M 84,24.5 V 22 h 3 3 v 0.5 0.5 h 0.5 0.5 v 2 2 H 90 89 V 25 23 H 87.5 86 v 2 2 h -1 -1 z" />
		</g>
		<g aria-label="Failed" style="font-size:8px;font-family:'Press Start 2P';-inkscape-font-specification:'Press Start 2P, Normal';fill:#ff0000;stroke-linejoin:round">
			<path d="M 4,31.5 V 28 H 7.5 11 V 28.5 29 H 8.5 6 v 1 1 h 2 2 V 31.5 32 H 8 6 V 33.5 35 H 5 4 Z" />
			<path d="M 13,30.5 V 30 h 2.5 2.5 v 0.5 0.5 h 0.5 0.5 v 2 2 H 16 13 V 34.5 34 H 12.5 12 V 33.5 33 H 12.5 13 V 32.5 32 h 2 2 V 31.5 31 h -2 -2 z m 4,3 V 33 H 15.5 14 v 0.5 0.5 h 1.5 1.5 z" />
			<path d="M 22,30.5 V 30 h 1.5 1.5 v 2 2 h 1 1 V 34.5 35 H 24 21 V 34.5 34 h 1 1 V 32.5 31 H 22.5 22 Z m 1,-2 V 28 h 1 1 v 0.5 0.5 h -1 -1 z" />
			<path d="M 30,28.5 V 28 h 1.5 1.5 v 3 3 h 1 1 V 34.5 35 H 32 29 V 34.5 34 h 1 1 V 31.5 29 H 30.5 30 Z" />
			<path d="M 37,30.5 V 30 h 2.5 2.5 v 0.5 0.5 h 0.5 0.5 v 1 1 H 40.5 38 v 0.5 0.5 h 2 2 V 34.5 35 H 39.5 37 V 34.5 34 H 36.5 36 V 32.5 31 h 0.5 0.5 z m 4,1 V 31 H 39.5 38 v 0.5 0.5 h 1.5 1.5 z" />
			<path d="m 49,29 v -1 h 1 1 V 31.5 35 H 48 45 V 34.5 34 H 44.5 44 V 32.5 31 H 44.5 45 V 30.5 30 h 2 2 z m 0,3.5 V 31 H 47.5 46 v 1.5 1.5 h 1.5 1.5 z" />
		</g>
	</g>
</svg>
