<?xml version="1.0" encoding="UTF-8" standalone="no"?>
<svg
	xmlns="http://www.w3.org/2000/svg"
	xmlns:cc="http://creativecommons.org/ns#"
	xmlns:dc="http://purl.org/dc/elements/1.1/"
	xmlns:inkscape="http://www.inkscape.org/namespaces/inkscape"
	xmlns:rdf="http://www.w3.org/1999/02/22-rdf-syntax-ns#"
	xmlns:sodipodi="http://sodipodi.sourceforge.net/DTD/sodipodi-0.dtd"
	xmlns:svg="http://www.w3.org/2000/svg"
	width="112"
	height="40"
	viewBox="0 0 112 40"
	version="1.1"
	inkscape:version="1.2.2 (b0a8486541, 2022-12-01)"
	>
	<title>http_505</title>
	<metadata>
		<rdf:RDF>
			<cc:License rdf:about="http://creativecommons.org/publicdomain/zero/1.0/">
				<cc:permits rdf:resource="http://creativecommons.org/ns#Reproduction" />
				<cc:permits rdf:resource="http://creativecommons.org/ns#Distribution" />
				<cc:permits rdf:resource="http://creativecommons.org/ns#DerivativeWorks" />
			</cc:License>
			<cc:Work rdf:about="">
				<cc:license rdf:resource="http://creativecommons.org/publicdomain/zero/1.0/" />
				<dc:title>http_505</dc:title>
				<dc:creator>
					<cc:Agent>
						<dc:title>zawa-ch.</dc:title>
					</cc:Agent>
				</dc:creator>
			</cc:Work>
		</rdf:RDF>
	</metadata>
	<sodipodi:namedview
		pagecolor="#505050"
		bordercolor="#eeeeee"
		borderopacity="1"
		inkscape:showpageshadow="0"
		inkscape:pageopacity="0"
		inkscape:pagecheckerboard="0"
		inkscape:deskcolor="#505050"
		inkscape:document-units="px"
		showgrid="false"
		>
		<inkscape:grid type="xygrid" originx="0" originy="0" empspacing="8" />
	</sodipodi:namedview>
	<g inkscape:groupmode="layer" style="display:none">
		<text xml:space="preserve" style="font-style:normal;font-variant:normal;font-weight:normal;font-stretch:normal;font-size:16px;font-family:'Press Start 2P';-inkscape-font-specification:'Press Start 2P, Normal';font-variant-ligatures:normal;font-variant-caps:normal;font-variant-numeric:normal;font-variant-east-asian:normal;text-align:start;text-anchor:start;fill:#ff00ff;fill-opacity:1;stroke-linejoin:round" x="4" y="20"><tspan sodipodi:role="line" x="4" y="20">505</tspan></text>
		<text xml:space="preserve" style="font-style:normal;font-variant:normal;font-weight:normal;font-stretch:normal;font-size:8px;font-family:'Press Start 2P';-inkscape-font-specification:'Press Start 2P, Normal';font-variant-ligatures:normal;font-variant-caps:normal;font-variant-numeric:normal;font-variant-east-asian:normal;text-align:start;text-anchor:start;fill:#ff00ff;fill-opacity:1;stroke-linejoin:round" x="4" y="36"><tspan sodipodi:role="line" x="4" y="36">Not Supported</tspan></text>
		<text xml:space="preserve" style="font-style:normal;font-variant:normal;font-weight:normal;font-stretch:normal;font-size:8px;font-family:'Press Start 2P';-inkscape-font-specification:'Press Start 2P, Normal';font-variant-ligatures:normal;font-variant-caps:normal;font-variant-numeric:normal;font-variant-east-asian:normal;fill:#ff00ff;fill-opacity:1;stroke-linejoin:round" x="4" y="28"><tspan sodipodi:role="line" x="4" y="28">HTTP Version</tspan></text>
	</g>
	<g inkscape:groupmode="layer" inkscape:label="Outline">
		<g aria-label="505" style="font-size:16px;font-family:'Press Start 2P';-inkscape-font-specification:'Press Start 2P, Normal';fill:#ff00ff;stroke-linejoin:round">
			<path d="M 4,7 V 4 h 6 6 V 5 6 H 12 8 v 1 1 h 4 4 v 1 1 h 1 1 v 3 3 h -1 -1 v 1 1 H 11 6 V 17 16 H 5 4 v -1 -1 h 2 2 v 1 1 h 3 3 V 13 10 H 9 4 Z" />
			<path d="M 24,5 V 4 h 3 3 v 1 1 h 1 1 v 1 1 h 1 1 v 3 3 h -1 -1 v 1 1 h -1 -1 v 1 1 H 27 24 V 17 16 H 23 22 V 15 14 H 21 20 V 11 8 h 1 1 V 7 6 h 1 1 z m 4,2 V 6 h -2 -2 v 4 4 h 1 1 v 1 1 h 2 2 V 12 8 h -1 -1 z" />
			<path d="M 36,7 V 4 h 6 6 v 1 1 h -4 -4 v 1 1 h 4 4 v 1 1 h 1 1 v 3 3 h -1 -1 v 1 1 h -5 -5 v -1 -1 h -1 -1 v -1 -1 h 2 2 v 1 1 h 3 3 v -3 -3 h -5 -5 z" />
		</g>
		<g aria-label="Not Supported" style="font-size:8px;font-family:'Press Start 2P';-inkscape-font-specification:'Press Start 2P, Normal';fill:#ff00ff;stroke-linejoin:round">
			<path d="M 4,31.5 V 28 H 5 6 V 28.5 29 H 6.5 7 V 29.5 30 H 7.5 8 V 30.5 31 H 8.5 9 V 29.5 28 h 1 1 V 31.5 35 H 10 9 V 34.5 34 H 8.5 8 V 33.5 33 H 7.5 7 V 32.5 32 H 6.5 6 V 33.5 35 H 5 4 Z" />
			<path d="M 13,30.5 V 30 H 15.5 18 V 30.5 31 H 18.5 19 V 32.5 34 H 18.5 18 V 34.5 35 H 15.5 13 V 34.5 34 H 12.5 12 V 32.5 31 h 0.5 0.5 z m 4,2 V 31 H 15.5 14 v 1.5 1.5 h 1.5 1.5 z" />
			<path d="m 23,29 v -1 h 1 1 v 1 1 h 1 1 v 0.5 0.5 h -1 -1 v 2 2 H 24 23 V 33 31 H 22 21 V 30.5 30 h 1 1 z" />
			<path d="M 37,28.5 V 28 h 2 2 V 28.5 29 H 41.5 42 V 29.5 30 H 41 40 V 29.5 29 h -1 -1 v 1 1 h 2 2 v 0.5 0.5 h 0.5 0.5 v 1 1 H 42.5 42 V 34.5 35 H 39.5 37 V 34.5 34 H 36.5 36 V 33.5 33 h 1 1 V 33.5 34 H 39.5 41 V 33 32 H 39 37 V 31.5 31 H 36.5 36 v -1 -1 h 0.5 0.5 z" />
			<path d="m 44,32 v -2 h 1 1 v 2 2 h 1.5 1.5 v -2 -2 h 1 1 V 32.5 35 H 48 45 V 34.5 34 H 44.5 44 Z" />
			<path d="m 52,33 v -3 h 3 3 v 0.5 0.5 h 0.5 0.5 v 1 1 H 58.5 58 v 0.5 0.5 h -2 -2 v 1 1 h -1 -1 z m 5,-1 V 31 H 55.5 54 v 1 1 h 1.5 1.5 z" />
			<path d="m 60,33 v -3 h 3 3 v 0.5 0.5 h 0.5 0.5 v 1 1 H 66.5 66 v 0.5 0.5 h -2 -2 v 1 1 h -1 -1 z m 5,-1 V 31 H 63.5 62 v 1 1 h 1.5 1.5 z" />
			<path d="M 69,30.5 V 30 H 71.5 74 V 30.5 31 H 74.5 75 V 32.5 34 H 74.5 74 V 34.5 35 H 71.5 69 V 34.5 34 H 68.5 68 V 32.5 31 h 0.5 0.5 z m 4,2 V 31 H 71.5 70 v 1.5 1.5 h 1.5 1.5 z" />
			<path d="M 77,32.5 V 30 h 1 1 V 30.5 31 H 79.5 80 V 30.5 30 H 81.5 83 V 30.5 31 H 81.5 80 V 31.5 32 H 79.5 79 v 1.5 1.5 h -1 -1 z" />
			<path d="m 87,29 v -1 h 1 1 v 1 1 h 1 1 v 0.5 0.5 h -1 -1 v 2 2 H 88 87 V 33 31 H 86 85 V 30.5 30 h 1 1 z" />
			<path d="M 93,30.5 V 30 h 2.5 2.5 v 0.5 0.5 h 0.5 0.5 v 1 1 H 96.5 94 v 0.5 0.5 h 2 2 V 34.5 35 H 95.5 93 V 34.5 34 H 92.5 92 V 32.5 31 h 0.5 0.5 z m 4,1 V 31 H 95.5 94 v 0.5 0.5 h 1.5 1.5 z" />
			<path d="m 105,29 v -1 h 1 1 v 3.5 3.5 h -3 -3 V 34.5 34 H 100.5 100 V 32.5 31 h 0.5 0.5 V 30.5 30 h 2 2 z m 0,3.5 V 31 h -1.5 -1.5 v 1.5 1.5 h 1.5 1.5 z" />
		</g>
		<g aria-label="HTTP Version" style="font-size:8px;font-family:'Press Start 2P';-inkscape-font-specification:'Press Start 2P, Normal';fill:#ff00ff;stroke-linejoin:round">
			<path d="M 4,23.5 V 20 H 5 6 V 21.5 23 H 7.5 9 V 21.5 20 h 1 1 V 23.5 27 H 10 9 V 25.5 24 H 7.5 6 V 25.5 27 H 5 4 Z" />
			<path d="M 13,20.5 V 20 h 3 3 v 0.5 0.5 h -1 -1 v 3 3 h -1 -1 v -3 -3 h -1 -1 z" />
			<path d="M 21,20.5 V 20 h 3 3 v 0.5 0.5 h -1 -1 v 3 3 h -1 -1 v -3 -3 h -1 -1 z" />
			<path d="M 28,23.5 V 20 h 3 3 V 20.5 21 H 34.5 35 V 22.5 24 H 34.5 34 v 0.5 0.5 h -2 -2 v 1 1 h -1 -1 z m 5,-1 V 21 H 31.5 30 v 1.5 1.5 h 1.5 1.5 z" />
			<path d="m 44,22 v -2 h 1 1 V 21.5 23 H 46.5 47 V 23.5 24 H 47.5 48 V 23.5 23 H 48.5 49 V 21.5 20 h 1 1 v 2 2 H 50.5 50 V 24.5 25 H 49.5 49 V 25.5 26 H 48.5 48 V 26.5 27 H 47.5 47 V 26.5 26 H 46.5 46 V 25.5 25 H 45.5 45 V 24.5 24 H 44.5 44 Z" />
			<path d="M 53,22.5 V 22 h 2.5 2.5 v 0.5 0.5 h 0.5 0.5 v 1 1 H 56.5 54 v 0.5 0.5 h 2 2 V 26.5 27 H 55.5 53 V 26.5 26 H 52.5 52 V 24.5 23 h 0.5 0.5 z m 4,1 V 23 H 55.5 54 v 0.5 0.5 h 1.5 1.5 z" />
			<path d="M 61,24.5 V 22 h 1 1 V 22.5 23 H 63.5 64 V 22.5 22 H 65.5 67 V 22.5 23 H 65.5 64 V 23.5 24 H 63.5 63 v 1.5 1.5 h -1 -1 z" />
			<path d="M 69,22.5 V 22 h 2.5 2.5 v 0.5 0.5 h -2 -2 v 0.5 0.5 h 2 2 V 24.5 25 H 74.5 75 V 25.5 26 H 74.5 74 V 26.5 27 H 71 68 V 26.5 26 H 70.5 73 V 25.5 25 H 71 69 V 24.5 24 H 68.5 68 V 23.5 23 h 0.5 0.5 z" />
			<path d="M 78,22.5 V 22 h 1.5 1.5 v 2 2 h 1 1 V 26.5 27 H 80 77 V 26.5 26 h 1 1 V 24.5 23 H 78.5 78 Z m 1,-2 V 20 h 1 1 v 0.5 0.5 h -1 -1 z" />
			<path d="M 85,22.5 V 22 H 87.5 90 V 22.5 23 H 90.5 91 V 24.5 26 H 90.5 90 V 26.5 27 H 87.5 85 V 26.5 26 H 84.5 84 V 24.5 23 h 0.5 0.5 z m 4,2 V 23 H 87.5 86 v 1.5 1.5 h 1.5 1.5 z" />
			<path d="M 92,24.5 V 22 h 3 3 v 0.5 0.5 h 0.5 0.5 v 2 2 H 98 97 V 25 23 H 95.5 94 v 2 2 h -1 -1 z" />
		</g>
	</g>
</svg>
