<?xml version="1.0" encoding="UTF-8" standalone="no"?>
<svg
	xmlns="http://www.w3.org/2000/svg"
	xmlns:inkscape="http://www.inkscape.org/namespaces/inkscape"
	xmlns:sodipodi="http://sodipodi.sourceforge.net/DTD/sodipodi-0.dtd"
	xmlns:svg="http://www.w3.org/2000/svg"
	width="104"
	height="40"
	viewBox="0 0 104 40"
	version="1.1"
	inkscape:version="1.2.2 (b0a8486541, 2022-12-01)"
	>
	<sodipodi:namedview
		pagecolor="#505050"
		bordercolor="#eeeeee"
		borderopacity="1"
		inkscape:showpageshadow="0"
		inkscape:pageopacity="0"
		inkscape:pagecheckerboard="0"
		inkscape:deskcolor="#505050"
		inkscape:document-units="px"
		showgrid="false"
		>
		<inkscape:grid type="xygrid" originx="0" originy="0" empspacing="8" />
	</sodipodi:namedview>
	<g inkscape:groupmode="layer" style="display:none">
		<text xml:space="preserve" style="font-style:normal;font-variant:normal;font-weight:normal;font-stretch:normal;font-size:16px;font-family:'Press Start 2P';-inkscape-font-specification:'Press Start 2P, Normal';font-variant-ligatures:normal;font-variant-caps:normal;font-variant-numeric:normal;font-variant-east-asian:normal;text-align:start;text-anchor:start;fill:#ff00ff;fill-opacity:1;stroke-linejoin:round" x="4" y="20"><tspan sodipodi:role="line" x="4" y="20">507</tspan></text>
		<text xml:space="preserve" style="font-style:normal;font-variant:normal;font-weight:normal;font-stretch:normal;font-size:8px;font-family:'Press Start 2P';-inkscape-font-specification:'Press Start 2P, Normal';font-variant-ligatures:normal;font-variant-caps:normal;font-variant-numeric:normal;font-variant-east-asian:normal;text-align:start;text-anchor:start;fill:#ff00ff;fill-opacity:1;stroke-linejoin:round" x="4" y="36"><tspan sodipodi:role="line" x="4" y="36">Storage</tspan></text>
		<text xml:space="preserve" style="font-style:normal;font-variant:normal;font-weight:normal;font-stretch:normal;font-size:8px;font-family:'Press Start 2P';-inkscape-font-specification:'Press Start 2P, Normal';font-variant-ligatures:normal;font-variant-caps:normal;font-variant-numeric:normal;font-variant-east-asian:normal;fill:#ff00ff;fill-opacity:1;stroke-linejoin:round" x="4" y="28"><tspan sodipodi:role="line" x="4" y="28">Insufficient</tspan></text>
	</g>
	<g inkscape:groupmode="layer" inkscape:label="Outline">
		<g aria-label="507" style="font-size:16px;font-family:'Press Start 2P';-inkscape-font-specification:'Press Start 2P, Normal';fill:#ff00ff;stroke-linejoin:round">
			<path d="M 4,7 V 4 h 6 6 V 5 6 H 12 8 v 1 1 h 4 4 v 1 1 h 1 1 v 3 3 h -1 -1 v 1 1 H 11 6 V 17 16 H 5 4 v -1 -1 h 2 2 v 1 1 h 3 3 V 13 10 H 9 4 Z" />
			<path d="M 24,5 V 4 h 3 3 v 1 1 h 1 1 v 1 1 h 1 1 v 3 3 h -1 -1 v 1 1 h -1 -1 v 1 1 H 27 24 V 17 16 H 23 22 V 15 14 H 21 20 V 11 8 h 1 1 V 7 6 h 1 1 z m 4,2 V 6 h -2 -2 v 4 4 h 1 1 v 1 1 h 2 2 V 12 8 h -1 -1 z" />
			<path d="M 36,6 V 4 h 7 7 v 2 2 h -1 -1 v 1 1 h -1 -1 v 1 1 h -1 -1 v 3 3 h -2 -2 v -3 -3 h 1 1 v -1 -1 h 1 1 V 9 8 h 1 1 V 7 6 h -3 -3 v 1 1 h -2 -2 z" />
		</g>
		<g aria-label="Storage" style="font-size:8px;font-family:'Press Start 2P';-inkscape-font-specification:'Press Start 2P, Normal';fill:#ff00ff;stroke-linejoin:round">
			<path d="M 5,28.5 V 28 H 7 9 V 28.5 29 H 9.5 10 V 29.5 30 H 9 8 V 29.5 29 H 7 6 v 1 1 h 2 2 v 0.5 0.5 h 0.5 0.5 v 1 1 H 10.5 10 V 34.5 35 H 7.5 5 V 34.5 34 H 4.5 4 V 33.5 33 H 5 6 V 33.5 34 H 7.5 9 V 33 32 H 7 5 V 31.5 31 H 4.5 4 V 30 29 H 4.5 5 Z" />
			<path d="m 15,29 v -1 h 1 1 v 1 1 h 1 1 v 0.5 0.5 h -1 -1 v 2 2 H 16 15 V 33 31 H 14 13 V 30.5 30 h 1 1 z" />
			<path d="M 21,30.5 V 30 H 23.5 26 V 30.5 31 H 26.5 27 V 32.5 34 H 26.5 26 V 34.5 35 H 23.5 21 V 34.5 34 H 20.5 20 V 32.5 31 h 0.5 0.5 z m 4,2 V 31 H 23.5 22 v 1.5 1.5 h 1.5 1.5 z" />
			<path d="M 29,32.5 V 30 h 1 1 V 30.5 31 H 31.5 32 V 30.5 30 H 33.5 35 V 30.5 31 H 33.5 32 V 31.5 32 H 31.5 31 v 1.5 1.5 h -1 -1 z" />
			<path d="M 37,30.5 V 30 h 2.5 2.5 v 0.5 0.5 h 0.5 0.5 v 2 2 H 40 37 V 34.5 34 H 36.5 36 V 33.5 33 H 36.5 37 V 32.5 32 h 2 2 V 31.5 31 h -2 -2 z m 4,3 V 33 H 39.5 38 v 0.5 0.5 h 1.5 1.5 z" />
			<path d="M 45,30.5 V 30 h 3 3 V 32.5 35 H 50.5 50 V 35.5 36 H 47.5 45 V 35.5 35 h 2 2 V 34.5 34 H 47 45 V 33.5 33 H 44.5 44 V 32 31 H 44.5 45 Z M 49,32 V 31 H 47.5 46 v 1 1 h 1.5 1.5 z" />
			<path d="M 53,30.5 V 30 h 2.5 2.5 v 0.5 0.5 h 0.5 0.5 v 1 1 H 56.5 54 v 0.5 0.5 h 2 2 V 34.5 35 H 55.5 53 V 34.5 34 H 52.5 52 V 32.5 31 h 0.5 0.5 z m 4,1 V 31 H 55.5 54 v 0.5 0.5 h 1.5 1.5 z" />
		</g>
		<g aria-label="Insufficient" style="font-size:8px;font-family:'Press Start 2P';-inkscape-font-specification:'Press Start 2P, Normal';fill:#ff00ff;stroke-linejoin:round">
			<path d="M 5,20.5 V 20 h 3 3 V 20.5 21 H 10 9 v 2.5 2.5 h 1 1 V 26.5 27 H 8 5 V 26.5 26 H 6 7 V 23.5 21 H 6 5 Z" />
			<path d="M 12,24.5 V 22 h 3 3 v 0.5 0.5 h 0.5 0.5 v 2 2 H 18 17 V 25 23 H 15.5 14 v 2 2 h -1 -1 z" />
			<path d="M 21,22.5 V 22 h 2.5 2.5 v 0.5 0.5 h -2 -2 v 0.5 0.5 h 2 2 V 24.5 25 H 26.5 27 V 25.5 26 H 26.5 26 V 26.5 27 H 23 20 V 26.5 26 H 22.5 25 V 25.5 25 H 23 21 V 24.5 24 H 20.5 20 V 23.5 23 h 0.5 0.5 z" />
			<path d="m 28,24 v -2 h 1 1 v 2 2 h 1.5 1.5 v -2 -2 h 1 1 V 24.5 27 H 32 29 V 26.5 26 H 28.5 28 Z" />
			<path d="M 40,20.5 V 20 h 1.5 1.5 v 0.5 0.5 h -1 -1 v 0.5 0.5 h 1 1 v 0.5 0.5 h -1 -1 v 2 2 H 40 39 V 25 23 H 38 37 V 22.5 22 h 1 1 V 21.5 21 h 0.5 0.5 z" />
			<path d="M 48,20.5 V 20 h 1.5 1.5 v 0.5 0.5 h -1 -1 v 0.5 0.5 h 1 1 v 0.5 0.5 h -1 -1 v 2 2 H 48 47 V 25 23 H 46 45 V 22.5 22 h 1 1 V 21.5 21 h 0.5 0.5 z" />
			<path d="M 54,22.5 V 22 h 1.5 1.5 v 2 2 h 1 1 V 26.5 27 H 56 53 V 26.5 26 h 1 1 V 24.5 23 H 54.5 54 Z m 1,-2 V 20 h 1 1 v 0.5 0.5 h -1 -1 z" />
			<path d="M 61,22.5 V 22 h 3 3 V 22.5 23 H 64.5 62 V 24.5 26 H 64.5 67 V 26.5 27 H 64 61 V 26.5 26 H 60.5 60 V 24.5 23 h 0.5 0.5 z" />
			<path d="M 70,22.5 V 22 h 1.5 1.5 v 2 2 h 1 1 V 26.5 27 H 72 69 V 26.5 26 h 1 1 V 24.5 23 H 70.5 70 Z m 1,-2 V 20 h 1 1 v 0.5 0.5 h -1 -1 z" />
			<path d="M 77,22.5 V 22 h 2.5 2.5 v 0.5 0.5 h 0.5 0.5 v 1 1 H 80.5 78 v 0.5 0.5 h 2 2 V 26.5 27 H 79.5 77 V 26.5 26 H 76.5 76 V 24.5 23 h 0.5 0.5 z m 4,1 V 23 H 79.5 78 v 0.5 0.5 h 1.5 1.5 z" />
			<path d="M 84,24.5 V 22 h 3 3 v 0.5 0.5 h 0.5 0.5 v 2 2 H 90 89 V 25 23 H 87.5 86 v 2 2 h -1 -1 z" />
			<path d="m 95,21 v -1 h 1 1 v 1 1 h 1 1 v 0.5 0.5 h -1 -1 v 2 2 H 96 95 V 25 23 H 94 93 V 22.5 22 h 1 1 z" />
		</g>
	</g>
</svg>
