<?xml version="1.0" encoding="UTF-8" standalone="no"?>
<svg
	xmlns="http://www.w3.org/2000/svg"
	xmlns:inkscape="http://www.inkscape.org/namespaces/inkscape"
	xmlns:sodipodi="http://sodipodi.sourceforge.net/DTD/sodipodi-0.dtd"
	xmlns:svg="http://www.w3.org/2000/svg"
	width="80"
	height="40"
	viewBox="0 0 80 40"
	version="1.1"
	inkscape:version="1.2.2 (b0a8486541, 2022-12-01)"
	>
	<sodipodi:namedview
		id="namedview7"
		pagecolor="#505050"
		bordercolor="#eeeeee"
		borderopacity="1"
		inkscape:showpageshadow="0"
		inkscape:pageopacity="0"
		inkscape:pagecheckerboard="0"
		inkscape:deskcolor="#505050"
		inkscape:document-units="px"
		showgrid="false"
		>
		<inkscape:grid type="xygrid" originx="0" originy="0" empspacing="8" />
	</sodipodi:namedview>
	<g inkscape:groupmode="layer" style="display:none">
		<text xml:space="preserve" style="font-style:normal;font-variant:normal;font-weight:normal;font-stretch:normal;font-size:16px;font-family:'Press Start 2P';-inkscape-font-specification:'Press Start 2P, Normal';font-variant-ligatures:normal;font-variant-caps:normal;font-variant-numeric:normal;font-variant-east-asian:normal;text-align:start;text-anchor:start;fill:#ff0000;fill-opacity:1;stroke-linejoin:round" x="4" y="20"><tspan sodipodi:role="line" x="4" y="20">413</tspan></text>
		<text xml:space="preserve" style="font-style:normal;font-variant:normal;font-weight:normal;font-stretch:normal;font-size:8px;font-family:'Press Start 2P';-inkscape-font-specification:'Press Start 2P, Normal';font-variant-ligatures:normal;font-variant-caps:normal;font-variant-numeric:normal;font-variant-east-asian:normal;text-align:start;text-anchor:start;fill:#ff0000;fill-opacity:1;stroke-linejoin:round" x="4" y="28"><tspan sodipodi:role="line" x="4" y="28">Payload</tspan></text>
		<text xml:space="preserve" style="font-style:normal;font-variant:normal;font-weight:normal;font-stretch:normal;font-size:8px;font-family:'Press Start 2P';-inkscape-font-specification:'Press Start 2P, Normal';font-variant-ligatures:normal;font-variant-caps:normal;font-variant-numeric:normal;font-variant-east-asian:normal;fill:#ff0000;fill-opacity:1;stroke-linejoin:round" x="4" y="36"><tspan sodipodi:role="line" x="4" y="36">Too Large</tspan></text>
	</g>
	<g inkscape:groupmode="layer" inkscape:label="Outline">
		<g aria-label="413" style="font-size:16px;font-family:'Press Start 2P';-inkscape-font-specification:'Press Start 2P, Normal';fill:#ff0000;stroke-linejoin:round">
			<path d="M 10,5 V 4 h 3 3 v 4 4 h 1 1 v 1 1 h -1 -1 v 2 2 H 14 12 V 16 14 H 8 4 V 12 10 H 5 6 V 9 8 H 7 8 V 7 6 h 1 1 z m 2,5 V 8 h -1 -1 v 1 1 H 9 8 v 1 1 h 2 2 z" />
			<path d="M 26,5 V 4 h 2 2 v 6 6 h 2 2 v 1 1 h -6 -6 v -1 -1 h 2 2 V 12 8 H 25 24 V 7 6 h 1 1 z" />
			<path d="M 38,5 V 4 h 6 6 v 1 1 h -1 -1 v 1 1 h -1 -1 v 1 1 h 1 1 v 1 1 h 1 1 v 2 2 h -1 -1 v 1 1 h -5 -5 v -1 -1 h -1 -1 v -1 -1 h 2 2 v 1 1 h 3 3 v -2 -2 h -3 -3 v -1 -1 h 1 1 V 9 8 h 1 1 V 7 6 h -3 -3 z" />
		</g>
		<g aria-label="Payload" style="font-size:8px;font-family:'Press Start 2P';-inkscape-font-specification:'Press Start 2P, Normal';fill:#ff0000;stroke-linejoin:round">
			<path d="M 4,23.5 V 20 h 3 3 V 20.5 21 H 10.5 11 V 22.5 24 H 10.5 10 V 24.5 25 H 8 6 v 1 1 H 5 4 Z m 5,-1 V 21 H 7.5 6 V 22.5 24 H 7.5 9 Z" />
			<path d="M 13,22.5 V 22 h 2.5 2.5 v 0.5 0.5 h 0.5 0.5 v 2 2 H 16 13 V 26.5 26 H 12.5 12 V 25.5 25 H 12.5 13 V 24.5 24 h 2 2 V 23.5 23 h -2 -2 z m 4,3 V 25 H 15.5 14 v 0.5 0.5 h 1.5 1.5 z" />
			<path d="M 20,23.5 V 22 h 1 1 V 23.5 25 H 23.5 25 V 23.5 22 h 1 1 V 24.5 27 H 26.5 26 V 27.5 28 H 23.5 21 V 27.5 27 h 2 2 V 26.5 26 H 23 21 V 25.5 25 H 20.5 20 Z" />
			<path d="M 30,20.5 V 20 h 1.5 1.5 v 3 3 h 1 1 V 26.5 27 H 32 29 V 26.5 26 h 1 1 V 23.5 21 H 30.5 30 Z" />
			<path d="M 37,22.5 V 22 H 39.5 42 V 22.5 23 H 42.5 43 V 24.5 26 H 42.5 42 V 26.5 27 H 39.5 37 V 26.5 26 H 36.5 36 V 24.5 23 h 0.5 0.5 z m 4,2 V 23 H 39.5 38 v 1.5 1.5 h 1.5 1.5 z" />
			<path d="M 45,22.5 V 22 h 2.5 2.5 v 0.5 0.5 h 0.5 0.5 v 2 2 H 48 45 V 26.5 26 H 44.5 44 V 25.5 25 H 44.5 45 V 24.5 24 h 2 2 V 23.5 23 h -2 -2 z m 4,3 V 25 H 47.5 46 v 0.5 0.5 h 1.5 1.5 z" />
			<path d="m 57,21 v -1 h 1 1 V 23.5 27 H 56 53 V 26.5 26 H 52.5 52 V 24.5 23 H 52.5 53 V 22.5 22 h 2 2 z m 0,3.5 V 23 H 55.5 54 v 1.5 1.5 h 1.5 1.5 z" />
		</g>
		<g aria-label="Too Large" style="font-size:8px;font-family:'Press Start 2P';-inkscape-font-specification:'Press Start 2P, Normal';fill:#ff0000;stroke-linejoin:round">
			<path d="M 5,28.5 V 28 h 3 3 V 28.5 29 H 10 9 v 3 3 H 8 7 V 32 29 H 6 5 Z" />
			<path d="M 13,30.5 V 30 H 15.5 18 V 30.5 31 H 18.5 19 V 32.5 34 H 18.5 18 V 34.5 35 H 15.5 13 V 34.5 34 H 12.5 12 V 32.5 31 h 0.5 0.5 z m 4,2 V 31 H 15.5 14 v 1.5 1.5 h 1.5 1.5 z" />
			<path d="M 21,30.5 V 30 H 23.5 26 V 30.5 31 H 26.5 27 V 32.5 34 H 26.5 26 V 34.5 35 H 23.5 21 V 34.5 34 H 20.5 20 V 32.5 31 h 0.5 0.5 z m 4,2 V 31 H 23.5 22 v 1.5 1.5 h 1.5 1.5 z" />
			<path d="M 37,31.5 V 28 h 1 1 v 3 3 h 2 2 v 0.5 0.5 h -3 -3 z" />
			<path d="M 45,30.5 V 30 h 2.5 2.5 v 0.5 0.5 h 0.5 0.5 v 2 2 H 48 45 V 34.5 34 H 44.5 44 V 33.5 33 H 44.5 45 V 32.5 32 h 2 2 V 31.5 31 h -2 -2 z m 4,3 V 33 H 47.5 46 v 0.5 0.5 h 1.5 1.5 z" />
			<path d="M 53,32.5 V 30 h 1 1 V 30.5 31 H 55.5 56 V 30.5 30 H 57.5 59 V 30.5 31 H 57.5 56 V 31.5 32 H 55.5 55 v 1.5 1.5 h -1 -1 z" />
			<path d="M 61,30.5 V 30 h 3 3 V 32.5 35 H 66.5 66 V 35.5 36 H 63.5 61 V 35.5 35 h 2 2 V 34.5 34 H 63 61 V 33.5 33 H 60.5 60 V 32 31 H 60.5 61 Z M 65,32 V 31 H 63.5 62 v 1 1 h 1.5 1.5 z" />
			<path d="M 69,30.5 V 30 h 2.5 2.5 v 0.5 0.5 h 0.5 0.5 v 1 1 H 72.5 70 v 0.5 0.5 h 2 2 V 34.5 35 H 71.5 69 V 34.5 34 H 68.5 68 V 32.5 31 h 0.5 0.5 z m 4,1 V 31 H 71.5 70 v 0.5 0.5 h 1.5 1.5 z" />
		</g>
	</g>
</svg>
