<?xml version="1.0" encoding="UTF-8" standalone="no"?>
<svg
	xmlns="http://www.w3.org/2000/svg"
	xmlns:inkscape="http://www.inkscape.org/namespaces/inkscape"
	xmlns:sodipodi="http://sodipodi.sourceforge.net/DTD/sodipodi-0.dtd"
	xmlns:svg="http://www.w3.org/2000/svg"
	width="96"
	height="40"
	viewBox="0 0 96 40"
	version="1.1"
	inkscape:version="1.2.2 (b0a8486541, 2022-12-01)"
	>
	<sodipodi:namedview
		id="namedview7"
		pagecolor="#505050"
		bordercolor="#eeeeee"
		borderopacity="1"
		inkscape:showpageshadow="0"
		inkscape:pageopacity="0"
		inkscape:pagecheckerboard="0"
		inkscape:deskcolor="#505050"
		inkscape:document-units="px"
		showgrid="false"
		>
		<inkscape:grid type="xygrid" originx="0" originy="0" empspacing="8" />
	</sodipodi:namedview>
	<g inkscape:groupmode="layer" style="display:none">
		<text xml:space="preserve" style="font-style:normal;font-variant:normal;font-weight:normal;font-stretch:normal;font-size:16px;font-family:'Press Start 2P';-inkscape-font-specification:'Press Start 2P, Normal';font-variant-ligatures:normal;font-variant-caps:normal;font-variant-numeric:normal;font-variant-east-asian:normal;text-align:start;text-anchor:start;fill:#ff0000;fill-opacity:1;stroke-linejoin:round" x="4" y="20"><tspan sodipodi:role="line" x="4" y="20">421</tspan></text>
		<text xml:space="preserve" style="font-style:normal;font-variant:normal;font-weight:normal;font-stretch:normal;font-size:8px;font-family:'Press Start 2P';-inkscape-font-specification:'Press Start 2P, Normal';font-variant-ligatures:normal;font-variant-caps:normal;font-variant-numeric:normal;font-variant-east-asian:normal;text-align:start;text-anchor:start;fill:#ff0000;fill-opacity:1;stroke-linejoin:round" x="4" y="28"><tspan sodipodi:role="line" x="4" y="28">Misdirected</tspan></text>
		<text xml:space="preserve" style="font-style:normal;font-variant:normal;font-weight:normal;font-stretch:normal;font-size:8px;font-family:'Press Start 2P';-inkscape-font-specification:'Press Start 2P, Normal';font-variant-ligatures:normal;font-variant-caps:normal;font-variant-numeric:normal;font-variant-east-asian:normal;fill:#ff0000;fill-opacity:1;stroke-linejoin:round" x="4" y="36"><tspan sodipodi:role="line" x="4" y="36">Request</tspan></text>
	</g>
	<g inkscape:groupmode="layer" inkscape:label="Outline">
		<g aria-label="421" style="font-size:16px;font-family:'Press Start 2P';-inkscape-font-specification:'Press Start 2P, Normal';fill:#ff0000;stroke-linejoin:round">
			<path d="M 10,5 V 4 h 3 3 v 4 4 h 1 1 v 1 1 h -1 -1 v 2 2 H 14 12 V 16 14 H 8 4 V 12 10 H 5 6 V 9 8 H 7 8 V 7 6 h 1 1 z m 2,5 V 8 h -1 -1 v 1 1 H 9 8 v 1 1 h 2 2 z" />
			<path d="M 22,5 V 4 h 5 5 v 1 1 h 1 1 v 2 2 h -1 -1 v 1 1 h -1 -1 v 1 1 h -2 -2 v 1 1 h 4 4 v 1 1 h -7 -7 v -2 -2 h 1 1 v -1 -1 h 1 1 v -1 -1 h 2 2 V 9 8 h 1 1 V 7 6 H 27 24 V 7 8 H 22 20 V 7 6 h 1 1 z" />
			<path d="M 42,5 V 4 h 2 2 v 6 6 h 2 2 v 1 1 h -6 -6 v -1 -1 h 2 2 V 12 8 H 41 40 V 7 6 h 1 1 z" />
		</g>
		<g aria-label="Misdirected" style="font-size:8px;font-family:'Press Start 2P';-inkscape-font-specification:'Press Start 2P, Normal';fill:#ff0000;stroke-linejoin:round">
			<path d="M 4,23.5 V 20 H 5 6 V 20.5 21 H 6.5 7 V 21.5 22 H 7.5 8 V 21.5 21 H 8.5 9 V 20.5 20 h 1 1 V 23.5 27 H 10 9 V 25.5 24 H 8.5 8 V 24.5 25 H 7.5 7 V 24.5 24 H 6.5 6 V 25.5 27 H 5 4 Z" />
			<path d="M 14,22.5 V 22 h 1.5 1.5 v 2 2 h 1 1 V 26.5 27 H 16 13 V 26.5 26 h 1 1 V 24.5 23 H 14.5 14 Z m 1,-2 V 20 h 1 1 v 0.5 0.5 h -1 -1 z" />
			<path d="M 21,22.5 V 22 h 2.5 2.5 v 0.5 0.5 h -2 -2 v 0.5 0.5 h 2 2 V 24.5 25 H 26.5 27 V 25.5 26 H 26.5 26 V 26.5 27 H 23 20 V 26.5 26 H 22.5 25 V 25.5 25 H 23 21 V 24.5 24 H 20.5 20 V 23.5 23 h 0.5 0.5 z" />
			<path d="m 33,21 v -1 h 1 1 V 23.5 27 H 32 29 V 26.5 26 H 28.5 28 V 24.5 23 H 28.5 29 V 22.5 22 h 2 2 z m 0,3.5 V 23 H 31.5 30 v 1.5 1.5 h 1.5 1.5 z" />
			<path d="M 38,22.5 V 22 h 1.5 1.5 v 2 2 h 1 1 V 26.5 27 H 40 37 V 26.5 26 h 1 1 V 24.5 23 H 38.5 38 Z m 1,-2 V 20 h 1 1 v 0.5 0.5 h -1 -1 z" />
			<path d="M 45,24.5 V 22 h 1 1 V 22.5 23 H 47.5 48 V 22.5 22 H 49.5 51 V 22.5 23 H 49.5 48 V 23.5 24 H 47.5 47 v 1.5 1.5 h -1 -1 z" />
			<path d="M 53,22.5 V 22 h 2.5 2.5 v 0.5 0.5 h 0.5 0.5 v 1 1 H 56.5 54 v 0.5 0.5 h 2 2 V 26.5 27 H 55.5 53 V 26.5 26 H 52.5 52 V 24.5 23 h 0.5 0.5 z m 4,1 V 23 H 55.5 54 v 0.5 0.5 h 1.5 1.5 z" />
			<path d="M 61,22.5 V 22 h 3 3 V 22.5 23 H 64.5 62 V 24.5 26 H 64.5 67 V 26.5 27 H 64 61 V 26.5 26 H 60.5 60 V 24.5 23 h 0.5 0.5 z" />
			<path d="m 71,21 v -1 h 1 1 v 1 1 h 1 1 v 0.5 0.5 h -1 -1 v 2 2 H 72 71 V 25 23 H 70 69 V 22.5 22 h 1 1 z" />
			<path d="M 77,22.5 V 22 h 2.5 2.5 v 0.5 0.5 h 0.5 0.5 v 1 1 H 80.5 78 v 0.5 0.5 h 2 2 V 26.5 27 H 79.5 77 V 26.5 26 H 76.5 76 V 24.5 23 h 0.5 0.5 z m 4,1 V 23 H 79.5 78 v 0.5 0.5 h 1.5 1.5 z" />
			<path d="m 89,21 v -1 h 1 1 V 23.5 27 H 88 85 V 26.5 26 H 84.5 84 V 24.5 23 H 84.5 85 V 22.5 22 h 2 2 z m 0,3.5 V 23 H 87.5 86 v 1.5 1.5 h 1.5 1.5 z" />
		</g>
		<g aria-label="Request" style="font-size:8px;font-family:'Press Start 2P';-inkscape-font-specification:'Press Start 2P, Normal';fill:#ff0000;stroke-linejoin:round">
			<path d="M 4,31.5 V 28 h 3 3 V 28.5 29 H 10.5 11 V 30.5 32 H 10 9 V 32.5 33 H 9.5 10 V 33.5 34 H 10.5 11 V 34.5 35 H 9.5 8 V 34.5 34 H 7.5 7 V 33.5 33 H 6.5 6 v 1 1 H 5 4 Z M 9,30 V 29 H 7.5 6 V 30.5 32 H 7 8 V 31.5 31 H 8.5 9 Z" />
			<path d="M 13,30.5 V 30 h 2.5 2.5 v 0.5 0.5 h 0.5 0.5 v 1 1 H 16.5 14 v 0.5 0.5 h 2 2 V 34.5 35 H 15.5 13 V 34.5 34 H 12.5 12 V 32.5 31 h 0.5 0.5 z m 4,1 V 31 H 15.5 14 v 0.5 0.5 h 1.5 1.5 z" />
			<path d="M 21,30.5 V 30 h 3 3 v 3 3 H 26 25 V 35 34 H 23 21 V 33.5 33 H 20.5 20 V 32 31 H 20.5 21 Z M 25,32 V 31 H 23.5 22 v 1 1 h 1.5 1.5 z" />
			<path d="m 28,32 v -2 h 1 1 v 2 2 h 1.5 1.5 v -2 -2 h 1 1 V 32.5 35 H 32 29 V 34.5 34 H 28.5 28 Z" />
			<path d="M 37,30.5 V 30 h 2.5 2.5 v 0.5 0.5 h 0.5 0.5 v 1 1 H 40.5 38 v 0.5 0.5 h 2 2 V 34.5 35 H 39.5 37 V 34.5 34 H 36.5 36 V 32.5 31 h 0.5 0.5 z m 4,1 V 31 H 39.5 38 v 0.5 0.5 h 1.5 1.5 z" />
			<path d="M 45,30.5 V 30 h 2.5 2.5 v 0.5 0.5 h -2 -2 v 0.5 0.5 h 2 2 V 32.5 33 H 50.5 51 V 33.5 34 H 50.5 50 V 34.5 35 H 47 44 V 34.5 34 H 46.5 49 V 33.5 33 H 47 45 V 32.5 32 H 44.5 44 V 31.5 31 h 0.5 0.5 z" />
			<path d="m 55,29 v -1 h 1 1 v 1 1 h 1 1 v 0.5 0.5 h -1 -1 v 2 2 H 56 55 V 33 31 H 54 53 V 30.5 30 h 1 1 z" />
		</g>
	</g>
</svg>
