<?xml version="1.0" encoding="UTF-8" standalone="no"?>
<svg
	xmlns="http://www.w3.org/2000/svg"
	xmlns:cc="http://creativecommons.org/ns#"
	xmlns:dc="http://purl.org/dc/elements/1.1/"
	xmlns:inkscape="http://www.inkscape.org/namespaces/inkscape"
	xmlns:rdf="http://www.w3.org/1999/02/22-rdf-syntax-ns#"
	xmlns:sodipodi="http://sodipodi.sourceforge.net/DTD/sodipodi-0.dtd"
	xmlns:svg="http://www.w3.org/2000/svg"
	width="80"
	height="40"
	viewBox="0 0 80 40"
	version="1.1"
	inkscape:version="1.2.2 (b0a8486541, 2022-12-01)"
	>
	<title>http_307</title>
	<metadata>
		<rdf:RDF>
			<cc:License rdf:about="http://creativecommons.org/publicdomain/zero/1.0/">
				<cc:permits rdf:resource="http://creativecommons.org/ns#Reproduction" />
				<cc:permits rdf:resource="http://creativecommons.org/ns#Distribution" />
				<cc:permits rdf:resource="http://creativecommons.org/ns#DerivativeWorks" />
			</cc:License>
			<cc:Work rdf:about="">
				<cc:license rdf:resource="http://creativecommons.org/publicdomain/zero/1.0/" />
				<dc:title>http_307</dc:title>
				<dc:creator>
					<cc:Agent>
						<dc:title>zawa-ch.</dc:title>
					</cc:Agent>
				</dc:creator>
			</cc:Work>
		</rdf:RDF>
	</metadata>
	<sodipodi:namedview
		pagecolor="#505050"
		bordercolor="#eeeeee"
		borderopacity="1"
		inkscape:showpageshadow="0"
		inkscape:pageopacity="0"
		inkscape:pagecheckerboard="0"
		inkscape:deskcolor="#505050"
		inkscape:document-units="px"
		showgrid="false"
		>
		<inkscape:grid type="xygrid" originx="0" originy="0" empspacing="8" />
	</sodipodi:namedview>
	<g inkscape:groupmode="layer" style="display:none">
		<text xml:space="preserve" style="font-style:normal;font-variant:normal;font-weight:normal;font-stretch:normal;font-size:16px;font-family:'Press Start 2P';-inkscape-font-specification:'Press Start 2P, Normal';font-variant-ligatures:normal;font-variant-caps:normal;font-variant-numeric:normal;font-variant-east-asian:normal;text-align:start;text-anchor:start;fill:#ffff00;fill-opacity:1;stroke-linejoin:round" x="4" y="20"><tspan sodipodi:role="line" x="4" y="20">307</tspan></text>
		<text xml:space="preserve" style="font-style:normal;font-variant:normal;font-weight:normal;font-stretch:normal;font-size:8px;font-family:'Press Start 2P';-inkscape-font-specification:'Press Start 2P, Normal';font-variant-ligatures:normal;font-variant-caps:normal;font-variant-numeric:normal;font-variant-east-asian:normal;text-align:start;text-anchor:start;fill:#ffff00;fill-opacity:1;stroke-linejoin:round" x="4" y="28"><tspan sodipodi:role="line" x="4" y="28">Temporary</tspan></text>
		<text xml:space="preserve" style="font-style:normal;font-variant:normal;font-weight:normal;font-stretch:normal;font-size:8px;font-family:'Press Start 2P';-inkscape-font-specification:'Press Start 2P, Normal';font-variant-ligatures:normal;font-variant-caps:normal;font-variant-numeric:normal;font-variant-east-asian:normal;fill:#ffff00;fill-opacity:1;stroke-linejoin:round" x="4" y="36"><tspan sodipodi:role="line" x="4" y="36">Redirect</tspan></text>
	</g>
	<g inkscape:groupmode="layer" inkscape:label="Outline">
		<g aria-label="307" style="font-size:16px;font-family:'Press Start 2P';-inkscape-font-specification:'Press Start 2P, Normal';fill:#ffff00;stroke-linejoin:round">
			<path d="M 6,5 V 4 h 6 6 v 1 1 h -1 -1 v 1 1 h -1 -1 v 1 1 h 1 1 v 1 1 h 1 1 v 2 2 h -1 -1 v 1 1 H 11 6 V 17 16 H 5 4 v -1 -1 h 2 2 v 1 1 h 3 3 V 14 12 H 11 8 v -1 -1 h 1 1 V 9 8 h 1 1 V 7 6 H 9 6 Z" />
			<path d="M 24,5 V 4 h 3 3 v 1 1 h 1 1 v 1 1 h 1 1 v 3 3 h -1 -1 v 1 1 h -1 -1 v 1 1 H 27 24 V 17 16 H 23 22 V 15 14 H 21 20 V 11 8 h 1 1 V 7 6 h 1 1 z m 4,2 V 6 h -2 -2 v 4 4 h 1 1 v 1 1 h 2 2 V 12 8 h -1 -1 z" />
			<path d="M 36,6 V 4 h 7 7 v 2 2 h -1 -1 v 1 1 h -1 -1 v 1 1 h -1 -1 v 3 3 h -2 -2 v -3 -3 h 1 1 v -1 -1 h 1 1 V 9 8 h 1 1 V 7 6 h -3 -3 v 1 1 h -2 -2 z" />
		</g>
		<g aria-label="Temporary" style="font-size:8px;font-family:'Press Start 2P';-inkscape-font-specification:'Press Start 2P, Normal';fill:#ffff00;stroke-linejoin:round">
			<path d="M 5,20.5 V 20 h 3 3 V 20.5 21 H 10 9 v 3 3 H 8 7 V 24 21 H 6 5 Z" />
			<path d="M 13,22.5 V 22 h 2.5 2.5 v 0.5 0.5 h 0.5 0.5 v 1 1 H 16.5 14 v 0.5 0.5 h 2 2 V 26.5 27 H 15.5 13 V 26.5 26 H 12.5 12 V 24.5 23 h 0.5 0.5 z m 4,1 V 23 H 15.5 14 v 0.5 0.5 h 1.5 1.5 z" />
			<path d="M 20,24.5 V 22 h 3 3 v 0.5 0.5 h 0.5 0.5 v 2 2 H 26 25 V 25 23 H 24.5 24 v 2 2 H 23 22 V 25 23 H 21.5 21 v 2 2 H 20.5 20 Z" />
			<path d="m 28,25 v -3 h 3 3 v 0.5 0.5 h 0.5 0.5 v 1 1 H 34.5 34 v 0.5 0.5 h -2 -2 v 1 1 h -1 -1 z m 5,-1 V 23 H 31.5 30 v 1 1 h 1.5 1.5 z" />
			<path d="M 37,22.5 V 22 H 39.5 42 V 22.5 23 H 42.5 43 V 24.5 26 H 42.5 42 V 26.5 27 H 39.5 37 V 26.5 26 H 36.5 36 V 24.5 23 h 0.5 0.5 z m 4,2 V 23 H 39.5 38 v 1.5 1.5 h 1.5 1.5 z" />
			<path d="M 45,24.5 V 22 h 1 1 V 22.5 23 H 47.5 48 V 22.5 22 H 49.5 51 V 22.5 23 H 49.5 48 V 23.5 24 H 47.5 47 v 1.5 1.5 h -1 -1 z" />
			<path d="M 53,22.5 V 22 h 2.5 2.5 v 0.5 0.5 h 0.5 0.5 v 2 2 H 56 53 V 26.5 26 H 52.5 52 V 25.5 25 H 52.5 53 V 24.5 24 h 2 2 V 23.5 23 h -2 -2 z m 4,3 V 25 H 55.5 54 v 0.5 0.5 h 1.5 1.5 z" />
			<path d="M 61,24.5 V 22 h 1 1 V 22.5 23 H 63.5 64 V 22.5 22 H 65.5 67 V 22.5 23 H 65.5 64 V 23.5 24 H 63.5 63 v 1.5 1.5 h -1 -1 z" />
			<path d="M 68,23.5 V 22 h 1 1 V 23.5 25 H 71.5 73 V 23.5 22 h 1 1 V 24.5 27 H 74.5 74 V 27.5 28 H 71.5 69 V 27.5 27 h 2 2 V 26.5 26 H 71 69 V 25.5 25 H 68.5 68 Z" />
		</g>
		<g aria-label="Redirect" style="font-size:8px;font-family:'Press Start 2P';-inkscape-font-specification:'Press Start 2P, Normal';fill:#ffff00;stroke-linejoin:round">
			<path d="M 4,31.5 V 28 h 3 3 V 28.5 29 H 10.5 11 V 30.5 32 H 10 9 V 32.5 33 H 9.5 10 V 33.5 34 H 10.5 11 V 34.5 35 H 9.5 8 V 34.5 34 H 7.5 7 V 33.5 33 H 6.5 6 v 1 1 H 5 4 Z M 9,30 V 29 H 7.5 6 V 30.5 32 H 7 8 V 31.5 31 H 8.5 9 Z" />
			<path d="M 13,30.5 V 30 h 2.5 2.5 v 0.5 0.5 h 0.5 0.5 v 1 1 H 16.5 14 v 0.5 0.5 h 2 2 V 34.5 35 H 15.5 13 V 34.5 34 H 12.5 12 V 32.5 31 h 0.5 0.5 z m 4,1 V 31 H 15.5 14 v 0.5 0.5 h 1.5 1.5 z" />
			<path d="m 25,29 v -1 h 1 1 V 31.5 35 H 24 21 V 34.5 34 H 20.5 20 V 32.5 31 H 20.5 21 V 30.5 30 h 2 2 z m 0,3.5 V 31 H 23.5 22 v 1.5 1.5 h 1.5 1.5 z" />
			<path d="M 30,30.5 V 30 h 1.5 1.5 v 2 2 h 1 1 V 34.5 35 H 32 29 V 34.5 34 h 1 1 V 32.5 31 H 30.5 30 Z m 1,-2 V 28 h 1 1 v 0.5 0.5 h -1 -1 z" />
			<path d="M 37,32.5 V 30 h 1 1 V 30.5 31 H 39.5 40 V 30.5 30 H 41.5 43 V 30.5 31 H 41.5 40 V 31.5 32 H 39.5 39 v 1.5 1.5 h -1 -1 z" />
			<path d="M 45,30.5 V 30 h 2.5 2.5 v 0.5 0.5 h 0.5 0.5 v 1 1 H 48.5 46 v 0.5 0.5 h 2 2 V 34.5 35 H 47.5 45 V 34.5 34 H 44.5 44 V 32.5 31 h 0.5 0.5 z m 4,1 V 31 H 47.5 46 v 0.5 0.5 h 1.5 1.5 z" />
			<path d="M 53,30.5 V 30 h 3 3 V 30.5 31 H 56.5 54 V 32.5 34 H 56.5 59 V 34.5 35 H 56 53 V 34.5 34 H 52.5 52 V 32.5 31 h 0.5 0.5 z" />
			<path d="m 63,29 v -1 h 1 1 v 1 1 h 1 1 v 0.5 0.5 h -1 -1 v 2 2 H 64 63 V 33 31 H 62 61 V 30.5 30 h 1 1 z" />
		</g>
	</g>
</svg>
