<?xml version="1.0" encoding="UTF-8" standalone="no"?>
<svg
	xmlns="http://www.w3.org/2000/svg"
	xmlns:cc="http://creativecommons.org/ns#"
	xmlns:dc="http://purl.org/dc/elements/1.1/"
	xmlns:inkscape="http://www.inkscape.org/namespaces/inkscape"
	xmlns:rdf="http://www.w3.org/1999/02/22-rdf-syntax-ns#"
	xmlns:sodipodi="http://sodipodi.sourceforge.net/DTD/sodipodi-0.dtd"
	xmlns:svg="http://www.w3.org/2000/svg"
	width="104"
	height="40"
	viewBox="0 0 104 40"
	version="1.1"
	inkscape:version="1.2.2 (b0a8486541, 2022-12-01)"
	>
	<title>http_506</title>
	<metadata>
		<rdf:RDF>
			<cc:License rdf:about="http://creativecommons.org/publicdomain/zero/1.0/">
				<cc:permits rdf:resource="http://creativecommons.org/ns#Reproduction" />
				<cc:permits rdf:resource="http://creativecommons.org/ns#Distribution" />
				<cc:permits rdf:resource="http://creativecommons.org/ns#DerivativeWorks" />
			</cc:License>
			<cc:Work rdf:about="">
				<cc:license rdf:resource="http://creativecommons.org/publicdomain/zero/1.0/" />
				<dc:title>http_506</dc:title>
				<dc:creator>
					<cc:Agent>
						<dc:title>zawa-ch.</dc:title>
					</cc:Agent>
				</dc:creator>
			</cc:Work>
		</rdf:RDF>
	</metadata>
	<sodipodi:namedview
		pagecolor="#505050"
		bordercolor="#eeeeee"
		borderopacity="1"
		inkscape:showpageshadow="0"
		inkscape:pageopacity="0"
		inkscape:pagecheckerboard="0"
		inkscape:deskcolor="#505050"
		inkscape:document-units="px"
		showgrid="false"
		>
		<inkscape:grid type="xygrid" originx="0" originy="0" empspacing="8" />
	</sodipodi:namedview>
	<g inkscape:groupmode="layer" style="display:none">
		<text xml:space="preserve" style="font-style:normal;font-variant:normal;font-weight:normal;font-stretch:normal;font-size:16px;font-family:'Press Start 2P';-inkscape-font-specification:'Press Start 2P, Normal';font-variant-ligatures:normal;font-variant-caps:normal;font-variant-numeric:normal;font-variant-east-asian:normal;text-align:start;text-anchor:start;fill:#ff00ff;fill-opacity:1;stroke-linejoin:round" x="4" y="20"><tspan sodipodi:role="line" x="4" y="20">506</tspan></text>
		<text xml:space="preserve" style="font-style:normal;font-variant:normal;font-weight:normal;font-stretch:normal;font-size:8px;font-family:'Press Start 2P';-inkscape-font-specification:'Press Start 2P, Normal';font-variant-ligatures:normal;font-variant-caps:normal;font-variant-numeric:normal;font-variant-east-asian:normal;text-align:start;text-anchor:start;fill:#ff00ff;fill-opacity:1;stroke-linejoin:round" x="4" y="36"><tspan sodipodi:role="line" x="4" y="36">Negotiates</tspan></text>
		<text xml:space="preserve" style="font-style:normal;font-variant:normal;font-weight:normal;font-stretch:normal;font-size:8px;font-family:'Press Start 2P';-inkscape-font-specification:'Press Start 2P, Normal';font-variant-ligatures:normal;font-variant-caps:normal;font-variant-numeric:normal;font-variant-east-asian:normal;fill:#ff00ff;fill-opacity:1;stroke-linejoin:round" x="4" y="28"><tspan sodipodi:role="line" x="4" y="28">Variant Also</tspan></text>
	</g>
	<g inkscape:groupmode="layer" inkscape:label="Outline">
		<g aria-label="506" style="font-size:16px;font-family:'Press Start 2P';-inkscape-font-specification:'Press Start 2P, Normal';fill:#ff00ff;stroke-linejoin:round">
			<path d="M 4,7 V 4 h 6 6 V 5 6 H 12 8 v 1 1 h 4 4 v 1 1 h 1 1 v 3 3 h -1 -1 v 1 1 H 11 6 V 17 16 H 5 4 v -1 -1 h 2 2 v 1 1 h 3 3 V 13 10 H 9 4 Z" />
			<path d="M 24,5 V 4 h 3 3 v 1 1 h 1 1 v 1 1 h 1 1 v 3 3 h -1 -1 v 1 1 h -1 -1 v 1 1 H 27 24 V 17 16 H 23 22 V 15 14 H 21 20 V 11 8 h 1 1 V 7 6 h 1 1 z m 4,2 V 6 h -2 -2 v 4 4 h 1 1 v 1 1 h 2 2 V 12 8 h -1 -1 z" />
			<path d="M 40,5 V 4 h 4 4 v 1 1 h -3 -3 v 1 1 h -1 -1 v 1 1 h 4 4 v 1 1 h 1 1 v 2 2 h -1 -1 v 1 1 H 43 38 V 17 16 H 37 36 V 12 8 h 1 1 V 7 6 h 1 1 z m 6,9 v -2 h -3 -3 v 2 2 h 3 3 z" />
		</g>
		<g aria-label="Negotiates" style="font-size:8px;font-family:'Press Start 2P';-inkscape-font-specification:'Press Start 2P, Normal';fill:#ff00ff;stroke-linejoin:round">
			<path d="M 4,31.5 V 28 H 5 6 V 28.5 29 H 6.5 7 V 29.5 30 H 7.5 8 V 30.5 31 H 8.5 9 V 29.5 28 h 1 1 V 31.5 35 H 10 9 V 34.5 34 H 8.5 8 V 33.5 33 H 7.5 7 V 32.5 32 H 6.5 6 V 33.5 35 H 5 4 Z" />
			<path d="M 13,30.5 V 30 h 2.5 2.5 v 0.5 0.5 h 0.5 0.5 v 1 1 H 16.5 14 v 0.5 0.5 h 2 2 V 34.5 35 H 15.5 13 V 34.5 34 H 12.5 12 V 32.5 31 h 0.5 0.5 z m 4,1 V 31 H 15.5 14 v 0.5 0.5 h 1.5 1.5 z" />
			<path d="M 21,30.5 V 30 h 3 3 V 32.5 35 H 26.5 26 V 35.5 36 H 23.5 21 V 35.5 35 h 2 2 V 34.5 34 H 23 21 V 33.5 33 H 20.5 20 V 32 31 H 20.5 21 Z M 25,32 V 31 H 23.5 22 v 1 1 h 1.5 1.5 z" />
			<path d="M 29,30.5 V 30 H 31.5 34 V 30.5 31 H 34.5 35 V 32.5 34 H 34.5 34 V 34.5 35 H 31.5 29 V 34.5 34 H 28.5 28 V 32.5 31 h 0.5 0.5 z m 4,2 V 31 H 31.5 30 v 1.5 1.5 h 1.5 1.5 z" />
			<path d="m 39,29 v -1 h 1 1 v 1 1 h 1 1 v 0.5 0.5 h -1 -1 v 2 2 H 40 39 V 33 31 H 38 37 V 30.5 30 h 1 1 z" />
			<path d="M 46,30.5 V 30 h 1.5 1.5 v 2 2 h 1 1 V 34.5 35 H 48 45 V 34.5 34 h 1 1 V 32.5 31 H 46.5 46 Z m 1,-2 V 28 h 1 1 v 0.5 0.5 h -1 -1 z" />
			<path d="M 53,30.5 V 30 h 2.5 2.5 v 0.5 0.5 h 0.5 0.5 v 2 2 H 56 53 V 34.5 34 H 52.5 52 V 33.5 33 H 52.5 53 V 32.5 32 h 2 2 V 31.5 31 h -2 -2 z m 4,3 V 33 H 55.5 54 v 0.5 0.5 h 1.5 1.5 z" />
			<path d="m 63,29 v -1 h 1 1 v 1 1 h 1 1 v 0.5 0.5 h -1 -1 v 2 2 H 64 63 V 33 31 H 62 61 V 30.5 30 h 1 1 z" />
			<path d="M 69,30.5 V 30 h 2.5 2.5 v 0.5 0.5 h 0.5 0.5 v 1 1 H 72.5 70 v 0.5 0.5 h 2 2 V 34.5 35 H 71.5 69 V 34.5 34 H 68.5 68 V 32.5 31 h 0.5 0.5 z m 4,1 V 31 H 71.5 70 v 0.5 0.5 h 1.5 1.5 z" />
			<path d="M 77,30.5 V 30 h 2.5 2.5 v 0.5 0.5 h -2 -2 v 0.5 0.5 h 2 2 V 32.5 33 H 82.5 83 V 33.5 34 H 82.5 82 V 34.5 35 H 79 76 V 34.5 34 H 78.5 81 V 33.5 33 H 79 77 V 32.5 32 H 76.5 76 V 31.5 31 h 0.5 0.5 z" />
		</g>
		<g aria-label="Variant Also" style="font-size:8px;font-family:'Press Start 2P';-inkscape-font-specification:'Press Start 2P, Normal';fill:#ff00ff;stroke-linejoin:round">
			<path d="M 4,22 V 20 H 5 6 V 21.5 23 H 6.5 7 V 23.5 24 H 7.5 8 V 23.5 23 H 8.5 9 V 21.5 20 h 1 1 v 2 2 H 10.5 10 V 24.5 25 H 9.5 9 V 25.5 26 H 8.5 8 V 26.5 27 H 7.5 7 V 26.5 26 H 6.5 6 V 25.5 25 H 5.5 5 V 24.5 24 H 4.5 4 Z" />
			<path d="M 13,22.5 V 22 h 2.5 2.5 v 0.5 0.5 h 0.5 0.5 v 2 2 H 16 13 V 26.5 26 H 12.5 12 V 25.5 25 H 12.5 13 V 24.5 24 h 2 2 V 23.5 23 h -2 -2 z m 4,3 V 25 H 15.5 14 v 0.5 0.5 h 1.5 1.5 z" />
			<path d="M 21,24.5 V 22 h 1 1 V 22.5 23 H 23.5 24 V 22.5 22 H 25.5 27 V 22.5 23 H 25.5 24 V 23.5 24 H 23.5 23 v 1.5 1.5 h -1 -1 z" />
			<path d="M 30,22.5 V 22 h 1.5 1.5 v 2 2 h 1 1 V 26.5 27 H 32 29 V 26.5 26 h 1 1 V 24.5 23 H 30.5 30 Z m 1,-2 V 20 h 1 1 v 0.5 0.5 h -1 -1 z" />
			<path d="M 37,22.5 V 22 h 2.5 2.5 v 0.5 0.5 h 0.5 0.5 v 2 2 H 40 37 V 26.5 26 H 36.5 36 V 25.5 25 H 36.5 37 V 24.5 24 h 2 2 V 23.5 23 h -2 -2 z m 4,3 V 25 H 39.5 38 v 0.5 0.5 h 1.5 1.5 z" />
			<path d="M 44,24.5 V 22 h 3 3 v 0.5 0.5 h 0.5 0.5 v 2 2 H 50 49 V 25 23 H 47.5 46 v 2 2 h -1 -1 z" />
			<path d="m 55,21 v -1 h 1 1 v 1 1 h 1 1 v 0.5 0.5 h -1 -1 v 2 2 H 56 55 V 25 23 H 54 53 V 22.5 22 h 1 1 z" />
			<path d="M 70,20.5 V 20 H 71.5 73 V 20.5 21 H 73.5 74 V 21.5 22 H 74.5 75 V 24.5 27 H 74 73 V 26 25 H 71.5 70 v 1 1 H 69 68 V 24.5 22 H 68.5 69 V 21.5 21 h 0.5 0.5 z m 2,1 V 21 H 71.5 71 V 21.5 22 H 70.5 70 v 1 1 H 71.5 73 V 23 22 H 72.5 72 Z" />
			<path d="M 78,20.5 V 20 h 1.5 1.5 v 3 3 h 1 1 V 26.5 27 H 80 77 V 26.5 26 h 1 1 V 23.5 21 H 78.5 78 Z" />
			<path d="M 85,22.5 V 22 h 2.5 2.5 v 0.5 0.5 h -2 -2 v 0.5 0.5 h 2 2 V 24.5 25 H 90.5 91 V 25.5 26 H 90.5 90 V 26.5 27 H 87 84 V 26.5 26 H 86.5 89 V 25.5 25 H 87 85 V 24.5 24 H 84.5 84 V 23.5 23 h 0.5 0.5 z" />
			<path d="M 93,22.5 V 22 H 95.5 98 V 22.5 23 H 98.5 99 V 24.5 26 H 98.5 98 V 26.5 27 H 95.5 93 V 26.5 26 H 92.5 92 V 24.5 23 h 0.5 0.5 z m 4,2 V 23 H 95.5 94 v 1.5 1.5 h 1.5 1.5 z" />
		</g>
	</g>
</svg>
