<?xml version="1.0" encoding="UTF-8" standalone="no"?>
<!-- Created with Inkscape (http://www.inkscape.org/) -->
<svg
	xmlns="http://www.w3.org/2000/svg"
	xmlns:cc="http://creativecommons.org/ns#"
	xmlns:dc="http://purl.org/dc/elements/1.1/"
	xmlns:inkscape="http://www.inkscape.org/namespaces/inkscape"
	xmlns:sodipodi="http://sodipodi.sourceforge.net/DTD/sodipodi-0.dtd"
	xmlns:svg="http://www.w3.org/2000/svg"
	xmlns:rdf="http://www.w3.org/1999/02/22-rdf-syntax-ns#"
	xmlns:xlink="http://www.w3.org/1999/xlink"
	width="256"
	height="128"
	viewBox="0 0 32 16"
	version="1.1"
	inkscape:version="1.3.2 (091e20ef0f, 2023-11-25, custom)"
	xml:space="preserve"
	>
	<title>ledmatrix_r16_nextis</title>
	<metadata>
		<rdf:RDF>
			<cc:License rdf:about="http://creativecommons.org/publicdomain/zero/1.0/">
				<cc:permits rdf:resource="http://creativecommons.org/ns#Reproduction" />
				<cc:permits rdf:resource="http://creativecommons.org/ns#Distribution" />
				<cc:permits rdf:resource="http://creativecommons.org/ns#DerivativeWorks" />
			</cc:License>
			<cc:Work rdf:about="">
				<cc:license rdf:resource="http://creativecommons.org/publicdomain/zero/1.0/" />
				<dc:title>ledmatrix_r16_nextis</dc:title>
				<dc:creator>
					<cc:Agent>
						<dc:title>zawa-ch.</dc:title>
					</cc:Agent>
				</dc:creator>
			</cc:Work>
		</rdf:RDF>
	</metadata>
	<style>
		.bg {
			fill: #1c1c1c;
			fill-opacity: 1;
			stroke: none;
		}
		.led-off {
			fill: #838383;
			fill-opacity: 0.25;
			stroke: none;
		}
		.led-on {
			fill: #95e546;
			fill-opacity: 1;
			stroke: none;
		}
	</style>
	<sodipodi:namedview
		pagecolor="#505050"
		bordercolor="#eeeeee"
		borderopacity="1"
		inkscape:showpageshadow="0"
		inkscape:pageopacity="0"
		inkscape:pagecheckerboard="0"
		inkscape:deskcolor="#505050"
		inkscape:document-units="px"
		showgrid="false"
		showguides="false"
		>
		<inkscape:grid type="xygrid" units="px" originx="0" originy="0" spacingy="1" spacingx="1" empspacing="8" visible="false" />
		<inkscape:grid type="xygrid" units="px" originx="0" originy="0" spacingx="0.125" spacingy="0.125" empspacing="8" dotted="true" visible="false" />
	</sodipodi:namedview>
	<rect x="0" y="0" width="32" height="16" class="bg" inkscape:label="bg" />
	<g inkscape:groupmode="layer" inkscape:label="fg">
		<g inkscape:label="led-off">
			<g id="led-off-col0" transform="translate(0,0)">
				<circle cx="0.5" cy="0.5" r="0.375" class="led-off" />
				<circle cx="0.5" cy="1.5" r="0.375" class="led-off" />
				<circle cx="0.5" cy="2.5" r="0.375" class="led-off" />
				<circle cx="0.5" cy="3.5" r="0.375" class="led-off" />
				<circle cx="0.5" cy="4.5" r="0.375" class="led-off" />
				<circle cx="0.5" cy="5.5" r="0.375" class="led-off" />
				<circle cx="0.5" cy="6.5" r="0.375" class="led-off" />
				<circle cx="0.5" cy="7.5" r="0.375" class="led-off" />
				<circle cx="0.5" cy="8.5" r="0.375" class="led-off" />
				<circle cx="0.5" cy="9.5" r="0.375" class="led-off" />
				<circle cx="0.5" cy="10.5" r="0.375" class="led-off" />
				<circle cx="0.5" cy="11.5" r="0.375" class="led-off" />
				<circle cx="0.5" cy="12.5" r="0.375" class="led-off" />
				<circle cx="0.5" cy="13.5" r="0.375" class="led-off" />
				<circle cx="0.5" cy="14.5" r="0.375" class="led-off" />
				<circle cx="0.5" cy="15.5" r="0.375" class="led-off" />
			</g>
			<use xlink:href="#led-off-col0" transform="translate(1,0)" />
			<use xlink:href="#led-off-col0" transform="translate(2,0)" />
			<use xlink:href="#led-off-col0" transform="translate(3,0)" />
			<use xlink:href="#led-off-col0" transform="translate(4,0)" />
			<use xlink:href="#led-off-col0" transform="translate(5,0)" />
			<use xlink:href="#led-off-col0" transform="translate(6,0)" />
			<use xlink:href="#led-off-col0" transform="translate(7,0)" />
			<use xlink:href="#led-off-col0" transform="translate(8,0)" />
			<use xlink:href="#led-off-col0" transform="translate(9,0)" />
			<use xlink:href="#led-off-col0" transform="translate(10,0)" />
			<use xlink:href="#led-off-col0" transform="translate(11,0)" />
			<use xlink:href="#led-off-col0" transform="translate(12,0)" />
			<use xlink:href="#led-off-col0" transform="translate(13,0)" />
			<use xlink:href="#led-off-col0" transform="translate(14,0)" />
			<use xlink:href="#led-off-col0" transform="translate(15,0)" />
			<use xlink:href="#led-off-col0" transform="translate(16,0)" />
			<use xlink:href="#led-off-col0" transform="translate(17,0)" />
			<use xlink:href="#led-off-col0" transform="translate(18,0)" />
			<use xlink:href="#led-off-col0" transform="translate(19,0)" />
			<use xlink:href="#led-off-col0" transform="translate(20,0)" />
			<use xlink:href="#led-off-col0" transform="translate(21,0)" />
			<use xlink:href="#led-off-col0" transform="translate(22,0)" />
			<use xlink:href="#led-off-col0" transform="translate(23,0)" />
			<use xlink:href="#led-off-col0" transform="translate(24,0)" />
			<use xlink:href="#led-off-col0" transform="translate(25,0)" />
			<use xlink:href="#led-off-col0" transform="translate(26,0)" />
			<use xlink:href="#led-off-col0" transform="translate(27,0)" />
			<use xlink:href="#led-off-col0" transform="translate(28,0)" />
			<use xlink:href="#led-off-col0" transform="translate(29,0)" />
			<use xlink:href="#led-off-col0" transform="translate(30,0)" />
			<use xlink:href="#led-off-col0" transform="translate(31,0)" />
		</g>
		<g inkscape:label="led-on">
			<g>
				<circle cx="0.5" cy="1.5" r="0.375" class="led-on" />
				<circle cx="0.5" cy="14.5" r="0.375" class="led-on" />
				<circle cx="0.5" cy="15.5" r="0.375" class="led-on" />
				<circle cx="1.5" cy="2.5" r="0.375" class="led-on" />
				<circle cx="1.5" cy="11.5" r="0.375" class="led-on" />
				<circle cx="1.5" cy="12.5" r="0.375" class="led-on" />
				<circle cx="1.5" cy="13.5" r="0.375" class="led-on" />
				<circle cx="2.5" cy="3.5" r="0.375" class="led-on" />
				<circle cx="2.5" cy="8.5" r="0.375" class="led-on" />
				<circle cx="2.5" cy="9.5" r="0.375" class="led-on" />
				<circle cx="2.5" cy="10.5" r="0.375" class="led-on" />
				<circle cx="2.5" cy="15.5" r="0.375" class="led-on" />
				<circle cx="3.5" cy="6.5" r="0.375" class="led-on" />
				<circle cx="3.5" cy="7.5" r="0.375" class="led-on" />
				<circle cx="3.5" cy="15.5" r="0.375" class="led-on" />
				<circle cx="4.5" cy="14.5" r="0.375" class="led-on" />
				<circle cx="5.5" cy="6.5" r="0.375" class="led-on" />
				<circle cx="5.5" cy="7.5" r="0.375" class="led-on" />
				<circle cx="5.5" cy="14.5" r="0.375" class="led-on" />
				<circle cx="6.5" cy="3.5" r="0.375" class="led-on" />
				<circle cx="6.5" cy="4.5" r="0.375" class="led-on" />
				<circle cx="6.5" cy="5.5" r="0.375" class="led-on" />
				<circle cx="6.5" cy="13.5" r="0.375" class="led-on" />
				<circle cx="7.5" cy="0.5" r="0.375" class="led-on" />
				<circle cx="7.5" cy="1.5" r="0.375" class="led-on" />
				<circle cx="7.5" cy="2.5" r="0.375" class="led-on" />
				<circle cx="7.5" cy="4.5" r="0.375" class="led-on" />
				<circle cx="7.5" cy="11.5" r="0.375" class="led-on" />
				<circle cx="7.5" cy="12.5" r="0.375" class="led-on" />
				<circle cx="8.5" cy="4.5" r="0.375" class="led-on" />
				<circle cx="8.5" cy="9.5" r="0.375" class="led-on" />
				<circle cx="8.5" cy="10.5" r="0.375" class="led-on" />
				<circle cx="9.5" cy="4.5" r="0.375" class="led-on" />
				<circle cx="9.5" cy="5.5" r="0.375" class="led-on" />
				<circle cx="9.5" cy="6.5" r="0.375" class="led-on" />
				<circle cx="9.5" cy="7.5" r="0.375" class="led-on" />
				<circle cx="9.5" cy="8.5" r="0.375" class="led-on" />
				<circle cx="10.5" cy="4.5" r="0.375" class="led-on" />
				<circle cx="10.5" cy="9.5" r="0.375" class="led-on" />
				<circle cx="10.5" cy="10.5" r="0.375" class="led-on" />
				<circle cx="11.5" cy="4.5" r="0.375" class="led-on" />
				<circle cx="11.5" cy="11.5" r="0.375" class="led-on" />
				<circle cx="11.5" cy="12.5" r="0.375" class="led-on" />
				<circle cx="12.5" cy="4.5" r="0.375" class="led-on" />
				<circle cx="12.5" cy="6.5" r="0.375" class="led-on" />
				<circle cx="12.5" cy="7.5" r="0.375" class="led-on" />
				<circle cx="12.5" cy="13.5" r="0.375" class="led-on" />
				<circle cx="13.5" cy="3.5" r="0.375" class="led-on" />
				<circle cx="13.5" cy="4.5" r="0.375" class="led-on" />
				<circle cx="13.5" cy="5.5" r="0.375" class="led-on" />
				<circle cx="13.5" cy="14.5" r="0.375" class="led-on" />
				<circle cx="14.5" cy="4.5" r="0.375" class="led-on" />
				<circle cx="14.5" cy="15.5" r="0.375" class="led-on" />
			</g>
			<g>
				<circle cx="17.5" cy="2.5" r="0.375" class="led-on" />
				<circle cx="17.5" cy="6.5" r="0.375" class="led-on" />
				<circle cx="17.5" cy="7.5" r="0.375" class="led-on" />
				<circle cx="17.5" cy="8.5" r="0.375" class="led-on" />
				<circle cx="17.5" cy="9.5" r="0.375" class="led-on" />
				<circle cx="17.5" cy="10.5" r="0.375" class="led-on" />
				<circle cx="17.5" cy="11.5" r="0.375" class="led-on" />
				<circle cx="17.5" cy="12.5" r="0.375" class="led-on" />
				<circle cx="18.5" cy="3.5" r="0.375" class="led-on" />
				<circle cx="18.5" cy="4.5" r="0.375" class="led-on" />
				<circle cx="18.5" cy="5.5" r="0.375" class="led-on" />
				<circle cx="18.5" cy="13.5" r="0.375" class="led-on" />
				<circle cx="18.5" cy="14.5" r="0.375" class="led-on" />
				<circle cx="19.5" cy="11.5" r="0.375" class="led-on" />
				<circle cx="19.5" cy="12.5" r="0.375" class="led-on" />
				<circle cx="21.5" cy="4.5" r="0.375" class="led-on" />
				<circle cx="21.5" cy="12.5" r="0.375" class="led-on" />
				<circle cx="22.5" cy="5.5" r="0.375" class="led-on" />
				<circle cx="22.5" cy="11.5" r="0.375" class="led-on" />
				<circle cx="22.5" cy="13.5" r="0.375" class="led-on" />
				<circle cx="23.5" cy="5.5" r="0.375" class="led-on" />
				<circle cx="23.5" cy="11.5" r="0.375" class="led-on" />
				<circle cx="23.5" cy="14.5" r="0.375" class="led-on" />
				<circle cx="24.5" cy="5.5" r="0.375" class="led-on" />
				<circle cx="24.5" cy="11.5" r="0.375" class="led-on" />
				<circle cx="24.5" cy="14.5" r="0.375" class="led-on" />
				<circle cx="25.5" cy="1.5" r="0.375" class="led-on" />
				<circle cx="25.5" cy="5.5" r="0.375" class="led-on" />
				<circle cx="25.5" cy="11.5" r="0.375" class="led-on" />
				<circle cx="25.5" cy="14.5" r="0.375" class="led-on" />
				<circle cx="26.5" cy="1.5" r="0.375" class="led-on" />
				<circle cx="26.5" cy="2.5" r="0.375" class="led-on" />
				<circle cx="26.5" cy="3.5" r="0.375" class="led-on" />
				<circle cx="26.5" cy="4.5" r="0.375" class="led-on" />
				<circle cx="26.5" cy="5.5" r="0.375" class="led-on" />
				<circle cx="26.5" cy="6.5" r="0.375" class="led-on" />
				<circle cx="26.5" cy="7.5" r="0.375" class="led-on" />
				<circle cx="26.5" cy="8.5" r="0.375" class="led-on" />
				<circle cx="26.5" cy="9.5" r="0.375" class="led-on" />
				<circle cx="26.5" cy="10.5" r="0.375" class="led-on" />
				<circle cx="26.5" cy="11.5" r="0.375" class="led-on" />
				<circle cx="26.5" cy="12.5" r="0.375" class="led-on" />
				<circle cx="26.5" cy="13.5" r="0.375" class="led-on" />
				<circle cx="26.5" cy="14.5" r="0.375" class="led-on" />
				<circle cx="27.5" cy="4.5" r="0.375" class="led-on" />
				<circle cx="27.5" cy="11.5" r="0.375" class="led-on" />
				<circle cx="28.5" cy="4.5" r="0.375" class="led-on" />
				<circle cx="28.5" cy="12.5" r="0.375" class="led-on" />
				<circle cx="29.5" cy="4.5" r="0.375" class="led-on" />
				<circle cx="29.5" cy="12.5" r="0.375" class="led-on" />
				<circle cx="30.5" cy="4.5" r="0.375" class="led-on" />
				<circle cx="30.5" cy="13.5" r="0.375" class="led-on" />
			</g>
		</g>
	</g>
</svg>
