<?xml version="1.0" encoding="UTF-8" standalone="no"?>
<svg
	xmlns="http://www.w3.org/2000/svg"
	xmlns:inkscape="http://www.inkscape.org/namespaces/inkscape"
	xmlns:sodipodi="http://sodipodi.sourceforge.net/DTD/sodipodi-0.dtd"
	xmlns:svg="http://www.w3.org/2000/svg"
	width="256"
	height="256"
	viewBox="0 0 256 256"
	version="1.1"
	inkscape:version="1.2.2 (b0a8486541, 2022-12-01)"
	>
	<sodipodi:namedview
		pagecolor="#505050"
		bordercolor="#eeeeee"
		borderopacity="1"
		inkscape:showpageshadow="0"
		inkscape:pageopacity="0"
		inkscape:pagecheckerboard="0"
		inkscape:deskcolor="#505050"
		inkscape:document-units="px"
		showgrid="false"
		>
		<sodipodi:guide position="0,256" orientation="0,256" />
		<sodipodi:guide position="256,0" orientation="0,256" />
		<sodipodi:guide position="0,256" orientation="256,0" />
		<sodipodi:guide position="256,0" orientation="256,0" />
		<sodipodi:guide position="0,230.4" orientation="0,256" />
		<sodipodi:guide position="0,25.6" orientation="0,256" />
		<sodipodi:guide position="25.6,0" orientation="256,0" />
		<sodipodi:guide position="230.4,0" orientation="256,0" />
		<sodipodi:guide position="0,128" orientation="0,204.8" />
		<sodipodi:guide position="128,0" orientation="204.8,0" />
	</sodipodi:namedview>
	<g inkscape:groupmode="layer" style="display:none">
		<text xml:space="preserve" style="font-style:normal;font-variant:normal;font-weight:normal;font-stretch:normal;font-size:96px;font-family:'OCR A Extended';-inkscape-font-specification:'OCR A Extended, Normal';font-variant-ligatures:normal;font-variant-caps:normal;font-variant-numeric:normal;font-variant-east-asian:normal;text-align:center;text-anchor:middle;fill:#e53917;fill-opacity:1;stroke-width:1.5" x="129.61719" y="165.54688"><tspan sodipodi:role="line" x="129.61719" y="165.54688">No</tspan></text>
	</g>
	<g inkscape:label="outline" inkscape:groupmode="layer">
		<g aria-label="No" style="font-size:96px;font-family:'OCR A Extended';-inkscape-font-specification:'OCR A Extended, Normal';text-align:center;text-anchor:middle;fill:#e53917;stroke-width:1.5">
			<path d="m 120.99219,107.28125 v 58.26562 H 110.39844 L 89.210937,117.17188 v 44.43749 q 0,1.64063 -1.171875,2.8125 -1.125,1.125 -2.765625,1.125 -1.640625,0 -2.8125,-1.125 -1.125,-1.17187 -1.125,-2.8125 V 103.25 h 10.453125 l 21.234378,48.28125 v -44.25 q 0,-1.64062 1.17187,-2.8125 1.21875,-1.21875 2.85938,-1.21875 1.64062,0 2.76562,1.17188 1.17188,1.17187 1.17188,2.85937 z"/>
			<path d="m 178.97656,134.51562 v 16.64063 q 0,5.29687 -5.01562,9.79687 -4.96875,4.5 -10.26563,4.5 h -9.23437 q -5.39063,0 -10.3125,-4.54687 -4.92188,-4.59375 -4.92188,-9.75 v -16.64063 q 0,-5.15625 4.78125,-9.70312 4.82813,-4.59375 10.45313,-4.59375 h 9.23437 q 5.29688,-0.0937 10.26563,4.40625 5.01562,4.5 5.01562,9.89062 z m -31.78125,0.32813 v 15.9375 q 0,2.15625 1.54688,3.42187 l 2.95312,2.53125 q 0.98438,0.84375 2.76563,0.84375 h 9.14062 q 2.01563,0 3.65625,-1.45312 l 2.39063,-2.10938 q 1.45312,-1.125 1.45312,-3.14062 v -15.9375 q 0,-2.34375 -1.45312,-3.46875 l -2.76563,-2.20313 q -1.40625,-1.17187 -3.28125,-1.17187 h -8.15625 q -2.67187,0 -4.125,1.26562 l -2.67187,2.29688 q -1.45313,1.21875 -1.45313,3.1875 z" />
		</g>
	</g>
</svg>
