<?xml version="1.0" encoding="UTF-8" standalone="no"?>
<svg
	xmlns="http://www.w3.org/2000/svg"
	xmlns:cc="http://creativecommons.org/ns#"
	xmlns:dc="http://purl.org/dc/elements/1.1/"
	xmlns:inkscape="http://www.inkscape.org/namespaces/inkscape"
	xmlns:rdf="http://www.w3.org/1999/02/22-rdf-syntax-ns#"
	xmlns:sodipodi="http://sodipodi.sourceforge.net/DTD/sodipodi-0.dtd"
	xmlns:svg="http://www.w3.org/2000/svg"
	width="256"
	height="256"
	viewBox="0 0 256 256"
	version="1.1"
	inkscape:version="1.2.2 (b0a8486541, 2022-12-01)"
	>
	<title>no</title>
	<metadata>
		<rdf:RDF>
			<cc:License rdf:about="http://creativecommons.org/publicdomain/zero/1.0/">
				<cc:permits rdf:resource="http://creativecommons.org/ns#Reproduction" />
				<cc:permits rdf:resource="http://creativecommons.org/ns#Distribution" />
				<cc:permits rdf:resource="http://creativecommons.org/ns#DerivativeWorks" />
			</cc:License>
			<cc:Work rdf:about="">
				<cc:license rdf:resource="http://creativecommons.org/publicdomain/zero/1.0/" />
				<dc:title>no</dc:title>
				<dc:creator>
					<cc:Agent>
						<dc:title>zawa-ch.</dc:title>
					</cc:Agent>
				</dc:creator>
			</cc:Work>
		</rdf:RDF>
	</metadata>
	<sodipodi:namedview
		pagecolor="#505050"
		bordercolor="#eeeeee"
		borderopacity="1"
		inkscape:showpageshadow="0"
		inkscape:pageopacity="0"
		inkscape:pagecheckerboard="0"
		inkscape:deskcolor="#505050"
		inkscape:document-units="px"
		showgrid="false"
		>
		<sodipodi:guide position="0,256" orientation="0,256" />
		<sodipodi:guide position="256,0" orientation="0,256" />
		<sodipodi:guide position="0,256" orientation="256,0" />
		<sodipodi:guide position="256,0" orientation="256,0" />
		<sodipodi:guide position="0,230.4" orientation="0,256" />
		<sodipodi:guide position="0,25.6" orientation="0,256" />
		<sodipodi:guide position="25.6,0" orientation="256,0" />
		<sodipodi:guide position="230.4,0" orientation="256,0" />
		<sodipodi:guide position="0,128" orientation="0,204.8" />
		<sodipodi:guide position="128,0" orientation="204.8,0" />
	</sodipodi:namedview>
	<g inkscape:groupmode="layer" style="display:none">
		<text xml:space="preserve" style="font-style:normal;font-variant:normal;font-weight:normal;font-stretch:normal;font-size:96px;font-family:'IBM 3270';-inkscape-font-specification:'IBM 3270, Normal';font-variant-ligatures:normal;font-variant-caps:normal;font-variant-numeric:normal;font-variant-east-asian:normal;text-align:center;text-anchor:middle;fill:#e53917;fill-opacity:1;stroke-width:1.5" x="129.61719" y="165.54688"><tspan sodipodi:role="line" x="129.61719" y="165.54688">No</tspan></text>
	</g>
	<g inkscape:groupmode="layer" inkscape:label="Outline">
		<g aria-label="No" style="font-size:96px;font-family:'IBM 3270';-inkscape-font-specification:'IBM 3270, Normal';text-align:center;text-anchor:middle;fill:#e53917;stroke-width:1.5">
			<path d="m 83.5371,160.74687 h 5.664 v -43.96799 l 28.608,29.56799 v 14.4 h 5.664 v -52.51199 h -5.664 v 29.28 l -28.608,-29.28 h -5.664 z" />
			<path d="m 140.84919,129.64287 4.128,-4.22399 h 15.648 l 3.744,4.22399 v 21.31201 l -3.84,4.03199 h -15.552 l -4.128,-4.03199 z m -4.8,-3.168 c -0.288,0.288 -0.96,0.96001 -0.96,1.92001 v 23.71199 c 0,0.576 0.096,1.44 0.864,2.112 l 5.952,5.568 c 0.384,0.288 1.056,0.672 1.92,0.672 h 17.856 0.336 c 0.48,0 1.152,-0.048 1.68,-0.672 l 5.568,-5.664 c 0.288,-0.288 0.864,-1.056 0.864,-2.016 v -23.52 c 0,-0.48 -0.192,-1.24799 -0.768,-1.824 l -5.376,-6.04799 c -0.384,-0.38401 -1.152,-0.96001 -2.112,-0.96001 h -18.048 c -0.384,0 -1.248,0 -1.92,0.672 z" />
		</g>
	</g>
</svg>
