<?xml version="1.0" encoding="UTF-8" standalone="no"?>
<svg
	xmlns="http://www.w3.org/2000/svg"
	xmlns:inkscape="http://www.inkscape.org/namespaces/inkscape"
	xmlns:sodipodi="http://sodipodi.sourceforge.net/DTD/sodipodi-0.dtd"
	xmlns:svg="http://www.w3.org/2000/svg"
	width="256"
	height="256"
	viewBox="0 0 256 256"
	version="1.1"
	inkscape:version="1.2.2 (b0a8486541, 2022-12-01)"
	>
	<sodipodi:namedview
		pagecolor="#505050"
		bordercolor="#eeeeee"
		borderopacity="1"
		inkscape:showpageshadow="0"
		inkscape:pageopacity="0"
		inkscape:pagecheckerboard="0"
		inkscape:deskcolor="#505050"
		inkscape:document-units="px"
		showgrid="false"
		>
		<sodipodi:guide position="0,256" orientation="0,256" />
		<sodipodi:guide position="256,0" orientation="0,256" />
		<sodipodi:guide position="0,256" orientation="256,0" />
		<sodipodi:guide position="256,0" orientation="256,0" />
		<sodipodi:guide position="0,230.4" orientation="0,256" />
		<sodipodi:guide position="0,25.6" orientation="0,256" />
		<sodipodi:guide position="25.6,0" orientation="256,0" />
		<sodipodi:guide position="230.4,0" orientation="256,0" />
		<sodipodi:guide position="0,128" orientation="0,204.8" />
		<sodipodi:guide position="128,0" orientation="204.8,0" />
	</sodipodi:namedview>
	<g inkscape:groupmode="layer" style="display:none">
		<text xml:space="preserve" style="font-style:normal;font-variant:normal;font-weight:normal;font-stretch:normal;font-size:96px;font-family:'OCR A Extended';-inkscape-font-specification:'OCR A Extended, Normal';font-variant-ligatures:normal;font-variant-caps:normal;font-variant-numeric:normal;font-variant-east-asian:normal;text-align:center;text-anchor:middle;fill:#177ee5;fill-opacity:1;stroke-width:1.5" x="129.61719" y="165.54688"><tspan sodipodi:role="line" x="129.61719" y="165.54688">Yes</tspan></text>
	</g>
	<g inkscape:label="outline" inkscape:groupmode="layer">
		<g aria-label="Yes" style="font-size:96px;font-family:'OCR A Extended';-inkscape-font-specification:'OCR A Extended, Normal';text-align:center;text-anchor:middle;fill:#177ee5;stroke-width:1.5;fill-opacity:1">
			<path d="m 76.25,135.6875 v 25.92187 q 0,1.64063 -1.171875,2.8125 -1.171875,1.125 -2.765625,1.125 -1.6875,0 -2.859375,-1.125 Q 68.28125,163.25 68.28125,161.60937 V 135.6875 L 52.4375,115.625 v -8.34375 q 0,-1.6875 1.125,-2.85937 1.171875,-1.17188 2.8125,-1.17188 1.640625,0 2.8125,1.21875 1.21875,1.17188 1.21875,2.8125 v 5.39063 l 11.8125,15.23437 12,-15.14062 v -5.48438 q 0,-1.64062 1.171875,-2.8125 Q 86.5625,103.25 88.15625,103.25 q 1.546875,0 2.71875,1.125 1.21875,1.07813 1.21875,2.90625 v 8.25 z" style="fill:#177ee5;fill-opacity:1" />
			<path d="m 149.98437,135.125 v 9.51562 q 0,1.59375 -1.17187,2.76563 -1.17188,1.17187 -2.76563,1.17187 h -27.84374 v 2.29688 q 0,2.01562 1.73437,3.42187 l 2.29688,1.92188 q 1.875,1.45312 3.5625,1.45312 h 20.24999 q 1.59375,0 2.76563,1.17188 1.17187,1.125 1.17187,2.76562 0,1.59375 -1.21875,2.76563 -1.17187,1.17187 -2.71875,1.17187 h -20.76562 q -2.0625,0 -4.35937,-0.84375 -2.25,-0.89062 -3.32813,-1.82812 l -3.51562,-3.09375 q -1.64063,-1.3125 -2.76563,-3.65625 -1.07812,-2.34375 -1.07812,-4.3125 v -18.04688 q 0,-1.54687 1.17187,-4.17187 1.21875,-2.625 3.04688,-4.07812 l 3.28125,-2.57813 q 3.23437,-2.625 7.17187,-2.625 h 11.0625 q 4.17187,0 7.875,3.46875 l 2.95312,2.8125 q 3.1875,2.85937 3.1875,8.53125 z m -31.68749,-0.60938 v 6.09375 h 23.90624 V 135.125 q 0,-2.20313 -1.35937,-3.375 l -2.29688,-2.01563 q -1.78125,-1.45312 -3.1875,-1.45312 h -9.89062 q -1.82812,0 -3.32812,1.26562 l -2.29688,1.92188 q -1.54687,1.17187 -1.54687,3.04687 z" style="fill:#177ee5;fill-opacity:1" />
			<path d="M 179.32812,120.3125 H 197.375 q 4.21875,0 7.45312,2.53125 3.23438,2.48438 3.23438,4.875 0,1.6875 -1.21875,2.76562 -1.17188,1.07813 -2.625,1.07813 -1.875,0 -3.42188,-1.6875 -1.54687,-1.6875 -3.23437,-1.6875 H 179.75 q -2.625,0 -2.625,2.20312 0,1.54688 1.73437,2.34375 l 20.95313,9.28125 q 3.1875,1.40625 5.20312,4.54688 2.0625,3.09375 2.0625,6.89062 0,5.0625 -3.60937,8.57813 -3.5625,3.51562 -8.10938,3.51562 h -15.9375 q -4.125,0 -7.6875,-2.48437 -3.51562,-2.48438 -3.51562,-4.82813 0,-1.54687 1.125,-2.71875 1.17187,-1.21875 3,-1.21875 1.5,0 3.1875,1.6875 1.73437,1.6875 4.96875,1.6875 h 14.67187 q 1.73438,0 2.90625,-1.3125 Q 199.25,155 199.25,153.26562 q 0,-2.67187 -2.625,-3.84375 l -21.14063,-9.51562 q -3.04687,-1.35938 -4.6875,-3.9375 -1.64062,-2.57813 -1.64062,-5.25 0,-4.21875 2.90625,-7.3125 2.95312,-3.09375 7.26562,-3.09375 z" style="fill:#177ee5;fill-opacity:1" />
		</g>
	</g>
</svg>
