<?xml version="1.0" encoding="UTF-8" standalone="no"?>
<svg
	xmlns="http://www.w3.org/2000/svg"
	xmlns:cc="http://creativecommons.org/ns#"
	xmlns:dc="http://purl.org/dc/elements/1.1/"
	xmlns:inkscape="http://www.inkscape.org/namespaces/inkscape"
	xmlns:rdf="http://www.w3.org/1999/02/22-rdf-syntax-ns#"
	xmlns:sodipodi="http://sodipodi.sourceforge.net/DTD/sodipodi-0.dtd"
	xmlns:svg="http://www.w3.org/2000/svg"
	width="32"
	height="32"
	viewBox="0 0 32 32"
	version="1.1"
	inkscape:version="1.2.2 (b0a8486541, 2022-12-01)"
	aria-label="ブルーレットおくだけ"
	>
	<title>bluelet_okudake</title>
	<metadata>
		<rdf:RDF>
			<cc:License rdf:about="http://creativecommons.org/publicdomain/zero/1.0/">
				<cc:permits rdf:resource="http://creativecommons.org/ns#Reproduction" />
				<cc:permits rdf:resource="http://creativecommons.org/ns#Distribution" />
				<cc:permits rdf:resource="http://creativecommons.org/ns#DerivativeWorks" />
			</cc:License>
			<cc:Work rdf:about="">
				<cc:license rdf:resource="http://creativecommons.org/publicdomain/zero/1.0/" />
				<dc:title>bluelet_okudake</dc:title>
				<dc:creator>
					<cc:Agent>
						<dc:title>zawa-ch.</dc:title>
					</cc:Agent>
				</dc:creator>
				<dc:rights rdf:resource="https://www.kobayashi.co.jp/" />
			</cc:Work>
		</rdf:RDF>
	</metadata>
	<style>
		.typography {
			font-family: 'Rounded Mplus 1c';
			font-style: normal;
			font-variant: normal;
			font-weight: 900;
			font-stretch: normal;
			line-height: 1.05;
			text-anchor: start;
			-inkscape-font-specification: 'Rounded Mplus 1c, Heavy';
		}
		.fg {
			fill: blue;
			fill-opacity: 1;
			stroke: none;
		}
	</style>
	<sodipodi:namedview
		pagecolor="#505050"
		bordercolor="#eeeeee"
		borderopacity="1"
		inkscape:showpageshadow="0"
		inkscape:pageopacity="0"
		inkscape:pagecheckerboard="0"
		inkscape:deskcolor="#505050"
		inkscape:document-units="px"
		showgrid="false"
		showguides="false"
		>
		<inkscape:grid type="xygrid" empspacing="8" />
		<sodipodi:guide position="0,0" orientation="32,0" />
		<sodipodi:guide position="32,0" orientation="32,0" />
		<sodipodi:guide position="0,0" orientation="0,32" />
		<sodipodi:guide position="0,8" orientation="0,32" />
		<sodipodi:guide position="0,16" orientation="0,32" />
		<sodipodi:guide position="0,24" orientation="0,32" />
		<sodipodi:guide position="0,32" orientation="0,32" />
	</sodipodi:namedview>
	<g inkscape:groupmode="layer" style="display:none">
		<text xml:space="preserve" x="-0.6278857" y="7.4618149" class="typography fg" style="font-size:8.96975px"><tspan sodipodi:role="line" x="-0.6278857" y="7.4618149" class="typography fg" style="font-size:8.96975px">ブルーレット</tspan></text>
		<text xml:space="preserve" x="-0.74825919" y="18.1015" class="typography fg" style="font-size:12.4709px"><tspan sodipodi:role="line" x="-0.74825919" y="18.1015" class="typography fg" style="font-size:12.4709px">おく</tspan><tspan sodipodi:role="line" x="-0.74825919" y="31.195944" class="typography fg" style="font-size:12.4709px">だけ</tspan></text>
	</g>
	<g inkscape:groupmode="layer" inkscape:label="Outline">
		<g class="typography fg" style="font-size:8.96975px" transform="matrix(0.6103203,0,0,1,-1.2356616e-6,0)">
			<path d="m 6.4043986,0.38468181 q 0.044849,0.0896975 0.1345463,0.26909251 0.098667,0.17042526 0.143516,0.26012277 Q 6.9156744,1.3623846 6.8887651,1.8646906 6.7631886,4.6991318 5.3997866,6.1612011 4.0363845,7.6232704 1.3095804,7.9461814 1.0943064,7.9730907 0.92388112,7.8385444 0.75345586,7.7129679 0.70860711,7.4976939 L 0.59200036,6.9325996 Q 0.55612135,6.7352651 0.67272811,6.5738096 0.78933486,6.4033843 0.99563912,6.3764751 2.906196,6.1432616 3.8569895,5.2911353 4.807783,4.439009 5.0320268,2.6899077 5.0409966,2.6629984 5.0140873,2.6450589 4.9871781,2.6181497 4.9602688,2.6181497 H 0.5112726 q -0.20630426,0 -0.35879001,-0.1524858 Q -3.1709671e-6,2.3131781 -3.1709671e-6,2.1068739 V 1.5148704 q 0,-0.2063043 0.1524857609671,-0.3587901 Q 0.30496834,1.0035946 0.5112726,1.0035946 h 5.0858485 q 0.071758,0 0.035879,-0.071758 L 5.5702118,0.80626008 Q 5.4715446,0.63583482 5.5343328,0.45643981 5.5971211,0.26807506 5.7675463,0.17837755 5.9379716,0.08868005 6.1263364,0.1514683 6.3147011,0.21425655 6.4043986,0.38468181 Z m 1.3813416,-0.1255765 q 0.044849,0.0896975 0.1255765,0.26012276 0.089697,0.17042526 0.1255765,0.24218326 0.089697,0.17939501 0.026909,0.35878997 -0.062788,0.1793951 -0.242183,0.2690926 -0.179395,0.089697 -0.3677598,0.026909 Q 7.2744644,1.3534149 7.1757972,1.1740198 7.0950694,1.0125643 6.9156744,0.68965333 6.8259769,0.51025832 6.8797954,0.33086331 6.9425836,0.14249855 7.1219787,0.05280105 7.3013737,-0.03689646 7.4987082,0.0258918 7.6960427,0.08868005 7.7857402,0.25910531 Z" />
			<path d="m 16.674763,3.6227617 q 0.206304,0.026909 0.34085,0.1973345 0.134547,0.1614555 0.107637,0.3677598 -0.260122,1.9015871 -1.219886,2.7716529 -0.959763,0.861096 -2.798562,0.9059447 -0.206304,0.00897 -0.35879,-0.143516 Q 12.602496,7.5694519 12.602496,7.3541779 V 1.0663828 q 0,-0.20630422 0.152486,-0.35878997 0.152486,-0.15248576 0.35879,-0.15248576 h 0.72655 q 0.206304,0 0.35879,0.15248576 0.152485,0.15248575 0.152485,0.35878997 v 4.9064535 q 0,0.080728 0.07176,0.044849 0.457458,-0.215274 0.699641,-0.6817011 0.251153,-0.4753967 0.37673,-1.3544323 0.02691,-0.2063042 0.188364,-0.3318807 0.170426,-0.1345463 0.37673,-0.107637 z M 11.37364,0.55510707 q 0.206305,0 0.35879,0.15248576 0.152486,0.15248575 0.152486,0.35878997 v 1.3723719 q 0,1.7132223 -0.170425,2.7088646 Q 11.553035,6.1432616 11.167336,6.7352651 10.781637,7.3272686 10.046117,7.7578166 9.8577525,7.8654536 9.6514483,7.8116351 9.445144,7.7578166 9.3195675,7.5784216 L 8.9338682,6.9864181 Q 8.8172615,6.8159929 8.8621102,6.6186583 8.9159287,6.4213238 9.0953237,6.3136868 9.4630835,6.0804733 9.660418,5.8472598 9.8667223,5.6050765 9.9922988,5.1476193 10.117875,4.690162 10.144785,4.1071282 10.180664,3.5151247 10.180664,2.4387547 V 1.0663828 q 0,-0.20630422 0.152485,-0.35878997 0.152486,-0.15248576 0.35879,-0.15248576 z" />
			<path d="m 25.05251,3.3805784 q 0.206304,0 0.35879,0.1524858 0.152485,0.1524858 0.152485,0.35879 v 0.6817011 q 0,0.2063042 -0.152485,0.35879 -0.152486,0.1524857 -0.35879,0.1524857 h -6.512039 q -0.206304,0 -0.35879,-0.1524857 -0.152486,-0.1524858 -0.152486,-0.35879 V 3.8918542 q 0,-0.2063042 0.152486,-0.35879 0.152486,-0.1524858 0.35879,-0.1524858 z" />
			<path d="m 34.237535,3.2370624 q 0.197335,0.080728 0.278062,0.2780623 0.0897,0.1973345 0.009,0.394669 -0.888005,2.1527401 -2.350075,3.0586849 -1.462069,0.9059448 -4.036387,0.9418238 -0.206304,0 -0.35879,-0.1524858 -0.152486,-0.1524857 -0.152486,-0.35879 V 1.0663828 q 0,-0.20630422 0.152486,-0.35878997 0.152486,-0.15248576 0.35879,-0.15248576 h 0.816247 q 0.206304,0 0.35879,0.15248576 0.152486,0.15248575 0.152486,0.35878997 v 5.0589393 q 0,0.080728 0.07176,0.062788 1.309583,-0.1973345 2.089952,-0.8700658 0.789338,-0.6727312 1.336493,-2.0451031 0.08073,-0.1973345 0.269092,-0.2780622 0.188365,-0.080728 0.385699,-0.00897 z" />
			<path d="m 42.29237,2.2324504 q 0.215274,0.01794 0.35879,0.1704253 0.152486,0.1524857 0.143516,0.3677597 -0.08073,2.4846209 -1.058431,3.6327489 -0.977702,1.1481281 -3.166321,1.4351601 -0.215274,0.026909 -0.394669,-0.098667 -0.170426,-0.1255765 -0.215274,-0.3408505 l -0.07176,-0.35879 q -0.03588,-0.1973345 0.07176,-0.35879 0.116606,-0.1614555 0.322911,-0.1973345 1.650434,-0.251153 2.323165,-1.0674003 0.672731,-0.825217 0.735519,-2.7178344 0.009,-0.2063042 0.161456,-0.3498203 0.152486,-0.143516 0.35879,-0.1345462 z m -3.767295,2.0002543 q 0.05382,0.2063043 -0.06279,0.3946691 -0.107637,0.179395 -0.304972,0.2242437 L 37.771616,4.941315 Q 37.565312,4.9861638 37.385917,4.8785268 37.206522,4.76192 37.161673,4.5645855 36.928459,3.613792 36.802883,3.1473649 36.749064,2.9410607 36.856701,2.7616657 36.964338,2.5733009 37.161673,2.5284522 l 0.34982,-0.080728 q 0.206304,-0.053818 0.385699,0.062788 0.179395,0.107637 0.242184,0.3139412 0.242183,0.8610961 0.385699,1.4082513 z m 0.923884,-2.0002543 q 0.206304,-0.044849 0.385699,0.062788 0.188365,0.1076371 0.242184,0.3049716 0.287032,1.07637 0.385699,1.4530995 0.05382,0.2063043 -0.06279,0.394669 -0.107637,0.1793951 -0.304972,0.2242438 L 39.709082,4.76192 Q 39.502778,4.8067688 39.323383,4.6991318 39.143988,4.5914948 39.090169,4.3941602 39.07223,4.3403417 38.70447,2.9320909 38.650651,2.7257867 38.758288,2.5463917 38.865925,2.3669967 39.06326,2.3221479 Z" />
			<path d="m 52.087336,4.151977 q 0.197335,0.062788 0.287032,0.2601227 0.09867,0.1883648 0.02691,0.3946691 l -0.215274,0.645822 q -0.06279,0.1973345 -0.251153,0.2960018 -0.188365,0.089697 -0.394669,0.017939 -1.80292,-0.6278826 -3.668628,-1.1122491 -0.02691,-0.00897 -0.04485,0.017939 -0.01794,0.017939 -0.01794,0.044849 v 2.7716528 q 0,0.2063043 -0.152486,0.35879 -0.152486,0.1524858 -0.35879,0.1524858 h -0.771399 q -0.206304,0 -0.35879,-0.1524858 -0.152486,-0.1524857 -0.152486,-0.35879 V 0.97668534 q 0,-0.20630426 0.152486,-0.35879002 0.152486,-0.15248576 0.35879,-0.15248576 h 0.771399 q 0.206304,0 0.35879,0.15248576 0.152486,0.15248576 0.152486,0.35879002 V 2.8065144 q 0,0.080728 0.07176,0.098667 2.233467,0.5561245 4.206812,1.2467956 z" />
		</g>
		<g class="typography fg" style="font-size:12.4709px" transform="matrix(1.4957587,0,0,1,2.5838104e-6,0)">
			<path d="m 3.3671377,16.16851 v -1.359328 q 0,-0.03741 -0.037413,-0.04988 -0.037413,-0.02494 -0.074825,-0.01247 -1.0101429,0.399068 -1.0101429,1.10991 0,0.299301 0.2369471,0.56119 0.2369471,0.249418 0.5113069,0.249418 0.2369471,0 0.2993016,-0.0873 0.074825,-0.0873 0.074825,-0.41154 z m 2.6188889,-3.928333 q 1.8207513,0 2.9680741,0.910375 1.1473223,0.897905 1.1473223,2.20735 0,2.743598 -2.9181901,3.379613 Q 6.8964023,18.79987 6.6345134,18.625277 6.3850954,18.463156 6.31027,18.163854 L 6.1606192,17.540309 q -0.062355,-0.27436 0.087296,-0.511307 0.1496508,-0.249418 0.4240106,-0.324243 0.611074,-0.174593 0.860492,-0.461423 0.2618889,-0.286831 0.2618889,-0.760725 0,-0.461424 -0.5113069,-0.785667 Q 6.7841642,14.36023 5.9860266,14.36023 H 5.7241377 q -0.1122381,0 -0.1122381,0.112238 v 1.883106 q 0,1.384269 -0.498836,1.870635 -0.498836,0.498836 -1.8706349,0.498836 -1.3842699,0 -2.31958734,-0.810609 Q -5.2118301e-6,17.103828 -5.2118301e-6,15.856738 q 0,-1.084969 0.8480211718301,-1.957932 0.86049204,-0.885433 2.41935454,-1.321915 0.099767,-0.02494 0.099767,-0.13718 v -1.097439 q 0,-0.09977 -0.1122381,-0.09977 H 1.334381 q -0.2868306,0 -0.49883594,-0.212006 -0.21200529,-0.212005 -0.21200529,-0.498835 v -0.448953 q 0,-0.2868306 0.21200529,-0.4988359 Q 1.0475504,9.3718699 1.334381,9.3718699 h 1.9205186 q 0.1122381,0 0.1122381,-0.1122381 V 8.7109122 q 0,-0.2868307 0.2120053,-0.498836 0.2120053,-0.2120053 0.498836,-0.2120053 h 0.8230793 q 0.2868307,0 0.498836,0.2120053 0.2120053,0.2120053 0.2120053,0.498836 v 0.5487196 q 0,0.1122381 0.1122381,0.1122381 h 1.5463915 q 0.2868307,0 0.498836,0.2120052 0.2120053,0.2120053 0.2120053,0.4988359 v 0.448953 q 0,0.28683 -0.2120053,0.498835 -0.2120053,0.212006 -0.498836,0.212006 H 5.7241377 q -0.1122381,0 -0.1122381,0.09977 v 0.798138 q 0,0.09977 0.1122381,0.09977 z M 11.248746,11.31733 q 0.13718,0.249418 0.06236,0.536249 -0.07483,0.27436 -0.336715,0.399069 l -0.374127,0.199534 q -0.261888,0.13718 -0.548719,0.04988 Q 9.7771801,12.414769 9.6275293,12.15288 9.166106,11.342272 8.5924446,10.419425 8.4427938,10.170007 8.5051483,9.8831767 8.5675028,9.596346 8.8169208,9.4466952 L 9.166106,9.2471609 q 0.249418,-0.1496508 0.5237778,-0.087296 0.2868307,0.062354 0.4489522,0.3117724 0.523778,0.8355497 1.10991,1.8456927 z" />
			<path d="m 21.13817,17.166182 q 0.224476,0.174593 0.249418,0.473894 0.03741,0.286831 -0.149651,0.498836 l -0.573662,0.673429 q -0.199534,0.224476 -0.498836,0.249418 -0.28683,0.03741 -0.523777,-0.13718 -1.783339,-1.334386 -3.828567,-2.743598 -1.222148,-0.848021 -1.683571,-1.234619 -0.461423,-0.399069 -0.623545,-0.710841 -0.162122,-0.324244 -0.162122,-0.872963 0,-0.82308 0.386598,-1.24709 0.399069,-0.424011 2.057699,-1.471566 1.932989,-1.2096777 3.579148,-2.3570004 0.236947,-0.1745926 0.536249,-0.124709 0.299301,0.049884 0.473894,0.2868307 l 0.523777,0.7233122 q 0.174593,0.236947 0.124709,0.5237777 -0.03741,0.2868307 -0.274359,0.4489528 -1.52145,1.047555 -3.46691,2.244762 -0.748254,0.461423 -0.972731,0.648486 -0.224476,0.174593 -0.224476,0.324244 0,0.149651 0.187064,0.324243 0.199534,0.162122 0.935317,0.660958 2.157466,1.459095 3.928334,2.818423 z" />
		</g>
		<g class="typography fg" style="font-size:12.4709px" transform="matrix(1.3598052,0,0,1,-0.05060258,0)">
			<path d="m 11.036741,21.181811 q 0.06235,0.124709 0.174593,0.361656 0.124709,0.236947 0.174592,0.336715 0.124709,0.249418 0.03741,0.498836 -0.0873,0.249418 -0.336714,0.374127 -0.249418,0.124709 -0.511307,0.03741 -0.249418,-0.0873 -0.386598,-0.336714 -0.112238,-0.224476 -0.3616563,-0.673429 -0.124709,-0.249418 -0.049884,-0.498836 0.087296,-0.261889 0.3367143,-0.386598 0.249418,-0.124709 0.523778,-0.03741 0.27436,0.0873 0.399069,0.324243 z m -5.848852,4.738942 q -0.024942,-0.299302 0.1621217,-0.523778 0.1995344,-0.224476 0.498836,-0.249418 2.1574656,-0.174592 3.8036244,-0.187063 0.2993016,0 0.5113069,0.212005 0.212005,0.199534 0.212005,0.498836 v 0.511307 q 0,0.286831 -0.212005,0.498836 -0.1995344,0.212005 -0.4863651,0.212005 -1.6087461,0.01247 -3.7038572,0.187064 Q 5.686725,27.105488 5.4622488,26.918425 5.2377726,26.718891 5.2128308,26.43206 Z m 5.337545,4.477053 0.07482,0.598603 q 0.03741,0.299302 -0.14965,0.523778 -0.174593,0.236947 -0.4614236,0.286831 -0.997672,0.137179 -1.9205186,0.137179 -1.8456931,0 -2.9181905,-0.685899 -1.0724973,-0.685899 -1.0724973,-1.745926 0,-0.685899 0.611074,-1.38427 0.4489524,-0.498836 1.1722646,-0.236947 l 0.4863651,0.187064 q 0.2369471,0.0873 0.2868307,0.336714 0.049884,0.236947 -0.1122381,0.424011 -0.1995344,0.224476 -0.1995344,0.42401 0,0.299302 0.4364815,0.498836 0.4489523,0.187064 1.3094444,0.187064 0.8979048,0 1.6711006,-0.124709 0.2868306,-0.04988 0.5113066,0.124709 0.236947,0.174592 0.27436,0.448952 z M 7.9813705,24.461658 h -3.728799 q -0.099767,0 -0.124709,0.112238 -0.7108412,3.60409 -1.7085132,6.883936 -0.087296,0.286831 -0.3491852,0.436482 -0.2618889,0.149651 -0.5487196,0.0873 L 0.64848157,31.782076 Q 0.36165088,31.719721 0.22447098,31.482774 0.08729109,31.245827 0.17458738,30.971467 1.1099049,27.978451 1.8207461,24.561425 q 0.024942,-0.09977 -0.087296,-0.09977 H 1.0475504 q -0.28683074,0 -0.49883603,-0.212006 -0.21200529,-0.212005 -0.21200529,-0.498836 v -0.573661 q 0,-0.286831 0.21200529,-0.498836 0.21200529,-0.212005 0.49883603,-0.212005 h 1.0724973 q 0.099767,0 0.124709,-0.09977 0.012471,-0.09977 0.049884,-0.286831 0.037413,-0.187064 0.049884,-0.27436 0.049884,-0.299301 0.2743598,-0.486365 0.2369471,-0.187063 0.5362487,-0.162122 l 0.8480212,0.06236 q 0.2868306,0.02494 0.4614232,0.261889 0.1745926,0.224476 0.124709,0.498836 -0.012471,0.06235 -0.037413,0.187063 -0.012471,0.124709 -0.024942,0.187064 -0.024942,0.112238 0.087296,0.112238 h 3.3671429 q 0.074825,0 0.1745926,0.02494 0.024942,0.01247 0.037413,-0.01247 0.024942,-0.02494 0.012471,-0.04988 -0.037413,-0.0873 -0.124709,-0.249418 -0.087296,-0.162122 -0.124709,-0.236947 -0.124709,-0.236947 -0.049884,-0.486365 0.087296,-0.261889 0.3242434,-0.386598 0.249418,-0.124709 0.498836,-0.03741 0.2618889,0.0873 0.3990688,0.336715 0.062354,0.112238 0.1745926,0.336714 0.1122381,0.212005 0.1745926,0.324243 0.124709,0.249418 0.037413,0.498836 -0.087296,0.249418 -0.3367143,0.361656 -0.2369471,0.09977 -0.4364815,0.04988 -0.024942,-0.01247 -0.062354,0.01247 -0.024942,0.02494 -0.012471,0.04988 0.024942,0.09977 0.024942,0.174593 v 0.573661 q 0,0.286831 -0.2120053,0.498836 -0.2120053,0.212006 -0.498836,0.212006 z" />
			<path d="m 22.859154,23.588695 q 0.28683,0 0.498836,0.212005 0.212005,0.212005 0.212005,0.498836 v 0.573661 q 0,0.286831 -0.212005,0.498836 -0.212006,0.212006 -0.498836,0.212006 h -0.798138 q -0.112238,0 -0.112238,0.112238 v 1.010143 q 0,2.332058 -0.69837,3.404555 -0.698371,1.072498 -2.606418,1.646159 -0.286831,0.0873 -0.561191,-0.04988 -0.27436,-0.137179 -0.374127,-0.42401 l -0.249418,-0.673429 q -0.09977,-0.27436 0.02494,-0.523778 0.124709,-0.249418 0.399069,-0.336714 1.222148,-0.399069 1.52145,-0.910375 0.299301,-0.523778 0.299301,-2.132524 v -1.010143 q 0,-0.112238 -0.112238,-0.112238 h -2.419354 q -0.286831,0 -0.498836,-0.212006 Q 16.46158,25.160032 16.46158,24.873201 V 24.29954 q 0,-0.286831 0.212006,-0.498836 0.212005,-0.212005 0.498836,-0.212005 h 2.419354 q 0.112238,0 0.112238,-0.112238 v -1.421683 q 0,-0.286831 0.212005,-0.498836 0.212006,-0.212005 0.498836,-0.212005 h 0.82308 q 0.28683,0 0.498836,0.212005 0.212005,0.212005 0.212005,0.498836 v 1.421683 q 0,0.112238 0.112238,0.112238 z m -7.7569,-1.945461 q 0.27436,0.02494 0.436482,0.261889 0.162121,0.236947 0.09977,0.511307 -0.424011,1.970402 -0.424011,4.28999 0,2.319587 0.424011,4.289989 0.06235,0.27436 -0.09977,0.511307 -0.162122,0.236947 -0.436482,0.261889 l -0.935317,0.09977 q -0.299302,0.02494 -0.54872,-0.149651 -0.249418,-0.162121 -0.311772,-0.461423 -0.461424,-2.144995 -0.461424,-4.551878 0,-2.406884 0.461424,-4.551879 0.06235,-0.299301 0.311772,-0.461423 0.249418,-0.174593 0.54872,-0.149651 z" />
		</g>
	</g>
</svg>
