<?xml version="1.0" encoding="UTF-8" standalone="no"?>
<svg
	xmlns="http://www.w3.org/2000/svg"
	xmlns:cc="http://creativecommons.org/ns#"
	xmlns:dc="http://purl.org/dc/elements/1.1/"
	xmlns:inkscape="http://www.inkscape.org/namespaces/inkscape"
	xmlns:rdf="http://www.w3.org/1999/02/22-rdf-syntax-ns#"
	xmlns:sodipodi="http://sodipodi.sourceforge.net/DTD/sodipodi-0.dtd"
	xmlns:svg="http://www.w3.org/2000/svg"
	width="32"
	height="32"
	viewBox="0 0 32 32"
	version="1.1"
	inkscape:version="1.2.2 (b0a8486541, 2022-12-01)"
	aria-label="ちょっとでいいから"
	>
	<title>chottodeiikara</title>
	<metadata>
		<rdf:RDF>
			<cc:License rdf:about="http://creativecommons.org/publicdomain/zero/1.0/">
				<cc:permits rdf:resource="http://creativecommons.org/ns#Reproduction" />
				<cc:permits rdf:resource="http://creativecommons.org/ns#Distribution" />
				<cc:permits rdf:resource="http://creativecommons.org/ns#DerivativeWorks" />
			</cc:License>
			<cc:Work rdf:about="">
				<cc:license rdf:resource="http://creativecommons.org/publicdomain/zero/1.0/" />
				<dc:title>chottodeiikara</dc:title>
				<dc:creator>
					<cc:Agent>
						<dc:title>zawa-ch.</dc:title>
					</cc:Agent>
				</dc:creator>
			</cc:Work>
		</rdf:RDF>
	</metadata>
	<style>
		.typography {
			font-family: 'Rounded Mplus 1c';
			font-style: normal;
			font-variant: normal;
			font-weight: 900;
			font-stretch: normal;
			line-height: 1.05;
			text-anchor: start;
			-inkscape-font-specification: 'Rounded Mplus 1c, Black';
		}
		.fg {
			fill: mediumseagreen;
			fill-opacity: 1;
			stroke: none;
		}
	</style>
	<sodipodi:namedview
		pagecolor="#505050"
		bordercolor="#eeeeee"
		borderopacity="1"
		inkscape:showpageshadow="0"
		inkscape:pageopacity="0"
		inkscape:pagecheckerboard="0"
		inkscape:deskcolor="#505050"
		inkscape:document-units="px"
		showgrid="false"
		>
		<inkscape:grid type="xygrid" empspacing="8" />
		<sodipodi:guide position="0,32" orientation="0,32" />
		<sodipodi:guide position="32,32" orientation="32,0" />
		<sodipodi:guide position="32,0" orientation="0,-32" />
		<sodipodi:guide position="0,0" orientation="-32,0" />
	</sodipodi:namedview>
	<g inkscape:groupmode="layer" style="display:none">
		<text xml:space="preserve" x="-1.6336306" y="13.474294" class="typography fg" style="font-size:16.8416px"><tspan sodipodi:role="line" x="-1.6336306" y="13.474294" class="typography fg">ちょっとで</tspan><tspan sodipodi:role="line" x="-1.6336306" y="31.157974" class="typography fg">いいから</tspan></text>
	</g>
	<g inkscape:groupmode="layer" inkscape:label="Outline">
		<g class="typography fg" style="font-size:16.8416px" transform="matrix(0.38988571,0,0,1,2.8109189e-6,0)">
			<path d="m 12.732255,1.6851734 q 0.387356,0 0.673664,0.2863072 0.286307,0.2863072 0.286307,0.673664 v 0.7747137 q 0,0.3873568 -0.286307,0.673664 -0.286308,0.2863072 -0.673664,0.2863072 H 5.9787728 q -0.1515744,0 -0.1852576,0.1515744 -0.2526241,0.926288 -0.4378817,1.4989024 v 0.033683 h 0.033683 q 1.3978529,-0.336832 2.5767649,-0.336832 2.3578244,0 3.6209444,1.1115456 1.26312,1.1115457 1.26312,3.0988545 0,2.0378334 -1.734685,3.3009534 -1.734685,1.246279 -4.6651234,1.246279 -1.6841601,0 -3.4525281,-0.319991 Q 2.6104527,14.097433 2.3746703,13.760601 2.1557295,13.423769 2.2399375,13.036412 l 0.168416,-0.808397 q 0.084208,-0.387357 0.4041984,-0.606297 0.3199904,-0.218941 0.6905056,-0.151575 1.7010016,0.319991 2.9472801,0.319991 1.4989024,0 2.3409824,-0.555773 0.8589216,-0.555773 0.8589216,-1.4652194 0,-1.347328 -1.852576,-1.347328 -1.7178432,0 -3.1493793,0.7747136 Q 3.7893647,9.668092 2.9472847,9.33126 L 1.9536303,8.9439032 Q 1.583115,8.8091704 1.4315406,8.4554968 1.2968078,8.0849816 1.4483822,7.731308 2.2904623,5.8450487 2.6778191,4.5314039 2.7115023,4.3798295 2.5767695,4.3798295 H 0.84208463 q -0.38735681,0 -0.67366402,-0.2863072 Q -0.1178866,3.8072151 -0.1178866,3.4198583 V 2.6451446 q 0,-0.3873568 0.28630721,-0.673664 Q 0.45472782,1.6851734 0.84208463,1.6851734 H 3.1999087 q 0.1347328,0 0.168416,-0.1347328 0.067366,-0.505248 0.1010496,-0.77471361 0.050525,-0.38735681 0.3705152,-0.65682241 0.3199904,-0.26946561 0.7073472,-0.23578241 l 1.1115456,0.0673664 Q 6.0629808,-0.01582823 6.3156048,0.27047898 6.5682288,0.55678619 6.517704,0.944143 6.5008624,1.0451926 6.4671792,1.2472918 6.4503376,1.449391 6.433496,1.5504406 6.3998128,1.6851734 6.5513872,1.6851734 Z" />
			<path d="m 22.550908,11.318569 v -0.52209 q 0,-0.151574 -0.151575,-0.151574 -0.404198,-0.03368 -0.656822,-0.03368 -1.044179,0 -1.044179,0.808396 0,0.437882 0.269465,0.707348 0.269466,0.269465 0.774714,0.269465 0.454723,0 0.623139,-0.218941 0.185258,-0.235782 0.185258,-0.858921 z m 5.37247,-6.6019075 q 0.387357,0 0.673664,0.2863072 0.286307,0.2863072 0.286307,0.673664 v 0.4041984 q 0,0.3873568 -0.286307,0.673664 -0.286307,0.2863072 -0.673664,0.2863072 H 25.41398 q -0.134733,0 -0.134733,0.1347329 V 8.994428 q 0,0.168416 0.117891,0.2189408 1.246278,0.673664 2.997805,2.0546752 0.31999,0.235782 0.353674,0.639981 0.05052,0.387357 -0.2021,0.690505 l -0.336832,0.437882 q -0.252624,0.303149 -0.639981,0.336832 -0.387356,0.03368 -0.707347,-0.202099 -0.892605,-0.707347 -1.498902,-1.145229 -0.10105,-0.06737 -0.134733,0.06737 -0.370515,2.458874 -3.486211,2.458874 -1.734685,0 -2.694656,-0.825238 -0.94313,-0.808397 -0.94313,-2.3073 0,-1.4820604 0.94313,-2.3072988 0.943129,-0.8252384 2.694656,-0.8252384 0.437881,0 0.656822,0.016842 0.151575,0 0.151575,-0.1347328 V 3.7903735 q 0,-0.3873568 0.286307,-0.673664 0.286307,-0.2863073 0.673664,-0.2863073 h 0.808397 q 0.387356,0 0.673664,0.2863073 0.286307,0.2863072 0.286307,0.673664 v 0.7747136 q 0,0.1515744 0.134733,0.1515744 z" />
			<path d="m 41.09351,3.9756311 q 5.254579,0 5.254579,4.3788161 0,2.6946558 -1.953626,4.1093508 -1.936784,1.397853 -6.096659,1.532585 -0.404198,0.01684 -0.724189,-0.269465 -0.303149,-0.269466 -0.31999,-0.673664 l -0.06737,-0.673664 q -0.03368,-0.387357 0.235783,-0.673664 0.269465,-0.286308 0.656822,-0.303149 2.896755,-0.10105 4.109351,-0.825239 1.229436,-0.7241884 1.229436,-2.088358 0,-0.9768128 -0.606297,-1.4146945 -0.606298,-0.4378816 -1.987309,-0.4378816 -1.296803,0 -4.580915,0.6736641 Q 35.855772,7.394476 35.502098,7.1755352 35.165266,6.9565943 35.0979,6.5692375 L 34.963167,5.8618903 Q 34.878959,5.4745335 35.0979,5.1377015 35.316841,4.7840279 35.704197,4.7166615 39.291458,3.9756311 41.09351,3.9756311 Z" />
			<path d="m 63.257058,13.036412 q 0.05052,0.404199 -0.185258,0.707347 -0.235782,0.319991 -0.639981,0.387357 -2.357824,0.353674 -5.119846,0.353674 -6.231392,0 -6.231392,-4.378816 0,-2.1894084 2.32414,-3.8904101 0.117892,-0.084208 0.08421,-0.2189408 -0.505248,-2.189408 -0.892604,-4.3956577 -0.06737,-0.3873568 0.151574,-0.6905056 0.235782,-0.31999041 0.623139,-0.38735681 l 1.397853,-0.20209921 q 0.387357,-0.0673664 0.707347,0.16841601 0.319991,0.2357824 0.404199,0.62313921 0.387357,1.9873089 0.673664,3.2672705 0.03368,0.1515744 0.168416,0.084208 2.122041,-0.8589216 5.05248,-1.5494273 0.370515,-0.084208 0.690505,0.1347329 0.336832,0.2020992 0.42104,0.589456 l 0.218941,0.9768128 q 0.08421,0.3873568 -0.134733,0.7410304 -0.21894,0.336832 -0.589456,0.42104 -3.924092,0.9431296 -5.928243,2.0715169 -2.00415,1.1283872 -2.00415,2.0883584 0,0.8589214 0.673664,1.2799614 0.673664,0.404199 2.189408,0.404199 2.324141,0 4.783014,-0.353674 0.387357,-0.06737 0.690506,0.168416 0.31999,0.235782 0.370515,0.623139 z" />
			<path d="m 78.700803,6.3166135 q 0.185258,0.336832 0.555773,1.0441793 0.168416,0.3536736 0.03368,0.7241888 -0.134732,0.3705152 -0.488406,0.5389312 -0.370515,0.168416 -0.74103,0.033683 Q 77.690307,8.5228632 77.50505,8.1691896 77.420842,8.0176152 76.966119,7.1755352 76.780861,6.8387031 76.898752,6.4681879 77.016643,6.0976727 77.370317,5.9124151 h 0.01684 q 0.353673,-0.1852576 0.74103,-0.067366 0.387357,0.1178912 0.572614,0.4715648 z m 2.694656,-0.6062976 q 0.555773,1.0610208 0.572615,1.094704 0.185257,0.3536737 0.05052,0.7241889 Q 81.900707,7.899724 81.547034,8.06814 l -0.05052,0.033683 Q 81.142835,8.2702392 80.755479,8.152348 80.384963,8.0176152 80.199706,7.6639416 80.115498,7.4955256 79.93024,7.141852 79.744983,6.7881783 79.643933,6.6197623 79.458675,6.2829303 79.559725,5.8955735 79.677616,5.5082167 80.03129,5.3398007 l 0.05053,-0.016842 q 0.353673,-0.1852576 0.74103,-0.067366 0.387357,0.1010496 0.572614,0.4547232 z m -2.256774,6.7197981 0.117891,1.027338 q 0.05053,0.404199 -0.185257,0.724189 -0.235783,0.31999 -0.639981,0.370515 -0.774714,0.10105 -1.583111,0.10105 -3.098854,0 -4.968272,-1.583111 -1.852576,-1.599952 -1.852576,-4.3114494 0,-1.26312 0.673664,-2.5262401 0.673664,-1.26312 1.835735,-2.1557248 0.01684,0 0.01684,-0.033683 0,-0.016842 -0.01684,-0.016842 -2.408349,0.067366 -4.799857,0.1010496 -0.387356,0 -0.673664,-0.2863072 -0.269465,-0.2863072 -0.269465,-0.673664 V 2.2241046 q 0,-0.3873568 0.269465,-0.673664 0.286308,-0.2863072 0.673664,-0.2863072 6.5177,-0.033683 12.159636,-0.2863072 0.387357,-0.0168416 0.673664,0.252624 0.303149,0.2694656 0.31999,0.6568224 l 0.01684,0.9431296 q 0.01684,0.4041985 -0.252624,0.7073473 -0.269466,0.2863072 -0.673664,0.3199904 -3.233587,0.3199904 -4.867223,1.5325856 -1.633635,1.2125952 -1.633635,3.0314881 0,1.5325856 0.976813,2.4083484 0.976813,0.875764 2.559923,0.875764 0.52209,0 1.04418,-0.06737 0.404198,-0.05053 0.707347,0.185258 0.31999,0.218941 0.370515,0.606297 z" />
		</g>
		<g class="typography fg" style="font-size:16.8416px" transform="matrix(0.50094068,0,0,1,0.05043205,0)">
			<path d="m 10.829154,19.301487 q 0.404198,-0.117892 0.774713,0.05052 0.370516,0.168416 0.52209,0.538932 1.734685,4.2104 1.886259,9.464979 0.01684,0.387357 -0.269465,0.673664 -0.286308,0.286307 -0.673664,0.286307 h -1.279962 q -0.387357,0 -0.673664,-0.269465 -0.286307,-0.286307 -0.303149,-0.673664 -0.151574,-4.530391 -1.6504768,-8.606058 -0.1347328,-0.370515 0.033683,-0.707347 0.168416,-0.353674 0.5389312,-0.454724 z m -2.5767652,7.140838 q 0.3705152,0.134733 0.5389312,0.505248 0.168416,0.353674 0.016842,0.724189 -0.8926048,2.138883 -2.189408,3.317795 -1.2799617,1.178912 -2.5262401,1.178912 -1.5494272,0 -2.8799137,-2.00415 -1.3304864,-2.004151 -1.3304864,-4.900906 0,-2.593606 0.65682242,-5.136688 0.1010496,-0.404198 0.43788161,-0.639981 Q 1.330491,19.250962 1.7515311,19.301487 l 1.2294368,0.134732 q 0.3705152,0.03368 0.5726144,0.353674 0.2189408,0.303149 0.1347328,0.673664 -0.6062976,2.559923 -0.6062976,4.799856 0,0.791555 0.1178912,1.515744 0.1347328,0.707347 0.336832,1.178912 0.2020992,0.454723 0.4041984,0.741031 0.2189408,0.269465 0.4041984,0.269465 0.2694656,0 0.7410304,-0.589456 0.4715648,-0.606297 0.9936545,-1.751526 0.168416,-0.353674 0.5220896,-0.505248 0.3705152,-0.151575 0.7410304,-0.01684 z" />
			<path d="m 27.670754,19.301487 q 0.404199,-0.117892 0.774714,0.05052 0.370515,0.168416 0.522089,0.538932 1.734685,4.2104 1.88626,9.464979 0.01684,0.387357 -0.269466,0.673664 -0.286307,0.286307 -0.673664,0.286307 h -1.279962 q -0.387356,0 -0.673664,-0.269465 -0.286307,-0.286307 -0.303149,-0.673664 -0.151574,-4.530391 -1.650476,-8.606058 -0.134733,-0.370515 0.03368,-0.707347 0.168416,-0.353674 0.538931,-0.454724 z m -2.576765,7.140838 q 0.370515,0.134733 0.538931,0.505248 0.168416,0.353674 0.01684,0.724189 -0.892605,2.138883 -2.189408,3.317795 -1.279962,1.178912 -2.52624,1.178912 -1.549427,0 -2.879914,-2.00415 -1.330486,-2.004151 -1.330486,-4.900906 0,-2.593606 0.656822,-5.136688 0.10105,-0.404198 0.437882,-0.639981 0.353673,-0.235782 0.774713,-0.185257 l 1.229437,0.134732 q 0.370516,0.03368 0.572615,0.353674 0.218941,0.303149 0.134733,0.673664 -0.606298,2.559923 -0.606298,4.799856 0,0.791555 0.117891,1.515744 0.134733,0.707347 0.336832,1.178912 0.202099,0.454723 0.404199,0.741031 0.21894,0.269465 0.404198,0.269465 0.269466,0 0.74103,-0.589456 0.471565,-0.606297 0.993655,-1.751526 0.168416,-0.353674 0.522089,-0.505248 0.370516,-0.151575 0.741031,-0.01684 z" />
			<path d="m 39.358825,20.379349 q 0.943129,0 1.381011,0 0.437882,0 1.010496,0.117891 0.589456,0.10105 0.774714,0.168416 0.202099,0.06737 0.488406,0.437882 0.286307,0.370515 0.336832,0.639981 0.05053,0.269465 0.134733,1.027337 0.08421,0.741031 0.08421,1.330487 0,0.589456 0,1.835734 0,3.351479 -0.825239,4.799856 -0.808396,1.431536 -2.374665,1.431536 -1.128387,0 -2.778864,-0.404198 -0.387357,-0.10105 -0.589456,-0.454723 -0.202099,-0.353674 -0.10105,-0.741031 l 0.202099,-0.84208 q 0.10105,-0.370515 0.437882,-0.572614 0.336832,-0.202099 0.724189,-0.117891 1.077862,0.269465 1.431536,0.269465 0.673664,0 0.673664,-3.873568 0,-1.751526 -0.134733,-2.054675 -0.117891,-0.303149 -0.875763,-0.303149 h -1.162071 q -0.151574,0 -0.185257,0.134733 -0.909447,4.075667 -2.374666,8.218701 -0.134733,0.387357 -0.505248,0.555773 -0.353674,0.185257 -0.724189,0.06737 l -0.791555,-0.269465 q -0.370515,-0.117892 -0.555773,-0.471565 -0.168416,-0.336832 -0.03368,-0.724189 1.212595,-3.604103 2.071517,-7.359779 0.03368,-0.151575 -0.10105,-0.151575 h -1.077862 q -0.387357,0 -0.673664,-0.286307 -0.286307,-0.286307 -0.286307,-0.673664 V 21.33932 q 0,-0.387357 0.286307,-0.673664 0.286307,-0.286307 0.673664,-0.286307 h 1.633635 q 0.134733,0 0.168416,-0.134733 0.117891,-0.589456 0.370515,-2.122041 0.06737,-0.404199 0.387357,-0.656823 0.319991,-0.269465 0.724189,-0.235782 l 0.858922,0.06737 q 0.387356,0.03368 0.63998,0.336832 0.252624,0.286307 0.2021,0.656823 -0.134733,1.010496 -0.303149,1.953625 -0.03368,0.134733 0.117891,0.134733 z m 7.225046,-0.10105 q 1.061021,3.132538 1.970468,6.601908 0.101049,0.370515 -0.10105,0.707347 -0.202099,0.336832 -0.589456,0.42104 L 46.785971,28.27806 Q 46.398614,28.362268 46.061782,28.160168 45.72495,27.958069 45.6239,27.570712 44.815503,24.4887 43.636591,21.002488 q -0.117891,-0.370515 0.06737,-0.707347 0.185257,-0.336832 0.555773,-0.42104 l 1.077862,-0.269466 q 0.387357,-0.101049 0.74103,0.10105 0.370516,0.185258 0.505248,0.572614 z" />
			<path d="m 58.979291,23.074005 q 2.660973,0 3.856727,1.027338 1.195753,1.010496 1.195753,3.183062 0,2.256775 -1.936784,3.57042 -1.919942,1.313644 -5.47352,1.313644 -1.667318,0 -3.351478,-0.151574 -0.387357,-0.03368 -0.639981,-0.353674 -0.252624,-0.303148 -0.218941,-0.690505 l 0.08421,-0.808397 q 0.03368,-0.387357 0.336832,-0.623139 0.303149,-0.252624 0.690506,-0.218941 1.802051,0.151574 3.098854,0.151574 1.768368,0 2.778864,-0.606297 1.010496,-0.62314 1.010496,-1.583111 0,-1.515744 -1.936784,-1.515744 -1.364169,0 -3.873568,1.313645 -0.84208,0.454723 -1.78521,0.269466 l -0.976812,-0.218941 q -0.387357,-0.06737 -0.62314,-0.387357 -0.21894,-0.336832 -0.151574,-0.724189 0.269466,-1.566269 0.538931,-3.351478 0.06737,-0.404199 0.370515,-0.639981 0.319991,-0.252624 0.724189,-0.218941 l 1.195754,0.08421 q 0.387357,0.03368 0.639981,0.353674 0.252624,0.303149 0.202099,0.690505 -0.03368,0.286308 -0.117891,0.808397 -0.06737,0.505248 -0.10105,0.741031 v 0.01684 h 0.03368 q 2.391508,-1.431536 4.429341,-1.431536 z m -4.513549,-4.783014 q 3.46937,0.353673 6.585066,0.404198 0.387357,0 0.673664,0.286307 0.286307,0.286307 0.286307,0.673664 v 0.774714 q 0,0.387357 -0.286307,0.673664 -0.286307,0.286307 -0.673664,0.286307 -3.671469,-0.05053 -6.938739,-0.404198 -0.387357,-0.03368 -0.639981,-0.336832 -0.235783,-0.319991 -0.185258,-0.707348 l 0.10105,-0.808396 q 0.05053,-0.387357 0.370515,-0.62314 0.31999,-0.252624 0.707347,-0.21894 z" />
		</g>
	</g>
</svg>
