<?xml version="1.0" encoding="UTF-8" standalone="no"?>
<svg
	xmlns="http://www.w3.org/2000/svg"
	xmlns:cc="http://creativecommons.org/ns#"
	xmlns:dc="http://purl.org/dc/elements/1.1/"
	xmlns:inkscape="http://www.inkscape.org/namespaces/inkscape"
	xmlns:rdf="http://www.w3.org/1999/02/22-rdf-syntax-ns#"
	xmlns:sodipodi="http://sodipodi.sourceforge.net/DTD/sodipodi-0.dtd"
	xmlns:svg="http://www.w3.org/2000/svg"
	width="32"
	height="32"
	viewBox="0 0 32 32"
	version="1.1"
	inkscape:version="1.3 (0e150ed6c4, 2023-07-21)"
	aria-label="ほんまや"
	>
	<title>honmaya</title>
	<metadata>
		<rdf:RDF>
			<cc:License rdf:about="http://creativecommons.org/publicdomain/zero/1.0/">
				<cc:permits rdf:resource="http://creativecommons.org/ns#Reproduction" />
				<cc:permits rdf:resource="http://creativecommons.org/ns#Distribution" />
				<cc:permits rdf:resource="http://creativecommons.org/ns#DerivativeWorks" />
			</cc:License>
			<cc:Work rdf:about="">
				<cc:license rdf:resource="http://creativecommons.org/publicdomain/zero/1.0/" />
				<dc:title>honmaya</dc:title>
				<dc:creator><cc:Agent><dc:title>zawa-ch.</dc:title></cc:Agent></dc:creator>
			</cc:Work>
		</rdf:RDF>
	</metadata>
	<style>
		.typography { 
			font-family:'Noto Sans CJK JP';
			font-style: normal;
			font-variant: normal;
			font-weight: 900;
			font-stretch: normal;
			line-height: 1.05;
			text-anchor: start;
			-inkscape-font-specification:'Noto Sans CJK JP, Black';
		}
		.fg {
			fill: orangered;
			fill-opacity: 1;
			stroke: none;
		}
	</style>
	<sodipodi:namedview
		pagecolor="#505050"
		bordercolor="#eeeeee"
		borderopacity="1"
		inkscape:showpageshadow="0"
		inkscape:pageopacity="0"
		inkscape:pagecheckerboard="0"
		inkscape:deskcolor="#505050"
		inkscape:document-units="px"
		showgrid="false"
		>
		<inkscape:grid type="xygrid" empspacing="8" />
		<sodipodi:guide position="0,32" orientation="0,32" />
		<sodipodi:guide position="32,32" orientation="32,0" />
		<sodipodi:guide position="32,0" orientation="0,-32" />
		<sodipodi:guide position="0,0" orientation="-32,0" />
	</sodipodi:namedview>
	<g inkscape:groupmode="layer" display="none">
		<text xml:space="preserve" x="-1.3229975" y="13.428424" class="typography fg" style="font-size:16.5375px;"><tspan sodipodi:role="line" x="-1.3229975" y="13.428424" class="typography fg">ほん</tspan><tspan sodipodi:role="line" x="-1.3229975" y="30.792767" class="typography fg">まや</tspan></text>
	</g>
	<g inkscape:groupmode="layer">
		<g class="typography fg" aria-label="ほんまや">
			<path d="M 3.6590813,0.51263608 0.81313122,0.28111108 C 0.79619104,0.89299859 0.69454997,1.6702611 0.62678925,2.1498486 0.44044729,3.3736236 2.6425029e-6,6.5488237 2.6425029e-6,9.0790613 2.6425029e-6,11.328161 0.33880622,13.263049 0.69454997,14.387599 L 3.0492347,14.222224 c -0.016941,-0.2646 -0.016941,-0.562275 -0.016941,-0.744188 0,-0.165375 0.05082,-0.545737 0.1016411,-0.777262 C 3.337217,11.741599 3.8454223,10.071311 4.3536276,8.5829363 L 3.1169955,7.6072237 c -0.2202224,0.4961251 -0.4573849,0.8764876 -0.660667,1.3560751 -0.016941,-0.06615 -0.016941,-0.3969 -0.016941,-0.4465125 0,-1.5379876 0.5590259,-5.4573752 0.7623081,-6.3173252 0.067761,-0.297675 0.3049232,-1.32300001 0.4573857,-1.68682502 z M 9.2324,10.666661 v 0.231525 c 0,0.744188 -0.3896241,1.141088 -1.2196928,1.141088 -0.6267867,0 -1.033351,-0.2646 -1.033351,-0.744188 0,-0.46305 0.3896241,-0.760725 1.2027527,-0.760725 0.3388036,0 0.6945473,0.04961 1.0502911,0.1323 z M 5.6410821,0.94261109 V 3.1586361 c 1.236633,0.049613 2.3885652,0.06615 3.4557965,0.06615 V 4.9446862 C 7.9110661,4.9612237 6.674433,4.9281487 5.3869794,4.8289237 l 0.016941,2.2987125 c 1.2705134,0.049612 2.5240867,0.082687 3.7098992,0.06615 l 0.050821,1.5214501 C 8.8766562,8.6986988 8.571733,8.6821613 8.2668098,8.6821613 c -2.3208045,0 -3.608258,1.1907 -3.608258,2.7948377 0,1.91835 1.6940178,2.7783 3.7098991,2.7783 2.3038641,0 3.2525141,-0.975713 3.3372151,-2.414475 0.694548,0.479587 1.372155,1.041862 1.982001,1.65375 l 1.338274,-2.166413 c -0.559026,-0.479587 -1.710958,-1.4387622 -3.421916,-2.0671872 -0.03389,-0.6449625 -0.0847,-1.356075 -0.101636,-2.1498751 0.999471,-0.049613 1.8973,-0.1157625 2.693489,-0.2149875 V 4.5973987 c -0.847009,0.099225 -1.761779,0.1819125 -2.710429,0.2480625 V 3.1420986 c 0.863949,-0.049613 1.643197,-0.1157625 2.371625,-0.19845 V 0.72762359 C 11.705666,1.0418361 8.944417,1.1906736 5.6410821,0.94261109 Z M 25.647433,1.1410611 22.733722,-2.6428223e-5 C 22.377979,0.81031109 22.005295,1.4387361 21.785072,1.9017861 20.887243,3.4728487 17.550028,10.203611 16.296455,13.494574 l 2.91371,0.959175 c 0.271043,-0.909563 0.779248,-2.695613 1.185813,-3.654788 0.575966,-1.3560747 1.355214,-2.3979372 2.388565,-2.3979372 0.525145,0 0.796188,0.297675 0.847009,0.7938 0.05082,0.5457375 0.05082,1.9348872 0.118581,2.7783002 0.0847,1.323 1.118052,2.414475 3.032292,2.414475 2.693488,0 4.336686,-1.901813 5.217575,-4.8454877 L 29.763897,7.7725988 c -0.508206,2.216025 -1.304395,3.8367002 -2.541027,3.8367002 -0.457385,0 -0.86395,-0.19845 -0.93171,-0.744188 -0.101647,-0.628425 -0.05082,-1.9844997 -0.0847,-2.5798497 -0.0847,-1.4222251 -0.813128,-2.2491001 -2.168343,-2.2491001 -0.542085,0 -1.084171,0.06615 -1.609317,0.2149875 0.813128,-1.38915 1.795659,-3.1421251 2.676548,-4.3493626 0.186343,-0.2480625 0.355744,-0.5292 0.542086,-0.760725 z" />
			<path d="m 6.5341127,28.130261 0.017184,0.479587 c 0,0.843413 -0.4811369,1.074938 -1.3574933,1.074938 -0.8935399,0 -1.4605941,-0.281138 -1.4605941,-0.826875 0,-0.46305 0.5498707,-0.826875 1.5121445,-0.826875 0.4467699,0 0.8763564,0.03308 1.2887594,0.09923 z m -5.0003869,-5.837738 0.034367,2.348325 c 1.0825579,0.1323 3.0586559,0.214988 3.9693793,0.214988 h 0.8419895 l 0.051551,1.157625 -0.8419895,-0.03308 c -2.7321702,0 -4.3817824,1.25685 -4.3817824,3.026362 0,1.835663 1.494961,2.943676 4.3989658,2.943676 2.2682168,0 3.5741597,-1.058401 3.5741597,-2.612926 v -0.33075 c 1.1856598,0.578813 2.2338498,1.372613 3.0758398,2.149876 l 1.494961,-2.232563 C 12.754525,28.113723 11.156464,27.055323 9.0428979,26.459973 l -0.1031007,-1.65375 c 1.6324288,-0.04961 2.8868208,-0.148837 4.3989658,-0.297675 l 0.01719,-2.348325 c -1.323127,0.148838 -2.697804,0.297675 -4.4677001,0.380363 l 0.017184,-1.372613 c 1.6496091,-0.06615 3.1617541,-0.19845 4.1927611,-0.347287 l 0.01719,-2.282175 c -1.494961,0.231525 -2.852454,0.363825 -4.1755807,0.429975 l 0.017184,-0.479588 c 0.017184,-0.3969 0.068734,-0.85995 0.1202843,-1.207237 H 6.2591774 c 0.085917,0.363825 0.1202842,0.893025 0.1202842,1.207237 v 0.562275 H 5.795224 c -0.9966407,0 -2.8696379,-0.165375 -4.1583974,-0.363825 l 0.051551,2.265638 c 1.1684753,0.148837 3.0930229,0.297675 4.1240304,0.297675 h 0.5498707 l -0.017184,1.356075 H 5.571839 c -0.7904392,0 -2.9727387,-0.115763 -4.0381132,-0.314213 z m 14.6746752,0.85995 1.202842,2.530238 c 0.704521,-0.314213 1.73553,-0.843413 2.904005,-1.422225 l 0.360852,0.826875 c 0.824806,1.885275 1.752713,4.7628 2.285401,6.912675 l 2.869637,-0.694575 C 25.264085,29.420186 23.80349,25.633098 23.064602,23.979348 l -0.378036,-0.843412 c 1.735529,-0.760725 3.505425,-1.38915 4.742635,-1.38915 1.065374,0 1.804262,0.562275 1.804262,1.323 0,1.1907 -1.031007,1.686825 -1.993281,1.686825 -0.652971,0 -1.512144,-0.231525 -2.336951,-0.562275 l -0.06873,2.5137 c 0.652971,0.231525 1.769896,0.46305 2.697803,0.46305 2.594702,0 4.4677,-1.471838 4.4677,-4.018613 0,-1.9845 -1.701163,-3.687862 -4.502067,-3.687862 -0.738889,0 -1.512144,0.1323 -2.319767,0.347287 l 1.323127,-0.909562 c -0.567055,-0.578813 -1.838631,-1.65375 -2.474418,-2.133338 l -1.924548,1.273388 c 0.584238,0.429975 1.615245,1.405687 2.23385,2.017575 -0.84199,0.281137 -1.718346,0.628425 -2.611886,1.008787 L 21.01977,19.696136 c -0.189018,-0.314213 -0.567054,-1.074938 -0.721706,-1.405688 l -2.697803,1.008788 c 0.378036,0.46305 0.84199,1.141087 1.116925,1.5876 0.223385,0.380362 0.429587,0.777262 0.635789,1.174162 l -1.271578,0.512663 c -0.274935,0.115762 -1.099741,0.3969 -1.872996,0.578812 z" />
		</g>
	</g>
</svg>
