<?xml version="1.0" encoding="UTF-8" standalone="no"?>
<svg
	xmlns="http://www.w3.org/2000/svg"
	xmlns:cc="http://creativecommons.org/ns#"
	xmlns:dc="http://purl.org/dc/elements/1.1/"
	xmlns:inkscape="http://www.inkscape.org/namespaces/inkscape"
	xmlns:rdf="http://www.w3.org/1999/02/22-rdf-syntax-ns#"
	xmlns:sodipodi="http://sodipodi.sourceforge.net/DTD/sodipodi-0.dtd"
	xmlns:svg="http://www.w3.org/2000/svg"
	width="32"
	height="32"
	viewBox="0 0 32 32"
	version="1.1"
	inkscape:version="1.2.2 (b0a8486541, 2022-12-01)"
	aria-label="地獄マン"
	>
	<title>jigokuman</title>
	<metadata
		 id="metadata4">
		<rdf:RDF>
			<cc:License rdf:about="http://creativecommons.org/publicdomain/zero/1.0/">
				<cc:permits rdf:resource="http://creativecommons.org/ns#Reproduction" />
				<cc:permits rdf:resource="http://creativecommons.org/ns#Distribution" />
				<cc:permits rdf:resource="http://creativecommons.org/ns#DerivativeWorks" />
			</cc:License>
			<cc:Work>
				<cc:license rdf:resource="http://creativecommons.org/publicdomain/zero/1.0/" />
				<dc:title>jigokuman</dc:title>
				<dc:creator>
					<cc:Agent>
						<dc:title>zawa-ch.</dc:title>
					</cc:Agent>
				</dc:creator>
			</cc:Work>
		</rdf:RDF>
	</metadata>
	<style>
		.typography {
			font-family:'チョークS';
			font-style:normal;
			font-variant:normal;
			font-weight:normal;
			font-stretch:normal;
			line-height:1.05;
			text-anchor:start;
			-inkscape-font-specification:'チョークS, Normal';
		}
		.font1 {
			font-family:'チョークS';
			font-style:normal;
			font-variant:normal;
			font-weight:normal;
			font-stretch:normal;
			-inkscape-font-specification:'チョークS, Normal';
		}
		.font2 {
			font-family:'レゲエ One';
			font-style:normal;
			font-variant:normal;
			font-weight:normal;
			font-stretch:normal;
			-inkscape-font-specification:'レゲエ One, Normal';
		}
		.fg {
			fill:crimson;
			fill-opacity:1;
			stroke:none;
		}
	</style>
	<sodipodi:namedview
		pagecolor="#505050"
		bordercolor="#eeeeee"
		borderopacity="1"
		inkscape:showpageshadow="0"
		inkscape:pageopacity="0"
		inkscape:pagecheckerboard="0"
		inkscape:deskcolor="#505050"
		inkscape:document-units="px"
		showgrid="false"
		>
		<sodipodi:guide position="0,0" orientation="32,0" />
		<sodipodi:guide position="16,0" orientation="32,0" />
		<sodipodi:guide position="32,0" orientation="32,0" />
		<sodipodi:guide position="0,0" orientation="0,32" />
		<sodipodi:guide position="0,16" orientation="0,32" />
		<sodipodi:guide position="0,32" orientation="0,32" />
	</sodipodi:namedview>
	<g inkscape:groupmode="layer" display="none">
		<text x="-1.0993017" y="13.191634" xml:space="preserve" class="typography fg" style="font-size:17.1766px"><tspan sodipodi:role="line" x="-1.0993017" y="13.191634" class="font1 fg">地獄</tspan><tspan sodipodi:role="line" x="-1.0993017" y="31.227062" class="font2 fg">マン</tspan></text>
	</g>
	<g inkscape:groupmode="layer" inkscape:label="Outline">
		<g class="typography fg">
			<g aria-label="地獄" class="font1 fg" transform="scale(0.98467228,1)">
				<path d="m 6.7160511,1.7863721 -0.3607086,0.6527108 -0.4122384,0.4122384 0.515298,0.6183576 0.171766,0.6870639 -0.1545894,-0.034353 0.171766,0.7901236 -0.2748256,0.257649 0.2232958,0.515298 -0.1889426,0.772947 0.1545894,0.8244767 -0.1374128,0.3950618 0.2061192,0.3950618 -0.1889426,0.6183576 0.1889426,0.171766 -0.034353,0.944713 0.1030596,-0.05153 0.1545894,1.0305957 -0.1030596,0.584005 0.2061192,0.549651 -0.2061192,0.532474 0.429415,0.480945 -0.257649,0.429415 0.8073001,0.498122 0.8244768,-0.377886 0.2232958,-0.06871 0.8073002,0.06871 0.6355336,-0.292002 0.429415,0.360709 0.240473,-0.584005 0.360708,0.120237 h 0.927537 l 0.480945,-0.171766 0.532474,0.326355 0.601181,-0.360709 0.08588,0.137413 0.721417,-0.03435 0.377885,-0.10306 0.360709,-0.532474 -0.206119,-0.755771 0.120236,-0.223295 -0.480945,-0.566828 0.10306,-0.9103599 -0.549651,-0.034353 -0.480945,0.9790659 -0.395062,0.635534 -0.03435,0.01718 -0.566828,0.480945 -0.566828,0.103059 H 11.765971 L 11.422439,11.851865 10.907141,12.092338 9.9967818,12.28128 9.9108988,12.161044 9.2238348,12.38434 8.5883006,12.47022 8.2447686,11.800333 8.0730026,11.542684 V 10.907146 L 8.1417088,10.409025 7.8497066,9.7391377 7.7810002,9.0864269 7.8497066,8.7257183 8.347828,8.0558309 7.9699428,7.8668883 8.2791216,7.4202967 8.2104152,6.7504094 8.347828,5.8572262 8.8115962,6.0976986 9.4986602,5.5480474 9.3440708,6.3897008 9.807839,6.767586 9.4127772,6.9565286 9.464307,7.8497117 9.807839,8.2104203 9.4471304,8.5195991 9.206658,9.4471355 l 0.824477,0.7901235 0.601181,-0.3607085 0.377885,-0.343532 0.06871,-0.6698874 -0.223295,-0.5496512 0.326355,-0.7214172 -0.566828,-0.2061192 0.498122,-0.3435319 0.06871,-0.9962428 0.06871,-0.3778852 -0.154589,-0.4981214 0.652711,-0.3091788 0.601181,-0.034353 0.566827,-0.1202362 -0.498121,0.7385938 -0.08588,0.4465916 0.360709,0.429415 -0.429415,0.8931832 -0.10306,0.3263553 -0.01718,0.772947 -0.807301,0.3263554 0.343532,0.8244768 0.824477,-0.2232958 0.292002,0.3778852 0.738594,-0.7214172 0.377885,-0.171766 0.08588,-0.3607086 -0.171766,-0.5668278 -0.240472,-0.6183575 0.05153,-0.4637682 0.515298,-0.343532 0.103059,-0.8244768 -0.549651,-0.171766 0.549651,-1.0993024 0.05153,-0.2232958 -0.360709,-0.7729469 0.377886,-0.1374128 -0.20612,-0.257649 -0.480944,-0.343532 -0.772947,0.601181 -0.292002,0.3091788 -0.687064,-0.05153 -0.06871,-0.2232958 -0.721417,0.2404724 -0.309179,-0.772947 0.223296,-0.8073002 0.10306,0.085883 L 11.044554,1.2195443 10.821258,0.30918455 10.477726,5.7601929e-6 10.168548,0.20612495 9.7563092,0.39506755 9.8421922,1.3226039 10.048311,1.7348423 9.464307,2.3188467 9.6532496,2.5593191 9.4127772,2.9372043 9.3612474,3.9506236 9.2581878,4.2598024 8.519594,4.5174514 8.5539472,4.7579238 7.6951172,4.3456854 V 3.7445045 L 7.918413,3.4181491 7.7122938,3.1261469 7.9699428,2.1299041 6.9049937,1.9924913 Z M 6.7234039e-7,10.151376 0.15459007,11.096089 h 0.0515298 l 0.61835758,0.309179 0.51529795,0.154589 0.2232958,-0.584004 0.4809448,-0.206119 0.7214172,0.240472 0.2920022,-0.669887 0.9790662,0.08588 -0.05153,-0.171766 1.0821257,-0.05153 L 5.3762763,9.8250207 5.7713381,9.4471355 5.4965125,9.1207801 4.7407421,8.4852459 4.2597973,8.4165395 4.1223846,8.7257183 3.7788526,8.2447735 3.58991,8.2619501 3.9162654,7.4890031 3.8819122,7.197001 3.4353206,6.4584072 3.7788526,5.9259326 4.2426207,5.5308708 5.0670975,5.3591048 5.7885147,5.2903984 5.1529805,4.5861578 4.9125081,4.01933 4.2426207,4.620511 3.6929696,3.6242683 3.7273228,3.1089703 3.6586164,3.1261469 3.675793,2.4390829 3.933442,1.5458997 3.4353206,1.1680145 3.0230822,0.51530375 2.73108,0.77295274 2.5764906,1.2710741 2.2329586,1.6317827 2.5764906,2.0268445 2.2844884,2.5593191 1.958133,3.2463831 2.0611926,3.6929747 2.044016,4.2082726 2.4390778,4.6720408 2.1470756,5.6167538 2.215782,5.6682836 1.9237798,6.7847626 1.87225,6.767586 2.4906076,7.7294755 2.215782,8.2619501 1.8894266,8.8803077 2.1642522,9.3956057 1.614601,9.4643121 1.442835,10.202906 0.87600725,10.357495 Z M 0.13741347,5.479341 1.0305966,5.822873 1.2367158,6.252288 2.0096628,5.2045154 V 4.8438068 L 1.4084818,4.3800386 0.60118165,4.7235706 0.27482626,5.4278112 Z M 4.6720357,6.6129966 5.1186273,6.8706456 5.4965125,7.3687669 6.3038127,6.4068774 6.2007531,5.6854602 5.4106295,5.908756 4.8953315,5.9774624 Z m 3.0574347,7.2485254 0.1202362,0.06871 z" />
				<path d="m 30.454112,1.6146061 -0.171766,0.4981214 -0.188943,0.171766 0.257649,1.1336556 0.96189,-0.1030596 0.240472,-0.7557704 -0.515298,-0.4465916 0.188943,-0.601181 z M 17.1766,9.8421973 l 1.116479,-0.257649 0.274826,-0.3607086 0.240472,0.034353 0.120236,-0.85883 0.10306,-0.171766 0.618358,-0.1889426 v 0.1030596 l -0.171766,0.085883 0.515297,0.4122384 -0.343531,0.7557704 0.103059,0.4122384 0.137413,0.5324751 0.154589,0.377885 -0.446591,0.91036 -0.584005,0.154589 -0.223295,-0.292002 -1.082126,0.566828 0.498121,0.515298 0.944713,0.70424 0.274826,-0.137413 0.8073,-0.103059 0.412238,0.8073 0.08588,-0.532475 0.01718,-0.618357 0.292002,-0.377885 -0.06871,-0.876007 -0.03435,-0.429415 0.188943,-0.274826 -0.446592,-0.532474 0.03435,-0.3435323 0.292002,-0.9790662 0.03435,-0.3091788 -0.240472,-0.6183576 -0.06871,-0.068706 0.292002,-0.8931831 0.01718,-0.3950618 -0.137413,-0.3091788 -0.05153,-0.6355342 -0.103059,-0.944713 -0.05153,-0.9275363 -0.446592,0.085883 0.171766,-1.5115407 0.257649,0.1202362 0.01718,-0.687064 L 21.333333,1.116485 21.350513,0.39506785 20.61192,0.96189533 19.942033,0.77295274 19.838973,1.5802529 19.272145,1.2023677 18.99732,1.2195443 18.430492,0.92754213 17.691898,0.56683354 17.399896,1.1336613 l 0.395062,0.2748256 0.05153,0.343532 0.70424,0.5324746 -0.171766,1.1508322 -0.790123,0.1030596 -0.309179,0.7214171 0.08588,0.2404724 -0.15459,0.9103598 1.030596,0.05153 0.01718,-0.2404724 0.584004,-0.9618896 0.20612,0.601181 L 19.907679,5.273222 19.564148,6.2694648 19.512618,6.475584 19.083203,6.1492284 19.031673,6.767586 18.533552,7.1798244 18.08696,7.7466521 17.502956,8.2447735 17.1766,8.2619501 Z m 4.122384,-6.5786376 0.841653,0.7214171 0.480945,-0.2576489 0.480945,0.2920021 -0.01718,-0.3607085 0.687064,0.4294149 0.395062,-0.171766 0.566828,-0.034353 0.738594,0.257649 0.635534,-0.6870639 0.395062,-0.5324746 -0.395062,-0.6527108 -0.532475,0.068706 -0.65271,0.2404724 -0.704241,-0.1374128 h -0.0687 l 0.429415,-0.2232958 0.223295,-0.8416534 -0.8073,-0.72141716 -0.498121,0.34353199 -0.480945,-0.75577038 -0.652711,0.257649 0.377885,0.94471295 0.669888,0.068706 0.274825,0.7385938 0.08588,0.257649 -0.377885,0.3778852 -0.70424,-0.05153 -0.876007,0.171766 z m 0.274826,6.3725184 0.223295,0.7042409 0.01718,-0.137413 0.154589,0.85883 -0.223295,0.652711 0.326355,0.343532 -0.240472,0.566827 0.65271,0.137413 0.171766,0.841654 0.532475,-0.91036 0.446592,-0.635534 -0.601181,-0.326356 0.223295,-0.360708 0.05153,-0.601181 0.06871,-0.377886 -0.326356,-0.8588295 -0.03435,-0.5324746 -0.395062,-0.429415 z M 21.779929,5.393458 22.707465,6.3725242 23.033821,6.0976986 23.635002,6.0289922 24.253359,5.8056964 24.751481,5.6167538 25.352662,6.2351114 25.936666,5.393458 25.507251,4.8953366 24.9576,4.964043 24.442302,5.049926 23.325823,4.9468664 23.068174,5.049926 22.638759,4.964043 Z m 0.257649,2.4734303 0.85883,0.3263554 0.618357,0.171766 0.171766,-0.601181 0.566828,0.085883 h 0.566828 L 25.404191,7.8153585 25.850783,7.0767648 24.511008,6.8878222 24.012887,6.6129966 23.772414,7.1626478 23.377353,6.939352 22.466993,7.2657073 Z m 1.356951,2.0783686 0.721417,-0.085883 0.395062,0.5840041 0.480945,0.360709 -0.463768,0.91036 -0.03435,0.257649 -0.463769,0.772947 0.412239,0.412238 0.120236,0.06871 0.721417,-0.377885 0.446592,-0.498121 0.360708,-0.326356 -0.206119,-0.154589 -0.03435,-0.996243 0.412238,-0.549651 -0.05153,-0.188943 0.154589,-0.7042401 0.03435,-0.1030596 -0.566828,-0.5668278 -0.85883,0.1374128 -0.05153,0.017177 -0.652711,0.1889426 -0.601181,0.2748256 z M 26.074079,5.565224 26.967262,5.8915794 27.156204,5.5824006 27.619973,5.6854602 27.362324,4.792277 27.53409,4.4143918 26.537847,4.2941556 26.228668,5.2732218 Z m 0.206119,7.523351 0.377885,0.669887 0.292002,0.06871 0.618358,-0.309178 0.01718,-0.927537 0.05153,-0.05153 0.343532,-0.549651 -0.120236,-0.566828 0.704241,-0.669887 -0.326356,-0.498121 V 9.6876079 l 0.532475,-0.2920022 -0.01718,-1.0134194 0.343532,-0.1545894 0.395062,-0.343532 -0.120236,0.944713 -0.01718,0.4465916 0.240473,0.6355342 0.360708,0.3435323 0.05153,0.274825 0.274826,0.343532 0.188942,0.96189 0.03435,0.343532 0.20612,0.480945 0.412238,0.377885 0.824477,0.669887 0.549651,-0.824477 -0.223296,-0.377885 -0.154589,-0.137413 -0.05153,-0.65271 -0.206119,-0.876007 -0.480945,-0.429415 -0.326355,-0.240472 0.154589,-0.4294153 -0.257649,-0.8244768 0.06871,-0.5324746 -0.377885,0.068706 -0.635534,-0.9790662 0.08588,-0.6355341 -0.480945,-0.4465916 0.05153,-0.2920022 0.687064,-0.343532 0.240472,0.1202362 0.721418,-0.515298 L 31.295758,5.63393 31.690827,4.87816 31.278588,4.4143918 30.935056,4.01933 30.333875,3.9849768 30.11058,4.5861578 29.715518,4.191096 29.852931,3.3494427 29.612458,2.9715575 29.526575,2.4562595 29.389162,1.6661359 29.20022,1.7176657 29.337633,0.99624853 29.286103,0.15459516 28.873864,0.25765475 h -0.412238 l -0.154589,0.32635539 -0.326356,0.1545894 0.15459,0.72141716 0.292002,0.4981214 -0.274826,0.8073002 0.15459,0.7214172 -0.309179,0.1030596 0.274825,0.5152979 -0.360708,0.85883 0.03435,0.4809448 0.377885,1.0649492 h -0.618357 l 0.206119,1.0477725 0.06871,0.1374128 -0.70424,0.85883 0.360708,0.1030596 -0.395062,1.030596 -0.03435,-0.05153 -0.154589,0.8073001 -0.257649,0.137413 -0.01718,0.635534 0.188943,0.566828 -0.498121,0.601181 z" />
			</g>
			<g aria-label="マン" class="font2 fg" transform="matrix(1.009209,0,0,1,-0.27735714,0)">
				<path d="M 7.3344087,31.673654 3.6929696,24.837368 3.933442,24.699955 7.1798193,27.379505 10.821258,20.972633 0.61835825,22.415467 0.27482626,19.443916 11.096084,20.491688 l 0.8073,-1.408481 3.108965,1.648954 -7.3687615,7.025229 2.3360175,1.923779 z" />
				<path d="m 22.896408,24.150304 -3.229201,-5.290393 0.08588,-0.188942 5.736984,3.177671 z m -3.641439,7.849706 -1.511541,-2.868492 14.153518,-4.431563 0.08588,0.223296 z" />
			</g>
		</g>
	</g>
</svg>
