<?xml version="1.0" encoding="UTF-8" standalone="no"?>
<svg
	xmlns="http://www.w3.org/2000/svg"
	xmlns:inkscape="http://www.inkscape.org/namespaces/inkscape"
	xmlns:sodipodi="http://sodipodi.sourceforge.net/DTD/sodipodi-0.dtd"
	xmlns:svg="http://www.w3.org/2000/svg"
	width="256"
	height="256"
	viewBox="0 0 256 256.00001"
	version="1.1"
	inkscape:version="1.2.2 (b0a8486541, 2022-12-01)"
	>
	<sodipodi:namedview
		pagecolor="#505050"
		bordercolor="#eeeeee"
		borderopacity="1"
		inkscape:showpageshadow="0"
		inkscape:pageopacity="0"
		inkscape:pagecheckerboard="0"
		inkscape:deskcolor="#505050"
		inkscape:document-units="px"
		showgrid="false"
		showguides="false"
		>
		<sodipodi:guide position="0,256" orientation="0,256" />
		<sodipodi:guide position="256,0" orientation="0,256" />
		<sodipodi:guide position="0,256" orientation="256,0" />
		<sodipodi:guide position="256,0" orientation="256,0" />
		<sodipodi:guide position="0,230.4" orientation="0,256" />
		<sodipodi:guide position="0,25.6" orientation="0,256" />
		<sodipodi:guide position="25.6,0" orientation="256,0" />
		<sodipodi:guide position="230.4,0" orientation="256,0" />
		<sodipodi:guide position="0,128" orientation="0,204.8" />
		<sodipodi:guide position="128,0" orientation="204.8,0" />
	</sodipodi:namedview>
	<g inkscape:groupmode="layer" style="display:none">
		<text xml:space="preserve" style="font-style:normal;font-variant:normal;font-weight:normal;font-stretch:normal;font-size:109.455px;font-family:IPA明朝;-inkscape-font-specification:'IPA明朝, Normal';font-variant-ligatures:normal;font-variant-caps:normal;font-variant-numeric:normal;font-variant-east-asian:normal;fill:#e51717;fill-opacity:1;stroke-width:2.46275" x="19.240082" y="168.69812"><tspan sodipodi:role="line" x="19.240082" y="168.69812" style="font-style:normal;font-variant:normal;font-weight:normal;font-stretch:normal;font-size:109.455px;font-family:IPA明朝;-inkscape-font-specification:'IPA明朝, Normal';font-variant-ligatures:normal;font-variant-caps:normal;font-variant-numeric:normal;font-variant-east-asian:normal;fill:#e51717;fill-opacity:1;stroke-width:2.46275">死刑</tspan></text>
	</g>
	<g inkscape:label="outline" inkscape:groupmode="layer">
		<g aria-label="死刑" style="font-size:109.455px;font-family:IPA明朝;-inkscape-font-specification:'IPA明朝, Normal';fill:#e51717;stroke-width:2.46275">
			<path d="m 49.810522,113.32928 q -2.511907,7.00127 -6.787493,14.53699 12.987092,5.45138 12.987092,12.50609 0,3.58081 -3.367024,3.58081 -2.298127,0 -3.420468,-3.36703 -1.76368,-5.45137 -7.7495,-10.31485 -5.558262,8.71151 -13.895654,15.87311 l -1.977459,-1.81712 Q 43.397143,124.33892 48.153732,91.844462 H 27.043026 l -1.229231,-2.725686 h 81.984365 l 6.25304,-7.7495 q 3.74114,3.046355 8.44428,8.390837 l -1.12234,2.084349 H 86.90123 v 39.121608 q 0.427559,-0.42756 0.748228,-0.58789 12.933652,-8.44428 23.248502,-21.43137 7.96328,5.39792 7.96328,7.42883 0,1.22923 -2.6188,1.22923 -0.42756,0 -2.72569,-0.21378 -10.10107,9.08562 -26.61552,17.26268 v 27.57753 q 0,2.88602 1.65679,3.52735 1.817124,0.64134 9.2994,0.64134 10.68896,0 12.66642,-0.74822 4.43592,-1.81713 4.97037,-20.1487 l 2.83258,1.22923 q 0,13.30776 1.06889,15.98 0.85512,2.51191 3.84803,2.51191 -0.16033,5.07725 -4.38247,6.1996 -3.58081,1.12234 -17.6368,1.12234 -16.193778,0 -18.812575,-2.29813 -2.084348,-1.76368 -2.084348,-6.78749 V 91.844462 H 55.155004 Q 53.391325,102.21276 50.665639,110.6036 h 13.895654 l 3.954918,-5.13071 q 6.680603,5.66515 6.680603,7.21505 0,0.80168 -1.015452,1.28268 l -2.618796,1.5499 q -9.352845,43.66442 -44.30576,60.76677 l -1.65679,-2.29813 q 23.943282,-15.28522 33.616795,-38.85439 3.954917,-9.88729 5.98582,-21.80549 z"  />
			<path d="m 178.0781,124.4458 v 50.29159 h -6.35993 V 124.4458 h -15.28522 q -0.16034,15.28522 -3.31358,26.61553 -4.06181,14.4301 -15.65934,25.22596 l -1.97745,-1.97746 q 10.63552,-13.25432 13.25431,-32.44101 1.0689,-7.53572 1.22923,-17.42302 h -14.37665 l -0.96201,-2.72568 h 15.33866 V 90.187672 h -12.07853 l -0.962,-2.725686 h 43.23686 l 5.1307,-7.215051 q 3.90148,3.580803 7.21505,7.963278 l -1.06889,1.977459 h -13.68188 v 31.532448 h 5.34449 l 4.91692,-7.10816 q 2.93946,2.77913 6.6806,7.7495 l -1.17578,2.08434 z m -21.64515,-2.72568 H 171.3975 V 90.187672 h -14.96455 z m 41.41974,31.10489 V 90.775565 q 10.52863,0.641338 10.52863,2.939465 0,1.496456 -4.38248,2.939466 v 56.170514 z m 3.20669,12.82676 q 8.92528,0.85511 14.4301,0.85511 3.95492,0 3.95492,-3.15324 V 79.712486 q 10.95619,0.801673 10.95619,3.046355 0,1.496455 -4.59626,2.992911 v 81.503358 q 0,8.44428 -10.8493,8.44428 -0.16033,-3.47391 -3.52736,-4.91692 -2.99291,-1.22923 -10.36829,-2.19124 z"  />
		</g>
	</g>
</svg>
