<?xml version="1.0" encoding="UTF-8" standalone="no"?>
<svg
	xmlns="http://www.w3.org/2000/svg"
	xmlns:inkscape="http://www.inkscape.org/namespaces/inkscape"
	xmlns:sodipodi="http://sodipodi.sourceforge.net/DTD/sodipodi-0.dtd"
	xmlns:svg="http://www.w3.org/2000/svg"
	width="256"
	height="256"
	viewBox="0 0 256 256"
	version="1.1"
	inkscape:version="1.2.2 (b0a8486541, 2022-12-01)"
	>
	<sodipodi:namedview
		pagecolor="#505050"
		bordercolor="#eeeeee"
		borderopacity="1"
		inkscape:showpageshadow="0"
		inkscape:pageopacity="0"
		inkscape:pagecheckerboard="0"
		inkscape:deskcolor="#505050"
		inkscape:document-units="px"
		showgrid="false"
		showguides="false"
		>
		<inkscape:grid type="xygrid" empspacing="16" />
		<sodipodi:guide position="0,0" orientation="256,0" />
		<sodipodi:guide position="128,0" orientation="256,0" />
		<sodipodi:guide position="256,0" orientation="256,0" />
		<sodipodi:guide position="0,0" orientation="0,256" />
		<sodipodi:guide position="0,128" orientation="0,256" />
		<sodipodi:guide position="0,256" orientation="0,256" />
	</sodipodi:namedview>
	<g inkscape:groupmode="layer" style="display:none">
		<text xml:space="preserve" style="font-style:normal;font-variant:normal;font-weight:bold;font-stretch:normal;font-size:77.2939px;font-family:'源柔ゴシック';-inkscape-font-specification:'源柔ゴシック, Bold';font-variant-ligatures:normal;font-variant-caps:normal;font-variant-numeric:normal;font-variant-east-asian:normal;text-align:center;text-anchor:middle;fill:#e5e5e5;fill-opacity:1;stroke:#1a1a1a;stroke-width:2;stroke-dasharray:none;stroke-opacity:1" x="129.22188" y="158.2641" transform="scale(1.0088119,0.99126508)"><tspan sodipodi:role="line" x="129.22188" y="158.2641" style="stroke-width:2;stroke-dasharray:none">わかる</tspan></text>
	</g>
	<g inkscape:label="Outline" inkscape:groupmode="layer">
		<g aria-label="わかる" transform="scale(1.0088119,0.99126508)" style="font-weight:bold;font-size:77.2939px;font-family:'源柔ゴシック';-inkscape-font-specification:'源柔ゴシック, Bold';text-align:center;text-anchor:middle;fill:#e5e5e5;stroke:#1a1a1a;stroke-width:2">
			<path d="m 43.700405,106.55871 q -0.07548,0.52837 0.30193,0.98127 1.132234,1.43416 1.132234,3.3967 0,1.7361 -0.98127,3.17026 -0.528376,0.75482 -1.283199,1.96254 -0.30193,0.45289 -0.377412,1.05675 0,0.15097 0,0.52838 0,0.37741 0,0.52838 0,0.15096 0.07548,0.30192 0.150965,0.0755 0.30193,-0.0755 10.41656,-7.62371 22.040838,-7.62371 8.982397,0 15.020983,5.81214 6.114068,5.73665 6.114068,14.87001 0,21.05957 -24.380791,27.47557 -0.679341,0.22645 -1.358682,0.22645 -1.132234,0 -2.264469,-0.52838 -1.811576,-0.90579 -2.641882,-2.64188 l -0.679341,-1.2832 q -0.301929,-0.75482 -0.301929,-1.50965 0,-0.75482 0.377412,-1.50964 0.754823,-1.43417 2.339952,-1.81158 18.644134,-4.30249 18.644134,-18.64413 0,-4.67991 -3.472187,-8.00113 -3.396705,-3.3967 -8.906914,-3.3967 -10.944937,0 -21.361498,9.43529 -0.377412,0.37741 -0.377412,0.98127 -0.150964,3.77411 -0.150964,5.73665 0,12.68103 0.452894,19.85185 0,0.52838 0.07548,1.43417 0.07548,0.22645 0.07548,0.45289 0,1.50965 -1.056752,2.71737 -1.207717,1.2832 -3.019293,1.2832 h -1.585129 q -1.811576,0 -3.019293,-1.2832 -1.207717,-1.2832 -1.207717,-3.0193 v -1.35868 q 0.07548,-3.01929 0.150965,-8.15209 0.07548,-5.20828 0.150964,-8.07661 0,-0.15096 -0.150964,-0.15096 -0.07548,-0.0755 -0.150965,0 -3.623152,5.43472 -6.793409,10.03915 -0.98127,1.35868 -2.641881,1.35868 -1.585129,0 -2.490917,-1.35868 l -0.905788,-1.20772 q -1.056753,-1.50965 -1.056753,-3.39671 0,-2.03802 1.2832,-3.69863 7.850162,-9.96367 13.284889,-17.96479 0.301929,-0.4529 0.377412,-0.98127 l 0.226447,-4.22701 q 0,-0.22645 -0.150965,-0.37741 -0.150965,-0.15097 -0.377412,-0.15097 -0.377411,0.0755 -8.906914,1.20772 -0.377412,0 -0.603859,0 -1.509646,0 -2.641881,-0.98127 -1.434164,-1.13224 -1.660611,-2.94381 l -0.07548,-0.90579 q 0,-0.22645 0,-0.45289 0,-1.50965 1.056752,-2.64189 1.207717,-1.2832 3.019293,-1.35868 0.98127,0 2.188988,-0.0755 3.170257,-0.22645 8.227573,-0.90579 0.528376,-0.0755 0.603858,-0.67934 0.30193,-4.98183 0.30193,-5.28376 0,-0.30193 0,-1.13224 0,-0.15096 0,-1.2832 0,-1.736089 1.132235,-3.019288 1.207717,-1.2832 2.868328,-1.2832 0.07548,0 0.07548,0 l 2.339952,0.07548 q 1.736094,0.07548 2.868329,1.434164 0.830305,1.056753 0.830305,2.415435 0,0.301927 0,0.679337 -0.452894,2.64189 -0.905788,5.96311 z" />
			<path d="m 114.80475,100.74657 q 0.15097,-1.811577 1.43417,-3.019295 1.20772,-1.056752 2.64188,-1.056752 0.22645,0 0.45289,0.07548 l 2.49092,0.226447 q 1.81158,0.226447 2.79285,1.660611 0.75482,1.056753 0.75482,2.264467 0,0.4529 -0.0755,0.90579 -0.22645,1.05675 -0.37741,1.96254 -0.0755,0.37741 -1.43417,7.32179 -0.0755,0.22644 0.0755,0.37741 0.15097,0.15096 0.37742,0.15096 4.45345,-0.30193 5.81213,-0.30193 13.81327,0 13.81327,14.64357 0,7.85017 -1.05675,15.62485 -0.98127,7.69919 -3.24574,12.30361 -1.81158,3.77412 -4.90635,5.35925 -3.09478,1.66061 -7.6992,1.66061 -2.18899,0 -4.75539,-0.30193 -1.96254,-0.30193 -3.3967,-1.73609 -1.35868,-1.43417 -1.66061,-3.47219 l -0.22645,-1.2832 q -0.0755,-0.30193 -0.0755,-0.60386 0,-1.13223 0.90579,-2.03802 0.90578,-0.83031 2.1135,-0.83031 0.30193,0 0.60386,0.0755 3.32122,0.60386 5.05731,0.60386 4.22702,0 5.73666,-3.32123 1.50965,-3.01929 2.33995,-8.90691 0.83031,-5.88762 0.83031,-12.07717 0,-4.22701 -1.73609,-5.58569 -1.7361,-1.35869 -5.81214,-1.35869 -0.98127,0 -4.67991,0.30193 -0.52837,0 -0.67934,0.60386 -5.81214,22.56922 -13.2094,36.45796 -0.90579,1.66061 -2.71737,2.26447 -0.8303,0.30193 -1.66061,0.30193 -0.98127,0 -1.96254,-0.37741 l -1.811576,-0.67934 q -1.509646,-0.67934 -2.038023,-2.26447 -0.150964,-0.60386 -0.150964,-1.13223 0,-1.05676 0.603858,-1.96254 7.548235,-12.07718 12.756515,-31.55162 0.0755,-0.22644 -0.0755,-0.37741 -0.0755,-0.15096 -0.30193,-0.15096 -3.92508,0.45289 -6.03859,0.8303 -1.50965,0.15097 -4.07604,0.52838 -0.30193,0 -0.603864,0 -1.434164,0 -2.566399,-0.90579 -1.434164,-1.13223 -1.585128,-2.94381 l -0.150965,-1.43416 q -0.150965,-1.7361 1.056753,-3.0193 1.283199,-1.2832 3.019292,-1.35868 0.754821,0 2.038021,0 1.2832,-0.0755 1.66061,-0.0755 3.39671,-0.0755 9.35981,-0.60386 0.52838,0 0.60386,-0.60386 1.13223,-6.11407 1.43416,-11.17138 z m 31.1742,11.39783 q -0.60385,-0.98127 -0.60385,-2.03802 0,-0.52838 0.15096,-1.05676 0.45289,-1.66061 2.03802,-2.26447 l 1.05676,-0.45289 q 0.98127,-0.45289 2.03802,-0.45289 0.8303,0 1.58513,0.30193 1.88705,0.52837 2.86833,2.18898 5.05731,8.83143 9.51077,20.45571 0.30193,0.90579 0.30193,1.7361 0,0.90578 -0.37741,1.81157 -0.75483,1.81158 -2.49092,2.5664 l -1.58513,0.75482 q -0.83031,0.37742 -1.58513,0.37742 -0.75482,0 -1.58513,-0.37742 -1.50964,-0.67934 -2.03802,-2.33995 -3.77412,-12.3791 -9.28433,-21.21053 z" />
			<path d="m 205.83644,153.65968 q 2.03802,0 3.92508,-0.22645 0.52837,0 0.45289,-0.60386 -0.45289,-3.47219 -2.49092,-5.51021 -1.96254,-2.1135 -4.90635,-2.1135 -2.1135,0 -3.47218,1.05675 -1.2832,1.05675 -1.2832,2.5664 0,2.1135 2.18898,3.47219 2.18899,1.35868 5.5857,1.35868 z m 12.68103,-54.573723 q 0.37741,-0.07548 0.8303,-0.07548 1.50965,0 2.86833,0.603859 1.81158,0.679336 2.94381,2.188986 0.75482,1.05675 0.75482,2.33995 0,0.37741 -0.0755,0.75483 -0.30193,1.66061 -1.73609,2.64188 -0.90579,0.60386 -1.81158,1.20771 -1.81157,1.20772 -4.52894,3.39671 -2.71736,2.1135 -6.86889,5.58569 -4.15153,3.39671 -5.05731,4.15153 -0.0755,0.0755 -0.0755,0.15096 0.0755,0.0755 0.15097,0.0755 2.86833,-0.67934 6.64244,-0.67934 9.73722,0 16.30419,5.43472 6.56696,5.43473 6.56696,13.81327 0,9.43529 -7.17082,15.54936 -7.17082,6.03858 -20.5312,6.03858 -8.0766,0 -13.36037,-3.47218 -5.28376,-3.39671 -5.28376,-9.05788 0,-4.75539 3.8496,-8.30306 3.92508,-3.54767 9.88818,-3.54767 6.64245,0 10.86946,3.54767 4.30249,3.47219 5.35924,8.90692 0.0755,0.60385 0.52838,0.30192 5.81214,-3.3967 5.81214,-10.19011 0,-5.05731 -4.52894,-8.22757 -4.52894,-3.24574 -11.32235,-3.24574 -7.2463,0 -13.05844,3.09477 -5.73666,3.09478 -11.5488,9.13336 -1.20771,1.35869 -3.01929,1.35869 -0.0755,0 -0.0755,0 -1.7361,0 -3.0193,-1.2832 l -0.75482,-0.75483 q -1.13223,-1.20771 -1.13223,-2.79284 0,-2.03803 1.50964,-3.24574 1.81158,-1.50965 7.6992,-6.416 5.88762,-4.98183 8.00113,-6.64244 0.98127,-0.83031 7.09533,-5.88763 6.18956,-5.05731 8.45403,-7.09533 0.15096,-0.0755 0.0755,-0.15097 -0.0755,-0.15096 -0.15097,-0.15096 -10.34108,0.22644 -17.96479,0.8303 -0.83031,0 -1.81158,0.0755 -0.15096,0 -0.37741,0 -1.58513,0 -2.79284,-0.98127 -1.35869,-1.20771 -1.35869,-2.94381 l -0.0755,-1.05675 q -0.0755,-1.81158 1.2832,-3.01929 1.20772,-1.132237 2.79285,-1.132237 0.15096,0 0.22644,0 1.35869,0.07548 2.5664,0.07548 3.62316,0 12.68103,-0.226447 9.05788,-0.301929 12.00169,-0.528376 0.90579,-0.07548 1.7361,-0.150965 z" />
		</g>
	</g>
</svg>
