<?xml version="1.0" encoding="UTF-8" standalone="no"?>
<svg
	xmlns="http://www.w3.org/2000/svg"
	xmlns:inkscape="http://www.inkscape.org/namespaces/inkscape"
	xmlns:sodipodi="http://sodipodi.sourceforge.net/DTD/sodipodi-0.dtd"
	xmlns:svg="http://www.w3.org/2000/svg"
	width="96"
	height="24"
	viewBox="0 0 96 24"
	version="1.1"
	inkscape:version="1.2.2 (b0a8486541, 2022-12-01)"
	>
	<sodipodi:namedview
		pagecolor="#505050"
		bordercolor="#eeeeee"
		borderopacity="1"
		inkscape:showpageshadow="0"
		inkscape:pageopacity="0"
		inkscape:pagecheckerboard="0"
		inkscape:deskcolor="#505050"
		inkscape:document-units="px"
		showgrid="false"
		>
		<inkscape:grid type="xygrid" originx="0" originy="0" empspacing="8" />
	</sodipodi:namedview>
	<g inkscape:groupmode="layer" style="display:none">
		<text xml:space="preserve" style="font-style:normal;font-variant:normal;font-weight:normal;font-stretch:normal;font-size:11.2889px;font-family:'Source Code Pro';-inkscape-font-specification:'Source Code Pro, Normal';font-variant-ligatures:normal;font-variant-caps:normal;font-variant-numeric:normal;font-variant-east-asian:normal;text-align:start;text-anchor:start;fill:#4da6ff;fill-opacity:1;stroke-width:0.264583" x="17.469152" y="15.70276"><tspan sodipodi:role="line" style="font-style:normal;font-variant:normal;font-weight:normal;font-stretch:normal;font-size:11.2889px;font-family:'Source Code Pro';-inkscape-font-specification:'Source Code Pro, Normal';font-variant-ligatures:normal;font-variant-caps:normal;font-variant-numeric:normal;font-variant-east-asian:normal;text-align:start;text-anchor:start;fill:#4da6ff;fill-opacity:1;stroke-width:0.264583" x="17.469152" y="15.70276">HOLD FIRE</tspan></text>
	</g>
	<g inkscape:label="Outline" inkscape:groupmode="layer">
		<g
			 aria-label="HOLD FIRE"
			 style="font-size:11.2889px;font-family:'Source Code Pro';-inkscape-font-specification:'Source Code Pro, Normal';fill:#4da6ff;stroke-width:0.264583">
			<path d="m 18.360976,15.70276 h 0.948267 v -3.48827 h 3.093159 v 3.48827 H 23.35067 V 8.2972411 H 22.402402 V 11.401689 H 19.309243 V 8.2972411 h -0.948267 z" />
			<path d="m 27.629167,15.838227 c 1.670757,0 2.844803,-1.44498 2.844803,-3.872093 0,-2.3932472 -1.174046,-3.8043597 -2.844803,-3.8043597 -1.670757,0 -2.844803,1.4111125 -2.844803,3.8043597 0,2.427113 1.174046,3.872093 2.844803,3.872093 z m 0,-0.82409 c -1.12889,0 -1.873957,-1.151468 -1.873957,-3.048003 0,-1.862669 0.745067,-2.98027 1.873957,-2.98027 1.12889,0 1.873958,1.117601 1.873958,2.98027 0,1.896535 -0.745068,3.048003 -1.873958,3.048003 z" />
			<path d="m 32.528554,15.70276 h 4.594583 V 14.901248 H 33.454244 V 8.2972411 h -0.92569 z" />
			<path d="m 38.771321,15.70276 h 1.873957 c 2.178758,0 3.38667,-1.377246 3.38667,-3.736626 0,-2.3480916 -1.207912,-3.6688929 -3.431825,-3.6688929 H 38.771321 Z M 39.7083,14.935115 V 9.0648863 h 0.824089 c 1.693335,0 2.528714,1.0385787 2.528714,2.9012477 0,1.873957 -0.835379,2.968981 -2.528714,2.968981 z" />
			<path d="m 52.837298,15.70276 h 0.948268 v -3.318937 h 3.048003 V 11.5936 H 53.785566 V 9.0874641 h 3.601159 v -0.790223 h -4.549427 z" />
			<path d="m 59.181666,15.70276 h 4.628449 V 14.901248 H 61.970024 V 9.0874641 h 1.840091 v -0.790223 h -4.628449 v 0.790223 h 1.840091 v 5.8137839 h -1.840091 z" />
			<path d="m 66.011453,15.70276 h 0.936978 v -3.127026 h 1.320802 l 1.783646,3.127026 h 1.072446 l -1.885247,-3.228626 c 1.004712,-0.259644 1.659469,-0.948267 1.659469,-2.099735 0,-1.5352907 -1.083735,-2.0771579 -2.585159,-2.0771579 h -2.302935 z m 0.936978,-3.894671 V 9.0535974 h 1.230491 c 1.151467,0 1.783646,0.3499559 1.783646,1.3208016 0,0.959556 -0.632179,1.43369 -1.783646,1.43369 z" />
			<path d="m 72.942843,15.70276 h 4.696183 V 14.901248 H 73.891111 V 12.21449 h 3.070581 V 11.412978 H 73.891111 V 9.0874641 h 3.635026 v -0.790223 h -4.583294 z" />
		</g>
	</g>
	<g inkscape:groupmode="layer">
		<rect x="4" y="4" width="88" height="16" style="fill:none;fill-opacity:1;stroke:#4da6ff;stroke-width:1;stroke-dasharray:none;stroke-opacity:1;stroke-linejoin:round" />
	</g>
</svg>
