<?xml version="1.0" encoding="UTF-8" standalone="no"?>
<svg
	xmlns="http://www.w3.org/2000/svg"
	xmlns:inkscape="http://www.inkscape.org/namespaces/inkscape"
	xmlns:sodipodi="http://sodipodi.sourceforge.net/DTD/sodipodi-0.dtd"
	xmlns:svg="http://www.w3.org/2000/svg"
	width="104"
	height="24"
	viewBox="0 0 104 24"
	version="1.1"
	inkscape:version="1.2.2 (b0a8486541, 2022-12-01)"
	>
	<sodipodi:namedview
		pagecolor="#505050"
		bordercolor="#eeeeee"
		borderopacity="1"
		inkscape:showpageshadow="0"
		inkscape:pageopacity="0"
		inkscape:pagecheckerboard="0"
		inkscape:deskcolor="#505050"
		inkscape:document-units="px"
		showgrid="false"
		>
		<inkscape:grid type="xygrid" originx="0" originy="0" empspacing="8" />
	</sodipodi:namedview>
	<g inkscape:groupmode="layer" style="display:none">
		<text xml:space="preserve" style="font-style:normal;font-variant:normal;font-weight:normal;font-stretch:normal;font-size:11.2889px;font-family:'Source Code Pro';-inkscape-font-specification:'Source Code Pro, Normal';font-variant-ligatures:normal;font-variant-caps:normal;font-variant-numeric:normal;font-variant-east-asian:normal;text-align:center;text-anchor:middle;fill:#e51717;fill-opacity:1;stroke-width:0.264583" x="51.830669" y="15.70276"><tspan sodipodi:role="line" style="font-style:normal;font-variant:normal;font-weight:normal;font-stretch:normal;font-size:11.2889px;font-family:'Source Code Pro';-inkscape-font-specification:'Source Code Pro, Normal';font-variant-ligatures:normal;font-variant-caps:normal;font-variant-numeric:normal;font-variant-east-asian:normal;text-align:center;text-anchor:middle;fill:#e51717;fill-opacity:1;stroke-width:0.264583" x="51.830669" y="15.70276">MISSILE ALERT</tspan></text>
	</g>
	<g inkscape:label="Outline" inkscape:groupmode="layer">
		<g aria-label="MISSILE ALERT" style="font-size:11.2889px;font-family:'Source Code Pro';-inkscape-font-specification:'Source Code Pro, Normal';text-align:center;text-anchor:middle;fill:#e51717;stroke-width:0.264583">
			<path d="M 8.6167308,15.70276 H 9.497265 V 12 c 0,-0.722489 -0.090311,-1.986846 -0.1580446,-2.6190245 h 0.022578 l 0.4289782,1.4449795 1.0385786,2.912536 h 0.677334 l 1.061157,-2.912536 0.417689,-1.4449795 h 0.03387 C 12.974246,10.013154 12.861357,11.277511 12.861357,12 v 3.70276 h 0.903112 V 8.2972411 h -1.151467 l -1.049868,3.1608919 -0.349956,1.196624 h -0.04516 L 10.806777,11.458133 9.7681986,8.2972411 H 8.6167308 Z" />
			<path d="m 15.64972,15.70276 h 4.628449 V 14.901248 H 18.438078 V 9.0874641 h 1.840091 V 8.2972411 H 15.64972 v 0.790223 h 1.840091 V 14.901248 H 15.64972 Z" />
			<path d="m 24.793734,15.838227 c 1.625601,0 2.619024,-0.936979 2.619024,-2.111025 0,-1.095023 -0.722489,-1.603024 -1.63689,-1.975557 l -1.038579,-0.451556 c -0.632178,-0.259645 -1.320801,-0.51929 -1.320801,-1.230491 0,-0.6660447 0.575734,-1.083734 1.43369,-1.083734 0.767645,0 1.33209,0.2709336 1.817513,0.6999118 L 27.164403,9.0761752 C 26.622535,8.534308 25.809735,8.1617743 24.884045,8.1617743 c -1.411113,0 -2.427114,0.8353786 -2.427114,1.9642687 0,1.083734 0.857957,1.614313 1.603024,1.907824 l 1.061157,0.462845 c 0.756356,0.327378 1.33209,0.553156 1.33209,1.343379 0,0.688623 -0.598312,1.174046 -1.614313,1.174046 -0.846667,0 -1.614313,-0.372534 -2.167469,-0.92569 l -0.564445,0.654756 c 0.666045,0.666045 1.603024,1.095024 2.686759,1.095024 z" />
			<path d="m 31.567079,15.838227 c 1.625601,0 2.619024,-0.936979 2.619024,-2.111025 0,-1.095023 -0.722489,-1.603024 -1.63689,-1.975557 l -1.038579,-0.451556 c -0.632178,-0.259645 -1.320801,-0.51929 -1.320801,-1.230491 0,-0.6660447 0.575734,-1.083734 1.43369,-1.083734 0.767645,0 1.33209,0.2709336 1.817513,0.6999118 L 33.937748,9.0761752 C 33.39588,8.534308 32.58308,8.1617743 31.65739,8.1617743 c -1.411113,0 -2.427114,0.8353786 -2.427114,1.9642687 0,1.083734 0.857957,1.614313 1.603024,1.907824 l 1.061157,0.462845 c 0.756356,0.327378 1.33209,0.553156 1.33209,1.343379 0,0.688623 -0.598312,1.174046 -1.614313,1.174046 -0.846667,0 -1.614313,-0.372534 -2.167469,-0.92569 l -0.564445,0.654756 c 0.666045,0.666045 1.603024,1.095024 2.686759,1.095024 z" />
			<path d="m 35.969754,15.70276 h 4.628449 V 14.901248 H 38.758112 V 9.0874641 h 1.840091 v -0.790223 h -4.628449 v 0.790223 h 1.84009 v 5.8137839 h -1.84009 z" />
			<path d="m 43.183365,15.70276 h 4.594582 V 14.901248 H 44.109055 V 8.2972411 h -0.92569 z" />
			<path d="m 49.730933,15.70276 h 4.696182 V 14.901248 H 50.6792 V 12.21449 h 3.070581 V 11.412978 H 50.6792 V 9.0874641 h 3.635026 v -0.790223 h -4.583293 z" />
			<path d="m 64.609711,11.559733 c 0.259645,-0.824089 0.496712,-1.6368902 0.733778,-2.4948467 h 0.04516 c 0.225778,0.8579565 0.474134,1.6707577 0.733779,2.4948467 l 0.349956,1.12889 h -2.212625 z m -2.25778,4.143027 h 0.959556 l 0.711201,-2.25778 h 2.686758 l 0.699912,2.25778 h 0.993423 L 65.907935,8.2972411 h -1.061157 z" />
			<path d="m 70.276745,15.70276 h 4.594582 V 14.901248 H 71.202435 V 8.2972411 h -0.92569 z" />
			<path d="m 76.824309,15.70276 h 4.696182 V 14.901248 H 77.772576 V 12.21449 h 3.070581 V 11.412978 H 77.772576 V 9.0874641 h 3.635026 v -0.790223 h -4.583293 z" />
			<path d="m 83.43961,15.70276 h 0.936979 v -3.127026 h 1.320801 l 1.783646,3.127026 h 1.072446 l -1.885246,-3.228626 c 1.004712,-0.259644 1.659468,-0.948267 1.659468,-2.099735 0,-1.5352907 -1.083734,-2.0771579 -2.585158,-2.0771579 H 83.43961 Z m 0.936979,-3.894671 V 9.0535974 h 1.23049 c 1.151468,0 1.783646,0.3499559 1.783646,1.3208016 0,0.959556 -0.632178,1.43369 -1.783646,1.43369 z" />
			<path d="M 91.996602,15.70276 H 92.94487 V 9.0874641 h 2.438402 V 8.2972411 H 89.5582 v 0.790223 h 2.438402 z" />
		</g>
	</g>
	<g inkscape:groupmode="layer">
		<rect x="4" y="4" width="96" height="16" style="fill:none;fill-opacity:1;stroke:#e51717;stroke-width:1;stroke-linejoin:round;stroke-dasharray:none;stroke-opacity:1" />
	</g>
</svg>
