<?xml version="1.0" encoding="UTF-8" standalone="no"?>
<svg
	xmlns="http://www.w3.org/2000/svg"
	xmlns:inkscape="http://www.inkscape.org/namespaces/inkscape"
	xmlns:sodipodi="http://sodipodi.sourceforge.net/DTD/sodipodi-0.dtd"
	xmlns:svg="http://www.w3.org/2000/svg"
	width="104"
	height="24"
	viewBox="0 0 104 24"
	version="1.1"
	inkscape:version="1.2.2 (b0a8486541, 2022-12-01)"
	>
	<sodipodi:namedview
		pagecolor="#505050"
		bordercolor="#eeeeee"
		borderopacity="1"
		inkscape:showpageshadow="0"
		inkscape:pageopacity="0"
		inkscape:pagecheckerboard="0"
		inkscape:deskcolor="#505050"
		inkscape:document-units="px"
		showgrid="false"
		>
		<inkscape:grid originx="0" originy="0" type="xygrid" empspacing="8" />
	</sodipodi:namedview>
	<g inkscape:groupmode="layer" style="display:none">
		<text xml:space="preserve" style="font-style:normal;font-variant:normal;font-weight:normal;font-stretch:normal;font-size:11.2889px;font-family:'Source Code Pro';-inkscape-font-specification:'Source Code Pro, Normal';font-variant-ligatures:normal;font-variant-caps:normal;font-variant-numeric:normal;font-variant-east-asian:normal;text-align:center;text-anchor:middle;fill:#4da6ff;fill-opacity:1;stroke-width:0.264583" x="51.672623" y="15.70276"><tspan sodipodi:role="line" style="font-style:normal;font-variant:normal;font-weight:normal;font-stretch:normal;font-size:11.2889px;font-family:'Source Code Pro';-inkscape-font-specification:'Source Code Pro, Normal';font-variant-ligatures:normal;font-variant-caps:normal;font-variant-numeric:normal;font-variant-east-asian:normal;text-align:center;text-anchor:middle;fill:#4da6ff;fill-opacity:1;stroke-width:0.264583" x="51.672623" y="15.70276">REACTION SHOOT</tspan></text>
	</g>
	<g inkscape:label="Outline" inkscape:groupmode="layer">
		<g aria-label="REACTION SHOOT" style="font-size:11.2889px;font-family:'Source Code Pro';-inkscape-font-specification:'Source Code Pro, Normal';text-align:center;text-anchor:middle;fill:#4da6ff;stroke-width:0.264583">
			<path d="M 5.388101,15.70276 H 6.3250797 V 12.575734 H 7.6458811 L 9.4295273,15.70276 H 10.501973 L 8.6167265,12.474134 c 1.0047121,-0.259644 1.6594685,-0.948267 1.6594685,-2.099735 0,-1.5352907 -1.0837346,-2.0771579 -2.5851583,-2.0771579 H 5.388101 Z M 6.3250797,11.808089 V 9.0535974 h 1.2304902 c 1.1514678,0 1.7836462,0.3499559 1.7836462,1.3208016 0,0.959556 -0.6321784,1.43369 -1.7836462,1.43369 z" />
			<path d="m 12.31949,15.70276 h 4.696183 V 14.901248 H 13.267758 V 12.21449 h 3.070581 V 11.412978 H 13.267758 V 9.0874641 h 3.635026 V 8.2972411 H 12.31949 Z" />
			<path d="m 20.424925,11.559733 c 0.259645,-0.824089 0.496711,-1.6368902 0.733778,-2.4948467 h 0.04516 c 0.225778,0.8579565 0.474134,1.6707577 0.733779,2.4948467 l 0.349955,1.12889 h -2.212624 z m -2.25778,4.143027 h 0.959556 l 0.711201,-2.25778 h 2.686758 l 0.699912,2.25778 h 0.993423 L 21.723148,8.2972411 h -1.061156 z" />
			<path d="m 28.541649,15.838227 c 0.982134,0 1.704624,-0.395112 2.291647,-1.072446 l -0.530579,-0.575734 c -0.474133,0.530578 -0.993423,0.82409 -1.670757,0.82409 -1.422401,0 -2.348091,-1.174046 -2.348091,-3.036714 0,-1.840091 0.92569,-2.991559 2.348091,-2.991559 0.62089,0 1.106312,0.2709336 1.490135,0.677334 l 0.530578,-0.5983117 c -0.428978,-0.4741338 -1.140179,-0.903112 -2.020713,-0.903112 -1.930402,0 -3.318936,1.4562681 -3.318936,3.8382257 0,2.415825 1.399823,3.838227 3.228625,3.838227 z" />
			<path d="m 34.265125,15.70276 h 0.948268 V 9.0874641 h 2.438402 v -0.790223 h -5.825072 v 0.790223 h 2.438402 z" />
			<path d="m 39.198379,15.70276 h 4.628449 V 14.901248 H 41.986737 V 9.0874641 h 1.840091 v -0.790223 h -4.628449 v 0.790223 h 1.84009 v 5.8137839 h -1.84009 z" />
			<path d="m 48.285949,15.838227 c 1.670757,0 2.844803,-1.44498 2.844803,-3.872093 0,-2.3932472 -1.174046,-3.8043597 -2.844803,-3.8043597 -1.670757,0 -2.844803,1.4111125 -2.844803,3.8043597 0,2.427113 1.174046,3.872093 2.844803,3.872093 z m 0,-0.82409 c -1.12889,0 -1.873957,-1.151468 -1.873957,-3.048003 0,-1.862669 0.745067,-2.98027 1.873957,-2.98027 1.12889,0 1.873958,1.117601 1.873958,2.98027 0,1.896535 -0.745068,3.048003 -1.873958,3.048003 z" />
			<path d="m 52.598311,15.70276 h 0.903112 v -3.872093 c 0,-0.767645 -0.09031,-1.557868 -0.124178,-2.3142247 h 0.02258 l 0.711201,1.5352907 2.370669,4.651027 h 1.038579 V 8.2972411 H 56.61716 v 3.8382259 c 0,0.778934 0.09031,1.614313 0.124177,2.348092 H 56.71876 L 56.007559,12.948268 53.63689,8.2972411 h -1.038579 z" />
			<path d="m 68.662428,15.838227 c 1.625601,0 2.619025,-0.936979 2.619025,-2.111025 0,-1.095023 -0.72249,-1.603024 -1.636891,-1.975557 l -1.038579,-0.451556 c -0.632178,-0.259645 -1.320801,-0.51929 -1.320801,-1.230491 0,-0.6660447 0.575734,-1.083734 1.43369,-1.083734 0.767645,0 1.33209,0.2709336 1.817513,0.6999118 L 71.033097,9.0761752 C 70.49123,8.534308 69.678429,8.1617743 68.752739,8.1617743 c -1.411113,0 -2.427114,0.8353786 -2.427114,1.9642687 0,1.083734 0.857957,1.614313 1.603024,1.907824 l 1.061157,0.462845 c 0.756356,0.327378 1.33209,0.553156 1.33209,1.343379 0,0.688623 -0.598312,1.174046 -1.614313,1.174046 -0.846667,0 -1.614312,-0.372534 -2.167469,-0.92569 l -0.564445,0.654756 c 0.666045,0.666045 1.603024,1.095024 2.686759,1.095024 z" />
			<path d="m 72.884478,15.70276 h 0.948268 v -3.48827 h 3.093159 v 3.48827 h 0.948267 V 8.2972411 H 76.925905 V 11.401689 H 73.832746 V 8.2972411 h -0.948268 z" />
			<path d="m 82.152671,15.838227 c 1.670757,0 2.844803,-1.44498 2.844803,-3.872093 0,-2.3932472 -1.174046,-3.8043597 -2.844803,-3.8043597 -1.670757,0 -2.844803,1.4111125 -2.844803,3.8043597 0,2.427113 1.174046,3.872093 2.844803,3.872093 z m 0,-0.82409 c -1.12889,0 -1.873957,-1.151468 -1.873957,-3.048003 0,-1.862669 0.745067,-2.98027 1.873957,-2.98027 1.12889,0 1.873958,1.117601 1.873958,2.98027 0,1.896535 -0.745068,3.048003 -1.873958,3.048003 z" />
			<path d="m 88.926017,15.838227 c 1.670757,0 2.844803,-1.44498 2.844803,-3.872093 0,-2.3932472 -1.174046,-3.8043597 -2.844803,-3.8043597 -1.670757,0 -2.844803,1.4111125 -2.844803,3.8043597 0,2.427113 1.174046,3.872093 2.844803,3.872093 z m 0,-0.82409 c -1.12889,0 -1.873957,-1.151468 -1.873957,-3.048003 0,-1.862669 0.745067,-2.98027 1.873957,-2.98027 1.12889,0 1.873958,1.117601 1.873958,2.98027 0,1.896535 -0.745068,3.048003 -1.873958,3.048003 z" />
			<path d="m 95.225229,15.70276 h 0.948268 V 9.0874641 h 2.438402 v -0.790223 h -5.825072 v 0.790223 h 2.438402 z" />
		</g>
	</g>
	<g inkscape:groupmode="layer">
		<rect x="4" y="4" width="96" height="16" style="fill:none;fill-opacity:1;stroke:#4da6ff;stroke-width:1;stroke-linejoin:round;stroke-dasharray:none;stroke-opacity:1" />
	</g>
</svg>
