<?xml version="1.0" encoding="UTF-8" standalone="no"?>
<svg
	xmlns="http://www.w3.org/2000/svg"
	xmlns:inkscape="http://www.inkscape.org/namespaces/inkscape"
	xmlns:sodipodi="http://sodipodi.sourceforge.net/DTD/sodipodi-0.dtd"
	xmlns:svg="http://www.w3.org/2000/svg"
	width="104"
	height="24"
	viewBox="0 0 104 24"
	version="1.1"
	inkscape:version="1.2.2 (b0a8486541, 2022-12-01)"
	>
	<sodipodi:namedview
		pagecolor="#505050"
		bordercolor="#eeeeee"
		borderopacity="1"
		inkscape:showpageshadow="0"
		inkscape:pageopacity="0"
		inkscape:pagecheckerboard="0"
		inkscape:deskcolor="#505050"
		inkscape:document-units="px"
		showgrid="false"
		>
		<inkscape:grid type="xygrid" originx="0" originy="0" empspacing="8" />
	</sodipodi:namedview>
	<g inkscape:groupmode="layer" style="display:none">
		<text xml:space="preserve" style="font-style:normal;font-variant:normal;font-weight:normal;font-stretch:normal;font-size:11.2889px;font-family:'Source Code Pro';-inkscape-font-specification:'Source Code Pro, Normal';font-variant-ligatures:normal;font-variant-caps:normal;font-variant-numeric:normal;font-variant-east-asian:normal;text-align:center;text-anchor:middle;fill:#e51717;fill-opacity:1;stroke-width:0.264583" x="52" y="15.70276"><tspan sodipodi:role="line" style="font-style:normal;font-variant:normal;font-weight:normal;font-stretch:normal;font-size:11.2889px;font-family:'Source Code Pro';-inkscape-font-specification:'Source Code Pro, Normal';font-variant-ligatures:normal;font-variant-caps:normal;font-variant-numeric:normal;font-variant-east-asian:normal;text-align:center;text-anchor:middle;fill:#e51717;fill-opacity:1;stroke-width:0.264583" x="52" y="15.70276">WARNING</tspan></text>
	</g>
	<g inkscape:label="Outline" inkscape:groupmode="layer">
		<g aria-label="WARNING" style="font-size:11.2889px;font-family:'Source Code Pro';-inkscape-font-specification:'Source Code Pro, Normal';text-align:center;text-anchor:middle;fill:#e51717;stroke-width:0.264583">
			<path d="m 29.535073,15.70276 h 1.151468 l 0.72249,-2.98027 c 0.112889,-0.451556 0.180622,-0.880534 0.259644,-1.33209 h 0.03387 c 0.06773,0.451556 0.158045,0.880534 0.270934,1.33209 l 0.722489,2.98027 h 1.174046 l 1.083734,-7.4168078 h -1.016001 l -0.519289,4.6623158 c -0.06773,0.609601 -0.09031,0.970845 -0.135467,1.704624 h -0.04516 c -0.135467,-0.733779 -0.203201,-1.095023 -0.361245,-1.704624 l -0.699912,-2.754492 h -0.903112 l -0.72249,2.754492 c -0.146755,0.609601 -0.225778,0.970845 -0.361245,1.704624 h -0.03387 c -0.03387,-0.733779 -0.07902,-1.095023 -0.146756,-1.715913 L 29.46734,8.2859522 h -1.061157 z" />
			<path d="m 37.685664,11.559733 c 0.259644,-0.824089 0.496711,-1.6368902 0.733778,-2.4948467 h 0.04516 c 0.225778,0.8579565 0.474133,1.6707577 0.733778,2.4948467 l 0.349956,1.12889 h -2.212624 z m -2.257781,4.143027 h 0.959557 l 0.711201,-2.25778 h 2.686758 l 0.699912,2.25778 h 0.993423 L 38.983887,8.2972411 H 37.92273 Z" />
			<path d="m 42.968873,15.70276 h 0.936979 v -3.127026 h 1.320801 L 47.0103,15.70276 h 1.072445 l -1.885246,-3.228626 c 1.004712,-0.259644 1.659468,-0.948267 1.659468,-2.099735 0,-1.5352907 -1.083734,-2.0771579 -2.585158,-2.0771579 h -2.302936 z m 0.936979,-3.894671 V 9.0535974 h 1.23049 c 1.151468,0 1.783646,0.3499559 1.783646,1.3208016 0,0.959556 -0.632178,1.43369 -1.783646,1.43369 z" />
			<path d="m 49.539018,15.70276 h 0.903112 v -3.872093 c 0,-0.767645 -0.09031,-1.557868 -0.124178,-2.3142247 h 0.02258 l 0.711201,1.5352907 2.370669,4.651027 h 1.038579 V 8.2972411 h -0.903112 v 3.8382259 c 0,0.778934 0.09031,1.614313 0.124177,2.348092 h -0.02258 L 52.948266,12.948268 50.577597,8.2972411 h -1.038579 z" />
			<path d="m 56.459118,15.70276 h 4.628449 V 14.901248 H 59.247476 V 9.0874641 h 1.840091 v -0.790223 h -4.628449 v 0.790223 h 1.840091 v 5.8137839 h -1.840091 z" />
			<path d="m 63.085706,15.70276 h 0.903112 v -3.872093 c 0,-0.767645 -0.09031,-1.557868 -0.124178,-2.3142247 h 0.02258 l 0.711201,1.5352907 2.370669,4.651027 h 1.038579 V 8.2972411 h -0.903112 v 3.8382259 c 0,0.778934 0.09031,1.614313 0.124178,2.348092 h -0.02258 L 66.494954,12.948268 64.124285,8.2972411 h -1.038579 z" />
			<path d="m 72.737722,15.838227 c 0.959556,0 1.749779,-0.383823 2.212624,-0.857957 v -3.115736 h -2.348091 v 0.778934 h 1.478846 v 1.930402 c -0.282223,0.270933 -0.767645,0.440267 -1.286935,0.440267 -1.456268,0 -2.280358,-1.174046 -2.280358,-3.036714 0,-1.840091 0.914401,-2.991559 2.302936,-2.991559 0.711201,0 1.151468,0.2935114 1.512713,0.677334 l 0.530578,-0.5983117 c -0.417689,-0.4402671 -1.061157,-0.903112 -2.043291,-0.903112 -1.919113,0 -3.28507,1.4449792 -3.28507,3.8382257 0,2.415825 1.343379,3.838227 3.206048,3.838227 z" />
		</g>
	</g>
	<g inkscape:groupmode="layer">
		<rect x="4" y="4" width="96" height="16" style="fill:none;fill-opacity:1;stroke:#e51717;stroke-width:1;stroke-linejoin:round;stroke-dasharray:none;stroke-opacity:1" />
	</g>
</svg>
