<?xml version="1.0" encoding="UTF-8" standalone="no"?>
<svg
	xmlns="http://www.w3.org/2000/svg"
	xmlns:cc="http://creativecommons.org/ns#"
	xmlns:dc="http://purl.org/dc/elements/1.1/"
	xmlns:inkscape="http://www.inkscape.org/namespaces/inkscape"
	xmlns:sodipodi="http://sodipodi.sourceforge.net/DTD/sodipodi-0.dtd"
	xmlns:svg="http://www.w3.org/2000/svg"
	xmlns:rdf="http://www.w3.org/1999/02/22-rdf-syntax-ns#"
	width="32"
	height="32"
	viewBox="0 0 32 32"
	version="1.1"
	inkscape:version="1.3 (0e150ed6c4, 2023-07-21)"
	aria-label="度し難い"
	>
	<title>doshigatai</title>
	<metadata>
		<rdf:RDF>
			<cc:License rdf:about="http://creativecommons.org/publicdomain/zero/1.0/">
				<cc:permits rdf:resource="http://creativecommons.org/ns#Reproduction" />
				<cc:permits rdf:resource="http://creativecommons.org/ns#Distribution" />
				<cc:permits rdf:resource="http://creativecommons.org/ns#DerivativeWorks" />
			</cc:License>
			<cc:Work rdf:about="">
				<cc:license rdf:resource="http://creativecommons.org/publicdomain/zero/1.0/" />
				<dc:title>doshigatai</dc:title>
				<dc:creator>
					<cc:Agent>
						<dc:title>zawa-ch.</dc:title>
					</cc:Agent>
				</dc:creator>
			</cc:Work>
		</rdf:RDF>
	</metadata>
	<style>
		.typography {
			font-family:'IPAex明朝';
			font-style:normal;
			font-variant:normal;
			font-weight:normal;
			font-stretch:normal;
			line-height:1.05;
			text-anchor:start;
			-inkscape-font-specification:'IPAex明朝, Normal';
		}
		.fg {
			fill:#ea553a;
			fill-opacity:1;
			stroke:none;
		}
	</style>
	<sodipodi:namedview
		pagecolor="#505050"
		bordercolor="#eeeeee"
		borderopacity="1"
		inkscape:showpageshadow="0"
		inkscape:pageopacity="0"
		inkscape:pagecheckerboard="0"
		inkscape:deskcolor="#505050"
		inkscape:document-units="px"
		showgrid="false"
		>
		<sodipodi:guide position="0,0" orientation="32,0" />
		<sodipodi:guide position="16,0" orientation="32,0" />
		<sodipodi:guide position="32,0" orientation="32,0" />
		<sodipodi:guide position="0,0" orientation="0,32" />
		<sodipodi:guide position="0,16" orientation="0,32" />
		<sodipodi:guide position="0,32" orientation="0,32" />
	</sodipodi:namedview>
	<g inkscape:groupmode="layer" style="display:none">
		<text xml:space="preserve" x="-0.62593412" y="13.561907" class="typography fg" style="font-size:16.4348px"><tspan sodipodi:role="line" x="-0.62593412" y="13.561907" class="fg">度し</tspan><tspan sodipodi:role="line" x="-0.62593412" y="30.820372" class="fg">難い</tspan></text>
	</g>
	<g inkscape:groupmode="layer">
		<g class="typography fg" aria-label="度し難い" transform="matrix(0.9670641,0,0,0.9670641,0.68374454,0.49108724)">
			<path d="M 7.3258052,-0.52539062 V 1.7539062 H 3.2145662 C 2.847001,1.5878405 2.4538137,1.4360055 2.025125,1.3046875 l -0.7190523,-0.21875 v 4.9492187 c 0,3.6286229 -0.59458429,6.3583708 -1.74064558,8.2499998 l -0.25488024,0.421875 1.24953484,0.773438 0.31290176,-0.371094 C 1.0951315,14.844929 1.3017845,14.565517 1.4946426,14.269531 l 0.694186,1.060547 0.3522735,-0.04492 c 2.5790388,-0.323417 4.8266397,-0.970447 6.7387849,-1.947265 1.404233,0.704333 3.244349,1.273806 5.5079,1.716797 l 0.4248,0.08398 0.184426,-0.369141 c 0.137246,-0.27541 0.35605,-0.543727 0.673464,-0.796875 l 0.942849,-0.751953 -1.224668,-0.154297 c -1.819974,-0.231242 -3.344414,-0.561948 -4.598205,-0.984375 0.767631,-0.549489 1.444317,-1.130748 2.036969,-1.740234 l 0.385429,-0.123047 0.01658,-0.0078 c 0.216787,-0.08514 0.540843,-0.2827211 0.540843,-0.6621099 0,-0.4558038 -0.593043,-0.9299638 -1.378011,-1.5078125 L 12.384038,7.7421875 12.170602,7.9707031 V 5.7011719 h 3.586973 L 16.294274,4.8476562 16.06426,4.5683594 C 15.728199,4.1611081 15.332311,3.7524464 14.878963,3.3417969 L 14.719404,3.1972656 h 0.928345 L 16.23418,2.3378906 15.995878,2.0488281 C 15.685944,1.6749085 15.258779,1.2619665 14.727693,0.81640625 l -0.447594,-0.375 -1.034027,1.31249995 H 9.4207964 V 1.1855469 c 0.37695,-0.1682129 0.7066196,-0.40324799 0.7066196,-0.78515627 0,-0.77905758 -1.0783238,-0.90148565 -2.2441898,-0.91796875 z M 20.5257,0.22070313 20.047023,1.4492187 20.517412,1.6445312 c 0.280625,0.1170737 0.395396,0.229504 0.437233,0.3027344 0.04757,0.082942 0.10361,0.3183497 0.10361,0.765625 0,0.4944693 -0.02128,1.0736803 -0.06631,1.7421875 -0.125391,1.9823063 -0.18857,3.7858512 -0.18857,5.4082032 0,1.3735907 0.284485,2.4851367 0.926272,3.2187497 0.712416,0.81249 1.851438,1.158203 3.30101,1.158203 1.884177,0 3.519243,-0.642935 4.886241,-1.914062 1.009286,-0.968693 1.781291,-2.3408201 2.331221,-4.0722657 L 32.382812,7.828125 30.942635,7.1855469 30.727127,7.6972656 c -0.599324,1.4224841 -1.379686,2.5194694 -2.32915,3.3105474 -1.021497,0.849818 -2.120998,1.257812 -3.290649,1.257812 -0.978145,0 -1.495582,-0.14825 -1.761367,-0.380859 -0.304843,-0.26959 -0.515977,-0.908829 -0.515977,-2.1269535 0,-1.6501258 0.140639,-3.6199855 0.428944,-5.921875 0.03724,-0.3158636 0.0972,-0.6441162 0.180282,-0.9941406 0.08025,-0.3620005 0.130548,-0.5782381 0.130548,-0.7402344 0,-0.4545988 -0.346003,-0.839114 -0.758424,-1.13671875 C 22.273237,0.57178174 21.651477,0.33997867 20.954645,0.265625 Z M 3.4528688,3.1972656 H 5.6307479 V 4.25 H 3.4528688 Z m 4.8655187,0 H 10.092188 V 4.25 H 7.7733997 C 8.1079778,4.0856922 8.3909144,3.8524954 8.3909144,3.4980469 c 0,-0.1146366 -0.02697,-0.2133875 -0.072527,-0.3007813 z m 4.4676565,0 h 1.440177 L 13.374548,4.25 h -1.145925 c 0.340165,-0.1637377 0.623732,-0.3974445 0.623732,-0.7675781 0,-0.1078994 -0.02456,-0.201929 -0.06631,-0.2851563 z M 3.4528688,5.7011719 h 2.1778791 v 2.921875 H 3.3140316 C 3.4041696,7.8078519 3.4528688,6.9470221 3.4528688,6.0351562 Z m 4.2728704,0 H 10.092188 V 6.6171875 H 7.7257392 Z m 0,2.359375 h 2.3664488 v 0.5625 H 7.7257392 Z M 3.222855,9.3300781 3.6082836,10.066406 h 1.5748698 c 0.7523333,0.838681 1.5006771,1.547828 2.2462616,2.109375 -1.4132312,0.714074 -3.1800238,1.288752 -5.3214021,1.714844 l -0.4351614,0.08594 C 2.4401658,12.697013 2.9529851,11.144344 3.222855,9.3300781 Z M 7.5309527,10.066406 H 10.539783 C 10.132689,10.437338 9.6651291,10.804127 9.1348332,11.166016 8.5891771,10.848915 8.054782,10.481534 7.5309527,10.066406 Z" />
			<path d="m 9.5955163,16.535156 -0.1219115,0.492188 c -0.1751903,0.7129 -0.3755506,1.392103 -0.5993983,2.042968 L 8.7258808,18.869141 C 8.4789684,18.532442 8.2173985,18.231218 7.9415833,17.962891 l -0.0061,-0.0059 C 7.845496,17.85792 7.7531038,17.770769 7.6591549,17.693359 L 7.2141778,17.326172 6.2998414,18.554687 h -0.046733 v -0.207031 c 0.3047487,-0.163609 0.5668886,-0.395615 0.5668886,-0.751953 0,-0.718908 -0.9766142,-0.827682 -1.9790304,-0.876953 L 4.274078,16.68945 v 1.865234 H 3.5730869 v -0.185546 c 0.3123899,-0.161363 0.5851753,-0.393415 0.5851753,-0.742188 0,-0.750873 -0.9898092,-0.845931 -2.0074765,-0.878906 l -0.5567293,-0.01758 v 1.824218 h -2.32647828 l 0.53234701,1.44336 H 1.5940564 v 0.660156 C 1.4442828,20.595165 1.2943139,20.531703 1.1186015,20.462891 L 0.37697302,20.171875 v 5.003906 H -0.2183616 l 0.62378065,1.44336 H 2.9147647 v 0.109375 c 0,0.07858 -0.00477,0.171137 -0.010159,0.267578 h -3.55778478 l 0.57907975,1.453125 H 2.6262407 C 2.191784,29.630912 1.286261,30.534511 -0.12286424,31.142578 l -0.54453815,0.236328 0.73553288,1.222656 0.41856291,-0.134765 c 1.7011145,-0.551693 2.9408115,-1.433971 3.6614095,-2.669922 0.8348324,0.527233 1.4131369,1.018335 1.7514623,1.486328 l 0.00203,0.0039 0.00406,0.0059 c 0.2588707,0.342154 0.5991726,0.654297 1.0443754,0.654297 0.6493258,0 1.0403117,-0.431303 1.0403117,-1.039063 0,-0.625096 -0.5164374,-1.142462 -1.2272427,-1.613281 l -0.00406,-0.0039 -0.00406,-0.002 C 6.2641166,28.978535 5.7008947,28.700012 5.0766624,28.449219 H 8.061463 l 0.012191,-0.01953 v 4.087891 h 2.035923 v -1.035156 h 5.827371 l 0.48155,-0.910156 -0.190995,-0.25586 C 15.97945,29.984914 15.614481,29.588064 15.154682,29.140625 l -0.43685,-0.425781 -1.040311,1.322265 h -0.729438 v -1.933593 h 2.216758 l 0.495774,-0.91211 -0.351512,-0.425781 c -0.231782,-0.279929 -0.515976,-0.584235 -0.85338,-0.914063 l -0.434818,-0.423828 -0.973261,1.22461 h -0.09956 v -1.742188 h 2.210663 L 15.62201,24 l -0.312907,-0.380859 -0.01016,-0.01172 -0.0041,-0.0059 C 15.059631,23.286817 14.78832,22.971043 14.478073,22.65625 l -0.43685,-0.443359 -0.981387,1.251953 h -0.111753 v -1.595703 h 2.651576 l 0.461232,-0.90625 -0.199122,-0.253907 c -0.40114,-0.510506 -0.737364,-0.898244 -1.001707,-1.152343 l -0.451072,-0.433594 -0.959038,1.300781 h -0.365734 c 0.326936,-0.518097 0.618742,-1.043931 0.873699,-1.578125 0.426963,-0.08554 0.851349,-0.269282 0.851349,-0.744141 0,-0.639617 -0.869904,-0.95302 -1.881501,-1.220703 l -0.538443,-0.142578 -0.128007,0.523438 c -0.06443,0.264621 -0.131181,0.520063 -0.201154,0.773437 0.01815,-0.06063 0.02845,-0.126558 0.02845,-0.199219 0,-0.681261 -0.916039,-0.97599 -1.976999,-1.195312 z m 2.4605807,1.511719 c -0.236932,0.856308 -0.506161,1.647624 -0.806648,2.376953 h -0.768042 c 0.265743,-0.578238 0.508816,-1.1849 0.735533,-1.816406 0.374161,-0.0765 0.732941,-0.229367 0.839157,-0.560547 z m 6.296731,0.6875 -0.887923,1.191406 0.487647,0.291016 c 0.331129,0.197426 0.546878,0.463837 0.65629,0.798828 0.08564,0.312929 0.134095,0.749823 0.134103,1.332031 0.01122,1.951679 0.137597,3.4445 0.390117,4.449219 0.320915,1.329271 0.853815,2.391089 1.633614,3.140625 0.281779,0.264841 0.589468,0.491277 0.914336,0.673828 0.357619,0.209753 0.724711,0.365235 1.056567,0.365234 0.574159,0 0.997643,-0.35083 0.997643,-0.925781 V 30 l -0.172708,-0.828125 c 0.0092,-0.181634 0.09544,-0.510106 0.310874,-1.072266 0.10086,-0.255134 0.458223,-1.093893 1.064694,-2.505859 L 25.129077,25.146484 23.759604,24.5 23.517813,24.953125 c -0.812682,1.530496 -1.398085,2.542167 -1.771781,3.072266 -0.689431,-1.07274 -1.042344,-2.318425 -1.042344,-3.746094 0,-0.671905 0.03798,-1.453999 0.113784,-2.34961 v -0.002 c 0.0054,-0.04088 0.02156,-0.112871 0.06096,-0.226562 0.0529,-0.158204 0.101593,-0.331695 0.101593,-0.462891 0,-0.961872 -0.880731,-1.71946 -2.222853,-2.322265 z m -9.6167879,0.71875 C 8.4767027,20.162397 8.1891759,20.837159 7.8704682,21.470703 7.739628,21.116266 7.3022454,20.771651 6.7752963,20.369141 L 6.3567334,20.048828 6.2531086,20.171875 v -0.173828 h 2.1171969 z m -5.1629532,0.544922 h 0.7009913 v 0.882812 H 3.5730869 Z m 23.9799971,0.296875 -0.88589,1.222656 0.453104,0.292969 c 1.570148,1.017675 2.593059,2.586698 3.037629,4.753906 0.122773,0.583866 0.40134,1.169922 1.052503,1.169922 0.835145,0 1.172383,-0.661642 1.172383,-1.455078 0,-0.936924 -0.343468,-1.889813 -0.985452,-2.855469 -0.405247,-0.606576 -0.822871,-1.115206 -1.249593,-1.513672 -0.56054,-0.521248 -1.292238,-0.993006 -2.178153,-1.416015 z m -17.443507,1.574219 h 0.802584 v 1.595703 h -0.802584 z m -7.7474779,0.464843 h 0.5526656 v 0.802735 H 2.3620991 Z m 2.5560783,0 h 0.5587612 v 0.802735 H 4.9181774 Z m 3.1554767,1.81836 v 1.4375 L 7.917201,25.425781 C 7.7532246,25.252655 7.5937744,25.094367 7.4376823,24.947266 v -0.07813 L 7.6794735,24.605469 C 7.8212674,24.450518 7.9427546,24.30325 8.0736541,24.152344 Z m -5.711555,0.429687 h 0.5526656 v 0.59375 H 2.3620991 Z m 2.5560783,0 h 0.5587612 v 0.560547 H 5.657774 l -0.028446,0.0332 H 4.9181774 Z m 5.1913996,0.328125 h 0.802584 v 1.742188 h -0.802584 z m -2.0359229,0.970703 v 1.095703 C 7.9441998,26.835566 7.8105434,26.698426 7.6713461,26.564453 Z m -3.1554767,0.738282 h 1.3715047 l -0.302747,0.376953 h -1.078917 c 0.0044,-0.10064 0.010159,-0.200986 0.010159,-0.300782 z m 5.1913996,1.484375 h 0.802584 v 1.933593 h -0.802584 z" />
		</g>
	</g>
</svg>
