<?xml version="1.0" encoding="UTF-8" standalone="no"?>
<svg
	xmlns="http://www.w3.org/2000/svg"
	xmlns:cc="http://creativecommons.org/ns#"
	xmlns:dc="http://purl.org/dc/elements/1.1/"
	xmlns:inkscape="http://www.inkscape.org/namespaces/inkscape"
	xmlns:rdf="http://www.w3.org/1999/02/22-rdf-syntax-ns#"
	xmlns:sodipodi="http://sodipodi.sourceforge.net/DTD/sodipodi-0.dtd"
	xmlns:svg="http://www.w3.org/2000/svg"
	width="32"
	height="32"
	viewBox="0 0 32 32"
	version="1.1"
	inkscape:version="1.2.2 (b0a8486541, 2022-12-01)"
	area-label="絵文字多すぎ問題"
	>
	<title>emojioosugimondai</title>
	<metadata>
		<rdf:RDF>
			<cc:License rdf:about="http://creativecommons.org/publicdomain/zero/1.0/">
				<cc:permits rdf:resource="http://creativecommons.org/ns#Reproduction" />
				<cc:permits rdf:resource="http://creativecommons.org/ns#Distribution" />
				<cc:permits rdf:resource="http://creativecommons.org/ns#DerivativeWorks" />
			</cc:License>
			<cc:Work rdf:about="">
				<cc:license rdf:resource="http://creativecommons.org/publicdomain/zero/1.0/" />
				<dc:title>emojioosugimondai</dc:title>
				<dc:creator>
					<cc:Agent>
						<dc:title>zawa-ch.</dc:title>
					</cc:Agent>
				</dc:creator>
			</cc:Work>
		</rdf:RDF>
	</metadata>
	<style>
		.typography {
			font-family: 'Dela Gothic One';
			font-style: normal;
			font-variant: normal;
			font-weight: normal;
			font-stretch: normal;
			line-height: 1.05;
			text-anchor: start;
			-inkscape-font-specification: 'Dela Gothic One, Normal';
		}
		.fg {
			fill: chartreuse;
			fill-opacity: 1;
			stroke: none;
		}
	</style>
	<sodipodi:namedview
		pagecolor="#505050"
		bordercolor="#eeeeee"
		borderopacity="1"
		inkscape:showpageshadow="0"
		inkscape:pageopacity="0"
		inkscape:pagecheckerboard="0"
		inkscape:deskcolor="#505050"
		inkscape:document-units="px"
		showgrid="false"
		showguides="false"
		>
		<inkscape:grid type="xygrid" empspacing="8" />
		<sodipodi:guide position="0,0" orientation="32,0" />
		<sodipodi:guide position="16,0" orientation="32,0" />
		<sodipodi:guide position="32,0" orientation="32,0" />
		<sodipodi:guide position="0,0" orientation="0,32" />
		<sodipodi:guide position="0,16" orientation="0,32" />
		<sodipodi:guide position="0,32" orientation="0,32" />
	</sodipodi:namedview>
	<g inkscape:groupmode="layer" style="display:none">
		<text xml:space="preserve" x="-0.033275563" y="8.7071056" class="typography fg" style="font-size:11.0919px"><tspan sodipodi:role="line" x="-0.033275563" y="8.7071056" class="typography fg">絵文字</tspan><tspan sodipodi:role="line" x="-0.033275563" y="20.3536" class="typography fg">多すぎ</tspan><tspan sodipodi:role="line" x="-0.033275563" y="32.000095" class="typography fg">問題</tspan></text>
	</g>
	<g inkscape:label="Outline" inkscape:groupmode="layer">
		<g class="typography fg" transform="scale(0.96876701,1)">
			<path d="M 9.9494343,5.9119469 Q 10.071445,6.4110824 10.293283,6.9324017 10.515121,7.4426291 10.903338,8.2301539 9.7165044,8.4630838 8.9400714,8.884576 8.8069686,8.5629109 8.762601,8.4409 L 4.7029657,8.6960137 4.66969,8.2523377 3.5937757,8.3743486 Q 3.5383162,6.9434936 3.5383162,5.4349952 l 1.0537305,-0.05546 q 0,0.5102274 0.022184,1.2866604 L 5.1577336,6.6551042 5.4683068,5.8121198 H 4.6475062 V 5.1022382 L 3.5715919,5.2575248 3.5494081,5.0245949 3.338662,5.0578706 V 8.7181975 H 1.5195904 V 5.2797086 q -0.64333017,0.077643 -1.36430367,0.1331028 0,-0.998271 -0.08873519,-1.6305093 L 0.80970883,3.7601183 Q 1.0315468,3.5160965 1.1313739,3.3940856 0.58787083,2.7840311 1.3634562e-7,2.2959875 L 0.68769793,0.77639723 Q 0.84298453,0.90950003 0.94281163,1.0093271 1.231201,0.57674303 1.4863147,-3.5762787e-5 L 3.0946402,0.39927263 Q 2.3736667,1.464095 1.9743583,1.9965062 L 2.118553,2.1517928 Q 2.8395265,1.1535218 3.4273972,0.13306704 L 5.0800903,0.64329443 4.5144034,1.4197274 Q 4.9137118,1.353176 5.1799174,1.2644408 5.4572149,1.1646137 5.7566962,0.98714333 6.1227289,0.77639723 6.2669236,0.59892683 6.4222102,0.41036453 6.4665778,0.05542374 l 2.1185528,0.0887352 Q 8.5740387,0.39927263 8.4853035,0.65438633 9.6277692,1.1202461 11.236095,1.4197274 10.925522,2.1185171 10.670408,3.3608099 10.404202,3.2720747 10.282191,3.2166152 V 4.1150591 H 5.0689984 V 3.1611557 Q 4.9580794,3.1944314 4.6142305,3.2720747 4.5144034,2.2738037 4.3258411,1.685933 L 4.0485436,2.0741495 3.8821651,2.2959875 4.3480249,2.2294361 4.4700358,2.8394906 Q 4.66969,3.8377616 4.7251495,4.2481619 H 10.504029 V 5.8121198 H 7.5535839 L 7.2651946,6.5774609 8.1081789,6.5552771 7.8974328,5.9119469 Z M 8.6849577,2.5067336 Q 8.1969141,2.2627118 7.6090434,1.8634034 7.331746,2.0852414 7.0544485,2.2738037 L 6.666232,2.5067336 Z M 3.3497539,3.682475 3.2499268,3.1611557 2.8506184,3.7046588 Z M 0.28838953,5.5348223 q 0.2107461,0 0.6322383,-0.022184 L 1.34212,5.5015466 q 0,0.998271 -0.022184,1.5861417 Q 1.2977524,7.664467 1.1757415,8.4409 1.0870063,8.4298081 0.76534123,8.3965324 0.45476803,8.3521648 0.03327584,8.3521648 0.19965433,7.6200994 0.24402193,7.0322288 0.28838953,6.4443581 0.28838953,5.5348223 Z" />
			<path d="M 22.12834,6.1116011 Q 21.7734,6.7105637 21.584837,7.3871696 21.396275,8.0526835 21.296448,8.7847489 18.434738,8.4519919 16.604574,7.4093534 14.752227,8.4519919 11.912701,8.7847489 11.812873,8.0526835 11.624311,7.3871696 11.435749,6.7105637 11.080808,6.1116011 q 1.10919,0 1.941083,-0.077643 0.842984,-0.077643 1.541774,-0.2994813 -0.964996,-1.10919 -1.608326,-2.5178613 H 11.469025 V 0.88731623 h 3.671418 v -0.6766059 h 2.928262 v 0.6766059 h 3.671419 V 3.2166152 h -1.486315 q -0.665514,1.441947 -1.608325,2.5067694 0.69879,0.2329299 1.51959,0.3105732 0.831893,0.077643 1.963266,0.077643 z M 15.883601,3.2166152 q 0.266205,0.6544221 0.720973,1.1646495 0.443676,-0.5102274 0.720974,-1.1646495 z" />
			<path d="m 33.031678,4.6141946 v 1.9078068 h -2.650964 q 0.266205,0.3216651 0.266205,0.5878707 0,0.4547678 -0.4104,0.8208005 -0.4104,0.3549408 -1.209017,0.5656869 -0.787525,0.2107461 -1.907807,0.2107461 -0.476951,0 -1.087006,-0.044368 -0.598962,-0.055459 -1.685969,-0.1774704 0,-0.6211464 -0.08873,-1.0759142 Q 24.16926,6.9545851 23.969601,6.522001 H 22.36127 V 4.6141946 h 5.590318 q 0.255114,-0.088735 0.510227,-0.2440218 H 23.99178 V 4.2148862 H 22.572016 V 0.53237543 h 3.926533 v -0.2662056 h 2.373667 v 0.2662056 h 3.926532 V 4.2148862 h -1.364304 l 0.01109,0.033276 -0.443676,0.088735 -0.909536,0.2772975 z M 30.569276,2.7840311 V 2.4845498 H 24.801488 V 2.7840311 Z M 24.34672,6.5220014 q 1.508499,0.2883894 2.440218,0.2883894 0.976088,0 1.142466,-0.2883894 z" />
		</g>
		<g class="typography fg" transform="matrix(0.95148123,0,0,1,0.00107634,0)">
			<path d="m 0.39930853,14.663455 q 1.56395787,0 2.54004507,-0.133102 L 2.7507913,14.308515 q -0.8097087,0.188562 -1.78579587,0.277297 -0.0665514,-0.421492 -0.2107461,-0.854076 -0.1331028,-0.432584 -0.3882165,-1.098098 1.46413077,0 2.47349367,-0.177471 1.0204548,-0.188562 1.9078068,-0.58787 H 7.6755948 Q 7.4981244,12.023583 7.2984703,12.17887 h 1.7303363 l 0.2551137,1.34212 Q 8.87352,13.87593 8.1303627,14.286331 7.3982974,14.685639 6.9768052,14.885293 5.6901448,15.484256 4.2038302,15.861381 2.7175156,16.227413 0.79861693,16.471435 0.54350323,15.717186 0.02218394,14.663455 Z M 4.5476791,13.75392 q 0.1663785,0.155286 0.3882165,0.299481 0.554595,-0.199654 1.0093629,-0.476952 H 4.9802632 q -0.1552866,0.07764 -0.4325841,0.177471 z m 5.8454309,1.475222 0.610055,1.918899 Q 9.871791,18.235047 8.3965683,19.000388 6.9657133,19.732454 5.2021012,20.031935 3.449581,20.320324 1.0759144,20.375784 0.84298453,19.144583 0.25511383,18.101944 0.94281163,18.179588 1.8190717,18.223955 1.5750499,17.802463 1.2977524,17.458614 1.0315468,17.103673 0.63223843,16.748733 3.0280888,16.482527 5.0911822,15.839197 7.1653675,15.195867 8.540763,14.297423 l 1.563958,0.377124 Q 9.98271,14.785466 9.4613907,15.229142 Z m -3.2942939,1.541774 -0.4214922,0.210746 q 0.1996542,0.210747 0.4214922,0.388217 0.5102273,-0.199654 1.0204547,-0.598963 z M 5.1022741,17.95775 Q 4.9802632,17.835739 4.8804361,17.702636 3.9043489,18.024301 3.0169969,18.223955 4.1040031,18.179588 5.1022741,17.95775 Z" />
			<path d="m 21.862135,14.297423 q -0.754249,-0.02218 -2.240564,-0.04437 l -0.01109,2.007634 q 0.03328,0.08873 0.07764,0.288389 0.07764,0.443676 0.07764,0.720974 0,1.57505 -1.552866,2.373666 -1.541774,0.798617 -4.66969,0.75425 l -0.210746,-0.354941 q -0.366033,-0.621147 -0.676606,-1.064823 -0.310573,-0.443676 -0.820801,-0.964995 1.874531,0.266206 3.005905,0.266206 1.486315,0 1.896715,-0.454768 -0.454768,0.110919 -0.720973,0.166378 -0.255114,0.04437 -0.587871,0.04437 -0.554595,0 -1.098098,-0.199654 -0.532411,-0.210746 -0.887352,-0.587871 -0.343849,-0.388216 -0.343849,-0.87626 0,-0.598963 0.388216,-1.009363 0.399309,-0.421492 1.020455,-0.621146 0.621147,-0.199655 1.308844,-0.199655 0.643331,0 1.264477,0.08874 l -0.01109,-0.354941 q -2.894986,0.06655 -5.634685,0.299481 l -0.122011,-2.21838 q 3.27211,-0.110919 5.679053,-0.144195 l -0.01109,-0.366032 h 2.650964 v 0.366032 q 1.164649,0 2.351483,0.03328 z m -5.656869,2.21838 q 0.244022,0 0.454768,-0.06655 0.210746,-0.07764 0.210746,-0.199654 0,-0.17747 -0.166379,-0.244022 -0.155286,-0.07764 -0.476951,-0.07764 -0.632239,0 -0.632239,0.299481 0,0.122011 0.155287,0.210746 0.166378,0.07764 0.454768,0.07764 z" />
			<path d="m 32.954035,15.362245 -1.586142,0.133103 q 0.554595,0.676606 1.364304,1.441947 l -1.031547,0.987179 q 0.332757,-0.02218 0.521319,-0.04437 -0.244022,0.510228 -0.366032,1.186834 -0.122011,0.665514 -0.133103,1.242292 -1.941083,0.07764 -4.148371,0.07764 -2.118553,0 -3.394121,-0.610055 -1.275569,-0.610054 -1.275569,-1.918898 0,-0.98718 0.820801,-1.430856 0.820801,-0.454767 2.429126,-0.454767 1.708153,0 3.394121,0.709881 -0.465859,-0.499135 -0.831892,-0.998271 -2.939354,0.177471 -6.289107,0.177471 v -1.497407 q 3.03918,0 5.346295,-0.122011 -0.08873,-0.155286 -0.12201,-0.23293 -2.207289,0.133103 -4.72515,0.133103 v -1.719244 q 2.296023,0 3.993084,-0.110919 -0.04437,-0.110919 -0.110919,-0.332757 l 2.695332,-0.277298 0.08873,0.366033 1.186833,-0.166379 0.08873,0.188563 q 0.366033,-0.488044 0.665514,-1.031547 l 0.909536,0.4104 q -0.488043,0.865168 -1.098098,1.597234 l 0.266206,0.554595 -1.375396,0.166378 0.155287,0.277298 q 1.674877,-0.133103 2.484585,-0.221838 z m -1.353212,-2.151829 q 0.632238,-0.732065 1.120282,-1.608325 l 0.909536,0.399308 q -0.443676,0.831893 -1.120282,1.63051 z m -3.139008,4.858253 q 0.987179,0 1.586142,-0.03328 -2.795159,-0.765341 -3.671419,-0.765341 -0.255114,0 -0.388216,0.09983 -0.133103,0.08873 -0.133103,0.199654 0,0.277298 0.665514,0.388217 0.665514,0.110919 1.941082,0.110919 z" />
		</g>
		<g class="typography fg" transform="matrix(1.4614929,0,0,1,-0.19451572,0)">
			<path d="M 5.4128473,27.707529 H 2.7064237 v 4.237106 H 0.42149233 V 23.658986 H 5.4128473 Z m 5.1910087,3.050273 q 0,0.565686 -0.188562,0.798616 -0.188562,0.23293 -0.8651681,0.310574 -0.665514,0.07764 -2.3071151,0.07764 0,-0.332757 -0.033276,-0.69879 H 4.9469875 v 0.244022 H 2.9282617 V 27.962643 H 8.097087 v 1.69706 q 0.1663785,0 0.221838,-0.03327 0.066551,-0.03328 0.077643,-0.110919 0.011092,-0.07764 0.011092,-0.321665 v -1.48632 H 5.6235934 v -4.048543 h 4.9802626 v 6.577496 z M 3.5715919,24.834727 H 2.7064237 v 0.277297 h 0.8651682 z m 4.8360683,0.277297 V 24.834727 H 7.4537569 v 0.277297 z m -4.8360683,1.319937 v -0.28839 H 2.7064237 v 0.28839 z m 3.882165,-0.28839 v 0.28839 h 0.9539033 v -0.28839 z M 6.0783613,29.271487 H 4.9469875 v 0.399308 h 1.1313738 z" />
			<path d="m 22.028513,29.692979 q -0.676606,0.266206 -1.020455,0.454768 0.46586,-0.02218 0.909536,-0.06655 -0.166378,0.332757 -0.255113,0.720973 -0.08874,0.377125 -0.155287,0.887352 l -0.03328,0.255114 q -1.153557,0.04437 -2.606596,0.04437 -1.430855,0 -2.45131,-0.04437 -1.186833,-0.05546 -2.052002,-0.23293 -0.854076,-0.17747 -1.563957,-0.565687 -0.07764,0.354941 -0.266206,0.854076 -0.610055,-0.443676 -1.220109,-0.720973 0.266206,-0.776433 0.354941,-1.441947 0.08874,-0.676606 0.08874,-1.430855 h 1.231201 l -0.01109,0.931719 0.255114,0.133103 v -1.264476 h -1.863439 v -1.120282 h 4.958079 v 1.120282 h -1.20902 v 0.277297 h 1.197925 v 1.031547 q 0.942811,-0.23293 1.475223,-0.454768 H 16.58239 v -4.137279 h 1.619418 L 18.312727,24.7349 h -1.75252 v -1.075914 h 5.202101 V 24.7349 h -1.896715 l -0.110919,0.188562 h 1.907807 v 4.137279 h -0.953904 q 0.842985,0.421492 1.319936,0.632238 z M 16.349461,26.89782 h -4.858253 v -3.205559 h 4.858253 z m -1.841256,-2.140736 h -1.186833 v 0.199654 h 1.186833 z m -1.186833,1.020454 v 0.199655 h 1.186833 v -0.199655 z m 6.544221,0.144195 h -1.486315 v 0.188562 h 1.486315 z m 0,0.942812 h -1.486315 v 0.188562 h 1.486315 z m 0,0.964995 h -1.486315 v 0.188562 h 1.486315 z m -1.142466,1.231201 0.554595,0.221838 0.543503,-0.221838 z m -0.432584,1.175741 q 0.998271,0 1.885623,-0.04437 -0.4104,-0.266206 -0.920628,-0.576779 -0.654422,0.343849 -1.508498,0.621146 z m -2.185104,-0.05546 q 0.377124,0.02218 0.598962,0.02218 -0.432584,-0.23293 -0.854076,-0.399309 H 15.11826 v 0.266206 q 0.432584,0.07764 0.987179,0.110919 z" />
		</g>
	</g>
</svg>
