<?xml version="1.0" encoding="UTF-8" standalone="no"?>
<svg
	xmlns="http://www.w3.org/2000/svg"
	xmlns:cc="http://creativecommons.org/ns#"
	xmlns:dc="http://purl.org/dc/elements/1.1/"
	xmlns:inkscape="http://www.inkscape.org/namespaces/inkscape"
	xmlns:rdf="http://www.w3.org/1999/02/22-rdf-syntax-ns#"
	xmlns:sodipodi="http://sodipodi.sourceforge.net/DTD/sodipodi-0.dtd"
	xmlns:svg="http://www.w3.org/2000/svg"
	width="32"
	height="32"
	viewBox="0 0 32 32"
	version="1.1"
	inkscape:version="1.2.2 (b0a8486541, 2022-12-01)"
	aria-label="ごもっとも"
	>
	<title>gomottomo</title>
	<metadata>
		<rdf:RDF>
			<cc:License rdf:about="http://creativecommons.org/publicdomain/zero/1.0/">
				<cc:permits rdf:resource="http://creativecommons.org/ns#Reproduction" />
				<cc:permits rdf:resource="http://creativecommons.org/ns#Distribution" />
				<cc:permits rdf:resource="http://creativecommons.org/ns#DerivativeWorks" />
			</cc:License>
			<cc:Work>
				<cc:license rdf:resource="http://creativecommons.org/publicdomain/zero/1.0/" />
				<dc:title>gomottomo</dc:title>
				<dc:creator>
					<cc:Agent>
						<dc:title>zawa-ch.</dc:title>
					</cc:Agent>
				</dc:creator>
			</cc:Work>
		</rdf:RDF>
	</metadata>
	<style>
		.typography {
			-inkscape-font-specification:'Noto Serif CJK JP, Black';
			font-family:'Noto Serif CJK JP';
			font-stretch:normal;
			font-style:normal;
			font-variant:normal;
			font-weight:900;
			line-height:1.05;
			text-anchor:start;
		}
		.fg1 { 
			fill:white;
			fill-opacity:1;
			stroke:none;
		}
		.fg2 { 
			fill:none;
			stroke:black;
			stroke-opacity:1;
			stroke-width:1;
			stroke-dasharray:none;
			stroke-linejoin:round;
		}
		.fg2_outline { 
			fill:black;
			fill-opacity:1;
			stroke:none;
		}
	</style>
	<sodipodi:namedview
		pagecolor="#505050"
		bordercolor="#eeeeee"
		borderopacity="1"
		inkscape:showpageshadow="0"
		inkscape:pageopacity="0"
		inkscape:pagecheckerboard="0"
		inkscape:deskcolor="#505050"
		inkscape:document-units="px"
		showgrid="false"
		>
		<sodipodi:guide position="0,0" orientation="32,0" />
		<sodipodi:guide position="16,0" orientation="32,0" />
		<sodipodi:guide position="32,0" orientation="32,0" />
		<sodipodi:guide position="0,0" orientation="0,32" />
		<sodipodi:guide position="0,16" orientation="0,32" />
		<sodipodi:guide position="0,32" orientation="0,32" />
	</sodipodi:namedview>
	<g inkscape:groupmode="layer" display="none">
		<text x="-2.0532067" y="13.78346" xml:space="preserve" class="typography fg2" style="font-size:15.7761px"><tspan sodipodi:role="line" x="-2.0532067" y="13.78346" class="typography fg2">ごもっ</tspan><tspan sodipodi:role="line" x="-2.0532067" y="30.348343" class="typography fg2">とも</tspan></text>
		<text x="-2.0532067" y="13.78346" xml:space="preserve" class="typography fg1" style="font-size:15.7761px"><tspan sodipodi:role="line" x="-2.0532067" y="13.78346" class="typography fg1">ごもっ</tspan><tspan sodipodi:role="line" x="-2.0532067" y="30.348343" class="typography fg1">とも</tspan></text>
	</g>
	<g inkscape:groupmode="layer" inkscape:label="Outline">
		<g aria-label="ごもっ" transform="matrix(0.73904831,0,0,1,7.4263964e-5,0)">
			<g class="typography fg2_outline">
				<path d="m 10.632813,0.00390625 a 0.50005,0.50005 0 0 0 -0.486329,0.22851563 l -0.111328,0.171875 A 0.50005,0.50005 0 0 0 10.144531,1.0625 c 0.357703,0.2874396 0.384946,0.41191 0.572266,0.6191406 C 10.232034,1.4578477 9.8014937,1.1624711 9.2421875,1.0371094 A 0.50005,0.50005 0 0 0 8.7285156,1.2304687 L 8.6015625,1.4042969 a 0.50005,0.50005 0 0 0 0.0625,0.6601562 C 8.8738062,2.2610879 8.8981854,2.3780539 9.0488281,2.5546875 8.5210792,2.2820902 7.927138,2.1132813 7.3964844,2.1132813 6.8840786,2.1132813 6.517646,2.2532704 6.0585937,2.3652344 5.5995415,2.4771983 5.0018729,2.5878906 3.9414063,2.5878906 2.6884177,2.5878906 2.329405,2.4817555 1.59375,1.9667969 A 0.50005,0.50005 0 0 0 1.0507812,1.9492187 l -0.15820307,0.09375 A 0.50005,0.50005 0 0 0 0.65820312,2.5644531 C 0.85405669,3.6149405 1.4291112,4.3127595 2.1425781,4.6777344 2.6057178,4.914654 3.1259532,4.9357027 3.6347656,5.0039062 3.2791651,5.3279194 2.9220195,5.6642446 2.6074219,5.9121094 a 0.50005,0.50005 0 0 0 -0.1171875,0.65625 L 2.6171875,6.7734375 A 0.50005,0.50005 0 0 0 3.2382813,6.9707031 C 4.7755966,6.3185087 6.1409413,5.8853585 7.1230469,5.6738281 7.5814016,5.5823636 8.2396722,5.4737895 8.7773438,5.3789062 a 0.50005,0.50005 0 0 0 0.00586,-0.00195 C 9.1723592,5.3028282 9.5139433,5.1703374 9.7714844,4.9160156 10.029025,4.6616938 10.152344,4.295718 10.152344,3.9394531 c 0,-0.048014 -0.04468,-0.07329 -0.05078,-0.1191406 0.259331,0.3539135 0.579766,0.6585295 0.972656,0.6816406 a 0.50005,0.50005 0 0 0 0.0293,0 c 0.628394,0 1.163663,-0.5149713 1.173828,-1.1308593 0.0038,-0.08349 -0.09914,-0.1632011 -0.111328,-0.25 0.167997,0.0874 0.340464,0.1816406 0.53125,0.1816406 0.300424,0 0.605379,-0.1131856 0.808593,-0.3320313 0.203214,-0.2188456 0.291016,-0.5122927 0.291016,-0.7988281 0,-0.503626 -0.253392,-1.0294736 -0.744141,-1.3828125 a 0.50005,0.50005 0 0 0 -0.0059,-0.003906 c -0.591188,-0.41383177 -1.421687,-0.64893333 -2.414062,-0.78125 z m 1.173828,1.39453125 c 0.194942,0.077305 0.543993,0.1194442 0.664062,0.203125 0.294702,0.2128478 0.326172,0.3177114 0.326172,0.5703125 0,0.092091 -0.02156,0.1151679 -0.02344,0.1171875 -0.0019,0.00202 0.002,0.013672 -0.07617,0.013672 -0.07041,0 -0.06017,0.0042 -0.113282,-0.037109 -0.05311,-0.041307 -0.151791,-0.1526615 -0.285156,-0.3378906 a 0.50005,0.50005 0 0 0 -0.002,-0.00195 C 12.22248,1.8234881 11.92302,1.5510743 11.806641,1.3984375 Z m -0.08399,0.7167969 0.0078,0.00781 c -0.0015,-0.00137 -0.0044,-5.834e-4 -0.0059,-0.00195 -0.0018,-0.00161 -1.67e-4,-0.00425 -0.002,-0.00586 z m -1.423828,0.4277344 c 0.22994,0.1107113 0.599962,0.1713187 0.746094,0.3085937 a 0.50005,0.50005 0 0 0 0.0078,0.00781 c 0.229283,0.2063548 0.239857,0.2923356 0.230469,0.4707031 a 0.50005,0.50005 0 0 0 0,0.025391 c 0,0.093396 -0.04208,0.1277721 -0.164062,0.1347656 -0.08182,-0.00518 -0.1294,-0.00681 -0.298828,-0.2851563 C 10.726462,3.0504887 10.439074,2.7510982 10.298828,2.5429688 Z M 7.3964844,3.1132813 c 0.2985695,0 0.8228649,0.1318102 1.2089844,0.3339843 0.1930597,0.1010871 0.3543178,0.2198458 0.4453125,0.3183594 0.090995,0.098514 0.1015624,0.1554465 0.1015625,0.1738281 0,0.1643459 -0.026004,0.2083692 -0.083984,0.265625 -0.057276,0.05656 -0.1979114,0.1353712 -0.4648438,0.1875 -5.984e-4,1.056e-4 -0.00135,-1.056e-4 -0.00195,0 -0.00233,4.51e-4 -0.00156,0.00151 -0.00391,0.00195 -0.5315534,0.093756 -1.1915287,0.2035402 -1.6777344,0.3007813 a 0.50005,0.50005 0 0 0 -0.00781,0.00195 C 6.3126897,4.8263714 5.4179225,5.1889515 4.6328125,5.4570312 4.7038462,5.391479 4.8205037,5.2920116 4.8789062,5.2382812 a 0.50005,0.50005 0 0 0 0.015625,-0.015625 C 4.9408148,5.1763727 4.9864631,5.1326246 5.0371094,5.0488281 5.0877556,4.9650316 5.168095,4.7933475 5.0957031,4.5761719 5.0233112,4.3589962 4.8436657,4.2630173 4.7480469,4.2285156 4.6524281,4.194014 4.5885899,4.1895167 4.5234375,4.1835937 a 0.50005,0.50005 0 0 0 -0.00977,-0.00195 C 3.762786,4.127453 3.0792277,4.0334578 2.5976563,3.7871094 2.4699017,3.7217564 2.4490483,3.5006855 2.34375,3.4140625 c 0.4487003,0.1187267 0.9495599,0.1738281 1.5976563,0.1738281 1.132409,0 1.8442918,-0.1272758 2.3554687,-0.2519531 C 6.8080519,3.2112602 7.0727577,3.1132813 7.3964844,3.1132813 Z M 0.88085938,8.3613281 A 0.50005,0.50005 0 0 0 0.40625,8.7050781 c -0.54561862,1.6699239 -0.61156353,3.2471429 0.24023437,4.4218749 0.85179793,1.174732 2.50567773,1.78711 5.04687503,1.78711 1.6605353,0 3.3374717,-0.156961 4.3945316,-0.533204 a 0.50005,0.50005 0 0 0 0.0078,-0.002 c 0.427916,-0.159419 0.753063,-0.306689 1,-0.589843 0.246937,-0.283155 0.318359,-0.65671 0.31836,-1.015625 0,-0.660205 -0.480264,-1.122839 -0.957032,-1.376954 -0.4767677,-0.254115 -0.9955856,-0.36914 -1.4355466,-0.36914 -0.2503135,0 -0.4175379,0.06686 -0.6464844,0.138672 -0.2289465,0.07182 -0.4981323,0.161205 -0.8183594,0.25 -0.640454,0.177589 -1.4853822,0.353515 -2.5585937,0.353515 -1.3568847,0 -2.1084378,-0.254202 -2.5605469,-0.689453 C 1.9853909,10.644827 1.7443348,9.9301704 1.6308594,8.8105469 A 0.50005,0.50005 0 0 0 1.1328125,8.3613281 Z M 1.0605469,10.703125 c 0.1678079,0.41312 0.3702027,0.795951 0.6835937,1.097656 0.7113772,0.684851 1.7710958,0.96875 3.2539063,0.96875 1.1827685,0 2.1296028,-0.195523 2.8261718,-0.388672 0.3482846,-0.09657 0.6353466,-0.192555 0.8496094,-0.259765 0.2142629,-0.06721 0.3771046,-0.09375 0.3476563,-0.09375 0.2384106,0 0.6665925,0.09195 0.9667969,0.251953 0.3002047,0.160007 0.4257807,0.318213 0.4257817,0.494141 0,0.256351 -0.0234,0.30139 -0.07227,0.357421 -0.04867,0.05581 -0.22017,0.16903 -0.5937501,0.308594 -0.00147,5.5e-4 -4.759e-4,0.0014 -0.00195,0.002 -0.8063044,0.285418 -2.4665012,0.472656 -4.0527344,0.472657 -2.3809411,0 -3.6544555,-0.569834 -4.2382813,-1.375 C 1.1139752,12.06864 1.0237514,11.427782 1.0605469,10.703125 Z" />
				<path d="m 20.365234,0.36328125 c -0.61883,0 -1.076845,0.13589138 -1.443359,0.29296875 a 0.50005,0.50005 0 0 0 -0.302734,0.4179687 l -0.01563,0.1894532 a 0.50005,0.50005 0 0 0 0.3125,0.5058593 c 0.193092,0.077237 0.383081,0.1847597 0.521484,0.2851563 6.17e-4,4.479e-4 0.0013,0.00151 0.002,0.00195 0.206934,0.1551901 0.251953,0.188711 0.251953,0.3359375 0,0.1057638 -0.136827,0.7371103 -0.271484,1.3515625 -0.40426,-0.048442 -0.808267,-0.090392 -1.238281,-0.21875 C 17.557061,3.3260569 17.221633,2.9865737 16.908203,2.5449219 A 0.50005,0.50005 0 0 0 16.275391,2.3867188 l -0.158204,0.080078 A 0.50005,0.50005 0 0 0 15.84375,2.953125 c 0.100736,1.2759382 0.518153,1.9390958 1.001953,2.3691406 0.150642,0.1353068 0.304153,0.1715349 0.457031,0.2636719 -0.772183,0.6338502 -1.382812,1.3979327 -1.382812,2.328125 0,1.1300179 0.92458,2.0797186 2.273437,2.6542965 -0.02257,0.307936 -0.04883,0.619068 -0.04883,0.88086 0,1.094957 0.31336,2.110311 1.035156,2.84375 0.721797,0.733438 1.817884,1.142578 3.236329,1.142578 1.830982,0 3.155005,-0.581875 4,-1.433594 0.844994,-0.851718 1.201171,-1.942194 1.201171,-2.916015 0,-2.2909295 -1.782335,-4.1576307 -4.632812,-5.1132818 a 0.50005,0.50005 0 0 0 -0.140625,0.044922 c 0.07149,-0.1641189 0.212891,-0.2835051 0.212891,-0.46875 0,-0.4390444 -0.297239,-0.8615109 -0.732422,-1.1875 0.10964,-0.1895012 0.222173,-0.3915987 0.324218,-0.5644531 0.129747,-0.2054312 0.566407,-0.576701 0.566407,-1.2304687 0,-0.6409667 -0.431664,-1.0745297 -0.947266,-1.4765626 C 21.751977,0.68781088 21.087257,0.36328125 20.365234,0.36328125 Z m 0,0.99999995 c 0.39808,0 0.907418,0.2195662 1.28711,0.515625 0.379691,0.2960589 0.5625,0.7131994 0.5625,0.6875001 0,0.1665886 -0.163229,0.3012524 -0.41211,0.6953125 a 0.50005,0.50005 0 0 0 -0.0078,0.013672 c -0.147334,0.2504675 -0.34951,0.5544885 -0.56836,0.9921875 A 0.50005,0.50005 0 0 0 21.523437,4.96875 c 0.483139,0.1531903 0.533204,0.3622078 0.533204,0.5800781 0,0.1713195 -0.01052,0.1395362 -0.0332,0.15625 -0.0222,0.016356 -0.149129,0.064872 -0.357421,0.085937 -0.228335,0.013943 -0.474683,0.014472 -0.720704,0 a 0.50005,0.50005 0 0 0 -0.496093,0.3203125 c -0.256529,0.6733896 -0.527857,1.4588301 -0.753907,2.25 a 0.50005,0.50005 0 0 0 0.464844,0.6367188 c 0.570101,0.016288 1.070174,0.0015 1.38086,0.015625 0.279618,0.01271 0.431621,0.078773 0.498046,0.1367187 0.06643,0.057945 0.113282,0.1253303 0.113282,0.3574219 0,0.1379863 -0.035,0.2079685 -0.142578,0.3007813 -0.107269,0.092545 -0.307209,0.1857663 -0.585938,0.2304692 -0.440474,0.06882 -1.056002,0.07086 -1.609375,-0.002 a 0.50005,0.50005 0 0 0 -0.560547,0.429688 c -0.03482,0.261161 -0.05273,0.532663 -0.05273,0.777344 0,0.790738 0.250789,1.469132 0.757812,1.908203 0.507023,0.439071 1.201837,0.611328 2,0.611328 1.831383,0 3.480469,-1.295285 3.480469,-3.214844 0,-0.9474977 -0.275489,-1.7181081 -0.6875,-2.3964842 1.102412,0.8265519 1.865234,1.7826798 1.865234,2.9335942 0,0.729994 -0.268254,1.563927 -0.910156,2.210937 -0.641901,0.64701 -1.667035,1.138672 -3.291015,1.138672 -1.231938,0 -2.022588,-0.334822 -2.523438,-0.84375 -0.50085,-0.508928 -0.748047,-1.233972 -0.748047,-2.142578 0,-0.282191 0.03082,-0.671842 0.0625,-1.09961 A 0.50005,0.50005 0 0 0 18.867187,9.8378906 c -1.124856,-0.3749524 -1.63197,-0.9986498 -1.796875,-1.5917968 0.133497,0.119429 0.271667,0.231472 0.431641,0.3066406 0.408031,0.1917254 0.889718,0.2962331 1.392578,0.3632812 A 0.50005,0.50005 0 0 0 19.453125,8.5 c 0.125141,-0.7664891 0.26665,-1.5321281 0.40625,-2.1835938 A 0.50005,0.50005 0 0 0 19.347656,5.7109375 c -0.364375,0.016817 -0.689676,0.1757746 -1.03125,0.2910156 0.03446,-0.022276 0.04845,-0.052563 0.08398,-0.074219 A 0.50005,0.50005 0 0 0 18.310547,5.03125 C 17.989768,4.9146035 17.771801,4.8121994 17.511719,4.578125 a 0.50005,0.50005 0 0 0 -0.002,-0.00391 C 17.394203,4.471496 17.38479,4.1580966 17.298828,4.0410156 c 0.217476,0.135811 0.300334,0.3488433 0.578125,0.4375 a 0.50005,0.50005 0 0 0 0.0098,0.00195 c 0.677909,0.2033729 1.314231,0.2872025 1.882812,0.3359375 a 0.50005,0.50005 0 0 0 0.529297,-0.3867187 c 0.236389,-1.0243507 0.392578,-1.579469 0.392578,-2.0371094 0,-0.4677827 -0.307142,-0.7552111 -0.566406,-0.9804687 0.09121,-0.00839 0.129184,-0.048828 0.240234,-0.048828 z m 1.953125,5.2441407 A 0.50005,0.50005 0 0 0 22.375,7.03125 c 1.266275,0.9916604 2.064453,1.8945431 2.064453,3.517578 0,1.361868 -1.09353,2.214844 -2.480469,2.214844 -0.653236,0 -1.087585,-0.143663 -1.345703,-0.367188 -0.258117,-0.223524 -0.412109,-0.554787 -0.412109,-1.152343 0,-0.06567 0.01045,-0.143044 0.01367,-0.214844 0.469875,0.02728 0.953695,0.06204 1.363281,-0.002 0.414156,-0.06589 0.791226,-0.20863 1.085937,-0.462891 0.294712,-0.254261 0.488282,-0.6424639 0.488282,-1.0566405 0,-0.4305039 -0.150766,-0.8439107 -0.455078,-1.109375 -0.304313,-0.2654643 -0.696798,-0.3639702 -1.111329,-0.3828125 -0.197364,-0.00897 -0.476256,-0.00984 -0.71875,-0.00977 0.133826,-0.4204179 0.268934,-0.8341045 0.410157,-1.2167969 0.153782,7.41e-4 0.310733,0.00927 0.458984,0 a 0.50005,0.50005 0 0 0 0.01563,-0.00195 c 0.188528,-0.017674 0.377422,-0.1068732 0.566406,-0.1796875 z m -3.583984,0.2890625 c -0.05783,0.3002534 -0.115221,0.596264 -0.169922,0.9121093 -0.227089,-0.051987 -0.493846,-0.093023 -0.636719,-0.1601562 -0.123338,-0.057954 -0.202975,-0.1194698 -0.232422,-0.1523438 -0.02945,-0.032874 -0.01758,-0.019243 -0.01758,-0.023437 0,0.00861 0.110466,-0.215338 0.455078,-0.40625 0.164336,-0.09104 0.393326,-0.1082724 0.601563,-0.1699218 z" />
				<path d="m 39.011719,5.7890625 c -2.310513,0 -4.165276,1.3281526 -5.740235,1.9238281 -0.0016,5.84e-4 -0.0023,-5.755e-4 -0.0039,0 -7.14e-4,2.698e-4 -0.0012,0.00168 -0.002,0.00195 -0.121602,0.04284 -0.264425,0.0625 -0.279297,0.0625 -0.04374,0 -0.137365,-0.029413 -0.224609,-0.085937 -0.08724,-0.056524 -0.170735,-0.1495219 -0.164063,-0.140625 A 0.50005,0.50005 0 0 0 32.052734,7.3730469 l -0.158203,0.046875 a 0.50005,0.50005 0 0 0 -0.349609,0.4003906 c -0.04536,0.2872916 -0.158524,0.7854349 -0.002,1.3222656 a 0.50005,0.50005 0 0 0 0.002,0.00586 c 0.149509,0.4945311 0.49844,0.8872225 0.90039,1.1933595 0.401951,0.306137 0.859057,0.533203 1.361329,0.533203 0.33396,0 0.641772,-0.134185 0.886718,-0.310547 0.243908,-0.175614 0.460965,-0.389869 0.751953,-0.6503905 l 0.0039,-0.00195 c 0.332231,-0.2936455 0.823198,-0.8447769 1.46289,-1.3476563 0.641042,-0.5039404 1.387554,-0.90625 2.052735,-0.90625 0.445982,0 0.731273,0.179947 0.957031,0.4804688 0.225758,0.3005217 0.357422,0.7357147 0.357422,1.1484375 0,0.9100866 -0.53348,1.6517856 -1.503906,2.2734376 -0.970427,0.621651 -2.355109,1.063952 -3.839844,1.269531 a 0.50005,0.50005 0 0 0 -0.421875,0.59375 l 0.04883,0.236328 A 0.50005,0.50005 0 0 0 35,14.060547 c 1.73474,0.18002 4.23708,0.158976 5.917969,-0.806641 1.221023,-0.702507 2.380859,-1.83028 2.380859,-3.6835935 0,-1.9995672 -1.837982,-3.78125 -4.287109,-3.78125 z m 1.05664,1.1894531 c 1.355269,0.3992366 2.230469,1.4858391 2.230469,2.5917969 0,1.4596635 -0.796622,2.1956745 -1.878906,2.8183595 v -0.002 c -0.770287,0.442505 -1.922648,0.613997 -3.089844,0.679687 0.665355,-0.228021 1.447316,-0.320024 1.984375,-0.664062 1.147512,-0.735092 1.964844,-1.800893 1.964844,-3.1152346 0,-0.6127227 -0.176973,-1.2419975 -0.558594,-1.75 C 40.551954,7.312476 40.32163,7.129565 40.068359,6.9785156 Z m -2.96289,0.2832031 c -0.280371,0.1660049 -0.571304,0.326014 -0.8125,0.515625 -0.72359,0.5688333 -1.303686,1.2066072 -1.507813,1.3867188 a 0.50005,0.50005 0 0 0 -0.0039,0.00391 C 34.474625,9.4423172 34.25883,9.6462984 34.109375,9.7539063 33.95992,9.8615141 33.914411,9.875 33.806641,9.875 33.662093,9.875 33.329155,9.7574049 33.052734,9.546875 32.777653,9.3373655 32.560781,9.0472813 32.503906,8.8632813 v -0.00195 c -0.01701,-0.058903 0.01135,-0.1618518 0.0078,-0.2363281 0.148736,0.064887 0.277278,0.1523438 0.474609,0.1523438 0.205673,0 0.403112,-0.043604 0.626953,-0.125 a 0.50005,0.50005 0 0 0 0.0059,-0.00195 c 1.155527,-0.4360483 2.307543,-0.9830503 3.486328,-1.3886719 z" />
			</g>
			<g class="typography fg1">
				<path d="m 10.394136,3.4658902 c 0.220866,0.3628503 0.441731,0.5206113 0.709925,0.5363874 0.394402,0 0.678372,-0.2839698 0.678372,-0.6468201 C 11.798209,3.0557116 11.703553,2.7717418 11.388031,2.4877719 10.867419,1.9987128 10.047062,1.7305191 9.1320483,1.5254298 L 9.0058395,1.6989669 c 0.7572528,0.7099245 1.1201035,1.3251925 1.3882965,1.7669233 z m 1.49873,-1.246312 c 0.28397,0.3944026 0.473283,0.5837158 0.804581,0.5837158 0.378626,0 0.599492,-0.2524176 0.599492,-0.6310441 0,-0.3786264 -0.141985,-0.6941484 -0.536388,-0.9781182 C 12.287268,0.86283363 11.514239,0.62619213 10.567673,0.49998333 l -0.110432,0.1735371 C 11.340702,1.3834449 11.640448,1.872504 11.892866,2.2195782 Z M 1.1493417,2.4719958 C 1.4964159,4.3335757 2.9478171,4.5702172 4.4780988,4.6806499 4.6516359,4.696426 4.667412,4.7437543 4.5412032,4.8699631 4.1468007,5.2328134 3.4368762,5.8954096 2.9162649,6.3055882 L 3.0424737,6.5106775 C 4.6043076,5.8480813 5.9926044,5.4063505 7.0180509,5.1854851 7.4913339,5.0908285 8.1539301,4.9803958 8.6903175,4.8857392 9.3529137,4.7595304 9.6526596,4.4597845 9.6526596,3.9391732 c 0,-0.7257006 -1.419849,-1.3251924 -2.2559823,-1.3251924 -0.8361333,0 -1.262088,0.473283 -3.4549659,0.473283 -1.2936402,0 -1.8458037,-0.157761 -2.6346087,-0.7099246 z m -0.015776,6.3893206 c 0.2366416,2.3348626 1.0254466,3.4076376 3.8651446,3.4076376 2.2559823,0 3.5811747,-0.741477 4.0229055,-0.741477 0.6783723,0 1.8931324,0.410179 1.8931324,1.246312 0,0.615268 -0.189314,0.836134 -0.9938947,1.135879 -0.9307899,0.331299 -2.6030565,0.504836 -4.2279948,0.504836 -4.92214325,0 -5.85293316,-2.366415 -4.81171055,-5.5531876 z" />
				<path d="m 16.499487,2.8348462 -0.157761,0.07888 c 0.09466,1.1989836 0.410179,1.6564905 0.836133,2.0351169 0.315522,0.2839698 0.615268,0.4259547 0.962343,0.5521635 -1.009671,0.6152679 -1.719595,1.4987295 -1.719595,2.4137433 0,0.9623421 0.820357,1.9089081 2.287534,2.3979676 -0.03155,0.425954 -0.0631,0.820357 -0.0631,1.135879 0,2.003565 1.120103,3.486518 3.770488,3.486518 3.454966,0 4.701278,-2.14555 4.701278,-3.849368 0,-2.0351174 -1.561834,-3.7231601 -4.2911,-4.6381739 l -0.141985,0.1893132 c 1.309417,1.0254465 2.255983,2.1139974 2.255983,3.9124727 0,1.640715 -1.372521,2.713489 -2.981683,2.713489 -1.451401,0 -2.255983,-0.631044 -2.255983,-2.01934 0,-0.220866 0.01578,-0.473283 0.04733,-0.709925 0.599492,0.07888 1.246312,0.07888 1.751147,0 0.694148,-0.110433 1.151655,-0.473283 1.151655,-1.0254465 0,-0.6625962 -0.394402,-0.9623421 -1.088551,-0.9938943 -0.347074,-0.015776 -0.836133,0 -1.388297,-0.015776 0.220866,-0.7730289 0.48906,-1.5460578 0.741477,-2.208654 0.268194,0.015776 0.536388,0.015776 0.788805,0 0.504835,-0.047328 0.85191,-0.1893132 0.85191,-0.7414767 0,-0.4101786 -0.236642,-0.8519094 -0.883462,-1.0569987 0.205089,-0.4101786 0.394402,-0.6941484 0.552163,-0.9623421 0.189314,-0.2997459 0.48906,-0.5521635 0.48906,-0.9623421 0,-0.615268 -1.230536,-1.70381887 -2.350639,-1.70381887 -0.552164,0 -0.915014,0.1104327 -1.246312,0.25241757 l -0.01578,0.1893132 c 0.236641,0.094657 0.457507,0.2208654 0.631044,0.3470742 0.252417,0.1893132 0.457507,0.3944025 0.457507,0.7414767 0,0.299746 -0.141985,0.8992378 -0.378627,1.9246843 C 19.260305,4.2704713 18.660813,4.1915908 18.029769,4.0022776 17.288292,3.7656361 16.846561,3.3239053 16.499487,2.8348462 Z m 2.461072,5.5847394 c -0.946566,-0.1262088 -1.7827,-0.4101786 -1.7827,-0.946566 0,-0.6152679 1.167432,-1.2147597 2.192878,-1.262088 -0.141985,0.6625962 -0.283969,1.4356251 -0.410178,2.208654 z" />
				<path d="m 32.196707,7.851646 -0.157761,0.047328 c -0.04733,0.2997459 -0.126209,0.7257006 -0.01578,1.104327 0.205089,0.6783723 1.135879,1.3725207 1.782699,1.3725207 0.441731,0 0.709924,-0.299746 1.309416,-0.8361333 0.536388,-0.473283 2.14555,-2.3821911 3.849369,-2.3821911 1.198983,0 1.814251,1.104327 1.814251,2.1297735 0,2.2244299 -2.697713,3.6127269 -5.774052,4.0386819 l 0.04733,0.236641 c 1.672267,0.173537 4.133338,0.110433 5.616292,-0.741476 1.151655,-0.662597 2.129773,-1.593387 2.129773,-3.2498771 0,-1.6880427 -1.57761,-3.2814288 -3.786264,-3.2814288 -2.113997,0 -3.896697,1.262088 -5.568963,1.893132 -0.173537,0.063104 -0.347075,0.094657 -0.457507,0.094657 -0.362851,0 -0.694149,-0.2997459 -0.788805,-0.4259547 z" />
			</g>
		</g>
		<g aria-label="とも" transform="matrix(1.1611953,0,0,1,-0.06894877,0)">
			<g class="typography fg2_outline">
				<path d="m 2.3964844,17.148437 c -0.6540343,0 -1.2249864,0.223259 -1.67187503,0.421875 a 0.50005,0.50005 0 0 0 -0.29687499,0.457032 v 0.189453 a 0.50005,0.50005 0 0 0 0.30078124,0.458984 c 0.33077458,0.143815 0.63250628,0.318115 0.81835938,0.466797 0.274714,0.219772 0.3059769,0.245213 0.3535156,0.552734 1.955e-4,0.0013 0.00176,6.79e-4 0.00195,0.002 0.062384,0.437013 0.1441366,1.065348 0.2617188,1.68164 0.1178763,0.617834 0.2535495,1.209868 0.5019531,1.666016 0.1557795,0.289305 0.4405162,0.456524 0.6816407,0.667969 -1.3219312,1.107396 -2.65039068,2.604692 -2.65039068,4.443359 0,1.182846 0.66554248,2.119223 1.64257818,2.667969 0.9770356,0.548746 2.254055,0.78125 3.6679687,0.78125 1.7562904,0 3.3836917,-0.154648 4.2714845,-0.509766 a 0.50005,0.50005 0 0 0 0.0078,-0.002 c 0.655817,-0.275019 1.142579,-0.829843 1.142579,-1.517578 0,-0.641415 -0.432746,-1.153915 -0.941407,-1.382813 -0.5086606,-0.228897 -1.0981488,-0.285156 -1.7031247,-0.285156 -0.2288129,0 -0.3200375,0.04661 -0.5136719,0.0957 -0.1936345,0.04909 -0.4379406,0.111297 -0.7382813,0.173828 -0.6006814,0.125063 -1.4227455,0.25 -2.4550781,0.25 -0.7834975,0 -1.3677803,-0.09974 -1.6835937,-0.251953 -0.3158135,-0.152216 -0.3886719,-0.252297 -0.3886719,-0.572265 0,-0.345981 0.1680146,-0.735079 0.5429687,-1.16211 0.3741912,-0.426162 0.9448048,-0.869868 1.6542969,-1.292969 l 0.00391,-0.002 c 1.3522194,-0.789464 3.1814017,-1.524855 4.4628907,-1.90625 a 0.50005,0.50005 0 0 0 0.00391,-0.002 c 0.4336419,-0.133428 0.7476159,-0.252977 1.0078129,-0.46875 0.260197,-0.215773 0.402343,-0.57571 0.402343,-0.876953 0,-0.515521 -0.267139,-0.944101 -0.589843,-1.308594 C 10.175233,20.22378 9.7794323,19.92704 9.3632813,19.740234 8.7831147,19.452836 8.1600722,19.451172 7.5234375,19.451172 a 0.50005,0.50005 0 0 0 -0.4375,0.257812 l -0.078125,0.142578 a 0.50005,0.50005 0 0 0 0.068359,0.582032 c 0.1994767,0.216099 0.3521646,0.391644 0.40625,0.496093 C 7.265429,21.076994 6.383833,21.608391 5.5175781,22.140625 5.4445929,22.06516 5.3516408,22.01428 5.296875,21.892578 a 0.50005,0.50005 0 0 0 -0.00195,-0.0059 C 5.1595024,21.595046 5.0722656,20.912163 5.0722656,20.314453 c 0,-0.351879 0.095703,-0.776861 0.095703,-1.214844 0,-0.58465 -0.3879213,-1.006807 -0.8808593,-1.353515 -0.492938,-0.346708 -1.151436,-0.597657 -1.890625,-0.597657 z m 0,1 c 0.5071216,0 0.9830907,0.182952 1.3144531,0.416016 0.3313624,0.233064 0.4570312,0.536091 0.4570312,0.535156 0,0.256165 -0.095703,0.714816 -0.095703,1.214844 0,0.662372 0.039982,1.397407 0.3125,1.988281 4.212e-4,9.36e-4 0.00153,0.001 0.00195,0.002 0.1827397,0.404446 0.4754379,0.698516 0.7890625,0.894532 a 0.50005,0.50005 0 0 0 0.5292969,0.002 C 6.7370517,22.560097 7.7785159,21.957354 8.1582031,21.683594 8.3055383,21.579385 8.4481373,21.408016 8.5,21.210937 c 0.052246,-0.198534 0.022588,-0.383132 -0.025391,-0.539062 a 0.50005,0.50005 0 0 0 -0.00391,-0.0098 c -0.016317,-0.04895 -0.048524,-0.04922 -0.068359,-0.09375 0.159401,0.02788 0.409351,0.01229 0.5214843,0.06836 a 0.50005,0.50005 0 0 0 0.021484,0.0098 c 0.2567534,0.113449 0.575266,0.346844 0.8007813,0.601563 0.2255152,0.254718 0.3378902,0.529009 0.3378902,0.644531 0,0.108936 0.0222,0.055 -0.04101,0.107422 -0.063213,0.05242 -0.2773484,0.162261 -0.6640627,0.28125 h 0.00586 c -1.367742,0.407066 -3.2299814,1.153464 -4.6855469,2.003906 a 0.50005,0.50005 0 0 0 -0.00391,0.002 c -0.7714473,0.459586 -1.4214831,0.952896 -1.8984375,1.496094 -0.4769544,0.543198 -0.7910156,1.156624 -0.7910156,1.820313 0,0.642372 0.3933657,1.204815 0.953125,1.474609 0.5597592,0.269794 1.2619253,0.349609 2.1191406,0.349609 1.1132148,0 2.0086299,-0.134289 2.6582031,-0.269531 0.3247867,-0.06762 0.5898494,-0.13507 0.78125,-0.183594 0.1914006,-0.04852 0.3622942,-0.06641 0.2675782,-0.06641 0.5309021,0 1.0128252,0.06925 1.2929687,0.195313 0.280144,0.126064 0.351563,0.199057 0.351563,0.472656 0,0.100371 -0.206905,0.45451 -0.5253911,0.591797 -0.5338059,0.212634 -2.2152529,0.4375 -3.8964844,0.4375 -1.2995728,0 -2.4272888,-0.232814 -3.1777344,-0.654297 -0.7504456,-0.421483 -1.1328125,-0.958429 -1.1328125,-1.794922 0,-1.474869 1.3142428,-3.011112 2.6445313,-4.039063 A 0.50005,0.50005 0 0 0 4.2597656,23.275391 C 3.9367369,23.113877 3.7244665,22.903753 3.5449219,22.570312 a 0.50005,0.50005 0 0 0 0,-0.002 C 3.4152112,22.330557 3.2572346,21.77189 3.1464844,21.191406 3.0357341,20.610922 2.9543775,19.997049 2.890625,19.550781 a 0.50005,0.50005 0 0 0 0,-0.0059 c -0.078339,-0.509206 -0.3635504,-0.897481 -0.71875,-1.181641 -0.050626,-0.0405 -0.1285985,-0.06863 -0.1835938,-0.107422 0.1375638,-0.02793 0.2732229,-0.107422 0.4082032,-0.107422 z" />
				<path d="m 20.365234,16.927734 c -0.61883,0 -1.076845,0.135892 -1.443359,0.292969 a 0.50005,0.50005 0 0 0 -0.302734,0.417969 l -0.01563,0.189453 a 0.50005,0.50005 0 0 0 0.3125,0.505859 c 0.191681,0.07668 0.379455,0.183434 0.517578,0.283203 2.2e-4,1.59e-4 -2.2e-4,0.0018 0,0.002 0.215667,0.161739 0.257812,0.190287 0.257812,0.339843 0,0.105727 -0.136919,0.735537 -0.271484,1.34961 -0.405607,-0.0486 -0.810661,-0.09156 -1.242188,-0.220703 -0.620497,-0.199607 -0.957169,-0.536417 -1.269531,-0.976563 a 0.50005,0.50005 0 0 0 -0.632812,-0.158203 l -0.158204,0.07813 a 0.50005,0.50005 0 0 0 -0.273437,0.486328 c 0.100736,1.275939 0.518153,1.939096 1.001953,2.369141 0.150642,0.135307 0.304153,0.171535 0.457031,0.263672 -0.772183,0.63385 -1.382812,1.399885 -1.382812,2.330078 0,1.130018 0.92458,2.077766 2.273437,2.652343 -0.02257,0.307936 -0.04883,0.619068 -0.04883,0.88086 0,1.094957 0.31336,2.112264 1.035156,2.845703 C 19.901484,31.592814 20.997571,32 22.416016,32 c 1.830982,0 3.155005,-0.581875 4,-1.433594 0.844994,-0.851718 1.201171,-1.942193 1.201171,-2.916015 0,-2.290929 -1.782335,-4.155678 -4.632812,-5.111329 a 0.50005,0.50005 0 0 0 -0.142578,0.04492 c 0.07218,-0.164737 0.214844,-0.284527 0.214844,-0.470703 0,-0.439044 -0.297239,-0.861511 -0.732422,-1.1875 0.10964,-0.189501 0.222173,-0.391598 0.324218,-0.564453 0.129747,-0.205431 0.566407,-0.576701 0.566407,-1.230469 0,-0.640966 -0.431664,-1.074529 -0.947266,-1.476562 -0.515601,-0.402033 -1.180321,-0.726563 -1.902344,-0.726563 z m 0,1 c 0.39808,0 0.907418,0.219566 1.28711,0.515625 0.379691,0.296059 0.5625,0.7132 0.5625,0.6875 0,0.166588 -0.163229,0.301253 -0.41211,0.695313 a 0.50005,0.50005 0 0 0 -0.0078,0.01367 c -0.147334,0.250467 -0.34951,0.554488 -0.56836,0.992187 a 0.50005,0.50005 0 0 0 0.296875,0.701172 c 0.483139,0.15319 0.533204,0.362207 0.533204,0.580078 0,0.171319 -0.01052,0.141489 -0.0332,0.158203 -0.0222,0.01636 -0.149138,0.06292 -0.357421,0.08398 -0.22833,0.01395 -0.474688,0.01448 -0.720704,0 a 0.50005,0.50005 0 0 0 -0.496093,0.320312 c -0.256529,0.67339 -0.527857,1.45883 -0.753907,2.25 a 0.50005,0.50005 0 0 0 0.464844,0.636719 c 0.570105,0.01629 1.070183,0.0015 1.38086,0.01563 0.279618,0.01271 0.431621,0.08073 0.498046,0.138672 0.06643,0.05795 0.113282,0.123377 0.113282,0.355469 0,0.137986 -0.035,0.207968 -0.142578,0.300781 -0.107147,0.09244 -0.307704,0.185705 -0.585938,0.230469 -0.440474,0.06882 -1.056002,0.07281 -1.609375,0 a 0.50005,0.50005 0 0 0 -0.560547,0.429687 c -0.03482,0.261162 -0.05273,0.530711 -0.05273,0.775391 0,0.790738 0.250789,1.469132 0.757812,1.908203 0.507023,0.439071 1.201837,0.611328 2,0.611328 1.831383,0 3.480469,-1.293332 3.480469,-3.212891 0,-0.948416 -0.276733,-1.719612 -0.689453,-2.398437 1.103241,0.826704 1.867187,1.782244 1.867187,2.933594 0,0.729995 -0.268254,1.563928 -0.910156,2.210937 C 25.06513,30.508338 24.039996,31 22.416016,31 c -1.231938,0 -2.022588,-0.332869 -2.523438,-0.841797 -0.50085,-0.508928 -0.748047,-1.235925 -0.748047,-2.144531 0,-0.282191 0.03082,-0.671841 0.0625,-1.09961 a 0.50005,0.50005 0 0 0 -0.339844,-0.511718 c -1.125322,-0.375108 -1.634224,-0.996478 -1.798828,-1.589844 0.133747,0.11989 0.273211,0.229327 0.433594,0.304687 0.408031,0.191726 0.889718,0.296234 1.392578,0.363282 a 0.50005,0.50005 0 0 0 0.558594,-0.416016 c 0.125141,-0.766489 0.26665,-1.532128 0.40625,-2.183594 a 0.50005,0.50005 0 0 0 -0.511719,-0.603515 c -0.365124,0.01685 -0.691025,0.17536 -1.033203,0.291015 0.03528,-0.02284 0.04953,-0.05398 0.08594,-0.07617 a 0.50005,0.50005 0 0 0 -0.08984,-0.896484 c -0.320778,-0.116645 -0.538746,-0.21905 -0.798828,-0.453125 a 0.50005,0.50005 0 0 0 -0.002,-0.002 c -0.11618,-0.103271 -0.124671,-0.419169 -0.210938,-0.537109 0.21774,0.136092 0.299882,0.350652 0.578125,0.439453 a 0.50005,0.50005 0 0 0 0.0098,0.0039 c 0.67791,0.203373 1.314234,0.285247 1.882812,0.333984 a 0.50005,0.50005 0 0 0 0.529297,-0.384765 c 0.236389,-1.024351 0.392578,-1.579469 0.392578,-2.03711 0,-0.46788 -0.307094,-0.757168 -0.566406,-0.982422 0.09118,-0.0084 0.129224,-0.04883 0.240234,-0.04883 z m 1.953125,5.244141 a 0.50005,0.50005 0 0 0 0.05664,0.423828 c 1.266275,0.99166 2.064453,1.896496 2.064453,3.519531 0,1.361867 -1.09353,2.212891 -2.480469,2.212891 -0.653236,0 -1.087585,-0.143663 -1.345703,-0.367188 -0.258117,-0.223524 -0.412109,-0.554786 -0.412109,-1.152343 0,-0.06567 0.01045,-0.143044 0.01367,-0.214844 0.469875,0.02728 0.953695,0.06204 1.363281,-0.002 0.414156,-0.06589 0.791226,-0.206676 1.085937,-0.460938 0.294712,-0.254261 0.488282,-0.644417 0.488282,-1.058593 0,-0.430504 -0.150766,-0.843911 -0.455078,-1.109375 -0.304313,-0.265465 -0.696798,-0.363971 -1.111329,-0.382813 -0.197366,-0.009 -0.47626,-0.0079 -0.71875,-0.0078 0.133992,-0.421049 0.26873,-0.835506 0.410157,-1.21875 0.153784,7.41e-4 0.31073,0.0093 0.458984,0 a 0.50005,0.50005 0 0 0 0.01563,-0.002 c 0.188527,-0.01768 0.377422,-0.106873 0.566406,-0.179687 z m -3.583984,0.289062 c -0.05788,0.300477 -0.115173,0.596001 -0.169922,0.91211 -0.227089,-0.05199 -0.493846,-0.09302 -0.636719,-0.160156 -0.123338,-0.05795 -0.202975,-0.11947 -0.232422,-0.152344 -0.02945,-0.03287 -0.01758,-0.01924 -0.01758,-0.02344 0,0.0086 0.110466,-0.215338 0.455078,-0.40625 0.164336,-0.09104 0.393326,-0.108272 0.601563,-0.169922 z" />
			</g>
			<g class="typography fg1">
				<path d="m 0.92847625,18.02723 v 0.189313 c 0.36285035,0.157761 0.69414845,0.347074 0.93078995,0.536387 0.315522,0.252418 0.473283,0.457507 0.5363874,0.867686 0.1262088,0.883462 0.3312981,2.492624 0.7099245,3.186772 0.2208654,0.410179 0.5206113,0.709925 0.9307899,0.915014 -1.3882968,1.072775 -2.839698,2.681937 -2.839698,4.433084 0,2.019341 2.0982213,2.950131 4.8117105,2.950131 1.7195949,0 3.3760854,-0.189313 4.0860095,-0.473283 0.48906,-0.205089 0.836134,-0.662596 0.836134,-1.056999 0,-0.915014 -1.0096707,-1.167431 -2.1455499,-1.167431 -0.2681937,0 -1.5618339,0.520611 -3.7073835,0.520611 -1.6407144,0 -2.5715043,-0.36285 -2.5715043,-1.325192 0,-1.009671 0.9623421,-2.003565 2.4452955,-2.887027 1.4040729,-0.820357 3.2498766,-1.561834 4.575069,-1.956236 0.8203572,-0.252418 1.0569992,-0.457507 1.0569992,-0.867686 0,-0.631044 -0.7572533,-1.404073 -1.4356256,-1.703818 C 8.7060936,19.96769 8.1539301,19.951914 7.5228861,19.951914 l -0.078881,0.141985 c 0.1893132,0.205089 0.4575069,0.441731 0.5521635,0.725701 0.063104,0.205089 0.031552,0.347074 -0.1262088,0.457506 -0.2839698,0.20509 -1.3882968,0.85191 -2.4295194,1.49873 -0.2524176,-0.157761 -0.4575069,-0.36285 -0.5994918,-0.678372 -0.2050893,-0.441731 -0.2681937,-1.151656 -0.2681937,-1.7827 0,-0.425954 0.094657,-0.867685 0.094657,-1.214759 0,-0.583716 -1.0254465,-1.451402 -2.2717584,-1.451402 -0.5363874,0 -1.0412226,0.189314 -1.46717735,0.378627 z" />
				<path d="m 16.499487,19.399751 -0.157761,0.07888 c 0.09466,1.198984 0.410179,1.656491 0.836133,2.035117 0.315522,0.28397 0.615268,0.425955 0.962343,0.552163 -1.009671,0.615268 -1.719595,1.49873 -1.719595,2.413744 0,0.962342 0.820357,1.908908 2.287534,2.397967 -0.03155,0.425955 -0.0631,0.820357 -0.0631,1.135879 0,2.003565 1.120103,3.486518 3.770488,3.486518 3.454966,0 4.701278,-2.145549 4.701278,-3.849368 0,-2.035117 -1.561834,-3.72316 -4.2911,-4.638173 l -0.141985,0.189313 c 1.309417,1.025446 2.255983,2.113997 2.255983,3.912473 0,1.640714 -1.372521,2.713489 -2.981683,2.713489 -1.451401,0 -2.255983,-0.631044 -2.255983,-2.019341 0,-0.220865 0.01578,-0.473283 0.04733,-0.709925 0.599492,0.07888 1.246312,0.07888 1.751147,0 0.694148,-0.110432 1.151655,-0.473283 1.151655,-1.025446 0,-0.662596 -0.394402,-0.962342 -1.088551,-0.993894 -0.347074,-0.01578 -0.836133,0 -1.388297,-0.01578 0.220866,-0.773029 0.48906,-1.546058 0.741477,-2.208654 0.268194,0.01578 0.536388,0.01578 0.788805,0 0.504835,-0.04733 0.85191,-0.189314 0.85191,-0.741477 0,-0.410179 -0.236642,-0.85191 -0.883462,-1.056999 0.205089,-0.410179 0.394402,-0.694148 0.552163,-0.962342 0.189314,-0.299746 0.48906,-0.552164 0.48906,-0.962342 0,-0.615268 -1.230536,-1.703819 -2.350639,-1.703819 -0.552164,0 -0.915014,0.110433 -1.246312,0.252418 l -0.01578,0.189313 c 0.236641,0.09466 0.457507,0.220865 0.631044,0.347074 0.252417,0.189313 0.457507,0.394403 0.457507,0.741477 0,0.299746 -0.141985,0.899237 -0.378627,1.924684 -0.552163,-0.04733 -1.151655,-0.126209 -1.782699,-0.315522 -0.741477,-0.236642 -1.183208,-0.678372 -1.530282,-1.167431 z m 2.461072,5.584739 c -0.946566,-0.126209 -1.7827,-0.410179 -1.7827,-0.946566 0,-0.615268 1.167432,-1.21476 2.192878,-1.262088 -0.141985,0.662596 -0.283969,1.435625 -0.410178,2.208654 z" />
			</g>
		</g>
	</g>
</svg>
