<?xml version="1.0" encoding="UTF-8" standalone="no"?>
<svg
	xmlns="http://www.w3.org/2000/svg"
	xmlns:cc="http://creativecommons.org/ns#"
	xmlns:dc="http://purl.org/dc/elements/1.1/"
	xmlns:inkscape="http://www.inkscape.org/namespaces/inkscape"
	xmlns:rdf="http://www.w3.org/1999/02/22-rdf-syntax-ns#"
	xmlns:sodipodi="http://sodipodi.sourceforge.net/DTD/sodipodi-0.dtd"
	xmlns:svg="http://www.w3.org/2000/svg"
	aria-label="いいぞもっとやれ"
	width="32"
	height="32"
	viewBox="0 0 32 32"
	version="1.1"
	inkscape:version="1.2.2 (b0a8486541, 2022-12-01)"
	>
	<title>iizomottoyare</title>
	<metadata>
		<rdf:RDF>
			<cc:License rdf:about="http://creativecommons.org/publicdomain/zero/1.0/">
				<cc:permits rdf:resource="http://creativecommons.org/ns#Reproduction" />
				<cc:permits rdf:resource="http://creativecommons.org/ns#Distribution" />
				<cc:permits rdf:resource="http://creativecommons.org/ns#DerivativeWorks" />
			</cc:License>
			<cc:Work rdf:about="">
				<cc:license rdf:resource="http://creativecommons.org/publicdomain/zero/1.0/" />
				<dc:title>iizomottoyare</dc:title>
				<dc:creator>
					<cc:Agent>
						<dc:title>zawa-ch.</dc:title>
					</cc:Agent>
				</dc:creator>
			</cc:Work>
		</rdf:RDF>
	</metadata>
	<style>
		.typography {
			font-family:'ロックンロール One';
			font-style:normal;
			font-variant:normal;
			font-weight:normal;
			font-stretch:normal;
			line-height:1.05;
			text-anchor:start;
			-inkscape-font-specification:'ロックンロール One, Normal';
		}
		.fg {
			fill:#ea553a;
			fill-opacity:1;
			stroke:none;
		}
	</style>
	<sodipodi:namedview
		pagecolor="#505050"
		bordercolor="#eeeeee"
		borderopacity="1"
		inkscape:showpageshadow="0"
		inkscape:pageopacity="0"
		inkscape:pagecheckerboard="0"
		inkscape:deskcolor="#505050"
		inkscape:document-units="px"
		showgrid="false"
		>
		<sodipodi:guide position="0,0" orientation="32,0" />
		<sodipodi:guide position="16,0" orientation="32,0" />
		<sodipodi:guide position="32,0" orientation="32,0" />
		<sodipodi:guide position="0,0" orientation="0,32" />
		<sodipodi:guide position="0,16" orientation="0,32" />
		<sodipodi:guide position="0,32" orientation="0,32" />
	</sodipodi:namedview>
	<g inkscape:groupmode="layer" style="display:none">
		<text x="-1.7238494" y="13.138076" xml:space="preserve" class="typography fg" style="font-size:16.7364px"><tspan sodipodi:role="line" x="-1.7238494" y="13.138076" class="fg">いいぞ</tspan><tspan sodipodi:role="line" x="-1.7238494" y="30.711296" class="fg">もっとやれ</tspan></text>
	</g>
	<g inkscape:groupmode="layer" inkscape:label="Outline">
		<g transform="matrix(0.65272984,0,0,1,0.13367716,0)" class="typography fg">
			<path d="m 7.2635977,10.225942 q -0.6192468,0.669456 -1.5230124,1.372385 -0.9037657,0.702929 -1.8242677,1.238494 -0.3682008,0.217573 -0.669456,0.301255 -0.3012552,0.100418 -0.5523013,0.100418 -0.6359832,0 -1.004184,-0.60251 Q 1.3389119,12.033473 1.0711295,10.928871 0.92050188,10.242679 0.78661067,9.2552309 0.66945587,8.2510469 0.56903747,7.0962352 0.48535546,5.9246872 0.43514626,4.7364027 0.38493706,3.5313819 0.38493706,2.4602522 q 0,-0.4016736 0,-0.7866108 0.0167364,-0.3849372 0.0334728,-0.71966521 L 2.8953972,1.1882858 Q 2.7782423,2.2594154 2.7112967,3.5983275 2.6443511,4.9205031 2.6443511,6.209206 q 0,1.004184 0.033473,1.8912132 0.050209,0.8702929 0.1506276,1.5062761 0.083682,0.5020917 0.1841005,0.7196657 0.1171548,0.200836 0.3514644,0.200836 0.050209,0 0.1171548,0 0.066946,-0.01674 0.1338912,-0.03347 Q 4.3347276,10.309624 5.1548112,9.9246869 5.9916313,9.5230133 6.6443509,9.1046033 Z M 11.497907,9.9748961 Q 11.213388,8.7364025 10.828451,7.464436 10.46025,6.1757332 10.025104,4.9874487 9.6066938,3.7824279 9.1213382,2.8117167 L 10.376568,2.3430974 q 1.004184,1.4058577 1.958159,2.9958157 0.953975,1.5899581 1.707113,3.3305438 z" />
			<path d="m 23.999998,10.225942 q -0.619247,0.669456 -1.523012,1.372385 -0.903766,0.702929 -1.824268,1.238494 -0.368201,0.217573 -0.669456,0.301255 -0.301255,0.100418 -0.552301,0.100418 -0.635983,0 -1.004184,-0.60251 -0.351465,-0.602511 -0.619247,-1.707113 -0.150628,-0.686192 -0.284519,-1.6736401 -0.117155,-1.004184 -0.217573,-2.1589957 -0.08368,-1.171548 -0.133891,-2.3598325 -0.05021,-1.2050208 -0.05021,-2.2761505 0,-0.4016736 0,-0.7866108 0.01674,-0.3849372 0.03347,-0.71966521 l 2.476988,0.23430961 q -0.117155,1.0711296 -0.184101,2.4100417 -0.06695,1.3221756 -0.06695,2.6108785 0,1.004184 0.03347,1.8912132 0.05021,0.8702929 0.150627,1.5062761 0.08368,0.5020917 0.184101,0.7196657 0.117154,0.200836 0.351464,0.200836 0.05021,0 0.117155,0 0.06695,-0.01674 0.133891,-0.03347 0.719665,-0.184101 1.539749,-0.5690381 0.83682,-0.4016736 1.489539,-0.8200836 z m 4.23431,-0.2510459 Q 27.949789,8.7364025 27.564852,7.464436 27.196651,6.1757332 26.761504,4.9874487 26.343094,3.7824279 25.857739,2.8117167 l 1.25523,-0.4686193 q 1.004184,1.4058577 1.958159,2.9958157 0.953975,1.5899581 1.707113,3.3305438 z" />
			<path d="m 43.765687,13.824268 q -1.154811,-0.01674 -2.27615,-0.100418 -1.104602,-0.08368 -2.058577,-0.251046 -0.937239,-0.150628 -1.606695,-0.351465 -0.937238,-0.301255 -1.405857,-0.803347 -0.451883,-0.502092 -0.451883,-1.071129 0,-1.004184 1.205021,-1.9581593 0.987447,-0.7866108 2.09205,-1.3389121 1.104602,-0.5523012 2.543933,-1.1046024 H 33.138073 L 32.652717,5.623432 38.912131,5.1548127 43.163177,1.3542175e-6 45.338909,1.573223 40.836817,5.0209215 47.481168,4.5188295 v 2.3263597 q -0.870292,0.016736 -1.757322,0.066946 -0.870293,0.050209 -1.556485,0.2343096 -1.372385,0.3849372 -2.677824,1.0711297 -1.305439,0.669456 -2.292887,1.506276 -0.719665,0.6192465 -0.719665,1.0543925 0,0.518829 1.071129,0.702929 0.351465,0.06695 0.820084,0.100419 0.485356,0.01674 1.004184,0.01674 0.702929,0 1.439331,-0.03347 0.736401,-0.03347 1.372384,-0.100418 z M 38.794976,2.3765702 q 0,0.7196653 -0.518828,1.2217573 -0.502092,0.502092 -1.205021,0.502092 -0.719665,0 -1.221757,-0.502092 -0.502092,-0.502092 -0.502092,-1.2217573 0,-0.7196652 0.502092,-1.2217572 0.502092,-0.50209202 1.221757,-0.50209202 0.702929,0 1.205021,0.50209202 0.518828,0.502092 0.518828,1.2217572 z M 48.82008,2.5606706 q 0,0.4184101 -0.301255,0.7196653 -0.301255,0.3012552 -0.736401,0.3012552 -0.41841,0 -0.719666,-0.3012552 -0.301255,-0.3012552 -0.301255,-0.7196653 0,-0.4351464 0.301255,-0.7196652 0.301256,-0.3012552 0.719666,-0.3012552 0.435146,0 0.736401,0.3012552 0.301255,0.2845188 0.301255,0.7196652 z m -2.242677,0.7531381 q 0,0.4686192 -0.334728,0.8033472 -0.334728,0.3179916 -0.803348,0.3179916 -0.468619,0 -0.803347,-0.3179916 -0.317991,-0.334728 -0.317991,-0.8033472 0,-0.4686192 0.317991,-0.7866109 0.334728,-0.334728 0.803347,-0.334728 0.46862,0 0.803348,0.334728 0.334728,0.3179917 0.334728,0.7866109 z" />
		</g>
		<g transform="scale(0.39244666,1)" class="typography fg">
			<path d="m 7.4811709,30.125522 q 1.9748953,-0.100419 2.9790791,-0.903766 1.004184,-0.803347 1.004184,-1.924686 0,-0.803347 -0.150627,-1.606695 -0.133892,-0.820083 -0.535565,-1.874476 l 1.087866,-0.401674 q 0.719665,0.970711 1.205021,1.974895 0.502092,0.987448 0.502092,1.974896 0,2.025104 -1.472804,3.179916 -1.456066,1.154811 -4.4853549,1.338912 -0.167364,0.01674 -0.3179916,0.01674 -0.1506276,0 -0.2845188,0 -1.4058577,0 -2.2928869,-0.468619 Q 3.849372,30.979078 3.430962,29.924685 3.0292884,28.853555 3.0292884,27.06276 q 0,-0.284518 0,-0.60251 0.016736,-0.317992 0.033473,-0.635983 H 0.51882827 L -1.5354156e-7,24.267781 3.2468616,24.050208 q 0.066946,-0.535565 0.1506276,-1.104602 0.083682,-0.569038 0.1841004,-1.138075 H 0.60251027 L 0.08368185,20.301254 3.9163176,19.999999 q 0.1506276,-0.820083 0.3179916,-1.573221 0.167364,-0.753138 0.334728,-1.389122 l 2.4937237,0.552302 q -0.167364,0.468619 -0.3514644,1.037656 -0.167364,0.569038 -0.3514644,1.171548 L 9.907949,19.514644 v 2.292887 H 5.8242673 q -0.1171548,0.518828 -0.2343097,1.054393 -0.1171548,0.518828 -0.2008368,1.02092 L 9.824267,23.581589 v 2.242678 H 5.1213384 q -0.050209,0.820083 -0.050209,1.472803 0,1.02092 0.167364,1.656904 0.167364,0.619246 0.6192469,0.903765 0.4686192,0.267783 1.3054392,0.267783 z" />
			<path d="m 21.205019,29.941421 q 1.941423,-0.937238 3.347281,-2.025104 1.405857,-1.087866 2.108786,-2.108787 0.468619,-0.669456 0.468619,-1.205021 0,-0.60251 -0.652719,-0.987447 -0.635984,-0.384937 -2.125523,-0.384937 -0.686193,0 -1.690377,0.1841 -0.987447,0.167364 -2.108786,0.502092 -1.121339,0.317992 -2.209205,0.753138 l -0.669456,-1.841004 q 1.774058,-0.485356 3.514644,-0.753138 1.740586,-0.267782 3.297071,-0.267782 1.523012,0 2.560669,0.401673 1.037657,0.401674 1.573222,1.07113 0.535565,0.669456 0.535565,1.472803 0,0.920502 -0.702929,1.857741 -1.104603,1.456066 -2.711297,2.476987 -1.606694,1.02092 -3.732217,1.891213 z" />
			<path d="m 45.874474,31.380752 q -0.820084,0.03347 -1.573222,0.05021 -0.753138,0.01674 -1.456067,0.01674 -2.075313,0 -3.732217,-0.150627 -1.640167,-0.150628 -3.096234,-0.435147 -1.037657,-0.200837 -1.573222,-0.753138 -0.518828,-0.569037 -0.518828,-1.338912 0,-0.736401 0.485355,-1.589958 0.485356,-0.870293 1.456067,-1.740586 0.518829,-0.468619 1.138076,-0.953974 0.635983,-0.485356 1.338912,-0.970712 l -2.393306,-6.008367 2.711297,-0.401674 1.523013,5.188284 q 0.987447,-0.619247 2.025104,-1.221757 1.054393,-0.619247 2.108787,-1.171548 l 1.104602,1.037657 q -1.205021,0.769874 -2.410042,1.606694 -1.188284,0.83682 -2.27615,1.656904 l 0.41841,1.422594 -1.556485,1.02092 -0.46862,-1.171548 q -0.569037,0.468619 -1.071129,0.920502 -0.502092,0.435147 -0.887029,0.83682 -0.686193,0.686193 -0.686193,1.205021 0,0.317992 0.267783,0.518829 0.284518,0.200836 0.769874,0.284518 0.384937,0.06695 0.870293,0.100419 0.502092,0.01674 1.104602,0.01674 1.221758,0 2.861925,-0.117155 1.640167,-0.133891 3.665272,-0.3682 z" />
			<path d="m 59.364013,18.778242 q 0,0.702929 -0.485356,1.188284 -0.485355,0.485356 -1.188284,0.485356 -0.702929,0 -1.188285,-0.485356 -0.485355,-0.485355 -0.485355,-1.188284 0,-0.686192 0.485355,-1.171548 0.485356,-0.485356 1.188285,-0.485356 0.702929,0 1.188284,0.485356 0.485356,0.485356 0.485356,1.171548 z m 1.188284,8.3682 q 0.334728,-0.736401 0.535565,-1.271966 0.200837,-0.552301 0.317992,-1.020921 0.133891,-0.485355 0.200836,-0.987447 0.01674,-0.133891 0.01674,-0.23431 0.01674,-0.100418 0.01674,-0.200837 0,-0.585774 -0.284519,-0.83682 -0.284518,-0.251046 -0.870292,-0.251046 -0.184101,0 -0.401674,0.01674 -0.217573,0.01674 -0.468619,0.06695 -1.037657,0.184101 -2.225941,0.552302 -1.171549,0.351464 -2.410042,0.83682 0.702929,1.690376 1.372385,3.497907 0.686192,1.807532 1.25523,3.548117 l -2.410042,1.138076 q -0.435146,-1.941423 -0.970711,-3.8159 -0.518829,-1.891213 -1.104603,-3.598326 -0.619246,0.284519 -1.25523,0.60251 -0.619247,0.301256 -1.238493,0.635984 l -1.087866,-2.125523 q 0.736401,-0.284519 1.43933,-0.535565 0.719665,-0.267782 1.439331,-0.502092 -0.686193,-1.774058 -1.389122,-3.112971 l 1.589958,-0.736401 q 0.786611,1.43933 1.606695,3.263598 2.560669,-0.786611 4.887029,-1.188284 0.686192,-0.117155 1.271966,-0.167364 0.585774,-0.06695 1.07113,-0.06695 1.389121,0 2.025104,0.485356 0.65272,0.485355 0.65272,1.472803 0,0.769874 -0.384937,1.924686 -0.217573,0.669456 -0.686193,1.489539 -0.451882,0.803348 -1.154811,1.690377 z" />
			<path d="m 81.539744,28.619246 q -2.510461,2.359832 -3.882845,2.359832 -1.338912,0 -1.338912,-2.343096 0,-0.251046 0.01674,-0.535565 0.01674,-0.301255 0.05021,-0.619247 0.100419,-0.83682 0.184101,-1.723849 0.100418,-0.903766 0.200836,-1.707113 0.100419,-0.820083 0.167364,-1.405857 0.01674,-0.08368 0.01674,-0.133892 0,-0.06695 0,-0.133891 0,-0.451883 -0.23431,-0.652719 -0.217573,-0.217574 -0.60251,-0.217574 -0.602511,0 -1.305439,0.284519 -0.702929,0.267783 -1.422595,0.736402 -0.702928,0.451883 -1.305439,1.02092 -0.117155,0.117155 -0.251046,0.251046 -0.133891,0.133891 -0.267782,0.267783 l -0.217573,7.313807 -1.924686,0.351464 v -5.121338 q -0.518829,0.652719 -0.953975,1.221757 -0.41841,0.552301 -0.686193,0.903765 -0.251046,0.334728 -0.251046,0.334728 l -1.67364,-1.656903 q 0,0 0.317992,-0.334728 0.317991,-0.334728 0.83682,-0.870293 0.535565,-0.535565 1.154812,-1.154812 0.635983,-0.635983 1.25523,-1.238493 v -6.711297 l 2.343096,0.351464 -0.133892,4.401674 q 0.820084,-0.619247 1.707113,-1.087866 0.88703,-0.485356 1.72385,-0.769875 0.853556,-0.284519 1.573221,-0.284519 2.594142,0 2.594142,2.058578 0,0.117155 0,0.251046 0,0.117155 -0.03347,0.251046 -0.117155,0.820083 -0.267783,1.774058 -0.133891,0.953975 -0.251046,1.857741 -0.117155,0.903765 -0.200837,1.606694 -0.01674,0.117155 -0.01674,0.217573 0,0.08368 0,0.167364 0,0.753138 0.451883,0.753138 0.284519,0 0.803347,-0.301255 0.535565,-0.317991 1.338912,-0.987447 z M 69.238489,21.405857 q 0,0.619247 -0.451883,1.07113 -0.435146,0.435146 -1.071129,0.435146 -0.619247,0 -1.07113,-0.435146 -0.435146,-0.451883 -0.435146,-1.07113 0,-0.635983 0.435146,-1.07113 0.451883,-0.451883 1.07113,-0.451883 0.635983,0 1.071129,0.451883 0.451883,0.435147 0.451883,1.07113 z" />
		</g>
	</g>
</svg>
