<?xml version="1.0" encoding="UTF-8" standalone="no"?>
<svg
	xmlns="http://www.w3.org/2000/svg"
	xmlns:cc="http://creativecommons.org/ns#"
	xmlns:dc="http://purl.org/dc/elements/1.1/"
	xmlns:inkscape="http://www.inkscape.org/namespaces/inkscape"
	xmlns:rdf="http://www.w3.org/1999/02/22-rdf-syntax-ns#"
	xmlns:sodipodi="http://sodipodi.sourceforge.net/DTD/sodipodi-0.dtd"
	xmlns:svg="http://www.w3.org/2000/svg"
	width="32"
	height="32"
	viewBox="0 0 32 32"
	version="1.1"
	inkscape:version="1.2.2 (b0a8486541, 2022-12-01)"
	area-label="陰謀論"
	>
	<title>inbouron</title>
	<metadata>
		<rdf:RDF>
			<cc:License rdf:about="http://creativecommons.org/publicdomain/zero/1.0/">
				<cc:permits rdf:resource="http://creativecommons.org/ns#Reproduction" />
				<cc:permits rdf:resource="http://creativecommons.org/ns#Distribution" />
				<cc:permits rdf:resource="http://creativecommons.org/ns#DerivativeWorks" />
			</cc:License>
			<cc:Work rdf:about="">
				<cc:license rdf:resource="http://creativecommons.org/publicdomain/zero/1.0/" />
				<dc:title>inbouron</dc:title>
				<dc:creator>
					<cc:Agent>
						<dc:title>zawa-ch.</dc:title>
					</cc:Agent>
				</dc:creator>
			</cc:Work>
		</rdf:RDF>
	</metadata>
	<style>
		.bg {
			fill: black;
			fill-opacity: 1;
			stroke: none;
		}
		.typography {
			font-family: 'IPAmj明朝';
			font-style: normal;
			font-variant: normal;
			font-weight: normal;
			font-stretch: normal;
			line-height: 1.05;
			text-anchor: start;
			-inkscape-font-specification: 'IPAmj明朝, Normal';
		}
		.fg {
			fill: blueviolet;
			fill-opacity: 1;
			stroke: none;
		}
	</style>
	<sodipodi:namedview
		pagecolor="#505050"
		bordercolor="#eeeeee"
		borderopacity="1"
		inkscape:showpageshadow="0"
		inkscape:pageopacity="0"
		inkscape:pagecheckerboard="0"
		inkscape:deskcolor="#505050"
		inkscape:document-units="px"
		showgrid="false"
		showguides="false"
		>
		<inkscape:grid type="xygrid" empspacing="8" />
		<sodipodi:guide position="0,32" orientation="0,32" />
		<sodipodi:guide position="32,32" orientation="32,0" />
		<sodipodi:guide position="32,0" orientation="0,-32" />
		<sodipodi:guide position="0,0" orientation="-32,0" />
		<sodipodi:guide position="16,0" orientation="32,0" />
		<sodipodi:guide position="0,16" orientation="0,32" />
		<sodipodi:guide position="8,0" orientation="32,0" />
		<sodipodi:guide position="24,0" orientation="32,0" />
		<sodipodi:guide position="0,8" orientation="0,32" />
		<sodipodi:guide position="0,24" orientation="0,32" />
	</sodipodi:namedview>
	<g inkscape:groupmode="layer" inkscape:label="BG">
		<rect x="0" y="0" width="32" height="32" class="bg" />
	</g>
	<g inkscape:groupmode="layer" style="display:none">
		<text xml:space="preserve" x="-1.0744339" y="14.213318" class="typography fg" style="font-size:16.5255px;stroke:blueviolet;stroke-width:1;stroke-opacity:1"><tspan sodipodi:role="line" x="-1.0744339" y="14.213318" class="typography fg" style="font-size:16.5255px;stroke:blueviolet;stroke-width:1;stroke-opacity:1">陰謀</tspan></text>
		<text xml:space="preserve" x="15.738219" y="30.168915" class="typography fg" style="font-size:16.2049px;stroke:blueviolet;stroke-width:1;stroke-opacity:1"><tspan sodipodi:role="line" x="15.738219" y="30.168915" class="typography fg" style="font-size:16.2049px;stroke:blueviolet;stroke-width:1;stroke-opacity:1">論</tspan></text>
	</g>
	<g inkscape:groupmode="layer" inkscape:label="Outline">
		<g class="typography fg">
			<path d="M 8.3789062,0.04492187 8.2128906,0.39453125 C 7.1009956,2.7436053 5.5787485,4.5269731 3.6328125,5.78125 L 3.5800785,5.814453 C 3.5569613,5.7900464 3.5451019,5.7604869 3.5214844,5.7363281 4.0785386,4.8058231 4.5920126,3.786123 5.0507812,2.6523438 L 5.28125,2.5371094 5.28906,2.5331994 C 5.4791663,2.429505 5.72656,2.2200244 5.72656,1.8828088 5.72656,1.478393 5.5362136,1.3495613 5.3398413,1.1406213 5.143474,0.93168867 4.8779366,0.6972711 4.53125,0.41992188 L 4.1308594,0.09960937 3.40625,1.0527344 H 1.7402344 C 1.4326559,0.88384939 1.0944144,0.71220672 0.68359375,0.53125 L -0.01757813,0.22070312 V 15.900391 H 1.9277344 v -3.871094 c 0.025541,0.01558 0.095694,0.03002 0.1152344,0.04492 0.1234249,0.09415 0.1385317,0.13571 0.1445312,0.220703 l 0.03125,0.457031 0.4570312,0.0078 C 3.5262546,12.775901 4.2035273,12.33677 4.6386719,11.67186 H 7 c -0.1782316,0.553267 -0.3727828,1.106368 -0.6328125,1.660156 -0.8354371,0.019 -1.5233987,0.03602 -1.9316406,0.05078 l -0.5800781,0.02149 0.1054687,0.570312 c 0.095187,0.509531 0.1960314,0.901538 0.3320313,1.210938 0.068,0.1547 0.1427565,0.29209 0.2617187,0.417969 0.1189622,0.125877 0.3162512,0.248046 0.5429687,0.248046 0.3072421,0 0.5207533,-0.225659 0.6191407,-0.398437 0.038455,-0.06753 0.05098,-0.152633 0.078125,-0.224609 2.1664437,-0.184594 4.3190991,-0.4483 6.4589841,-0.792969 0.11025,0.172966 0.22688,0.346058 0.308594,0.515625 0.175813,0.373602 0.548691,0.697265 0.976562,0.697266 0.278754,0 0.584345,-0.09007 0.791016,-0.314454 0.206671,-0.224384 0.273438,-0.517657 0.273438,-0.798828 0,-0.653507 -0.403252,-1.228699 -1.025391,-1.742187 -0.464822,-0.383646 -1.221626,-0.751153 -1.978516,-1.121094 h 3.070313 L 15.25,10.800781 14.972656,10.511719 C 14.689628,10.216016 14.401001,9.9690572 14.111328,9.7246094 L 14.558594,8.9609375 14.335938,8.6914062 C 14.02186,8.308803 13.686882,7.9669087 13.328125,7.6660156 l -0.394531,-0.3320312 -0.863282,1.09375 h -0.208984 c 0.08706,-0.2665322 0.18175,-0.5253699 0.246094,-0.8125 l 0.203125,-0.1113282 c 0.182959,-0.091479 0.421875,-0.3242986 0.421875,-0.625 0,-0.2206909 -0.08537,-0.3338994 -0.15625,-0.4335937 C 12.505291,6.3456182 12.425265,6.2603701 12.328125,6.1679688 12.156592,6.0048037 11.90958,5.8132144 11.625,5.6035156 l 0.300781,-0.515625 c 0.624359,0.4581435 1.233826,0.9297313 1.94336,1.3046875 l 0.46289,0.2441407 0.222657,-0.4726563 C 14.711117,5.8327988 14.903429,5.581778 15.132812,5.390625 L 15.78125,4.8515625 14.998047,4.5410156 C 13.165665,3.8180659 11.682241,2.8126749 10.425781,1.6132812 10.519434,1.518523 10.617187,1.3632279 10.617188,1.1894531 10.617187,0.94098096 10.46913,0.75543383 10.34375,0.65234375 10.21837,0.54925367 10.088652,0.48741384 9.9394531,0.42773438 9.6410558,0.30837543 9.2586484,0.21178983 8.7578125,0.1171875 Z M 1.9277344,2.4648438 H 3.0175781 C 2.7055428,3.6039659 2.3729776,4.7020992 1.9609375,5.6445312 l -0.033203,0.076172 z M 9.234375,2.5722656 c 0.3016147,0.3678473 0.6427454,0.6990525 0.978516,1.0351563 L 9.5976562,4.28125 H 7.8457031 C 8.3391647,3.7555503 8.8103128,3.1971951 9.234375,2.5722656 Z M 6.5898438,5.4492188 6.6855469,5.6914062 H 10.792969 L 10.488281,6.0800781 H 5.6777344 C 5.9849245,5.8745703 6.3013862,5.6830041 6.5898438,5.4492188 Z M 1.9277344,6.0332031 2.03125,6.1601562 c 0.876717,1.085702 1.2753906,2.0904347 1.2753906,3.0351563 0,0.5529586 -0.097053,0.9202055 -0.2070312,1.0957035 -0.1099781,0.175496 -0.1834195,0.21875 -0.4296875,0.21875 -0.1314221,0 -0.4618644,-0.04851 -0.7421875,-0.08399 z m 3.3515625,0.3222657 0.4472656,1.1367187 h 4.4140625 c -0.0894,0.3246053 -0.1798187,0.6476463 -0.28125,0.9355469 H 4.9472656 C 4.8314321,7.9088952 4.6881128,7.4080817 4.4257812,6.9453125 4.7369719,6.7897843 4.9843097,6.536088 5.2792969,6.3554688 Z M 5.1757812,9.8398438 H 12.882812 L 12.519531,10.259766 H 5.125 C 5.142146,10.119791 5.169906,9.9815067 5.1757812,9.8398438 Z m 4.0878907,1.8320312 h 0.9003901 l -0.382812,0.5 0.431641,0.298828 c 0.314608,0.217451 0.456846,0.393976 0.699218,0.595703 -0.9687714,0.07112 -1.9109016,0.137622 -2.677734,0.173828 0.3487429,-0.495946 0.7002248,-0.985365 1.0292969,-1.568359 z" />
			<path d="M 20.390625,0.09765625 19.412109,1.2871094 h -3.185547 l 0.470704,1.4121094 h 3.769531 l -0.539063,0.6542968 h -4.447265 l 0.443359,1.4101563 h 4.017578 l -0.544922,0.6542969 h -3.21289 l 0.386718,1.4121093 H 19.9375 L 19.394531,7.484375 h -3.304687 l 0.552734,1.4101562 h 3.527344 l -0.564453,0.71875 H 18.027344 C 17.684299,9.4192696 17.359133,9.2475598 17.072266,9.1328125 L 16.386719,8.859375 v 7.023437 h 1.927734 v -1.121093 h 1.146485 v 1.121093 h 1.896484 v -0.224609 l 0.271484,-0.154297 c 1.451522,-0.821535 2.605991,-1.843145 3.601563,-2.96875 v 3.365235 h 1.960937 v -3.927735 c 0.932651,1.177629 1.988988,2.235341 3.285156,3.044922 l 0.478516,0.296875 0.240234,-0.509765 c 0.127599,-0.27221 0.334824,-0.543837 0.638672,-0.814454 l 0.570313,-0.509765 -0.695313,-0.31836 c -1.458072,-0.667253 -2.63207,-1.579586 -3.65625,-2.628906 h 3.40625 l 0.46875,-0.9140624 -0.21289,-0.2539062 C 31.340725,8.918526 30.965536,8.529136 30.587891,8.1972656 L 30.195312,7.8515625 29.177734,9.1210938 H 27.191406 V 8.265625 h 0.169922 v 0.5976562 h 1.927734 V 3.8691406 h 2.007813 L 31.806641,3.0332031 31.640625,2.7714844 C 31.374519,2.3491865 31.061679,1.9479865 30.701172,1.5703125 L 30.255859,1.1054688 29.408203,2.4570312 H 29.289062 V 1.8535156 c 0.08397,-0.039714 0.186346,-0.070499 0.259766,-0.1191406 0.167938,-0.1112589 0.386719,-0.2910917 0.386719,-0.625 0,-0.23382313 -0.148374,-0.45760406 -0.296875,-0.5703125 C 29.490171,0.42635406 29.338053,0.37295995 29.169922,0.328125 28.833659,0.2384551 28.416083,0.20063241 27.871094,0.18945312 L 27.361328,0.1796875 V 2.4570312 H 25.09375 V 1.8261719 c 0.09151,-0.041624 0.201842,-0.07496 0.28125,-0.1269531 0.175707,-0.1150462 0.396484,-0.3067914 0.396484,-0.6386719 0,-0.24477698 -0.165847,-0.46590491 -0.316406,-0.57031252 C 25.304519,0.38582675 25.154764,0.33750264 24.986328,0.296875 24.649457,0.21561971 24.227915,0.1821812 23.673828,0.17382812 l -0.507812,-0.007813 V 2.4570312 H 21.681641 L 22.033203,1.8027344 21.810547,1.5429688 C 21.4866,1.1631694 21.142447,0.80369275 20.779297,0.46289062 Z m 2.132813,3.77148435 h 0.642578 v 5.15625 H 25.09375 V 8.265625 h 0.136719 V 9.1210938 H 20.837891 C 20.79112,9.0821033 20.771071,9.0566815 20.720703,9.015625 L 20.572266,8.8945312 h 0.800781 l 0.548828,-0.8574218 -0.240234,-0.28125 C 21.308548,7.3197772 21.045574,7.0459852 20.8125,6.8300781 h 0.587891 L 21.908203,5.96875 21.689453,5.6992188 C 21.429476,5.3792474 21.142605,5.0689023 20.84375,4.7636719 h 1.224609 L 22.554688,3.90625 Z m 2.570312,0 h 2.267578 V 4.5058594 H 25.09375 Z m 0,2.0488282 h 2.267578 v 0.9375 H 25.09375 Z m -3.294922,4.6152342 h 2.650391 c -0.901777,1.348662 -1.928721,2.461223 -3.091797,3.324219 v -2.767578 l 0.191406,-0.117188 0.01953,-0.01367 c 0.10002,-0.07501 0.180323,-0.246727 0.230469,-0.425781 z m -3.484375,0.492188 h 1.146485 v 2.324218 h -1.146485 z" />
		</g>
		<g class="typography fg">
			<path d="m 25.537109,16.050781 -0.148437,0.46875 c -0.5421,1.727941 -1.371851,3.096372 -2.333984,4.306641 l 0.380859,-0.671875 -0.207031,-0.263672 c -0.379594,-0.48412 -0.740305,-0.870274 -1.097657,-1.162109 l -0.02148,-0.01758 0.363281,-0.587891 -0.21875,-0.275391 c -0.392803,-0.49646 -0.743944,-0.88034 -1.076172,-1.158203 L 20.781254,16.35742 19.85352,17.546873 h -2.951172 l 0.330078,1.404297 h 4.070312 l -0.523437,0.636719 H 15.79102 l 0.496093,1.404297 h 4.205079 L 20,21.613281 h -3.394531 l 0.412109,1.404297 h 3.451172 l -0.462891,0.621094 h -3.359375 l 0.332032,1.302734 -0.101563,-0.04687 v 6.9375 h 1.908203 v -1.037109 h 1.216797 v 0.847656 h 1.894531 v -4.464844 l 0.09961,-0.06641 h 0.002 c 0.169621,-0.113081 0.365234,-0.332958 0.365234,-0.621094 0,-0.208055 -0.07451,-0.317258 -0.138672,-0.416015 -0.06416,-0.09876 -0.137466,-0.185553 -0.226562,-0.279297 -0.178192,-0.187489 -0.417616,-0.399341 -0.730469,-0.652344 l -0.123047,-0.09961 h 0.902344 l 0.367187,-0.595703 v 7.384765 h 1.878907 v -4.273437 h 0.148437 v 3.853515 h 1.822266 v -3.853515 h 0.257812 v 3.74414 h 1.689454 l -0.01367,0.386719 h 0.517578 c 0.508609,0 0.964327,-0.106018 1.308594,-0.398437 0.344267,-0.292421 0.503906,-0.7468 0.503906,-1.216797 v -5.431641 l 0.105468,-0.06055 0.0039,-0.002 c 0.09008,-0.04745 0.178158,-0.105394 0.263672,-0.203125 0.08662,-0.09899 0.166015,-0.258832 0.166015,-0.427734 0,-0.210236 -0.07828,-0.329469 -0.148437,-0.433594 -0.01551,-0.02302 -0.03801,-0.04255 -0.05469,-0.06445 l 0.07031,0.04492 0.251953,-0.488282 c 0.166869,-0.324718 0.376618,-0.588339 0.634765,-0.802734 l 0.607422,-0.503906 -0.716796,-0.333984 c -1.666934,-0.776692 -3.038697,-1.985815 -4.205079,-3.53125 0.0235,-0.01994 0.04691,-0.02511 0.07031,-0.05078 0.086,-0.09436 0.166015,-0.252592 0.166016,-0.417968 0,-0.248863 -0.133715,-0.416194 -0.246094,-0.519532 -0.11238,-0.103337 -0.231858,-0.173722 -0.371094,-0.24414 -0.278471,-0.140836 -0.641143,-0.270427 -1.115234,-0.41211 z m 0.916016,2.916016 c 0.248343,0.412494 0.527964,0.796988 0.816406,1.173828 l -0.703125,0.888672 h -1.382812 c 0.484938,-0.623088 0.889559,-1.329536 1.269531,-2.0625 z m -4.931641,2.025391 h 1.384766 c -0.221528,0.267382 -0.446531,0.53143 -0.689453,0.773437 -0.232818,-0.289668 -0.464625,-0.543122 -0.695313,-0.773437 z m 7.416016,0.921874 c 0.160396,0.141538 0.323888,0.279996 0.492188,0.414063 l -0.634766,0.8125 h -4.753906 c -0.190937,-0.09992 -0.432132,-0.206465 -0.691407,-0.316406 0.255243,-0.21275 0.505681,-0.430605 0.742188,-0.664063 l 0.123047,0.271485 h 4.382812 z m -6.523438,1.748047 v 0.341797 l -0.06641,-0.08203 c -0.03883,-0.04869 -0.07831,-0.07789 -0.117187,-0.125 l 0.121093,-0.07813 c 0.02374,-0.01563 0.0389,-0.04086 0.0625,-0.05664 z m 1.878907,0.882813 h 0.148437 v 1.611328 h -0.148437 z m 1.970703,0 h 0.257812 v 1.611328 h -0.257812 z m 2.095703,0 h 0.291016 v 1.611328 h -0.291016 z m -11.160156,0.498047 h 3.505859 l -0.539062,0.669922 h -1.619141 c -0.302195,-0.168579 -0.617687,-0.33397 -0.962891,-0.492188 z m 1.585937,2.072265 h 1.216797 v 2.277344 h -1.216797 z m 9.574219,0.44336 h 0.291016 v 1.951172 c -0.03996,-2.11e-4 -0.204464,-0.01184 -0.291016,-0.01563 z" />
		</g>
	</g>
</svg>
