<?xml version="1.0" encoding="UTF-8" standalone="no"?>
<svg
	xmlns="http://www.w3.org/2000/svg"
	xmlns:cc="http://creativecommons.org/ns#"
	xmlns:dc="http://purl.org/dc/elements/1.1/"
	xmlns:inkscape="http://www.inkscape.org/namespaces/inkscape"
	xmlns:rdf="http://www.w3.org/1999/02/22-rdf-syntax-ns#"
	xmlns:sodipodi="http://sodipodi.sourceforge.net/DTD/sodipodi-0.dtd"
	xmlns:svg="http://www.w3.org/2000/svg"
	width="32"
	height="32"
	viewBox="0 0 32 32"
	version="1.1"
	inkscape:version="1.2.2 (b0a8486541, 2022-12-01)"
	aria-label="性癖に刺さる"
	>
	<title>seihekinisasaru</title>
	<metadata>
		<rdf:RDF>
			<cc:License rdf:about="http://creativecommons.org/publicdomain/zero/1.0/">
				<cc:permits rdf:resource="http://creativecommons.org/ns#Reproduction" />
				<cc:permits rdf:resource="http://creativecommons.org/ns#Distribution" />
				<cc:permits rdf:resource="http://creativecommons.org/ns#DerivativeWorks" />
			</cc:License>
			<cc:Work rdf:about="">
				<cc:license rdf:resource="http://creativecommons.org/publicdomain/zero/1.0/" />
				<dc:title>seihekinisasaru</dc:title>
				<dc:creator>
					<cc:Agent>
						<dc:title>zawa-ch.</dc:title>
					</cc:Agent>
				</dc:creator>
			</cc:Work>
		</rdf:RDF>
	</metadata>
	<style>
		.typography {
			font-family:'Mplus 1p Bold';
			font-style:normal;
			font-variant:normal;
			font-weight:normal;
			font-stretch:normal;
			line-height:1.05;
			text-anchor:start;
			-inkscape-font-specification:'Mplus 1p Bold, Bold';
		}
		.fg {
			fill:hotpink;
			fill-opacity:1;
			stroke:none;
		}
	</style>
	<sodipodi:namedview
		pagecolor="#505050"
		bordercolor="#eeeeee"
		borderopacity="1"
		inkscape:showpageshadow="0"
		inkscape:pageopacity="0"
		inkscape:pagecheckerboard="0"
		inkscape:deskcolor="#505050"
		inkscape:document-units="px"
		showgrid="false"
		>
		<inkscape:grid type="xygrid" empspacing="8" />
		<sodipodi:guide position="0,32" orientation="0,32" />
		<sodipodi:guide position="32,32" orientation="32,0" />
		<sodipodi:guide position="32,0" orientation="0,-32" />
		<sodipodi:guide position="0,0" orientation="-32,0" />
	</sodipodi:namedview>
	<g inkscape:groupmode="layer" display="none">
		<text xml:space="preserve" x="-0.12929294" y="13.527273" class="typography fg" style="font-size:16.1616px" ><tspan sodipodi:role="line" x="-0.12929294" y="13.527273" class="typography fg" style="font-size:16.1616px">性癖に</tspan><tspan sodipodi:role="line" x="-0.12929294" y="30.496967" class="typography fg" style="font-size:16.1616px">刺さる</tspan></text>
	</g>
	<g inkscape:groupmode="layer" inkscape:label="outline">
		<g aria-label="性癖に刺さる" class="fg">
			<g transform="scale(0.68370234,1)" >
				<path d="m 6.9171647,7.6606123 h 2.666664 V 4.8484939 H 7.8060527 Q 7.3858511,6.4484923 6.9171647,7.6606123 Z m 4.8323183,5.1070657 h 3.717168 V 14.6101 H 5.0100959 V 12.767678 H 9.5838287 V 9.4383883 H 6.0121151 V 7.7414203 L 4.9131263,7.3050571 q 0.032323,-0.080808 0.080808,-0.242424 0.064646,-0.161616 0.09697,-0.242424 L 4.5737327,6.9495019 Q 4.4444399,6.2383915 4.1212079,4.7515243 V 15.030302 H 2.0525231 V 5.4626347 Q 1.8262607,7.4020267 1.4383823,9.4545499 L -1.3422966e-7,9.1474795 Q 0.51717107,6.3030379 0.80807987,3.3939499 L 2.0525231,3.5394043 V 0.38789229 H 4.1212079 V 3.1030411 L 5.1393887,2.8444555 Q 5.3979743,3.8303131 5.6727215,5.0747563 6.3353471,2.8444555 6.6909023,0.66263949 l 1.858584,0.3070704 Q 8.4363551,1.9232443 8.2262543,3.0222331 H 9.5838287 V 0.38789229 H 11.749483 V 3.0222331 h 3.523229 v 1.8262608 h -3.523229 v 2.8121184 h 3.151512 v 1.777776 h -3.151512 z" />
				<path d="m 22.820179,6.6101083 h 1.082827 V 5.0909179 h -1.082827 z m 0,5.9797917 h 1.098989 v -1.793937 h -1.098989 z m 2.82828,-3.4747437 V 8.1777835 h -2.82828 v 0.2585856 q 0,0.1131312 -0.01616,0.3393936 0,0.2262624 0,0.3393936 z m 3.377775,-1.292928 q 0.290908,-1.0343424 0.484848,-2.2141392 h -1.30909 q 0.30707,1.7454528 0.371717,2.2141392 z m -2.698988,-6.707064 h 5.301005 V 2.8282939 H 20.363616 v 4.5090864 q 0,2.9090877 -0.50101,4.5737327 -0.484848,1.648483 -1.696968,3.054543 l -1.42222,-1.470706 q 0.662625,-0.791918 1.002019,-1.454544 0.355555,-0.662626 0.533333,-1.567675 -0.743434,0.387878 -1.535352,0.71111 L 16.1616,9.3575803 q 1.260605,-0.4525248 2.343432,-1.0666656 0.03232,-0.5979792 0.03232,-2.0848464 L 17.971699,6.5777851 Q 17.244427,5.2202107 16.193923,3.6202123 l 1.535352,-1.0020192 q 0.549495,0.8727264 0.80808,1.292928 V 1.1151643 h 5.624237 V 1.3883591e-5 h 2.165654 z m 3.587876,8.4848401 v 1.2929276 h 1.713129 v 1.745453 h -1.713129 v 2.391917 h -2.068685 v -2.391917 h -1.761615 v -1.745453 h 1.761615 V 9.6000044 h -2.068685 v 5.1878736 h -1.858584 v -0.614141 h -1.098989 v 0.759595 h -1.729291 v -1.082827 l -1.066666,-1.098989 q 0.937373,-1.729291 0.937373,-5.6565597 V 3.3939499 h 4.735349 v 4.4282784 h 1.228282 Q 26.779771,6.7232395 26.553509,5.6080891 H 26.020176 V 3.9434443 h 1.826261 v -0.888888 h 2.068685 v 0.888888 h 1.713129 V 5.6080891 H 31.20805 q -0.226263,1.1474736 -0.517172,2.2141392 h 1.018181 v 1.7777761 z" />
				<path d="M 39.418143,4.1535451 V 2.2626379 h 6.949488 v 1.8909072 z m -2.52121,-2.8929264 q -0.775757,2.9575728 -0.775757,6.4484784 0,3.4909059 0.775757,6.4484789 L 34.779763,14.4 q -0.80808,-3.086866 -0.80808,-6.6909029 0,-3.6040368 0.80808,-6.6909024 z m 9.616152,10.1171613 0.290909,1.874746 q -1.842423,0.484848 -3.830299,0.484848 -2.278786,0 -3.604037,-0.872726 -1.30909,-0.888888 -1.30909,-2.359594 0,-0.7111104 0.533333,-1.6646449 0.549494,-0.969696 1.486867,-1.8100992 l 1.519191,1.21212 q -0.662626,0.646464 -1.034343,1.2444432 -0.371717,0.5818179 -0.371717,0.9373729 0,1.373736 2.779796,1.373736 1.745452,0 3.53939,-0.420202 z" />
			</g>
			<g transform="matrix(0.68641188,0,0,1,0.05068082,0)" >
				<path d="m 5.9797919,25.858573 q 0.40404,0.484848 0.5171712,0.597979 l -0.161616,-1.648483 q 0.1131312,0 0.242424,0.01616 0.1454544,0 0.2101008,0.01616 0.080808,0 0.1292928,0 0.1777776,0 0.2101008,-0.08081 0.032323,-0.08081 0.032323,-0.581817 V 22.771708 H 5.9797919 Z m 3.9434304,2.585856 V 18.214136 H 11.781806 V 28.444429 Z M 12.92928,17.567672 h 2.004038 v 11.684837 q 0,0.791919 -0.04848,1.21212 -0.04848,0.420202 -0.161616,0.743434 -0.09697,0.339394 -0.387879,0.452525 -0.274747,0.129293 -0.646464,0.177777 -0.355555,0.06465 -1.018181,0.06465 -0.743433,0 -2.165654,-0.08081 l -0.06465,-1.890907 q 1.228281,0.08081 1.874745,0.08081 0.436363,0 0.517171,-0.09697 0.09697,-0.113131 0.09697,-0.662626 z m -3.6848449,2.585856 h -3.23232 v 1.018181 h 2.909088 v 2.731311 q 0,1.260604 -0.09697,1.793937 -0.09697,0.517171 -0.323232,0.678787 -0.2262624,0.161616 -0.7919184,0.161616 -0.09697,0 -1.1636352,-0.03232 1.3575744,1.373736 3.1838352,2.42424 l -0.888888,1.680807 q -1.6484832,-1.115151 -2.82828,-2.391917 v 3.781814 H 3.8787839 V 28.525237 Q 2.6989871,29.96362 1.0020191,31.191901 L 0.16161587,29.446449 Q 2.6181791,27.911097 3.9272687,26.068674 V 22.771708 H 2.8121183 v 4.169693 H 0.96969587 V 21.171709 H 3.8787839 V 20.153528 H 0.40403987 V 18.424237 H 3.8787839 v -1.228281 h 2.1333312 v 1.228281 h 3.23232 z" />
				<path d="m 25.874722,24.032312 0.01616,-0.01616 q -0.565656,-1.147474 -0.905049,-2.618179 -3.73333,0.09697 -7.385852,0.09697 V 19.66868 q 3.507068,0 7.06262,-0.09697 -0.129293,-0.985858 -0.177778,-1.939392 l 2.052523,-0.129293 q 0.04848,1.163635 0.161616,2.004038 2.585856,-0.09697 3.927269,-0.161616 l 0.06465,1.826261 q -1.21212,0.06465 -3.668683,0.161616 0.50101,2.0202 1.874746,4.169693 l -1.955554,0.985858 q -1.745453,-1.163636 -3.749491,-1.163636 -1.228282,0 -1.907069,0.50101 -0.678787,0.484848 -0.678787,1.325251 0,1.115151 1.002019,1.729292 1.002019,0.597979 2.989896,0.597979 1.777776,0 3.927269,-0.436363 l 0.339394,1.82626 q -2.052524,0.436364 -4.266663,0.436364 -3.103027,0 -4.622217,-1.163636 -1.519191,-1.163635 -1.519191,-3.086865 0,-1.61616 1.228282,-2.585856 1.228281,-0.969696 3.410097,-0.969696 1.422221,0 2.779796,0.533332 z" />
				<path d="m 42.553493,29.317156 q 1.729291,-0.678787 1.729291,-2.505048 0,-1.115151 -0.791918,-1.680807 -0.775757,-0.565656 -2.488887,-0.565656 -1.696968,0 -3.199996,0.387879 -1.486868,0.371716 -3.296967,1.276766 L 33.761583,24.743423 41.30905,20.16969 v -0.01616 h -6.448479 v -1.777776 h 10.29494 l 0.01616,1.826261 -5.301005,2.941411 0.01616,0.01616 q 1.066666,-0.210101 1.971715,-0.210101 2.311109,0 3.490906,0.953535 1.195958,0.953534 1.195958,2.715148 0,2.294948 -1.664645,3.555553 -1.664644,1.244443 -4.735348,1.244443 -2.408079,0 -3.604037,-0.743434 -1.195959,-0.727272 -1.195959,-2.117169 0,-1.066666 1.018181,-1.793938 1.018181,-0.743434 2.812119,-0.743434 1.842422,0 2.666664,0.614141 0.824241,0.614141 0.824241,1.810099 0,0.436364 -0.113131,0.872727 z m -1.987877,0.355555 q 0.274747,-0.597979 0.274747,-1.002019 0,-0.50101 -0.387878,-0.759595 -0.387878,-0.274748 -1.389898,-0.274748 -0.80808,0 -1.244443,0.274748 -0.420201,0.258585 -0.420201,0.646464 0,1.131312 2.747472,1.131312 0.06465,0 0.2101,0 0.145455,-0.01616 0.210101,-0.01616 z" />
			</g>
		</g>
	</g>
</svg>
