<?xml version="1.0" encoding="UTF-8" standalone="no"?>
<svg
	xmlns="http://www.w3.org/2000/svg"
	xmlns:inkscape="http://www.inkscape.org/namespaces/inkscape"
	xmlns:sodipodi="http://sodipodi.sourceforge.net/DTD/sodipodi-0.dtd"
	xmlns:svg="http://www.w3.org/2000/svg"
	width="256"
	height="256"
	viewBox="0 0 256 256"
	version="1.1"
	inkscape:version="1.2.2 (b0a8486541, 2022-12-01)"
	>
	<sodipodi:namedview
		pagecolor="#505050"
		bordercolor="#eeeeee"
		borderopacity="1"
		inkscape:showpageshadow="0"
		inkscape:pageopacity="0"
		inkscape:pagecheckerboard="0"
		inkscape:deskcolor="#505050"
		inkscape:document-units="px"
		showgrid="true"
		showguides="true"
		>
		<inkscape:grid type="xygrid" empspacing="16" />
		<sodipodi:guide position="0,0" orientation="256,0" />
		<sodipodi:guide position="128,0" orientation="256,0" />
		<sodipodi:guide position="256,0" orientation="256,0" />
		<sodipodi:guide position="0,0" orientation="0,256" />
		<sodipodi:guide position="0,128" orientation="0,256" />
		<sodipodi:guide position="0,256" orientation="0,256" />
	</sodipodi:namedview>
	<g inkscape:groupmode="layer" style="display:none">
		<text xml:space="preserve" style="font-style:normal;font-variant:normal;font-weight:bold;font-stretch:normal;font-size:77.2939px;font-family:'源柔ゴシック';-inkscape-font-specification:'源柔ゴシック, Bold';font-variant-ligatures:normal;font-variant-caps:normal;font-variant-numeric:normal;font-variant-east-asian:normal;text-align:center;text-anchor:middle;fill:#e5e5e5;fill-opacity:1;stroke:#1a1a1a;stroke-width:2;stroke-dasharray:none;stroke-opacity:1" x="129.3351" y="115.894" transform="scale(1.0088119,0.99126508)"><tspan sodipodi:role="line" x="129.3351" y="115.894" style="stroke-width:2;stroke-dasharray:none">わから</tspan></text>
		<text xml:space="preserve" style="font-style:normal;font-variant:normal;font-weight:bold;font-stretch:normal;font-size:77.2939px;font-family:'源柔ゴシック';-inkscape-font-specification:'源柔ゴシック, Bold';font-variant-ligatures:normal;font-variant-caps:normal;font-variant-numeric:normal;font-variant-east-asian:normal;text-align:center;text-anchor:middle;fill:#e5e5e5;fill-opacity:1;stroke:#1a1a1a;stroke-width:2;stroke-dasharray:none;stroke-opacity:1" x="125.94678" y="200.48015" transform="scale(1.0088119,0.99126508)"><tspan sodipodi:role="line" x="125.94678" y="200.48015" style="stroke-width:2;stroke-dasharray:none">ない</tspan></text>
	</g>
	<g inkscape:label="Outline" inkscape:groupmode="layer">
		<g aria-label="わから" transform="scale(1.0088119,0.99126508)" style="font-weight:bold;font-size:77.2939px;font-family:'源柔ゴシック';-inkscape-font-specification:'源柔ゴシック, Bold';text-align:center;text-anchor:middle;fill:#e5e5e5;stroke:#1a1a1a;stroke-width:2">
			<path d="m 43.813625,64.188605 q -0.07548,0.528377 0.30193,0.981271 1.132235,1.434164 1.132235,3.396704 0,1.736094 -0.981271,3.170258 -0.528376,0.754823 -1.283199,1.96254 -0.301929,0.452894 -0.377412,1.056753 0,0.150964 0,0.528376 0,0.377412 0,0.528376 0,0.150965 0.07548,0.30193 0.150964,0.07548 0.301929,-0.07548 10.416561,-7.623714 22.040838,-7.623714 8.982397,0 15.020983,5.812138 6.114068,5.736657 6.114068,14.870018 0,21.059568 -24.380791,27.475568 -0.67934,0.22645 -1.358681,0.22645 -1.132235,0 -2.26447,-0.52838 -1.811576,-0.90579 -2.641881,-2.64188 l -0.679341,-1.2832 q -0.30193,-0.75483 -0.30193,-1.50965 0,-0.75482 0.377412,-1.50964 0.754823,-1.43417 2.339952,-1.81158 18.644134,-4.30249 18.644134,-18.644135 0,-4.679904 -3.472187,-8.001126 -3.396704,-3.396705 -8.906914,-3.396705 -10.944937,0 -21.361498,9.435291 -0.377411,0.377411 -0.377411,0.98127 -0.150965,3.774116 -0.150965,5.736657 0,12.681028 0.452894,19.851848 0,0.52838 0.07548,1.43417 0.07548,0.22644 0.07548,0.45289 0,1.50965 -1.056753,2.71736 -1.207717,1.2832 -3.019293,1.2832 h -1.585129 q -1.811575,0 -3.019293,-1.2832 -1.207717,-1.28319 -1.207717,-3.01929 v -1.35868 q 0.07548,-3.01929 0.150965,-8.15209 0.07548,-5.20828 0.150965,-8.07661 0,-0.150964 -0.150965,-0.150964 -0.07548,-0.07548 -0.150965,0 -3.623151,5.434724 -6.793409,10.039144 -0.98127,1.35869 -2.641881,1.35869 -1.585129,0 -2.490917,-1.35869 l -0.905788,-1.20771 q -1.056752,-1.50965 -1.056752,-3.39671 0,-2.03802 1.283199,-3.698631 7.850162,-9.963667 13.284889,-17.964793 0.301929,-0.452894 0.377412,-0.98127 l 0.226447,-4.22701 q 0,-0.226447 -0.150965,-0.377412 -0.150965,-0.150965 -0.377412,-0.150965 -0.377411,0.07548 -8.906914,1.207718 -0.377411,0 -0.603858,0 -1.509647,0 -2.641882,-0.981271 -1.434164,-1.132235 -1.660611,-2.94381 l -0.07548,-0.905788 q 0,-0.226447 0,-0.452894 0,-1.509647 1.056752,-2.641881 1.207718,-1.2832 3.019293,-1.358682 0.981271,0 2.188988,-0.07548 3.170257,-0.226447 8.227573,-0.905788 0.528376,-0.07548 0.603859,-0.67934 0.301929,-4.981834 0.301929,-5.283763 0,-0.301929 0,-1.132235 0,-0.150965 0,-1.283199 0,-1.736094 1.132235,-3.019293 1.207717,-1.2832 2.868328,-1.2832 0.07548,0 0.07548,0 l 2.339952,0.07548 q 1.736094,0.07548 2.868329,1.434165 0.830305,1.056752 0.830305,2.415434 0,0.301929 0,0.679341 -0.452894,2.641881 -0.905788,5.963103 z" />
			<path d="m 114.91797,58.376466 q 0.15097,-1.811575 1.43417,-3.019292 1.20772,-1.056753 2.64188,-1.056753 0.22645,0 0.45289,0.07548 l 2.49092,0.226447 q 1.81158,0.226447 2.79285,1.660611 0.75482,1.056753 0.75482,2.26447 0,0.452894 -0.0755,0.905788 -0.22645,1.056753 -0.37741,1.96254 -0.0755,0.377412 -1.43417,7.321786 -0.0755,0.226447 0.0755,0.377411 0.15097,0.150965 0.37742,0.150965 4.45345,-0.301929 5.81213,-0.301929 13.81327,0 13.81327,14.643571 0,7.850161 -1.05675,15.624841 -0.98127,7.699196 -3.24574,12.303616 -1.81158,3.77412 -4.90635,5.35925 -3.09478,1.66061 -7.6992,1.66061 -2.18899,0 -4.75539,-0.30193 -1.96254,-0.30193 -3.3967,-1.73609 -1.35868,-1.43417 -1.66061,-3.47219 l -0.22645,-1.2832 q -0.0755,-0.30193 -0.0755,-0.60386 0,-1.13223 0.90579,-2.03802 0.90578,-0.83031 2.1135,-0.83031 0.30193,0 0.60386,0.0755 3.32122,0.60386 5.05732,0.60386 4.22701,0 5.73665,-3.32122 1.50965,-3.01929 2.33995,-8.906913 0.83031,-5.887621 0.83031,-12.077172 0,-4.22701 -1.73609,-5.585692 -1.7361,-1.358682 -5.81214,-1.358682 -0.98127,0 -4.67991,0.30193 -0.52837,0 -0.67934,0.603858 -5.81214,22.569211 -13.2094,36.457961 -0.90579,1.66061 -2.71737,2.26447 -0.8303,0.30193 -1.66061,0.30193 -0.98127,0 -1.96254,-0.37741 l -1.811576,-0.67934 q -1.509646,-0.67934 -2.038022,-2.26447 -0.150965,-0.60386 -0.150965,-1.13224 0,-1.05675 0.603859,-1.96254 7.548234,-12.077169 12.756514,-31.551608 0.0755,-0.226447 -0.0755,-0.377412 -0.0755,-0.150964 -0.30193,-0.150964 -3.92508,0.452893 -6.03859,0.830305 -1.50965,0.150965 -4.07604,0.528376 -0.30193,0 -0.60386,0 -1.434168,0 -2.566402,-0.905788 -1.434165,-1.132234 -1.585129,-2.94381 l -0.150965,-1.434164 q -0.150964,-1.736094 1.056753,-3.019293 1.283199,-1.2832 3.019293,-1.358682 0.75482,0 2.03802,0 1.2832,-0.07548 1.66061,-0.07548 3.39671,-0.07548 9.35981,-0.603859 0.52838,0 0.60386,-0.603859 1.13224,-6.114068 1.43416,-11.171384 z m 31.1742,11.397831 q -0.60385,-0.98127 -0.60385,-2.038022 0,-0.528377 0.15096,-1.056753 0.45289,-1.660611 2.03802,-2.26447 l 1.05676,-0.452894 q 0.98127,-0.452894 2.03802,-0.452894 0.8303,0 1.58513,0.30193 1.88706,0.528376 2.86833,2.188987 5.05731,8.831432 9.51077,20.45571 0.30193,0.905788 0.30193,1.736093 0,0.905788 -0.37741,1.811576 -0.75483,1.811576 -2.49092,2.566399 l -1.58513,0.754823 q -0.83031,0.377412 -1.58513,0.377412 -0.75482,0 -1.58513,-0.377412 -1.50964,-0.679341 -2.03802,-2.339952 -3.77412,-12.379101 -9.28433,-21.210533 z" />
			<path d="m 195.83503,64.188605 q -1.81158,-0.377411 -2.71737,-1.96254 -0.67934,-1.056753 -0.67934,-2.188987 0,-0.528377 0.15097,-1.132235 l 0.22644,-0.679341 q 0.4529,-1.811576 2.03803,-2.717364 1.05675,-0.603858 2.26447,-0.603858 0.52837,0 1.13223,0.150964 9.66174,2.339952 21.88987,4.22701 1.81158,0.226447 2.79285,1.736094 0.67934,0.98127 0.67934,2.188987 0,0.452894 -0.15096,0.98127 l -0.15097,0.754824 q -0.45289,1.887058 -2.03802,2.94381 -1.20772,0.830306 -2.5664,0.830306 -0.45289,0 -0.83031,-0.07548 -10.26559,-1.736094 -22.04083,-4.453458 z m -12.07718,8.152091 q 0.15097,-1.811575 1.50965,-2.94381 1.20772,-0.98127 2.5664,-0.98127 0.30193,0 0.60386,0.07548 l 1.58513,0.226447 q 1.73609,0.226447 2.79284,1.660611 0.83031,1.132235 0.83031,2.490917 0,0.377411 -0.0755,0.754823 -1.05676,5.963103 -1.96254,12.98296 0,0.150964 0.15096,0.226447 0.15096,0.07548 0.22645,0 9.88818,-6.944374 22.04084,-6.944374 9.73722,0 15.47387,5.132798 5.81214,5.132798 5.81214,12.379101 0,4.151532 -1.2832,7.623712 -1.20772,3.39671 -4.07604,6.416 -2.86833,2.94381 -7.24631,4.83087 -4.37797,1.96254 -10.94493,2.94381 -4.52894,0.60386 -9.88819,0.60386 -2.41543,0 -5.05731,-0.15097 -1.96254,-0.0755 -3.54767,-1.35868 -1.50965,-1.2832 -2.11351,-3.24574 l -0.45289,-1.43416 q -0.15097,-0.4529 -0.15097,-0.90579 0,-0.98127 0.75483,-1.81158 0.90578,-1.05675 2.26447,-1.05675 0.15096,0 0.30193,0 4.22701,0.37741 7.92564,0.37741 9.05788,0 14.79453,-2.49091 8.00113,-3.54767 8.00113,-10.567529 0,-3.698634 -3.24574,-6.114068 -3.17026,-2.415435 -8.22757,-2.415435 -6.49148,0 -12.00169,2.339952 -5.51021,2.26447 -9.13336,6.566963 -0.30193,0.377411 -0.52838,0.67934 -1.2832,1.660612 -3.01929,2.415437 -1.13224,0.52837 -2.26447,0.52837 -0.67934,0 -1.35868,-0.22644 l -0.22645,-0.0755 q -1.81158,-0.45289 -2.79285,-2.038018 -0.8303,-1.207717 -0.8303,-2.566399 0,-0.452894 0.0755,-0.830306 1.81158,-11.473313 2.71736,-23.097591 z" />
		</g>
		<g aria-label="ない" transform="scale(1.0088119,0.99126508)" style="font-weight:bold;font-size:77.2939px;font-family:'源柔ゴシック';-inkscape-font-specification:'源柔ゴシック, Bold';text-align:center;text-anchor:middle;fill:#e5e5e5;stroke:#1a1a1a;stroke-width:2">
			<path d="m 117.87017,155.87009 q 1.58513,0.90579 1.96254,2.79285 0.0755,0.45289 0.0755,0.90579 0,1.2832 -0.75482,2.41543 l -0.4529,0.67934 q -0.98127,1.50965 -2.79284,1.81158 -0.4529,0.0755 -0.83031,0.0755 -1.35868,0 -2.49091,-0.75482 -4.90636,-3.32122 -10.79398,-6.34052 -1.50964,-0.8303 -2.038019,-2.49091 -0.150965,-0.60386 -0.150965,-1.13224 0,-1.05675 0.679344,-2.03802 l 0.0755,-0.15097 q 1.05675,-1.58512 2.86833,-2.1135 0.67934,-0.22645 1.43416,-0.22645 1.05675,0 2.11351,0.52838 5.9631,2.94381 11.0959,6.03858 z M 88.507545,147.718 q 0.452894,-0.15096 0.905788,-0.15096 1.132234,0 2.113505,0.75482 1.358682,0.98127 1.358682,2.79285 0,1.88706 -1.132235,3.3967 -1.132235,1.50965 -3.019293,1.96254 -4.22701,0.90579 -8.454021,1.50965 -0.528376,0.0755 -0.754823,0.60386 -2.339952,6.94437 -6.038586,14.64357 -3.698634,7.62371 -7.699197,13.88875 -0.98127,1.58513 -2.868328,2.1135 -0.679341,0.15097 -1.2832,0.15097 -1.207717,0 -2.264469,-0.60386 l -1.434164,-0.67934 q -1.509647,-0.75483 -1.887058,-2.41544 -0.07548,-0.45289 -0.07548,-0.90579 0,-1.20771 0.754823,-2.18898 7.321786,-10.19012 12.681031,-23.02211 0.07548,-0.15097 -0.07548,-0.30193 -0.07548,-0.22645 -0.30193,-0.15097 -1.132235,0 -3.396704,0 -2.566399,0 -5.132798,-0.0755 -1.887058,0 -3.24574,-1.35868 -1.358682,-1.35868 -1.509647,-3.24574 v -0.0755 q -0.150964,-1.73609 1.056753,-2.94381 1.207717,-1.13224 2.717363,-1.13224 0.150965,0 0.30193,0 3.019293,0.15097 5.736656,0.15097 3.170258,0 6.340516,-0.15097 0.528376,-0.0755 0.67934,-0.60386 1.056753,-4.15152 1.585129,-7.85016 0.226447,-1.81157 1.585129,-2.94381 1.207717,-1.05675 2.717364,-1.05675 0.301929,0 0.528376,0 l 1.736093,0.22645 q 1.736094,0.15096 2.717364,1.58513 0.754823,1.05675 0.754823,2.18898 0,0.4529 -0.150964,0.98127 -0.754824,3.17026 -1.434164,5.58569 0,0.15097 0.07548,0.30193 0.150964,0.15097 0.377411,0.15097 2.717364,-0.52838 5.434728,-1.13224 z m 6.114068,41.36432 v -0.83031 q 0,-0.60386 -0.528376,-0.75482 -3.019293,-0.60386 -5.661175,-0.60386 -3.245739,0 -5.283762,1.2832 -1.962541,1.20772 -1.962541,3.24574 0,2.18899 1.736094,3.54767 1.736093,1.2832 4.830869,1.2832 6.868891,0 6.868891,-7.17082 z m -0.98127,-22.56922 q 0,-1.66061 1.132235,-2.86833 1.283199,-1.35868 3.094775,-1.35868 h 0.754823 q 1.811574,0 3.019294,1.35868 1.2832,1.2832 1.2832,3.09478 0,0.15096 0.15096,5.35924 0.15097,4.67991 0.4529,9.13337 0,0.52837 0.52837,0.75482 6.18955,2.41543 11.85073,6.79341 1.58513,1.13223 1.88706,3.01929 0,0.4529 0,0.90579 0,1.43416 -0.75483,2.64188 l -0.37741,0.67934 q -0.98127,1.43417 -2.64188,1.66061 -0.30193,0.0755 -0.60386,0.0755 -1.35868,0 -2.49092,-0.90578 -3.3967,-2.94381 -6.49147,-4.90635 -0.22645,-0.0755 -0.37742,0 -0.15096,0.0755 -0.15096,0.30193 v 0.0755 q 0,5.81214 -3.54767,9.20884 -3.472187,3.47219 -11.171384,3.47219 -7.47275,0 -12.303619,-3.32122 -4.755387,-3.24574 -4.755387,-9.35981 0,-5.73666 4.52894,-9.51078 4.604422,-3.77411 12.454583,-3.77411 1.811576,0 4.604422,0.30193 0.528376,0 0.528376,-0.52838 z" />
			<path d="m 134.92917,149.4541 q 0,-1.58513 1.05676,-2.79285 1.13223,-1.2832 2.86832,-1.2832 0,0 0.0755,0 h 2.79284 q 1.7361,0 2.86833,1.35868 0.98127,1.13224 0.98127,2.64189 0,0.22644 0,0.45289 -0.30193,3.01929 -0.30193,4.90635 0,1.73609 0,3.32122 0,7.09534 0.4529,12.90748 1.81157,18.56865 8.22757,18.56865 3.54767,0 6.86889,-10.71849 0.45289,-1.35868 1.81158,-1.66061 0.30193,-0.0755 0.60386,-0.0755 0.98127,0 1.66061,0.8303 l 2.03802,2.41544 q 1.2832,1.66061 1.66061,3.62315 0.0755,0.60386 0.0755,1.13223 0,1.43417 -0.60386,2.79285 -3.24574,7.47275 -6.71792,10.71849 -3.39671,3.17026 -7.62372,3.17026 -6.79341,0 -11.62428,-6.71793 -4.75538,-6.79341 -6.26503,-21.3615 -0.8303,-8.60498 -0.8303,-20.68215 z m 42.49655,4.37797 q -0.60386,-0.8303 -0.60386,-1.81157 0,-0.52838 0.15097,-1.05676 0.45289,-1.58512 1.96254,-2.03802 l 1.2832,-0.45289 q 0.98127,-0.30193 1.96254,-0.30193 0.90579,0 1.88706,0.22644 1.88705,0.60386 2.94381,2.33996 3.8496,6.03858 6.79341,14.64357 2.94381,8.60498 4.15152,16.37966 0.0755,0.4529 0.0755,0.83031 0,1.43416 -0.83031,2.79284 -1.05675,1.66061 -2.94381,2.41544 l -1.81158,0.67934 q -0.60385,0.22645 -1.20771,0.22645 -0.90579,0 -1.7361,-0.52838 -1.43416,-0.90579 -1.66061,-2.5664 -1.20771,-8.75595 -3.8496,-17.20997 -2.64188,-8.5295 -6.56696,-14.56809 z" />
		</g>
	</g>
</svg>
