<?xml version="1.0" encoding="UTF-8" standalone="no"?>
<svg
	xmlns="http://www.w3.org/2000/svg"
	xmlns:cc="http://creativecommons.org/ns#"
	xmlns:dc="http://purl.org/dc/elements/1.1/"
	xmlns:inkscape="http://www.inkscape.org/namespaces/inkscape"
	xmlns:rdf="http://www.w3.org/1999/02/22-rdf-syntax-ns#"
	xmlns:sodipodi="http://sodipodi.sourceforge.net/DTD/sodipodi-0.dtd"
	xmlns:svg="http://www.w3.org/2000/svg"
	width="108"
	height="32"
	viewBox="0 0 108 32"
	version="1.1"
	inkscape:version="1.3 (0e150ed6c4, 2023-07-21)"
	aria-label="完全にこれ"
	>
	<title>completely_this_ja</title>
	<metadata>
		<rdf:RDF>
			<cc:License rdf:about="http://creativecommons.org/publicdomain/zero/1.0/">
				<cc:permits rdf:resource="http://creativecommons.org/ns#Reproduction" />
				<cc:permits rdf:resource="http://creativecommons.org/ns#Distribution" />
				<cc:permits rdf:resource="http://creativecommons.org/ns#DerivativeWorks" />
			</cc:License>
			<cc:Work rdf:about="">
				<cc:license rdf:resource="http://creativecommons.org/publicdomain/zero/1.0/" />
				<dc:title>completely_this_ja</dc:title>
				<dc:creator>
					<cc:Agent>
						<dc:title>zawa-ch.</dc:title>
					</cc:Agent>
				</dc:creator>
			</cc:Work>
		</rdf:RDF>
	</metadata>
	<style>
		.typography {
			font-family: 'Dela Gothic One';
			font-style: normal;
			font-variant: normal;
			font-weight: normal;
			font-stretch: normal;
			line-height: 1.05;
			text-anchor: start;
			-inkscape-font-specification: 'Dela Gothic One, Normal';
		}
		.bg {
			fill: white;
			fill-opacity: 1;
			stroke: none;
		}
		.fg {
			fill: black;
			fill-opacity: 1;
			stroke: none;
		}
	</style>
	<sodipodi:namedview
		pagecolor="#505050"
		bordercolor="#eeeeee"
		borderopacity="1"
		inkscape:showpageshadow="0"
		inkscape:pageopacity="0"
		inkscape:pagecheckerboard="0"
		inkscape:deskcolor="#505050"
		inkscape:document-units="px"
		showgrid="false"
		showguides="false"
		>
		<inkscape:grid type="xygrid" empspacing="8" />
		<sodipodi:guide position="0,0" orientation="32,0" />
		<sodipodi:guide position="54,0" orientation="32,0" />
		<sodipodi:guide position="108,0" orientation="32,0" />
		<sodipodi:guide position="0,0" orientation="0,108" />
		<sodipodi:guide position="0,16" orientation="0,108" />
		<sodipodi:guide position="0,32" orientation="0,108" />
	</sodipodi:namedview>
	<g inkscape:groupmode="layer">
		<rect x="0" y="0" width="108" height="32" class="bg" />
	</g>
	<g inkscape:groupmode="layer" display="none">
		<text xml:space="preserve" x="2.7773895" y="23.795412" class="typography fg" style="font-size:20.4604px"><tspan sodipodi:role="line" x="2.7773895" y="23.795412" class="fg">完全にこれ</tspan></text>
	</g>
	<g inkscape:groupmode="layer">
		<path
			d="M 20.577937,14.854217 H 5.4167811 V 13.647054 H 3.6776471 V 8.9002411 H 10.306817 V 8.1636667 h 5.422005 v 0.7365744 h 6.62917 v 4.7468129 h -1.780055 z m -3.048599,-2.680312 v -0.49105 H 8.485841 v 0.49105 z m 5.053718,6.813313 q 0,1.616372 -0.06138,2.373407 -0.04092,0.757034 -0.306906,1.227623 -0.245525,0.47059 -0.654733,0.695654 -0.409208,0.204604 -0.797955,0.265985 -0.368287,0.04092 -1.104862,0.102302 -1.02302,0.04092 -1.698213,0.04092 L 16.199412,23.67265 Q 15.994808,23.652189 15.5856,23.652189 14.296595,23.611268 13.744164,23.20206 13.191733,22.792852 13.191733,21.872134 V 19.375966 Q 11.739045,21.012798 10.081752,22.15858 8.4449202,23.304362 6.4602615,24.000016 5.4577019,23.099758 4.5983651,22.465486 3.7390283,21.810753 2.4704835,21.074179 4.4960631,20.521748 5.8669099,19.948857 7.2377566,19.355505 8.3016974,18.475708 H 3.5344243 V 15.242965 H 22.501215 v 3.232743 H 17.63164 v 1.53453 q 0,0.04092 0.102302,0.08184 0.122762,0.02046 0.265985,0.02046 0.204604,0 0.347827,-0.04092 0.143222,-0.06138 0.143222,-0.184143 0,-0.777495 -0.122762,-1.227624 1.063941,0.143223 3.294124,0.265985 z m -9.391323,-0.51151 h -2.127882 l 2.127882,0.838877 z M 41.938594,16.02046 h -6.15858 v 0.531971 h 5.872135 v 3.06906 h -5.872135 v 0.470589 h 7.038378 v 3.62149 H 24.117586 v -3.62149 h 7.038378 v -0.470589 h -5.872135 v -3.06906 h 5.872135 V 16.02046 h -6.15858 v -1.55499 q -0.327367,0.04092 -1.063941,0.08184 -0.02046,-0.920718 -0.163683,-2.189262 -0.122763,-1.268545 -0.286446,-2.127882 l 0.634272,0.02046 q 1.207164,0 2.578011,-0.163684 1.391307,-0.1636829 2.434787,-0.5115097 0.941179,-0.306906 1.350387,-0.6342724 0.409208,-0.3273664 0.491049,-0.9002575 h 5.053719 q -0.163683,0.5524307 -0.388748,1.0025595 3.641951,1.2685451 7.918175,1.1867031 -0.184144,0.900258 -0.368287,2.127882 -0.163683,1.227624 -0.245525,2.189262 -0.716114,-0.08184 -1.00256,-0.143222 z m -8.777511,-4.62405 q -1.207164,0.859337 -2.598471,1.493609 h 5.728912 Q 34.450088,12.153445 33.161083,11.39641 Z M 51.800507,9.5140531 q 4.173922,-0.7979556 8.245541,-0.7979556 1.227624,0 2.762154,0.102302 0,1.4526885 0.04092,2.5166295 0.04092,1.04348 0.204604,2.107421 -2.352946,-0.286446 -4.317144,-0.286446 -3.150902,0 -6.690551,0.736575 z M 45.2941,23.652189 q -0.368287,-1.759594 -0.552431,-3.314584 -0.163683,-1.575451 -0.163683,-3.53965 0,-3.212282 0.51151,-7.8158723 h 5.217402 q -0.613812,5.1151003 -0.613812,7.9795563 0,1.882356 0.225064,3.355505 0.245525,1.452689 0.736575,2.905377 z m 12.071636,-0.08184 q -3.314585,0 -4.828655,-1.289006 -1.514069,-1.289005 -1.514069,-3.948857 0,-0.757034 0.122762,-1.616371 2.393867,-0.204604 4.296684,-1.207164 -0.102302,0.879797 -0.102302,1.350387 0,0.797955 0.204604,1.207163 0.225065,0.409208 0.654733,0.552431 0.429668,0.143223 1.166243,0.143223 1.820975,0 3.232743,-0.102302 1.432228,-0.122763 3.335045,-0.572891 -0.204604,0.757034 -0.327366,2.189262 -0.102302,1.411768 -0.102302,2.925837 -1.677753,0.225065 -3.06906,0.306906 -1.391307,0.06138 -3.06906,0.06138 z m 8.73659,-9.104878 q 0.143223,-1.595911 0.143223,-3.253204 l -0.02046,-1.6368317 q 4.828654,-0.6751932 9.20718,-0.6751932 3.969317,0 7.508966,0.5319704 0.04092,2.2711045 0.122763,4.7672735 -4.235303,-0.552431 -7.938635,-0.552431 -4.317145,0 -9.023037,0.818416 z m 8.368304,9.125338 q -4.58313,0 -6.895155,-1.391307 -2.312025,-1.411768 -2.312025,-4.276224 0,-0.51151 0.06138,-1.02302 2.373407,-0.225064 4.951417,-0.757034 -0.04092,0.184143 -0.04092,0.51151 0,1.186703 1.084401,1.636832 1.084401,0.429668 3.150902,0.429668 1.861896,0 3.887476,-0.184144 2.025579,-0.184143 4.951416,-0.654732 -0.654732,1.677752 -0.818416,2.782614 -0.163683,1.104862 -0.163683,2.57801 -3.826094,0.347827 -7.856793,0.347827 z m 28.43996,-5.360625 q 0,0.429669 0.2046,0.613812 0.22506,0.163684 0.83888,0.163684 0.59335,0 1.57545,-0.143223 -0.51151,0.838876 -0.83888,1.820975 -0.30691,0.9821 -0.59335,2.291565 l -0.16368,0.716114 q -2.33249,-0.06138 -3.6215,-0.368287 -1.289001,-0.306906 -1.841431,-0.961639 -0.552431,-0.675193 -0.552431,-1.882357 0,-0.654732 0.245525,-2.741693 0.286445,-2.250644 0.286445,-3.109981 0,-0.593352 -0.102302,-0.797956 -0.08184,-0.204604 -0.470589,-0.204604 -1.350386,0 -3.989778,2.148342 -0.02046,0.859337 -0.02046,2.598471 0,2.455248 0.102302,5.524308 h -4.951417 q -0.04092,-1.186703 -0.08184,-3.478268 -1.166242,1.227624 -2.639391,2.864456 -0.838877,-2.987218 -2.209723,-4.849115 l 4.521748,-3.662411 h -2.823535 v -4.60359 h 3.355505 l 0.08184,-2.1688024 h 5.156021 q -0.102302,1.0025595 -0.265986,2.7826144 2.843996,-1.5345301 5.258323,-1.5345301 1.984654,0 2.987214,0.9820991 1.02302,0.982099 1.02302,2.639392 0,0.879797 -0.28644,3.253203 -0.18414,1.657293 -0.18414,2.107421 z"
			class="typography fg"
			style="font-size:20.4604px"
			aria-label="完全にこれ"
		/>
	</g>
</svg>
