<?xml version="1.0" encoding="UTF-8" standalone="no"?>
<svg
	xmlns="http://www.w3.org/2000/svg"
	xmlns:cc="http://creativecommons.org/ns#"
	xmlns:dc="http://purl.org/dc/elements/1.1/"
	xmlns:inkscape="http://www.inkscape.org/namespaces/inkscape"
	xmlns:rdf="http://www.w3.org/1999/02/22-rdf-syntax-ns#"
	xmlns:sodipodi="http://sodipodi.sourceforge.net/DTD/sodipodi-0.dtd"
	xmlns:svg="http://www.w3.org/2000/svg"
	width="256"
	height="256"
	viewBox="0 0 256 256"
	version="1.1"
	inkscape:version="1.2.2 (b0a8486541, 2022-12-01)"
	>
	<title>yes</title>
	<metadata>
		<rdf:RDF>
			<cc:License rdf:about="http://creativecommons.org/publicdomain/zero/1.0/">
				<cc:permits rdf:resource="http://creativecommons.org/ns#Reproduction" />
				<cc:permits rdf:resource="http://creativecommons.org/ns#Distribution" />
				<cc:permits rdf:resource="http://creativecommons.org/ns#DerivativeWorks" />
			</cc:License>
			<cc:Work rdf:about="">
				<cc:license rdf:resource="http://creativecommons.org/publicdomain/zero/1.0/" />
				<dc:title>yes</dc:title>
				<dc:creator>
					<cc:Agent>
						<dc:title>zawa-ch.</dc:title>
					</cc:Agent>
				</dc:creator>
			</cc:Work>
		</rdf:RDF>
	</metadata>
	<sodipodi:namedview
		pagecolor="#505050"
		bordercolor="#eeeeee"
		borderopacity="1"
		inkscape:showpageshadow="0"
		inkscape:pageopacity="0"
		inkscape:pagecheckerboard="0"
		inkscape:deskcolor="#505050"
		inkscape:document-units="px"
		showgrid="false"
		>
		<sodipodi:guide position="0,256" orientation="0,256" />
		<sodipodi:guide position="256,0" orientation="0,256" />
		<sodipodi:guide position="0,256" orientation="256,0" />
		<sodipodi:guide position="256,0" orientation="256,0" />
		<sodipodi:guide position="0,230.4" orientation="0,256" />
		<sodipodi:guide position="0,25.6" orientation="0,256" />
		<sodipodi:guide position="25.6,0" orientation="256,0" />
		<sodipodi:guide position="230.4,0" orientation="256,0" />
		<sodipodi:guide position="0,128" orientation="0,204.8" />
		<sodipodi:guide position="128,0" orientation="204.8,0" />
	</sodipodi:namedview>
	<g inkscape:groupmode="layer" style="display:none">
		<text xml:space="preserve" style="font-style:normal;font-variant:normal;font-weight:normal;font-stretch:normal;font-size:96px;font-family:'IBM 3270';-inkscape-font-specification:'IBM 3270, Normal';font-variant-ligatures:normal;font-variant-caps:normal;font-variant-numeric:normal;font-variant-east-asian:normal;text-align:center;text-anchor:middle;fill:#177ee5;fill-opacity:1;stroke-width:1.5" x="129.61719" y="165.54688"><tspan sodipodi:role="line" x="129.61719" y="165.54688">Yes</tspan></text>
	</g>
	<g inkscape:groupmode="layer" inkscape:label="Outline">
		<g aria-label="Yes" style="font-size:96px;font-family:'IBM 3270';-inkscape-font-specification:'IBM 3270, Normal';text-align:center;text-anchor:middle;fill:#177ee5;stroke-width:1.5">
			<path d="m 80.465056,129.93088 16.32,-16.8 c 0.576,-0.57601 0.768,-1.34401 0.768,-2.11201 v -2.78399 h -5.76 v 1.824 l -14.112,14.592 -14.304,-14.592 v -1.824 h -5.76 v 2.97599 c 0,0.768 0.288,1.44001 0.864,2.016 l 16.128,16.70401 v 30.81599 h 5.856 z" />
			<path d="m 114.83314,143.37087 h 29.184 v -14.592 c 0,-0.48 -0.192,-1.248 -0.864,-1.92 l -5.664,-5.95199 c -0.288,-0.288 -1.056,-1.056 -2.016,-1.056 h -17.376 c -0.48,0 -1.44,0.38399 -2.112,1.056 l -5.856,6.048 c -0.288,0.28799 -0.96,0.95999 -0.96,1.91999 v 23.232 c 0,0.48 0.096,1.344 0.768,2.016 l 5.952,5.76001 c 0.288,0.28799 1.056,0.76799 1.92,0.76799 h 26.4 v -5.376 h -25.248 l -4.128,-4.31999 z m 0.096,-5.95199 v -7.392 l 4.224,-4.32001 h 15.168 l 4.128,4.22401 v 7.488 z" />
			<path d="m 190.00123,129.83487 v 1.824 h 5.76 v -3.072 c 0,-0.768 -0.288,-1.44 -0.864,-2.01599 l -5.952,-5.856 c -0.576,-0.576 -1.248,-0.864 -2.016,-0.864 h -17.184 c -0.864,0 -1.536,0.288 -2.112,0.864 l -5.76,6.04799 c -0.48,0.48 -0.768,1.152 -0.768,1.872 v 0.336 c 0.096,0.864 0.384,1.632 1.056,2.112 l 26.688,21.12 -2.88,2.88 h -14.976 l -4.224,-4.224 v -1.43999 h -5.76 v 2.68799 c 0,0.864 0.288,1.536 0.864,2.112 l 5.952,5.76 c 0.576,0.576 1.248,0.864 2.016,0.864 h 17.28 c 0.768,0 1.44,-0.288 2.016,-0.864 l 6.048,-5.952 c 0.576,-0.576 0.864,-1.344 0.864,-2.208 0,-0.86399 -0.384,-1.536 -1.056,-2.112 l -26.784,-21.21599 2.784,-2.88001 h 14.784 z" />
		</g>
	</g>
</svg>
