<?xml version="1.0" encoding="UTF-8" standalone="no"?>
<!-- Created with Inkscape (http://www.inkscape.org/) -->
<svg
	xmlns="http://www.w3.org/2000/svg"
	xmlns:cc="http://creativecommons.org/ns#"
	xmlns:dc="http://purl.org/dc/elements/1.1/"
	xmlns:inkscape="http://www.inkscape.org/namespaces/inkscape"
	xmlns:rdf="http://www.w3.org/1999/02/22-rdf-syntax-ns#"
	xmlns:sodipodi="http://sodipodi.sourceforge.net/DTD/sodipodi-0.dtd"
	xmlns:svg="http://www.w3.org/2000/svg"
	xmlns:xlink="http://www.w3.org/1999/xlink"
	width="80"
	height="48"
	viewBox="0 0 80 48"
	version="1.1"
	xml:space="preserve"
	inkscape:version="1.3 (0e150ed6c4, 2023-07-21)"
	>
	<title>ベッド「おいで」</title>
	<metadata>
		<rdf:RDF>
			<cc:Work rdf:about="">
				<cc:license rdf:resource="http://creativecommons.org/licenses/by/4.0/" />
				<dc:title>ベッド「おいで」</dc:title>
				<dc:date>2023-10-19</dc:date>
				<dc:creator><cc:Agent><dc:title>zawa-ch.</dc:title></cc:Agent></dc:creator>
				<dc:rights><cc:Agent><dc:title>Copyright 2023 zawa-ch.</dc:title></cc:Agent></dc:rights>
				<dc:identifier>stellar_ch-handwrittenwelcomingbed</dc:identifier>
				<dc:language>ja_JP</dc:language>
			</cc:Work>
			<cc:License rdf:about="http://creativecommons.org/licenses/by/4.0/">
				<cc:permits rdf:resource="http://creativecommons.org/ns#Reproduction" />
				<cc:permits rdf:resource="http://creativecommons.org/ns#Distribution" />
				<cc:permits rdf:resource="http://creativecommons.org/ns#DerivativeWorks" />
				<cc:requires rdf:resource="http://creativecommons.org/ns#Notice" />
				<cc:requires rdf:resource="http://creativecommons.org/ns#Attribution" />
			</cc:License>
		</rdf:RDF>
	</metadata>
	<sodipodi:namedview
		pagecolor="#505050"
		bordercolor="#eeeeee"
		borderopacity="1"
		inkscape:showpageshadow="0"
		inkscape:pageopacity="0"
		inkscape:pagecheckerboard="0"
		inkscape:deskcolor="#d1d1d1"
		inkscape:document-units="px"
		showgrid="false"
		>
		<inkscape:grid units="px" originx="0" originy="0" spacingx="1" spacingy="1" empspacing="8" dotted="false" gridanglex="30" gridanglez="30" visible="false" />
	</sodipodi:namedview>
	<defs/>
	<g inkscape:groupmode="layer">
		<path
			d="m 31.054473,20.906699 c -1.338981,-1.20969 -1.484209,-1.260405 -2.075897,-0.724934 -0.783043,0.708644 -3.427002,1.66786 -4.597247,1.66786 -0.476121,0 -1.260834,-0.395159 -1.743807,-0.878132 -1.73456,-1.73456 -0.702183,-4.441234 2.003121,-5.251763 1.194044,-0.357745 1.411836,-0.573047 1.411836,-1.395694 0,-0.935164 -0.05962,-0.965978 -1.545129,-0.79854 -3.731504,0.420595 -3.674486,-3.371188 0.05967,-3.9683037 1.410613,-0.2255661 1.485457,-0.2999947 1.485457,-1.4772099 0,-2.5873626 3.306239,-3.0600482 3.809327,-0.544611 0.193227,0.9661372 0.352692,1.0772275 1.546307,1.0772275 0.834969,0 1.55148,0.2437791 1.922947,0.6542457 1.341137,1.4819404 0.228104,3.2810854 -2.029828,3.2810854 -1.284667,0 -1.313421,0.03007 -1.313421,1.373605 0,1.117739 0.166482,1.449459 0.893747,1.780823 0.49156,0.22397 1.618497,1.075269 2.504302,1.891776 1.860066,1.71455 2.14379,3.125911 0.815438,4.056326 -1.145361,0.802242 -1.538411,0.709344 -3.146825,-0.743761 z m 38.423039,-2.828182 c -0.759905,-1.159762 -0.22275,-2.543424 1.118025,-2.879937 1.801909,-0.452252 3.086384,1.901395 1.760982,3.226795 -0.857154,0.857155 -2.195775,0.695879 -2.879007,-0.346858 z M 39.45934,16.976331 c -1.065591,-1.149791 -1.396363,-2.760925 -1.142227,-5.563584 0.289319,-3.1906823 1.829913,-4.4469319 3.457492,-2.8193533 0.605365,0.6053657 0.668678,1.0259025 0.484748,3.2198163 -0.146918,1.752448 -0.08891,2.523509 0.189837,2.523509 0.220768,0 0.66511,0.402476 0.987428,0.894393 0.542868,0.82852 0.542868,0.960267 0,1.788787 -0.827118,1.26234 -2.7869,1.240872 -3.977278,-0.04357 z m 18.678702,0.233856 C 56.468499,16.887152 55.013568,15.85435 54.365883,14.532478 53.9228,13.628177 53.972636,13.360451 54.929348,11.505425 l 1.049535,-2.03501 -0.921219,0.1303797 C 53.245326,9.857294 52.01542,7.8759744 53.144328,6.5184973 53.639461,5.9231158 54.339914,5.705346 56.335821,5.5262694 c 2.833882,-0.2542614 4.08998,-0.053776 4.930753,0.7869971 0.930327,0.9303254 0.646368,2.1055437 -1.073111,4.4412905 -0.89912,1.221369 -1.563032,2.292405 -1.475356,2.380078 0.08767,0.08767 0.78307,0.255359 1.545326,0.372631 1.792336,0.275751 2.28031,0.687955 2.28031,1.926244 0,1.794089 -1.399297,2.35838 -4.405701,1.776677 z M 47.640959,16.672272 c -0.649963,-0.455253 -0.786534,-1.037667 -1.009137,-4.303533 -0.286392,-4.2017793 -0.07587,-4.8294126 1.619875,-4.8294126 1.264898,0 2.127545,0.8431452 2.130836,2.0826598 0.0014,0.5270528 0.103806,2.0303688 0.227584,3.3406988 0.210969,2.23347 0.16709,2.440368 -0.701799,3.309258 -1.075984,1.075985 -1.257078,1.107958 -2.267359,0.400329 z M 33.287232,15.568583 c -0.875968,-0.613551 -1.077405,-2.237505 -0.365809,-2.949101 0.65724,-0.65724 2.247925,-0.511001 2.956342,0.271791 0.832885,0.920328 0.492972,2.2667 -0.710727,2.815142 -1.124348,0.512286 -0.931438,0.526431 -1.879806,-0.137832 z M 62.981105,10.202221 C 62.05387,9.5527607 61.906924,7.8585398 62.719345,7.1842882 63.012696,6.9408314 63.713896,6.8093277 64.277576,6.892058 c 0.829457,0.1217384 0.994308,0.033558 0.864592,-0.4624738 -0.193486,-0.7398898 1.087572,-2.1100751 1.972821,-2.1100751 2.048066,0 3.030864,2.6760514 1.380043,3.7577111 C 67.837663,8.5079444 67.42954,8.5481975 66.66541,8.2576755 65.828397,7.9394445 65.714082,7.9676343 65.897999,8.4469156 66.027614,8.7846837 65.764086,9.3601112 65.239581,9.8846162 64.211326,10.91287 64.031754,10.938124 62.981105,10.202221 Z"
			style="fill:#6495ed;fill-opacity:1;stroke:none;"
		/>
		<path
			d="m 45.62101,29.440705 c -0.822377,-0.908718 -0.764228,-2.050721 0.147682,-2.900296 0.571735,-0.532651 1.418666,-0.742368 3.488136,-0.863733 1.503189,-0.08816 3.160039,-0.276602 3.68189,-0.418771 0.717807,-0.195553 1.131553,-0.07575 1.699347,0.492039 1.685557,1.685555 0.463925,3.440523 -2.618749,3.762048 -1.098397,0.114564 -2.850697,0.2964 -3.894004,0.40408 -1.560803,0.161092 -2.004543,0.07686 -2.504302,-0.475367 z M 13.864922,15.202431 c -0.329758,-0.397335 -0.475658,-1.912204 -0.491002,-5.098044 -0.02026,-4.2066183 0.03491,-4.5906395 0.766861,-5.337681 0.936234,-0.9555364 1.454193,-1.0018376 2.558044,-0.22867 0.797052,0.5582772 0.819102,0.7192326 0.705678,5.1510786 -0.09965,3.8938314 -0.218528,4.6867184 -0.798605,5.3267134 -0.807228,0.890609 -2.084534,0.977567 -2.740976,0.186603 z M 8.2232605,43.373726 C 7.6481896,42.798655 7.5368237,41.833745 7.3288669,35.624414 6.8081043,20.0751 7.027035,18.295057 9.4623907,18.277529 c 1.5165003,-0.01097 1.7400023,0.818669 1.6155033,5.996346 -0.109927,4.571644 -0.08066,4.818611 0.542363,4.577154 1.090964,-0.422809 12.615699,-1.626474 15.684373,-1.638105 1.574133,-0.0059 4.471969,-0.244099 6.439635,-0.529184 5.461979,-0.791357 7.446401,-0.71762 8.655672,0.321629 l 1.003782,0.862654 0.178878,5.825311 c 0.200241,6.520903 0.03811,7.238514 -1.673139,7.405859 -1.535138,0.150119 -2.262195,-0.947693 -2.262195,-3.415781 0,-1.880895 -0.0072,-1.893285 -0.983833,-1.679303 -0.541108,0.118569 -1.219828,0.290911 -1.508263,0.382983 -2.817678,0.899453 -8.605406,1.549974 -15.574656,1.750547 -4.328866,0.124582 -8.412169,0.393041 -9.074007,0.59658 -1.198095,0.368459 -1.202338,0.377645 -0.972954,2.106827 0.193391,1.457855 0.113739,1.853402 -0.496006,2.463146 -0.902499,0.9025 -1.9553056,0.928513 -2.8142835,0.06953 z m 6.4340025,-9.002589 c 2.124627,0 2.14018,-0.0076 2.027846,-0.983833 -0.09566,-0.831318 -0.30279,-1.001909 -1.336173,-1.100434 -1.645828,-0.156917 -3.964513,0.907014 -3.964513,1.81912 0,0.490831 0.168789,0.634686 0.565896,0.482302 0.311243,-0.119435 1.529368,-0.217155 2.706944,-0.217155 z"
			style="fill:#191970;fill-opacity:1;stroke:none;"
		/>
	</g>
</svg>
