<?xml version="1.0" encoding="UTF-8" standalone="no"?>
<!-- Created with Inkscape (http://www.inkscape.org/) -->
<svg
	xmlns="http://www.w3.org/2000/svg"
	xmlns:cc="http://creativecommons.org/ns#"
	xmlns:dc="http://purl.org/dc/elements/1.1/"
	xmlns:inkscape="http://www.inkscape.org/namespaces/inkscape"
	xmlns:rdf="http://www.w3.org/1999/02/22-rdf-syntax-ns#"
	xmlns:sodipodi="http://sodipodi.sourceforge.net/DTD/sodipodi-0.dtd"
	xmlns:svg="http://www.w3.org/2000/svg"
	xmlns:xlink="http://www.w3.org/1999/xlink"
	width="184"
	height="48"
	viewBox="0 0 184 48"
	id="svg1"
	xml:space="preserve"
	inkscape:version="1.3 (0e150ed6c4, 2023-07-21)"
	>
	<title>えらいっ</title>
	<metadata>
		<rdf:RDF>
			<cc:Work rdf:about="">
				<cc:license rdf:resource="http://creativecommons.org/licenses/by/4.0/" />
				<dc:title>えらいっ</dc:title>
				<dc:date>2023-10-10</dc:date>
				<dc:creator><cc:Agent><dc:title>zawa-ch.</dc:title></cc:Agent></dc:creator>
				<dc:rights><cc:Agent><dc:title>Copyright 2023 zawa-ch.</dc:title></cc:Agent></dc:rights>
				<dc:identifier>stellar_ch-handwrittenerailtu</dc:identifier>
				<dc:language>ja_JP</dc:language>
			</cc:Work>
			<cc:License rdf:about="http://creativecommons.org/licenses/by/4.0/">
				<cc:permits rdf:resource="http://creativecommons.org/ns#Reproduction" />
				<cc:permits rdf:resource="http://creativecommons.org/ns#Distribution" />
				<cc:permits rdf:resource="http://creativecommons.org/ns#DerivativeWorks" />
				<cc:requires rdf:resource="http://creativecommons.org/ns#Notice" />
				<cc:requires rdf:resource="http://creativecommons.org/ns#Attribution" />
			</cc:License>
		</rdf:RDF>
	</metadata>
	<sodipodi:namedview
		pagecolor="#505050"
		bordercolor="#eeeeee"
		borderopacity="1"
		inkscape:showpageshadow="0"
		inkscape:pageopacity="0"
		inkscape:pagecheckerboard="0"
		inkscape:deskcolor="#d1d1d1"
		inkscape:document-units="px"
		showgrid="false"
		>
		<inkscape:grid units="px" originx="0" originy="0" spacingx="1" spacingy="1" empspacing="8" dotted="false" gridanglex="30" gridanglez="30" visible="false" />
	</sodipodi:namedview>
	<defs/>
	<g inkscape:groupmode="layer">
		<path
			d="m 9.7345056,44.034584 c -0.539935,0 -1.488582,-0.506883 -2.108105,-1.126405 -0.619522,-0.619522 -1.126404,-1.402375 -1.126404,-1.739673 0,-0.337298 2.73303,-3.781792 6.0734014,-7.654431 3.340372,-3.872639 6.082143,-7.326925 6.092825,-7.676194 0.01068,-0.349267 -1.479328,-0.429606 -3.311136,-0.178529 -2.072592,0.284081 -3.69703,0.15236 -4.300817,-0.348739 -0.533643,-0.442884 -0.970259,-1.553114 -0.970259,-2.467179 0,-0.914063 0.278443,-1.834021 0.618763,-2.04435 0.34032,-0.210329 3.755052,-0.7523 7.588294,-1.204379 5.087164,-0.599963 7.436815,-0.609052 8.699673,-0.03365 0.951579,0.433567 1.730145,1.314938 1.730145,1.9586 0,0.643662 -1.290245,2.71135 -2.867212,4.594863 -1.576966,1.883513 -2.867212,3.731229 -2.867212,4.106037 0,0.374808 0.767904,1.031347 1.706453,1.45898 0.938549,0.427631 2.631996,2.074596 3.763215,3.659923 1.796711,2.517966 2.455316,2.910017 5.20895,3.100759 2.047786,0.141849 3.427769,0.657844 3.93875,1.472756 0.570317,0.909541 0.57063,1.599268 0.0012,2.50881 -0.431984,0.689922 -1.88186,1.361709 -3.221948,1.492861 -1.340086,0.131151 -3.637827,-0.121232 -5.10609,-0.560851 -1.891552,-0.566357 -3.311696,-1.732604 -4.872855,-4.001671 -1.211804,-1.761302 -2.639667,-3.202366 -3.173027,-3.202366 -0.53336,0 -2.933078,1.475864 -5.332709,3.279699 -2.39963,1.803835 -4.547277,3.577922 -4.772546,3.942415 -0.22527,0.364495 -0.851347,0.662717 -1.3912824,0.662717 z M 55.8985,40.042405 c -3.116149,0.374997 -4.20057,0.244075 -4.893445,-0.590788 -0.489574,-0.589901 -0.784733,-1.809755 -0.655908,-2.710787 0.195003,-1.36392 0.834361,-1.731884 3.818238,-2.197486 1.971208,-0.307585 4.277545,-0.715153 5.125193,-0.905704 0.905642,-0.203588 1.853832,-1.243332 2.299363,-2.521383 0.417,-1.19621 0.572564,-2.658641 0.345697,-3.249848 -0.226866,-0.591205 -0.998453,-1.38852 -1.714636,-1.771809 -0.716183,-0.38329 -3.70307,-0.69689 -6.637527,-0.69689 -3.575507,0 -5.597385,-0.315702 -6.129706,-0.957109 -0.436881,-0.526409 -0.761129,-2.703699 -0.720551,-4.838419 0.04058,-2.13472 0.398027,-4.284511 0.79433,-4.777313 0.396303,-0.492803 1.614229,-0.896005 2.7065,-0.896005 1.149684,0 2.169164,0.477447 2.421042,1.13383 0.2393,0.623607 0.435091,1.913853 0.435091,2.867212 0,1.62898 0.244168,1.733382 4.053957,1.733382 3.194861,0 4.540598,0.371178 6.350352,1.751546 1.263018,0.96335 2.840394,2.897936 3.505279,4.29908 0.803332,1.692896 1.056202,3.3614 0.753763,4.973534 -0.250316,1.334301 -1.078544,3.451141 -1.840508,4.70409 -0.761964,1.252948 -2.42665,2.703568 -3.699302,3.223599 -1.272653,0.520029 -4.115404,1.1623 -6.317222,1.427268 z m 73.38885,-3.17585 c -0.77481,0 -1.62378,-0.21504 -1.88661,-0.477868 -0.26283,-0.262827 -0.47788,-1.212221 -0.47788,-2.109764 0,-0.897541 0.72577,-2.1676 1.61281,-2.822352 1.55817,-1.150124 1.48758,-1.175252 -2.08339,-0.741647 -2.86452,0.347821 -3.95324,0.191797 -4.83843,-0.693395 -0.62821,-0.628213 -1.14221,-1.380075 -1.14221,-1.670806 0,-0.29073 0.42742,-1.113124 0.94982,-1.827542 0.70655,-0.966282 2.23868,-1.391161 5.98252,-1.659031 4.51898,-0.323332 5.18285,-0.198928 6.5036,1.21872 0.80898,0.868345 1.62238,2.601583 1.80756,3.851638 0.18517,1.250056 0.18603,2.669503 0.002,3.154327 -0.18413,0.484824 -1.38917,1.533148 -2.67787,2.32961 -1.28896,0.796461 -2.97727,1.44811 -3.75207,1.44811 z M 87.231744,35.410153 c -0.838767,-0.01254 -2.04238,-0.416831 -2.674686,-0.898429 -0.632313,-0.481599 -1.900044,-2.326066 -2.817192,-4.098819 -1.240413,-2.397602 -1.669283,-4.416598 -1.674366,-7.882406 -0.0036,-2.562571 0.388285,-5.384981 0.871203,-6.272025 0.482917,-0.887044 1.472305,-1.612806 2.198649,-1.612806 0.726336,0 1.719739,0.480911 2.207551,1.068693 0.590667,0.711712 0.726982,2.135353 0.408076,4.261955 -0.263375,1.756294 -0.148392,4.42053 0.255519,5.920525 0.460016,1.708385 1.344572,2.994908 2.367701,3.443675 0.898332,0.394027 1.738727,1.459929 1.86755,2.368673 0.128824,0.908744 -0.152592,2.118348 -0.625368,2.688011 -0.472781,0.569662 -1.545863,1.025491 -2.384637,1.012953 z m 85.582936,-1.4196 c -1.12561,0.602406 -1.71552,0.460118 -2.86721,-0.691584 -0.79752,-0.797519 -1.45004,-1.933876 -1.45004,-2.525237 0,-0.591363 -0.58061,-1.075205 -1.29025,-1.075205 -0.70963,0 -1.67731,-0.387073 -2.1504,-0.860164 -0.47309,-0.473089 -0.86016,-1.433336 -0.86016,-2.133884 0,-0.700546 0.78736,-1.789614 1.74967,-2.42015 0.97481,-0.638718 1.84778,-1.995183 1.97121,-3.062937 0.16998,-1.470449 0.6642,-1.967739 2.12343,-2.13663 1.24126,-0.143663 2.23721,0.256348 2.86722,1.151573 0.53091,0.754434 1.66127,1.59153 2.5119,1.860217 0.85061,0.268686 1.7365,0.98345 1.96863,1.588365 0.23213,0.604914 0.0893,1.721599 -0.3174,2.481523 -0.4067,0.759923 -1.21194,1.381679 -1.78944,1.381679 -0.74556,0 -1.04999,0.823984 -1.04999,2.841991 0,2.097395 -0.37129,3.040705 -1.41717,3.600443 z m -63.57395,-4.292026 c -0.50693,0 -1.38911,-0.725762 -1.96039,-1.612806 -0.57129,-0.887044 -1.25758,-2.810919 -1.52511,-4.275279 -0.26752,-1.464359 -0.93651,-3.036021 -1.48662,-3.492582 -0.55014,-0.45656 -1.00024,-1.371224 -1.00024,-2.032587 0,-0.661361 0.38708,-1.589549 0.86016,-2.062639 0.4731,-0.47309 1.52143,-0.855224 2.32962,-0.849187 0.80819,0.0061 1.88199,0.272771 2.38622,0.592743 0.50423,0.319972 1.60269,3.105105 2.44104,6.189185 1.47763,5.435888 1.48377,5.637025 0.20063,6.575285 -0.728,0.532327 -1.7384,0.967867 -2.24531,0.967867 z m 45.48423,-3.719384 c -1.56256,0.181622 -2.27652,-0.31746 -3.84527,-2.688011 -1.61182,-2.435617 -2.3165,-2.911042 -4.31477,-2.911042 -1.62766,0 -2.62467,-0.441588 -3.13037,-1.386482 -0.40811,-0.762565 -0.74202,-1.57177 -0.74202,-1.798234 0,-0.226464 1.73953,-2.303927 3.86563,-4.616585 2.12609,-2.312657 4.07796,-4.8738461 4.33748,-5.6915297 0.25953,-0.8176828 1.13701,-1.6978099 1.94999,-1.9558374 1.16411,-0.3694746 2.14278,0.2906443 4.60668,3.107255 1.7207,1.9670181 3.90651,3.7716531 4.85735,4.0103021 0.95086,0.238648 1.9262,0.948253 2.16744,1.576901 0.24123,0.628647 0.17761,1.60937 -0.14139,2.179384 -0.31899,0.570014 -1.66624,1.590616 -2.99387,2.268006 -1.32763,0.677389 -2.64225,1.715458 -2.92136,2.30682 -0.27913,0.591363 -0.79306,2.042888 -1.14208,3.225613 -0.47118,1.596639 -1.12873,2.207843 -2.55344,2.37344 z m -1.2633,-9.183067 c 0.35711,0 0.98406,-0.625547 1.39324,-1.390105 0.52331,-0.977818 0.51038,-1.534457 -0.0435,-1.876821 -0.43313,-0.267696 -1.27858,0.0044 -1.87876,0.604516 -0.60018,0.600179 -0.87275,1.444749 -0.60571,1.876822 0.26705,0.432073 0.77772,0.785588 1.13482,0.785588 z M 24.540643,14.61119 c -0.263437,-0.01896 -2.333704,-0.991818 -4.600593,-2.1619 -3.612512,-1.864642 -4.121617,-2.389935 -4.121617,-4.2526828 0,-1.6548103 0.3869,-2.2223662 1.747818,-2.5639349 1.246207,-0.3127783 2.891944,0.2456577 5.734423,1.9458179 3.240467,1.9382076 3.986606,2.7412688 3.986606,4.2907438 0,1.077008 -0.49323,2.095521 -1.13383,2.341342 -0.623606,0.239301 -1.349369,0.419576 -1.612807,0.400614 z M 61.621517,11.594622 C 60.675678,11.690632 59.273606,11.285919 58.505803,10.695256 57.738001,10.104593 56.573838,9.7914311 55.918774,9.9993406 55.263711,10.20725 54.223406,10.183823 53.606986,9.9472746 52.990566,9.7107327 52.292685,9.0128455 52.056138,8.3964145 c -0.236546,-0.6164304 0.09349,-1.9198589 0.733415,-2.8965078 0.99006,-1.5110226 1.567603,-1.7215232 3.874381,-1.4121195 1.490985,0.199983 3.606105,0.8025891 4.700266,1.3391239 1.094162,0.5365355 2.34005,1.5400007 2.768641,2.2299234 0.561853,0.9044425 0.560129,1.6043675 -0.0062,2.5088105 -0.431989,0.689923 -1.559305,1.33296 -2.505144,1.428972 z"
			style="fill:#daa520;fill-opacity:1;stroke:none;"
		/>
	</g>
</svg>
