<?xml version="1.0" encoding="UTF-8" standalone="no"?>
<!-- Created with Inkscape (http://www.inkscape.org/) -->
<svg
	xmlns="http://www.w3.org/2000/svg"
	xmlns:cc="http://creativecommons.org/ns#"
	xmlns:dc="http://purl.org/dc/elements/1.1/"
	xmlns:inkscape="http://www.inkscape.org/namespaces/inkscape"
	xmlns:rdf="http://www.w3.org/1999/02/22-rdf-syntax-ns#"
	xmlns:sodipodi="http://sodipodi.sourceforge.net/DTD/sodipodi-0.dtd"
	xmlns:svg="http://www.w3.org/2000/svg"
	xmlns:xlink="http://www.w3.org/1999/xlink"
	width="192"
	height="48"
	viewBox="0 0 192 48"
	version="1.1"
	xml:space="preserve"
	inkscape:version="1.3 (0e150ed6c4, 2023-07-21)"
	>
	<title>かわいい</title>
	<metadata>
		<rdf:RDF>
			<cc:Work rdf:about="">
				<cc:license rdf:resource="http://creativecommons.org/licenses/by/4.0/" />
				<dc:title>かわいい</dc:title>
				<dc:date>2023-10-10</dc:date>
				<dc:creator><cc:Agent><dc:title>zawa-ch.</dc:title></cc:Agent></dc:creator>
				<dc:rights><cc:Agent><dc:title>Copyright 2023 zawa-ch.</dc:title></cc:Agent></dc:rights>
				<dc:identifier>stellar_ch-handwrittenkawaii</dc:identifier>
				<dc:language>ja_JP</dc:language>
			</cc:Work>
			<cc:License rdf:about="http://creativecommons.org/licenses/by/4.0/">
				<cc:permits rdf:resource="http://creativecommons.org/ns#Reproduction" />
				<cc:permits rdf:resource="http://creativecommons.org/ns#Distribution" />
				<cc:permits rdf:resource="http://creativecommons.org/ns#DerivativeWorks" />
				<cc:requires rdf:resource="http://creativecommons.org/ns#Notice" />
				<cc:requires rdf:resource="http://creativecommons.org/ns#Attribution" />
			</cc:License>
		</rdf:RDF>
	</metadata>
	<sodipodi:namedview
		pagecolor="#505050"
		bordercolor="#eeeeee"
		borderopacity="1"
		inkscape:showpageshadow="0"
		inkscape:pageopacity="0"
		inkscape:pagecheckerboard="0"
		inkscape:deskcolor="#d1d1d1"
		inkscape:document-units="px"
		showgrid="false"
		>
		<inkscape:grid units="px" originx="0" originy="0" spacingx="1" spacingy="1" empspacing="8" dotted="false" gridanglex="30" gridanglez="30" visible="false" />
	</sodipodi:namedview>
	<defs/>
	<g inkscape:groupmode="layer">
		<path
			d="m 14.103469,43.012346 c -1.30856,0 -2.617916,-0.622084 -2.90968,-1.382409 -0.291763,-0.760325 0.673014,-4.77246 2.14395,-8.915855 1.470935,-4.143396 2.428333,-7.779543 2.127548,-8.080328 -0.300785,-0.300784 -1.444617,-0.06643 -2.541849,0.520794 -1.097233,0.587221 -3.1196608,1.067674 -4.494285,1.067674 -1.4585274,0 -2.9242594,-0.794015 -3.5197616,-1.90672 -0.7515378,-1.404262 -0.6630005,-2.264165 0.3359822,-3.263147 0.7460346,-0.746035 4.0400411,-2.16896 7.3200154,-3.162057 5.456578,-1.652118 6.015517,-2.08243 6.574382,-5.061439 0.335937,-1.790695 1.404161,-4.2355768 2.373832,-5.4330702 1.498024,-1.849981 2.087131,-2.0038129 3.919085,-1.0233807 1.185825,0.6346341 2.156046,1.7759773 2.156046,2.536317 0,0.7603398 -0.421421,2.4908559 -0.93649,3.8455919 -0.843914,2.219663 -0.575422,2.649454 2.716049,4.347739 2.008897,1.036522 4.652539,3.356094 5.874762,5.154606 1.626695,2.393696 2.222222,4.699756 2.222222,8.605109 0,2.934298 -0.67808,6.64635 -1.506845,8.249004 -1.043806,2.018499 -2.247113,2.913916 -3.915867,2.913916 -1.430269,0 -2.856395,-0.835923 -3.510147,-2.057468 -0.866318,-1.61873 -0.768423,-2.425101 0.459077,-3.781473 0.858111,-0.948201 1.560202,-3.355674 1.560202,-5.349939 0,-2.309062 -0.717396,-4.34333 -1.975309,-5.601243 -1.08642,-1.08642 -2.550367,-1.975309 -3.253217,-1.975309 -0.735387,0 -2.463027,3.668848 -4.069459,8.641976 -1.535352,4.753086 -3.236935,9.19753 -3.781295,9.876543 -0.544361,0.679012 -2.060387,1.234568 -3.368948,1.234568 z m 96.516071,-6.864198 c -1.4593,0 -3.38487,-0.555555 -4.27905,-1.234568 -0.89418,-0.679012 -2.10475,-2.52388 -2.69014,-4.099706 -0.76856,-2.068861 -0.74729,-5.033637 0.0765,-10.667736 0.62749,-4.291427 1.78485,-8.44656 2.57193,-9.233626 0.78706,-0.787067 2.05031,-1.431031 2.80721,-1.431031 0.7569,0 1.80798,0.806807 2.33572,1.792902 0.60116,1.123292 0.62294,3.244283 0.0583,5.679013 -0.49567,2.137361 -0.91182,5.447386 -0.92479,7.355612 -0.0181,2.66014 0.49349,3.696938 2.1929,4.444445 1.21904,0.536218 2.36685,1.774071 2.55069,2.750783 0.18383,0.976713 -0.20133,2.421158 -0.85591,3.209877 -0.65455,0.78872 -2.38408,1.434035 -3.84338,1.434035 z m 25.11734,-3.950617 c -0.59753,0 -1.61975,-0.533333 -2.27161,-1.185185 -0.65185,-0.651852 -1.18518,-3.511808 -1.18518,-6.355457 0,-2.84365 -0.43198,-6.306457 -0.95995,-7.695128 -0.52797,-1.38867 -0.71583,-3.161017 -0.41746,-3.938548 0.29837,-0.777532 1.17478,-1.656332 1.9476,-1.952889 0.77281,-0.296556 2.0631,-0.286701 2.86731,0.02191 0.8042,0.308603 1.91284,2.183543 2.46363,4.166533 0.55079,1.982992 1.00392,6.072106 1.00694,9.086921 0.003,3.014815 -0.52782,6.014815 -1.17968,6.666667 -0.65185,0.651851 -1.67407,1.185185 -2.2716,1.185185 z m 20.61489,0 c -1.20995,0 -3.12106,-1.171049 -4.24691,-2.60233 -1.63325,-2.076344 -2.02709,-3.922882 -1.94854,-9.135802 0.0541,-3.593411 0.40696,-7.64225 0.78405,-8.997422 0.37707,-1.355173 1.46523,-2.614095 2.41812,-2.797606 0.9529,-0.183511 2.39778,0.218441 3.21084,0.893226 1.17509,0.975234 1.34374,2.592528 0.82225,7.884906 -0.60343,6.12385 -0.48813,6.747904 1.43721,7.778312 1.1513,0.616159 2.09327,1.904652 2.09327,2.863317 0,0.958666 -0.53333,2.276362 -1.18518,2.928214 -0.65185,0.651852 -2.17515,1.185185 -3.38511,1.185185 z m 27.78017,-0.987654 c -0.59753,0 -1.61975,-0.533334 -2.2716,-1.185186 -0.65186,-0.651852 -1.18519,-3.297606 -1.18519,-5.879453 0,-2.581848 -0.50979,-5.813131 -1.13286,-7.180629 -0.87437,-1.919021 -0.84677,-2.831078 0.12093,-3.997089 0.68959,-0.830902 2.11094,-1.51073 3.15857,-1.51073 1.23997,0 2.40425,1.195408 3.33586,3.425068 0.78709,1.883787 1.43108,5.794899 1.43108,8.691358 0,2.896459 -0.53333,5.799623 -1.18518,6.451475 -0.65186,0.651852 -1.67408,1.185186 -2.27161,1.185186 z M 45.014975,24.246914 c -0.51927,0 -3.094316,-2.333334 -5.722323,-5.185186 -2.628007,-2.851851 -4.780927,-5.686321 -4.784266,-6.298819 -0.0034,-0.6125 0.654823,-1.66213 1.462584,-2.332512 0.807761,-0.670381 2.488845,-0.9628245 3.735743,-0.6498724 1.246899,0.3129514 3.697114,2.5977974 5.444924,5.0774344 1.747811,2.479639 3.177837,5.073217 3.177837,5.763509 0,0.690291 -0.533333,1.788409 -1.185185,2.44026 -0.651852,0.651852 -1.610043,1.185186 -2.129314,1.185186 z M 65.196195,44 c -0.911264,0 -2.190177,-0.533333 -2.842029,-1.185185 -0.651852,-0.651852 -1.185185,-2.678082 -1.185185,-4.502733 0,-1.979814 -0.401816,-3.069212 -0.996493,-2.701682 -0.54807,0.338727 -1.881404,0.335006 -2.962963,-0.0083 -1.243257,-0.394565 -1.96647,-1.495068 -1.96647,-2.992318 0,-1.302517 1.333333,-3.886796 2.962963,-5.742842 1.629629,-1.856045 2.962963,-4.448932 2.962963,-5.76197 0,-2.133661 -0.356989,-2.345666 -3.359543,-1.995135 -2.754042,0.321518 -3.48078,0.01022 -4.032215,-1.727199 -0.374795,-1.180873 -0.159682,-2.737523 0.485769,-3.515244 0.637143,-0.767711 1.98167,-1.65712 2.987835,-1.976466 1.260851,-0.400177 1.923759,-1.716582 2.133033,-4.2357782 C 59.646318,4.4957299 60.022375,4 62.156635,4 c 1.6289,0 2.80523,0.770804 3.45679,2.2651004 0.747204,1.7136474 1.533602,2.1286163 3.230142,1.7044919 1.233369,-0.3083348 3.165255,-0.066756 4.29308,0.5368346 1.636695,0.8759328 1.979061,1.8474961 1.696208,4.8134891 l -0.354381,3.716046 6.65228,-0.475968 c 5.109192,-0.36556 7.226366,-0.09981 9.12717,1.145642 1.361189,0.891885 3.197792,3.019551 4.081342,4.728147 1.026523,1.985077 1.407524,4.332395 1.055402,6.502263 -0.303077,1.867649 -1.725397,4.935373 -3.16071,6.817166 -1.755634,2.301756 -3.273342,3.322159 -4.637687,3.118065 -1.115414,-0.166857 -2.515588,-1.081154 -3.111496,-2.031771 -0.726967,-1.159689 -0.760156,-2.170274 -0.100866,-3.071341 0.540432,-0.738619 1.770462,-2.453773 2.733402,-3.811452 0.964536,-1.359926 1.470043,-3.20015 1.125629,-4.097678 -0.343844,-0.896044 -1.734742,-1.907656 -3.090883,-2.248026 -1.35614,-0.34037 -4.784223,-0.09999 -7.617959,0.534168 -2.833738,0.634163 -6.177704,1.871279 -7.431036,2.749148 -2.106485,1.475439 -2.233284,2.083402 -1.676989,8.040644 0.383586,4.107727 0.2075,6.91962 -0.485617,7.754775 C 67.342377,43.410385 66.107461,44 65.196195,44 Z"
			style="fill:#fa8072;fill-opacity:1;stroke:none;"
		/>
	</g>
</svg>
