<?xml version="1.0" encoding="UTF-8" standalone="no"?>
<!-- Created with Inkscape (http://www.inkscape.org/) -->
<svg
	xmlns="http://www.w3.org/2000/svg"
	xmlns:cc="http://creativecommons.org/ns#"
	xmlns:dc="http://purl.org/dc/elements/1.1/"
	xmlns:inkscape="http://www.inkscape.org/namespaces/inkscape"
	xmlns:rdf="http://www.w3.org/1999/02/22-rdf-syntax-ns#"
	xmlns:sodipodi="http://sodipodi.sourceforge.net/DTD/sodipodi-0.dtd"
	xmlns:svg="http://www.w3.org/2000/svg"
	xmlns:xlink="http://www.w3.org/1999/xlink"
	width="136"
	height="48"
	viewBox="0 0 136 48"
	version="1.1"
	xml:space="preserve"
	inkscape:version="1.3 (0e150ed6c4, 2023-07-21)"
	>
	<title>すごい</title>
	<metadata>
		<rdf:RDF>
			<cc:Work rdf:about="">
				<cc:license rdf:resource="http://creativecommons.org/licenses/by/4.0/" />
				<dc:title>すごい</dc:title>
				<dc:date>2023-10-10</dc:date>
				<dc:creator><cc:Agent><dc:title>zawa-ch.</dc:title></cc:Agent></dc:creator>
				<dc:rights><cc:Agent><dc:title>Copyright 2023 zawa-ch.</dc:title></cc:Agent></dc:rights>
				<dc:identifier>stellar_ch-handwrittensugoi</dc:identifier>
				<dc:language>ja_JP</dc:language>
			</cc:Work>
			<cc:License rdf:about="http://creativecommons.org/licenses/by/4.0/">
				<cc:permits rdf:resource="http://creativecommons.org/ns#Reproduction" />
				<cc:permits rdf:resource="http://creativecommons.org/ns#Distribution" />
				<cc:permits rdf:resource="http://creativecommons.org/ns#DerivativeWorks" />
				<cc:requires rdf:resource="http://creativecommons.org/ns#Notice" />
				<cc:requires rdf:resource="http://creativecommons.org/ns#Attribution" />
			</cc:License>
		</rdf:RDF>
	</metadata>
	<sodipodi:namedview
		pagecolor="#505050"
		bordercolor="#eeeeee"
		borderopacity="1"
		inkscape:showpageshadow="0"
		inkscape:pageopacity="0"
		inkscape:pagecheckerboard="0"
		inkscape:deskcolor="#d1d1d1"
		inkscape:document-units="px"
		showgrid="false"
		>
		<inkscape:grid units="px" originx="0" originy="0" spacingx="1" spacingy="1" empspacing="8" dotted="false" gridanglex="30" gridanglez="30" visible="false" />
	</sodipodi:namedview>
	<defs/>
	<g inkscape:groupmode="layer">
		<path
			d="m 15.641709,44 c -1.392582,0 -2.178768,-0.450056 -2.487964,-1.424246 -0.252914,-0.796861 0.184777,-2.863871 0.993618,-4.692389 l 1.445657,-3.268147 h -1.658758 c -0.912317,0 -2.518339,-0.796633 -3.568938,-1.770296 -1.4469597,-1.340996 -1.9101809,-2.464589 -1.9101809,-4.633348 0,-1.574677 0.2017959,-3.388923 0.4484344,-4.031654 0.2466394,-0.642732 1.3675095,-1.643873 2.4908225,-2.224761 1.123314,-0.580888 2.708236,-1.05616 3.52205,-1.05616 0.813814,0 1.479663,-0.295555 1.479663,-0.65679 0,-0.361234 -1.705505,-0.240913 -3.790008,0.267382 C 10.5216,21.017886 8.2894815,21.656982 7.6458421,21.929804 6.955294,22.222511 5.9935503,21.94381 5.2996468,21.249905 4.6528787,20.603137 4.1237056,19.772309 4.1237056,19.403622 c 0,-0.368688 0.5933679,-1.26371 1.3185964,-1.988938 0.7252277,-0.725228 3.3394366,-1.747448 5.809354,-2.271599 l 4.490758,-0.953004 -0.478418,-2.240315 C 15.000867,10.717593 14.461958,9.3075985 14.066419,8.8164438 13.670882,8.3252889 13.542411,7.1458905 13.780931,6.1955572 c 0.238518,-0.9503333 1.111047,-1.9050169 1.938953,-2.1215194 0.927119,-0.2424464 2.019273,0.1203497 2.843485,0.9445609 0.736011,0.7360108 1.556867,2.7963675 1.824125,4.5785708 l 0.485923,3.2403685 4.43898,-0.12023 c 4.197948,-0.113703 4.452504,-0.02442 4.688017,1.644088 0.153081,1.08452 -0.247773,2.127594 -1.04036,2.707148 -0.709169,0.518556 -2.526738,0.94283 -4.039044,0.94283 h -2.749647 l 0.0039,7.399539 c 0.0034,6.611315 -0.235853,7.995514 -2.246841,12.994313 C 17.867119,43.529059 17.506288,44 15.641735,44 Z M 15.285925,29.111515 c 0.610604,-0.234311 1.110188,-1.040979 1.110188,-1.792596 0,-0.751616 -0.243644,-1.361602 -0.54143,-1.355522 -0.297786,0.006 -0.99484,0.298152 -1.549007,0.649049 -0.554168,0.350896 -0.810107,1.152589 -0.568757,1.78154 0.256447,0.66829 0.900213,0.966494 1.549006,0.717529 z m 97.930975,7.669422 c -0.28516,0 -0.90831,-0.389829 -1.38477,-0.866288 -0.47647,-0.476458 -0.86629,-1.573684 -0.86629,-2.438278 0,-0.864595 0.47169,-1.963465 1.04821,-2.441933 0.57653,-0.478469 1.71353,-0.658783 2.52668,-0.4007 1.09956,0.348987 1.47846,1.084513 1.47846,2.870032 0,1.523254 -0.41739,2.560956 -1.14191,2.838978 -0.62805,0.241004 -1.37522,0.438189 -1.66038,0.438189 z m 12.85297,0 c -0.66606,0 -1.61193,-0.483069 -2.10194,-1.073485 -0.49261,-0.59356 -0.69628,-1.848937 -0.45558,-2.807998 0.23944,-0.953983 0.94896,-1.931609 1.57673,-2.172505 0.62775,-0.240895 1.76757,-0.102869 2.5329,0.306726 0.76534,0.409594 1.39151,1.48046 1.39151,2.379702 0,0.899241 -0.38982,2.024814 -0.86629,2.501272 -0.47646,0.476459 -1.41125,0.866288 -2.07733,0.866288 z M 46.788927,35.950866 c -1.032634,-0.05949 -2.85209,-0.229783 -4.043236,-0.378428 -1.191145,-0.148645 -2.896648,-0.431017 -3.790008,-0.627495 -1.124341,-0.247278 -1.624289,-0.88129 -1.624289,-2.05985 0,-0.936441 0.47243,-2.094702 1.049846,-2.573914 0.728245,-0.60439 2.469389,-0.719274 5.683855,-0.375034 3.168748,0.339345 5.16121,0.214111 6.301323,-0.396059 1.453508,-0.777893 1.834176,-0.686253 2.968541,0.71463 0.952497,1.176281 1.114651,1.955582 0.605043,2.907793 -0.382905,0.715464 -1.7261,1.65987 -2.984876,2.098682 -1.258775,0.438811 -3.133564,0.749166 -4.166199,0.689675 z m 27.820494,-2.057554 c -1.050822,0 -2.379555,-0.737001 -3.192884,-1.770984 -0.865485,-1.100285 -1.57094,-3.507231 -1.862756,-6.355559 -0.258341,-2.521516 -0.265885,-6.191369 -0.01675,-8.155228 0.249116,-1.963858 0.908844,-4.301581 1.466047,-5.194941 0.55721,-0.893359 1.590367,-1.624289 2.2959,-1.624289 0.705534,0 1.672621,0.38983 2.149079,0.866288 0.476458,0.476458 0.866287,1.548489 0.866287,2.382291 0,0.833802 -0.340089,1.856096 -0.755763,2.271767 -0.43266,0.432658 -0.664132,3.040575 -0.541429,6.100107 0.161922,4.037442 0.453581,5.294016 1.192704,5.138538 0.538102,-0.113192 1.431461,0.170228 1.985242,0.629824 0.553767,0.459596 1.006857,1.596567 1.006857,2.526602 0,0.932975 -0.625928,2.025961 -1.396354,2.438278 -0.767993,0.411018 -2.206276,0.747306 -3.19618,0.747306 z m 21.501343,-2.887626 c -0.467543,0 -1.177986,-0.406072 -1.578759,-0.902382 -0.400774,-0.49631 -0.959052,-2.364243 -1.240625,-4.150961 -0.281572,-1.786719 -0.968019,-3.968079 -1.525438,-4.847468 -0.557413,-0.87939 -1.013485,-2.248606 -1.013485,-3.042703 0,-0.794097 0.671503,-1.803188 1.492224,-2.242425 1.146777,-0.61374 1.866034,-0.553679 3.107019,0.259446 1.049992,0.68798 1.91682,2.366454 2.478269,4.798773 0.474898,2.057392 0.863457,4.787961 0.863457,6.067929 0,1.279969 -0.389829,2.717046 -0.866287,3.193504 -0.476458,0.476459 -1.248826,0.866287 -1.716375,0.866287 z m 30.737016,-2.165718 c -0.69687,0 -1.63745,-0.446328 -2.09019,-0.99184 -0.62063,-0.747822 -0.5562,-2.124274 0.2619,-5.594774 0.59677,-2.531613 1.08984,-6.447662 1.09571,-8.702329 0.007,-2.752594 0.38337,-4.4720968 1.1451,-5.2338207 0.62392,-0.6239335 1.53352,-1.1344245 2.02133,-1.1344245 0.4878,0 1.27675,0.3898294 1.7532,0.8662876 0.47646,0.4764582 0.85496,2.3443906 0.8411,4.1509606 -0.0139,1.806571 -0.47742,5.821672 -1.03015,8.922445 -0.55273,3.100775 -1.39332,6.10571 -1.86797,6.677633 -0.47465,0.571924 -1.43317,1.039862 -2.13003,1.039862 z m -12.3354,-0.721907 c -0.73152,0 -1.64972,-0.59735 -2.04045,-1.327446 -0.49044,-0.916385 -0.36922,-2.760655 0.39144,-5.955726 0.60603,-2.545555 1.32037,-6.739856 1.58742,-9.320672 0.4597,-4.4428014 0.59111,-4.7045386 2.47042,-4.9207842 1.52842,-0.1758693 2.1281,0.1561679 2.60755,1.4438126 0.34246,0.9197138 0.38094,3.6778886 0.0855,6.1292786 -0.29543,2.45139 -0.94287,6.187255 -1.43875,8.301922 -0.49588,2.114667 -1.2237,4.250923 -1.61736,4.747232 -0.39368,0.496311 -1.31428,0.902383 -2.04578,0.902383 z M 51.658493,20.035668 c -1.178821,0.138369 -2.029411,-0.19524 -2.300767,-0.902383 -0.27497,-0.716557 -1.336214,-1.121911 -2.937242,-1.121911 -1.378699,0 -2.707497,0.324858 -2.952887,0.721907 -0.245389,0.397048 -1.065276,0.721905 -1.821971,0.721905 -0.756694,0 -1.730093,-0.661986 -2.163107,-1.471081 -0.433014,-0.809094 -0.585221,-2.107771 -0.338237,-2.885947 0.246984,-0.778177 1.217322,-1.607688 2.156308,-1.843358 0.938986,-0.23567 3.82996,-0.480069 6.424386,-0.543108 4.029657,-0.09792 4.956756,0.124332 6.361271,1.524918 1.540677,1.536363 1.574866,1.763496 0.543321,3.609531 -0.673611,1.205473 -1.82664,2.055195 -2.971075,2.189527 z m 13.168332,-7.799544 c -0.731507,0 -1.721479,-0.471681 -2.199929,-1.04818 -0.478451,-0.576498 -0.759092,-1.6322863 -0.623655,-2.3461952 0.146583,-0.7725915 0.999328,-1.3858451 2.106652,-1.5149905 1.023209,-0.1193362 2.261191,0.2659705 2.75107,0.8562371 0.665921,0.8023838 0.689456,1.4492067 0.09329,2.5631706 -0.438573,0.819476 -1.395906,1.489958 -2.127422,1.489958 z m -7.554619,-0.721907 c -0.546952,0 -1.395372,-0.483068 -1.885373,-1.073484 -0.50854,-0.6127535 -0.696684,-1.8473813 -0.438356,-2.8766307 0.289592,-1.1538235 1.138959,-1.9754207 2.358655,-2.2815451 1.400073,-0.3513951 2.163749,-0.126034 2.87663,0.8488896 0.5338,0.7300083 0.970539,1.5900563 0.970539,1.9112173 0,0.3211603 -0.649716,1.233644 -1.443813,2.0277409 -0.794097,0.794097 -1.891322,1.443812 -2.438282,1.443812 z"
			style="fill:#f08080;fill-opacity:1;storoke:none;"
		/>
	</g>
</svg>
