<?xml version="1.0" encoding="UTF-8" standalone="no"?>
<!-- Created with Inkscape (http://www.inkscape.org/) -->
<svg
	xmlns="http://www.w3.org/2000/svg"
	xmlns:cc="http://creativecommons.org/ns#"
	xmlns:dc="http://purl.org/dc/elements/1.1/"
	xmlns:inkscape="http://www.inkscape.org/namespaces/inkscape"
	xmlns:rdf="http://www.w3.org/1999/02/22-rdf-syntax-ns#"
	xmlns:sodipodi="http://sodipodi.sourceforge.net/DTD/sodipodi-0.dtd"
	xmlns:svg="http://www.w3.org/2000/svg"
	xmlns:xlink="http://www.w3.org/1999/xlink"
	width="160"
	height="48"
	viewBox="0 0 160 48"
	version="1.1"
	xml:space="preserve"
	inkscape:version="1.3 (0e150ed6c4, 2023-07-21)"
	>
	<title>紛争をはじめる</title>
	<metadata>
		<rdf:RDF>
			<cc:Work rdf:about="">
				<cc:license rdf:resource="http://creativecommons.org/licenses/by/4.0/" />
				<dc:title>紛争をはじめる</dc:title>
				<dc:date>2023-10-19</dc:date>
				<dc:creator><cc:Agent><dc:title>zawa-ch.</dc:title></cc:Agent></dc:creator>
				<dc:rights><cc:Agent><dc:title>Copyright 2023 zawa-ch.</dc:title></cc:Agent></dc:rights>
				<dc:identifier>stellar_ch-handwrittenstartdispute</dc:identifier>
				<dc:language>ja_JP</dc:language>
			</cc:Work>
			<cc:License rdf:about="http://creativecommons.org/licenses/by/4.0/">
				<cc:permits rdf:resource="http://creativecommons.org/ns#Reproduction" />
				<cc:permits rdf:resource="http://creativecommons.org/ns#Distribution" />
				<cc:permits rdf:resource="http://creativecommons.org/ns#DerivativeWorks" />
				<cc:requires rdf:resource="http://creativecommons.org/ns#Notice" />
				<cc:requires rdf:resource="http://creativecommons.org/ns#Attribution" />
			</cc:License>
		</rdf:RDF>
	</metadata>
	<sodipodi:namedview
		pagecolor="#505050"
		bordercolor="#eeeeee"
		borderopacity="1"
		inkscape:showpageshadow="0"
		inkscape:pageopacity="0"
		inkscape:pagecheckerboard="0"
		inkscape:deskcolor="#d1d1d1"
		inkscape:document-units="px"
		showgrid="false"
		>
		<inkscape:grid units="px" originx="0" originy="0" spacingx="1" spacingy="1" empspacing="8" dotted="false" gridanglex="30" gridanglez="30" visible="false" />
	</sodipodi:namedview>
	<defs/>
	<g inkscape:groupmode="layer">
		<rect
			x="4"
			y="4"
			width="152"
			height="40"
			rx="20"
			ry="20" 
			style="fill:#ffffff;fill-opacity:1;stroke:#000000;stroke-width:0.5;stroke-opacity:1"
		/>
		<path
			d="m 21.610108,33.69065 c -0.42143,-0.347988 -0.615017,-0.967689 -0.546583,-1.749688 0.07916,-0.904511 -0.0065,-1.110937 -0.338442,-0.815915 -0.583962,0.518962 -2.252847,0.406608 -2.780559,-0.187193 -0.538422,-0.60586 -0.418787,-2.635859 0.187071,-3.174281 0.60462,-0.537321 2.267857,-0.439302 2.805179,0.165318 0.324192,0.364798 0.435378,0.154116 0.500332,-0.948066 0.08352,-1.417091 0.08352,-1.417091 -1.790537,-1.306354 -1.552661,0.09174 -1.990677,-0.02049 -2.554116,-0.654509 -0.374038,-0.420888 -0.665386,-1.014392 -0.64744,-1.318901 0.05785,-0.981652 1.495204,-1.888963 3.242181,-2.04659 1.592596,-0.143698 1.70675,-0.226068 1.768639,-1.276217 0.06272,-1.06418 0.02915,-1.092884 -0.644833,-0.551523 -0.887385,0.712761 -1.560021,0.682659 -2.56694,-0.114881 -0.86644,-0.686269 -0.975525,-2.373967 -0.198097,-3.064862 0.604619,-0.537322 2.267855,-0.439301 2.805177,0.165319 0.324194,0.364797 0.431322,0.222957 0.482078,-0.638282 0.03589,-0.60902 0.276318,-1.294876 0.534283,-1.524127 0.649501,-0.577208 2.35906,-0.418082 2.862192,0.266412 0.334939,0.455671 0.806359,4.195959 0.756441,6.001662 -0.0067,0.243808 0.852964,0.383227 2.320353,0.376294 1.735592,-0.0082 2.437575,0.133931 2.748043,0.55628 0.337581,0.459268 0.789422,0.52111 2.37285,0.324768 2.414527,-0.299399 6.135987,0.180654 7.195042,0.928131 1.792132,1.264878 2.844781,6.763422 1.612401,8.422427 -0.731304,0.984466 -2.140099,1.047421 -2.95364,0.131985 -0.307839,-0.346395 -0.509192,-1.235973 -0.461796,-2.040215 0.04622,-0.784309 -0.07825,-1.904783 -0.276604,-2.489939 -0.352364,-1.039487 -0.374779,-1.013714 -0.975932,1.122122 -0.338405,1.202324 -0.647741,2.61343 -0.687415,3.135788 -0.100354,1.321325 -1.726735,2.61739 -2.843587,2.266061 -1.379114,-0.433827 -1.689125,-1.776434 -0.93641,-4.055434 0.993248,-3.007255 0.943228,-3.591221 -0.313964,-3.665312 -0.584161,-0.03442 -1.252789,-0.322005 -1.485841,-0.639063 -0.233051,-0.317059 -0.619659,-0.466601 -0.859131,-0.332316 -0.239471,0.134285 -1.353929,0.275112 -2.476571,0.312949 l -2.041168,0.0688 -0.09529,3.813533 c -0.08084,3.235038 -0.199935,3.916291 -0.78505,4.490942 -0.804677,0.79027 -2.007315,0.808676 -2.932312,0.04487 z m 29.333635,1.672954 c -0.27748,-0.377499 -0.324162,-1.304745 -0.13315,-2.644657 l 0.294143,-2.06334 -2.000516,0.116419 c -2.497142,0.145317 -3.423818,-0.362468 -3.337403,-1.828784 0.08311,-1.410268 1.169024,-2.014618 3.92518,-2.184506 1.17561,-0.07246 2.146135,-0.27871 2.15672,-0.458324 0.0282,-0.478481 -1.699455,-0.490838 -4.257623,-0.03046 -3.071627,0.552789 -3.440549,0.498166 -4.072752,-0.602996 -0.506588,-0.882372 -0.498826,-1.027586 0.09787,-1.830837 0.356452,-0.479848 1.313594,-1.029839 2.126986,-1.222206 1.283918,-0.303644 1.413261,-0.423605 0.981081,-0.909916 -1.008482,-1.13479 -0.239639,-2.798046 1.524923,-3.298893 1.130143,-0.320777 1.143504,-0.348927 0.608193,-1.281327 -0.727531,-1.267209 -0.356254,-2.082315 1.723913,-3.784676 1.496871,-1.225004 1.953085,-1.400589 3.415194,-1.314422 3.159202,0.186182 4.878328,1.89604 4.713768,4.688355 -0.06439,1.092669 0.120533,1.917597 0.549238,2.450049 0.355477,0.441501 0.775946,1.310387 0.934377,1.930859 0.25205,0.987098 0.496863,1.165131 1.958297,1.424116 0.91863,0.162791 1.925124,0.534193 2.23665,0.825335 0.775715,0.724958 0.624192,2.141202 -0.318734,2.979174 -0.892423,0.793091 -1.276212,0.827609 -2.289602,0.205929 -1.03121,-0.632612 -2.223177,0.365479 -2.042168,1.710007 0.218427,1.622467 -0.759304,2.413834 -2.831412,2.291717 -1.782628,-0.105055 -1.782628,-0.105055 -2.178371,2.218316 -0.217663,1.277854 -0.60453,2.546772 -0.859708,2.819814 -0.611217,0.654009 -2.38514,0.529845 -2.925089,-0.204742 z m 5.722551,-9.106984 c 0.01197,-0.203007 -0.144344,-0.378892 -0.347351,-0.390856 -0.203006,-0.01197 -0.37889,0.144344 -0.390854,0.347351 -0.01197,0.203006 0.144343,0.37889 0.347349,0.390854 0.203007,0.01197 0.378892,-0.144344 0.390856,-0.347349 z m -1.966458,-9.151136 c 0.563758,-0.748849 0.338247,-1.024143 -0.685762,-0.837153 -0.566301,0.10341 -1.381478,0.501826 -1.811504,0.885371 -0.781866,0.697353 -0.781866,0.697353 0.710085,0.520645 0.820574,-0.09718 1.624804,-0.353176 1.787181,-0.568863 z M 27.289875,31.028513 c -0.741131,-1.290895 -0.399844,-2.505277 0.872867,-3.105863 1.026338,-0.484324 1.104176,-0.460533 1.910111,0.583827 1.001483,1.297758 1.017107,2.204917 0.05133,2.980636 -1.019206,0.818643 -2.211808,0.625676 -2.834317,-0.4586 z m 43.569539,0.833568 c -2.661416,-1.518516 -3.080304,-4.223267 -1.147667,-7.410458 0.947324,-1.562271 0.603886,-3.31675 -0.663878,-3.391463 -1.104372,-0.06508 -1.658742,-0.777614 -1.584546,-2.036608 0.04628,-0.785235 0.35376,-1.192846 1.217168,-1.613518 0.858776,-0.418411 1.119198,-0.761385 1.014754,-1.336418 -0.206687,-1.137974 0.899225,-2.329996 2.096234,-2.259453 1.305247,0.07692 1.862126,0.727502 1.782291,2.082184 -0.06391,1.084457 -0.06391,1.084457 2.38741,0.978415 1.657716,-0.07171 2.610271,0.04251 2.942287,0.352795 0.731898,0.68401 0.496552,2.462148 -0.398888,3.013798 -0.753309,0.464085 -0.750982,0.481137 0.129398,0.946649 1.247406,0.65958 1.244748,2.487162 -0.0049,3.399879 -0.387143,0.282751 -0.834651,0.872876 -0.994465,1.311387 -0.364071,0.998959 -1.383473,1.270241 -3.201097,0.851873 -1.219621,-0.280726 -1.452521,-0.222884 -1.699896,0.422164 -0.529758,1.381406 -0.02536,1.620679 3.263306,1.547999 3.016422,-0.06666 3.09318,-0.04752 3.642106,0.908595 0.509378,0.887234 0.503641,1.053558 -0.06263,1.815837 -1.231808,1.658228 -6.130326,1.892193 -8.716964,0.416342 z m 63.911106,1.731239 c -2.30159,-2.180432 -2.60508,-4.531843 -0.79277,-6.142434 0.89447,-0.794912 1.48957,-1.001224 2.7413,-0.950349 0.87934,0.03573 1.35504,-0.04131 1.05713,-0.171222 -0.95974,-0.418519 -1.7683,-1.418884 -1.72606,-2.135505 0.0226,-0.383777 0.49148,-1.098019 1.04194,-1.587203 0.55047,-0.489183 0.95211,-0.941271 0.89257,-1.004637 -0.0596,-0.06337 -1.09065,-0.0035 -2.2914,0.132935 -1.98171,0.225252 -2.24808,0.175068 -2.88703,-0.543907 -0.8708,-0.979883 -0.51168,-2.472014 0.73467,-3.052319 0.46879,-0.218281 2.61035,-0.366984 4.75898,-0.33045 3.3198,0.05645 3.99489,0.165765 4.49432,0.727739 0.73577,0.827925 0.67128,2.17447 -0.17838,3.722509 -0.62618,1.140988 -0.62025,1.250351 0.13022,2.401409 1.1298,1.732842 1.0648,6.026033 -0.11632,7.684779 -1.87549,2.633815 -5.7477,3.249023 -7.85922,1.248652 z m 3.67372,-2.887643 c 0.13742,-0.195614 -0.10194,-0.376392 -0.5319,-0.401732 -0.42999,-0.02534 -0.68892,0.126073 -0.57541,0.336474 0.1135,0.2104 0.35285,0.39118 0.5319,0.401731 0.17904,0.01056 0.43797,-0.140862 0.57541,-0.336473 z m -49.073699,-0.03789 c -2.161179,-1.25801 -2.029587,-4.370093 0.237547,-5.618061 1.456818,-0.801915 1.720832,-1.9357 0.467952,-2.009536 -2.373186,-0.139859 -2.73302,-2.821421 -0.506496,-3.774537 0.67356,-0.288337 1.131946,-0.628574 1.018624,-0.756085 -0.467915,-0.526526 0.4371,-2.126117 1.368502,-2.418788 1.219611,-0.383233 2.568327,0.492387 2.821853,1.83202 0.149379,0.789326 0.32958,0.886457 1.434675,0.773336 1.617204,-0.165547 3.072556,0.846921 2.999492,2.086708 -0.07673,1.301962 -1.071411,1.991889 -2.730772,1.894097 -1.30064,-0.07665 -1.455649,0.0096 -1.504426,0.837299 -0.03483,0.591097 0.15319,0.934989 0.52312,0.956791 1.15421,0.06802 4.108337,1.817841 4.292154,2.542374 0.551174,2.17246 -1.232304,3.372327 -3.239731,2.179592 -1.495545,-0.888595 -1.756449,-0.852609 -2.465053,0.340008 -0.347984,0.585659 -1.134644,1.182308 -1.812526,1.374717 -1.505378,0.427282 -1.80057,0.4029 -2.904922,-0.23993 z M 103.88455,30.9114 c -1.53874,-1.096925 -1.75829,-1.948956 -1.90162,-7.379633 -0.1386,-5.251556 0.24091,-6.542134 1.95245,-6.639615 1.52609,-0.08692 2.11978,0.905529 1.981,3.311577 -0.22864,3.964693 0.0262,7.159072 0.59165,7.415164 0.29332,0.132848 1.28458,-0.113167 2.20282,-0.5467 1.27068,-0.599945 1.81124,-0.686697 2.2629,-0.363158 1.87786,1.345201 1.33995,3.307927 -1.1629,4.243176 -2.60689,0.974124 -4.52109,0.960942 -5.9263,-0.04081 z m 14.48889,0.683461 c -2.34743,-1.191433 -3.05164,-4.089694 -1.65363,-6.805853 0.79565,-1.545867 0.83339,-1.791147 0.36521,-2.374028 -1.10779,-1.379196 -0.0872,-3.343961 1.68296,-3.239645 0.55464,0.03269 1.16524,0.48146 1.63465,1.201441 0.68134,1.044993 0.887,1.135964 2.26691,1.002657 0.87475,-0.08451 1.88353,-0.493174 2.38148,-0.964756 0.47514,-0.449983 1.19216,-0.798805 1.59336,-0.77516 0.90537,0.05335 1.83389,1.055014 1.78272,1.923153 -0.0211,0.358469 0.57756,1.380736 1.3304,2.271704 1.56556,1.852787 1.90902,3.452124 1.19875,5.581918 -0.74529,2.234737 -1.93624,3.390429 -3.27252,3.175604 -0.6164,-0.09909 -1.30955,-0.525976 -1.56156,-0.961704 -0.39111,-0.676197 -0.34183,-0.964813 0.35993,-2.107156 0.97532,-1.587681 1.08103,-2.538444 0.35742,-3.21471 -0.44448,-0.415392 -0.63655,-0.386466 -1.10923,0.167066 -0.31442,0.368194 -0.60388,1.125894 -0.64323,1.683782 -0.0694,0.983584 -1.27183,2.42514 -1.98769,2.382952 -0.19399,-0.01143 -0.98908,0.358393 -1.76684,0.821836 -1.627,0.969452 -1.52033,0.961128 -2.95909,0.230899 z M 83.130393,29.066844 c -0.645667,-0.878397 -0.371598,-10.308486 0.321134,-11.049714 0.60409,-0.646381 2.391822,-0.583056 2.895792,0.102576 0.516143,0.702186 0.251784,10.654568 -0.298649,11.243536 -0.593195,0.634725 -2.366237,0.454645 -2.918278,-0.296397 z M 39.080605,21.238611 c -1.921719,-3.004245 -2.057004,-3.461129 -1.319022,-4.454586 0.429475,-0.57815 0.986613,-0.84298 1.686636,-0.801725 0.857148,0.05051 1.297583,0.470445 2.446674,2.332773 1.939041,3.142591 1.69772,4.948771 -0.642768,4.810839 -0.770723,-0.04542 -1.272029,-0.481113 -2.17152,-1.887301 z m -8.146755,0.14719 c -0.342783,-0.23268 -0.597738,-0.855784 -0.566568,-1.384676 0.05353,-0.908223 0.01719,-0.92991 -0.654321,-0.390542 -2.000725,1.607015 -4.375841,-1.043495 -2.725762,-3.041812 1.086608,-1.315929 3.591435,-0.273711 3.500055,1.456316 -0.01665,0.316578 0.678523,-0.408603 1.544989,-1.611508 1.649077,-2.289391 2.654163,-2.86042 3.79878,-2.158238 1.030466,0.632157 1.076873,1.759436 0.134448,3.265971 -0.465882,0.744746 -1.242944,1.997446 -1.726804,2.783776 -0.930065,1.511468 -2.104464,1.895509 -3.304817,1.080713 z m 78.15219,-1.140783 c -0.73198,-0.823661 -0.60849,-2.162793 0.26399,-2.863655 0.87722,-0.704591 1.55948,-0.683092 2.52226,0.07949 0.66793,0.529036 0.81152,0.519059 1.44207,-0.100206 0.78107,-0.767089 2.43058,-0.822784 3.06967,-0.103649 0.62288,0.700896 0.39817,2.344139 -0.40925,2.992667 -0.89004,0.714892 -2.45435,0.648203 -3.02561,-0.128991 -0.38251,-0.520381 -0.49926,-0.505636 -0.99976,0.126274 -0.67614,0.853652 -2.10394,0.85269 -2.86344,-0.0019 z"
			style="fill:#000000;fill-opacity:1;stroke:none;"
		/>
	</g>
</svg>
