<?xml version="1.0" encoding="UTF-8" standalone="no"?>
<!-- Created with Inkscape (http://www.inkscape.org/) -->
<svg
	xmlns="http://www.w3.org/2000/svg"
	xmlns:cc="http://creativecommons.org/ns#"
	xmlns:dc="http://purl.org/dc/elements/1.1/"
	xmlns:inkscape="http://www.inkscape.org/namespaces/inkscape"
	xmlns:rdf="http://www.w3.org/1999/02/22-rdf-syntax-ns#"
	xmlns:sodipodi="http://sodipodi.sourceforge.net/DTD/sodipodi-0.dtd"
	xmlns:svg="http://www.w3.org/2000/svg"
	xmlns:xlink="http://www.w3.org/1999/xlink"
	width="176"
	height="48"
	viewBox="0 0 176 48"
	version="1.1"
	xml:space="preserve"
	inkscape:version="1.3 (0e150ed6c4, 2023-07-21)"
	>
	<title>おやすみ</title>
	<metadata>
		<rdf:RDF>
			<cc:Work rdf:about="">
				<cc:license rdf:resource="http://creativecommons.org/licenses/by/4.0/" />
				<dc:title>おやすみ</dc:title>
				<dc:date>2023-10-09</dc:date>
				<dc:creator><cc:Agent><dc:title>zawa-ch.</dc:title></cc:Agent></dc:creator>
				<dc:rights><cc:Agent><dc:title>Copyright 2023 zawa-ch.</dc:title></cc:Agent></dc:rights>
				<dc:identifier>stellar_ch-handwrittenoyasumi</dc:identifier>
				<dc:language>ja_JP</dc:language>
			</cc:Work>
			<cc:License rdf:about="http://creativecommons.org/licenses/by/4.0/">
				<cc:permits rdf:resource="http://creativecommons.org/ns#Reproduction" />
				<cc:permits rdf:resource="http://creativecommons.org/ns#Distribution" />
				<cc:permits rdf:resource="http://creativecommons.org/ns#DerivativeWorks" />
				<cc:requires rdf:resource="http://creativecommons.org/ns#Notice" />
				<cc:requires rdf:resource="http://creativecommons.org/ns#Attribution" />
			</cc:License>
		</rdf:RDF>
	</metadata>
	<sodipodi:namedview
		pagecolor="#505050"
		bordercolor="#eeeeee"
		borderopacity="1"
		inkscape:showpageshadow="0"
		inkscape:pageopacity="0"
		inkscape:pagecheckerboard="0"
		inkscape:deskcolor="#d1d1d1"
		inkscape:document-units="px"
		showgrid="false"
		>
		<inkscape:grid units="px" originx="0" originy="0" spacingx="1" spacingy="1" empspacing="8" dotted="false" gridanglex="30" gridanglez="30" visible="false" />
	</sodipodi:namedview>
	<defs/>
	<g inkscape:groupmode="layer">
		<path
			d="m 8.4326189,43.240613 c -1.349139,-0.730302 -1.857416,-1.377067 -2.261484,-2.877652 -0.947823,-3.519952 0.698534,-6.813686 4.3241251,-8.65091 1.661824,-0.842109 2.255638,-1.388615 2.060727,-1.896546 -0.150598,-0.39245 -0.273813,-1.007413 -0.273813,-1.366584 0,-0.729409 -2.234547,-0.524337 -4.0973811,0.376031 -1.623436,0.784658 -3.402293,-0.207805 -3.402293,-1.898212 0,-1.997243 1.633551,-3.206797 4.851549,-3.592299 2.6822721,-0.321325 2.7354871,-0.355847 2.4324251,-1.577909 -0.868945,-3.503934 -0.850697,-3.721315 0.380028,-4.527718 0.741317,-0.48573 1.577325,-0.662582 2.19916,-0.46522 1.055356,0.334957 2.323808,2.781674 2.323808,4.482394 0,0.871825 0.168947,0.954794 1.289007,0.633022 3.661084,-1.051757 5.714425,-0.146894 5.112139,2.252809 -0.306705,1.222011 -3.048806,2.703165 -5.004442,2.703165 -0.748055,0 -0.927974,0.318077 -0.927974,1.640555 v 1.640553 h 2.251616 c 4.463312,0 9.279508,3.709965 8.915462,6.867671 -0.110827,0.961309 -0.515288,1.444909 -1.494995,1.787513 -1.219921,0.426607 -1.477781,0.313952 -2.812378,-1.228698 -1.808707,-2.090669 -3.03205,-2.739189 -5.167097,-2.739189 -1.543311,0 -1.668706,0.113783 -1.937109,1.757736 -0.998507,6.115808 -4.653939,8.902725 -8.7610801,6.679488 z M 12.27175,36.705902 c -0.0074,-0.516386 -0.271559,-0.390849 -0.900796,0.428029 -0.48971,0.637296 -0.769213,1.354767 -0.621128,1.59438 0.339023,0.54855 1.53591,-1.041934 1.521924,-2.022409 z m 124.92688,5.779225 c -1.51997,-0.380448 -3.60965,-1.185939 -5.79825,-2.234996 -1.53273,-0.734682 -2.55528,-1.75833 -4.06182,-4.066193 -2.9063,-4.452183 -3.26071,-6.895661 -1.90482,-13.132709 1.57504,-7.245185 3.48318,-10.449022 8.43103,-14.1560949 2.92242,-2.1895558 5.47128,-3.035476 7.02003,-2.3298189 1.60428,0.7309576 1.7467,2.0832811 0.49487,4.6989728 -2.35542,4.921676 -2.43647,11.197413 -0.21073,16.318146 1.40212,3.225886 5.00564,5.814766 8.09369,5.814766 2.07514,0 3.63844,1.150279 3.63844,2.677168 0,1.673301 -2.96738,4.378629 -5.91993,5.397153 -2.42135,0.835271 -8.1313,1.426903 -9.78251,1.013606 z m 6.79658,-5.385288 c 0,-0.231843 -0.2867,-0.421532 -0.6371,-0.421532 -1.21171,0 -4.93954,-3.792497 -6.12116,-6.227336 -1.99909,-4.119313 -2.7692,-8.027874 -2.46719,-12.52185 l 0.26774,-3.984202 -1.17162,1.406189 c -1.93088,2.31747 -2.90047,4.571802 -3.75043,8.719899 -0.95137,4.642967 -0.71005,6.493538 1.2284,9.420074 1.46304,2.208786 3.76391,3.577271 6.86445,4.082754 2.20418,0.35935 5.78691,0.06589 5.78691,-0.473996 z m -73.017534,2.598632 c -1.245259,-0.872212 -1.373212,-2.814457 -0.266013,-4.037898 0.692896,-0.765641 0.696737,-0.857184 0.03596,-0.857184 -1.211204,0 -3.522353,-2.25569 -4.097876,-3.999542 -0.40469,-1.226223 -0.402102,-2.032047 0.01055,-3.282371 0.668197,-2.024656 1.885718,-2.857107 4.798999,-3.2812 1.42971,-0.208126 2.226466,-0.556673 2.226466,-0.973985 0,-0.785401 -1.090035,-0.813996 -5.009687,-0.131418 -3.421747,0.595871 -4.364907,0.183294 -4.364907,-1.90939 0,-2.120666 1.351497,-2.880403 5.64779,-3.174878 l 3.840595,-0.26324 -0.271515,-2.292516 c -0.222967,-1.882605 -0.107424,-2.456606 0.646199,-3.210229 2.05999,-2.05999 4.198821,-0.508016 4.198821,3.046739 v 2.250082 l 3.719651,-0.324469 c 3.618649,-0.315659 3.740617,-0.29247 4.491802,0.853983 0.937193,1.430338 0.550764,3.001213 -0.869069,3.53286 -0.557994,0.208937 -2.4383,0.530036 -4.178458,0.713552 l -3.163926,0.333666 -0.01447,2.423523 c -0.04217,7.062099 -1.446645,11.749595 -4.219505,14.082803 -1.713822,1.442085 -1.798754,1.455548 -3.161402,0.501112 z m 1.536258,-10.051109 c 0.15933,-0.2578 -0.03915,-0.468729 -0.441067,-0.468729 -0.401917,0 -0.730758,0.210929 -0.730758,0.468729 0,0.257802 0.198481,0.46873 0.441068,0.46873 0.242586,0 0.571427,-0.210928 0.730757,-0.46873 z m -26.836676,8.580256 c -0.507627,-0.72322 -1.814938,-2.94964 -2.905134,-4.947601 -1.090196,-1.99796 -2.187905,-3.632655 -2.439353,-3.632655 -0.251448,0 -0.879312,0.22592 -1.395254,0.502044 -0.715897,0.383136 -1.208173,0.325068 -2.078468,-0.245171 -1.494675,-0.979348 -1.480618,-2.733587 0.03144,-3.922966 1.414035,-1.11228 1.425976,-1.253331 0.234366,-2.768219 -1.182422,-1.503205 -1.18797,-2.568278 -0.01888,-3.626282 1.22791,-1.111244 2.985981,-0.638225 4.31648,1.161372 1.193852,1.614772 1.423596,1.665097 2.971463,0.650895 1.099818,-0.720628 1.116747,-0.810498 0.452238,-2.400891 -0.874998,-2.094164 -0.867246,-2.700083 0.04623,-3.613555 1.614261,-1.614261 3.997332,-0.494741 4.66811,2.192985 0.311836,1.249489 0.420169,1.289007 3.533731,1.289007 2.70067,0 3.364188,0.163317 4.167754,1.025843 1.929418,2.070988 0.823386,6.94256 -1.576226,6.94256 -1.24432,0 -2.624082,-1.340758 -2.624082,-2.549903 0,-0.710957 -0.262078,-0.786944 -1.757736,-0.509644 -2.047483,0.379611 -6.210668,2.527127 -6.210668,3.203679 0,0.387467 1.467696,3.132966 5.02112,9.392607 0.78444,1.381851 -0.223609,2.839138 -2.094364,3.027719 -1.113033,0.1122 -1.619202,-0.140981 -2.342747,-1.171824 z m 45.63971,-2.996886 c -2.604343,-2.048577 -3.37416,-5.450725 -1.711609,-7.564318 1.018935,-1.295362 4.287928,-2.843281 8.083148,-3.827501 2.00188,-0.51915 2.448833,-0.81219 2.316443,-1.51879 -0.0902,-0.481542 -0.406603,-1.030496 -0.703093,-1.2199 -0.80424,-0.513773 -3.5161,-0.429015 -4.58551,0.14332 -0.7159,0.383136 -1.20818,0.325068 -2.07847,-0.245171 -1.44726,-0.948282 -1.47057,-2.595651 -0.0555,-3.925004 0.89158,-0.837596 1.64582,-1.019165 4.23362,-1.019165 5.078653,0 7.027773,1.287423 7.983473,5.273209 0.2394,0.998401 0.58516,1.289006 1.53369,1.289006 1.15436,0 1.21044,-0.105601 0.97771,-1.840831 -0.29527,-2.201298 0.61932,-3.783925 2.18668,-3.783925 1.66685,0 2.62408,1.422753 2.62408,3.900239 0,2.053719 0.10371,2.235683 1.7154,3.009834 2.27367,1.092121 2.84234,2.050386 2.13631,3.599943 -0.45439,0.997272 -0.86907,1.208225 -2.37508,1.208225 h -1.82458 l -0.32489,2.449114 c -0.39122,2.949213 -0.89655,3.644372 -2.64917,3.644372 -1.84579,0 -2.44144,-1.304727 -2.04483,-4.479043 0.31149,-2.493111 0.2919,-2.551902 -0.85013,-2.551902 -0.86041,0 -1.3248,0.376214 -1.75934,1.425278 -1.09958,2.654614 -3.30665,5.197596 -5.294223,6.099968 -2.67743,1.215577 -5.94048,1.186577 -7.534089,-0.06696 z m 6.383789,-5.1009 c 1.15666,-1.052142 1.33261,-1.395807 0.71998,-1.406189 -1.40289,-0.02377 -4.5796,1.465135 -4.5796,2.146438 0,1.145729 2.26356,0.711592 3.85962,-0.740249 z m 66.801373,3.229823 c -0.45115,-0.262773 -0.82028,-1.016983 -0.82028,-1.676023 0,-0.719851 -0.46785,-1.566268 -1.17182,-2.120012 -1.65668,-1.303144 -1.46045,-2.558243 0.73276,-4.686677 2.13982,-2.076619 4.09167,-2.312057 4.85053,-0.585082 0.235,0.534792 1.02598,1.315962 1.75773,1.735935 1.85058,1.062086 1.81677,2.917723 -0.0727,3.992915 -0.77178,0.439161 -1.40456,1.062136 -1.40619,1.384388 -0.004,0.767066 -1.71359,2.464827 -2.4638,2.446577 -0.32224,-0.0078 -0.95503,-0.229249 -1.40619,-0.492021 z M 26.692618,27.693549 c -2.114291,-1.14506 -2.718312,-2.815971 -1.503286,-4.158559 0.457212,-0.505215 1.135852,-0.918572 1.508087,-0.918572 1.234241,0 3.924481,1.529629 4.657317,2.648077 0.653268,0.997014 0.648904,1.213167 -0.04591,2.273584 -0.925799,1.412948 -2.214225,1.456341 -4.616208,0.15547 z M 156.27593,17.366645 c -0.30937,-0.309361 -0.56248,-1.364003 -0.56248,-2.343648 0,-1.749923 -0.0313,-1.781173 -1.78117,-1.781173 -1.99451,0 -2.90962,-0.658434 -2.89895,-2.085847 0.0116,-1.5598698 0.72036,-2.2462875 2.6392,-2.556189 1.68964,-0.2728869 1.82172,-0.4121142 2.04092,-2.1514247 0.1892,-1.5012234 0.48008,-1.945664 1.50918,-2.3058869 1.66629,-0.58326 3.17812,0.6867119 3.17812,2.6696877 0,1.3512782 0.054,1.3848182 1.78357,1.1082452 2.17262,-0.3474153 3.84118,0.6406789 3.84118,2.2746727 0,1.474806 -1.64929,2.578012 -3.85413,2.578012 -1.7173,0 -1.77062,0.05034 -1.77062,1.67137 0,2.370649 -0.72455,3.484657 -2.2664,3.484657 -0.71277,0 -1.54906,-0.253114 -1.85842,-0.562476 z"
			style="fill:#7d7dff;fill-opacity:1;stroke:none;"
		/>
	</g>
</svg>
