<?xml version="1.0" encoding="UTF-8" standalone="no"?>
<!-- Created with Inkscape (http://www.inkscape.org/) -->
<svg
	xmlns="http://www.w3.org/2000/svg"
	xmlns:cc="http://creativecommons.org/ns#"
	xmlns:dc="http://purl.org/dc/elements/1.1/"
	xmlns:inkscape="http://www.inkscape.org/namespaces/inkscape"
	xmlns:rdf="http://www.w3.org/1999/02/22-rdf-syntax-ns#"
	xmlns:sodipodi="http://sodipodi.sourceforge.net/DTD/sodipodi-0.dtd"
	xmlns:svg="http://www.w3.org/2000/svg"
	xmlns:xlink="http://www.w3.org/1999/xlink"
	width="288"
	height="48"
	viewBox="0 0 288 48"
	version="1.1"
	xml:space="preserve"
	inkscape:version="1.3 (0e150ed6c4, 2023-07-21)"
	>
	<title>たいたいきーん</title>
	<metadata>
		<rdf:RDF>
			<cc:Work rdf:about="">
				<cc:license rdf:resource="http://creativecommons.org/licenses/by/4.0/" />
				<dc:title>たいたいきーん</dc:title>
				<dc:date>2023-10-19</dc:date>
				<dc:creator><cc:Agent><dc:title>zawa-ch.</dc:title></cc:Agent></dc:creator>
				<dc:rights><cc:Agent><dc:title>Copyright 2023 zawa-ch.</dc:title></cc:Agent></dc:rights>
				<dc:identifier>stellar_ch-handwrittentaitaikin</dc:identifier>
				<dc:language>ja_JP</dc:language>
			</cc:Work>
			<cc:License rdf:about="http://creativecommons.org/licenses/by/4.0/">
				<cc:permits rdf:resource="http://creativecommons.org/ns#Reproduction" />
				<cc:permits rdf:resource="http://creativecommons.org/ns#Distribution" />
				<cc:permits rdf:resource="http://creativecommons.org/ns#DerivativeWorks" />
				<cc:requires rdf:resource="http://creativecommons.org/ns#Notice" />
				<cc:requires rdf:resource="http://creativecommons.org/ns#Attribution" />
			</cc:License>
		</rdf:RDF>
	</metadata>
	<sodipodi:namedview
		pagecolor="#505050"
		bordercolor="#eeeeee"
		borderopacity="1"
		inkscape:showpageshadow="0"
		inkscape:pageopacity="0"
		inkscape:pagecheckerboard="0"
		inkscape:deskcolor="#d1d1d1"
		inkscape:document-units="px"
		showgrid="false"
		>
		<inkscape:grid units="px" originx="0" originy="0" spacingx="1" spacingy="1" empspacing="8" dotted="false" gridanglex="30" gridanglez="30" visible="false" />
	</sodipodi:namedview>
	<defs/>
	<g inkscape:groupmode="layer">
		<path
			d="M 8.2207359,42.39509 C 6.359905,40.368566 6.3490827,40.496768 8.9875222,33.307239 c 2.3999408,-6.53964 2.7321728,-8.249121 1.4651388,-7.53877 -1.5789688,0.885234 -4.5502308,-2.063705 -4.4499448,-4.416512 0.1133706,-2.659774 1.0596511,-3.458038 5.3866068,-4.54404 3.290533,-0.825874 4.203025,-2.012961 4.384447,-5.703866 0.0988,-2.0089162 2.498694,-4.1025793 4.600068,-4.0130104 2.026806,0.08639 4.039831,2.5323153 3.943532,4.7915874 -0.06484,1.521233 0.214236,1.712311 1.971768,1.349988 2.92818,-0.603658 5.690932,1.575597 5.570791,4.394234 -0.117191,2.749398 -1.060044,3.46873 -6.036865,4.60571 l -3.931991,0.898282 -3.510938,9.289972 C 16.44912,37.530298 14.364947,42.257456 13.748634,42.925608 12.233309,44.568404 10.021436,44.35613 8.2207359,42.39509 Z M 29.308788,41.155915 c -4.703269,-0.52383 -6.928238,-2.10367 -6.811745,-4.836677 0.07883,-1.849546 2.021582,-4.131834 3.464772,-4.070319 0.463254,0.01975 0.290635,-0.628463 -0.3836,-1.440466 -0.67423,-0.812 -1.186428,-2.401782 -1.138217,-3.532849 0.110848,-2.600672 3.395373,-4.253727 9.140463,-4.60027 3.486171,-0.210285 4.346594,0.01291 5.69002,1.475953 1.897693,2.066669 1.931257,3.878309 0.115768,6.248655 -1.105135,1.442889 -1.854554,1.673112 -4.142634,1.272627 -1.536379,-0.268915 -3.494252,-0.272434 -4.350826,-0.0078 -1.117477,0.345213 -0.40824,0.68369 2.510755,1.198237 4.351962,0.767143 7.030194,2.854079 6.921945,5.393727 -0.09284,2.178343 -2.296253,3.873295 -4.687063,3.605492 -1.141799,-0.127901 -3.990137,-0.445729 -6.329637,-0.706293 z m 19.40001,-4.686402 c -2.653107,-3.016539 -3.36524,-6.321577 -3.034421,-14.082907 0.229388,-5.381651 0.535323,-6.658446 1.894488,-7.90648 2.018982,-1.853905 4.117883,-1.81342 5.715159,0.110231 0.932849,1.123461 1.160324,3.014296 0.95164,7.910236 -0.245083,5.749891 -0.07565,6.691378 1.593703,8.856113 4.24471,5.504302 -2.510289,10.354611 -7.120569,5.112802 z m 46.117821,2.038366 c -1.060449,-0.242068 -2.35003,-0.81787 -2.865736,-1.279562 -1.290103,-1.154981 -1.028987,-4.537946 0.46745,-6.056192 1.098776,-1.114795 1.117895,-1.508148 0.172006,-3.53854 -0.892623,-1.915993 -0.887339,-2.531106 0.03277,-3.814826 1.64478,-2.294752 4.730104,-3.357322 9.521731,-3.27924 5.00114,0.08149 7.37915,1.779895 7.23478,5.167144 -0.12586,2.952723 -1.5163,3.722127 -6.29164,3.481514 -2.27274,-0.114522 -4.53227,0.159091 -5.021164,0.608014 -0.6449,0.592173 0.294273,0.866658 3.421384,0.999949 6.14364,0.261866 8.36231,3.174082 5.38234,7.064808 -1.09055,1.423856 -1.94891,1.631727 -5.70475,1.381545 -2.43158,-0.161977 -5.288691,-0.492549 -6.349141,-0.734613 z m 64.804191,0.406064 c -6.28842,-4.13206 -7.11366,-7.857247 -2.23283,-10.079082 1.17789,-0.536194 1.45085,-1.024371 0.90511,-1.618718 -0.4298,-0.468044 -0.62381,-1.850654 -0.43117,-3.072465 0.27752,-1.760108 1.17621,-2.627256 4.32724,-4.175307 2.18735,-1.074607 3.52777,-1.981165 2.97874,-2.01457 -0.54901,-0.03343 -1.83596,0.438514 -2.85985,1.04871 -3.80426,2.267169 -8.03402,-2.08438 -5.7616,-5.927488 0.4832,-0.817168 1.96005,-1.880673 3.28191,-2.363341 1.32187,-0.482669 2.42164,-1.3056257 2.44393,-1.828791 0.0826,-1.9402224 3.1136,-3.6147439 5.35533,-2.9587328 2.71068,0.7932437 3.72845,0.8395995 7.66036,0.3489034 2.45523,-0.3064095 3.47411,-0.085243 4.43671,0.9630752 1.65317,1.8003625 1.48301,4.0273972 -0.44285,5.7957752 -1.54583,1.419446 -1.54257,1.452501 0.27195,2.755137 2.2464,1.612689 2.27703,4.434783 0.068,6.268979 -1.08132,0.897858 -1.65671,2.327881 -1.74202,4.329516 -0.13493,3.165389 -2.34061,6.009464 -4.58635,5.913742 -2.11487,-0.09014 -3.96687,-1.618297 -4.37797,-3.612443 l -0.39716,-1.926368 -3.15664,1.170293 c -1.73617,0.643659 -3.17126,1.429499 -3.18911,1.746305 -0.0182,0.316795 1.84708,1.745006 4.14433,3.173776 4.46084,2.774427 5.62011,5.048103 3.98436,7.814507 -1.45897,2.467408 -5.19151,1.855336 -10.6805,-1.751413 z M 79.546601,35.656866 c -2.070626,-1.58593 -2.021737,-3.571744 0.229138,-9.30749 l 1.753638,-4.46868 -1.489536,-1.727406 c -2.699873,-3.131018 -1.479497,-6.480688 2.814653,-7.725615 2.054617,-0.595658 2.876159,-1.446544 3.910586,-4.0502587 1.54535,-3.8897275 3.099432,-4.9759915 5.920978,-4.1386045 1.478688,0.4388495 2.165351,1.256628 2.418767,2.8806415 0.32044,2.0534811 0.591875,2.2395393 2.87191,1.9685985 2.942995,-0.349721 5.051295,1.4369522 4.934305,4.1815712 -0.10016,2.349704 -2.10258,3.809752 -6.615413,4.823559 -2.045912,0.459614 -4.046369,1.216107 -4.44545,1.681097 -0.39909,0.464988 -1.806096,3.778062 -3.12668,7.362385 -1.477276,4.009624 -3.166263,7.158462 -4.389938,8.184344 -2.362712,1.980802 -2.61607,1.998579 -4.786958,0.335858 z M 66.916334,34.099721 c -0.975033,-0.860802 -1.821803,-2.846742 -2.09672,-4.917454 -0.253636,-1.910427 -0.649152,-4.734657 -0.878925,-6.276063 -0.313887,-2.105669 -0.0804,-3.112347 0.938966,-4.048366 1.761481,-1.617457 4.595108,-1.468783 6.009791,0.315322 2.598509,3.277062 3.511662,13.302732 1.350931,14.832096 -2.074725,1.468491 -3.73433,1.497938 -5.324043,0.09447 z m 50.305896,-0.781346 c -2.15762,-2.536755 -2.72786,-5.768611 -2.4511,-13.891794 0.17587,-5.162136 0.44354,-6.244118 1.76342,-7.128187 0.85582,-0.573251 2.1638,-1.01637 2.90662,-0.984708 2.6248,0.111874 3.45518,2.193186 3.64891,9.14566 0.1241,4.453983 0.58171,7.263875 1.32969,8.164689 1.52925,1.841731 1.33311,4.237227 -0.46951,5.733998 -2.1388,1.775929 -4.66531,1.38552 -6.72803,-1.039658 z m 105.61783,2.21631 c -0.92183,-0.706038 -1.64757,-1.951435 -1.61279,-2.767552 0.0347,-0.816112 2.08988,-4.826237 4.56688,-8.911383 2.477,-4.085148 5.40836,-9.141145 6.51415,-11.235548 1.62091,-3.0700939 2.43592,-3.8385032 4.20584,-3.9653872 4.82666,-0.3460158 5.52303,3.4330602 1.92987,10.4729492 l -2.2416,4.391846 1.79511,1.515856 c 2.04188,1.724259 6.20939,3.266589 9.1868,3.399909 2.23222,0.09994 4.49913,2.330301 4.41338,4.342165 -0.0305,0.714513 -0.82971,2.010151 -1.77615,2.879193 -1.49046,1.368612 -2.28412,1.489398 -5.93019,0.902524 -2.31519,-0.372654 -5.93638,-1.647219 -8.04711,-2.832365 l -3.83766,-2.154812 -2.66273,2.669299 c -2.95605,2.963363 -4.04151,3.179214 -6.5038,1.293306 z m -83.57458,-5.090539 c -0.76369,-0.831694 -1.05945,-2.730728 -0.91146,-5.8521 0.12046,-2.541475 0.002,-5.008251 -0.26353,-5.481727 -0.26546,-0.473476 0.13126,-1.715964 0.88153,-2.761088 1.06701,-1.486292 1.90066,-1.824977 3.82701,-1.554797 3.15731,0.44283 4.376,3.138683 4.2865,9.482033 -0.0576,4.084177 -0.31388,4.880803 -1.96485,6.108052 -2.28752,1.700428 -4.32946,1.721221 -5.8552,0.05962 z m 120.45522,4.000186 c -1.00471,-1.209997 -1.19458,-2.425567 -0.7869,-5.037434 0.39768,-2.54779 0.18539,-4.029272 -0.81661,-5.699755 -0.74467,-1.241443 -1.32552,-2.978354 -1.29078,-3.859801 0.0735,-1.887274 2.59058,-4.571938 4.8621,-5.187737 0.88127,-0.238913 1.62169,-0.888337 1.64535,-1.443167 0.0236,-0.554831 0.80725,-1.899547 1.74136,-2.988261 2.24249,-2.6136505 5.7037,-2.5113208 8.04192,0.237759 1.12359,1.32102 2.55537,2.055771 4.13743,2.123205 3.48131,0.148387 5.21799,3.224843 4.00585,7.09624 -0.64338,2.054835 -0.64523,3.485592 -0.007,5.178871 2.10049,5.57044 -0.30779,8.896531 -6.2782,8.67084 -1.95056,-0.07368 -5.1008,0.492857 -7.00054,1.259091 -4.36653,1.761183 -6.57923,1.667399 -8.25424,-0.349845 z m 11.64136,-9.646506 c 0.82625,0.03522 0.20783,-3.791785 -0.71389,-4.417154 -0.4065,-0.275829 -1.28866,0.0032 -1.96031,0.619858 -1.54905,1.422387 -0.83896,4.747191 0.88993,4.166933 0.64806,-0.217506 1.45099,-0.383844 1.78427,-0.369637 z m -82.04823,1.58553 c -1.77065,-1.928326 -1.42074,-4.891856 0.72884,-6.172919 1.94795,-1.160907 13.04048,-2.19983 20.29647,-1.900964 3.94678,0.162625 4.59332,0.420511 5.69735,2.273041 1.11614,1.872861 1.11734,2.297091 0.0117,4.088884 -1.1498,1.863259 -1.70902,2.011096 -8.22309,2.173906 -3.84419,0.09608 -9.30225,0.33593 -12.12902,0.533003 -4.28038,0.298414 -5.34731,0.132085 -6.3822,-0.994951 z"
			style="fill:#daa520;fill-opacity:1;stroke:none;"
		/>
	</g>
</svg>
