<?xml version="1.0" encoding="UTF-8" standalone="no"?>
<!-- Created with Inkscape (http://www.inkscape.org/) -->
<svg
	xmlns="http://www.w3.org/2000/svg"
	xmlns:cc="http://creativecommons.org/ns#"
	xmlns:dc="http://purl.org/dc/elements/1.1/"
	xmlns:inkscape="http://www.inkscape.org/namespaces/inkscape"
	xmlns:rdf="http://www.w3.org/1999/02/22-rdf-syntax-ns#"
	xmlns:sodipodi="http://sodipodi.sourceforge.net/DTD/sodipodi-0.dtd"
	xmlns:svg="http://www.w3.org/2000/svg"
	xmlns:xlink="http://www.w3.org/1999/xlink"
	width="200"
	height="48"
	viewBox="0 0 200 48"
	version="1.1"
	xml:space="preserve"
	inkscape:version="1.3 (0e150ed6c4, 2023-07-21)"
	>
	<title>実績解除!</title>
	<metadata>
		<rdf:RDF>
			<cc:Work rdf:about="">
				<cc:license rdf:resource="http://creativecommons.org/licenses/by/4.0/" />
				<dc:title>実績解除!</dc:title>
				<dc:date>2023-10-19</dc:date>
				<dc:creator><cc:Agent><dc:title>zawa-ch.</dc:title></cc:Agent></dc:creator>
				<dc:rights><cc:Agent><dc:title>Copyright 2023 zawa-ch.</dc:title></cc:Agent></dc:rights>
				<dc:identifier>stellar_ch-handwrittenjissekikaijo</dc:identifier>
				<dc:language>ja_JP</dc:language>
			</cc:Work>
			<cc:License rdf:about="http://creativecommons.org/licenses/by/4.0/">
				<cc:permits rdf:resource="http://creativecommons.org/ns#Reproduction" />
				<cc:permits rdf:resource="http://creativecommons.org/ns#Distribution" />
				<cc:permits rdf:resource="http://creativecommons.org/ns#DerivativeWorks" />
				<cc:requires rdf:resource="http://creativecommons.org/ns#Notice" />
				<cc:requires rdf:resource="http://creativecommons.org/ns#Attribution" />
			</cc:License>
		</rdf:RDF>
	</metadata>
	<sodipodi:namedview
		pagecolor="#505050"
		bordercolor="#eeeeee"
		borderopacity="1"
		inkscape:showpageshadow="0"
		inkscape:pageopacity="0"
		inkscape:pagecheckerboard="0"
		inkscape:deskcolor="#d1d1d1"
		inkscape:document-units="px"
		showgrid="false"
		>
		<inkscape:grid units="px" originx="0" originy="0" spacingx="1" spacingy="1" empspacing="8" dotted="false" gridanglex="30" gridanglez="30" visible="false" />
	</sodipodi:namedview>
	<defs/>
	<g inkscape:groupmode="layer">
		<path
			d="m 17.260502,43.244856 c -1.225155,-0.576096 -0.989262,-2.057859 0.822381,-5.165784 0.864477,-1.483034 1.581745,-2.874214 1.59393,-3.091512 0.01218,-0.217297 -1.292469,-0.383095 -2.89923,-0.368438 -2.131896,0.01944 -3.116578,-0.314932 -3.64367,-1.23731 -1.079408,-1.888899 0.275041,-2.685083 4.939683,-2.903688 2.221562,-0.104112 4.203264,-0.424231 4.403781,-0.711378 0.200516,-0.287147 -0.25479,-0.396685 -1.011792,-0.24342 -0.896557,0.181519 -1.615823,-0.236125 -2.06326,-1.198041 -0.859445,-1.84767 0.84087,-3.620557 3.338057,-3.48053 1.511722,0.08477 3.065265,-0.950699 2.453411,-1.635246 -0.133382,-0.149229 -1.805422,-0.02853 -3.715646,0.268217 -2.877417,0.447 -3.651305,0.340202 -4.511914,-0.622656 -1.591824,-1.780947 0.153373,-3.113696 4.951442,-3.781249 2.976783,-0.414157 4.289137,-0.960221 4.838859,-2.013423 0.979049,-1.875743 2.144659,-2.1369 3.378133,-0.756879 0.544235,0.608896 2.381265,1.285527 4.082288,1.503624 2.485112,0.318628 3.078019,0.659613 3.017691,1.735493 -0.08963,1.598409 -1.340152,2.265244 -4.942225,2.635417 -1.473462,0.151423 -2.698065,0.614964 -2.721343,1.030092 -0.02654,0.473195 0.854978,0.637987 2.362873,0.441722 1.703488,-0.221723 2.64604,0.01265 3.230716,0.803352 1.283535,1.735818 0.178324,3.104182 -2.801868,3.468999 -4.312669,0.527931 -5.479256,1.566323 -1.424618,1.26807 1.920968,-0.141305 4.104911,-0.593163 4.853207,-1.00413 1.714201,-0.941446 3.780248,0.347584 3.671298,2.290565 -0.05047,0.900048 -0.902695,1.565559 -2.599854,2.030247 -2.524774,0.691294 -2.524774,0.691294 1.823234,2.89606 3.527403,1.788658 4.29303,2.478723 4.056706,3.656339 -0.473127,2.357629 -2.97578,1.943242 -8.924451,-1.477703 -3.054101,-1.756345 -6.190764,-3.229119 -6.970363,-3.272835 -0.956649,-0.05364 -1.967414,0.871043 -3.109168,2.844385 -2.086171,3.605613 -4.493632,6.692065 -5.133539,6.581379 -0.263834,-0.04564 -0.86897,-0.266018 -1.344749,-0.489739 z m 54.266738,0.198667 c -0.782859,-0.875871 -0.346388,-2.894224 0.810943,-3.750003 0.694594,-0.513612 0.899007,-1.142815 0.53766,-1.65497 -0.320649,-0.454473 -0.65712,-3.46952 -0.747714,-6.700109 -0.159661,-5.693495 -0.113175,-5.891162 1.514379,-6.439556 1.412928,-0.476076 1.228963,-0.570095 -1.160525,-0.593111 -2.588232,-0.02493 -2.830864,-0.183506 -2.740714,-1.791218 0.08578,-1.529603 0.60002,-1.868174 3.871959,-2.549223 4.400035,-0.915859 5.195975,-2.271817 1.062226,-1.809597 -3.064149,0.34262 -3.966158,-0.425053 -3.118596,-2.654143 0.362414,-0.953148 1.400821,-1.47394 3.335962,-1.673086 4.382542,-0.451008 3.46323,-1.665746 -1.028172,-1.358584 -3.250253,0.222281 -3.976798,0.06838 -4.290235,-0.908793 -0.581991,-1.8144091 1.117228,-3.0894943 4.542085,-3.4083583 2.453758,-0.2284513 3.178809,-0.6082171 3.416124,-1.7892946 0.363292,-1.8080495 2.788865,-2.3004612 3.782786,-0.7679374 0.448674,0.6918118 1.760321,1.1236408 3.533164,1.1632156 2.548893,0.056897 2.810189,0.2303278 2.721805,1.8065318 -0.08024,1.4311417 -0.579892,1.8294399 -2.788212,2.2226519 -1.942096,0.345808 -2.711436,0.853391 -2.765908,1.824845 -0.05737,1.023276 0.433589,1.37433 2.048727,1.464897 1.787205,0.100214 2.108617,0.396718 2.026062,1.869021 -0.07598,1.354868 -0.626719,1.882943 -2.43961,2.339202 -2.153344,0.541942 -2.078335,0.574137 0.9335,0.400692 2.41403,-0.13902 3.494713,0.108558 4.110816,0.941761 1.33356,1.803471 0.196058,3.0595 -3.133268,3.459756 -2.60562,0.313252 -2.825762,0.45357 -1.406776,0.896674 2.854506,0.891372 4.361033,4.01932 4.148154,8.612649 -0.104043,2.244778 -0.477913,4.594226 -0.830834,5.220996 -0.505308,0.897401 -0.197739,1.263505 1.447269,1.722705 2.441893,0.681652 3.288393,2.519772 1.780915,3.867164 -0.905333,0.809192 -1.546639,0.777663 -4.442531,-0.21841 -1.998177,-0.687294 -3.646406,-1.758713 -4.023977,-2.615758 -0.876085,-1.98864 -2.834698,-1.561301 -5.560544,1.213222 -2.113148,2.150884 -4.125864,2.798534 -5.14692,1.656168 z m 11.39386,-9.32771 c 0.218688,-0.217775 -0.689254,-0.251171 -2.017651,-0.07421 -1.328391,0.176955 -2.853375,0.297171 -3.388848,0.267145 -0.535472,-0.03003 -0.989553,0.230166 -1.009068,0.578204 -0.03639,0.648876 5.679515,-0.03816 6.415567,-0.771134 z M 76.887316,23.856004 c -0.245065,-0.274181 -0.669903,-0.298003 -0.944082,-0.05294 -0.274182,0.245065 -0.07367,0.469394 0.445572,0.49851 0.519245,0.02912 0.743575,-0.171391 0.49851,-0.445572 z M 58.976171,41.615115 c -0.03036,-0.490026 -0.09336,-1.372541 -0.14001,-1.961145 -0.04665,-0.588603 -0.04009,-2.711751 0.01458,-4.718105 0.09939,-3.647916 0.09939,-3.647916 -2.826236,-3.077483 -2.445858,0.476889 -3.109314,0.364597 -4.045763,-0.684754 -1.204662,-1.349903 -1.17214,-1.427238 3.557638,-8.46001 1.422182,-2.114661 1.422182,-2.114661 -0.727777,-5.120274 -1.903782,-2.661459 -2.040895,-3.190521 -1.19747,-4.62048 1.974833,-3.3481647 4.694244,-6.0219274 6.047558,-5.9460414 2.200975,0.1234162 2.241779,1.9239463 0.10687,4.7156654 -1.797906,2.351033 -1.87366,2.671141 -0.913412,3.859692 0.988243,1.2232 1.142139,1.197306 2.738279,-0.460729 1.924868,-1.999513 4.037346,-1.60401 3.906393,0.731362 -0.0449,0.800662 -1.767563,3.510858 -3.828149,6.022659 -2.060585,2.5118 -3.657505,4.667364 -3.548712,4.790141 0.108793,0.122778 0.994569,0.07009 1.96839,-0.117083 1.362453,-0.26187 1.721182,-0.709928 1.55627,-1.943795 -0.251149,-1.879074 1.465744,-3.409703 3.03397,-2.704814 1.760504,0.791315 5.897428,6.923644 5.564428,8.24838 -0.409774,1.630162 -2.866853,1.877725 -3.834117,0.386305 -0.452513,-0.697728 -1.269133,-1.040854 -1.954198,-0.821112 -1.672344,0.536422 -1.523165,1.626657 0.236077,1.725304 2.06562,0.115827 5.44746,2.976873 5.360109,4.534666 -0.101969,1.818491 -2.155328,2.268327 -4.031199,0.883128 -2.499467,-1.845679 -3.153512,-1.551069 -2.788161,1.255907 0.207429,1.593672 -0.01455,2.879665 -0.607164,3.517396 -1.134938,1.221357 -3.571801,1.198124 -3.648195,-0.03477 z m -8.611388,-0.778826 c -0.860127,-0.962319 -0.309282,-2.628148 1.611634,-4.873796 2.12024,-2.478664 3.374732,-2.760461 4.644477,-1.043293 0.680867,0.920785 0.453192,1.597469 -1.290062,3.834247 -1.951909,2.504505 -3.870083,3.309018 -4.966049,2.082842 z m 45.581305,0.721 c -0.01297,-0.489053 0.160756,-3.27607 0.386132,-6.193373 0.225361,-2.917303 0.199178,-7.694307 -0.05822,-10.615564 -0.386373,-4.385366 -0.28311,-5.4766 0.592309,-6.259056 0.766979,-0.68553 1.400151,-0.731631 2.28896,-0.166662 1.423141,0.904617 4.560901,-0.02053 4.636401,-1.367009 0.0259,-0.461284 0.71662,-1.379673 1.53501,-2.040866 0.8184,-0.661191 1.50309,-1.471412 1.52154,-1.800488 0.0502,-0.895054 -5.21732,-1.016619 -6.19478,-0.142965 -1.268328,1.133643 -3.031421,0.0083 -2.926229,-1.867675 0.05539,-0.987385 1.277337,-2.6826318 3.046489,-4.2264372 2.49678,-2.1787392 3.11546,-2.4277686 3.9968,-1.6087863 0.57351,0.5329339 1.01694,1.4293709 0.98539,1.9920816 -0.0389,0.694323 0.39706,0.9064349 1.35673,0.660045 0.77776,-0.1996858 2.08031,0.043025 2.89457,0.5393562 1.28633,0.7840825 1.41121,1.3551034 0.95236,4.3544827 -0.40479,2.645943 -0.29686,3.46503 0.46223,3.507594 1.75333,0.09832 4.20773,3.584263 4.84372,6.879449 0.50722,2.628058 0.86554,3.154712 1.99128,2.926791 1.59671,-0.323277 1.63116,-0.435076 0.73056,-2.371224 -0.47318,-1.017273 -0.43866,-1.714708 0.11433,-2.309809 0.43572,-0.468883 1.35064,-2.003302 2.03319,-3.409822 1.2383,-2.551792 1.23734,-2.55661 -0.44502,-2.233252 -1.95593,0.375942 -3.51359,-1.245221 -2.77508,-2.888231 0.27519,-0.612255 2.03123,-1.323615 4.04569,-1.638891 7.0813,-1.108264 8.81476,-0.319493 10.17111,4.628127 0.71768,2.617927 0.31027,4.126935 -1.24927,4.627173 -1.80469,0.578873 -3.02566,-0.502922 -3.12328,-2.767259 -0.0521,-1.209229 -0.52926,-2.368949 -1.06028,-2.577157 -0.54676,-0.214376 -0.78503,-0.04628 -0.54938,0.387605 0.22888,0.421392 0.04,1.609852 -0.41964,2.641024 -0.59509,1.33497 -0.61912,2.167842 -0.0834,2.892297 0.41378,0.559591 0.55767,1.621428 0.31974,2.359637 -0.38569,1.196623 -0.15072,1.309295 2.16635,1.038821 4.8219,-0.562864 6.80034,-0.220821 7.00221,1.210577 0.24053,1.705497 -0.68832,2.508661 -3.27171,2.829001 -2.25247,0.279309 -2.91817,0.626873 -2.37168,1.238283 0.19408,0.217142 1.23275,0.11557 2.30814,-0.225719 2.81578,-0.893616 5.39285,-0.596091 5.7988,0.669478 0.54994,1.714498 -1.10017,2.9284 -4.92334,3.621857 -3.51847,0.638191 -3.51847,0.638191 -3.95374,4.635151 -0.40694,3.73681 -0.55048,3.990501 -2.20543,3.897702 -1.63088,-0.09145 -1.77073,-0.386198 -1.77748,-3.746283 -0.007,-3.647024 -0.007,-3.647024 -3.69583,-3.758681 -3.68849,-0.111656 -3.68849,-0.111656 -4.20133,2.700741 -0.44447,2.437409 -0.74887,2.799162 -2.283,2.713137 -1.60566,-0.09004 -1.77276,-0.408437 -1.79811,-3.426283 -0.028,-3.327023 -0.028,-3.327023 -4.07385,-3.35069 -8.87764,-0.05193 -7.92837,-0.453538 -8.14707,3.446771 -0.1074,1.91532 -0.41694,3.975558 -0.687863,4.578304 -0.581488,1.293685 -3.87071,1.307749 -3.90502,0.0167 z M 125.013,30.124491 c 0.17012,-0.130833 -0.52158,-0.28447 -1.53708,-0.341412 -1.01551,-0.05694 -2.06977,0.21638 -2.34282,0.607387 -0.44935,0.643472 3.00537,0.406646 3.8799,-0.265975 z m -21.8779,-1.459706 c 0.0211,-0.37721 -0.44976,-0.529235 -1.04648,-0.337831 -0.59672,0.191405 -1.09197,0.473232 -1.10056,0.626284 -0.009,0.153053 0.46234,0.305077 1.0465,0.337833 0.58414,0.03276 1.0794,-0.249073 1.10054,-0.626286 z m 9.56903,-0.406152 c -0.19364,-0.603675 -1.18124,-0.88421 -2.77466,-0.788164 -3.3925,0.204486 -3.19464,1.373876 0.26528,1.567886 2.01015,0.112716 2.72444,-0.109232 2.50938,-0.779722 z m -10.35195,-4.63206 c 0.26252,-0.375938 0.15869,-0.70139 -0.23075,-0.723227 -0.38943,-0.02184 -0.92285,0.267882 -1.18537,0.64382 -0.26252,0.375938 -0.15868,0.701391 0.23075,0.723228 0.38944,0.02183 0.92286,-0.267882 1.18537,-0.643821 z m 8.96684,-1.634462 c -0.52821,-1.135559 -1.11905,-1.385907 -2.62619,-1.112771 -2.41384,0.437456 -2.566,0.550915 -2.03934,1.52059 0.23341,0.429738 1.53198,0.843449 2.88572,0.919358 2.2456,0.125919 2.4016,0.0096 1.77981,-1.327177 z m 29.30253,16.638062 c -0.36336,-0.669016 -0.7512,-13.738463 -0.70422,-23.730565 0.0293,-6.2062745 0.18118,-6.4338138 4.96243,-7.4295671 6.2117,-1.2936611 10.03009,1.8112847 8.22797,6.6906101 -0.89291,2.417581 -0.78725,2.365014 4.5612,-2.269204 3.0114,-2.6092655 5.81665,-4.724976 6.23389,-4.7015796 0.86291,0.048387 2.2209,2.5941189 1.65407,3.1007576 -0.20476,0.183018 1.75814,1.765618 4.362,3.516891 5.14475,3.4602 6.04412,4.797091 4.28495,6.369461 -1.44326,1.289986 -1.70676,1.263773 -3.27699,-0.325987 -1.21722,-1.232356 -1.32362,-1.238322 -2.03811,-0.114284 -0.41461,0.652273 -1.37527,1.151104 -2.13479,1.108515 -0.89655,-0.05027 -1.40807,0.40632 -1.45827,1.301688 -0.0653,1.164482 0.49934,1.44487 3.62799,1.801584 3.22801,0.36804 3.72297,0.629324 3.84226,2.02829 0.0821,0.962936 -0.23755,1.592478 -0.79847,1.572482 -0.51446,-0.01833 0.10123,0.92921 1.36821,2.105662 3.75779,3.489278 1.55216,5.773119 -2.98741,3.093359 -2.15861,-1.274247 -2.49018,-2.498875 -1.02995,-3.80404 0.69793,-0.623801 0.40044,-0.829892 -1.33869,-0.927412 -2.23601,-0.125381 -2.23601,-0.125381 -2.75052,5.350504 -0.5145,5.475886 -0.5145,5.475886 -2.63868,5.356776 -2.1242,-0.119112 -2.1242,-0.119112 -1.57884,-5.302916 l 0.54536,-5.183802 -4.82946,0.244914 c -2.6722,0.135515 -5.92391,0.810574 -7.27963,1.511265 -1.3794,0.712935 -3.08514,1.061693 -3.90315,0.798044 -1.35837,-0.437808 -1.43373,-0.261545 -1.15739,2.706601 0.16257,1.746198 0.0591,3.796727 -0.22983,4.556729 -0.53232,1.400048 -2.88046,1.78204 -3.53593,0.575224 z m 8.93841,-14.532687 c 0.0407,-0.726792 -0.34703,-2.835497 -0.86172,-4.686008 -0.90247,-3.244631 -0.84124,-4.15991 0.46057,-6.885501 0.52314,-1.095302 0.28518,-1.248929 -1.80728,-1.166774 -2.40976,0.09461 -2.40976,0.09461 -2.89369,4.684352 -0.26617,2.524356 -0.37507,6.251222 -0.24201,8.281923 0.24192,3.692184 0.24192,3.692184 2.75597,2.392815 1.43649,-0.742432 2.54581,-1.865764 2.58816,-2.620807 z m 10.03854,-0.102055 c 0.86538,0.04853 1.35589,-0.429779 1.40883,-1.373763 0.0713,-1.272471 -0.22363,-1.408531 -2.43093,-1.121235 -1.608,0.209297 -2.87979,-0.01468 -3.53371,-0.622324 -1.34262,-1.247628 -1.66034,-0.861291 -1.32731,1.613996 0.24599,1.828314 0.49471,2.006857 2.41487,1.733559 1.17735,-0.167572 2.73806,-0.271177 3.46825,-0.230233 z m 4.59451,-7.518049 c 1.79985,-0.430269 1.79985,-0.430269 -0.12443,-1.484484 -1.73536,-0.950707 -2.08434,-0.911169 -3.55429,0.402692 -1.63001,1.456907 -1.63001,1.456907 0.12443,1.484484 0.96495,0.01517 2.56437,-0.166044 3.55429,-0.402692 z m -11.79043,21.016196 c -1.44584,-1.955318 2.71425,-7.25978 4.91704,-6.269659 1.43206,0.643679 1.20034,2.559682 -0.63079,5.215977 -1.65046,2.394213 -3.04205,2.736306 -4.28625,1.053682 z m 29.8487,1.224408 c -2.26935,-1.057417 -1.66084,-3.876914 0.86937,-4.028169 2.32144,-0.138775 3.97312,1.835454 2.85239,3.409414 -1.00702,1.414284 -1.74952,1.537726 -3.72176,0.618755 z M 9.2666839,21.100972 C 8.8787796,20.574143 8.4117386,18.986486 8.2287858,17.572845 7.9341805,15.296312 8.1567904,14.807129 10.176796,13.292156 c 1.462455,-1.096818 4.212758,-2.027991 7.666365,-2.595608 5.385736,-0.8851713 5.385736,-0.8851713 5.368682,-3.8324973 -0.01573,-2.7187699 0.120216,-2.9396295 1.753102,-2.8480673 1.462368,0.082001 1.859858,0.5756341 2.286052,2.8389955 0.515896,2.7397361 0.515896,2.7397361 7.308958,2.658494 7.928698,-0.094824 9.119697,0.5055011 9.635262,4.8566671 0.437416,3.691622 0.0013,5.122357 -1.694305,5.55768 -2.117717,0.543713 -2.783147,-0.333634 -2.60897,-3.439841 l 0.158867,-2.833182 -6.929895,0.08171 c -6.431262,0.07583 -19.189581,1.598648 -20.082867,2.397074 -0.214707,0.191907 -0.479611,1.532915 -0.588675,2.980019 -0.210698,2.795569 -1.838993,3.812332 -3.1826881,1.987376 z M 185.5189,29.757541 c -0.83651,-0.597503 -0.80573,-1.274323 0.21698,-4.771404 0.65547,-2.241324 1.51669,-6.613952 1.91383,-9.716953 0.69627,-5.4403747 0.78526,-5.6382758 2.4922,-5.542561 1.6834,0.094395 1.76812,0.324111 1.7283,4.686783 -0.045,4.937126 -2.47708,14.82699 -3.8374,15.604869 -1.06685,0.610055 -1.33354,0.582395 -2.51393,-0.260734 z"
			style="fill:#daa520;fill-opacity:1;stroke:none;"
		/>
	</g>
</svg>
