<?xml version="1.0" encoding="UTF-8" standalone="no"?>
<!-- Created with Inkscape (http://www.inkscape.org/) -->
<svg
	xmlns="http://www.w3.org/2000/svg"
	xmlns:cc="http://creativecommons.org/ns#"
	xmlns:dc="http://purl.org/dc/elements/1.1/"
	xmlns:inkscape="http://www.inkscape.org/namespaces/inkscape"
	xmlns:rdf="http://www.w3.org/1999/02/22-rdf-syntax-ns#"
	xmlns:sodipodi="http://sodipodi.sourceforge.net/DTD/sodipodi-0.dtd"
	xmlns:svg="http://www.w3.org/2000/svg"
	xmlns:xlink="http://www.w3.org/1999/xlink"
	width="160"
	height="48"
	viewBox="0 0 160 48"
	version="1.1"
	xml:space="preserve"
	inkscape:version="1.3 (0e150ed6c4, 2023-07-21)"
	>
	<title>おはよー</title>
	<metadata>
		<rdf:RDF>
			<cc:Work rdf:about="">
				<cc:license rdf:resource="http://creativecommons.org/licenses/by/4.0/" />
				<dc:title>おはよー</dc:title>
				<dc:date>2023-10-09</dc:date>
				<dc:creator><cc:Agent><dc:title>zawa-ch.</dc:title></cc:Agent></dc:creator>
				<dc:rights><cc:Agent><dc:title>Copyright 2023 zawa-ch.</dc:title></cc:Agent></dc:rights>
				<dc:identifier>stellar_ch-handwrittenohayo</dc:identifier>
				<dc:language>ja_JP</dc:language>
			</cc:Work>
			<cc:License rdf:about="http://creativecommons.org/licenses/by/4.0/">
				<cc:permits rdf:resource="http://creativecommons.org/ns#Reproduction" />
				<cc:permits rdf:resource="http://creativecommons.org/ns#Distribution" />
				<cc:permits rdf:resource="http://creativecommons.org/ns#DerivativeWorks" />
				<cc:requires rdf:resource="http://creativecommons.org/ns#Notice" />
				<cc:requires rdf:resource="http://creativecommons.org/ns#Attribution" />
			</cc:License>
		</rdf:RDF>
	</metadata>
	<sodipodi:namedview
		pagecolor="#505050"
		bordercolor="#eeeeee"
		borderopacity="1"
		inkscape:showpageshadow="0"
		inkscape:pageopacity="0"
		inkscape:pagecheckerboard="0"
		inkscape:deskcolor="#d1d1d1"
		inkscape:document-units="px"
		showgrid="false"
		>
		<inkscape:grid units="px" originx="0" originy="0" spacingx="1" spacingy="1" empspacing="8" dotted="false" gridanglex="30" gridanglez="30" visible="false" />
	</sodipodi:namedview>
	<defs/>
	<g inkscape:groupmode="layer">
		<path
			d="m 135.69514,44 c -0.37851,0 -0.95022,-0.262038 -1.2705,-0.582308 -0.39714,-0.397146 -0.5823,-1.274195 -0.5823,-2.758189 0,-1.795178 0.13711,-2.271917 0.78366,-2.724776 0.43101,-0.301895 1.05633,-0.454801 1.3896,-0.339793 0.33326,0.11501 0.81437,0.467805 1.06914,0.783992 0.25476,0.316185 0.46321,1.448238 0.46321,2.515671 0,1.270271 -0.20118,2.141966 -0.58232,2.523095 C 136.64536,43.737962 136.07364,44 135.69514,44 Z M 10.445829,42.3182 C 10.140118,42.381822 9.3897328,42.314942 8.7783088,42.169603 8.1668844,42.024256 7.3094224,41.713385 6.8728379,41.478781 6.4362527,41.244176 5.6485666,40.540629 5.1224233,39.915344 4.5962809,39.290059 3.9899172,38.125282 3.7749499,37.326953 3.5599817,36.528624 3.4891481,35.456896 3.6175423,34.945335 3.7459357,34.433773 4.5742682,33.314271 5.4582805,32.457553 6.3422916,31.600834 7.3618499,30.734078 7.7239641,30.531429 8.086079,30.328778 8.8883246,30.060155 9.5067316,29.934485 c 0.7880334,-0.16014 1.1597994,-0.473794 1.2427914,-1.048529 0.104654,-0.724758 -0.04722,-0.820039 -1.3071506,-0.820039 -0.7840584,0 -1.7987441,0.261389 -2.2548573,0.580862 -0.4561133,0.319475 -1.1963408,0.527915 -1.6449488,0.4632 C 5.093958,29.045263 4.4712149,28.53375 4.1586916,27.973277 3.6481147,27.05762 3.6481102,26.851193 4.1586492,25.938525 4.6289324,25.09782 5.075869,24.874877 6.7525701,24.644607 c 1.1141561,-0.153014 2.3760827,-0.359892 2.8042809,-0.45973 0.72558,-0.169175 0.7665,-0.369208 0.601493,-2.940363 -0.09738,-1.517362 -0.06998,-3.185402 0.06086,-3.706756 0.150575,-0.599939 0.5814,-1.034127 1.1736,-1.182759 0.634224,-0.15918 1.169655,-0.02311 1.661877,0.42235 0.585306,0.529693 0.726189,1.145033 0.726189,3.171809 0,1.383042 0.161961,2.614717 0.359915,2.737059 0.197953,0.122342 1.779297,-0.220101 3.514099,-0.760985 1.917406,-0.597814 3.517659,-0.892196 4.081163,-0.750767 0.564134,0.14159 1.014799,0.582561 1.151336,1.126573 0.123397,0.491653 0.06243,1.183271 -0.135489,1.536928 -0.227409,0.406357 -1.774029,1.037966 -4.202237,1.716115 -2.113313,0.590202 -3.949566,1.188372 -4.080563,1.329266 -0.130996,0.140893 -0.158845,0.763448 -0.06188,1.383455 l 0.176286,1.127283 2.372769,-0.151086 c 1.305023,-0.08309 3.108441,-0.04076 4.007596,0.09407 0.899156,0.134837 2.408075,0.757334 3.353155,1.38333 0.945078,0.625993 1.962606,1.610558 2.261173,2.187923 0.298566,0.577363 0.542847,1.700021 0.542847,2.494796 0,1.020981 -0.329772,1.900282 -1.123739,2.996322 -0.618057,0.853202 -1.534517,1.738439 -2.036575,1.967192 -0.749744,0.341607 -1.045517,0.295841 -1.655462,-0.256151 -0.408443,-0.369637 -0.742625,-0.990853 -0.742625,-1.380479 0,-0.389627 0.416879,-1.25497 0.9264,-1.922985 0.50952,-0.668016 0.926401,-1.378208 0.926401,-1.578202 0,-0.199997 -0.405399,-0.744481 -0.900886,-1.209966 -0.681442,-0.640183 -1.486039,-0.893308 -3.303156,-1.039168 -1.32125,-0.106058 -2.808307,-0.09092 -3.304572,0.03363 -0.850387,0.213434 -0.916217,0.422542 -1.144211,3.634525 -0.140589,1.980628 -0.46919,3.754933 -0.784548,4.236231 -0.298452,0.455493 -1.090232,0.938486 -1.759515,1.073317 -0.669282,0.134829 -1.467004,0.297197 -1.772716,0.360816 z M 9.718922,38.4416 c 0.735231,0 1.071983,-0.227442 1.234469,-0.833761 0.122892,-0.458567 0.225716,-1.621705 0.228499,-2.584748 l 0.0051,-1.750989 -1.01904,0.386072 c -0.560473,0.21234 -1.3942335,0.737536 -1.8528011,1.167102 -0.4585679,0.429567 -0.8337595,1.114025 -0.8337595,1.521019 0,0.406994 0.275972,1.044934 0.6132723,1.417646 C 8.4319608,38.136654 9.162896,38.4416 9.718962,38.4416 Z m 109.627868,1.852799 c -0.37418,0 -0.94999,-0.411536 -1.27955,-0.914526 -0.44786,-0.683534 -0.51318,-1.174917 -0.25857,-1.94544 0.2006,-0.607058 1.16372,-1.608294 2.34255,-2.435232 1.10106,-0.772376 2.33357,-1.356008 2.73892,-1.296962 0.40537,0.05905 0.99175,0.562662 1.30311,1.119144 0.56192,1.004371 0.54872,1.028126 -1.80003,3.2424 -1.30135,1.226839 -2.67224,2.230616 -3.04643,2.230616 z m 31.44014,-2.231472 c -0.48034,-0.0048 -1.71589,-0.843405 -2.95634,-2.006741 -1.58999,-1.491144 -2.07082,-2.171246 -1.89366,-2.678448 0.1306,-0.373901 0.49616,-0.88826 0.81234,-1.143019 0.31619,-0.254761 0.88024,-0.463201 1.25346,-0.463201 0.37321,0 1.43608,0.698249 2.36193,1.551666 0.92585,0.853415 1.85112,1.86511 2.05614,2.248209 0.27331,0.510697 0.21516,0.937089 -0.21795,1.598096 -0.33753,0.515149 -0.94439,0.898074 -1.41592,0.893438 z M 49.36483,36.925938 c -0.718931,-0.01838 -1.839333,-0.18737 -2.489778,-0.375534 -0.650446,-0.188162 -1.531998,-0.832756 -1.959004,-1.432431 -0.427006,-0.599674 -0.955125,-1.603084 -1.1736,-2.229799 -0.293003,-0.840508 -0.278909,-1.425124 0.05371,-2.228148 0.342181,-0.826097 0.936157,-1.270207 2.462772,-1.841386 1.106505,-0.413998 2.43353,-0.752723 2.948942,-0.752723 0.803691,0 0.920419,-0.145087 0.81986,-1.01904 -0.116008,-1.008207 -0.146093,-1.01904 -2.830143,-1.01904 -2.256566,0 -2.801955,-0.120991 -3.242401,-0.719305 -0.291232,-0.395618 -0.529512,-0.937562 -0.529512,-1.204321 0,-0.266758 0.333504,-0.818519 0.74112,-1.226135 0.591612,-0.591612 1.235201,-0.74112 3.190304,-0.74112 h 2.449181 l -0.199384,-1.20432 c -0.10966,-0.662377 -0.311279,-1.648152 -0.448041,-2.190616 -0.203019,-0.805276 -0.06796,-1.10469 0.735894,-1.631395 0.944352,-0.618763 1.025291,-0.614983 1.982379,0.09258 0.728833,0.538814 1.089048,1.241635 1.3362,2.607068 l 0.338368,1.869387 1.430108,-0.191818 c 1.052184,-0.141128 1.623759,-0.01656 2.162911,0.471362 0.403043,0.364749 0.732805,1.020864 0.732805,1.458035 0,0.43717 -0.200102,0.994958 -0.444673,1.239528 -0.244569,0.244569 -0.897939,0.444671 -1.451932,0.444671 -0.553995,0 -1.271028,0.101217 -1.593409,0.224927 -0.392668,0.15068 -0.586148,0.691276 -0.586148,1.637739 0,1.361746 0.0654,1.434535 1.80922,2.01374 0.995072,0.330509 2.109374,0.932592 2.476228,1.337962 0.52518,0.580317 0.592092,0.951333 0.314681,1.744856 -0.245292,0.701647 -0.652362,1.042718 -1.339943,1.122698 -0.543189,0.06319 -1.514441,-0.157552 -2.158338,-0.490524 -0.643895,-0.332972 -1.209014,-0.55142 -1.255817,-0.48544 -0.0468,0.06598 -0.37871,0.912316 -0.737569,1.880745 -0.358859,0.968431 -1.009181,2.010631 -1.445159,2.316 -0.435978,0.305371 -1.380904,0.540182 -2.099836,0.521799 z m -0.560301,-3.67218 c 0.258952,0 0.575963,-0.273995 0.70447,-0.608877 0.128507,-0.334883 0.154113,-0.688414 0.05691,-0.785623 -0.09721,-0.09721 -0.616107,-0.06647 -1.153105,0.0683 -0.805084,0.202063 -0.897659,0.339878 -0.527725,0.785622 0.24675,0.297316 0.660505,0.540573 0.919458,0.540573 z m 18.914762,3.600725 c -2.563174,0.193851 -2.702354,0.16206 -3.449669,-0.787998 -0.428302,-0.544499 -0.959075,-1.830903 -1.179492,-2.858674 -0.32716,-1.525493 -0.295888,-2.089673 0.170276,-3.072042 0.338457,-0.713243 1.120849,-1.465555 1.920954,-1.847098 0.742455,-0.354053 2.154232,-0.73899 3.137284,-0.855418 l 1.787364,-0.211687 -0.0073,-2.449665 c -0.0041,-1.347316 -0.17364,-3.60016 -0.376895,-5.006322 -0.306725,-2.12199 -0.272525,-2.704739 0.201163,-3.42768 0.383259,-0.584928 0.925872,-0.871024 1.651986,-0.871024 0.594698,0 1.209986,0.208269 1.367307,0.462819 0.157322,0.254552 0.4004,1.432716 0.540171,2.618143 0.139774,1.185427 0.340472,2.241661 0.445996,2.347184 0.105524,0.105524 1.779157,0.179132 3.719184,0.163572 2.733936,-0.02192 3.657732,0.10212 4.107118,0.551506 0.318887,0.318886 0.577241,0.859699 0.574121,1.201806 -0.0032,0.342106 -0.13991,0.833498 -0.303975,1.091982 -0.164064,0.258483 -0.786832,0.603199 -1.383926,0.766034 -0.597094,0.162835 -2.377955,0.257899 -3.957467,0.211255 l -2.871841,-0.08481 v 1.264215 c 0,1.167201 0.08831,1.264216 1.150831,1.264216 0.632958,0 2.175414,0.265035 3.427682,0.588969 1.252267,0.323932 2.485289,0.761231 2.74005,0.971773 0.254759,0.210543 0.463199,0.866218 0.463199,1.457056 0,0.784997 -0.248341,1.187404 -0.922303,1.494481 -0.726108,0.330836 -1.326363,0.289733 -2.821754,-0.193224 -1.044698,-0.337399 -2.297182,-0.613455 -2.783299,-0.613455 -0.716819,0 -0.884108,0.192576 -0.885232,1.019041 -7.62e-4,0.560471 -0.326891,1.552889 -0.724732,2.205371 -0.397841,0.65248 -1.250405,1.458882 -1.894586,1.792 -0.644182,0.333119 -2.37316,0.696573 -3.842174,0.807674 z m 0.591212,-3.752185 c 0.846744,-0.1354 1.680504,-0.333306 1.8528,-0.439791 0.172296,-0.106484 0.313266,-0.51727 0.313266,-0.912859 0,-0.456226 -0.254083,-0.719251 -0.694801,-0.719251 -0.38214,0 -1.2159,0.104221 -1.852801,0.2316 -0.926816,0.185364 -1.158,0.416756 -1.158,1.159042 0,0.88023 0.07838,0.91491 1.539536,0.681259 z m -30.257945,2.745381 c -0.541589,0 -1.119998,-0.337172 -1.430294,-0.83376 -0.295582,-0.473042 -0.618908,-2.356797 -0.747329,-4.354082 -0.124493,-1.936176 -0.06574,-4.915376 0.130554,-6.620445 0.196297,-1.705068 0.453906,-3.405747 0.572461,-3.779285 0.118557,-0.373539 0.540533,-0.782304 0.937722,-0.908367 0.397192,-0.126064 1.040266,-0.128246 1.429054,-0.0049 0.388788,0.123397 0.811005,0.495687 0.938261,0.827309 0.127257,0.331623 0.0524,2.229456 -0.166352,4.217407 -0.278032,2.526716 -0.282168,4.536035 -0.01374,6.676779 0.322494,2.571938 0.293907,3.199796 -0.178518,3.920809 -0.335186,0.511558 -0.92997,0.858486 -1.471817,0.858486 z M 136.06569,35.58132 c -0.5095,0.08835 -1.68818,0.03583 -2.61926,-0.116715 -0.93106,-0.152546 -2.59859,-0.730311 -3.70559,-1.283923 -1.10701,-0.553612 -2.48686,-1.447215 -3.06633,-1.985785 -0.57949,-0.53857 -1.45494,-1.765748 -1.94544,-2.727061 -0.62202,-1.219022 -0.89185,-2.364257 -0.89185,-3.785203 0,-1.635028 0.14154,-2.113113 0.71676,-2.420959 0.39421,-0.210978 0.96593,-0.383598 1.27048,-0.383598 0.30456,0 0.81578,0.262039 1.13605,0.582309 0.34436,0.344354 0.58231,1.217755 0.58231,2.137341 0,1.044619 0.30154,1.998784 0.91866,2.906975 0.57301,0.843259 1.69322,1.730896 2.97722,2.359092 1.77114,0.866539 2.38162,0.981214 4.37271,0.821389 1.27813,-0.102596 2.99866,-0.534964 3.84311,-0.965773 0.84094,-0.429007 1.87823,-1.224035 2.30511,-1.766726 0.4736,-0.602086 0.77616,-1.526964 0.77616,-2.37266 0,-0.76227 -0.10683,-1.920027 -0.23738,-2.572793 -0.13055,-0.652765 -0.77556,-1.757497 -1.43335,-2.45496 -1.01812,-1.07952 -1.44453,-1.268114 -2.86714,-1.268114 -0.91914,0 -2.27515,0.252364 -3.01336,0.560813 -0.97935,0.409196 -1.34069,0.784877 -1.33655,1.3896 0.004,0.455833 0.13169,1.026961 0.28569,1.269171 0.15401,0.242212 1.10562,0.578799 2.11468,0.74797 1.42293,0.238558 1.95782,0.526997 2.38343,1.285276 0.44086,0.785433 0.46267,1.166649 0.11096,1.938592 -0.27811,0.610392 -0.73526,0.960899 -1.25322,0.960899 -0.44845,0 -1.41087,-0.190014 -2.13867,-0.422253 -0.72778,-0.232239 -1.78616,-0.587766 -2.35191,-0.79006 -0.56577,-0.202292 -1.37,-0.847177 -1.78721,-1.433077 -0.42588,-0.598085 -0.84346,-1.917358 -0.95217,-3.008182 -0.16263,-1.631648 -0.0521,-2.150686 0.68937,-3.23987 0.48567,-0.713328 1.62717,-1.662309 2.53669,-2.108848 1.18153,-0.580092 2.36563,-0.818132 4.14744,-0.83376 1.46359,-0.01284 3.10129,0.221205 3.96438,0.566549 0.80883,0.323631 1.87138,1.115703 2.36122,1.76016 0.48984,0.644457 1.17977,1.73311 1.53321,2.419231 0.35343,0.68612 0.73365,2.451251 0.84492,3.922514 0.12387,1.637875 0.0301,3.196838 -0.24187,4.0209 -0.26115,0.791275 -1.21504,2.038942 -2.31485,3.027763 -1.38712,1.247143 -2.50619,1.865573 -4.32932,2.392512 -1.35227,0.390843 -2.87556,0.782913 -3.38509,0.871264 z M 29.794558,29.156329 c -0.553301,-0.01169 -1.589635,-0.337315 -2.302963,-0.723594 -0.713328,-0.386279 -1.5054,-0.883539 -1.760161,-1.105022 -0.254759,-0.221482 -0.4632,-0.863028 -0.4632,-1.425654 0,-0.562627 0.200103,-1.223061 0.444672,-1.467631 0.24457,-0.24457 0.795555,-0.444672 1.224413,-0.444672 0.428856,0 1.547242,0.486737 2.485301,1.081636 0.938059,0.594898 1.813704,1.42236 1.945878,1.838802 0.132174,0.416443 0.05846,1.096972 -0.163811,1.512286 -0.260219,0.486225 -0.762358,0.747544 -1.410129,0.733849 z m 86.075622,-0.238557 c -0.40763,0.120253 -0.95147,0.129999 -1.20857,0.02165 -0.2571,-0.10834 -0.63734,-0.514448 -0.845,-0.902462 -0.27423,-0.51239 -0.22642,-0.997765 0.17467,-1.773404 0.30375,-0.587359 0.93412,-1.170221 1.40085,-1.295247 0.46673,-0.125025 1.97033,-0.229597 3.34134,-0.232379 2.25279,-0.0046 2.55117,0.08411 3.09974,0.92134 0.55494,0.846942 0.55675,1.003098 0.0211,1.820626 -0.49179,0.750561 -0.96002,0.920493 -2.91445,1.057726 -1.2807,0.08993 -2.66205,0.261889 -3.06966,0.382142 z M 92.627514,27.514526 c -1.248409,0.234896 -1.422094,0.166319 -1.826424,-0.721124 -0.306495,-0.672663 -0.33631,-1.295008 -0.09494,-1.981339 0.295497,-0.840275 0.647584,-1.046856 2.196993,-1.289067 1.014804,-0.158638 4.096244,-0.189552 6.847662,-0.06869 2.751415,0.120857 5.746775,0.332463 6.656345,0.470237 1.27527,0.193164 1.78359,0.481947 2.2209,1.261715 0.52868,0.942716 0.51361,1.064703 -0.22254,1.800858 -0.7632,0.763198 -0.93685,0.776988 -5.18537,0.411766 -2.41766,-0.207833 -5.479625,-0.325239 -6.804381,-0.260903 -1.324747,0.06434 -3.029458,0.233784 -3.788246,0.376553 z m 61.873546,0.114039 c -0.25476,-0.03673 -1.29272,-0.130779 -2.30659,-0.208983 -1.01386,-0.0782 -2.05606,-0.318694 -2.316,-0.534421 -0.25993,-0.215726 -0.4726,-0.860158 -0.4726,-1.432068 0,-0.571912 0.27914,-1.318987 0.62033,-1.660168 0.45173,-0.451739 0.98046,-0.56075 1.94544,-0.401107 0.7288,0.120573 1.7003,0.221057 2.15887,0.2233 0.45856,0.0022 1.16727,0.337583 1.57488,0.745199 0.40761,0.407616 0.74111,0.991247 0.74111,1.296959 0,0.305712 -0.3335,0.889345 -0.74111,1.296961 -0.40761,0.407617 -0.94957,0.711063 -1.20433,0.674328 z m -30.81241,-10.67945 c -0.28552,0 -1.53615,-0.764519 -2.77919,-1.69893 -1.84308,-1.385466 -2.26008,-1.894371 -2.26008,-2.758189 0,-0.674534 0.29912,-1.268772 0.82357,-1.63611 0.45296,-0.317269 0.94308,-0.576852 1.08914,-0.576852 0.14606,0 1.06779,0.662124 2.04828,1.471386 0.98048,0.809264 2.0745,1.726399 2.43117,2.038082 0.35665,0.31168 0.64848,0.81682 0.64848,1.122533 0,0.305712 -0.33351,0.889343 -0.74112,1.29696 -0.40762,0.407616 -0.97473,0.74112 -1.26025,0.74112 z m 23.09118,-0.74112 c -0.32678,0 -0.88988,-0.326785 -1.25134,-0.726189 -0.41794,-0.461826 -0.57869,-1.035146 -0.44158,-1.57488 0.11939,-0.470023 0.9953,-1.344701 1.96311,-1.960372 0.96112,-0.611424 2.06521,-1.300828 2.45352,-1.532008 0.38831,-0.23118 1.03071,-0.335415 1.42759,-0.231633 0.39685,0.103783 0.89228,0.507669 1.10091,0.897525 0.20865,0.389857 0.27779,1.028825 0.15367,1.419932 -0.12414,0.391105 -1.25755,1.385319 -2.51872,2.209363 -1.26116,0.824044 -2.56039,1.498262 -2.88716,1.498262 z m -12.5095,-4.076161 c -0.37602,0 -0.94262,-0.291817 -1.25911,-0.64848 -0.46855,-0.528043 -0.53084,-1.232016 -0.33535,-3.7904612 0.23189,-3.0349012 0.27611,-3.1546199 1.2979,-3.5128545 0.90982,-0.3189827 1.15609,-0.249518 1.76016,0.4964719 0.5375,0.6637946 0.70232,1.4664611 0.70232,3.4202144 0,2.0587884 -0.14342,2.6963044 -0.74111,3.2939884 -0.40761,0.407617 -1.04877,0.741121 -1.42481,0.741121 z"
			style="fill:#fea711;fill-opacity:1;stroke:none;"
		/>
	</g>
</svg>
