<?xml version="1.0" encoding="UTF-8" standalone="no"?>
<!-- Created with Inkscape (http://www.inkscape.org/) -->
<svg
	xmlns="http://www.w3.org/2000/svg"
	xmlns:cc="http://creativecommons.org/ns#"
	xmlns:dc="http://purl.org/dc/elements/1.1/"
	xmlns:inkscape="http://www.inkscape.org/namespaces/inkscape"
	xmlns:rdf="http://www.w3.org/1999/02/22-rdf-syntax-ns#"
	xmlns:sodipodi="http://sodipodi.sourceforge.net/DTD/sodipodi-0.dtd"
	xmlns:svg="http://www.w3.org/2000/svg"
	xmlns:xlink="http://www.w3.org/1999/xlink"
	width="240"
	height="48"
	viewBox="0 0 240 48"
	version="1.1"
	xml:space="preserve"
	inkscape:version="1.3 (0e150ed6c4, 2023-07-21)"
	>
	<title>ぐーぺこりん</title>
	<metadata>
		<rdf:RDF>
			<cc:Work rdf:about="">
				<cc:license rdf:resource="http://creativecommons.org/licenses/by/4.0/" />
				<dc:title>ぐーぺこりん</dc:title>
				<dc:date>2023-10-19</dc:date>
				<dc:creator><cc:Agent><dc:title>zawa-ch.</dc:title></cc:Agent></dc:creator>
				<dc:rights><cc:Agent><dc:title>Copyright 2023 zawa-ch.</dc:title></cc:Agent></dc:rights>
				<dc:identifier>stellar_ch-handwrittengupekorin</dc:identifier>
				<dc:language>ja_JP</dc:language>
			</cc:Work>
			<cc:License rdf:about="http://creativecommons.org/licenses/by/4.0/">
				<cc:permits rdf:resource="http://creativecommons.org/ns#Reproduction" />
				<cc:permits rdf:resource="http://creativecommons.org/ns#Distribution" />
				<cc:permits rdf:resource="http://creativecommons.org/ns#DerivativeWorks" />
				<cc:requires rdf:resource="http://creativecommons.org/ns#Notice" />
				<cc:requires rdf:resource="http://creativecommons.org/ns#Attribution" />
			</cc:License>
		</rdf:RDF>
	</metadata>
	<sodipodi:namedview
		pagecolor="#505050"
		bordercolor="#eeeeee"
		borderopacity="1"
		inkscape:showpageshadow="0"
		inkscape:pageopacity="0"
		inkscape:pagecheckerboard="0"
		inkscape:deskcolor="#d1d1d1"
		inkscape:document-units="px"
		showgrid="false"
		>
		<inkscape:grid units="px" originx="0" originy="0" spacingx="1" spacingy="1" empspacing="8" dotted="false" gridanglex="30" gridanglez="30" visible="false" />
	</sodipodi:namedview>
	<defs/>
	<g inkscape:groupmode="layer">
		<path
			d="M 20.188252,42.901257 C 18.361546,41.775953 12.355041,35.35095 7.8613369,29.715477 6.7195383,28.283567 5.7825406,26.363125 5.7791199,25.447829 5.7675108,22.341278 20.050673,5.0084656 22.622245,5.0084656 c 1.335657,0 3.652489,2.2199494 3.652489,3.4997524 0,0.515362 -1.28331,2.461434 -2.851799,4.324605 -1.568491,1.86317 -4.487198,5.472159 -6.486018,8.019974 l -3.634219,4.632393 4.498896,4.977841 c 2.474392,2.737813 5.248947,5.676788 6.165676,6.531057 2.10339,1.960074 2.213238,4.718537 0.242861,6.098643 -1.767816,1.238226 -1.695453,1.241671 -4.021879,-0.191474 z M 175.84491,39.95477 c -0.86492,-0.864921 -1.57258,-1.807591 -1.57258,-2.094822 0,-0.287231 1.27333,-2.224618 2.82962,-4.305303 3.51353,-4.697432 5.5248,-10.599124 5.97819,-17.54192 0.3737,-5.72224 1.11572,-7.160166 3.69493,-7.160166 6.66132,0 3.04735,21.454804 -5.11502,30.366042 -2.48986,2.718289 -3.68209,2.869219 -5.81514,0.736169 z m -34.53723,-2.005616 c -6.21596,-0.966007 -7.55851,-1.762338 -7.55851,-4.48333 0,-2.171161 1.84885,-3.658043 4.00427,-3.220324 0.88094,0.178899 4.62893,0.675068 8.32887,1.102598 3.69994,0.42753 7.08755,1.054067 7.52801,1.392305 1.32701,1.019009 0.95737,4.119894 -0.62306,5.22687 -1.68775,1.182142 -3.97914,1.178588 -11.67958,-0.01812 z m 57.08953,-0.156171 c -1.48161,-1.637162 -1.33778,-2.575622 0.90058,-5.875863 1.07547,-1.585688 3.12697,-5.189526 4.55889,-8.008528 1.43192,-2.819002 3.73485,-7.07153 5.11762,-9.450063 2.18497,-3.758428 2.75607,-4.324605 4.36215,-4.324605 1.97942,0 3.86159,1.430497 3.86159,2.93492 0,0.506741 -1.31928,3.361327 -2.93172,6.343524 -2.77899,5.13971 -3.0944,6.712886 -1.35507,6.758719 0.41967,0.01106 2.48554,0.87598 4.59082,1.922046 4.46363,2.21788 6.66273,2.346545 10.4822,0.613294 3.02362,-1.372102 4.6338,-1.024026 5.85978,1.266717 1.86933,3.492881 -3.44481,6.773941 -10.87987,6.717454 -3.38924,-0.02575 -4.90641,-0.413345 -8.15043,-2.082217 -2.19229,-1.127818 -4.23766,-2.050578 -4.54526,-2.050578 -0.3076,0 -2.20659,1.441535 -4.21999,3.203411 -3.91111,3.422523 -5.91186,3.953815 -7.65129,2.031769 z m -95.67158,-3.622768 c -0.74622,-0.522674 -2.15448,-2.324593 -3.129457,-4.004264 -2.236613,-3.853159 -7.187632,-10.229621 -8.263325,-10.642405 -0.448657,-0.172166 -2.512692,0.815196 -4.58674,2.19414 -4.230099,2.812409 -5.345546,3.029752 -6.87511,1.339605 -1.337079,-1.477456 -1.359035,-3.563575 -0.05126,-4.871342 1.353493,-1.35349 5.861153,-4.413234 8.480243,-5.75628 2.900875,-1.487542 5.438778,-0.57425 9.218265,3.317297 4.619844,4.75682 10.763824,13.98775 10.763824,16.171957 0,2.902723 -2.93095,4.090252 -5.55644,2.251292 z M 49.358716,28.877172 c -4.123907,-0.282655 -5.144879,-0.959151 -5.144879,-3.408993 0,-3.348828 1.767449,-3.886277 11.211939,-3.409347 4.580878,0.231327 8.813881,0.669774 9.406673,0.974327 1.650481,0.847951 2.045769,2.975688 0.882604,4.750896 -0.979744,1.495283 -1.311463,1.564672 -6.940465,1.451821 -3.251348,-0.06518 -7.488489,-0.2266 -9.415872,-0.358704 z M 109.11401,21.05146 c -5.79836,-3.535468 -5.20793,-12.241958 1.02066,-15.050661 2.39289,-1.0790386 2.67741,-1.0802842 5.8527,-0.025621 4.60044,1.528019 7.03019,3.832707 7.42393,7.041815 0.83519,6.80708 -8.08711,11.821032 -14.29729,8.034465 z m 6.6914,-6.889642 c 0.26381,-0.801372 -2.80891,-1.908397 -3.4679,-1.249399 -0.20331,0.203309 -0.19117,0.834769 0.027,1.403243 0.45223,1.178499 3.04041,1.062781 3.44093,-0.153844 z m 50.85102,6.935987 c -1.7114,-1.711399 -2.55764,-10.03447 -1.16214,-11.429978 1.11792,-1.117919 4.0683,-1.296508 5.0586,-0.306204 0.83635,0.836347 1.73266,5.353866 1.76949,8.918458 0.021,2.032343 -0.27866,2.864426 -1.21134,3.363582 -1.81655,0.972189 -3.09298,0.815779 -4.45461,-0.545858 z m -17.59402,-2.651558 c -1.00376,-0.3009 -4.17513,-0.744996 -7.04751,-0.986879 -5.92098,-0.498607 -6.82419,-0.967807 -6.82419,-3.545029 0,-3.016507 2.28704,-4.034149 7.86043,-3.497578 9.34327,0.899511 12.6414,2.246527 12.6414,5.162962 0,2.883527 -2.69154,4.04721 -6.63013,2.866524 z M 29.821849,11.441104 C 27.234884,8.58254 30.95247,4.3688374 34.189926,6.490101 c 1.462483,0.958255 1.581245,0.944764 1.884276,-0.214029 0.177879,-0.6802075 1.06118,-1.57289 1.962893,-1.9837375 3.302936,-1.5049188 6.675469,3.1645425 4.126558,5.7134525 -1.088533,1.088534 -4.080449,0.953483 -5.271899,-0.237968 -0.874583,-0.874581 -1.006787,-0.880591 -1.006787,-0.04576 0,2.742797 -4.087768,3.901783 -6.063118,1.719047 z"
			style="fill:#87ceeb;fill-opacity:1;stroke:none;"
		/>
	</g>
</svg>
