<?xml version="1.0" encoding="UTF-8" standalone="no"?>
<!-- Created with Inkscape (http://www.inkscape.org/) -->
<svg
	xmlns="http://www.w3.org/2000/svg"
	xmlns:cc="http://creativecommons.org/ns#"
	xmlns:dc="http://purl.org/dc/elements/1.1/"
	xmlns:inkscape="http://www.inkscape.org/namespaces/inkscape"
	xmlns:rdf="http://www.w3.org/1999/02/22-rdf-syntax-ns#"
	xmlns:sodipodi="http://sodipodi.sourceforge.net/DTD/sodipodi-0.dtd"
	xmlns:svg="http://www.w3.org/2000/svg"
	xmlns:xlink="http://www.w3.org/1999/xlink"
	width="256"
	height="48"
	viewBox="0 0 256 48"
	version="1.1"
	xml:space="preserve"
	inkscape:version="1.3 (0e150ed6c4, 2023-07-21)"
	>
	<title>仕事早すぎ問題</title>
	<metadata>
		<rdf:RDF>
			<cc:Work rdf:about="">
				<cc:license rdf:resource="http://creativecommons.org/licenses/by/4.0/" />
				<dc:title>仕事早すぎ問題</dc:title>
				<dc:date>2023-10-19</dc:date>
				<dc:creator><cc:Agent><dc:title>zawa-ch.</dc:title></cc:Agent></dc:creator>
				<dc:rights><cc:Agent><dc:title>Copyright 2023 zawa-ch.</dc:title></cc:Agent></dc:rights>
				<dc:identifier>stellar_ch-handwrittenshigotohayasugimondai</dc:identifier>
				<dc:language>ja_JP</dc:language>
			</cc:Work>
			<cc:License rdf:about="http://creativecommons.org/licenses/by/4.0/">
				<cc:permits rdf:resource="http://creativecommons.org/ns#Reproduction" />
				<cc:permits rdf:resource="http://creativecommons.org/ns#Distribution" />
				<cc:permits rdf:resource="http://creativecommons.org/ns#DerivativeWorks" />
				<cc:requires rdf:resource="http://creativecommons.org/ns#Notice" />
				<cc:requires rdf:resource="http://creativecommons.org/ns#Attribution" />
			</cc:License>
		</rdf:RDF>
	</metadata>
	<sodipodi:namedview
		pagecolor="#505050"
		bordercolor="#eeeeee"
		borderopacity="1"
		inkscape:showpageshadow="0"
		inkscape:pageopacity="0"
		inkscape:pagecheckerboard="0"
		inkscape:deskcolor="#d1d1d1"
		inkscape:document-units="px"
		showgrid="false"
		>
		<inkscape:grid units="px" originx="0" originy="0" spacingx="1" spacingy="1" empspacing="8" dotted="false" gridanglex="30" gridanglez="30" visible="false" />
	</sodipodi:namedview>
	<defs/>
	<g inkscape:groupmode="layer">
		<path
			d="m 14.710997,42.421561 c -0.827918,-1.263563 -0.990541,-2.924356 -0.815209,-8.325373 0.120463,-3.710815 0.150862,-6.746611 0.06755,-6.746216 -0.08331,3.96e-4 -1.108762,1.045305 -2.278782,2.322018 -3.1857719,3.47628 -7.0150271,3.113421 -7.0150271,-0.664739 0,-1.184311 1.5174647,-3.235882 5.4501811,-7.368494 2.9976,-3.149964 6.275433,-6.895399 7.284073,-8.323187 2.206508,-3.123438 3.619054,-3.7006805 5.707393,-2.332349 2.19376,1.437407 1.964971,3.118206 -0.943657,6.932551 -1.917279,2.514299 -2.372797,3.558129 -1.921075,4.40218 0.325669,0.608518 0.592125,5.095478 0.592125,9.971023 0,6.986781 -0.211168,9.166112 -0.996848,10.287826 -1.342297,1.916399 -3.822507,1.841354 -5.130726,-0.15524 z m 40.640204,0.23102 c -0.994961,-0.994961 -1.250407,-1.832488 -0.976546,-3.20179 0.333244,-1.666221 0.201493,-1.85437 -1.298518,-1.85437 -2.113439,0 -5.796155,-2.245013 -6.303164,-3.842459 -0.672136,-2.11771 0.869637,-6.389265 2.588872,-7.172602 1.006236,-0.45847 1.363435,-0.961884 1.002134,-1.412338 -1.104301,-1.376795 -1.444343,-4.769884 -0.627903,-6.265515 0.443857,-0.813101 0.7335,-2.232522 0.643651,-3.154272 -0.200169,-2.053509 1.391427,-3.767135 3.498872,-3.767135 1.08179,0 1.758425,-0.492952 2.172864,-1.58301 0.351835,-0.9253955 1.321903,-1.7637305 2.335147,-2.0180395 1.389463,-0.348732 2.022987,-0.09823 3.193723,1.262832 1.035424,1.2037525 2.080156,1.6978595 3.589922,1.6978595 4.05715,0 6.568961,3.643914 3.988209,5.785746 -0.685223,0.568684 -0.783273,1.024105 -0.320179,1.487196 1.165439,1.165441 0.782844,5.231335 -0.610959,6.492708 -1.594006,1.442555 -0.667101,2.883658 1.854739,2.883658 2.61097,0 4.656025,1.731075 4.423049,3.743977 -0.148166,1.28016 -0.865104,2.020183 -2.907872,3.001504 -1.491176,0.71634 -3.061655,1.652864 -3.489952,2.081163 -0.428298,0.4283 -2.017818,0.778727 -3.532266,0.778727 -2.468335,0 -2.753539,0.156871 -2.753539,1.514536 0,1.976677 -2.316426,4.889044 -3.888626,4.889044 -0.678831,0 -1.840578,-0.606339 -2.581658,-1.34742 z m 35.595054,-1.637193 c -0.818301,-0.8183 -0.96746,-1.704255 -0.646863,-3.842148 0.41668,-2.778609 0.41668,-2.778609 -3.784888,-2.778609 -3.347754,0 -4.461817,-0.260258 -5.482278,-1.280716 -1.516548,-1.516549 -1.604251,-2.516136 -0.368513,-4.200025 0.758049,-1.03297 1.623729,-1.226115 5.122863,-1.142988 4.048421,0.09618 4.210662,0.04066 4.210662,-1.440806 0,-1.57783 -0.08431,-1.610942 -4.641443,-1.822684 -2.757555,-0.128126 -3.572467,-1.504908 -4.04931,-6.841192 -0.393059,-4.39866 -0.306265,-5.011753 0.877002,-6.19502 0.722272,-0.722278 1.622309,-1.8907515 2.000069,-2.5966065 0.732447,-1.368593 4.116483,-2.269066 11.425472,-3.040258 5.216912,-0.5504499 9.318022,0.880348 10.813712,3.772691 1.24419,2.4059985 0.85898,10.5954845 -0.60335,12.8272915 -1.08012,1.648473 -5.61955,3.060257 -7.127134,2.216572 -1.418444,-0.793802 -2.23846,-0.117559 -1.816074,1.497661 0.316964,1.212061 0.681527,1.319358 3.392038,0.998339 3.62962,-0.429876 5.2577,0.506308 5.2577,3.02329 0,2.462314 -0.97042,3.180863 -4.81841,3.567798 -3.346154,0.336474 -3.346154,0.336474 -3.704601,3.457777 -0.508349,4.426633 -3.538612,6.337671 -6.056654,3.819633 z m 7.201268,-28.219905 c -1.328595,-0.138621 -3.345723,-0.136297 -4.482506,0.0052 -1.136783,0.141463 -0.04975,0.25488 2.415623,0.25204 2.465378,-0.0028 3.395479,-0.118582 2.066883,-0.257205 z m 74.395057,28.162818 c -0.72872,-0.907679 -0.86099,-3.956623 -0.69597,-16.044892 0.2037,-14.9242655 0.2037,-14.9242655 2.24124,-16.2031335 1.64354,-1.031577 2.88903,-1.236387 6.441,-1.059175 3.96011,0.197576 4.55185,0.405785 5.87722,2.067965 0.86341,1.0828135 1.75805,3.4808015 2.16021,5.7901655 0.93712,5.38133 0.87493,6.343953 -0.52122,8.06813 -0.97692,1.20644 -1.90723,1.518127 -4.86878,1.631204 -2.0136,0.07689 -3.81976,0.298441 -4.01366,0.49235 -0.19391,0.193909 -0.5418,3.562014 -0.77308,7.484678 -0.35017,5.939223 -0.62193,7.279405 -1.62481,8.012726 -1.63152,1.193 -3.14052,1.107217 -4.22215,-0.240018 z m -141.544068,0.02126 c -3.253247,-0.181101 -4.522981,-0.540208 -5.421804,-1.533397 -1.069453,-1.181732 -1.088288,-1.449422 -0.212087,-3.014136 0.67057,-1.1975 1.633175,-1.814128 3.180551,-2.037403 2.209397,-0.3188 2.219776,-0.336029 2.410994,-4.002237 0.192046,-3.682059 0.192046,-3.682059 -2.963292,-3.682059 -3.591464,0 -4.790717,-0.958199 -4.479052,-3.578747 0.235239,-1.97794 1.126923,-2.596101 4.528777,-3.139584 2.286252,-0.365254 2.401343,-0.500256 2.401343,-2.816808 0,-3.251698 1.862861,-5.04408 4.341807,-4.177538 1.361972,0.476093 1.892228,1.234352 2.432662,3.478676 0.677582,2.813872 0.746297,2.873878 3.520813,3.074558 6.948926,0.502614 6.708911,6.519085 -0.260066,6.519085 -2.991278,0 -2.991278,0 -2.991278,4.099684 0,3.955326 0.0659,4.122656 1.87146,4.752078 2.498743,0.871067 3.398273,2.612952 2.394244,4.636309 -0.847949,1.70882 -2.254505,1.894727 -10.755072,1.421519 z M 118.173,40.157852 c -1.52461,-1.524599 -1.60589,-2.527097 -0.34056,-4.200025 1.31742,-1.741777 1.20288,-2.410971 -0.34347,-2.006594 -2.24198,0.586294 -4.9263,-0.758111 -5.64815,-2.828803 -1.20938,-3.469235 1.08227,-6.531267 5.50966,-7.36185 1.1783,-0.221051 2.10323,-0.785639 2.10323,-1.283839 0,-0.659601 -0.98849,-0.889271 -3.82738,-0.889271 -3.37593,0 -3.95113,-0.188837 -4.87634,-1.600896 -0.97169,-1.482987 -0.97169,-1.718804 0,-3.20179 0.71301,-1.088198 1.63382,-1.600895 2.87521,-1.600895 4.00556,0 5.82851,-0.721404 5.82851,-2.306535 0,-0.899871 0.64438,-1.928302 1.60089,-2.555035 1.46682,-0.9610975 1.73108,-0.9636545 3.15519,-0.03054 0.85486,0.560126 1.6473,1.658864 1.76098,2.441642 0.18861,1.298717 0.51697,1.408631 3.75318,1.256345 2.91609,-0.137224 3.76207,0.07134 4.75939,1.173366 0.96483,1.066133 1.08865,1.69646 0.60542,3.081847 -0.54756,1.569727 -1.03303,1.79895 -4.91949,2.322822 -4.31199,0.581228 -4.31199,0.581228 -4.43828,4.162327 -0.0695,1.969604 -0.0497,4.856535 0.0439,6.415402 0.29247,4.869473 -2.60723,10.293036 -5.50314,10.293036 -0.44993,0 -1.39438,-0.576322 -2.09878,-1.280716 z m 25.1206,-0.728018 c -5.06611,-2.141158 -6.44453,-3.672582 -5.3896,-5.987878 0.96326,-2.114135 2.69555,-2.256441 6.85718,-0.56331 2.04941,0.833791 4.20891,1.515984 4.79889,1.515984 1.42027,0 3.19226,2.016763 3.19226,3.633233 0,1.594273 -1.92138,3.417697 -3.57239,3.390258 -0.67666,-0.01125 -3.32551,-0.905976 -5.88634,-1.988287 z m 41.77568,-3.37667 c -0.53931,-0.8231 -1.15201,-2.944064 -1.36153,-4.713252 -0.4481,-3.7834 -0.12783,-4.068989 5.97719,-5.329959 3.51401,-0.725807 4.10331,-0.692897 5.64165,0.315057 1.81288,1.187845 4.13409,5.548163 4.15781,7.810282 0.0263,2.506486 -1.79947,3.288394 -7.83087,3.353721 -5.19986,0.05632 -5.67433,-0.04714 -6.58425,-1.435849 z m 29.18047,0.610492 c -0.96933,-1.167971 -0.98804,-5.948252 -0.0362,-9.266888 0.49045,-1.710083 0.3907,-2.419506 -0.49923,-3.550876 -0.85988,-1.093153 -1.15661,-2.938015 -1.30828,-8.133642 -0.18708,-6.4085645 -0.12053,-6.8096915 1.43684,-8.6605255 1.25461,-1.4910111 2.50767,-2.1128017 5.40763,-2.6833318 6.67583,-1.3133902 9.01371,0.7457513 9.57619,8.4344613 0.33816,4.622287 0.33816,4.622287 1.43937,2.146365 1.05564,-2.373479 1.05129,-2.525828 -0.10493,-3.682059 -1.54757,-1.5475635 -1.52625,-2.8070925 0.0746,-4.4079255 1.14188,-1.1418858 2.13453,-1.2807167 9.15712,-1.2807167 5.27228,0 8.13046,0.2540609 8.64483,0.7684297 0.9596,0.959595 0.99697,3.229399 0.0685,4.1579085 -0.5064,0.506393 -0.39283,1.168746 0.41066,2.395021 0.90408,1.379792 1.0429,2.590659 0.74645,6.510519 -0.20032,2.648509 -0.63999,5.158354 -0.97708,5.577435 -0.33709,0.419081 -0.81314,1.698489 -1.0579,2.843129 -0.38085,1.781187 -0.26736,2.081164 0.78735,2.081164 2.57909,0 4.42394,4.076344 2.54908,5.632348 -0.48223,0.400208 -6.93947,0.79006 -16.16904,0.976194 -8.45141,0.170441 -16.24707,0.506751 -17.3237,0.747354 -1.42561,0.318592 -2.19244,0.154373 -2.82213,-0.604364 z m 25.82284,-7.71207 c -0.20272,-0.528295 -0.59509,-0.960537 -0.87193,-0.960537 -0.27683,0 -0.6692,0.432242 -0.87192,0.960537 -0.24947,0.650103 0.0324,0.960538 0.87192,0.960538 0.83959,0 1.1214,-0.310435 0.87193,-0.960538 z M 230.876,28.669199 c 0,-1.0467 -0.90734,-1.140295 -2.56143,-0.264217 -1.60089,0.847903 -1.60089,0.847903 0.48027,0.857343 1.14464,0.0052 2.08116,-0.261714 2.08116,-0.593126 z m -1.59344,-9.52128 c -0.41887,-1.668927 -0.41887,-1.668927 -1.45318,0.466688 -0.97909,2.021609 -0.96812,2.184361 0.2057,3.048737 1.12004,0.824767 1.26066,0.779609 1.45319,-0.466688 0.11724,-0.758896 0.0247,-2.130828 -0.20571,-3.048737 z m -25.2221,16.675966 c -0.33325,-0.622698 -0.80944,-3.465273 -1.05818,-6.316834 l -0.45226,-5.184655 -4.78769,-0.362092 c -6.47194,-0.489471 -6.96791,-1.015387 -6.89366,-7.309801 0.0751,-6.364679 1.13785,-9.6544245 3.29364,-10.1954935 2.49197,-0.6254472 9.04866,0.171986 10.78876,1.312145 3.04607,1.995861 3.69059,4.3996355 4.34763,16.2146835 0.6757,12.15069 0.49719,12.974225 -2.81218,12.974225 -1.08516,0 -2.06481,-0.457177 -2.42606,-1.132178 z m -56.70544,-3.716248 c -0.55345,-0.553451 -1.00628,-1.562015 -1.00628,-2.241252 0,-1.479259 0.34301,-1.457974 -3.7772,-0.2344 -3.06498,0.9102 -3.50928,0.908867 -4.91893,-0.01476 -2.3091,-1.512992 -1.73234,-4.728103 1.01183,-5.640284 0.7561,-0.251329 0.68796,-0.427436 -0.32017,-0.8274 -1.70169,-0.675132 -2.21967,-1.523999 -2.23144,-3.656961 -0.007,-1.266761 0.43864,-1.979041 1.55702,-2.488609 1.08439,-0.494081 1.62661,-1.324275 1.76098,-2.696232 0.26139,-2.668737 3.02559,-3.789422 4.98128,-2.019546 1.26709,1.146707 1.40401,1.14602 4.84701,-0.02429 4.16699,-1.416403 5.62805,-0.893472 5.93054,2.122605 0.14518,1.447641 -0.18265,2.220337 -1.26312,2.97712 -1.41281,0.989573 -1.41711,1.022053 -0.13523,1.022053 0.72817,0 1.84658,0.577493 2.48534,1.283317 1.50965,1.668155 0.55695,3.992214 -2.2266,5.431647 -1.70335,0.880839 -1.86733,1.185729 -1.25403,2.331697 1.0009,1.870195 0.26602,4.054168 -1.65936,4.931432 -2.14577,0.977679 -2.57703,0.948469 -3.78164,-0.256137 z m -5.48878,-9.239451 c 0.5283,-0.341411 0.67238,-0.620747 0.32017,-0.620747 -0.35219,0 -1.07259,0.279336 -1.60089,0.620747 -0.5283,0.341411 -0.67237,0.620747 -0.32017,0.620747 0.35219,0 1.07259,-0.279336 1.60089,-0.620747 z m 9.24828,-3.782429 c 0.19737,-0.319352 -0.21786,-0.429824 -0.92274,-0.245493 -1.49522,0.391011 -1.68423,0.826132 -0.35885,0.826132 0.5075,0 1.08422,-0.261288 1.28159,-0.580639 z m 7.54352,-4.258358 c -3.34098,-2.340106 -0.20815,-8.0989275 3.21938,-5.9179365 1.1559,0.735513 1.73642,0.764726 2.93568,0.147735 1.86444,-0.959214 3.78485,-0.49787 4.64902,1.1168505 0.92779,1.733592 0.48788,3.751855 -1.03729,4.758978 -1.09109,0.720488 -1.58362,0.707735 -3.10262,-0.08034 -1.58882,-0.824286 -1.96925,-0.822198 -3.16792,0.01739 -1.6861,1.18098 -1.75037,1.180195 -3.49625,-0.04267 z"
			style="fill:#ff6347;fill-opacity:1;stroke:none;"
		/>
	</g>
</svg>
