<?xml version="1.0" encoding="UTF-8" standalone="no"?>
<!-- Created with Inkscape (http://www.inkscape.org/) -->
<svg
	xmlns="http://www.w3.org/2000/svg"
	xmlns:cc="http://creativecommons.org/ns#"
	xmlns:dc="http://purl.org/dc/elements/1.1/"
	xmlns:inkscape="http://www.inkscape.org/namespaces/inkscape"
	xmlns:rdf="http://www.w3.org/1999/02/22-rdf-syntax-ns#"
	xmlns:sodipodi="http://sodipodi.sourceforge.net/DTD/sodipodi-0.dtd"
	xmlns:svg="http://www.w3.org/2000/svg"
	xmlns:xlink="http://www.w3.org/1999/xlink"
	width="200"
	height="48"
	viewBox="0 0 200 48"
	version="1.1"
	xml:space="preserve"
	inkscape:version="1.3 (0e150ed6c4, 2023-07-21)"
	>
	<title>仕事が早い</title>
	<metadata>
		<rdf:RDF>
			<cc:Work rdf:about="">
				<cc:license rdf:resource="http://creativecommons.org/licenses/by/4.0/" />
				<dc:title>仕事が早い</dc:title>
				<dc:date>2023-10-19</dc:date>
				<dc:creator><cc:Agent><dc:title>zawa-ch.</dc:title></cc:Agent></dc:creator>
				<dc:rights><cc:Agent><dc:title>Copyright 2023 zawa-ch.</dc:title></cc:Agent></dc:rights>
				<dc:identifier>stellar_ch-handwrittenshigotogahayai</dc:identifier>
				<dc:language>ja_JP</dc:language>
			</cc:Work>
			<cc:License rdf:about="http://creativecommons.org/licenses/by/4.0/">
				<cc:permits rdf:resource="http://creativecommons.org/ns#Reproduction" />
				<cc:permits rdf:resource="http://creativecommons.org/ns#Distribution" />
				<cc:permits rdf:resource="http://creativecommons.org/ns#DerivativeWorks" />
				<cc:requires rdf:resource="http://creativecommons.org/ns#Notice" />
				<cc:requires rdf:resource="http://creativecommons.org/ns#Attribution" />
			</cc:License>
		</rdf:RDF>
	</metadata>
	<sodipodi:namedview
		pagecolor="#505050"
		bordercolor="#eeeeee"
		borderopacity="1"
		inkscape:showpageshadow="0"
		inkscape:pageopacity="0"
		inkscape:pagecheckerboard="0"
		inkscape:deskcolor="#d1d1d1"
		inkscape:document-units="px"
		showgrid="false"
		>
		<inkscape:grid units="px" originx="0" originy="0" spacingx="1" spacingy="1" empspacing="8" dotted="false" gridanglex="30" gridanglez="30" visible="false" />
	</sodipodi:namedview>
	<defs/>
	<g inkscape:groupmode="layer">
	<path
			d="m 60.137427,43.254982 c -0.558647,-0.558646 -0.979309,-2.0333 -0.979309,-3.433021 0,-2.453714 0,-2.453714 -3.293171,-2.066666 -3.823637,0.449393 -5.167079,-0.506208 -4.633769,-3.296039 0.185947,-0.97272 -0.0829,-2.297506 -0.638262,-3.145089 -0.765641,-1.168516 -0.815743,-1.780035 -0.247942,-3.026225 0.391379,-0.858982 0.711597,-2.215346 0.711597,-3.014144 0,-0.798797 0.391706,-1.777447 0.870459,-2.174776 0.478752,-0.397329 0.724071,-1.282203 0.545153,-1.966386 -0.189308,-0.723914 0.157833,-1.777833 0.830359,-2.520966 1.087374,-1.201534 1.091986,-1.312632 0.07804,-1.880063 -1.241998,-0.695056 -1.446739,-3.661915 -0.329788,-4.778866 0.41131,-0.411309 1.525861,-0.747835 2.47678,-0.747835 1.281446,0 1.973269,-0.472471 2.672908,-1.8254228 0.51918,-1.003982 1.497322,-2.001052 2.17365,-2.21571 1.559576,-0.49499 3.76955,0.659187 3.76955,1.968679 0,0.834463 0.519298,0.9381698 3.142232,0.627522 2.603361,-0.308329 3.351476,-0.162904 4.362369,0.8479888 1.892228,1.892224 1.395921,4.063199 -1.150189,5.031228 -1.577149,0.59963 -1.577149,0.59963 -0.226607,1.545588 1.404983,0.984084 1.797335,3.295196 0.739079,4.353449 -1.005838,1.005839 1.294042,5.202103 2.864408,5.226282 1.752695,0.02698 4.602215,2.322913 4.602215,3.708114 0,1.569663 -1.98946,3.167335 -3.944045,3.167335 -1.239319,0 -1.664718,0.312899 -1.664718,1.224466 0,1.600058 -1.79845,2.51471 -4.944598,2.51471 -2.532904,0 -2.533754,8.1e-4 -2.533754,2.44827 4e-6,2.648552 -1.243262,4.406885 -3.115976,4.406885 -0.63655,0 -1.598052,-0.440689 -2.136671,-0.979308 z M 18.464174,42.503255 c -0.700621,-0.774177 -1.154321,-3.073442 -1.506401,-7.63415 l -0.503821,-6.526311 -1.796052,2.65927 c -2.698112,3.994874 -6.653649,4.351591 -7.1018764,0.640457 -0.1388075,-1.149267 1.4561079,-3.862136 6.0562414,-10.301357 3.43457,-4.807676 6.713808,-8.921254 7.287197,-9.141283 1.431732,-0.549407 3.98288,1.245405 3.98288,2.802081 0,0.701547 -0.85599,2.51968 -1.902201,4.040296 -1.778944,2.585605 -1.839516,2.854253 -0.934794,4.145924 0.648987,0.926558 0.967408,2.805875 0.967408,5.709626 0,2.380652 0.311594,6.117768 0.692433,8.304702 0.614496,3.528695 0.568552,4.113132 -0.408186,5.192414 -1.372139,1.516198 -3.515252,1.564237 -4.832828,0.108331 z m 12.424677,-4.405732 c -1.483591,-1.63935 -1.086389,-3.927468 0.848647,-4.888703 0.856894,-0.425665 1.529946,-1.063672 1.49567,-1.417791 -0.03428,-0.354119 -0.104386,-1.288636 -0.155799,-2.076705 -0.08157,-1.250289 -0.364384,-1.401225 -2.219685,-1.184629 -1.697118,0.198129 -2.27376,-0.02749 -2.857372,-1.117977 -1.164714,-2.176288 -0.304128,-4.081964 2.289091,-5.068951 2.311759,-0.879862 2.311759,-0.879862 2.144697,-4.486392 -0.182431,-3.938322 0.541139,-5.410724 2.651483,-5.395534 2.26105,0.01627 3.115557,1.037551 3.475347,4.153617 0.346804,3.003593 0.346804,3.003593 2.74965,2.812386 5.900672,-0.469545 6.346801,5.326896 0.49999,6.496258 -2.494221,0.498844 -2.75614,0.925513 -2.243995,3.655483 0.351215,1.872138 0.65964,2.191786 2.114826,2.191786 0.937004,0 2.228574,0.580041 2.870155,1.288981 1.065348,1.177195 1.085343,1.433911 0.230577,2.960181 -0.802267,1.432523 -1.466839,1.726009 -4.6533,2.054969 -2.044551,0.211074 -4.707707,0.581331 -5.918124,0.822795 -1.763437,0.351785 -2.423538,0.192858 -3.321858,-0.799774 z M 99.075676,36.85399 c -1.580238,-1.350193 -1.690432,-2.258266 -0.739285,-6.092422 0.671624,-2.707394 0.648298,-3.532342 -0.154191,-5.452964 -0.520039,-1.244637 -1.217252,-2.262976 -1.549347,-2.262976 -0.332101,0 -1.364313,2.313615 -2.293809,5.141367 -2.354117,7.161782 -4.236044,8.888198 -6.844935,6.279303 -1.136485,-1.136481 -1.020053,-2.733418 0.566585,-7.771331 0.911511,-2.894219 0.911511,-2.894219 -1.420015,-2.581496 -2.573225,0.345142 -4.42431,-0.88385 -4.42431,-2.93743 0,-1.828503 1.64237,-3.006723 4.837215,-3.470166 3.950582,-0.57307 4.96107,-1.179318 5.415685,-3.249172 0.21069,-0.959275 0.941387,-2.662207 1.623768,-3.784293 0.972634,-1.5993668 1.592434,-1.9978668 2.868671,-1.8444228 2.559416,0.307722 3.419552,2.1689558 2.379175,5.1482548 -0.858951,2.459739 -0.858951,2.459739 1.598217,4.562981 3.42222,2.929298 4.75103,7.473131 3.8231,13.073018 -0.36404,2.196878 -0.96773,4.362847 -1.34154,4.813264 -1.11208,1.339969 -3.05406,1.53148 -4.344984,0.428485 z m 41.506094,0.0087 c -0.56727,-0.626816 -1.03138,-1.748568 -1.03138,-2.492784 0,-1.1145 -0.36156,-1.35312 -2.05026,-1.35312 -1.12764,0 -3.69193,0.427604 -5.69843,0.95023 -3.37436,0.87891 -3.73722,0.869656 -4.8344,-0.123282 -0.7156,-0.647606 -1.1127,-1.704535 -1.00092,-2.66402 0.24752,-2.124638 3.37227,-3.611694 8.88309,-4.227434 2.71181,-0.302997 4.39078,-0.790086 4.56858,-1.32539 0.22052,-0.663945 -0.2621,-0.754567 -2.23941,-0.420502 -2.74757,0.464197 -5.10661,-0.388944 -5.10661,-1.846788 0,-0.488726 -0.60532,-1.452532 -1.34515,-2.141793 -1.00757,-0.938692 -1.5523,-2.626091 -2.17055,-6.723633 -0.8254,-5.4704308 -0.8254,-5.4704308 1.34096,-7.4308538 1.84347,-1.6682331 2.95778,-2.0727662 7.47635,-2.7141778 7.28589,-1.0342327 14.75291,-0.6549453 16.39694,0.8328831 1.77475,1.6061267 2.79433,6.4398465 2.27914,10.8052115 -0.3851,3.263118 -0.71716,3.904696 -3.27877,6.334914 -2.3521,2.231447 -3.15325,2.643484 -4.58368,2.357397 -0.95337,-0.190674 -1.90105,-0.07543 -2.10594,0.256103 -0.22714,0.367517 1.42837,0.602784 4.24161,0.602784 3.67868,0 4.82327,0.231059 5.64555,1.139664 2.24399,2.479581 0.30993,5.092295 -3.76956,5.092295 -1.38688,0 -3.39798,0.175274 -4.4691,0.389497 -1.62547,0.325094 -1.94748,0.678394 -1.94748,2.136672 0,3.278285 -3.14963,4.832406 -5.20058,2.566127 z m 3.01939,-18.773935 3.11598,-0.485333 -3.42758,-0.04735 c -1.88517,-0.02604 -4.54933,0.184674 -5.92036,0.468262 -2.49278,0.515614 -2.49278,0.515614 0.3116,0.532686 1.54241,0.0094 4.20657,-0.201329 5.92036,-0.468262 z m 0.3895,-6.883826 c 3.75567,0 5.53086,-0.230237 5.53086,-0.717337 0,-0.8953888 -11.38561,-0.315354 -13.71675,0.698794 -1.43258,0.623237 -1.39027,0.649827 0.55174,0.346769 1.1568,-0.180524 4.59217,-0.328226 7.63415,-0.328226 z m 23.50645,19.783375 c -2.52524,-2.134671 -3.01889,-3.666299 -3.01889,-9.366678 0,-5.090046 0.83631,-9.170306 1.87959,-9.170306 0.28119,0 0.93317,-0.161902 1.44883,-0.359783 0.51567,-0.19788 1.50304,0.205675 2.19415,0.896789 1.12766,1.127649 1.22275,1.819932 0.92688,6.747541 -0.32971,5.49097 -0.32971,5.49097 1.75179,6.425764 2.43751,1.094679 3.03863,3.239325 1.41179,5.036959 -1.46538,1.619226 -4.54611,1.520982 -6.59414,-0.210286 z m -60.50022,-4.982495 c -1.45254,-1.121734 -5.00995,-10.785423 -4.52861,-12.301975 0.46483,-1.464546 3.19853,-2.326664 4.5915,-1.448003 0.8997,0.567515 5.0669,10.254864 5.06903,11.783803 0.001,0.952248 -2.08916,2.74517 -3.20078,2.74517 -0.50733,0 -1.37634,-0.350548 -1.93114,-0.778995 z m 80.08497,0 c -0.33397,-0.428447 -1.11916,-3.354471 -1.74486,-6.502275 -1.2872,-6.475685 -0.9265,-7.675432 2.30758,-7.675432 2.20836,0 3.23557,2.032887 4.37,8.648371 0.6021,3.511176 0.58803,4.525552 -0.0738,5.323064 -0.97548,1.175374 -4.00327,1.303912 -4.85888,0.206272 z m -74.59598,-8.925056 c -1.22458,-1.224581 -1.26731,-3.614627 -0.0822,-4.598179 1.55836,-1.293327 4.30619,-0.545753 4.96965,1.352043 1.08164,3.093979 -2.5966,5.536984 -4.88745,3.246136 z m 7.64003,-0.422883 c -1.49215,-1.202264 -1.76056,-2.688017 -0.74704,-4.135028 1.26705,-1.808976 3.69493,-1.691484 4.96052,0.240054 0.94565,1.443242 0.94565,1.672738 0,3.115979 -1.11472,1.701291 -2.70411,1.995139 -4.21348,0.778995 z"
			style="fill:#9acd32;fill-opacity:1;stroke:none;"
		/>
	</g>
</svg>
