<?xml version="1.0" encoding="UTF-8" standalone="no"?>
<!-- Created with Inkscape (http://www.inkscape.org/) -->
<svg
	xmlns="http://www.w3.org/2000/svg"
	xmlns:cc="http://creativecommons.org/ns#"
	xmlns:dc="http://purl.org/dc/elements/1.1/"
	xmlns:inkscape="http://www.inkscape.org/namespaces/inkscape"
	xmlns:rdf="http://www.w3.org/1999/02/22-rdf-syntax-ns#"
	xmlns:sodipodi="http://sodipodi.sourceforge.net/DTD/sodipodi-0.dtd"
	xmlns:svg="http://www.w3.org/2000/svg"
	xmlns:xlink="http://www.w3.org/1999/xlink"
	width="216"
	height="48"
	viewBox="0 0 216 48"
	version="1.1"
	xml:space="preserve"
	inkscape:version="1.3 (0e150ed6c4, 2023-07-21)"
	>
	<title>寝てもろて</title>
	<metadata>
		<rdf:RDF>
			<cc:Work rdf:about="">
				<cc:license rdf:resource="http://creativecommons.org/licenses/by/4.0/" />
				<dc:title>寝てもろて</dc:title>
				<dc:date>2023-10-19</dc:date>
				<dc:creator><cc:Agent><dc:title>zawa-ch.</dc:title></cc:Agent></dc:creator>
				<dc:rights><cc:Agent><dc:title>Copyright 2023 zawa-ch.</dc:title></cc:Agent></dc:rights>
				<dc:identifier>stellar_ch-handwrittennetemorote</dc:identifier>
				<dc:language>ja_JP</dc:language>
			</cc:Work>
			<cc:License rdf:about="http://creativecommons.org/licenses/by/4.0/">
				<cc:permits rdf:resource="http://creativecommons.org/ns#Reproduction" />
				<cc:permits rdf:resource="http://creativecommons.org/ns#Distribution" />
				<cc:permits rdf:resource="http://creativecommons.org/ns#DerivativeWorks" />
				<cc:requires rdf:resource="http://creativecommons.org/ns#Notice" />
				<cc:requires rdf:resource="http://creativecommons.org/ns#Attribution" />
			</cc:License>
		</rdf:RDF>
	</metadata>
	<sodipodi:namedview
		pagecolor="#505050"
		bordercolor="#eeeeee"
		borderopacity="1"
		inkscape:showpageshadow="0"
		inkscape:pageopacity="0"
		inkscape:pagecheckerboard="0"
		inkscape:deskcolor="#d1d1d1"
		inkscape:document-units="px"
		showgrid="false"
		>
		<inkscape:grid units="px" originx="0" originy="0" spacingx="1" spacingy="1" empspacing="8" dotted="false" gridanglex="30" gridanglez="30" visible="false" />
	</sodipodi:namedview>
	<defs/>
	<g inkscape:groupmode="layer">
		<path
			d="m 43.024029,42.777008 c -2.578298,-1.144891 -2.90577,-1.16039 -4.361691,-0.206435 -2.228907,1.460437 -4.729378,0.688892 -5.568499,-1.718214 -0.560613,-1.608173 -0.920476,-1.851079 -2.248542,-1.517756 -3.785055,0.949988 -5.621997,-4.370364 -2.337573,-6.770336 l 1.778904,-1.299869 -1.173168,-1.996187 c -0.666772,-1.134535 -1.001023,-2.538567 -0.77436,-3.252719 0.226666,-0.714163 -0.0744,-1.97874 -0.697497,-2.929704 -1.700521,-2.595323 -0.504414,-4.426167 3.717948,-5.69095 l 3.455199,-1.034984 -4.528122,0.326788 c -7.817594,0.564183 -13.524871,1.604516 -15.20155,2.770967 -3.65608,2.5435 -5.6699952,2.194621 -7.4744619,-1.294834 C 6.7160618,16.432899 6.70575,16.017682 7.5262411,14.765454 8.6029474,13.122193 16.962345,10.753273 24.464758,9.9653491 28.72561,9.5178627 28.980379,9.4008667 28.781102,7.9831775 28.499757,5.9816451 30.385612,4.000002 32.57174,4.000002 c 1.915417,0 2.935793,0.8942201 3.321609,2.9109353 0.276598,1.445815 0.957942,1.4956131 8.812375,0.6440779 3.547885,-0.3846426 5.123732,-0.2930579 6.362213,0.3697577 3.31285,1.7729831 4.590003,7.1576101 2.208801,9.3125671 -1.679139,1.519601 -4.395895,0.847588 -5.20793,-1.288226 -0.690423,-1.815951 -1.132516,-1.855304 -7.432188,-0.661587 l -4.528121,0.858029 3.234372,0.0931 c 4.991792,0.143692 6.792183,2.311949 6.792183,8.18 0,2.006325 0.38896,3.257784 1.293749,4.162574 1.828363,1.828362 1.635425,4.159852 -0.485156,5.862696 -1.332509,1.070016 -1.544639,1.511593 -0.845347,1.759698 0.513456,0.182172 1.623135,1.020799 2.465952,1.863617 1.67069,1.67069 1.529967,3.749348 -0.354093,5.230384 -1.312433,1.031686 -1.800719,0.982669 -5.18613,-0.520621 z m -24.575204,-0.09391 c -0.426937,-0.426937 -0.776249,-1.428586 -0.776249,-2.225884 0,-2.047131 -0.805011,-2.311055 -3.550332,-1.163987 -2.166817,0.905354 -2.54169,0.903531 -3.949967,-0.01921 -2.5070912,-1.642705 -1.9671619,-4.937402 1.066195,-6.506012 L 13.056958,31.82763 11.160082,29.930754 C 9.1423224,27.912994 8.8538675,26.673542 9.9328412,24.657461 10.657331,23.30374 14.671558,22.860692 15.408515,24.053113 c 0.733907,1.187485 1.617186,0.665663 1.617186,-0.955399 0,-3.209558 4.907748,-4.548847 6.406555,-1.748302 0.32082,0.599459 0.684379,5.337813 0.807906,10.529675 0.17393,7.310262 0.02432,9.681185 -0.663204,10.510005 -1.034192,1.246735 -4.005078,1.417062 -5.128133,0.294006 z M 75.28996,36.911247 c -5.087423,-2.542214 -6.690496,-4.854968 -6.323356,-9.122704 0.160931,-1.870708 0.92788,-4.061511 1.976633,-5.646283 0.94252,-1.424243 1.713673,-2.741319 1.713673,-2.926838 0,-0.575389 -3.061219,-0.371119 -4.896764,0.326755 -2.416375,0.918704 -4.806355,-0.655709 -4.806355,-3.166214 0,-3.133769 1.677774,-3.943262 9.869831,-4.762002 6.721466,-0.671763 7.612329,-0.636291 9.138804,0.363894 2.719874,1.78213 2.235934,4.005952 -2.212175,10.165478 -2.146932,2.972976 -3.818106,5.856041 -3.713713,6.406811 0.104392,0.550771 1.933753,1.874682 4.065244,2.942025 3.087745,1.54619 3.91544,2.285657 4.072269,3.638203 0.235152,2.028003 -1.338649,3.800854 -3.374098,3.800854 -0.807215,0 -3.286711,-0.908991 -5.509993,-2.019979 z m 49.13516,0.04286 c -1.98179,-0.836418 -2.58314,-1.746196 -2.59585,-3.927265 -0.0142,-2.444919 1.10433,-3.047768 5.48853,-2.958001 4.82332,0.09876 7.6131,-1.421889 7.31099,-3.985063 -0.15948,-1.35313 -0.73017,-1.809725 -3.10631,-2.485287 -4.77102,-1.356451 -6.38332,-4.776524 -3.36885,-7.146155 0.85365,-0.671047 0.36085,-0.808594 -2.89705,-0.808594 -4.42213,0 -5.59241,-0.815062 -5.26286,-3.665422 0.3229,-2.7928948 2.45833,-3.521594 9.69919,-3.3097772 5.59572,0.1636912 6.43249,0.348617 7.92422,1.7512442 1.96164,1.844474 2.12832,3.865091 0.48612,5.893124 -1.16609,1.440059 -1.15272,1.485947 1.01023,3.468143 2.31412,2.120733 3.33278,5.779098 2.51568,9.034688 -0.58284,2.322216 -3.42123,5.450514 -6.25893,6.898198 -2.96783,1.514074 -8.74509,2.168684 -10.94511,1.240167 z m -18.28658,-0.853904 c -3.90476,-1.442124 -5.74817,-2.955079 -6.873606,-5.64143 -0.689807,-1.646523 -1.36876,-2.40487 -1.956226,-2.184974 -1.591952,0.595889 -3.951814,-1.499852 -3.951814,-3.509518 0,-2.11665 0.842372,-2.998374 3.502379,-3.665994 l 1.87796,-0.471337 -2.191132,-0.712698 c -2.850109,-0.927038 -3.970321,-3.628956 -2.279275,-5.497542 0.63025,-0.696417 2.34318,-1.46849 3.806514,-1.715718 1.653359,-0.279333 3.11868,-1.031852 3.87059,-1.98775 0.66549,-0.8460334 1.76935,-1.5382428 2.45302,-1.5382428 1.49361,0 7.07242,5.3281678 7.07242,6.7546748 0,1.408819 -2.33717,3.595318 -3.84306,3.595318 -0.69058,0 -1.43548,0.291093 -1.65537,0.646874 -0.23792,0.384966 0.53235,0.646875 1.90245,0.646875 2.34167,0 4.88973,1.778986 4.88973,3.413876 0,1.993495 -2.01697,3.701743 -4.37074,3.701743 -1.8311,0 -2.18387,0.17288 -1.58164,0.77511 0.42631,0.42631 1.86375,0.744251 3.19431,0.706535 3.48467,-0.09878 4.6987,0.757341 4.6987,3.313467 0,1.189152 -0.41067,2.502917 -0.9126,2.919478 -1.45692,1.209137 -5.03005,1.419834 -7.65261,0.451253 z m 52.206,-3.254176 -3.69877,-3.497702 0.27605,-3.816265 c 0.15182,-2.098945 0.87998,-5.03693 1.61812,-6.528853 1.52506,-3.082421 1.24193,-3.261213 -3.20766,-2.025565 -2.91428,0.809294 -4.73735,0.34887 -5.69362,-1.437957 -1.01683,-1.89996 -0.23924,-4.082021 1.78301,-5.003417 2.0403,-0.929623 14.11633,-1.7462499 16.60106,-1.1226255 2.01986,0.5069526 3.25196,2.5347695 2.66458,4.3854215 -0.23406,0.737452 -1.41304,2.433854 -2.61998,3.769781 -2.24464,2.484552 -4.14175,6.231518 -4.14175,8.180343 0,0.599915 1.16438,2.087415 2.5875,3.305556 2.79143,2.389356 3.32474,4.518711 1.57098,6.272468 -1.83527,1.835272 -3.86204,1.185518 -7.73952,-2.481185 z m 20.39978,2.203953 c -1.78286,-1.782862 -1.64017,-2.770996 0.95701,-6.627606 l 2.25077,-3.342196 -2.08905,-0.675251 c -1.79139,-0.579041 -2.11729,-1.014848 -2.28729,-3.058723 -0.24638,-2.962256 0.59962,-3.489443 7.26174,-4.52518 4.44481,-0.691019 4.98928,-0.653459 6.18261,0.426492 1.87686,1.698532 1.62139,4.098162 -0.87821,8.249165 -1.20273,1.997335 -1.78268,3.476445 -1.28875,3.286911 1.40006,-0.537255 4.12365,1.587735 4.1125,3.208646 -0.0215,3.132561 -2.47677,4.351491 -8.76501,4.351491 -3.30007,0 -4.43064,-0.268069 -5.45632,-1.293749 z m 23.93436,-11.416588 c -0.88945,-0.133944 -2.70596,-0.541781 -4.03669,-0.906304 -2.9091,-0.796883 -3.79267,-2.986766 -2.19123,-5.430865 0.96409,-1.471389 0.95001,-1.597958 -0.21904,-1.969 -2.62725,-0.833856 -2.38076,-5.132373 0.35392,-6.1720965 2.56358,-0.9746736 9.07288,-0.9966521 10.23215,-0.034548 1.25673,1.0429935 1.35701,4.5429835 0.17641,6.1575335 -0.74346,1.01674 -0.65614,1.378713 0.64688,2.681732 1.84619,1.84619 1.90217,3.109944 0.21259,4.79952 -1.26552,1.265526 -1.88288,1.369794 -5.17499,0.874028 z"
			style="fill:#9370db;fill-opacity:1;stroke:none;"
		/>
	</g>
</svg>
