<?xml version="1.0" encoding="UTF-8" standalone="no"?>
<svg
	xmlns="http://www.w3.org/2000/svg"
	xmlns:cc="http://creativecommons.org/ns#"
	xmlns:dc="http://purl.org/dc/elements/1.1/"
	xmlns:inkscape="http://www.inkscape.org/namespaces/inkscape"
	xmlns:rdf="http://www.w3.org/1999/02/22-rdf-syntax-ns#"
	xmlns:sodipodi="http://sodipodi.sourceforge.net/DTD/sodipodi-0.dtd"
	xmlns:svg="http://www.w3.org/2000/svg"
	aria-label="偉業"
	width="256"
	height="256"
	viewBox="0 0 256 256"
	version="1.1"
	inkscape:version="1.2.2 (b0a8486541, 2022-12-01)"
	>
	<title>igyo_neon</title>
	<metadata>
		<rdf:RDF>
			<cc:License rdf:about="http://creativecommons.org/publicdomain/zero/1.0/">
				<cc:permits rdf:resource="http://creativecommons.org/ns#Reproduction" />
				<cc:permits rdf:resource="http://creativecommons.org/ns#Distribution" />
				<cc:permits rdf:resource="http://creativecommons.org/ns#DerivativeWorks" />
			</cc:License>
			<cc:Work rdf:about="">
				<cc:license rdf:resource="http://creativecommons.org/publicdomain/zero/1.0/" />
				<dc:title>igyo_neon</dc:title>
				<dc:creator>
					<cc:Agent>
						<dc:title>zawa-ch.</dc:title>
					</cc:Agent>
				</dc:creator>
			</cc:Work>
		</rdf:RDF>
	</metadata>
	<style>
		.bg-rect {
			fill-opacity:1;
			fill:#1f1f1f;
			stroke:#e5a017;
			stroke-opacity:1;
			stroke-width:4;
		}
		.fg-font {
			font-family:'源柔ゴシック';
			font-style:normal;
			font-variant:normal;
			font-stretch:normal;
			font-weight:500;
			font-size:151.192px;
			text-align:center;
			text-anchor:middle;
			-inkscape-font-specification:'源柔ゴシック, Medium';
		}
		.fg-color {
			fill:none;
			stroke:#e5a017;
			stroke-width:5;
		}
		.fg-f0 {
			stroke-opacity:1;
		}
		.fg-f1 {
			stroke-opacity:0.75;
		}
		.fg-f2 {
			stroke-opacity:0.5;
		}
		.fg-f3 {
			stroke-opacity:0.25;
		}
		.fg-f4 {
			stroke-opacity:0;
		}
	</style>
	<sodipodi:namedview
		pagecolor="#505050"
		bordercolor="#eeeeee"
		borderopacity="1"
		inkscape:showpageshadow="0"
		inkscape:pageopacity="0"
		inkscape:pagecheckerboard="0"
		inkscape:deskcolor="#505050"
		inkscape:document-units="px"
		showgrid="false"
		showguides="false"
		>
		<inkscape:page x="0" y="0" width="256" height="256" inkscape:label="0" />
		<inkscape:page x="272" y="0" width="256" height="256" inkscape:label="1" />
		<inkscape:page x="544" y="0" width="256" height="256" inkscape:label="2" />
		<inkscape:page x="816" y="0" width="256" height="256" inkscape:label="3" />
		<inkscape:page x="0" y="272" width="256" height="256" inkscape:label="4" />
		<inkscape:page x="272" y="272" width="256" height="256" inkscape:label="5" />
		<inkscape:page x="544" y="272" width="256" height="256" inkscape:label="6" />
		<inkscape:page x="816" y="272" width="256" height="256" inkscape:label="7" />
		<inkscape:grid type="xygrid" empspacing="16" />
		<sodipodi:guide position="0,256" orientation="0,256" />
		<sodipodi:guide position="256,0" orientation="0,256" />
		<sodipodi:guide position="0,256" orientation="256,0" />
		<sodipodi:guide position="256,0" orientation="256,0" />
		<sodipodi:guide position="0,230.4" orientation="0,256" />
		<sodipodi:guide position="0,25.6" orientation="0,256" />
		<sodipodi:guide position="25.6,0" orientation="256,0" />
		<sodipodi:guide position="230.4,0" orientation="256,0" />
		<sodipodi:guide position="0,128" orientation="0,204.8" />
		<sodipodi:guide position="128,0" orientation="204.8,0" />
		<sodipodi:guide position="272,256" orientation="256,0" />
		<sodipodi:guide position="528,0" orientation="256,0" />
		<sodipodi:guide position="297.6,0" orientation="256,0" />
		<sodipodi:guide position="502.4,0" orientation="256,0" />
		<sodipodi:guide position="400,0" orientation="204.8,0" />
		<sodipodi:guide position="544,256" orientation="256,0" />
		<sodipodi:guide position="800,0" orientation="256,0" />
		<sodipodi:guide position="569.6,0" orientation="256,0" />
		<sodipodi:guide position="774.4,0" orientation="256,0" />
		<sodipodi:guide position="672,0" orientation="204.8,0" />
		<sodipodi:guide position="816,256" orientation="256,0" />
		<sodipodi:guide position="1072,0" orientation="256,0" />
		<sodipodi:guide position="841.6,0" orientation="256,0" />
		<sodipodi:guide position="1046.4,0" orientation="256,0" />
		<sodipodi:guide position="944,0" orientation="204.8,0" />
		<sodipodi:guide position="0,-16" orientation="0,256" />
		<sodipodi:guide position="256,-272" orientation="0,256" />
		<sodipodi:guide position="0,-41.6" orientation="0,256" />
		<sodipodi:guide position="0,-246.4" orientation="0,256" />
		<sodipodi:guide position="0,-144" orientation="0,204.8" />
	</sodipodi:namedview>
	<g inkscape:groupmode="layer">
		<rect id="bg" x="12.8" y="12.8" width="230.4" height="230.4" class="bg-rect" />
		<use x="0" y="0" xlink:href="#bg" transform="translate(272)" />
		<use x="0" y="0" xlink:href="#bg" transform="translate(544)" />
		<use x="0" y="0" xlink:href="#bg" transform="translate(816)" />
		<use x="0" y="0" xlink:href="#bg" transform="translate(0,272)" />
		<use x="0" y="0" xlink:href="#bg" transform="translate(272,272)" />
		<use x="0" y="0" xlink:href="#bg" transform="translate(544,272)" />
		<use x="0" y="0" xlink:href="#bg" transform="translate(816,272)" />
	</g>
	<g inkscape:groupmode="layer" style="display:none">
		<text x="185.84334" y="146.51807" class="fg-font fg-color fg-f0" xml:space="preserve" transform="scale(0.69538209,1.4380583)">偉業</text>
		<text x="576.99512" y="146.51807" class="fg-font fg-color fg-f1" xml:space="preserve" transform="scale(0.69538209,1.4380583)">偉業</text>
		<text x="968.14697" y="146.51807" class="fg-font fg-color fg-f2" xml:space="preserve" transform="scale(0.69538209,1.4380583)">偉業</text>
		<text x="1359.2988" y="146.51807" class="fg-font fg-color fg-f3" xml:space="preserve" transform="scale(0.69538209,1.4380583)">偉業</text>
		<text x="185.84325" y="335.6619" class="fg-font fg-color fg-f4" xml:space="preserve" transform="scale(0.69538209,1.4380583)">偉業</text>
		<text x="576.99512" y="335.6619" class="fg-font fg-color fg-f3" xml:space="preserve" transform="scale(0.69538209,1.4380583)">偉業</text>
		<text x="968.14697" y="335.6619" class="fg-font fg-color fg-f2" xml:space="preserve" transform="scale(0.69538209,1.4380583)">偉業</text>
		<text x="1359.2988" y="335.6619" class="fg-font fg-color fg-f1" xml:space="preserve" transform="scale(0.69538209,1.4380583)">偉業</text>
	</g>
	<g inkscape:groupmode="layer" inkscape:label="Outline">
		<g class="fg-font fg-color fg-f0" transform="scale(0.69538209,1.4380583)">
			<path d="m 71.858743,26.332237 q 1.181188,-2.657672 3.691211,-3.838859 1.624133,-0.738242 3.100617,-0.738242 1.181188,0 2.214727,0.295296 2.657672,0.885891 3.838859,3.395915 0.590594,1.328836 0.590594,2.657671 0,1.181188 -0.442945,2.362376 -5.462992,12.550117 -12.402469,24.361992 -0.590594,1.033539 -0.590594,2.067078 v 94.790296 q 0,2.65767 -1.919429,4.5771 -1.91943,2.06708 -4.72475,2.06708 -2.805321,0 -4.724751,-2.06708 -1.919429,-1.91943 -1.919429,-4.5771 V 76.680355 q 0,-0.295297 -0.295297,-0.295297 -0.295297,-0.147648 -0.442945,0.147648 -3.691211,4.72475 -7.087125,8.56361 -1.624133,1.771781 -3.83886,1.771781 -0.442945,0 -1.033539,-0.147648 -2.80532,-0.442946 -4.134156,-2.952969 -1.328836,-2.510024 -1.328836,-5.167695 0,-0.738243 0,-1.476485 0.442945,-3.395914 2.952969,-6.053586 Q 60.637462,52.318362 71.858743,26.332237 Z M 111.28088,131.31028 q 0,1.18118 1.18118,1.18118 h 17.71782 q 1.03354,0 1.03354,-1.18118 v -9.7448 q 0,-1.03354 -1.03354,-1.03354 h -17.71782 q -1.18118,0 -1.18118,1.03354 z m -5.1677,-50.643417 q -1.18119,0 -1.18119,1.033539 v 9.4495 q 0,1.033539 1.18119,1.033539 h 47.98574 q 1.03354,0 1.03354,-1.033539 v -9.4495 q 0,-1.033539 -1.03354,-1.033539 z m 40.01273,39.865077 q -1.03354,0 -1.03354,1.03354 v 9.7448 q 0,1.18118 1.03354,1.18118 h 28.3485 q 2.21472,0 3.69121,1.62414 1.62413,1.47648 1.62413,3.69121 0,2.21473 -1.62413,3.83886 -1.47649,1.47648 -3.69121,1.47648 h -28.3485 q -1.03354,0 -1.03354,1.18119 v 7.08712 q 0,2.95297 -2.06708,4.8724 -2.06708,2.06708 -4.8724,2.06708 -2.80532,0 -4.8724,-2.06708 -2.06707,-1.91943 -2.06707,-4.8724 v -7.08712 q 0,-1.18119 -1.03354,-1.18119 H 85.885345 q -2.214727,0 -3.838859,-1.47648 -1.624133,-1.62413 -1.624133,-3.83886 0,-2.21473 1.624133,-3.69121 1.624132,-1.62414 3.838859,-1.62414 h 10.925984 q 1.033539,0 1.033539,-1.18118 v -9.7448 q 0,-1.03354 -1.033539,-1.03354 H 90.16715 q -2.067078,0 -3.691211,-1.47648 -1.476485,-1.62414 -1.476485,-3.69121 0,-2.21473 1.476485,-3.69122 1.624133,-1.62413 3.691211,-1.62413 h 40.01273 q 1.03354,0 1.03354,-1.03354 v -5.31534 q 0,-1.18119 -1.03354,-1.18119 h -29.82499 q -3.543561,0 -6.201232,-2.51002 -2.510024,-2.657674 -2.510024,-6.201236 V 79.04273 q 0,-3.691211 2.510024,-6.201235 2.657671,-2.510023 6.201232,-2.510023 h 59.94527 q 3.69121,0 6.20123,2.510023 2.51003,2.510024 2.51003,6.201235 v 14.764844 q 0,3.543562 -2.51003,6.201236 -2.51002,2.51002 -6.20123,2.51002 h -14.17425 q -1.03354,0 -1.03354,1.18119 v 5.31534 q 0,1.03354 1.03354,1.03354 h 25.24788 q 2.21473,0 3.69121,1.62413 1.62413,1.47649 1.62413,3.69122 0,2.06707 -1.62413,3.69121 -1.47648,1.47648 -3.69121,1.47648 z m 5.75829,-77.810726 q 0,-1.181188 -1.18119,-1.181188 H 127.5222 q -1.03353,0 -1.32883,1.181188 -1.32884,5.610641 -2.36238,9.006555 -0.14764,0.442945 0.14765,0.738242 0.2953,0.295297 0.73824,0.295297 h 25.98613 q 1.18119,0 1.18119,-1.033539 z m 13.58365,9.006555 q 0,1.033539 1.03354,1.033539 h 7.97302 q 2.36237,0 3.98651,1.624133 1.62413,1.624132 1.62413,3.986507 0,2.362375 -1.62413,3.986508 -1.62414,1.624133 -3.98651,1.624133 H 85.4424 q -2.362375,0 -3.986508,-1.624133 -1.624133,-1.624133 -1.624133,-3.986508 0,-2.362375 1.624133,-3.986507 1.624133,-1.624133 3.986508,-1.624133 h 22.88551 q 1.18119,0 1.47648,-1.033539 1.03354,-3.395914 2.36238,-9.006555 0.14765,-1.181188 -0.88589,-1.181188 H 95.925439 q -2.214727,0 -3.83886,-1.624132 -1.624132,-1.624133 -1.624132,-3.83886 0,-2.362375 1.624132,-3.838859 1.624133,-1.624133 3.83886,-1.624133 h 17.717811 q 1.18119,0 1.32884,-1.181188 0.14765,-0.295296 0.29529,-1.328836 0.14765,-1.033539 0.2953,-1.476484 0.59059,-2.952969 2.95297,-4.72475 2.06708,-1.624133 4.5771,-1.624133 0.44295,0 0.88589,0 2.80532,0.295297 4.42946,2.657672 1.32883,1.624133 1.32883,3.691211 0,0.590594 -0.14765,1.328836 -0.14765,0.885891 -0.29529,1.476484 -0.2953,1.181188 0.73824,1.181188 h 26.72437 q 3.54356,0 6.05358,2.510023 2.65767,2.510024 2.65767,6.201235 z" />
			<path d="m 281.66717,58.2243 q 0.14765,-0.442945 -0.14764,-0.738242 -0.14765,-0.295297 -0.44295,-0.295297 h -38.53624 q -0.2953,0 -0.5906,0.295297 -0.14764,0.295297 0.14765,0.590594 2.65768,4.577101 4.5771,8.858906 0.5906,1.476484 -0.29529,2.80532 -0.73824,1.328836 -2.21473,1.624133 -0.14765,0 -0.14765,0.147648 0,0 0.14765,0 h 30.26793 q 1.03354,0 1.62413,-1.033539 2.65768,-4.872398 5.61064,-12.25482 z m 44.29454,55.07287 q 1.77178,1.77178 1.77178,4.2818 0,2.36238 -1.77178,4.13416 -1.77178,1.62413 -4.13416,1.62413 h -40.30802 q -0.2953,0 -0.44295,0.2953 0,0.2953 0.14765,0.44294 17.71781,11.95953 42.6704,18.16076 2.51002,0.5906 3.39591,3.10062 0.2953,0.88589 0.2953,1.62413 0,1.62413 -1.03354,2.95297 -2.21473,2.95297 -5.46299,4.13416 -1.62413,0.73824 -3.39592,0.73824 -1.47648,0 -2.95296,-0.59059 -27.46261,-9.00656 -45.77102,-25.39554 -0.2953,-0.14764 -0.59059,0 -0.2953,0 -0.2953,0.44295 v 22.29491 q 0,2.95297 -2.06708,4.8724 -1.91943,2.06708 -4.8724,2.06708 -2.80532,0 -4.8724,-2.06708 -1.91943,-1.91943 -1.91943,-4.8724 v -21.26137 q 0,-0.2953 -0.29529,-0.44295 -0.2953,-0.14765 -0.5906,0 -18.45605,15.20779 -45.62336,24.362 -1.47649,0.44294 -2.95297,0.44294 -1.62414,0 -3.24827,-0.59059 -3.10062,-1.18119 -5.16769,-3.98651 -1.03354,-1.32884 -1.03354,-2.95297 0,-1.47648 0.88589,-2.80532 0.88589,-1.18119 2.51002,-1.62413 25.10024,-6.64418 42.6704,-18.60371 0.14765,-0.14764 0,-0.44294 0,-0.2953 -0.2953,-0.2953 h -39.71743 q -2.36237,0 -4.13415,-1.62413 -1.62414,-1.77178 -1.62414,-4.13416 0,-2.51002 1.62414,-4.2818 1.77178,-1.77178 4.13415,-1.77178 h 51.67696 q 1.18118,0 1.18118,-1.03354 v -7.08713 q 0,-1.03354 -1.18118,-1.03354 h -38.0933 q -2.21473,0 -3.83886,-1.47648 -1.47648,-1.624134 -1.47648,-3.838861 0,-2.214726 1.47648,-3.691211 1.62413,-1.624132 3.83886,-1.624132 h 38.0933 q 1.18118,0 1.18118,-1.033539 V 83.76748 q 0,-1.033539 -1.18118,-1.033539 H 207.9906 q -2.36237,0 -3.9865,-1.624133 -1.62414,-1.624133 -1.62414,-3.986508 0,-2.362375 1.62414,-3.986508 1.62413,-1.624133 3.9865,-1.624133 h 24.21435 q 0.44294,0 0.59059,-0.295296 0.2953,-0.295297 0.14765,-0.738243 -1.62413,-4.577101 -4.42945,-9.892445 -0.44295,-1.033539 0,-2.067078 0.44294,-1.033539 1.62413,-1.328836 h -27.90556 q -2.51002,0 -4.2818,-1.771781 -1.62413,-1.771782 -1.62413,-4.134157 0,-2.510023 1.62413,-4.134156 1.77178,-1.771781 4.2818,-1.771781 h 15.35544 q 0.2953,0 0.44295,-0.295297 0.29529,-0.442945 0.14765,-0.738242 -2.51003,-6.348883 -7.08713,-13.878953 -1.32883,-2.214727 -0.59059,-4.429454 0.88589,-2.362375 3.24826,-3.100617 1.32884,-0.442945 2.65767,-0.442945 1.47649,0 2.80533,0.442945 2.80532,0.885891 4.2818,3.248266 3.10062,5.020047 5.46299,9.597148 0.73824,1.476485 0.73824,2.952969 0,1.181188 -0.59059,2.510024 -1.18119,2.80532 -3.98651,3.838859 -0.14765,0 -0.14765,0.147648 0.14765,0.147649 0.14765,0.147649 h 14.6172 q 1.18119,0 1.18119,-1.181188 V 26.03694 q 0,-2.657672 1.91943,-4.577101 1.91943,-1.91943 4.5771,-1.91943 2.80532,0 4.72475,1.91943 1.91943,1.919429 1.91943,4.577101 v 18.160758 q 0,1.181188 1.03354,1.181188 h 12.84541 q 1.03354,0 1.03354,-1.181188 V 26.184589 q 0,-2.805321 1.91943,-4.72475 2.06708,-1.91943 4.72475,-1.91943 2.80532,0 4.72475,1.91943 1.91943,1.919429 1.91943,4.72475 v 18.013109 q 0,1.181188 1.18119,1.181188 h 14.46954 q 0.14765,0 0.14765,-0.147649 -2.06708,-0.738242 -2.80532,-2.657672 -0.73824,-1.919429 0.2953,-3.69121 2.80532,-5.462993 5.16769,-10.778337 1.32884,-2.952968 4.13416,-4.429453 1.91943,-0.88589 3.83886,-0.88589 1.03354,0 2.06708,0.147648 2.65767,0.738242 3.83886,3.395914 0.44294,1.033539 0.44294,2.214727 0,1.328836 -0.73824,2.80532 -4.42945,7.677719 -8.26831,13.140711 -0.14765,0.295297 0,0.590594 0.14765,0.295297 0.44294,0.295297 h 14.91249 q 2.36238,0 3.98651,1.771781 1.77178,1.624133 1.77178,4.134156 0,2.362375 -1.77178,4.134157 -1.62413,1.771781 -3.98651,1.771781 h -22.29491 q -1.03354,0 -1.62413,0.885891 -2.65767,4.872398 -7.38242,12.550117 -0.14765,0.295297 0,0.590594 0.14764,0.295296 0.59059,0.295296 h 25.39553 q 2.21473,0 3.83886,1.624133 1.77178,1.624133 1.77178,3.986508 0,2.362375 -1.77178,3.986508 -1.62413,1.624133 -3.83886,1.624133 h -46.80455 q -1.18119,0 -1.18119,1.033539 v 6.939477 q 0,1.033539 1.18119,1.033539 h 40.01272 q 2.06708,0 3.54357,1.624132 1.62413,1.476485 1.62413,3.691211 0,2.214727 -1.62413,3.838861 -1.47649,1.47648 -3.54357,1.47648 h -40.01272 q -1.18119,0 -1.18119,1.03354 v 7.08713 q 0,1.03354 1.18119,1.03354 h 52.56284 q 2.36238,0 4.13416,1.77178 z" />
		</g>
		<g class="fg-font fg-color fg-f1" transform="scale(0.69538209,1.4380583)">
			<path d="m 463.01052,26.332237 q 1.18119,-2.657672 3.69121,-3.838859 1.62414,-0.738242 3.10062,-0.738242 1.18119,0 2.21473,0.295296 2.65767,0.885891 3.83886,3.395915 0.59059,1.328836 0.59059,2.657671 0,1.181188 -0.44294,2.362376 -5.463,12.550117 -12.40247,24.361992 -0.5906,1.033539 -0.5906,2.067078 v 94.790296 q 0,2.65767 -1.91943,4.5771 -1.91943,2.06708 -4.72475,2.06708 -2.80532,0 -4.72475,-2.06708 -1.91943,-1.91943 -1.91943,-4.5771 V 76.680355 q 0,-0.295297 -0.29529,-0.295297 -0.2953,-0.147648 -0.44295,0.147648 -3.69121,4.72475 -7.08712,8.56361 -1.62414,1.771781 -3.83886,1.771781 -0.44295,0 -1.03354,-0.147648 -2.80532,-0.442946 -4.13416,-2.952969 -1.32884,-2.510024 -1.32884,-5.167695 0,-0.738243 0,-1.476485 0.44295,-3.395914 2.95297,-6.053586 17.27487,-18.751352 28.49615,-44.737477 z m 39.42214,104.978043 q 0,1.18118 1.18118,1.18118 h 17.71782 q 1.03353,0 1.03353,-1.18118 v -9.7448 q 0,-1.03354 -1.03353,-1.03354 h -17.71782 q -1.18118,0 -1.18118,1.03354 z m -5.1677,-50.643417 q -1.18119,0 -1.18119,1.033539 v 9.4495 q 0,1.033539 1.18119,1.033539 h 47.98574 q 1.03354,0 1.03354,-1.033539 v -9.4495 q 0,-1.033539 -1.03354,-1.033539 z m 40.01273,39.865077 q -1.03354,0 -1.03354,1.03354 v 9.7448 q 0,1.18118 1.03354,1.18118 h 28.3485 q 2.21472,0 3.69121,1.62414 1.62413,1.47648 1.62413,3.69121 0,2.21473 -1.62413,3.83886 -1.47649,1.47648 -3.69121,1.47648 h -28.3485 q -1.03354,0 -1.03354,1.18119 v 7.08712 q 0,2.95297 -2.06708,4.8724 -2.06708,2.06708 -4.8724,2.06708 -2.80532,0 -4.8724,-2.06708 -2.06708,-1.91943 -2.06708,-4.8724 v -7.08712 q 0,-1.18119 -1.03353,-1.18119 h -44.29454 q -2.21472,0 -3.83886,-1.47648 -1.62413,-1.62413 -1.62413,-3.83886 0,-2.21473 1.62413,-3.69121 1.62414,-1.62414 3.83886,-1.62414 h 10.92599 q 1.03354,0 1.03354,-1.18118 v -9.7448 q 0,-1.03354 -1.03354,-1.03354 h -6.64418 q -2.06708,0 -3.69121,-1.47648 -1.47649,-1.62414 -1.47649,-3.69121 0,-2.21473 1.47649,-3.69122 1.62413,-1.62413 3.69121,-1.62413 h 40.01273 q 1.03353,0 1.03353,-1.03354 v -5.31534 q 0,-1.18119 -1.03353,-1.18119 h -29.82499 q -3.54356,0 -6.20123,-2.51002 -2.51003,-2.657674 -2.51003,-6.201236 V 79.04273 q 0,-3.691211 2.51003,-6.201235 2.65767,-2.510023 6.20123,-2.510023 h 59.94527 q 3.69121,0 6.20123,2.510023 2.51003,2.510024 2.51003,6.201235 v 14.764844 q 0,3.543562 -2.51003,6.201236 -2.51002,2.51002 -6.20123,2.51002 h -14.17425 q -1.03354,0 -1.03354,1.18119 v 5.31534 q 0,1.03354 1.03354,1.03354 h 25.24788 q 2.21473,0 3.69121,1.62413 1.62413,1.47649 1.62413,3.69122 0,2.06707 -1.62413,3.69121 -1.47648,1.47648 -3.69121,1.47648 z m 5.75829,-77.810726 q 0,-1.181188 -1.18119,-1.181188 h -23.18081 q -1.03354,0 -1.32883,1.181188 -1.32884,5.610641 -2.36238,9.006555 -0.14765,0.442945 0.14765,0.738242 0.2953,0.295297 0.73824,0.295297 h 25.98613 q 1.18119,0 1.18119,-1.033539 z m 13.58365,9.006555 q 0,1.033539 1.03354,1.033539 h 7.97302 q 2.36237,0 3.98651,1.624133 1.62413,1.624132 1.62413,3.986507 0,2.362375 -1.62413,3.986508 -1.62414,1.624133 -3.98651,1.624133 h -89.03201 q -2.36238,0 -3.98651,-1.624133 -1.62413,-1.624133 -1.62413,-3.986508 0,-2.362375 1.62413,-3.986507 1.62413,-1.624133 3.98651,-1.624133 h 22.88551 q 1.18118,0 1.47648,-1.033539 1.03354,-3.395914 2.36238,-9.006555 0.14764,-1.181188 -0.88589,-1.181188 h -15.35544 q -2.21473,0 -3.83886,-1.624132 -1.62413,-1.624133 -1.62413,-3.83886 0,-2.362375 1.62413,-3.838859 1.62413,-1.624133 3.83886,-1.624133 h 17.71781 q 1.18119,0 1.32884,-1.181188 0.14764,-0.295296 0.29529,-1.328836 0.14765,-1.033539 0.2953,-1.476484 0.59059,-2.952969 2.95297,-4.72475 2.06708,-1.624133 4.5771,-1.624133 0.44295,0 0.88589,0 2.80532,0.295297 4.42945,2.657672 1.32884,1.624133 1.32884,3.691211 0,0.590594 -0.14765,1.328836 -0.14765,0.885891 -0.29529,1.476484 -0.2953,1.181188 0.73824,1.181188 h 26.72436 q 3.54357,0 6.05359,2.510023 2.65767,2.510024 2.65767,6.201235 z" />
			<path d="m 672.81895,58.2243 q 0.14765,-0.442945 -0.14764,-0.738242 -0.14765,-0.295297 -0.44295,-0.295297 h -38.53624 q -0.2953,0 -0.5906,0.295297 -0.14764,0.295297 0.14765,0.590594 2.65767,4.577101 4.5771,8.858906 0.5906,1.476484 -0.29529,2.80532 -0.73825,1.328836 -2.21473,1.624133 -0.14765,0 -0.14765,0.147648 0,0 0.14765,0 h 30.26793 q 1.03354,0 1.62413,-1.033539 2.65768,-4.872398 5.61064,-12.25482 z m 44.29454,55.07287 q 1.77178,1.77178 1.77178,4.2818 0,2.36238 -1.77178,4.13416 -1.77179,1.62413 -4.13416,1.62413 h -40.30802 q -0.2953,0 -0.44295,0.2953 0,0.2953 0.14765,0.44294 17.71781,11.95953 42.6704,18.16076 2.51002,0.5906 3.39591,3.10062 0.2953,0.88589 0.2953,1.62413 0,1.62413 -1.03354,2.95297 -2.21473,2.95297 -5.46299,4.13416 -1.62414,0.73824 -3.39592,0.73824 -1.47648,0 -2.95297,-0.59059 -27.46261,-9.00656 -45.77101,-25.39554 -0.2953,-0.14764 -0.5906,0 -0.29529,0 -0.29529,0.44295 v 22.29491 q 0,2.95297 -2.06708,4.8724 -1.91943,2.06708 -4.8724,2.06708 -2.80532,0 -4.8724,-2.06708 -1.91943,-1.91943 -1.91943,-4.8724 v -21.26137 q 0,-0.2953 -0.29529,-0.44295 -0.2953,-0.14765 -0.5906,0 -18.45605,15.20779 -45.62337,24.362 -1.47648,0.44294 -2.95296,0.44294 -1.62414,0 -3.24827,-0.59059 -3.10062,-1.18119 -5.1677,-3.98651 -1.03353,-1.32884 -1.03353,-2.95297 0,-1.47648 0.88589,-2.80532 0.88589,-1.18119 2.51002,-1.62413 25.10023,-6.64418 42.6704,-18.60371 0.14765,-0.14764 0,-0.44294 0,-0.2953 -0.2953,-0.2953 h -39.71743 q -2.36237,0 -4.13415,-1.62413 -1.62414,-1.77178 -1.62414,-4.13416 0,-2.51002 1.62414,-4.2818 1.77178,-1.77178 4.13415,-1.77178 h 51.67696 q 1.18118,0 1.18118,-1.03354 v -7.08713 q 0,-1.03354 -1.18118,-1.03354 h -38.0933 q -2.21473,0 -3.83886,-1.47648 -1.47649,-1.624134 -1.47649,-3.838861 0,-2.214726 1.47649,-3.691211 1.62413,-1.624132 3.83886,-1.624132 h 38.0933 q 1.18118,0 1.18118,-1.033539 V 83.76748 q 0,-1.033539 -1.18118,-1.033539 h -45.18043 q -2.36237,0 -3.9865,-1.624133 -1.62414,-1.624133 -1.62414,-3.986508 0,-2.362375 1.62414,-3.986508 1.62413,-1.624133 3.9865,-1.624133 h 24.21435 q 0.44294,0 0.59059,-0.295296 0.2953,-0.295297 0.14765,-0.738243 -1.62413,-4.577101 -4.42945,-9.892445 -0.44295,-1.033539 0,-2.067078 0.44294,-1.033539 1.62413,-1.328836 h -27.90556 q -2.51002,0 -4.2818,-1.771781 -1.62413,-1.771782 -1.62413,-4.134157 0,-2.510023 1.62413,-4.134156 1.77178,-1.771781 4.2818,-1.771781 h 15.35544 q 0.2953,0 0.44295,-0.295297 0.29529,-0.442945 0.14765,-0.738242 -2.51003,-6.348883 -7.08713,-13.878953 -1.32884,-2.214727 -0.59059,-4.429454 0.88589,-2.362375 3.24826,-3.100617 1.32884,-0.442945 2.65767,-0.442945 1.47649,0 2.80532,0.442945 2.80532,0.885891 4.28181,3.248266 3.10062,5.020047 5.46299,9.597148 0.73824,1.476485 0.73824,2.952969 0,1.181188 -0.59059,2.510024 -1.18119,2.80532 -3.98651,3.838859 -0.14765,0 -0.14765,0.147648 0.14765,0.147649 0.14765,0.147649 h 14.6172 q 1.18118,0 1.18118,-1.181188 V 26.03694 q 0,-2.657672 1.91943,-4.577101 1.91943,-1.91943 4.57711,-1.91943 2.80532,0 4.72475,1.91943 1.91943,1.919429 1.91943,4.577101 v 18.160758 q 0,1.181188 1.03353,1.181188 h 12.84542 q 1.03354,0 1.03354,-1.181188 V 26.184589 q 0,-2.805321 1.91943,-4.72475 2.06708,-1.91943 4.72475,-1.91943 2.80532,0 4.72475,1.91943 1.91943,1.919429 1.91943,4.72475 v 18.013109 q 0,1.181188 1.18119,1.181188 h 14.46954 q 0.14765,0 0.14765,-0.147649 -2.06708,-0.738242 -2.80532,-2.657672 -0.73824,-1.919429 0.2953,-3.69121 2.80532,-5.462993 5.16769,-10.778337 1.32884,-2.952968 4.13416,-4.429453 1.91943,-0.88589 3.83886,-0.88589 1.03354,0 2.06708,0.147648 2.65767,0.738242 3.83886,3.395914 0.44294,1.033539 0.44294,2.214727 0,1.328836 -0.73824,2.80532 -4.42945,7.677719 -8.26831,13.140711 -0.14765,0.295297 0,0.590594 0.14764,0.295297 0.44294,0.295297 h 14.91249 q 2.36238,0 3.98651,1.771781 1.77178,1.624133 1.77178,4.134156 0,2.362375 -1.77178,4.134157 -1.62413,1.771781 -3.98651,1.771781 h -22.29491 q -1.03354,0 -1.62413,0.885891 -2.65767,4.872398 -7.38243,12.550117 -0.14764,0.295297 0,0.590594 0.14765,0.295296 0.5906,0.295296 h 25.39553 q 2.21473,0 3.83886,1.624133 1.77178,1.624133 1.77178,3.986508 0,2.362375 -1.77178,3.986508 -1.62413,1.624133 -3.83886,1.624133 h -46.80455 q -1.18119,0 -1.18119,1.033539 v 6.939477 q 0,1.033539 1.18119,1.033539 h 40.01272 q 2.06708,0 3.54356,1.624132 1.62414,1.476485 1.62414,3.691211 0,2.214727 -1.62414,3.838861 -1.47648,1.47648 -3.54356,1.47648 h -40.01272 q -1.18119,0 -1.18119,1.03354 v 7.08713 q 0,1.03354 1.18119,1.03354 h 52.56284 q 2.36237,0 4.13416,1.77178 z" />
		</g>
		<g class="fg-font fg-color fg-f2" transform="scale(0.69538209,1.4380583)">
			<path d="m 854.16238,26.332237 q 1.18119,-2.657672 3.69121,-3.838859 1.62413,-0.738242 3.10062,-0.738242 1.18118,0 2.21472,0.295296 2.65767,0.885891 3.83886,3.395915 0.5906,1.328836 0.5906,2.657671 0,1.181188 -0.44295,2.362376 -5.46299,12.550117 -12.40247,24.361992 -0.59059,1.033539 -0.59059,2.067078 v 94.790296 q 0,2.65767 -1.91943,4.5771 -1.91943,2.06708 -4.72475,2.06708 -2.80532,0 -4.72475,-2.06708 -1.91943,-1.91943 -1.91943,-4.5771 V 76.680355 q 0,-0.295297 -0.2953,-0.295297 -0.2953,-0.147648 -0.44294,0.147648 -3.69121,4.72475 -7.08713,8.56361 -1.62413,1.771781 -3.83886,1.771781 -0.44294,0 -1.03354,-0.147648 -2.80532,-0.442946 -4.13415,-2.952969 -1.32884,-2.510024 -1.32884,-5.167695 0,-0.738243 0,-1.476485 0.44295,-3.395914 2.95297,-6.053586 17.27487,-18.751352 28.49615,-44.737477 z m 39.42213,104.978043 q 0,1.18118 1.18119,1.18118 h 17.71781 q 1.03354,0 1.03354,-1.18118 v -9.7448 q 0,-1.03354 -1.03354,-1.03354 H 894.7657 q -1.18119,0 -1.18119,1.03354 z m -5.16769,-50.643417 q -1.18119,0 -1.18119,1.033539 v 9.4495 q 0,1.033539 1.18119,1.033539 h 47.98574 q 1.03354,0 1.03354,-1.033539 v -9.4495 q 0,-1.033539 -1.03354,-1.033539 z m 40.01272,39.865077 q -1.03354,0 -1.03354,1.03354 v 9.7448 q 0,1.18118 1.03354,1.18118 h 28.3485 q 2.21473,0 3.69121,1.62414 1.62414,1.47648 1.62414,3.69121 0,2.21473 -1.62414,3.83886 -1.47648,1.47648 -3.69121,1.47648 h -28.3485 q -1.03354,0 -1.03354,1.18119 v 7.08712 q 0,2.95297 -2.06707,4.8724 -2.06708,2.06708 -4.8724,2.06708 -2.80532,0 -4.8724,-2.06708 -2.06708,-1.91943 -2.06708,-4.8724 v -7.08712 q 0,-1.18119 -1.03354,-1.18119 h -44.29453 q -2.21473,0 -3.83886,-1.47648 -1.62413,-1.62413 -1.62413,-3.83886 0,-2.21473 1.62413,-3.69121 1.62413,-1.62414 3.83886,-1.62414 h 10.92598 q 1.03354,0 1.03354,-1.18118 v -9.7448 q 0,-1.03354 -1.03354,-1.03354 h -6.64418 q -2.06707,0 -3.69121,-1.47648 -1.47648,-1.62414 -1.47648,-3.69121 0,-2.21473 1.47648,-3.69122 1.62414,-1.62413 3.69121,-1.62413 h 40.01273 q 1.03354,0 1.03354,-1.03354 v -5.31534 q 0,-1.18119 -1.03354,-1.18119 h -29.82498 q -3.54357,0 -6.20124,-2.51002 -2.51002,-2.657674 -2.51002,-6.201236 V 79.04273 q 0,-3.691211 2.51002,-6.201235 2.65767,-2.510023 6.20124,-2.510023 h 59.94526 q 3.69121,0 6.20124,2.510023 2.51002,2.510024 2.51002,6.201235 v 14.764844 q 0,3.543562 -2.51002,6.201236 -2.51003,2.51002 -6.20124,2.51002 h -14.17425 q -1.03354,0 -1.03354,1.18119 v 5.31534 q 0,1.03354 1.03354,1.03354 h 25.24789 q 2.21472,0 3.69121,1.62413 1.62413,1.47649 1.62413,3.69122 0,2.06707 -1.62413,3.69121 -1.47649,1.47648 -3.69121,1.47648 z m 5.75829,-77.810726 q 0,-1.181188 -1.18119,-1.181188 h -23.1808 q -1.03354,0 -1.32884,1.181188 -1.32883,5.610641 -2.36237,9.006555 -0.14765,0.442945 0.14765,0.738242 0.29529,0.295297 0.73824,0.295297 h 25.98612 q 1.18119,0 1.18119,-1.033539 z m 13.58366,9.006555 q 0,1.033539 1.03354,1.033539 h 7.97301 q 2.36238,0 3.98651,1.624133 1.62413,1.624132 1.62413,3.986507 0,2.362375 -1.62413,3.986508 -1.62413,1.624133 -3.98651,1.624133 h -89.03201 q -2.36237,0 -3.9865,-1.624133 -1.62414,-1.624133 -1.62414,-3.986508 0,-2.362375 1.62414,-3.986507 1.62413,-1.624133 3.9865,-1.624133 h 22.88551 q 1.18119,0 1.47649,-1.033539 1.03354,-3.395914 2.36237,-9.006555 0.14765,-1.181188 -0.88589,-1.181188 h -15.35544 q -2.21472,0 -3.83886,-1.624132 -1.62413,-1.624133 -1.62413,-3.83886 0,-2.362375 1.62413,-3.838859 1.62414,-1.624133 3.83886,-1.624133 h 17.71782 q 1.18118,0 1.32883,-1.181188 0.14765,-0.295296 0.2953,-1.328836 0.14765,-1.033539 0.2953,-1.476484 0.59059,-2.952969 2.95296,-4.72475 2.06708,-1.624133 4.57711,-1.624133 0.44294,0 0.88589,0 2.80532,0.295297 4.42945,2.657672 1.32884,1.624133 1.32884,3.691211 0,0.590594 -0.14765,1.328836 -0.14765,0.885891 -0.2953,1.476484 -0.2953,1.181188 0.73824,1.181188 h 26.72437 q 3.54356,0 6.05359,2.510023 2.65767,2.510024 2.65767,6.201235 z" />
			<path d="m 1063.9708,58.2243 q 0.1477,-0.442945 -0.1476,-0.738242 -0.1477,-0.295297 -0.443,-0.295297 h -38.5362 q -0.2953,0 -0.5906,0.295297 -0.1477,0.295297 0.1476,0.590594 2.6577,4.577101 4.5771,8.858906 0.5906,1.476484 -0.2953,2.80532 -0.7382,1.328836 -2.2147,1.624133 -0.1476,0 -0.1476,0.147648 0,0 0.1476,0 h 30.2679 q 1.0336,0 1.6242,-1.033539 2.6576,-4.872398 5.6106,-12.25482 z m 44.2945,55.07287 q 1.7718,1.77178 1.7718,4.2818 0,2.36238 -1.7718,4.13416 -1.7717,1.62413 -4.1341,1.62413 h -40.308 q -0.2953,0 -0.443,0.2953 0,0.2953 0.1477,0.44294 17.7178,11.95953 42.6704,18.16076 2.51,0.5906 3.3959,3.10062 0.2953,0.88589 0.2953,1.62413 0,1.62413 -1.0336,2.95297 -2.2147,2.95297 -5.463,4.13416 -1.6241,0.73824 -3.3959,0.73824 -1.4765,0 -2.9529,-0.59059 -27.4626,-9.00656 -45.7711,-25.39554 -0.2953,-0.14764 -0.5906,0 -0.2952,0 -0.2952,0.44295 v 22.29491 q 0,2.95297 -2.0671,4.8724 -1.9195,2.06708 -4.8724,2.06708 -2.8053,0 -4.8724,-2.06708 -1.9195,-1.91943 -1.9195,-4.8724 v -21.26137 q 0,-0.2953 -0.2952,-0.44295 -0.2953,-0.14765 -0.5906,0 -18.4561,15.20779 -45.62341,24.362 -1.47648,0.44294 -2.95297,0.44294 -1.62413,0 -3.24826,-0.59059 -3.10062,-1.18119 -5.1677,-3.98651 -1.03354,-1.32884 -1.03354,-2.95297 0,-1.47648 0.88589,-2.80532 0.88589,-1.18119 2.51003,-1.62413 25.10026,-6.64418 42.67036,-18.60371 0.1477,-0.14764 0,-0.44294 0,-0.2953 -0.2953,-0.2953 h -39.71739 q -2.36238,0 -4.13416,-1.62413 -1.62413,-1.77178 -1.62413,-4.13416 0,-2.51002 1.62413,-4.2818 1.77178,-1.77178 4.13416,-1.77178 h 51.67699 q 1.1811,0 1.1811,-1.03354 v -7.08713 q 0,-1.03354 -1.1811,-1.03354 h -38.09334 q -2.21472,0 -3.83886,-1.47648 -1.47648,-1.624134 -1.47648,-3.838861 0,-2.214726 1.47648,-3.691211 1.62414,-1.624132 3.83886,-1.624132 h 38.09334 q 1.1811,0 1.1811,-1.033539 V 83.76748 q 0,-1.033539 -1.1811,-1.033539 h -45.18046 q -2.36238,0 -3.98651,-1.624133 -1.62413,-1.624133 -1.62413,-3.986508 0,-2.362375 1.62413,-3.986508 1.62413,-1.624133 3.98651,-1.624133 h 24.21436 q 0.4429,0 0.5906,-0.295296 0.2953,-0.295297 0.1476,-0.738243 -1.6241,-4.577101 -4.4294,-9.892445 -0.443,-1.033539 0,-2.067078 0.4429,-1.033539 1.6241,-1.328836 h -27.90555 q -2.51002,0 -4.28181,-1.771781 -1.62413,-1.771782 -1.62413,-4.134157 0,-2.510023 1.62413,-4.134156 1.77179,-1.771781 4.28181,-1.771781 h 15.35544 q 0.29531,0 0.44291,-0.295297 0.2953,-0.442945 0.1477,-0.738242 -2.51004,-6.348883 -7.08714,-13.878953 -1.32884,-2.214727 -0.5906,-4.429454 0.88589,-2.362375 3.24827,-3.100617 1.32883,-0.442945 2.65767,-0.442945 1.4765,0 2.8053,0.442945 2.8053,0.885891 4.2818,3.248266 3.1006,5.020047 5.463,9.597148 0.7383,1.476485 0.7383,2.952969 0,1.181188 -0.5906,2.510024 -1.1812,2.80532 -3.9865,3.838859 -0.1477,0 -0.1477,0.147648 0.1477,0.147649 0.1477,0.147649 h 14.6172 q 1.1811,0 1.1811,-1.181188 V 26.03694 q 0,-2.657672 1.9195,-4.577101 1.9194,-1.91943 4.5771,-1.91943 2.8053,0 4.7247,1.91943 1.9195,1.919429 1.9195,4.577101 v 18.160758 q 0,1.181188 1.0335,1.181188 h 12.8454 q 1.0335,0 1.0335,-1.181188 V 26.184589 q 0,-2.805321 1.9195,-4.72475 2.0671,-1.91943 4.7247,-1.91943 2.8053,0 4.7248,1.91943 1.9194,1.919429 1.9194,4.72475 v 18.013109 q 0,1.181188 1.1812,1.181188 h 14.4695 q 0.1477,0 0.1477,-0.147649 -2.0671,-0.738242 -2.8053,-2.657672 -0.7383,-1.919429 0.2953,-3.69121 2.8053,-5.462993 5.1677,-10.778337 1.3288,-2.952968 4.1341,-4.429453 1.9194,-0.88589 3.8389,-0.88589 1.0335,0 2.0671,0.147648 2.6576,0.738242 3.8388,3.395914 0.443,1.033539 0.443,2.214727 0,1.328836 -0.7383,2.80532 -4.4294,7.677719 -8.2683,13.140711 -0.1476,0.295297 0,0.590594 0.1477,0.295297 0.4429,0.295297 h 14.9125 q 2.3624,0 3.9865,1.771781 1.7718,1.624133 1.7718,4.134156 0,2.362375 -1.7718,4.134157 -1.6241,1.771781 -3.9865,1.771781 h -22.2949 q -1.0335,0 -1.6241,0.885891 -2.6577,4.872398 -7.3824,12.550117 -0.1477,0.295297 0,0.590594 0.1476,0.295296 0.5906,0.295296 h 25.3955 q 2.2147,0 3.8389,1.624133 1.7717,1.624133 1.7717,3.986508 0,2.362375 -1.7717,3.986508 -1.6242,1.624133 -3.8389,1.624133 h -46.8046 q -1.1811,0 -1.1811,1.033539 v 6.939477 q 0,1.033539 1.1811,1.033539 h 40.0128 q 2.067,0 3.5435,1.624132 1.6242,1.476485 1.6242,3.691211 0,2.214727 -1.6242,3.838861 -1.4765,1.47648 -3.5435,1.47648 h -40.0128 q -1.1811,0 -1.1811,1.03354 v 7.08713 q 0,1.03354 1.1811,1.03354 h 52.5629 q 2.3624,0 4.1341,1.77178 z" />
		</g>
		<g class="fg-font fg-color fg-f3" transform="scale(0.69538209,1.4380583)">
			<path d="m 1245.3142,26.332237 q 1.1812,-2.657672 3.6912,-3.838859 1.6242,-0.738242 3.1007,-0.738242 1.1811,0 2.2147,0.295296 2.6577,0.885891 3.8388,3.395915 0.5906,1.328836 0.5906,2.657671 0,1.181188 -0.4429,2.362376 -5.463,12.550117 -12.4025,24.361992 -0.5906,1.033539 -0.5906,2.067078 v 94.790296 q 0,2.65767 -1.9194,4.5771 -1.9194,2.06708 -4.7247,2.06708 -2.8054,0 -4.7248,-2.06708 -1.9194,-1.91943 -1.9194,-4.5771 V 76.680355 q 0,-0.295297 -0.2953,-0.295297 -0.2953,-0.147648 -0.443,0.147648 -3.6912,4.72475 -7.0871,8.56361 -1.6241,1.771781 -3.8389,1.771781 -0.4429,0 -1.0335,-0.147648 -2.8053,-0.442946 -4.1341,-2.952969 -1.3289,-2.510024 -1.3289,-5.167695 0,-0.738243 0,-1.476485 0.443,-3.395914 2.953,-6.053586 17.2749,-18.751352 28.4961,-44.737477 z m 39.4222,104.978043 q 0,1.18118 1.1812,1.18118 h 17.7178 q 1.0335,0 1.0335,-1.18118 v -9.7448 q 0,-1.03354 -1.0335,-1.03354 h -17.7178 q -1.1812,0 -1.1812,1.03354 z m -5.1677,-50.643417 q -1.1812,0 -1.1812,1.033539 v 9.4495 q 0,1.033539 1.1812,1.033539 h 47.9857 q 1.0336,0 1.0336,-1.033539 v -9.4495 q 0,-1.033539 -1.0336,-1.033539 z m 40.0127,39.865077 q -1.0335,0 -1.0335,1.03354 v 9.7448 q 0,1.18118 1.0335,1.18118 h 28.3485 q 2.2147,0 3.6912,1.62414 1.6241,1.47648 1.6241,3.69121 0,2.21473 -1.6241,3.83886 -1.4765,1.47648 -3.6912,1.47648 h -28.3485 q -1.0335,0 -1.0335,1.18119 v 7.08712 q 0,2.95297 -2.0671,4.8724 -2.0671,2.06708 -4.8724,2.06708 -2.8053,0 -4.8724,-2.06708 -2.0671,-1.91943 -2.0671,-4.8724 v -7.08712 q 0,-1.18119 -1.0335,-1.18119 h -44.2946 q -2.2147,0 -3.8388,-1.47648 -1.6242,-1.62413 -1.6242,-3.83886 0,-2.21473 1.6242,-3.69121 1.6241,-1.62414 3.8388,-1.62414 h 10.926 q 1.0336,0 1.0336,-1.18118 v -9.7448 q 0,-1.03354 -1.0336,-1.03354 h -6.6442 q -2.067,0 -3.6912,-1.47648 -1.4765,-1.62414 -1.4765,-3.69121 0,-2.21473 1.4765,-3.69122 1.6242,-1.62413 3.6912,-1.62413 h 40.0128 q 1.0335,0 1.0335,-1.03354 v -5.31534 q 0,-1.18119 -1.0335,-1.18119 h -29.825 q -3.5436,0 -6.2013,-2.51002 -2.51,-2.657674 -2.51,-6.201236 V 79.04273 q 0,-3.691211 2.51,-6.201235 2.6577,-2.510023 6.2013,-2.510023 h 59.9452 q 3.6913,0 6.2013,2.510023 2.51,2.510024 2.51,6.201235 v 14.764844 q 0,3.543562 -2.51,6.201236 -2.51,2.51002 -6.2013,2.51002 h -14.1742 q -1.0335,0 -1.0335,1.18119 v 5.31534 q 0,1.03354 1.0335,1.03354 h 25.2479 q 2.2147,0 3.6912,1.62413 1.6241,1.47649 1.6241,3.69122 0,2.06707 -1.6241,3.69121 -1.4765,1.47648 -3.6912,1.47648 z m 5.7583,-77.810726 q 0,-1.181188 -1.1812,-1.181188 h -23.1808 q -1.0335,0 -1.3288,1.181188 -1.3289,5.610641 -2.3624,9.006555 -0.1477,0.442945 0.1476,0.738242 0.2953,0.295297 0.7383,0.295297 h 25.9861 q 1.1812,0 1.1812,-1.033539 z m 13.5836,9.006555 q 0,1.033539 1.0336,1.033539 h 7.973 q 2.3624,0 3.9865,1.624133 1.6241,1.624132 1.6241,3.986507 0,2.362375 -1.6241,3.986508 -1.6241,1.624133 -3.9865,1.624133 h -89.032 q -2.3624,0 -3.9865,-1.624133 -1.6242,-1.624133 -1.6242,-3.986508 0,-2.362375 1.6242,-3.986507 1.6241,-1.624133 3.9865,-1.624133 h 22.8855 q 1.1812,0 1.4765,-1.033539 1.0335,-3.395914 2.3624,-9.006555 0.1476,-1.181188 -0.8859,-1.181188 h -15.3555 q -2.2147,0 -3.8388,-1.624132 -1.6242,-1.624133 -1.6242,-3.83886 0,-2.362375 1.6242,-3.838859 1.6241,-1.624133 3.8388,-1.624133 h 17.7178 q 1.1812,0 1.3289,-1.181188 0.1476,-0.295296 0.2953,-1.328836 0.1476,-1.033539 0.2953,-1.476484 0.5906,-2.952969 2.9529,-4.72475 2.0671,-1.624133 4.5771,-1.624133 0.443,0 0.8859,0 2.8054,0.295297 4.4295,2.657672 1.3288,1.624133 1.3288,3.691211 0,0.590594 -0.1476,1.328836 -0.1477,0.885891 -0.2953,1.476484 -0.2953,1.181188 0.7382,1.181188 h 26.7244 q 3.5435,0 6.0536,2.510023 2.6576,2.510024 2.6576,6.201235 z" />
			<path d="m 1455.1227,58.2243 q 0.1476,-0.442945 -0.1477,-0.738242 -0.1476,-0.295297 -0.4429,-0.295297 h -38.5363 q -0.2953,0 -0.5906,0.295297 -0.1476,0.295297 0.1477,0.590594 2.6577,4.577101 4.5771,8.858906 0.5906,1.476484 -0.2953,2.80532 -0.7383,1.328836 -2.2147,1.624133 -0.1477,0 -0.1477,0.147648 0,0 0.1477,0 h 30.2679 q 1.0335,0 1.6241,-1.033539 2.6577,-4.872398 5.6107,-12.25482 z m 44.2945,55.07287 q 1.7718,1.77178 1.7718,4.2818 0,2.36238 -1.7718,4.13416 -1.7718,1.62413 -4.1342,1.62413 h -40.308 q -0.2953,0 -0.4429,0.2953 0,0.2953 0.1476,0.44294 17.7178,11.95953 42.6704,18.16076 2.51,0.5906 3.3959,3.10062 0.2953,0.88589 0.2953,1.62413 0,1.62413 -1.0335,2.95297 -2.2147,2.95297 -5.463,4.13416 -1.6241,0.73824 -3.3959,0.73824 -1.4765,0 -2.953,-0.59059 -27.4626,-9.00656 -45.771,-25.39554 -0.2953,-0.14764 -0.5906,0 -0.2953,0 -0.2953,0.44295 v 22.29491 q 0,2.95297 -2.0671,4.8724 -1.9194,2.06708 -4.8724,2.06708 -2.8053,0 -4.8724,-2.06708 -1.9194,-1.91943 -1.9194,-4.8724 v -21.26137 q 0,-0.2953 -0.2953,-0.44295 -0.2953,-0.14765 -0.5906,0 -18.456,15.20779 -45.6234,24.362 -1.4764,0.44294 -2.9529,0.44294 -1.6242,0 -3.2483,-0.59059 -3.1006,-1.18119 -5.1677,-3.98651 -1.0335,-1.32884 -1.0335,-2.95297 0,-1.47648 0.8859,-2.80532 0.8859,-1.18119 2.51,-1.62413 25.1002,-6.64418 42.6704,-18.60371 0.1476,-0.14764 0,-0.44294 0,-0.2953 -0.2953,-0.2953 h -39.7174 q -2.3624,0 -4.1342,-1.62413 -1.6241,-1.77178 -1.6241,-4.13416 0,-2.51002 1.6241,-4.2818 1.7718,-1.77178 4.1342,-1.77178 h 51.6769 q 1.1812,0 1.1812,-1.03354 v -7.08713 q 0,-1.03354 -1.1812,-1.03354 h -38.0933 q -2.2147,0 -3.8388,-1.47648 -1.4765,-1.624134 -1.4765,-3.838861 0,-2.214726 1.4765,-3.691211 1.6241,-1.624132 3.8388,-1.624132 h 38.0933 q 1.1812,0 1.1812,-1.033539 V 83.76748 q 0,-1.033539 -1.1812,-1.033539 h -45.1804 q -2.3624,0 -3.9865,-1.624133 -1.6241,-1.624133 -1.6241,-3.986508 0,-2.362375 1.6241,-3.986508 1.6241,-1.624133 3.9865,-1.624133 h 24.2143 q 0.443,0 0.5906,-0.295296 0.2953,-0.295297 0.1477,-0.738243 -1.6242,-4.577101 -4.4295,-9.892445 -0.4429,-1.033539 0,-2.067078 0.443,-1.033539 1.6242,-1.328836 h -27.9056 q -2.51,0 -4.2818,-1.771781 -1.6241,-1.771782 -1.6241,-4.134157 0,-2.510023 1.6241,-4.134156 1.7718,-1.771781 4.2818,-1.771781 h 15.3554 q 0.2953,0 0.443,-0.295297 0.2953,-0.442945 0.1476,-0.738242 -2.51,-6.348883 -7.0871,-13.878953 -1.3288,-2.214727 -0.5906,-4.429454 0.8859,-2.362375 3.2483,-3.100617 1.3288,-0.442945 2.6577,-0.442945 1.4764,0 2.8053,0.442945 2.8053,0.885891 4.2818,3.248266 3.1006,5.020047 5.463,9.597148 0.7382,1.476485 0.7382,2.952969 0,1.181188 -0.5906,2.510024 -1.1812,2.80532 -3.9865,3.838859 -0.1476,0 -0.1476,0.147648 0.1476,0.147649 0.1476,0.147649 h 14.6172 q 1.1812,0 1.1812,-1.181188 V 26.03694 q 0,-2.657672 1.9194,-4.577101 1.9195,-1.91943 4.5771,-1.91943 2.8053,0 4.7248,1.91943 1.9194,1.919429 1.9194,4.577101 v 18.160758 q 0,1.181188 1.0335,1.181188 h 12.8455 q 1.0335,0 1.0335,-1.181188 V 26.184589 q 0,-2.805321 1.9194,-4.72475 2.0671,-1.91943 4.7248,-1.91943 2.8053,0 4.7247,1.91943 1.9195,1.919429 1.9195,4.72475 v 18.013109 q 0,1.181188 1.1811,1.181188 h 14.4696 q 0.1476,0 0.1476,-0.147649 -2.067,-0.738242 -2.8053,-2.657672 -0.7382,-1.919429 0.2953,-3.69121 2.8053,-5.462993 5.1677,-10.778337 1.3288,-2.952968 4.1342,-4.429453 1.9194,-0.88589 3.8388,-0.88589 1.0336,0 2.0671,0.147648 2.6577,0.738242 3.8389,3.395914 0.4429,1.033539 0.4429,2.214727 0,1.328836 -0.7382,2.80532 -4.4295,7.677719 -8.2683,13.140711 -0.1477,0.295297 0,0.590594 0.1476,0.295297 0.4429,0.295297 h 14.9125 q 2.3624,0 3.9865,1.771781 1.7718,1.624133 1.7718,4.134156 0,2.362375 -1.7718,4.134157 -1.6241,1.771781 -3.9865,1.771781 h -22.2949 q -1.0336,0 -1.6242,0.885891 -2.6576,4.872398 -7.3824,12.550117 -0.1476,0.295297 0,0.590594 0.1477,0.295296 0.5906,0.295296 h 25.3956 q 2.2147,0 3.8388,1.624133 1.7718,1.624133 1.7718,3.986508 0,2.362375 -1.7718,3.986508 -1.6241,1.624133 -3.8388,1.624133 h -46.8046 q -1.1812,0 -1.1812,1.033539 v 6.939477 q 0,1.033539 1.1812,1.033539 h 40.0127 q 2.0671,0 3.5436,1.624132 1.6241,1.476485 1.6241,3.691211 0,2.214727 -1.6241,3.838861 -1.4765,1.47648 -3.5436,1.47648 h -40.0127 q -1.1812,0 -1.1812,1.03354 v 7.08713 q 0,1.03354 1.1812,1.03354 h 52.5628 q 2.3624,0 4.1342,1.77178 z" />
		</g>
		<g class="fg-font fg-color fg-f4" transform="scale(0.69538209,1.4380583)">
			<path d="m 71.858652,215.47607 q 1.181187,-2.65768 3.691211,-3.83886 1.624132,-0.73825 3.100617,-0.73825 1.181187,0 2.214726,0.2953 2.657672,0.88589 3.83886,3.39592 0.590594,1.32883 0.590594,2.65767 0,1.18119 -0.442946,2.36237 -5.462992,12.55012 -12.402469,24.362 -0.590593,1.03353 -0.590593,2.06707 v 94.7903 q 0,2.65767 -1.91943,4.5771 -1.91943,2.06708 -4.72475,2.06708 -2.80532,0 -4.72475,-2.06708 -1.91943,-1.91943 -1.91943,-4.5771 v -75.00541 q 0,-0.29529 -0.295297,-0.29529 -0.295297,-0.14765 -0.442945,0.14765 -3.691211,4.72475 -7.087125,8.56361 -1.624133,1.77178 -3.838859,1.77178 -0.442946,0 -1.03354,-0.14765 -2.80532,-0.44295 -4.134156,-2.95297 -1.328836,-2.51002 -1.328836,-5.1677 0,-0.73824 0,-1.47648 0.442946,-3.39591 2.952969,-6.05359 17.274867,-18.75135 28.496149,-44.73747 z m 39.422128,104.97804 q 0,1.18118 1.18119,1.18118 h 17.71782 q 1.03353,0 1.03353,-1.18118 v -9.7448 q 0,-1.03354 -1.03353,-1.03354 h -17.71782 q -1.18119,0 -1.18119,1.03354 z m -5.16769,-50.64342 q -1.18119,0 -1.18119,1.03354 v 9.4495 q 0,1.03354 1.18119,1.03354 h 47.98574 q 1.03354,0 1.03354,-1.03354 v -9.4495 q 0,-1.03354 -1.03354,-1.03354 z m 40.01273,39.86508 q -1.03354,0 -1.03354,1.03354 v 9.7448 q 0,1.18118 1.03354,1.18118 h 28.3485 q 2.21472,0 3.69121,1.62414 1.62413,1.47648 1.62413,3.69121 0,2.21472 -1.62413,3.83886 -1.47649,1.47648 -3.69121,1.47648 h -28.3485 q -1.03354,0 -1.03354,1.18119 v 7.08712 q 0,2.95297 -2.06708,4.8724 -2.06708,2.06708 -4.8724,2.06708 -2.80532,0 -4.8724,-2.06708 -2.06708,-1.91943 -2.06708,-4.8724 v -7.08712 q 0,-1.18119 -1.03353,-1.18119 H 85.885253 q -2.214726,0 -3.838859,-1.47648 -1.624133,-1.62414 -1.624133,-3.83886 0,-2.21473 1.624133,-3.69121 1.624133,-1.62414 3.838859,-1.62414 h 10.925985 q 1.033539,0 1.033539,-1.18118 v -9.7448 q 0,-1.03354 -1.033539,-1.03354 h -6.64418 q -2.067078,0 -3.691211,-1.47648 -1.476484,-1.62414 -1.476484,-3.69121 0,-2.21473 1.476484,-3.69122 1.624133,-1.62413 3.691211,-1.62413 h 40.012732 q 1.03353,0 1.03353,-1.03354 v -5.31534 q 0,-1.18119 -1.03353,-1.18119 H 100.3548 q -3.543562,0 -6.201234,-2.51002 -2.510024,-2.65767 -2.510024,-6.20124 v -14.76484 q 0,-3.69121 2.510024,-6.20124 2.657672,-2.51002 6.201234,-2.51002 h 59.94527 q 3.69121,0 6.20123,2.51002 2.51002,2.51003 2.51002,6.20124 v 14.76484 q 0,3.54357 -2.51002,6.20124 -2.51002,2.51002 -6.20123,2.51002 h -14.17425 q -1.03354,0 -1.03354,1.18119 v 5.31534 q 0,1.03354 1.03354,1.03354 h 25.24788 q 2.21473,0 3.69121,1.62413 1.62413,1.47649 1.62413,3.69122 0,2.06707 -1.62413,3.69121 -1.47648,1.47648 -3.69121,1.47648 z m 5.75829,-77.81073 q 0,-1.18118 -1.18119,-1.18118 h -23.18081 q -1.03354,0 -1.32883,1.18118 -1.32884,5.61064 -2.36238,9.00656 -0.14765,0.44294 0.14765,0.73824 0.2953,0.2953 0.73824,0.2953 h 25.98613 q 1.18119,0 1.18119,-1.03354 z m 13.58365,9.00656 q 0,1.03354 1.03354,1.03354 h 7.97302 q 2.36237,0 3.9865,1.62413 1.62414,1.62413 1.62414,3.98651 0,2.36237 -1.62414,3.98651 -1.62413,1.62413 -3.9865,1.62413 H 85.442308 q -2.362375,0 -3.986508,-1.62413 -1.624133,-1.62414 -1.624133,-3.98651 0,-2.36238 1.624133,-3.98651 1.624133,-1.62413 3.986508,-1.62413 h 22.885512 q 1.18118,0 1.47648,-1.03354 1.03354,-3.39592 2.36238,-9.00656 0.14764,-1.18118 -0.8859,-1.18118 H 95.925347 q -2.214726,0 -3.838859,-1.62414 -1.624133,-1.62413 -1.624133,-3.83886 0,-2.36237 1.624133,-3.83886 1.624133,-1.62413 3.838859,-1.62413 h 17.717813 q 1.18119,0 1.32884,-1.18119 0.14764,-0.29529 0.29529,-1.32883 0.14765,-1.03354 0.2953,-1.47649 0.59059,-2.95297 2.95297,-4.72475 2.06708,-1.62413 4.5771,-1.62413 0.44295,0 0.88589,0 2.80532,0.2953 4.42945,2.65767 1.32884,1.62414 1.32884,3.69121 0,0.5906 -0.14765,1.32884 -0.14765,0.88589 -0.2953,1.47648 -0.29529,1.18119 0.73825,1.18119 h 26.72436 q 3.54357,0 6.05359,2.51002 2.65767,2.51003 2.65767,6.20124 z" />
			<path d="m 281.66708,247.36813 q 0.14765,-0.44295 -0.14765,-0.73824 -0.14764,-0.2953 -0.44294,-0.2953 h -38.53624 q -0.2953,0 -0.5906,0.2953 -0.14765,0.29529 0.14765,0.59059 2.65767,4.5771 4.5771,8.85891 0.5906,1.47648 -0.29529,2.80532 -0.73825,1.32883 -2.21473,1.62413 -0.14765,0 -0.14765,0.14765 0,0 0.14765,0 h 30.26793 q 1.03354,0 1.62413,-1.03354 2.65767,-4.8724 5.61064,-12.25482 z m 44.29453,55.07287 q 1.77179,1.77178 1.77179,4.2818 0,2.36238 -1.77179,4.13416 -1.77178,1.62413 -4.13415,1.62413 h -40.30803 q -0.29529,0 -0.44294,0.2953 0,0.29529 0.14765,0.44294 17.71781,11.95953 42.6704,18.16076 2.51002,0.59059 3.39591,3.10062 0.2953,0.88589 0.2953,1.62413 0,1.62413 -1.03354,2.95297 -2.21473,2.95297 -5.46299,4.13416 -1.62414,0.73824 -3.39592,0.73824 -1.47648,0 -2.95297,-0.5906 -27.46261,-9.00655 -45.77101,-25.39553 -0.2953,-0.14765 -0.5906,0 -0.29529,0 -0.29529,0.44295 v 22.29491 q 0,2.95297 -2.06708,4.8724 -1.91943,2.06708 -4.8724,2.06708 -2.80532,0 -4.8724,-2.06708 -1.91943,-1.91943 -1.91943,-4.8724 v -21.26137 q 0,-0.2953 -0.29529,-0.44295 -0.2953,-0.14765 -0.5906,0 -18.45605,15.20779 -45.62337,24.36199 -1.47648,0.44295 -2.95296,0.44295 -1.62414,0 -3.24827,-0.59059 -3.10062,-1.18119 -5.1677,-3.98651 -1.03354,-1.32884 -1.03354,-2.95297 0,-1.47648 0.8859,-2.80532 0.88589,-1.18119 2.51002,-1.62413 25.10023,-6.64418 42.6704,-18.60371 0.14765,-0.14765 0,-0.44294 0,-0.2953 -0.2953,-0.2953 h -39.71743 q -2.36237,0 -4.13416,-1.62413 -1.62413,-1.77178 -1.62413,-4.13416 0,-2.51002 1.62413,-4.2818 1.77179,-1.77178 4.13416,-1.77178 h 51.67695 q 1.18119,0 1.18119,-1.03354 v -7.08713 q 0,-1.03354 -1.18119,-1.03354 h -38.09329 q -2.21473,0 -3.83886,-1.47648 -1.47649,-1.62413 -1.47649,-3.83886 0,-2.21473 1.47649,-3.69121 1.62413,-1.62414 3.83886,-1.62414 h 38.09329 q 1.18119,0 1.18119,-1.03353 v -6.93948 q 0,-1.03354 -1.18119,-1.03354 h -45.18042 q -2.36237,0 -3.98651,-1.62413 -1.62413,-1.62414 -1.62413,-3.98651 0,-2.36238 1.62413,-3.98651 1.62414,-1.62413 3.98651,-1.62413 h 24.21435 q 0.44294,0 0.59059,-0.2953 0.2953,-0.29529 0.14765,-0.73824 -1.62413,-4.5771 -4.42945,-9.89245 -0.44295,-1.03353 0,-2.06707 0.44294,-1.03354 1.62413,-1.32884 h -27.90556 q -2.51002,0 -4.2818,-1.77178 -1.62413,-1.77178 -1.62413,-4.13416 0,-2.51002 1.62413,-4.13415 1.77178,-1.77178 4.2818,-1.77178 h 15.35544 q 0.2953,0 0.44295,-0.2953 0.29529,-0.44295 0.14764,-0.73824 -2.51002,-6.34889 -7.08712,-13.87896 -1.32884,-2.21472 -0.59059,-4.42945 0.88589,-2.36238 3.24826,-3.10062 1.32884,-0.44294 2.65767,-0.44294 1.47649,0 2.80532,0.44294 2.80532,0.88589 4.28181,3.24827 3.10062,5.02005 5.46299,9.59715 0.73824,1.47648 0.73824,2.95297 0,1.18118 -0.59059,2.51002 -1.18119,2.80532 -3.98651,3.83886 -0.14765,0 -0.14765,0.14765 0.14765,0.14765 0.14765,0.14765 h 14.6172 q 1.18118,0 1.18118,-1.18119 v -18.16076 q 0,-2.65767 1.91943,-4.5771 1.91943,-1.91943 4.57711,-1.91943 2.80532,0 4.72475,1.91943 1.91943,1.91943 1.91943,4.5771 v 18.16076 q 0,1.18119 1.03353,1.18119 h 12.84542 q 1.03354,0 1.03354,-1.18119 v -18.01311 q 0,-2.80532 1.91943,-4.72475 2.06708,-1.91943 4.72475,-1.91943 2.80532,0 4.72475,1.91943 1.91943,1.91943 1.91943,4.72475 v 18.01311 q 0,1.18119 1.18118,1.18119 h 14.46955 q 0.14765,0 0.14765,-0.14765 -2.06708,-0.73825 -2.80532,-2.65768 -0.73824,-1.91942 0.2953,-3.69121 2.80532,-5.46299 5.16769,-10.77833 1.32884,-2.95297 4.13416,-4.42946 1.91943,-0.88589 3.83886,-0.88589 1.03354,0 2.06708,0.14765 2.65767,0.73824 3.83886,3.39592 0.44294,1.03354 0.44294,2.21472 0,1.32884 -0.73824,2.80532 -4.42945,7.67772 -8.26831,13.14071 -0.14765,0.2953 0,0.5906 0.14764,0.2953 0.44294,0.2953 h 14.91249 q 2.36238,0 3.98651,1.77178 1.77178,1.62413 1.77178,4.13415 0,2.36238 -1.77178,4.13416 -1.62413,1.77178 -3.98651,1.77178 H 299.0896 q -1.03354,0 -1.62413,0.88589 -2.65768,4.8724 -7.38243,12.55012 -0.14764,0.2953 0,0.59059 0.14765,0.2953 0.5906,0.2953 h 25.39553 q 2.21473,0 3.83886,1.62413 1.77178,1.62413 1.77178,3.98651 0,2.36237 -1.77178,3.98651 -1.62413,1.62413 -3.83886,1.62413 h -46.80456 q -1.18118,0 -1.18118,1.03354 v 6.93948 q 0,1.03353 1.18118,1.03353 h 40.01273 q 2.06708,0 3.54356,1.62414 1.62414,1.47648 1.62414,3.69121 0,2.21473 -1.62414,3.83886 -1.47648,1.47648 -3.54356,1.47648 h -40.01273 q -1.18118,0 -1.18118,1.03354 v 7.08713 q 0,1.03354 1.18118,1.03354 h 52.56285 q 2.36237,0 4.13415,1.77178 z" />
		</g>
		<g class="fg-font fg-color fg-f3" transform="scale(0.69538209,1.4380583)">
			<path d="m 463.01052,215.47607 q 1.18119,-2.65768 3.69121,-3.83886 1.62414,-0.73825 3.10062,-0.73825 1.18119,0 2.21473,0.2953 2.65767,0.88589 3.83886,3.39592 0.59059,1.32883 0.59059,2.65767 0,1.18119 -0.44294,2.36237 -5.463,12.55012 -12.40247,24.362 -0.5906,1.03353 -0.5906,2.06707 v 94.7903 q 0,2.65767 -1.91943,4.5771 -1.91943,2.06708 -4.72475,2.06708 -2.80532,0 -4.72475,-2.06708 -1.91943,-1.91943 -1.91943,-4.5771 v -75.00541 q 0,-0.29529 -0.29529,-0.29529 -0.2953,-0.14765 -0.44295,0.14765 -3.69121,4.72475 -7.08712,8.56361 -1.62414,1.77178 -3.83886,1.77178 -0.44295,0 -1.03354,-0.14765 -2.80532,-0.44295 -4.13416,-2.95297 -1.32884,-2.51002 -1.32884,-5.1677 0,-0.73824 0,-1.47648 0.44295,-3.39591 2.95297,-6.05359 17.27487,-18.75135 28.49615,-44.73747 z m 39.42214,104.97804 q 0,1.18118 1.18118,1.18118 h 17.71782 q 1.03353,0 1.03353,-1.18118 v -9.7448 q 0,-1.03354 -1.03353,-1.03354 h -17.71782 q -1.18118,0 -1.18118,1.03354 z m -5.1677,-50.64342 q -1.18119,0 -1.18119,1.03354 v 9.4495 q 0,1.03354 1.18119,1.03354 h 47.98574 q 1.03354,0 1.03354,-1.03354 v -9.4495 q 0,-1.03354 -1.03354,-1.03354 z m 40.01273,39.86508 q -1.03354,0 -1.03354,1.03354 v 9.7448 q 0,1.18118 1.03354,1.18118 h 28.3485 q 2.21472,0 3.69121,1.62414 1.62413,1.47648 1.62413,3.69121 0,2.21472 -1.62413,3.83886 -1.47649,1.47648 -3.69121,1.47648 h -28.3485 q -1.03354,0 -1.03354,1.18119 v 7.08712 q 0,2.95297 -2.06708,4.8724 -2.06708,2.06708 -4.8724,2.06708 -2.80532,0 -4.8724,-2.06708 -2.06708,-1.91943 -2.06708,-4.8724 v -7.08712 q 0,-1.18119 -1.03353,-1.18119 h -44.29454 q -2.21472,0 -3.83886,-1.47648 -1.62413,-1.62414 -1.62413,-3.83886 0,-2.21473 1.62413,-3.69121 1.62414,-1.62414 3.83886,-1.62414 h 10.92599 q 1.03354,0 1.03354,-1.18118 v -9.7448 q 0,-1.03354 -1.03354,-1.03354 h -6.64418 q -2.06708,0 -3.69121,-1.47648 -1.47649,-1.62414 -1.47649,-3.69121 0,-2.21473 1.47649,-3.69122 1.62413,-1.62413 3.69121,-1.62413 h 40.01273 q 1.03353,0 1.03353,-1.03354 v -5.31534 q 0,-1.18119 -1.03353,-1.18119 h -29.82499 q -3.54356,0 -6.20123,-2.51002 -2.51003,-2.65767 -2.51003,-6.20124 v -14.76484 q 0,-3.69121 2.51003,-6.20124 2.65767,-2.51002 6.20123,-2.51002 h 59.94527 q 3.69121,0 6.20123,2.51002 2.51003,2.51003 2.51003,6.20124 v 14.76484 q 0,3.54357 -2.51003,6.20124 -2.51002,2.51002 -6.20123,2.51002 h -14.17425 q -1.03354,0 -1.03354,1.18119 v 5.31534 q 0,1.03354 1.03354,1.03354 h 25.24788 q 2.21473,0 3.69121,1.62413 1.62413,1.47649 1.62413,3.69122 0,2.06707 -1.62413,3.69121 -1.47648,1.47648 -3.69121,1.47648 z m 5.75829,-77.81073 q 0,-1.18118 -1.18119,-1.18118 h -23.18081 q -1.03354,0 -1.32883,1.18118 -1.32884,5.61064 -2.36238,9.00656 -0.14765,0.44294 0.14765,0.73824 0.2953,0.2953 0.73824,0.2953 h 25.98613 q 1.18119,0 1.18119,-1.03354 z m 13.58365,9.00656 q 0,1.03354 1.03354,1.03354 h 7.97302 q 2.36237,0 3.98651,1.62413 1.62413,1.62413 1.62413,3.98651 0,2.36237 -1.62413,3.98651 -1.62414,1.62413 -3.98651,1.62413 h -89.03201 q -2.36238,0 -3.98651,-1.62413 -1.62413,-1.62414 -1.62413,-3.98651 0,-2.36238 1.62413,-3.98651 1.62413,-1.62413 3.98651,-1.62413 h 22.88551 q 1.18118,0 1.47648,-1.03354 1.03354,-3.39592 2.36238,-9.00656 0.14764,-1.18118 -0.88589,-1.18118 h -15.35544 q -2.21473,0 -3.83886,-1.62414 -1.62413,-1.62413 -1.62413,-3.83886 0,-2.36237 1.62413,-3.83886 1.62413,-1.62413 3.83886,-1.62413 h 17.71781 q 1.18119,0 1.32884,-1.18119 0.14764,-0.29529 0.29529,-1.32883 0.14765,-1.03354 0.2953,-1.47649 0.59059,-2.95297 2.95297,-4.72475 2.06708,-1.62413 4.5771,-1.62413 0.44295,0 0.88589,0 2.80532,0.2953 4.42945,2.65767 1.32884,1.62414 1.32884,3.69121 0,0.5906 -0.14765,1.32884 -0.14765,0.88589 -0.29529,1.47648 -0.2953,1.18119 0.73824,1.18119 h 26.72436 q 3.54357,0 6.05359,2.51002 2.65767,2.51003 2.65767,6.20124 z" />
			<path d="m 672.81895,247.36813 q 0.14765,-0.44295 -0.14764,-0.73824 -0.14765,-0.2953 -0.44295,-0.2953 h -38.53624 q -0.2953,0 -0.5906,0.2953 -0.14764,0.29529 0.14765,0.59059 2.65767,4.5771 4.5771,8.85891 0.5906,1.47648 -0.29529,2.80532 -0.73825,1.32883 -2.21473,1.62413 -0.14765,0 -0.14765,0.14765 0,0 0.14765,0 h 30.26793 q 1.03354,0 1.62413,-1.03354 2.65768,-4.8724 5.61064,-12.25482 z m 44.29454,55.07287 q 1.77178,1.77178 1.77178,4.2818 0,2.36238 -1.77178,4.13416 -1.77179,1.62413 -4.13416,1.62413 h -40.30802 q -0.2953,0 -0.44295,0.2953 0,0.29529 0.14765,0.44294 17.71781,11.95953 42.6704,18.16076 2.51002,0.59059 3.39591,3.10062 0.2953,0.88589 0.2953,1.62413 0,1.62413 -1.03354,2.95297 -2.21473,2.95297 -5.46299,4.13416 -1.62414,0.73824 -3.39592,0.73824 -1.47648,0 -2.95297,-0.5906 -27.46261,-9.00655 -45.77101,-25.39553 -0.2953,-0.14765 -0.5906,0 -0.29529,0 -0.29529,0.44295 v 22.29491 q 0,2.95297 -2.06708,4.8724 -1.91943,2.06708 -4.8724,2.06708 -2.80532,0 -4.8724,-2.06708 -1.91943,-1.91943 -1.91943,-4.8724 v -21.26137 q 0,-0.2953 -0.29529,-0.44295 -0.2953,-0.14765 -0.5906,0 -18.45605,15.20779 -45.62337,24.36199 -1.47648,0.44295 -2.95296,0.44295 -1.62414,0 -3.24827,-0.59059 -3.10062,-1.18119 -5.1677,-3.98651 -1.03353,-1.32884 -1.03353,-2.95297 0,-1.47648 0.88589,-2.80532 0.88589,-1.18119 2.51002,-1.62413 25.10023,-6.64418 42.6704,-18.60371 0.14765,-0.14765 0,-0.44294 0,-0.2953 -0.2953,-0.2953 h -39.71743 q -2.36237,0 -4.13415,-1.62413 -1.62414,-1.77178 -1.62414,-4.13416 0,-2.51002 1.62414,-4.2818 1.77178,-1.77178 4.13415,-1.77178 h 51.67696 q 1.18118,0 1.18118,-1.03354 v -7.08713 q 0,-1.03354 -1.18118,-1.03354 h -38.0933 q -2.21473,0 -3.83886,-1.47648 -1.47649,-1.62413 -1.47649,-3.83886 0,-2.21473 1.47649,-3.69121 1.62413,-1.62414 3.83886,-1.62414 h 38.0933 q 1.18118,0 1.18118,-1.03353 v -6.93948 q 0,-1.03354 -1.18118,-1.03354 h -45.18043 q -2.36237,0 -3.9865,-1.62413 -1.62414,-1.62414 -1.62414,-3.98651 0,-2.36238 1.62414,-3.98651 1.62413,-1.62413 3.9865,-1.62413 h 24.21435 q 0.44294,0 0.59059,-0.2953 0.2953,-0.29529 0.14765,-0.73824 -1.62413,-4.5771 -4.42945,-9.89245 -0.44295,-1.03353 0,-2.06707 0.44294,-1.03354 1.62413,-1.32884 h -27.90556 q -2.51002,0 -4.2818,-1.77178 -1.62413,-1.77178 -1.62413,-4.13416 0,-2.51002 1.62413,-4.13415 1.77178,-1.77178 4.2818,-1.77178 h 15.35544 q 0.2953,0 0.44295,-0.2953 0.29529,-0.44295 0.14765,-0.73824 -2.51003,-6.34889 -7.08713,-13.87896 -1.32884,-2.21472 -0.59059,-4.42945 0.88589,-2.36238 3.24826,-3.10062 1.32884,-0.44294 2.65767,-0.44294 1.47649,0 2.80532,0.44294 2.80532,0.88589 4.28181,3.24827 3.10062,5.02005 5.46299,9.59715 0.73824,1.47648 0.73824,2.95297 0,1.18118 -0.59059,2.51002 -1.18119,2.80532 -3.98651,3.83886 -0.14765,0 -0.14765,0.14765 0.14765,0.14765 0.14765,0.14765 h 14.6172 q 1.18118,0 1.18118,-1.18119 v -18.16076 q 0,-2.65767 1.91943,-4.5771 1.91943,-1.91943 4.57711,-1.91943 2.80532,0 4.72475,1.91943 1.91943,1.91943 1.91943,4.5771 v 18.16076 q 0,1.18119 1.03353,1.18119 h 12.84542 q 1.03354,0 1.03354,-1.18119 v -18.01311 q 0,-2.80532 1.91943,-4.72475 2.06708,-1.91943 4.72475,-1.91943 2.80532,0 4.72475,1.91943 1.91943,1.91943 1.91943,4.72475 v 18.01311 q 0,1.18119 1.18119,1.18119 h 14.46954 q 0.14765,0 0.14765,-0.14765 -2.06708,-0.73825 -2.80532,-2.65768 -0.73824,-1.91942 0.2953,-3.69121 2.80532,-5.46299 5.16769,-10.77833 1.32884,-2.95297 4.13416,-4.42946 1.91943,-0.88589 3.83886,-0.88589 1.03354,0 2.06708,0.14765 2.65767,0.73824 3.83886,3.39592 0.44294,1.03354 0.44294,2.21472 0,1.32884 -0.73824,2.80532 -4.42945,7.67772 -8.26831,13.14071 -0.14765,0.2953 0,0.5906 0.14764,0.2953 0.44294,0.2953 h 14.91249 q 2.36238,0 3.98651,1.77178 1.77178,1.62413 1.77178,4.13415 0,2.36238 -1.77178,4.13416 -1.62413,1.77178 -3.98651,1.77178 h -22.29491 q -1.03354,0 -1.62413,0.88589 -2.65767,4.8724 -7.38243,12.55012 -0.14764,0.2953 0,0.59059 0.14765,0.2953 0.5906,0.2953 h 25.39553 q 2.21473,0 3.83886,1.62413 1.77178,1.62413 1.77178,3.98651 0,2.36237 -1.77178,3.98651 -1.62413,1.62413 -3.83886,1.62413 h -46.80455 q -1.18119,0 -1.18119,1.03354 v 6.93948 q 0,1.03353 1.18119,1.03353 h 40.01272 q 2.06708,0 3.54356,1.62414 1.62414,1.47648 1.62414,3.69121 0,2.21473 -1.62414,3.83886 -1.47648,1.47648 -3.54356,1.47648 h -40.01272 q -1.18119,0 -1.18119,1.03354 v 7.08713 q 0,1.03354 1.18119,1.03354 h 52.56284 q 2.36237,0 4.13416,1.77178 z" />
		</g>
		<g class="fg-font fg-color fg-f2" transform="scale(0.69538209,1.4380583)">
			<path d="m 854.16238,215.47607 q 1.18119,-2.65768 3.69121,-3.83886 1.62413,-0.73825 3.10062,-0.73825 1.18118,0 2.21472,0.2953 2.65767,0.88589 3.83886,3.39592 0.5906,1.32883 0.5906,2.65767 0,1.18119 -0.44295,2.36237 -5.46299,12.55012 -12.40247,24.362 -0.59059,1.03353 -0.59059,2.06707 v 94.7903 q 0,2.65767 -1.91943,4.5771 -1.91943,2.06708 -4.72475,2.06708 -2.80532,0 -4.72475,-2.06708 -1.91943,-1.91943 -1.91943,-4.5771 v -75.00541 q 0,-0.29529 -0.2953,-0.29529 -0.2953,-0.14765 -0.44294,0.14765 -3.69121,4.72475 -7.08713,8.56361 -1.62413,1.77178 -3.83886,1.77178 -0.44294,0 -1.03354,-0.14765 -2.80532,-0.44295 -4.13415,-2.95297 -1.32884,-2.51002 -1.32884,-5.1677 0,-0.73824 0,-1.47648 0.44295,-3.39591 2.95297,-6.05359 17.27487,-18.75135 28.49615,-44.73747 z m 39.42213,104.97804 q 0,1.18118 1.18119,1.18118 h 17.71781 q 1.03354,0 1.03354,-1.18118 v -9.7448 q 0,-1.03354 -1.03354,-1.03354 H 894.7657 q -1.18119,0 -1.18119,1.03354 z m -5.16769,-50.64342 q -1.18119,0 -1.18119,1.03354 v 9.4495 q 0,1.03354 1.18119,1.03354 h 47.98574 q 1.03354,0 1.03354,-1.03354 v -9.4495 q 0,-1.03354 -1.03354,-1.03354 z m 40.01272,39.86508 q -1.03354,0 -1.03354,1.03354 v 9.7448 q 0,1.18118 1.03354,1.18118 h 28.3485 q 2.21473,0 3.69121,1.62414 1.62414,1.47648 1.62414,3.69121 0,2.21472 -1.62414,3.83886 -1.47648,1.47648 -3.69121,1.47648 h -28.3485 q -1.03354,0 -1.03354,1.18119 v 7.08712 q 0,2.95297 -2.06707,4.8724 -2.06708,2.06708 -4.8724,2.06708 -2.80532,0 -4.8724,-2.06708 -2.06708,-1.91943 -2.06708,-4.8724 v -7.08712 q 0,-1.18119 -1.03354,-1.18119 h -44.29453 q -2.21473,0 -3.83886,-1.47648 -1.62413,-1.62414 -1.62413,-3.83886 0,-2.21473 1.62413,-3.69121 1.62413,-1.62414 3.83886,-1.62414 h 10.92598 q 1.03354,0 1.03354,-1.18118 v -9.7448 q 0,-1.03354 -1.03354,-1.03354 h -6.64418 q -2.06707,0 -3.69121,-1.47648 -1.47648,-1.62414 -1.47648,-3.69121 0,-2.21473 1.47648,-3.69122 1.62414,-1.62413 3.69121,-1.62413 h 40.01273 q 1.03354,0 1.03354,-1.03354 v -5.31534 q 0,-1.18119 -1.03354,-1.18119 h -29.82498 q -3.54357,0 -6.20124,-2.51002 -2.51002,-2.65767 -2.51002,-6.20124 v -14.76484 q 0,-3.69121 2.51002,-6.20124 2.65767,-2.51002 6.20124,-2.51002 h 59.94526 q 3.69121,0 6.20124,2.51002 2.51002,2.51003 2.51002,6.20124 v 14.76484 q 0,3.54357 -2.51002,6.20124 -2.51003,2.51002 -6.20124,2.51002 h -14.17425 q -1.03354,0 -1.03354,1.18119 v 5.31534 q 0,1.03354 1.03354,1.03354 h 25.24789 q 2.21472,0 3.69121,1.62413 1.62413,1.47649 1.62413,3.69122 0,2.06707 -1.62413,3.69121 -1.47649,1.47648 -3.69121,1.47648 z m 5.75829,-77.81073 q 0,-1.18118 -1.18119,-1.18118 h -23.1808 q -1.03354,0 -1.32884,1.18118 -1.32883,5.61064 -2.36237,9.00656 -0.14765,0.44294 0.14765,0.73824 0.29529,0.2953 0.73824,0.2953 h 25.98612 q 1.18119,0 1.18119,-1.03354 z m 13.58366,9.00656 q 0,1.03354 1.03354,1.03354 h 7.97301 q 2.36238,0 3.98651,1.62413 1.62413,1.62413 1.62413,3.98651 0,2.36237 -1.62413,3.98651 -1.62413,1.62413 -3.98651,1.62413 h -89.03201 q -2.36237,0 -3.9865,-1.62413 -1.62414,-1.62414 -1.62414,-3.98651 0,-2.36238 1.62414,-3.98651 1.62413,-1.62413 3.9865,-1.62413 h 22.88551 q 1.18119,0 1.47649,-1.03354 1.03354,-3.39592 2.36237,-9.00656 0.14765,-1.18118 -0.88589,-1.18118 h -15.35544 q -2.21472,0 -3.83886,-1.62414 -1.62413,-1.62413 -1.62413,-3.83886 0,-2.36237 1.62413,-3.83886 1.62414,-1.62413 3.83886,-1.62413 h 17.71782 q 1.18118,0 1.32883,-1.18119 0.14765,-0.29529 0.2953,-1.32883 0.14765,-1.03354 0.2953,-1.47649 0.59059,-2.95297 2.95296,-4.72475 2.06708,-1.62413 4.57711,-1.62413 0.44294,0 0.88589,0 2.80532,0.2953 4.42945,2.65767 1.32884,1.62414 1.32884,3.69121 0,0.5906 -0.14765,1.32884 -0.14765,0.88589 -0.2953,1.47648 -0.2953,1.18119 0.73824,1.18119 h 26.72437 q 3.54356,0 6.05359,2.51002 2.65767,2.51003 2.65767,6.20124 z" />
			<path d="m 1063.9708,247.36813 q 0.1477,-0.44295 -0.1476,-0.73824 -0.1477,-0.2953 -0.443,-0.2953 h -38.5362 q -0.2953,0 -0.5906,0.2953 -0.1477,0.29529 0.1476,0.59059 2.6577,4.5771 4.5771,8.85891 0.5906,1.47648 -0.2953,2.80532 -0.7382,1.32883 -2.2147,1.62413 -0.1476,0 -0.1476,0.14765 0,0 0.1476,0 h 30.2679 q 1.0336,0 1.6242,-1.03354 2.6576,-4.8724 5.6106,-12.25482 z m 44.2945,55.07287 q 1.7718,1.77178 1.7718,4.2818 0,2.36238 -1.7718,4.13416 -1.7717,1.62413 -4.1341,1.62413 h -40.308 q -0.2953,0 -0.443,0.2953 0,0.29529 0.1477,0.44294 17.7178,11.95953 42.6704,18.16076 2.51,0.59059 3.3959,3.10062 0.2953,0.88589 0.2953,1.62413 0,1.62413 -1.0336,2.95297 -2.2147,2.95297 -5.463,4.13416 -1.6241,0.73824 -3.3959,0.73824 -1.4765,0 -2.9529,-0.5906 -27.4626,-9.00655 -45.7711,-25.39553 -0.2953,-0.14765 -0.5906,0 -0.2952,0 -0.2952,0.44295 v 22.29491 q 0,2.95297 -2.0671,4.8724 -1.9195,2.06708 -4.8724,2.06708 -2.8053,0 -4.8724,-2.06708 -1.9195,-1.91943 -1.9195,-4.8724 v -21.26137 q 0,-0.2953 -0.2952,-0.44295 -0.2953,-0.14765 -0.5906,0 -18.4561,15.20779 -45.62341,24.36199 -1.47648,0.44295 -2.95297,0.44295 -1.62413,0 -3.24826,-0.59059 -3.10062,-1.18119 -5.1677,-3.98651 -1.03354,-1.32884 -1.03354,-2.95297 0,-1.47648 0.88589,-2.80532 0.88589,-1.18119 2.51003,-1.62413 25.10026,-6.64418 42.67036,-18.60371 0.1477,-0.14765 0,-0.44294 0,-0.2953 -0.2953,-0.2953 h -39.71739 q -2.36238,0 -4.13416,-1.62413 -1.62413,-1.77178 -1.62413,-4.13416 0,-2.51002 1.62413,-4.2818 1.77178,-1.77178 4.13416,-1.77178 h 51.67699 q 1.1811,0 1.1811,-1.03354 v -7.08713 q 0,-1.03354 -1.1811,-1.03354 h -38.09334 q -2.21472,0 -3.83886,-1.47648 -1.47648,-1.62413 -1.47648,-3.83886 0,-2.21473 1.47648,-3.69121 1.62414,-1.62414 3.83886,-1.62414 h 38.09334 q 1.1811,0 1.1811,-1.03353 v -6.93948 q 0,-1.03354 -1.1811,-1.03354 h -45.18046 q -2.36238,0 -3.98651,-1.62413 -1.62413,-1.62414 -1.62413,-3.98651 0,-2.36238 1.62413,-3.98651 1.62413,-1.62413 3.98651,-1.62413 h 24.21436 q 0.4429,0 0.5906,-0.2953 0.2953,-0.29529 0.1476,-0.73824 -1.6241,-4.5771 -4.4294,-9.89245 -0.443,-1.03353 0,-2.06707 0.4429,-1.03354 1.6241,-1.32884 h -27.90555 q -2.51002,0 -4.28181,-1.77178 -1.62413,-1.77178 -1.62413,-4.13416 0,-2.51002 1.62413,-4.13415 1.77179,-1.77178 4.28181,-1.77178 h 15.35544 q 0.29531,0 0.44291,-0.2953 0.2953,-0.44295 0.1477,-0.73824 -2.51004,-6.34889 -7.08714,-13.87896 -1.32884,-2.21472 -0.5906,-4.42945 0.88589,-2.36238 3.24827,-3.10062 1.32883,-0.44294 2.65767,-0.44294 1.4765,0 2.8053,0.44294 2.8053,0.88589 4.2818,3.24827 3.1006,5.02005 5.463,9.59715 0.7383,1.47648 0.7383,2.95297 0,1.18118 -0.5906,2.51002 -1.1812,2.80532 -3.9865,3.83886 -0.1477,0 -0.1477,0.14765 0.1477,0.14765 0.1477,0.14765 h 14.6172 q 1.1811,0 1.1811,-1.18119 v -18.16076 q 0,-2.65767 1.9195,-4.5771 1.9194,-1.91943 4.5771,-1.91943 2.8053,0 4.7247,1.91943 1.9195,1.91943 1.9195,4.5771 v 18.16076 q 0,1.18119 1.0335,1.18119 h 12.8454 q 1.0335,0 1.0335,-1.18119 v -18.01311 q 0,-2.80532 1.9195,-4.72475 2.0671,-1.91943 4.7247,-1.91943 2.8053,0 4.7248,1.91943 1.9194,1.91943 1.9194,4.72475 v 18.01311 q 0,1.18119 1.1812,1.18119 h 14.4695 q 0.1477,0 0.1477,-0.14765 -2.0671,-0.73825 -2.8053,-2.65768 -0.7383,-1.91942 0.2953,-3.69121 2.8053,-5.46299 5.1677,-10.77833 1.3288,-2.95297 4.1341,-4.42946 1.9194,-0.88589 3.8389,-0.88589 1.0335,0 2.0671,0.14765 2.6576,0.73824 3.8388,3.39592 0.443,1.03354 0.443,2.21472 0,1.32884 -0.7383,2.80532 -4.4294,7.67772 -8.2683,13.14071 -0.1476,0.2953 0,0.5906 0.1477,0.2953 0.4429,0.2953 h 14.9125 q 2.3624,0 3.9865,1.77178 1.7718,1.62413 1.7718,4.13415 0,2.36238 -1.7718,4.13416 -1.6241,1.77178 -3.9865,1.77178 h -22.2949 q -1.0335,0 -1.6241,0.88589 -2.6577,4.8724 -7.3824,12.55012 -0.1477,0.2953 0,0.59059 0.1476,0.2953 0.5906,0.2953 h 25.3955 q 2.2147,0 3.8389,1.62413 1.7717,1.62413 1.7717,3.98651 0,2.36237 -1.7717,3.98651 -1.6242,1.62413 -3.8389,1.62413 h -46.8046 q -1.1811,0 -1.1811,1.03354 v 6.93948 q 0,1.03353 1.1811,1.03353 h 40.0128 q 2.067,0 3.5435,1.62414 1.6242,1.47648 1.6242,3.69121 0,2.21473 -1.6242,3.83886 -1.4765,1.47648 -3.5435,1.47648 h -40.0128 q -1.1811,0 -1.1811,1.03354 v 7.08713 q 0,1.03354 1.1811,1.03354 h 52.5629 q 2.3624,0 4.1341,1.77178 z" />
		</g>
		<g class="fg-font fg-color fg-f1" transform="scale(0.69538209,1.4380583)">
			<path d="m 1245.3142,215.47607 q 1.1812,-2.65768 3.6912,-3.83886 1.6242,-0.73825 3.1007,-0.73825 1.1811,0 2.2147,0.2953 2.6577,0.88589 3.8388,3.39592 0.5906,1.32883 0.5906,2.65767 0,1.18119 -0.4429,2.36237 -5.463,12.55012 -12.4025,24.362 -0.5906,1.03353 -0.5906,2.06707 v 94.7903 q 0,2.65767 -1.9194,4.5771 -1.9194,2.06708 -4.7247,2.06708 -2.8054,0 -4.7248,-2.06708 -1.9194,-1.91943 -1.9194,-4.5771 v -75.00541 q 0,-0.29529 -0.2953,-0.29529 -0.2953,-0.14765 -0.443,0.14765 -3.6912,4.72475 -7.0871,8.56361 -1.6241,1.77178 -3.8389,1.77178 -0.4429,0 -1.0335,-0.14765 -2.8053,-0.44295 -4.1341,-2.95297 -1.3289,-2.51002 -1.3289,-5.1677 0,-0.73824 0,-1.47648 0.443,-3.39591 2.953,-6.05359 17.2749,-18.75135 28.4961,-44.73747 z m 39.4222,104.97804 q 0,1.18118 1.1812,1.18118 h 17.7178 q 1.0335,0 1.0335,-1.18118 v -9.7448 q 0,-1.03354 -1.0335,-1.03354 h -17.7178 q -1.1812,0 -1.1812,1.03354 z m -5.1677,-50.64342 q -1.1812,0 -1.1812,1.03354 v 9.4495 q 0,1.03354 1.1812,1.03354 h 47.9857 q 1.0336,0 1.0336,-1.03354 v -9.4495 q 0,-1.03354 -1.0336,-1.03354 z m 40.0127,39.86508 q -1.0335,0 -1.0335,1.03354 v 9.7448 q 0,1.18118 1.0335,1.18118 h 28.3485 q 2.2147,0 3.6912,1.62414 1.6241,1.47648 1.6241,3.69121 0,2.21472 -1.6241,3.83886 -1.4765,1.47648 -3.6912,1.47648 h -28.3485 q -1.0335,0 -1.0335,1.18119 v 7.08712 q 0,2.95297 -2.0671,4.8724 -2.0671,2.06708 -4.8724,2.06708 -2.8053,0 -4.8724,-2.06708 -2.0671,-1.91943 -2.0671,-4.8724 v -7.08712 q 0,-1.18119 -1.0335,-1.18119 h -44.2946 q -2.2147,0 -3.8388,-1.47648 -1.6242,-1.62414 -1.6242,-3.83886 0,-2.21473 1.6242,-3.69121 1.6241,-1.62414 3.8388,-1.62414 h 10.926 q 1.0336,0 1.0336,-1.18118 v -9.7448 q 0,-1.03354 -1.0336,-1.03354 h -6.6442 q -2.067,0 -3.6912,-1.47648 -1.4765,-1.62414 -1.4765,-3.69121 0,-2.21473 1.4765,-3.69122 1.6242,-1.62413 3.6912,-1.62413 h 40.0128 q 1.0335,0 1.0335,-1.03354 v -5.31534 q 0,-1.18119 -1.0335,-1.18119 h -29.825 q -3.5436,0 -6.2013,-2.51002 -2.51,-2.65767 -2.51,-6.20124 v -14.76484 q 0,-3.69121 2.51,-6.20124 2.6577,-2.51002 6.2013,-2.51002 h 59.9452 q 3.6913,0 6.2013,2.51002 2.51,2.51003 2.51,6.20124 v 14.76484 q 0,3.54357 -2.51,6.20124 -2.51,2.51002 -6.2013,2.51002 h -14.1742 q -1.0335,0 -1.0335,1.18119 v 5.31534 q 0,1.03354 1.0335,1.03354 h 25.2479 q 2.2147,0 3.6912,1.62413 1.6241,1.47649 1.6241,3.69122 0,2.06707 -1.6241,3.69121 -1.4765,1.47648 -3.6912,1.47648 z m 5.7583,-77.81073 q 0,-1.18118 -1.1812,-1.18118 h -23.1808 q -1.0335,0 -1.3288,1.18118 -1.3289,5.61064 -2.3624,9.00656 -0.1477,0.44294 0.1476,0.73824 0.2953,0.2953 0.7383,0.2953 h 25.9861 q 1.1812,0 1.1812,-1.03354 z m 13.5836,9.00656 q 0,1.03354 1.0336,1.03354 h 7.973 q 2.3624,0 3.9865,1.62413 1.6241,1.62413 1.6241,3.98651 0,2.36237 -1.6241,3.98651 -1.6241,1.62413 -3.9865,1.62413 h -89.032 q -2.3624,0 -3.9865,-1.62413 -1.6242,-1.62414 -1.6242,-3.98651 0,-2.36238 1.6242,-3.98651 1.6241,-1.62413 3.9865,-1.62413 h 22.8855 q 1.1812,0 1.4765,-1.03354 1.0335,-3.39592 2.3624,-9.00656 0.1476,-1.18118 -0.8859,-1.18118 h -15.3555 q -2.2147,0 -3.8388,-1.62414 -1.6242,-1.62413 -1.6242,-3.83886 0,-2.36237 1.6242,-3.83886 1.6241,-1.62413 3.8388,-1.62413 h 17.7178 q 1.1812,0 1.3289,-1.18119 0.1476,-0.29529 0.2953,-1.32883 0.1476,-1.03354 0.2953,-1.47649 0.5906,-2.95297 2.9529,-4.72475 2.0671,-1.62413 4.5771,-1.62413 0.443,0 0.8859,0 2.8054,0.2953 4.4295,2.65767 1.3288,1.62414 1.3288,3.69121 0,0.5906 -0.1476,1.32884 -0.1477,0.88589 -0.2953,1.47648 -0.2953,1.18119 0.7382,1.18119 h 26.7244 q 3.5435,0 6.0536,2.51002 2.6576,2.51003 2.6576,6.20124 z" />
			<path d="m 1455.1227,247.36813 q 0.1476,-0.44295 -0.1477,-0.73824 -0.1476,-0.2953 -0.4429,-0.2953 h -38.5363 q -0.2953,0 -0.5906,0.2953 -0.1476,0.29529 0.1477,0.59059 2.6577,4.5771 4.5771,8.85891 0.5906,1.47648 -0.2953,2.80532 -0.7383,1.32883 -2.2147,1.62413 -0.1477,0 -0.1477,0.14765 0,0 0.1477,0 h 30.2679 q 1.0335,0 1.6241,-1.03354 2.6577,-4.8724 5.6107,-12.25482 z m 44.2945,55.07287 q 1.7718,1.77178 1.7718,4.2818 0,2.36238 -1.7718,4.13416 -1.7718,1.62413 -4.1342,1.62413 h -40.308 q -0.2953,0 -0.4429,0.2953 0,0.29529 0.1476,0.44294 17.7178,11.95953 42.6704,18.16076 2.51,0.59059 3.3959,3.10062 0.2953,0.88589 0.2953,1.62413 0,1.62413 -1.0335,2.95297 -2.2147,2.95297 -5.463,4.13416 -1.6241,0.73824 -3.3959,0.73824 -1.4765,0 -2.953,-0.5906 -27.4626,-9.00655 -45.771,-25.39553 -0.2953,-0.14765 -0.5906,0 -0.2953,0 -0.2953,0.44295 v 22.29491 q 0,2.95297 -2.0671,4.8724 -1.9194,2.06708 -4.8724,2.06708 -2.8053,0 -4.8724,-2.06708 -1.9194,-1.91943 -1.9194,-4.8724 v -21.26137 q 0,-0.2953 -0.2953,-0.44295 -0.2953,-0.14765 -0.5906,0 -18.456,15.20779 -45.6234,24.36199 -1.4764,0.44295 -2.9529,0.44295 -1.6242,0 -3.2483,-0.59059 -3.1006,-1.18119 -5.1677,-3.98651 -1.0335,-1.32884 -1.0335,-2.95297 0,-1.47648 0.8859,-2.80532 0.8859,-1.18119 2.51,-1.62413 25.1002,-6.64418 42.6704,-18.60371 0.1476,-0.14765 0,-0.44294 0,-0.2953 -0.2953,-0.2953 h -39.7174 q -2.3624,0 -4.1342,-1.62413 -1.6241,-1.77178 -1.6241,-4.13416 0,-2.51002 1.6241,-4.2818 1.7718,-1.77178 4.1342,-1.77178 h 51.6769 q 1.1812,0 1.1812,-1.03354 v -7.08713 q 0,-1.03354 -1.1812,-1.03354 h -38.0933 q -2.2147,0 -3.8388,-1.47648 -1.4765,-1.62413 -1.4765,-3.83886 0,-2.21473 1.4765,-3.69121 1.6241,-1.62414 3.8388,-1.62414 h 38.0933 q 1.1812,0 1.1812,-1.03353 v -6.93948 q 0,-1.03354 -1.1812,-1.03354 h -45.1804 q -2.3624,0 -3.9865,-1.62413 -1.6241,-1.62414 -1.6241,-3.98651 0,-2.36238 1.6241,-3.98651 1.6241,-1.62413 3.9865,-1.62413 h 24.2143 q 0.443,0 0.5906,-0.2953 0.2953,-0.29529 0.1477,-0.73824 -1.6242,-4.5771 -4.4295,-9.89245 -0.4429,-1.03353 0,-2.06707 0.443,-1.03354 1.6242,-1.32884 h -27.9056 q -2.51,0 -4.2818,-1.77178 -1.6241,-1.77178 -1.6241,-4.13416 0,-2.51002 1.6241,-4.13415 1.7718,-1.77178 4.2818,-1.77178 h 15.3554 q 0.2953,0 0.443,-0.2953 0.2953,-0.44295 0.1476,-0.73824 -2.51,-6.34889 -7.0871,-13.87896 -1.3288,-2.21472 -0.5906,-4.42945 0.8859,-2.36238 3.2483,-3.10062 1.3288,-0.44294 2.6577,-0.44294 1.4764,0 2.8053,0.44294 2.8053,0.88589 4.2818,3.24827 3.1006,5.02005 5.463,9.59715 0.7382,1.47648 0.7382,2.95297 0,1.18118 -0.5906,2.51002 -1.1812,2.80532 -3.9865,3.83886 -0.1476,0 -0.1476,0.14765 0.1476,0.14765 0.1476,0.14765 h 14.6172 q 1.1812,0 1.1812,-1.18119 v -18.16076 q 0,-2.65767 1.9194,-4.5771 1.9195,-1.91943 4.5771,-1.91943 2.8053,0 4.7248,1.91943 1.9194,1.91943 1.9194,4.5771 v 18.16076 q 0,1.18119 1.0335,1.18119 h 12.8455 q 1.0335,0 1.0335,-1.18119 v -18.01311 q 0,-2.80532 1.9194,-4.72475 2.0671,-1.91943 4.7248,-1.91943 2.8053,0 4.7247,1.91943 1.9195,1.91943 1.9195,4.72475 v 18.01311 q 0,1.18119 1.1811,1.18119 h 14.4696 q 0.1476,0 0.1476,-0.14765 -2.067,-0.73825 -2.8053,-2.65768 -0.7382,-1.91942 0.2953,-3.69121 2.8053,-5.46299 5.1677,-10.77833 1.3288,-2.95297 4.1342,-4.42946 1.9194,-0.88589 3.8388,-0.88589 1.0336,0 2.0671,0.14765 2.6577,0.73824 3.8389,3.39592 0.4429,1.03354 0.4429,2.21472 0,1.32884 -0.7382,2.80532 -4.4295,7.67772 -8.2683,13.14071 -0.1477,0.2953 0,0.5906 0.1476,0.2953 0.4429,0.2953 h 14.9125 q 2.3624,0 3.9865,1.77178 1.7718,1.62413 1.7718,4.13415 0,2.36238 -1.7718,4.13416 -1.6241,1.77178 -3.9865,1.77178 h -22.2949 q -1.0336,0 -1.6242,0.88589 -2.6576,4.8724 -7.3824,12.55012 -0.1476,0.2953 0,0.59059 0.1477,0.2953 0.5906,0.2953 h 25.3956 q 2.2147,0 3.8388,1.62413 1.7718,1.62413 1.7718,3.98651 0,2.36237 -1.7718,3.98651 -1.6241,1.62413 -3.8388,1.62413 h -46.8046 q -1.1812,0 -1.1812,1.03354 v 6.93948 q 0,1.03353 1.1812,1.03353 h 40.0127 q 2.0671,0 3.5436,1.62414 1.6241,1.47648 1.6241,3.69121 0,2.21473 -1.6241,3.83886 -1.4765,1.47648 -3.5436,1.47648 h -40.0127 q -1.1812,0 -1.1812,1.03354 v 7.08713 q 0,1.03354 1.1812,1.03354 h 52.5628 q 2.3624,0 4.1342,1.77178 z" />
		</g>
	</g>
</svg>
