<?xml version="1.0" encoding="UTF-8" standalone="no"?>
<svg
	xmlns="http://www.w3.org/2000/svg"
	xmlns:cc="http://creativecommons.org/ns#"
	xmlns:dc="http://purl.org/dc/elements/1.1/"
	xmlns:inkscape="http://www.inkscape.org/namespaces/inkscape"
	xmlns:rdf="http://www.w3.org/1999/02/22-rdf-syntax-ns#"
	xmlns:sodipodi="http://sodipodi.sourceforge.net/DTD/sodipodi-0.dtd"
	xmlns:svg="http://www.w3.org/2000/svg"
	width="1280"
	height="256"
	viewBox="0 0 1280 256"
	version="1.1"
	inkscape:version="1.2.2 (b0a8486541, 2022-12-01)"
	>
	<title>japan_ended</title>
	<metadata>
		<rdf:RDF>
			<cc:License rdf:about="http://creativecommons.org/publicdomain/zero/1.0/">
				<cc:permits rdf:resource="http://creativecommons.org/ns#Reproduction" />
				<cc:permits rdf:resource="http://creativecommons.org/ns#Distribution" />
				<cc:permits rdf:resource="http://creativecommons.org/ns#DerivativeWorks" />
			</cc:License>
			<cc:Work rdf:about="">
				<cc:license rdf:resource="http://creativecommons.org/publicdomain/zero/1.0/" />
				<dc:title>japan_ended</dc:title>
				<dc:creator>
					<cc:Agent>
						<dc:title>zawa-ch.</dc:title>
					</cc:Agent>
				</dc:creator>
			</cc:Work>
		</rdf:RDF>
	</metadata>
	<sodipodi:namedview
		pagecolor="#505050"
		bordercolor="#eeeeee"
		borderopacity="1"
		inkscape:showpageshadow="0"
		inkscape:pageopacity="0"
		inkscape:pagecheckerboard="0"
		inkscape:deskcolor="#505050"
		inkscape:document-units="px"
		showgrid="false"
		showguides="false"
		>
		<sodipodi:guide position="0,256" orientation="0,1280" />
		<sodipodi:guide position="1280,0" orientation="0,1280" />
		<sodipodi:guide position="0,256" orientation="256,0" />
		<sodipodi:guide position="1280,0" orientation="256,0" />
		<sodipodi:guide position="0,230.4" orientation="0,1280" />
		<sodipodi:guide position="0,25.6" orientation="0,1280" />
		<sodipodi:guide position="128,0" orientation="256,0" />
		<sodipodi:guide position="1152,0" orientation="256,0" />
		<sodipodi:guide position="0,128" orientation="0,1024" />
		<sodipodi:guide position="640,0" orientation="204.8,0" />
		<inkscape:grid type="xygrid" empspacing="16" />
	</sodipodi:namedview>
	<g
		 inkscape:groupmode="layer">
		<rect x="32" y="64" width="1184" height="128" style="fill:#070707;fill-opacity:1;stroke-width:1.5" />
	</g>
	<g inkscape:groupmode="layer" style="display:none">
		<text xml:space="preserve" style="font-style:normal;font-variant:normal;font-weight:normal;font-stretch:normal;font-size:96px;font-family:IPAゴシック;-inkscape-font-specification:'IPAゴシック, Normal';font-variant-ligatures:normal;font-variant-caps:normal;font-variant-numeric:normal;font-variant-east-asian:normal;text-align:center;text-anchor:middle;fill:#cc943d;fill-opacity:1;stroke-width:2.34871" x="640" y="164.75"><tspan sodipodi:role="line" x="640" y="164.75" style="font-style:normal;font-variant:normal;font-weight:normal;font-stretch:normal;font-size:96px;font-family:IPAゴシック;-inkscape-font-specification:'IPAゴシック, Normal';font-variant-ligatures:normal;font-variant-caps:normal;font-variant-numeric:normal;font-variant-east-asian:normal;text-align:center;text-anchor:middle;fill:#cc943d;fill-opacity:1;stroke-width:2.34871">日本は終了しました</tspan></text>
	</g>
	<g inkscape:label="Outline" inkscape:groupmode="layer">
		<g
			 aria-label="日本は終了しました"
			 style="font-size:96px;font-family:IPAゴシック;-inkscape-font-specification:'IPAゴシック, Normal';text-align:center;text-anchor:middle;fill:#cc943d;stroke-width:2.34871">
			<path d="m 286.46875,92.75 v 76.3125 h -7.3125 v -6.23438 h -46.45313 v 6.23438 h -7.3125 V 92.75 Z m -53.76563,6.421875 v 24.609375 h 46.45313 V 99.171875 Z m 0,31.124995 v 26.10938 h 46.45313 v -26.10938 z" />
			<path d="M 357.67187,112.8125 Q 371.40625,136.20312 394.84375,149 l -5.39063,6.75 q -23.25,-15.28125 -34.3125,-37.26562 v 27.65624 h 15.89063 V 152.375 H 355.375 v 18.51562 h -7.3125 V 152.375 H 332.5 v -6.23438 h 15.75 v -26.90624 q -9.98438,22.82812 -32.90625,39.46874 l -5.67188,-5.85937 q 23.10938,-13.64063 36.09375,-40.03125 h -34.54687 v -6.60937 H 348.0625 V 86.609375 h 7.3125 v 19.593755 h 37.45312 v 6.60937 z" />
			<path d="m 460.9375,91.578125 h 7.125 l 0.28125,16.593755 q 6.70312,-0.70313 15.375,-2.57813 l 0.5625,7.125 q -5.4375,1.07813 -15.84375,2.20313 l 0.46875,28.21874 q 7.59375,2.34375 20.0625,10.26563 l -4.125,6.65625 q -8.48438,-6.04688 -15.75,-9.70313 v 1.3125 q 0,8.625 -4.59375,11.34375 -3.23438,1.92188 -8.625,1.92188 -20.0625,0 -20.0625,-12.89063 0,-5.85937 5.29687,-9.28125 4.82813,-3.09375 11.90625,-3.09375 3.42188,0 9,1.17188 l -0.5625,-25.45312 q -6.14062,0.28125 -11.0625,0.28125 -6.51562,0 -13.125,-0.46875 l -0.32812,-6.89063 q 7.26562,0.65625 14.90625,0.65625 4.35937,0 9.51562,-0.28125 z m 1.17187,55.874995 q -5.76562,-1.64062 -9.42187,-1.64062 -9.98438,0 -9.98438,6.14062 0,2.34375 2.29688,4.03125 3.42187,2.71875 9.51562,2.71875 7.59375,0 7.59375,-6.75 z M 415,165.5 q -3.09375,-16.82813 -3.09375,-29.71875 0,-18.32812 6.79687,-44.296875 l 7.21875,1.828125 q -6.89062,25.78125 -6.89062,42.9375 0,4.96875 0.5625,11.90625 4.26562,-9 6.70312,-13.35938 l 4.82813,2.85938 q -8.85938,16.35937 -8.85938,24.98437 0,1.03125 0.0937,2.10938 z" />
			<path d="m 514.89062,118.76563 q -6.51562,-9.23438 -13.21875,-15.9375 l 4.3125,-4.45313 q 2.4375,2.48438 3.75,4.03125 5.76563,-8.90625 9.375,-17.625 l 6.23438,3.140625 q -6.14063,11.34375 -12.09375,18.937505 2.8125,3.46875 5.10937,6.98437 6.14063,-9 10.64063,-17.25 l 5.67187,3.60938 q -8.76562,14.34375 -18.60937,25.92187 l 4.5,-0.28125 q 5.53125,-0.28125 8.4375,-0.5625 -1.875,-4.3125 -3.75,-7.78125 l 5.20312,-2.20312 q 4.64063,8.01562 7.875,17.85937 l -5.67187,2.76562 q -0.60938,-2.15625 -1.92188,-5.95312 -1.3125,0.32812 -8.0625,1.26562 v 40.21875 h -6.23437 v -39.46875 q -5.85938,0.70313 -14.01563,1.17188 l -2.20312,-6.42187 q 5.0625,-0.1875 8.8125,-0.32813 4.03125,-5.15625 5.85937,-7.64062 z m 51.75,3.09375 q 8.57813,8.10937 21.51563,13.12499 l -4.5,6.14063 q -12.23438,-5.90625 -20.95313,-14.57812 -9.42187,10.17187 -23.39062,17.39062 l -4.26563,-5.48438 q 14.71875,-6.28125 23.53125,-16.21874 -5.57812,-6.84375 -9.28125,-13.26563 -4.03125,6.375 -10.3125,12.46875 l -4.125,-4.78125 Q 546.76562,105.59375 553,85.4375 l 6.28125,2.015625 q -2.29688,6.234375 -2.8125,7.40625 H 575.875 l 3.46875,3.1875 q -4.82813,13.171875 -12.70313,23.812505 z M 562.42187,117.5 q 6.14063,-8.34375 9.04688,-16.78125 h -17.57813 q -0.70312,1.54688 -1.35937,2.57813 3.89062,7.3125 9.89062,14.20312 z m -61.03125,44.29687 q 3.42188,-9.98437 4.40625,-23.4375 l 6.14063,0.75 q -1.03125,15.375 -4.40625,25.82813 z m 28.40625,-1.64062 Q 527.875,147.6875 524.78125,138.35937 l 5.39062,-1.64062 q 3.70313,9.28125 6.04688,20.8125 z m 41.25,-7.875 q -8.20312,-6.1875 -18.14062,-10.96875 l 3.9375,-4.96875 q 8.8125,4.45312 18.32812,10.54687 z m 5.10938,18.79687 q -14.8125,-8.34375 -32.53125,-15.23437 l 3.32812,-5.29688 q 16.96875,6.5625 33.04688,14.85938 z" />
			<path d="m 644.125,119.79688 v 41.85937 q 0,4.5 -1.54688,6.04687 -1.78125,1.92188 -7.07812,1.92188 -6.46875,0 -14.34375,-0.9375 L 619.75,160.71875 q 8.95312,1.3125 13.59375,1.3125 3.28125,0 3.28125,-3.42188 V 116.9375 q 14.10937,-8.53125 23.53125,-17.765625 h -52.5 V 92.75 h 61.40625 l 4.35937,4.5 q -14.625,13.17188 -29.29687,22.54688 z" />
			<path d="m 714.29687,91.484375 h 7.96875 v 53.484375 q 0,7.54687 2.48438,11.20312 3.04687,4.3125 10.875,4.3125 18,0 29.0625,-22.17187 l 5.67187,5.85937 q -5.25,10.21875 -14.20312,16.59375 -9.5625,7.03125 -20.4375,7.03125 -21.42188,0 -21.42188,-22.07812 z" />
			<path d="m 838.70312,88.625 0.375,14.01563 q 11.39063,-0.75 24.1875,-3.000005 l 0.5625,6.656255 q -10.54687,1.59375 -24.65625,2.67187 l 0.28125,11.90625 q 11.10938,-1.03125 19.96875,-2.67187 l 0.46875,6.60937 q -9.60937,1.64063 -20.25,2.39063 l 0.42188,16.49999 q 0.0469,0.0469 0.51562,0.1875 0.42188,0.14063 0.79688,0.32813 0.98437,0.375 1.64062,0.65625 0.375,0.1875 1.54688,0.5625 10.125,4.26562 20.4375,11.0625 l -4.59375,6.42187 q -9.04688,-6.79687 -17.57813,-10.73437 -0.23437,-0.0937 -0.65625,-0.32813 -0.28125,-0.14062 -0.42187,-0.1875 -0.60938,-0.28125 -1.5,-0.5625 0,8.90625 -3.9375,12.375 -4.125,3.5625 -12.9375,3.5625 -9.75,0 -15.42188,-3.09375 -6.9375,-3.89062 -6.9375,-10.73437 0,-5.39063 5.01563,-8.8125 5.85937,-4.03125 15.89062,-4.03125 4.59375,0 11.01563,1.3125 l -0.28125,-14.01562 Q 825.625,128 820.1875,128 q -7.21875,0 -14.85938,-0.51562 v -6.51563 q 7.78125,0.70313 16.40625,0.70313 4.96875,0 10.82813,-0.32813 -0.0937,-0.84375 -0.0937,-3.84375 0,-2.48437 -0.0937,-4.78125 -0.0937,-0.9375 -0.0937,-3.28125 -9.98438,0.23438 -13.125,0.23438 -8.4375,0 -19.03125,-0.51563 v -6.51562 q 10.03125,0.70312 20.34375,0.70312 2.76562,0 11.53125,-0.23437 l -0.14063,-2.48438 -0.1875,-2.765625 -0.1875,-4.171875 -0.0937,-2.484375 -0.1875,-2.578125 z m -5.67187,59.8125 q -7.21875,-1.92188 -11.48438,-1.92188 -6.14062,0 -10.26562,2.48438 -2.85938,1.73437 -2.85938,4.125 0,2.8125 3.23438,4.82812 4.125,2.67188 10.82812,2.67188 10.54688,0 10.54688,-7.78125 z" />
			<path d="m 906.29687,91.484375 h 7.96875 v 53.484375 q 0,7.54687 2.48438,11.20312 3.04687,4.3125 10.875,4.3125 18,0 29.0625,-22.17187 l 5.67187,5.85937 q -5.25,10.21875 -14.20312,16.59375 -9.5625,7.03125 -20.4375,7.03125 -21.42188,0 -21.42188,-22.07812 z" />
			<path d="m 986.3125,104.84375 q 6.79687,0.60938 13.03125,0.60938 3.60935,0 8.24995,-0.32813 2.3907,-9.28125 3.9375,-17.0625 l 7.5938,1.3125 q -1.0313,4.40625 -3.8438,15.1875 8.8594,-1.07812 15.5626,-2.67187 l 0.4687,7.07812 q -8.625,1.59375 -17.8594,2.29688 -10.2656,34.54687 -20.71873,55.49999 l -7.5,-3.28125 q 11.67188,-20.57812 20.62503,-51.70312 -5.2969,0.28125 -11.01565,0.28125 -2.20313,0 -8.34375,-0.1875 z m 76.0313,58.73437 q -10.4063,1.35938 -17.3907,1.35938 -14.625,0 -20.8593,-5.20313 -5.1563,-4.45312 -6.8907,-14.67187 L 1024,142.20312 q 1.0313,9.375 5.6719,12.46875 4.3125,2.85938 14.7187,2.85938 6.75,0 17.5313,-1.40625 z m -40.2188,-40.78124 q 16.125,-5.25 34.7344,-5.10938 v 7.125 h -0.375 q -17.5313,0 -33.2344,4.59375 z" />
		</g>
	</g>
</svg>
