<?xml version="1.0" encoding="UTF-8" standalone="no"?>
<svg
	xmlns="http://www.w3.org/2000/svg"
	xmlns:inkscape="http://www.inkscape.org/namespaces/inkscape"
	xmlns:sodipodi="http://sodipodi.sourceforge.net/DTD/sodipodi-0.dtd"
	xmlns:svg="http://www.w3.org/2000/svg"
	width="1280"
	height="256"
	viewBox="0 0 1280 256"
	version="1.1"
	inkscape:version="1.2.2 (b0a8486541, 2022-12-01)"
	>
	<sodipodi:namedview
		pagecolor="#505050"
		bordercolor="#eeeeee"
		borderopacity="1"
		inkscape:showpageshadow="0"
		inkscape:pageopacity="0"
		inkscape:pagecheckerboard="0"
		inkscape:deskcolor="#505050"
		inkscape:document-units="px"
		showgrid="false"
		showguides="false"
		>
		<sodipodi:guide position="0,256" orientation="0,1280" />
		<sodipodi:guide position="1280,0" orientation="0,1280" />
		<sodipodi:guide position="0,256" orientation="256,0" />
		<sodipodi:guide position="1280,0" orientation="256,0" />
		<sodipodi:guide position="0,230.4" orientation="0,1280" />
		<sodipodi:guide position="0,25.6" orientation="0,1280" />
		<sodipodi:guide position="128,0" orientation="256,0" />
		<sodipodi:guide position="1152,0" orientation="256,0" />
		<sodipodi:guide position="0,128" orientation="0,1024" />
		<sodipodi:guide position="640,0" orientation="204.8,0" />
		<inkscape:grid type="xygrid" empspacing="16" />
	</sodipodi:namedview>
	<g inkscape:groupmode="layer">
		<rect x="32" y="64" width="1184" height="128" style="fill:#070707;fill-opacity:1;stroke-width:1.5" />
	</g>
	<g inkscape:groupmode="layer" style="display:none">
		<text xml:space="preserve" style="font-style:normal;font-variant:normal;font-weight:normal;font-stretch:normal;font-size:96px;font-family:IPAゴシック;-inkscape-font-specification:'IPAゴシック, Normal';font-variant-ligatures:normal;font-variant-caps:normal;font-variant-numeric:normal;font-variant-east-asian:normal;text-align:center;text-anchor:middle;fill:#cc943d;fill-opacity:1;stroke-width:2.34871" x="640" y="164.75"><tspan sodipodi:role="line" x="640" y="164.75" style="font-style:normal;font-variant:normal;font-weight:normal;font-stretch:normal;font-size:96px;font-family:IPAゴシック;-inkscape-font-specification:'IPAゴシック, Normal';font-variant-ligatures:normal;font-variant-caps:normal;font-variant-numeric:normal;font-variant-east-asian:normal;text-align:center;text-anchor:middle;fill:#cc943d;fill-opacity:1;stroke-width:2.34871">電車がまいります</tspan></text>
	</g>
	<g inkscape:label="outline" inkscape:groupmode="layer">
		<g aria-label="電車がまいります" style="font-size:96px;font-family:IPAゴシック;-inkscape-font-specification:'IPAゴシック, Normal';text-align:center;text-anchor:middle;fill:#cc943d;stroke-width:2.34871">
			<path d="m 300.34375,99.078125 v -5.4375 H 271.79687 V 88.15625 h 64.26563 v 5.484375 h -29.10938 v 5.4375 h 36 v 19.406255 h -6.79687 v -14.20313 h -29.20313 v 20.90625 h -6.60937 v -20.90625 h -28.64063 v 14.39063 h -6.79687 V 99.078125 Z m 6.14062,57.515625 v 4.59375 q 0,2.67187 2.01563,3.09375 1.54687,0.375 14.85937,0.375 10.92188,0 12.84375,-0.375 3.14063,-0.70313 3.5625,-3.75 0.375,-3.28125 0.46875,-6.04688 l 6.32813,1.92188 q -0.14063,9.98437 -3.60938,12.1875 -2.67187,1.82812 -20.625,1.82812 -17.48437,0 -19.40625,-0.98437 -2.48437,-1.3125 -2.48437,-6.04688 v -6.79687 h -22.59375 v 5.67187 h -6.32813 V 128.75 h 64.21875 v 27.84375 z m -6.04687,-22.73438 h -22.59375 v 5.90625 h 22.59375 z m 6.04687,0 v 5.90625 H 329.5 v -5.90625 z M 300.4375,144.875 h -22.59375 v 6.42187 h 22.59375 z m 6.04687,0 v 6.42187 H 329.5 V 144.875 Z M 276.0625,109.4375 h 19.875 v 4.6875 h -19.875 z m 0,9.23438 h 19.875 v 4.78125 h -19.875 z m 35.29687,-9.23438 h 20.4375 v 4.6875 h -20.4375 z m 0,9.23438 h 20.4375 v 4.78125 h -20.4375 z" />
			<path d="m 396.25,109.34375 v -6.89062 H 361.09375 V 96.5 H 396.25 V 85.0625 h 6.79687 V 96.5 h 35.71875 v 5.95313 h -35.71875 v 6.89062 H 431.875 v 32.57812 h -28.82813 v 7.54688 h 38.625 v 5.95312 h -38.625 v 16.03125 H 396.25 v -16.03125 h -38.01563 v -5.95312 H 396.25 v -7.54688 h -28.21875 v -32.57812 z m 0.1875,5.76563 h -21.79688 v 7.59375 h 21.79688 z m 6.42187,0 v 7.59375 h 22.40625 v -7.59375 z m -6.42187,12.98437 h -21.79688 v 8.0625 h 21.79688 z m 6.42187,0 v 8.0625 h 22.40625 v -8.0625 z" />
			<path d="m 457.89062,113.98438 q 11.625,-1.78125 21.79688,-3 3,-11.343755 4.21875,-20.812505 L 491.5,91.578125 Q 489.39062,102.5 487.28125,110.32813 l 1.5,-0.0937 q 2.625,-0.0937 4.82812,-0.0937 15.46875,0 15.46875,19.07812 0,18.60937 -5.57812,29.76562 -3.32813,6.60938 -10.45313,6.60938 -6.1875,0 -13.35937,-4.3125 l 0.375,-8.15625 q 7.40625,4.96875 11.8125,4.96875 3.65625,0 5.57812,-3.9375 4.03125,-8.8125 4.03125,-25.21875 0,-12.46875 -8.25,-12.46875 -2.76562,0 -7.78125,0.375 -1.64062,6.46875 -5.76562,17.20312 -7.17188,18.75 -14.90625,31.26563 l -6.60938,-4.21875 q 10.17188,-14.90625 17.76563,-37.64062 0.375,-0.9375 1.92187,-5.625 -5.95312,0.65625 -18.32812,3.14062 z m 71.71875,23.20312 q -7.92187,-18 -20.25,-31.17187 l 5.76563,-4.03125 q 13.125,13.73437 21.1875,30.42187 z M 535.75,99.546875 q -4.3125,-6.46875 -10.45313,-11.90625 L 530.26562,84.125 q 5.8125,4.640625 10.78125,11.203125 z m -8.4375,7.218755 q -4.26563,-6.75 -10.17188,-12.187505 l 4.96875,-3.65625 q 5.4375,4.5 10.45313,11.718755 z" />
			<path d="m 598.70312,88.625 0.375,14.01563 q 11.39063,-0.75 24.1875,-3.000005 l 0.5625,6.656255 q -10.54687,1.59375 -24.65625,2.67187 l 0.28125,11.90625 q 11.10938,-1.03125 19.96875,-2.67187 l 0.46875,6.60937 q -9.60937,1.64063 -20.25,2.39063 l 0.42188,16.49999 q 0.0469,0.0469 0.51562,0.1875 0.42188,0.14063 0.79688,0.32813 0.98437,0.375 1.64062,0.65625 0.375,0.1875 1.54688,0.5625 10.125,4.26562 20.4375,11.0625 l -4.59375,6.42187 q -9.04688,-6.79687 -17.57813,-10.73437 -0.23437,-0.0937 -0.65625,-0.32813 -0.28125,-0.14062 -0.42187,-0.1875 -0.60938,-0.28125 -1.5,-0.5625 0,8.90625 -3.9375,12.375 -4.125,3.5625 -12.9375,3.5625 -9.75,0 -15.42188,-3.09375 -6.9375,-3.89062 -6.9375,-10.73437 0,-5.39063 5.01563,-8.8125 5.85937,-4.03125 15.89062,-4.03125 4.59375,0 11.01563,1.3125 l -0.28125,-14.01562 Q 585.625,128 580.1875,128 q -7.21875,0 -14.85938,-0.51562 v -6.51563 q 7.78125,0.70313 16.40625,0.70313 4.96875,0 10.82813,-0.32813 -0.0937,-0.84375 -0.0937,-3.84375 0,-2.48437 -0.0937,-4.78125 -0.0937,-0.9375 -0.0937,-3.28125 -9.98438,0.23438 -13.125,0.23438 -8.4375,0 -19.03125,-0.51563 v -6.51562 q 10.03125,0.70312 20.34375,0.70312 2.76562,0 11.53125,-0.23437 l -0.14063,-2.48438 -0.1875,-2.765625 -0.1875,-4.171875 -0.0937,-2.484375 -0.1875,-2.578125 z m -5.67187,59.8125 q -7.21875,-1.92188 -11.48438,-1.92188 -6.14062,0 -10.26562,2.48438 -2.85938,1.73437 -2.85938,4.125 0,2.8125 3.23438,4.82812 4.125,2.67188 10.82812,2.67188 10.54688,0 10.54688,-7.78125 z" />
			<path d="m 689.07812,143.04687 q -6.9375,19.875 -16.35937,19.875 -4.6875,0 -9.46875,-5.39062 -6.5625,-7.21875 -9.04688,-22.26563 -2.29687,-13.82812 -2.29687,-35.20312 h 7.96875 q -0.14063,28.03125 3.65625,41.48437 3.70312,13.03125 9.1875,13.03125 5.10937,0 9.70312,-16.6875 z m 30.14063,2.29688 Q 712,124.90625 699.0625,107.60938 l 6.79687,-3.32813 q 12.98438,15.89063 20.90625,37.03125 z" />
			<path d="m 781.23437,124.53125 q -8.20312,16.78125 -16.125,16.78125 -7.96875,0 -7.96875,-22.92187 0,-10.64063 2.10938,-26.10938 l 7.78125,0.9375 q -2.29688,16.26563 -2.29688,26.29688 0,12.46874 2.39063,12.46874 0.84375,0 2.10937,-1.45312 3.70313,-4.26562 6.79688,-11.48437 z m -7.40625,38.29687 q 15.70313,-5.625 21.60938,-15.84375 4.59375,-7.92187 4.59375,-26.85937 0,-13.45312 -1.40625,-29.296875 h 8.15625 q 1.125,13.687505 1.125,29.296875 0,21.89062 -6.04688,31.96875 -6.65625,11.10937 -22.54687,16.96875 z" />
			<path d="m 886.70312,88.625 0.375,14.01563 q 11.39063,-0.75 24.1875,-3.000005 l 0.5625,6.656255 q -10.54687,1.59375 -24.65625,2.67187 l 0.28125,11.90625 q 11.10938,-1.03125 19.96875,-2.67187 l 0.46875,6.60937 q -9.60937,1.64063 -20.25,2.39063 l 0.42188,16.49999 q 0.0469,0.0469 0.51562,0.1875 0.42188,0.14063 0.79688,0.32813 0.98437,0.375 1.64062,0.65625 0.375,0.1875 1.54688,0.5625 10.125,4.26562 20.4375,11.0625 l -4.59375,6.42187 q -9.04688,-6.79687 -17.57813,-10.73437 -0.23437,-0.0937 -0.65625,-0.32813 -0.28125,-0.14062 -0.42187,-0.1875 -0.60938,-0.28125 -1.5,-0.5625 0,8.90625 -3.9375,12.375 -4.125,3.5625 -12.9375,3.5625 -9.75,0 -15.42188,-3.09375 -6.9375,-3.89062 -6.9375,-10.73437 0,-5.39063 5.01563,-8.8125 5.85937,-4.03125 15.89062,-4.03125 4.59375,0 11.01563,1.3125 l -0.28125,-14.01562 Q 873.625,128 868.1875,128 q -7.21875,0 -14.85938,-0.51562 v -6.51563 q 7.78125,0.70313 16.40625,0.70313 4.96875,0 10.82813,-0.32813 -0.0937,-0.84375 -0.0937,-3.84375 0,-2.48437 -0.0937,-4.78125 -0.0937,-0.9375 -0.0937,-3.28125 -9.98438,0.23438 -13.125,0.23438 -8.4375,0 -19.03125,-0.51563 v -6.51562 q 10.03125,0.70312 20.34375,0.70312 2.76562,0 11.53125,-0.23437 l -0.14063,-2.48438 -0.1875,-2.765625 -0.1875,-4.171875 -0.0937,-2.484375 -0.1875,-2.578125 z m -5.67187,59.8125 q -7.21875,-1.92188 -11.48438,-1.92188 -6.14062,0 -10.26562,2.48438 -2.85938,1.73437 -2.85938,4.125 0,2.8125 3.23438,4.82812 4.125,2.67188 10.82812,2.67188 10.54688,0 10.54688,-7.78125 z" />
			<path d="m 977.82812,88.625 h 7.40625 v 15.14063 L 991,103.57813 q 11.1094,-0.375 17.8594,-0.46875 l 5.4843,-0.0937 v 6.70312 H 1007.9219 1003 l -7.875,0.14063 -4.78125,0.0937 h -5.10938 v 17.85937 q 2.10938,5.0625 2.10938,10.82812 0,22.96875 -24.70313,33.23438 l -5.53125,-5.95313 q 19.64063,-7.21875 23.20313,-21.60937 -3.5625,5.01562 -10.17188,5.01562 -5.53125,0 -9.89062,-4.21875 -4.3125,-4.3125 -4.3125,-10.6875 0,-6.98437 4.5,-12.09374 4.21875,-4.5 9.89062,-4.5 3.98438,0 7.5,2.39062 v -10.07812 l -9,0.1875 Q 943,110.84375 937.14062,111.125 v -6.70312 q 13.96875,-0.23438 40.6875,-0.46875 z m 0.75,45.42187 v -0.9375 q 0,-4.17187 -2.67187,-6.84374 -2.15625,-2.01563 -4.875,-2.01563 -6,0 -7.875,7.96875 l -0.0937,0.46875 v 0.51562 q 0,1.92188 0.375,3.42188 1.3125,6.375 7.5,6.375 4.26562,0 6.42187,-3.84375 1.21875,-2.10938 1.21875,-5.10938 z" />
		</g>
	</g>
</svg>
