<?xml version="1.0" encoding="UTF-8" standalone="no"?>
<!-- Created with Inkscape (http://www.inkscape.org/) -->
<svg
	xmlns="http://www.w3.org/2000/svg"
	xmlns:cc="http://creativecommons.org/ns#"
	xmlns:dc="http://purl.org/dc/elements/1.1/"
	xmlns:inkscape="http://www.inkscape.org/namespaces/inkscape"
	xmlns:sodipodi="http://sodipodi.sourceforge.net/DTD/sodipodi-0.dtd"
	xmlns:svg="http://www.w3.org/2000/svg"
	xmlns:rdf="http://www.w3.org/1999/02/22-rdf-syntax-ns#"
	width="48"
	height="64"
	viewBox="0 0 48 64"
	version="1.1"
	inkscape:version="1.3.2 (091e20ef0f, 2023-11-25, custom)"
	>
	<title>ledmatrix_ev_digitsix</title>
	<metadata>
		<rdf:RDF>
			<cc:License rdf:about="http://creativecommons.org/publicdomain/zero/1.0/">
				<cc:permits rdf:resource="http://creativecommons.org/ns#Reproduction" />
				<cc:permits rdf:resource="http://creativecommons.org/ns#Distribution" />
				<cc:permits rdf:resource="http://creativecommons.org/ns#DerivativeWorks" />
			</cc:License>
			<cc:Work rdf:about="">
				<cc:license rdf:resource="http://creativecommons.org/publicdomain/zero/1.0/" />
				<dc:title>ledmatrix_ev_digitsix</dc:title>
				<dc:creator>
					<cc:Agent>
						<dc:title>zawa-ch.</dc:title>
					</cc:Agent>
				</dc:creator>
			</cc:Work>
		</rdf:RDF>
	</metadata>
	<style>
		.bg {
			fill: #1a1a1a;
			fill-opacity: 1;
			stroke: none;
		}
		.led-off {
			fill: #2b2b2b;
			fill-opacity: 1;
			stroke: none;
		}
		.led-on {
			fill: #b5661f;
			fill-opacity: 1;
			stroke: none;
		}
	</style>
	<sodipodi:namedview
		pagecolor="#505050"
		bordercolor="#eeeeee"
		borderopacity="1"
		inkscape:showpageshadow="0"
		inkscape:pageopacity="0"
		inkscape:pagecheckerboard="0"
		inkscape:deskcolor="#505050"
		inkscape:document-units="px"
		showgrid="false"
		showguides="false"
		>
		<inkscape:grid units="px" originx="4" originy="4" spacingx="1" spacingy="1" empspacing="8" dotted="false" />
	</sodipodi:namedview>
	<g inkscape:groupmode="layer">
		<rect width="48" height="64" x="0" y="0" rx="0" ry="0" class="bg" />
		<rect width="6" height="6" x="5" y="5" rx="1" ry="1" class="led-off" />
		<rect width="6" height="6" x="13" y="5" rx="1" ry="1" class="led-off" />
		<rect width="6" height="6" x="21" y="5" rx="1" ry="1" class="led-off" />
		<rect width="6" height="6" x="29" y="5" rx="1" ry="1" class="led-off" />
		<rect width="6" height="6" x="37" y="5" rx="1" ry="1" class="led-off" />
		<rect width="6" height="6" x="5" y="13" rx="1" ry="1" class="led-off" />
		<rect width="6" height="6" x="13" y="13" rx="1" ry="1" class="led-off" />
		<rect width="6" height="6" x="21" y="13" rx="1" ry="1" class="led-off" />
		<rect width="6" height="6" x="29" y="13" rx="1" ry="1" class="led-off" />
		<rect width="6" height="6" x="37" y="13" rx="1" ry="1" class="led-off" />
		<rect width="6" height="6" x="5" y="21" rx="1" ry="1" class="led-off" />
		<rect width="6" height="6" x="13" y="21" rx="1" ry="1" class="led-off" />
		<rect width="6" height="6" x="21" y="21" rx="1" ry="1" class="led-off" />
		<rect width="6" height="6" x="29" y="21" rx="1" ry="1" class="led-off" />
		<rect width="6" height="6" x="37" y="21" rx="1" ry="1" class="led-off" />
		<rect width="6" height="6" x="5" y="29" rx="1" ry="1" class="led-off" />
		<rect width="6" height="6" x="13" y="29" rx="1" ry="1" class="led-off" />
		<rect width="6" height="6" x="21" y="29" rx="1" ry="1" class="led-off" />
		<rect width="6" height="6" x="29" y="29" rx="1" ry="1" class="led-off" />
		<rect width="6" height="6" x="37" y="29" rx="1" ry="1" class="led-off" />
		<rect width="6" height="6" x="5" y="37" rx="1" ry="1" class="led-off" />
		<rect width="6" height="6" x="13" y="37" rx="1" ry="1" class="led-off" />
		<rect width="6" height="6" x="21" y="37" rx="1" ry="1" class="led-off" />
		<rect width="6" height="6" x="29" y="37" rx="1" ry="1" class="led-off" />
		<rect width="6" height="6" x="37" y="37" rx="1" ry="1" class="led-off" />
		<rect width="6" height="6" x="5" y="45" rx="1" ry="1" class="led-off" />
		<rect width="6" height="6" x="13" y="45" rx="1" ry="1" class="led-off" />
		<rect width="6" height="6" x="21" y="45" rx="1" ry="1" class="led-off" />
		<rect width="6" height="6" x="29" y="45" rx="1" ry="1" class="led-off" />
		<rect width="6" height="6" x="37" y="45" rx="1" ry="1" class="led-off" />
		<rect width="6" height="6" x="5" y="53" rx="1" ry="1" class="led-off" />
		<rect width="6" height="6" x="13" y="53" rx="1" ry="1" class="led-off" />
		<rect width="6" height="6" x="21" y="53" rx="1" ry="1" class="led-off" />
		<rect width="6" height="6" x="29" y="53" rx="1" ry="1" class="led-off" />
		<rect width="6" height="6" x="37" y="53" rx="1" ry="1" class="led-off" />
	</g>
	<g inkscape:groupmode="layer">
		<rect width="6" height="6" x="21" y="5" rx="1" ry="1" class="led-on" />
		<rect width="6" height="6" x="29" y="5" rx="1" ry="1" class="led-on" />
		<rect width="6" height="6" x="13" y="13" rx="1" ry="1" class="led-on" />
		<rect width="6" height="6" x="5" y="21" rx="1" ry="1" class="led-on" />
		<rect width="6" height="6" x="5" y="29" rx="1" ry="1" class="led-on" />
		<rect width="6" height="6" x="13" y="29" rx="1" ry="1" class="led-on" />
		<rect width="6" height="6" x="21" y="29" rx="1" ry="1" class="led-on" />
		<rect width="6" height="6" x="29" y="29" rx="1" ry="1" class="led-on" />
		<rect width="6" height="6" x="5" y="37" rx="1" ry="1" class="led-on" />
		<rect width="6" height="6" x="37" y="37" rx="1" ry="1" class="led-on" />
		<rect width="6" height="6" x="5" y="45" rx="1" ry="1" class="led-on" />
		<rect width="6" height="6" x="37" y="45" rx="1" ry="1" class="led-on" />
		<rect width="6" height="6" x="13" y="53" rx="1" ry="1" class="led-on" />
		<rect width="6" height="6" x="21" y="53" rx="1" ry="1" class="led-on" />
		<rect width="6" height="6" x="29" y="53" rx="1" ry="1" class="led-on" />
	</g>
</svg>
